  0
SECTION
  2
HEADER
  9
$ACADVER
  1
AC1009
  9
$DWGCODEPAGE
  3
ansi_1252
  9
$INSBASE
 10
0.0
 20
0.0
 30
0.0
  9
$EXTMIN
 10
-10.08326480263158
 20
-0.48828125
 30
0.0
  9
$EXTMAX
 10
10.05530427631579
 20
0.51171875
 30
0.0
  9
$LIMMIN
 10
0.0
 20
0.0
  9
$LIMMAX
 10
12.0
 20
9.0
  9
$ORTHOMODE
 70
     0
  9
$REGENMODE
 70
     1
  9
$FILLMODE
 70
     1
  9
$QTEXTMODE
 70
     0
  9
$MIRRTEXT
 70
     1
  9
$DRAGMODE
 70
     2
  9
$LTSCALE
 40
1.0
  9
$OSMODE
 70
   511
  9
$ATTMODE
 70
     1
  9
$TEXTSIZE
 40
0.2
  9
$TRACEWID
 40
0.05
  9
$TEXTSTYLE
  7
STANDARD
  9
$CLAYER
  8
0
  9
$CELTYPE
  6
BYBLOCK
  9
$CECOLOR
 62
   256
  9
$DIMSCALE
 40
1.0
  9
$DIMASZ
 40
0.18
  9
$DIMEXO
 40
0.0625
  9
$DIMDLI
 40
0.38
  9
$DIMRND
 40
0.0
  9
$DIMDLE
 40
0.0
  9
$DIMEXE
 40
0.18
  9
$DIMTP
 40
0.0
  9
$DIMTM
 40
0.0
  9
$DIMTXT
 40
0.18
  9
$DIMCEN
 40
0.09
  9
$DIMTSZ
 40
0.0
  9
$DIMTOL
 70
     0
  9
$DIMLIM
 70
     0
  9
$DIMTIH
 70
     1
  9
$DIMTOH
 70
     1
  9
$DIMSE1
 70
     0
  9
$DIMSE2
 70
     0
  9
$DIMTAD
 70
     0
  9
$DIMZIN
 70
     0
  9
$DIMBLK
  1

  9
$DIMASO
 70
     1
  9
$DIMSHO
 70
     1
  9
$DIMPOST
  1

  9
$DIMAPOST
  1

  9
$DIMALT
 70
     0
  9
$DIMALTD
 70
     2
  9
$DIMALTF
 40
25.4
  9
$DIMLFAC
 40
1.0
  9
$DIMTOFL
 70
     0
  9
$DIMTVP
 40
0.0
  9
$DIMTIX
 70
     0
  9
$DIMSOXD
 70
     0
  9
$DIMSAH
 70
     0
  9
$DIMBLK1
  1

  9
$DIMBLK2
  1

  9
$DIMSTYLE
  2
STANDARD
  9
$DIMCLRD
 70
     0
  9
$DIMCLRE
 70
     0
  9
$DIMCLRT
 70
     0
  9
$DIMTFAC
 40
1.0
  9
$DIMGAP
 40
0.09
  9
$LUNITS
 70
     2
  9
$LUPREC
 70
     4
  9
$SKETCHINC
 40
0.1
  9
$FILLETRAD
 40
0.5
  9
$AUNITS
 70
     0
  9
$AUPREC
 70
     0
  9
$MENU
  1
.
  9
$ELEVATION
 40
0.0
  9
$PELEVATION
 40
0.0
  9
$THICKNESS
 40
0.0
  9
$LIMCHECK
 70
     0
  9
$CHAMFERA
 40
0.0
  9
$CHAMFERB
 40
0.0
  9
$SKPOLY
 70
     0
  9
$TDCREATE
 40
2457769.940091609
  9
$TDUPDATE
 40
2457777.703571875
  9
$TDINDWG
 40
0.0000003125
  9
$TDUSRTIMER
 40
2457777.581042778
  9
$USRTIMER
 70
     1
  9
$ANGBASE
 50
0.0
  9
$ANGDIR
 70
     0
  9
$PDMODE
 70
     0
  9
$PDSIZE
 40
0.0
  9
$PLINEWID
 40
0.0
  9
$COORDS
 70
     1
  9
$SPLFRAME
 70
     0
  9
$SPLINETYPE
 70
     6
  9
$SPLINESEGS
 70
     8
  9
$ATTDIA
 70
     0
  9
$ATTREQ
 70
     1
  9
$HANDLING
 70
     1
  9
$HANDSEED
  5
45A
  9
$SURFTAB1
 70
     6
  9
$SURFTAB2
 70
     6
  9
$SURFTYPE
 70
     6
  9
$SURFU
 70
     6
  9
$SURFV
 70
     6
  9
$UCSNAME
  2

  9
$UCSORG
 10
0.0
 20
0.0
 30
0.0
  9
$UCSXDIR
 10
1.0
 20
0.0
 30
0.0
  9
$UCSYDIR
 10
0.0
 20
1.0
 30
0.0
  9
$PUCSNAME
  2

  9
$PUCSORG
 10
0.0
 20
0.0
 30
0.0
  9
$PUCSXDIR
 10
1.0
 20
0.0
 30
0.0
  9
$PUCSYDIR
 10
0.0
 20
1.0
 30
0.0
  9
$USERI1
 70
     0
  9
$USERI2
 70
     0
  9
$USERI3
 70
     0
  9
$USERI4
 70
     0
  9
$USERI5
 70
     0
  9
$USERR1
 40
0.0
  9
$USERR2
 40
0.0
  9
$USERR3
 40
0.0
  9
$USERR4
 40
0.0
  9
$USERR5
 40
0.0
  9
$WORLDVIEW
 70
     1
  9
$SHADEDGE
 70
     3
  9
$SHADEDIF
 70
    70
  9
$TILEMODE
 70
     1
  9
$MAXACTVP
 70
    64
  9
$PLIMCHECK
 70
     0
  9
$PEXTMIN
 10
1.000000000000000E+20
 20
1.000000000000000E+20
 30
1.000000000000000E+20
  9
$PEXTMAX
 10
-1.000000000000000E+20
 20
-1.000000000000000E+20
 30
-1.000000000000000E+20
  9
$PLIMMIN
 10
0.0
 20
0.0
  9
$PLIMMAX
 10
0.0
 20
0.0
  9
$UNITMODE
 70
     0
  9
$VISRETAIN
 70
     1
  9
$PLINEGEN
 70
     0
  9
$PSLTSCALE
 70
     1
  0
ENDSEC
  0
SECTION
  2
TABLES
  0
TABLE
  2
VPORT
 70
     1
  0
VPORT
  2
*ACTIVE
 70
     0
 10
0.0
 20
0.0
 11
1.0
 21
1.0
 12
0.940678508067621
 22
0.2882429475173642
 13
0.0
 23
0.0
 14
0.5
 24
0.5
 15
0.5
 25
0.5
 16
0.0
 26
0.0
 36
1.0
 17
0.0
 27
0.0
 37
0.0
 40
16.87185738825541
 41
1.676792223572297
 42
50.0
 43
0.0
 44
0.0
 50
0.0
 51
0.0
 71
    16
 72
   100
 73
     1
 74
     3
 75
     0
 76
     0
 77
     0
 78
     0
  0
ENDTAB
  0
TABLE
  2
LTYPE
 70
     1
  0
LTYPE
  2
CONTINUOUS
 70
     0
  3
Solid line
 72
    65
 73
     0
 40
0.0
  0
ENDTAB
  0
TABLE
  2
LAYER
 70
     2
  0
LAYER
  2
0
 70
     0
 62
     7
  6
CONTINUOUS
  0
LAYER
  2
F_SILKS
 70
     0
 62
     7
  6
CONTINUOUS
  0
ENDTAB
  0
TABLE
  2
STYLE
 70
     1
  0
STYLE
  2
STANDARD
 70
     0
 40
0.0
 41
1.0
 50
0.0
 71
     0
 42
0.2
  3
txt
  4

  0
ENDTAB
  0
TABLE
  2
VIEW
 70
     0
  0
ENDTAB
  0
TABLE
  2
UCS
 70
     0
  0
ENDTAB
  0
TABLE
  2
APPID
 70
     2
  0
APPID
  2
ACAD
 70
     0
  0
APPID
  2
ACAECLAYERSTANDARD
 70
     0
  0
ENDTAB
  0
TABLE
  2
DIMSTYLE
 70
     1
  0
DIMSTYLE
  2
STANDARD
 70
     0
  3

  4

  5

  6

  7

 40
1.0
 41
0.18
 42
0.0625
 43
0.38
 44
0.18
 45
0.0
 46
0.0
 47
0.0
 48
0.0
140
0.18
141
0.09
142
0.0
143
25.4
144
1.0
145
0.0
146
1.0
147
0.09
 71
     0
 72
     0
 73
     1
 74
     1
 75
     0
 76
     0
 77
     0
 78
     0
170
     0
171
     2
172
     0
173
     0
174
     0
175
     0
176
     0
177
     0
178
     0
  0
ENDTAB
  0
ENDSEC
  0
SECTION
  2
BLOCKS
  0
BLOCK
  8
0
  2
$MODEL_SPACE
 70
     0
 10
0.0
 20
0.0
 30
0.0
  3
$MODEL_SPACE
  1

  0
ENDBLK
  5
14A
  8
0
  0
BLOCK
 67
     1
  8
0
  2
$PAPER_SPACE
 70
     0
 10
0.0
 20
0.0
 30
0.0
  3
$PAPER_SPACE
  1

  0
ENDBLK
  5
14C
 67
     1
  8
0
  0
ENDSEC
  0
SECTION
  2
ENTITIES
  0
LINE
  5
22
  8
F_SILKS
 10
9.70836759868421
 20
0.3118318256578947
 30
0.0
 11
10.05530427631579
 21
0.3118318256578947
 31
0.0
  0
LINE
  5
23
  8
F_SILKS
 10
10.05530427631579
 20
0.3118318256578947
 30
0.0
 11
10.05530427631579
 21
0.51171875
 31
0.0
  0
LINE
  5
24
  8
F_SILKS
 10
10.05530427631579
 20
0.51171875
 30
0.0
 11
9.15869140625
 21
0.51171875
 31
0.0
  0
LINE
  5
25
  8
F_SILKS
 10
9.15869140625
 20
0.51171875
 30
0.0
 11
9.15869140625
 21
0.3118318256578947
 31
0.0
  0
LINE
  5
26
  8
F_SILKS
 10
9.15869140625
 20
0.3118318256578947
 30
0.0
 11
9.508480674342104
 21
0.3118318256578947
 31
0.0
  0
LINE
  5
27
  8
F_SILKS
 10
9.508480674342104
 20
0.3118318256578947
 30
0.0
 11
9.508480674342104
 21
-0.4882812500000001
 31
0.0
  0
LINE
  5
28
  8
F_SILKS
 10
9.508480674342104
 20
-0.4882812500000001
 30
0.0
 11
9.70836759868421
 21
-0.4882812500000001
 31
0.0
  0
LINE
  5
29
  8
F_SILKS
 10
9.70836759868421
 20
-0.4882812500000001
 30
0.0
 11
9.70836759868421
 21
0.3118318256578947
 31
0.0
  0
LINE
  5
2A
  8
F_SILKS
 10
0.696340460526316
 20
0.3118318256578947
 30
0.0
 11
1.043277138157894
 21
0.3118318256578947
 31
0.0
  0
LINE
  5
2B
  8
F_SILKS
 10
1.043277138157894
 20
0.3118318256578947
 30
0.0
 11
1.043277138157894
 21
0.51171875
 31
0.0
  0
LINE
  5
2C
  8
F_SILKS
 10
1.043277138157894
 20
0.51171875
 30
0.0
 11
0.1466650390625
 21
0.51171875
 31
0.0
  0
LINE
  5
2D
  8
F_SILKS
 10
0.1466650390625
 20
0.51171875
 30
0.0
 11
0.1466650390625
 21
0.3118318256578947
 31
0.0
  0
LINE
  5
2E
  8
F_SILKS
 10
0.1466650390625
 20
0.3118318256578947
 30
0.0
 11
0.4964535361842106
 21
0.3118318256578947
 31
0.0
  0
LINE
  5
2F
  8
F_SILKS
 10
0.4964535361842106
 20
0.3118318256578947
 30
0.0
 11
0.4964535361842106
 21
-0.4882812500000001
 31
0.0
  0
LINE
  5
30
  8
F_SILKS
 10
0.4964535361842106
 20
-0.4882812500000001
 30
0.0
 11
0.696340460526316
 21
-0.4882812500000001
 31
0.0
  0
LINE
  5
31
  8
F_SILKS
 10
0.696340460526316
 20
-0.4882812500000001
 30
0.0
 11
0.696340460526316
 21
0.3118318256578947
 31
0.0
  0
LINE
  5
32
  8
F_SILKS
 10
2.110593133223684
 20
-0.3897769325657895
 30
0.0
 11
2.110593133223684
 21
0.4103361430921053
 31
0.0
  0
LINE
  5
33
  8
F_SILKS
 10
2.110593133223684
 20
0.4103361430921053
 30
0.0
 11
2.012088815789474
 21
0.51171875
 31
0.0
  0
LINE
  5
34
  8
F_SILKS
 10
2.012088815789474
 20
0.51171875
 30
0.0
 11
1.312510279605263
 21
0.51171875
 31
0.0
  0
LINE
  5
35
  8
F_SILKS
 10
1.312510279605263
 20
0.51171875
 30
0.0
 11
1.213980263157895
 21
0.4103361430921053
 31
0.0
  0
LINE
  5
36
  8
F_SILKS
 10
1.213980263157895
 20
0.4103361430921053
 30
0.0
 11
1.213980263157895
 21
-0.3897769325657895
 31
0.0
  0
LINE
  5
37
  8
F_SILKS
 10
1.213980263157895
 20
-0.3897769325657895
 30
0.0
 11
1.312510279605263
 21
-0.4882812500000001
 31
0.0
  0
LINE
  5
38
  8
F_SILKS
 10
1.312510279605263
 20
-0.4882812500000001
 30
0.0
 11
2.012088815789474
 21
-0.4882812500000001
 31
0.0
  0
LINE
  5
39
  8
F_SILKS
 10
2.012088815789474
 20
-0.4882812500000001
 30
0.0
 11
2.110593133223684
 21
-0.3897769325657895
 31
0.0
  0
LINE
  5
3A
  8
F_SILKS
 10
1.4138671875
 20
-0.2884200246710527
 30
0.0
 11
1.4138671875
 21
0.3118318256578947
 31
0.0
  0
LINE
  5
3B
  8
F_SILKS
 10
1.4138671875
 20
0.3118318256578947
 30
0.0
 11
1.912145353618421
 21
0.3118318256578947
 31
0.0
  0
LINE
  5
3C
  8
F_SILKS
 10
1.912145353618421
 20
0.3118318256578947
 30
0.0
 11
1.912145353618421
 21
-0.2884200246710527
 31
0.0
  0
LINE
  5
3D
  8
F_SILKS
 10
1.912145353618421
 20
-0.2884200246710527
 30
0.0
 11
1.4138671875
 21
-0.2884200246710527
 31
0.0
  0
LINE
  5
3E
  8
F_SILKS
 10
-0.0304461348684211
 20
-0.3897769325657895
 30
0.0
 11
-0.0304461348684211
 21
0.0121040553042763
 31
0.0
  0
LINE
  5
3F
  8
F_SILKS
 10
-0.0304461348684211
 20
0.0121040553042763
 30
0.0
 11
-0.1289507092927631
 21
0.1120474403782895
 31
0.0
  0
LINE
  5
40
  8
F_SILKS
 10
-0.1289507092927631
 20
0.1120474403782895
 30
0.0
 11
-0.727171566611842
 21
0.1120474403782895
 31
0.0
  0
LINE
  5
41
  8
F_SILKS
 10
-0.727171566611842
 20
0.1120474403782895
 30
0.0
 11
-0.727171566611842
 21
0.3118318256578947
 31
0.0
  0
LINE
  5
42
  8
F_SILKS
 10
-0.727171566611842
 20
0.3118318256578947
 30
0.0
 11
-0.2288939144736843
 21
0.3118318256578947
 31
0.0
  0
LINE
  5
43
  8
F_SILKS
 10
-0.2288939144736843
 20
0.3118318256578947
 30
0.0
 11
-0.2288939144736843
 21
0.2118883634868421
 31
0.0
  0
LINE
  5
44
  8
F_SILKS
 10
-0.2288939144736843
 20
0.2118883634868421
 30
0.0
 11
-0.0304461348684211
 21
0.2118883634868421
 31
0.0
  0
LINE
  5
45
  8
F_SILKS
 10
-0.0304461348684211
 20
0.2118883634868421
 30
0.0
 11
-0.0304461348684211
 21
0.4103361430921053
 31
0.0
  0
LINE
  5
46
  8
F_SILKS
 10
-0.0304461348684211
 20
0.4103361430921053
 30
0.0
 11
-0.1289507092927631
 21
0.51171875
 31
0.0
  0
LINE
  5
47
  8
F_SILKS
 10
-0.1289507092927631
 20
0.51171875
 30
0.0
 11
-0.828528474506579
 21
0.51171875
 31
0.0
  0
LINE
  5
48
  8
F_SILKS
 10
-0.828528474506579
 20
0.51171875
 30
0.0
 11
-0.9270584909539475
 21
0.4103361430921053
 31
0.0
  0
LINE
  5
49
  8
F_SILKS
 10
-0.9270584909539475
 20
0.4103361430921053
 30
0.0
 11
-0.9270584909539475
 21
-0.0178864874588816
 31
0.0
  0
LINE
  5
4A
  8
F_SILKS
 10
-0.9270584909539475
 20
-0.0178864874588816
 30
0.0
 11
-0.828528474506579
 21
-0.0892783717105264
 31
0.0
  0
LINE
  5
4B
  8
F_SILKS
 10
-0.828528474506579
 20
-0.0892783717105264
 30
0.0
 11
-0.2288939144736843
 21
-0.0892783717105264
 31
0.0
  0
LINE
  5
4C
  8
F_SILKS
 10
-0.2288939144736843
 20
-0.0892783717105264
 30
0.0
 11
-0.2288939144736843
 21
-0.2884200246710527
 31
0.0
  0
LINE
  5
4D
  8
F_SILKS
 10
-0.2288939144736843
 20
-0.2884200246710527
 30
0.0
 11
-0.727171566611842
 21
-0.2884200246710527
 31
0.0
  0
LINE
  5
4E
  8
F_SILKS
 10
-0.727171566611842
 20
-0.2884200246710527
 30
0.0
 11
-0.727171566611842
 21
-0.1895556640625
 31
0.0
  0
LINE
  5
4F
  8
F_SILKS
 10
-0.727171566611842
 20
-0.1895556640625
 30
0.0
 11
-0.9270584909539475
 21
-0.1895556640625
 31
0.0
  0
LINE
  5
50
  8
F_SILKS
 10
-0.9270584909539475
 20
-0.1895556640625
 30
0.0
 11
-0.9270584909539475
 21
-0.3897769325657895
 31
0.0
  0
LINE
  5
51
  8
F_SILKS
 10
-0.9270584909539475
 20
-0.3897769325657895
 30
0.0
 11
-0.828528474506579
 21
-0.4882812500000001
 31
0.0
  0
LINE
  5
52
  8
F_SILKS
 10
-0.828528474506579
 20
-0.4882812500000001
 30
0.0
 11
-0.1289507092927631
 21
-0.4882812500000001
 31
0.0
  0
LINE
  5
53
  8
F_SILKS
 10
-0.1289507092927631
 20
-0.4882812500000001
 30
0.0
 11
-0.0304461348684211
 21
-0.3897769325657895
 31
0.0
  0
LINE
  5
54
  8
F_SILKS
 10
2.530407072368421
 20
-0.0894837068256579
 30
0.0
 11
3.128623560855264
 21
-0.0894837068256579
 31
0.0
  0
LINE
  5
55
  8
F_SILKS
 10
3.128623560855264
 20
-0.0894837068256579
 30
0.0
 11
3.128623560855264
 21
0.1104027035361842
 31
0.0
  0
LINE
  5
56
  8
F_SILKS
 10
3.128623560855264
 20
0.1104027035361842
 30
0.0
 11
2.530407072368421
 21
0.1104027035361842
 31
0.0
  0
LINE
  5
57
  8
F_SILKS
 10
2.530407072368421
 20
0.1104027035361842
 30
0.0
 11
2.530407072368421
 21
0.3118318256578947
 31
0.0
  0
LINE
  5
58
  8
F_SILKS
 10
2.530407072368421
 20
0.3118318256578947
 30
0.0
 11
3.178582442434211
 21
0.3118318256578947
 31
0.0
  0
LINE
  5
59
  8
F_SILKS
 10
3.178582442434211
 20
0.3118318256578947
 30
0.0
 11
3.178582442434211
 21
0.51171875
 31
0.0
  0
LINE
  5
5A
  8
F_SILKS
 10
3.178582442434211
 20
0.51171875
 30
0.0
 11
2.330520148026316
 21
0.51171875
 31
0.0
  0
LINE
  5
5B
  8
F_SILKS
 10
2.330520148026316
 20
0.51171875
 30
0.0
 11
2.330520148026316
 21
-0.4882812500000001
 31
0.0
  0
LINE
  5
5C
  8
F_SILKS
 10
2.330520148026316
 20
-0.4882812500000001
 30
0.0
 11
2.530407072368421
 21
-0.4882812500000001
 31
0.0
  0
LINE
  5
5D
  8
F_SILKS
 10
2.530407072368421
 20
-0.4882812500000001
 30
0.0
 11
2.530407072368421
 21
-0.0894837068256579
 31
0.0
  0
LINE
  5
5E
  8
F_SILKS
 10
-1.095248252467105
 20
0.51171875
 30
0.0
 11
-1.295135176809211
 21
0.51171875
 31
0.0
  0
LINE
  5
5F
  8
F_SILKS
 10
-1.295135176809211
 20
0.51171875
 30
0.0
 11
-1.295135176809211
 21
-0.4882812500000001
 31
0.0
  0
LINE
  5
60
  8
F_SILKS
 10
-1.295135176809211
 20
-0.4882812500000001
 30
0.0
 11
-1.095248252467105
 21
-0.4882812500000001
 31
0.0
  0
LINE
  5
61
  8
F_SILKS
 10
-1.095248252467105
 20
-0.4882812500000001
 30
0.0
 11
-1.095248252467105
 21
0.51171875
 31
0.0
  0
LINE
  5
62
  8
F_SILKS
 10
-2.211788137335526
 20
-0.1898126541940789
 30
0.0
 11
-1.91339689555921
 21
-0.1898126541940789
 31
0.0
  0
LINE
  5
63
  8
F_SILKS
 10
-1.91339689555921
 20
-0.1898126541940789
 30
0.0
 11
-1.813453433388158
 21
-0.2883686266447369
 31
0.0
  0
LINE
  5
64
  8
F_SILKS
 10
-1.813453433388158
 20
-0.2883686266447369
 30
0.0
 11
-1.713509971217106
 21
-0.3897512335526316
 31
0.0
  0
LINE
  5
65
  8
F_SILKS
 10
-1.713509971217106
 20
-0.3897512335526316
 30
0.0
 11
-1.713509971217106
 21
-0.4882812500000001
 31
0.0
  0
LINE
  5
66
  8
F_SILKS
 10
-1.713509971217106
 20
-0.4882812500000001
 30
0.0
 11
-1.515062191611842
 21
-0.4882812500000001
 31
0.0
  0
LINE
  5
67
  8
F_SILKS
 10
-1.515062191611842
 20
-0.4882812500000001
 30
0.0
 11
-1.515062191611842
 21
-0.2883686266447369
 31
0.0
  0
LINE
  5
68
  8
F_SILKS
 10
-1.515062191611842
 20
-0.2883686266447369
 30
0.0
 11
-1.613566509046052
 21
-0.1898126541940789
 31
0.0
  0
LINE
  5
69
  8
F_SILKS
 10
-1.613566509046052
 20
-0.1898126541940789
 30
0.0
 11
-1.515062191611842
 21
-0.0898691920230263
 31
0.0
  0
LINE
  5
6A
  8
F_SILKS
 10
-1.515062191611842
 20
-0.0898691920230263
 30
0.0
 11
-1.515062191611842
 21
0.4103361430921053
 31
0.0
  0
LINE
  5
6B
  8
F_SILKS
 10
-1.515062191611842
 20
0.4103361430921053
 30
0.0
 11
-1.613566509046052
 21
0.51171875
 31
0.0
  0
LINE
  5
6C
  8
F_SILKS
 10
-1.613566509046052
 20
0.51171875
 30
0.0
 11
-2.411675061677632
 21
0.51171875
 31
0.0
  0
LINE
  5
6D
  8
F_SILKS
 10
-2.411675061677632
 20
0.51171875
 30
0.0
 11
-2.411675061677632
 21
-0.4882812500000001
 31
0.0
  0
LINE
  5
6E
  8
F_SILKS
 10
-2.411675061677632
 20
-0.4882812500000001
 30
0.0
 11
-2.211788137335526
 21
-0.4882812500000001
 31
0.0
  0
LINE
  5
6F
  8
F_SILKS
 10
-2.211788137335526
 20
-0.4882812500000001
 30
0.0
 11
-2.211788137335526
 21
-0.1898126541940789
 31
0.0
  0
LINE
  5
70
  8
F_SILKS
 10
-2.211788137335526
 20
0.0100739617598684
 30
0.0
 11
-2.211788137335526
 21
0.3118318256578947
 31
0.0
  0
LINE
  5
71
  8
F_SILKS
 10
-2.211788137335526
 20
0.3118318256578947
 30
0.0
 11
-1.713509971217106
 21
0.3118318256578947
 31
0.0
  0
LINE
  5
72
  8
F_SILKS
 10
-1.713509971217106
 20
0.3118318256578947
 30
0.0
 11
-1.713509971217106
 21
0.0100739617598684
 31
0.0
  0
LINE
  5
73
  8
F_SILKS
 10
-1.713509971217106
 20
0.0100739617598684
 30
0.0
 11
-2.211788137335526
 21
0.0100739617598684
 31
0.0
  0
LINE
  5
74
  8
F_SILKS
 10
4.245502672697368
 20
-0.3897769325657895
 30
0.0
 11
4.245502672697368
 21
0.4103361430921053
 31
0.0
  0
LINE
  5
75
  8
F_SILKS
 10
4.245502672697368
 20
0.4103361430921053
 30
0.0
 11
4.146998355263158
 21
0.51171875
 31
0.0
  0
LINE
  5
76
  8
F_SILKS
 10
4.146998355263158
 20
0.51171875
 30
0.0
 11
3.447419819078947
 21
0.51171875
 31
0.0
  0
LINE
  5
77
  8
F_SILKS
 10
3.447419819078947
 20
0.51171875
 30
0.0
 11
3.34888980263158
 21
0.4103361430921053
 31
0.0
  0
LINE
  5
78
  8
F_SILKS
 10
3.34888980263158
 20
0.4103361430921053
 30
0.0
 11
3.34888980263158
 21
-0.3897769325657895
 31
0.0
  0
LINE
  5
79
  8
F_SILKS
 10
3.34888980263158
 20
-0.3897769325657895
 30
0.0
 11
3.447419819078947
 21
-0.4882812500000001
 31
0.0
  0
LINE
  5
7A
  8
F_SILKS
 10
3.447419819078947
 20
-0.4882812500000001
 30
0.0
 11
4.146998355263158
 21
-0.4882812500000001
 31
0.0
  0
LINE
  5
7B
  8
F_SILKS
 10
4.146998355263158
 20
-0.4882812500000001
 30
0.0
 11
4.245502672697368
 21
-0.3897769325657895
 31
0.0
  0
LINE
  5
7C
  8
F_SILKS
 10
3.548776726973685
 20
-0.2884200246710527
 30
0.0
 11
3.548776726973685
 21
0.3118318256578947
 31
0.0
  0
LINE
  5
7D
  8
F_SILKS
 10
3.548776726973685
 20
0.3118318256578947
 30
0.0
 11
4.047054893092106
 21
0.3118318256578947
 31
0.0
  0
LINE
  5
7E
  8
F_SILKS
 10
4.047054893092106
 20
0.3118318256578947
 30
0.0
 11
4.047054893092106
 21
-0.2884200246710527
 31
0.0
  0
LINE
  5
7F
  8
F_SILKS
 10
4.047054893092106
 20
-0.2884200246710527
 30
0.0
 11
3.548776726973685
 21
-0.2884200246710527
 31
0.0
  0
LINE
  5
8C
  8
F_SILKS
 10
-3.732781661184211
 20
-0.3897769325657895
 30
0.0
 11
-3.732781661184211
 21
-0.1898897512335526
 31
0.0
  0
LINE
  5
8D
  8
F_SILKS
 10
-3.732781661184211
 20
-0.1898897512335526
 30
0.0
 11
-3.931229440789474
 21
-0.1898897512335526
 31
0.0
  0
LINE
  5
8E
  8
F_SILKS
 10
-3.931229440789474
 20
-0.1898897512335526
 30
0.0
 11
-3.931229440789474
 21
-0.2884200246710527
 31
0.0
  0
LINE
  5
8F
  8
F_SILKS
 10
-3.931229440789474
 20
-0.2884200246710527
 30
0.0
 11
-4.429507606907895
 21
-0.2884200246710527
 31
0.0
  0
LINE
  5
90
  8
F_SILKS
 10
-4.429507606907895
 20
-0.2884200246710527
 30
0.0
 11
-4.429507606907895
 21
0.3118318256578947
 31
0.0
  0
LINE
  5
91
  8
F_SILKS
 10
-4.429507606907895
 20
0.3118318256578947
 30
0.0
 11
-3.931229440789474
 21
0.3118318256578947
 31
0.0
  0
LINE
  5
92
  8
F_SILKS
 10
-3.931229440789474
 20
0.3118318256578947
 30
0.0
 11
-3.931229440789474
 21
0.2118883634868421
 31
0.0
  0
LINE
  5
93
  8
F_SILKS
 10
-3.931229440789474
 20
0.2118883634868421
 30
0.0
 11
-3.732781661184211
 21
0.2118883634868421
 31
0.0
  0
LINE
  5
94
  8
F_SILKS
 10
-3.732781661184211
 20
0.2118883634868421
 30
0.0
 11
-3.732781661184211
 21
0.4103361430921053
 31
0.0
  0
LINE
  5
95
  8
F_SILKS
 10
-3.732781661184211
 20
0.4103361430921053
 30
0.0
 11
-3.831285978618421
 21
0.51171875
 31
0.0
  0
LINE
  5
96
  8
F_SILKS
 10
-3.831285978618421
 20
0.51171875
 30
0.0
 11
-4.530864514802632
 21
0.51171875
 31
0.0
  0
LINE
  5
97
  8
F_SILKS
 10
-4.530864514802632
 20
0.51171875
 30
0.0
 11
-4.629394531250001
 21
0.4103361430921053
 31
0.0
  0
LINE
  5
98
  8
F_SILKS
 10
-4.629394531250001
 20
0.4103361430921053
 30
0.0
 11
-4.629394531250001
 21
-0.3897769325657895
 31
0.0
  0
LINE
  5
99
  8
F_SILKS
 10
-4.629394531250001
 20
-0.3897769325657895
 30
0.0
 11
-4.530864514802632
 21
-0.4882812500000001
 31
0.0
  0
LINE
  5
9A
  8
F_SILKS
 10
-4.530864514802632
 20
-0.4882812500000001
 30
0.0
 11
-3.831285978618421
 21
-0.4882812500000001
 31
0.0
  0
LINE
  5
9B
  8
F_SILKS
 10
-3.831285978618421
 20
-0.4882812500000001
 30
0.0
 11
-3.732781661184211
 21
-0.3897769325657895
 31
0.0
  0
LINE
  5
9C
  8
F_SILKS
 10
4.665321751644737
 20
-0.1898126541940789
 30
0.0
 11
4.963712993421053
 21
-0.1898126541940789
 31
0.0
  0
LINE
  5
9D
  8
F_SILKS
 10
4.963712993421053
 20
-0.1898126541940789
 30
0.0
 11
5.063656455592105
 21
-0.2883686266447369
 31
0.0
  0
LINE
  5
9E
  8
F_SILKS
 10
5.063656455592105
 20
-0.2883686266447369
 30
0.0
 11
5.16359991776316
 21
-0.3897512335526316
 31
0.0
  0
LINE
  5
9F
  8
F_SILKS
 10
5.16359991776316
 20
-0.3897512335526316
 30
0.0
 11
5.16359991776316
 21
-0.4882812500000001
 31
0.0
  0
LINE
  5
A0
  8
F_SILKS
 10
5.16359991776316
 20
-0.4882812500000001
 30
0.0
 11
5.36204769736842
 21
-0.4882812500000001
 31
0.0
  0
LINE
  5
A1
  8
F_SILKS
 10
5.36204769736842
 20
-0.4882812500000001
 30
0.0
 11
5.36204769736842
 21
-0.2883686266447369
 31
0.0
  0
LINE
  5
A2
  8
F_SILKS
 10
5.36204769736842
 20
-0.2883686266447369
 30
0.0
 11
5.26354337993421
 21
-0.1898126541940789
 31
0.0
  0
LINE
  5
A3
  8
F_SILKS
 10
5.26354337993421
 20
-0.1898126541940789
 30
0.0
 11
5.36204769736842
 21
-0.0898691920230263
 31
0.0
  0
LINE
  5
A4
  8
F_SILKS
 10
5.36204769736842
 20
-0.0898691920230263
 30
0.0
 11
5.36204769736842
 21
0.4103361430921053
 31
0.0
  0
LINE
  5
A5
  8
F_SILKS
 10
5.36204769736842
 20
0.4103361430921053
 30
0.0
 11
5.26354337993421
 21
0.51171875
 31
0.0
  0
LINE
  5
A6
  8
F_SILKS
 10
5.26354337993421
 20
0.51171875
 30
0.0
 11
4.465434827302632
 21
0.51171875
 31
0.0
  0
LINE
  5
A7
  8
F_SILKS
 10
4.465434827302632
 20
0.51171875
 30
0.0
 11
4.465434827302632
 21
-0.4882812500000001
 31
0.0
  0
LINE
  5
A8
  8
F_SILKS
 10
4.465434827302632
 20
-0.4882812500000001
 30
0.0
 11
4.665321751644737
 21
-0.4882812500000001
 31
0.0
  0
LINE
  5
A9
  8
F_SILKS
 10
4.665321751644737
 20
-0.4882812500000001
 30
0.0
 11
4.665321751644737
 21
-0.1898126541940789
 31
0.0
  0
LINE
  5
AA
  8
F_SILKS
 10
4.665321751644737
 20
0.0100739617598684
 30
0.0
 11
4.665321751644737
 21
0.3118318256578947
 31
0.0
  0
LINE
  5
AB
  8
F_SILKS
 10
4.665321751644737
 20
0.3118318256578947
 30
0.0
 11
5.16359991776316
 21
0.3118318256578947
 31
0.0
  0
LINE
  5
AC
  8
F_SILKS
 10
5.16359991776316
 20
0.3118318256578947
 30
0.0
 11
5.16359991776316
 21
0.0100739617598684
 31
0.0
  0
LINE
  5
AD
  8
F_SILKS
 10
5.16359991776316
 20
0.0100739617598684
 30
0.0
 11
4.665321751644737
 21
0.0100739617598684
 31
0.0
  0
LINE
  5
AE
  8
F_SILKS
 10
6.478592722039475
 20
-0.3897769325657895
 30
0.0
 11
6.478592722039475
 21
0.4103361430921053
 31
0.0
  0
LINE
  5
AF
  8
F_SILKS
 10
6.478592722039475
 20
0.4103361430921053
 30
0.0
 11
6.380088404605265
 21
0.51171875
 31
0.0
  0
LINE
  5
B0
  8
F_SILKS
 10
6.380088404605265
 20
0.51171875
 30
0.0
 11
5.680509868421055
 21
0.51171875
 31
0.0
  0
LINE
  5
B1
  8
F_SILKS
 10
5.680509868421055
 20
0.51171875
 30
0.0
 11
5.581979851973685
 21
0.4103361430921053
 31
0.0
  0
LINE
  5
B2
  8
F_SILKS
 10
5.581979851973685
 20
0.4103361430921053
 30
0.0
 11
5.581979851973685
 21
-0.3897769325657895
 31
0.0
  0
LINE
  5
B3
  8
F_SILKS
 10
5.581979851973685
 20
-0.3897769325657895
 30
0.0
 11
5.680509868421055
 21
-0.4882812500000001
 31
0.0
  0
LINE
  5
B4
  8
F_SILKS
 10
5.680509868421055
 20
-0.4882812500000001
 30
0.0
 11
6.380088404605265
 21
-0.4882812500000001
 31
0.0
  0
LINE
  5
B5
  8
F_SILKS
 10
6.380088404605265
 20
-0.4882812500000001
 30
0.0
 11
6.478592722039475
 21
-0.3897769325657895
 31
0.0
  0
LINE
  5
B6
  8
F_SILKS
 10
5.78186677631579
 20
-0.2884200246710527
 30
0.0
 11
5.78186677631579
 21
0.3118318256578947
 31
0.0
  0
LINE
  5
B7
  8
F_SILKS
 10
5.78186677631579
 20
0.3118318256578947
 30
0.0
 11
6.28014494243421
 21
0.3118318256578947
 31
0.0
  0
LINE
  5
B8
  8
F_SILKS
 10
6.28014494243421
 20
0.3118318256578947
 30
0.0
 11
6.28014494243421
 21
-0.2884200246710527
 31
0.0
  0
LINE
  5
B9
  8
F_SILKS
 10
6.28014494243421
 20
-0.2884200246710527
 30
0.0
 11
5.78186677631579
 21
-0.2884200246710527
 31
0.0
  0
LINE
  5
BA
  8
F_SILKS
 10
-4.849326685855264
 20
-0.3369654605263158
 30
0.0
 11
-5.59459806743421
 21
-0.3369654605263158
 31
0.0
  0
LINE
  5
BB
  8
F_SILKS
 10
-5.59459806743421
 20
-0.3369654605263158
 30
0.0
 11
-5.59459806743421
 21
0.3632298519736842
 31
0.0
  0
LINE
  5
BC
  8
F_SILKS
 10
-5.59459806743421
 20
0.3632298519736842
 30
0.0
 11
-4.996376439144737
 21
0.3632298519736842
 31
0.0
  0
LINE
  5
BD
  8
F_SILKS
 10
-4.996376439144737
 20
0.3632298519736842
 30
0.0
 11
-4.996376439144737
 21
-0.0895865028782895
 31
0.0
  0
LINE
  5
BE
  8
F_SILKS
 10
-4.996376439144737
 20
-0.0895865028782895
 30
0.0
 11
-5.07203433388158
 21
-0.0895865028782895
 31
0.0
  0
LINE
  5
BF
  8
F_SILKS
 10
-5.07203433388158
 20
-0.0895865028782895
 30
0.0
 11
-5.07203433388158
 21
0.2650082236842105
 31
0.0
  0
LINE
  5
C0
  8
F_SILKS
 10
-5.07203433388158
 20
0.2650082236842105
 30
0.0
 11
-5.51891447368421
 21
0.2650082236842105
 31
0.0
  0
LINE
  5
C1
  8
F_SILKS
 10
-5.51891447368421
 20
0.2650082236842105
 30
0.0
 11
-5.51891447368421
 21
-0.2366362561677632
 31
0.0
  0
LINE
  5
C2
  8
F_SILKS
 10
-5.51891447368421
 20
-0.2366362561677632
 30
0.0
 11
-4.849326685855264
 21
-0.2366362561677632
 31
0.0
  0
LINE
  5
C3
  8
F_SILKS
 10
-4.849326685855264
 20
-0.2366362561677632
 30
0.0
 11
-4.849326685855264
 21
0.4103361430921053
 31
0.0
  0
LINE
  5
C4
  8
F_SILKS
 10
-4.849326685855264
 20
0.4103361430921053
 30
0.0
 11
-4.947831003289474
 21
0.51171875
 31
0.0
  0
LINE
  5
C5
  8
F_SILKS
 10
-4.947831003289474
 20
0.51171875
 30
0.0
 11
-5.647409539473685
 21
0.51171875
 31
0.0
  0
LINE
  5
C6
  8
F_SILKS
 10
-5.647409539473685
 20
0.51171875
 30
0.0
 11
-5.745939555921055
 21
0.4103361430921053
 31
0.0
  0
LINE
  5
C7
  8
F_SILKS
 10
-5.745939555921055
 20
0.4103361430921053
 30
0.0
 11
-5.745939555921055
 21
-0.3897769325657895
 31
0.0
  0
LINE
  5
C8
  8
F_SILKS
 10
-5.745939555921055
 20
-0.3897769325657895
 30
0.0
 11
-5.647409539473685
 21
-0.4882812500000001
 31
0.0
  0
LINE
  5
C9
  8
F_SILKS
 10
-5.647409539473685
 20
-0.4882812500000001
 30
0.0
 11
-4.849326685855264
 21
-0.4882812500000001
 31
0.0
  0
LINE
  5
CA
  8
F_SILKS
 10
-4.849326685855264
 20
-0.4882812500000001
 30
0.0
 11
-4.849326685855264
 21
-0.3369654605263158
 31
0.0
  0
LINE
  5
CB
  8
F_SILKS
 10
-5.371864720394735
 20
-0.0838813219572369
 30
0.0
 11
-5.371864720394735
 21
0.1136664782072369
 31
0.0
  0
LINE
  5
CC
  8
F_SILKS
 10
-5.371864720394735
 20
0.1136664782072369
 30
0.0
 11
-5.21910978618421
 21
0.1136664782072369
 31
0.0
  0
LINE
  5
CD
  8
F_SILKS
 10
-5.21910978618421
 20
0.1136664782072369
 30
0.0
 11
-5.21910978618421
 21
-0.0838813219572369
 31
0.0
  0
LINE
  5
CE
  8
F_SILKS
 10
-5.21910978618421
 20
-0.0838813219572369
 30
0.0
 11
-5.371864720394735
 21
-0.0838813219572369
 31
0.0
  0
LINE
  5
CF
  8
F_SILKS
 10
7.235788445723685
 20
0.1788648745888158
 30
0.0
 11
7.734066611842105
 21
-0.4882812500000001
 31
0.0
  0
LINE
  5
D0
  8
F_SILKS
 10
7.734066611842105
 20
-0.4882812500000001
 30
0.0
 11
7.93251439144737
 21
-0.4882812500000001
 31
0.0
  0
LINE
  5
D1
  8
F_SILKS
 10
7.93251439144737
 20
-0.4882812500000001
 30
0.0
 11
7.93251439144737
 21
0.51171875
 31
0.0
  0
LINE
  5
D2
  8
F_SILKS
 10
7.93251439144737
 20
0.51171875
 30
0.0
 11
7.734066611842105
 21
0.51171875
 31
0.0
  0
LINE
  5
D3
  8
F_SILKS
 10
7.734066611842105
 20
0.51171875
 30
0.0
 11
7.734066611842105
 21
-0.1540141858552632
 31
0.0
  0
LINE
  5
D4
  8
F_SILKS
 10
7.734066611842105
 20
-0.1540141858552632
 30
0.0
 11
7.235788445723685
 21
0.51171875
 31
0.0
  0
LINE
  5
D5
  8
F_SILKS
 10
7.235788445723685
 20
0.51171875
 30
0.0
 11
7.03590152138158
 21
0.51171875
 31
0.0
  0
LINE
  5
D6
  8
F_SILKS
 10
7.03590152138158
 20
0.51171875
 30
0.0
 11
7.03590152138158
 21
-0.4882812500000001
 31
0.0
  0
LINE
  5
D7
  8
F_SILKS
 10
7.03590152138158
 20
-0.4882812500000001
 30
0.0
 11
7.235788445723685
 21
-0.4882812500000001
 31
0.0
  0
LINE
  5
D8
  8
F_SILKS
 10
7.235788445723685
 20
-0.4882812500000001
 30
0.0
 11
7.235788445723685
 21
0.1788648745888158
 31
0.0
  0
LINE
  5
D9
  8
F_SILKS
 10
-6.281429893092105
 20
-0.1111482319078947
 30
0.0
 11
-5.93307976973684
 21
0.1388517680921053
 31
0.0
  0
LINE
  5
DA
  8
F_SILKS
 10
-5.93307976973684
 20
0.1388517680921053
 30
0.0
 11
-5.93307976973684
 21
0.51171875
 31
0.0
  0
LINE
  5
DB
  8
F_SILKS
 10
-5.93307976973684
 20
0.51171875
 30
0.0
 11
-6.131527549342105
 21
0.51171875
 31
0.0
  0
LINE
  5
DC
  8
F_SILKS
 10
-6.131527549342105
 20
0.51171875
 30
0.0
 11
-6.131527549342105
 21
0.22314453125
 31
0.0
  0
LINE
  5
DD
  8
F_SILKS
 10
-6.131527549342105
 20
0.22314453125
 30
0.0
 11
-6.3828125
 21
0.054558747944079
 31
0.0
  0
LINE
  5
DE
  8
F_SILKS
 10
-6.3828125
 20
0.054558747944079
 30
0.0
 11
-6.629805715460525
 21
0.22314453125
 31
0.0
  0
LINE
  5
DF
  8
F_SILKS
 10
-6.629805715460525
 20
0.22314453125
 30
0.0
 11
-6.629805715460525
 21
0.51171875
 31
0.0
  0
LINE
  5
E0
  8
F_SILKS
 10
-6.629805715460525
 20
0.51171875
 30
0.0
 11
-6.82969263980263
 21
0.51171875
 31
0.0
  0
LINE
  5
E1
  8
F_SILKS
 10
-6.82969263980263
 20
0.51171875
 30
0.0
 11
-6.82969263980263
 21
0.1388517680921053
 31
0.0
  0
LINE
  5
E2
  8
F_SILKS
 10
-6.82969263980263
 20
0.1388517680921053
 30
0.0
 11
-6.479903371710525
 21
-0.1111482319078947
 31
0.0
  0
LINE
  5
E3
  8
F_SILKS
 10
-6.479903371710525
 20
-0.1111482319078947
 30
0.0
 11
-6.479903371710525
 21
-0.4882812500000001
 31
0.0
  0
LINE
  5
E4
  8
F_SILKS
 10
-6.479903371710525
 20
-0.4882812500000001
 30
0.0
 11
-6.281429893092105
 21
-0.4882812500000001
 31
0.0
  0
LINE
  5
E5
  8
F_SILKS
 10
-6.281429893092105
 20
-0.4882812500000001
 30
0.0
 11
-6.281429893092105
 21
-0.1111482319078947
 31
0.0
  0
LINE
  5
E6
  8
F_SILKS
 10
-7.00210731907895
 20
-0.2884200246710527
 30
0.0
 11
-7.65028782894737
 21
-0.2884200246710527
 31
0.0
  0
LINE
  5
E7
  8
F_SILKS
 10
-7.65028782894737
 20
-0.2884200246710527
 30
0.0
 11
-7.65028782894737
 21
-0.0894837068256579
 31
0.0
  0
LINE
  5
E8
  8
F_SILKS
 10
-7.65028782894737
 20
-0.0894837068256579
 30
0.0
 11
-7.052066200657895
 21
-0.0894837068256579
 31
0.0
  0
LINE
  5
E9
  8
F_SILKS
 10
-7.052066200657895
 20
-0.0894837068256579
 30
0.0
 11
-7.052066200657895
 21
0.1104027035361842
 31
0.0
  0
LINE
  5
EA
  8
F_SILKS
 10
-7.052066200657895
 20
0.1104027035361842
 30
0.0
 11
-7.65028782894737
 21
0.1104027035361842
 31
0.0
  0
LINE
  5
EB
  8
F_SILKS
 10
-7.65028782894737
 20
0.1104027035361842
 30
0.0
 11
-7.65028782894737
 21
0.3118318256578947
 31
0.0
  0
LINE
  5
EC
  8
F_SILKS
 10
-7.65028782894737
 20
0.3118318256578947
 30
0.0
 11
-7.00210731907895
 21
0.3118318256578947
 31
0.0
  0
LINE
  5
ED
  8
F_SILKS
 10
-7.00210731907895
 20
0.3118318256578947
 30
0.0
 11
-7.00210731907895
 21
0.51171875
 31
0.0
  0
LINE
  5
EE
  8
F_SILKS
 10
-7.00210731907895
 20
0.51171875
 30
0.0
 11
-7.850174753289475
 21
0.51171875
 31
0.0
  0
LINE
  5
EF
  8
F_SILKS
 10
-7.850174753289475
 20
0.51171875
 30
0.0
 11
-7.850174753289475
 21
-0.4882812500000001
 31
0.0
  0
LINE
  5
F0
  8
F_SILKS
 10
-7.850174753289475
 20
-0.4882812500000001
 30
0.0
 11
-7.00210731907895
 21
-0.4882812500000001
 31
0.0
  0
LINE
  5
F1
  8
F_SILKS
 10
-7.00210731907895
 20
-0.4882812500000001
 30
0.0
 11
-7.00210731907895
 21
-0.2884200246710527
 31
0.0
  0
LINE
  5
F2
  8
F_SILKS
 10
-8.76683285361842
 20
-0.1898126541940789
 30
0.0
 11
-8.468441611842104
 21
-0.1898126541940789
 31
0.0
  0
LINE
  5
F3
  8
F_SILKS
 10
-8.468441611842104
 20
-0.1898126541940789
 30
0.0
 11
-8.368498149671055
 21
-0.2883686266447369
 31
0.0
  0
LINE
  5
F4
  8
F_SILKS
 10
-8.368498149671055
 20
-0.2883686266447369
 30
0.0
 11
-8.2685546875
 21
-0.3897512335526316
 31
0.0
  0
LINE
  5
F5
  8
F_SILKS
 10
-8.2685546875
 20
-0.3897512335526316
 30
0.0
 11
-8.2685546875
 21
-0.4882812500000001
 31
0.0
  0
LINE
  5
F6
  8
F_SILKS
 10
-8.2685546875
 20
-0.4882812500000001
 30
0.0
 11
-8.07010690789474
 21
-0.4882812500000001
 31
0.0
  0
LINE
  5
F7
  8
F_SILKS
 10
-8.07010690789474
 20
-0.4882812500000001
 30
0.0
 11
-8.07010690789474
 21
-0.2883686266447369
 31
0.0
  0
LINE
  5
F8
  8
F_SILKS
 10
-8.07010690789474
 20
-0.2883686266447369
 30
0.0
 11
-8.16861122532895
 21
-0.1898126541940789
 31
0.0
  0
LINE
  5
F9
  8
F_SILKS
 10
-8.16861122532895
 20
-0.1898126541940789
 30
0.0
 11
-8.07010690789474
 21
-0.0898691920230263
 31
0.0
  0
LINE
  5
FA
  8
F_SILKS
 10
-8.07010690789474
 20
-0.0898691920230263
 30
0.0
 11
-8.07010690789474
 21
0.4103361430921053
 31
0.0
  0
LINE
  5
FB
  8
F_SILKS
 10
-8.07010690789474
 20
0.4103361430921053
 30
0.0
 11
-8.16861122532895
 21
0.51171875
 31
0.0
  0
LINE
  5
FC
  8
F_SILKS
 10
-8.16861122532895
 20
0.51171875
 30
0.0
 11
-8.966719777960526
 21
0.51171875
 31
0.0
  0
LINE
  5
FD
  8
F_SILKS
 10
-8.966719777960526
 20
0.51171875
 30
0.0
 11
-8.966719777960526
 21
-0.4882812500000001
 31
0.0
  0
LINE
  5
FE
  8
F_SILKS
 10
-8.966719777960526
 20
-0.4882812500000001
 30
0.0
 11
-8.76683285361842
 21
-0.4882812500000001
 31
0.0
  0
LINE
  5
FF
  8
F_SILKS
 10
-8.76683285361842
 20
-0.4882812500000001
 30
0.0
 11
-8.76683285361842
 21
-0.1898126541940789
 31
0.0
  0
LINE
  5
100
  8
F_SILKS
 10
-8.76683285361842
 20
0.0100739617598684
 30
0.0
 11
-8.76683285361842
 21
0.3118318256578947
 31
0.0
  0
LINE
  5
101
  8
F_SILKS
 10
-8.76683285361842
 20
0.3118318256578947
 30
0.0
 11
-8.2685546875
 21
0.3118318256578947
 31
0.0
  0
LINE
  5
102
  8
F_SILKS
 10
-8.2685546875
 20
0.3118318256578947
 30
0.0
 11
-8.2685546875
 21
0.0100739617598684
 31
0.0
  0
LINE
  5
103
  8
F_SILKS
 10
-8.2685546875
 20
0.0100739617598684
 30
0.0
 11
-8.76683285361842
 21
0.0100739617598684
 31
0.0
  0
LINE
  5
104
  8
F_SILKS
 10
9.00051398026316
 20
-0.2884200246710527
 30
0.0
 11
8.352333470394735
 21
-0.2884200246710527
 31
0.0
  0
LINE
  5
105
  8
F_SILKS
 10
8.352333470394735
 20
-0.2884200246710527
 30
0.0
 11
8.352333470394735
 21
-0.0894837068256579
 31
0.0
  0
LINE
  5
106
  8
F_SILKS
 10
8.352333470394735
 20
-0.0894837068256579
 30
0.0
 11
8.95055509868421
 21
-0.0894837068256579
 31
0.0
  0
LINE
  5
107
  8
F_SILKS
 10
8.95055509868421
 20
-0.0894837068256579
 30
0.0
 11
8.95055509868421
 21
0.1104027035361842
 31
0.0
  0
LINE
  5
108
  8
F_SILKS
 10
8.95055509868421
 20
0.1104027035361842
 30
0.0
 11
8.352333470394735
 21
0.1104027035361842
 31
0.0
  0
LINE
  5
109
  8
F_SILKS
 10
8.352333470394735
 20
0.1104027035361842
 30
0.0
 11
8.352333470394735
 21
0.3118318256578947
 31
0.0
  0
LINE
  5
10A
  8
F_SILKS
 10
8.352333470394735
 20
0.3118318256578947
 30
0.0
 11
9.00051398026316
 21
0.3118318256578947
 31
0.0
  0
LINE
  5
10B
  8
F_SILKS
 10
9.00051398026316
 20
0.3118318256578947
 30
0.0
 11
9.00051398026316
 21
0.51171875
 31
0.0
  0
LINE
  5
10C
  8
F_SILKS
 10
9.00051398026316
 20
0.51171875
 30
0.0
 11
8.15244654605263
 21
0.51171875
 31
0.0
  0
LINE
  5
10D
  8
F_SILKS
 10
8.15244654605263
 20
0.51171875
 30
0.0
 11
8.15244654605263
 21
-0.4882812500000001
 31
0.0
  0
LINE
  5
10E
  8
F_SILKS
 10
8.15244654605263
 20
-0.4882812500000001
 30
0.0
 11
9.00051398026316
 21
-0.4882812500000001
 31
0.0
  0
LINE
  5
10F
  8
F_SILKS
 10
9.00051398026316
 20
-0.4882812500000001
 30
0.0
 11
9.00051398026316
 21
-0.2884200246710527
 31
0.0
  0
LINE
  5
110
  8
F_SILKS
 10
-9.18665193256579
 20
-0.3897769325657895
 30
0.0
 11
-9.18665193256579
 21
0.0849349814967106
 31
0.0
  0
LINE
  5
111
  8
F_SILKS
 10
-9.18665193256579
 20
0.0849349814967106
 30
0.0
 11
-9.63638466282895
 21
0.0849349814967106
 31
0.0
  0
LINE
  5
112
  8
F_SILKS
 10
-9.63638466282895
 20
0.0849349814967106
 30
0.0
 11
-9.63638466282895
 21
-0.1149254728618422
 31
0.0
  0
LINE
  5
113
  8
F_SILKS
 10
-9.63638466282895
 20
-0.1149254728618422
 30
0.0
 11
-9.385099712171055
 21
-0.1149254728618422
 31
0.0
  0
LINE
  5
114
  8
F_SILKS
 10
-9.385099712171055
 20
-0.1149254728618422
 30
0.0
 11
-9.385099712171055
 21
-0.2884200246710527
 31
0.0
  0
LINE
  5
115
  8
F_SILKS
 10
-9.385099712171055
 20
-0.2884200246710527
 30
0.0
 11
-9.883377878289474
 21
-0.2884200246710527
 31
0.0
  0
LINE
  5
116
  8
F_SILKS
 10
-9.883377878289474
 20
-0.2884200246710527
 30
0.0
 11
-9.883377878289474
 21
0.3118318256578947
 31
0.0
  0
LINE
  5
117
  8
F_SILKS
 10
-9.883377878289474
 20
0.3118318256578947
 30
0.0
 11
-9.385099712171055
 21
0.3118318256578947
 31
0.0
  0
LINE
  5
118
  8
F_SILKS
 10
-9.385099712171055
 20
0.3118318256578947
 30
0.0
 11
-9.385099712171055
 21
0.2118883634868421
 31
0.0
  0
LINE
  5
119
  8
F_SILKS
 10
-9.385099712171055
 20
0.2118883634868421
 30
0.0
 11
-9.18665193256579
 21
0.2118883634868421
 31
0.0
  0
LINE
  5
11A
  8
F_SILKS
 10
-9.18665193256579
 20
0.2118883634868421
 30
0.0
 11
-9.18665193256579
 21
0.4103361430921053
 31
0.0
  0
LINE
  5
11B
  8
F_SILKS
 10
-9.18665193256579
 20
0.4103361430921053
 30
0.0
 11
-9.28515625
 21
0.51171875
 31
0.0
  0
LINE
  5
11C
  8
F_SILKS
 10
-9.28515625
 20
0.51171875
 30
0.0
 11
-9.98473478618421
 21
0.51171875
 31
0.0
  0
LINE
  5
11D
  8
F_SILKS
 10
-9.98473478618421
 20
0.51171875
 30
0.0
 11
-10.08326480263158
 21
0.4103361430921053
 31
0.0
  0
LINE
  5
11E
  8
F_SILKS
 10
-10.08326480263158
 20
0.4103361430921053
 30
0.0
 11
-10.08326480263158
 21
-0.3897769325657895
 31
0.0
  0
LINE
  5
11F
  8
F_SILKS
 10
-10.08326480263158
 20
-0.3897769325657895
 30
0.0
 11
-9.98473478618421
 21
-0.4882812500000001
 31
0.0
  0
LINE
  5
120
  8
F_SILKS
 10
-9.98473478618421
 20
-0.4882812500000001
 30
0.0
 11
-9.28515625
 21
-0.4882812500000001
 31
0.0
  0
LINE
  5
121
  8
F_SILKS
 10
-9.28515625
 20
-0.4882812500000001
 30
0.0
 11
-9.18665193256579
 21
-0.3897769325657895
 31
0.0
  0
LINE
  5
122
  8
F_SILKS
 10
6.884123149671055
 20
-0.2884200246710527
 30
0.0
 11
6.684236225328945
 21
-0.2884200246710527
 31
0.0
  0
LINE
  5
123
  8
F_SILKS
 10
6.684236225328945
 20
-0.2884200246710527
 30
0.0
 11
6.684236225328945
 21
-0.4882812500000001
 31
0.0
  0
LINE
  5
124
  8
F_SILKS
 10
6.684236225328945
 20
-0.4882812500000001
 30
0.0
 11
6.884123149671055
 21
-0.4882812500000001
 31
0.0
  0
LINE
  5
125
  8
F_SILKS
 10
6.884123149671055
 20
-0.4882812500000001
 30
0.0
 11
6.884123149671055
 21
-0.2884200246710527
 31
0.0
  0
LINE
  5
441
  8
F_SILKS
 10
-3.328330592105264
 20
0.51171875
 30
0.0
 11
-3.528217516447369
 21
0.51171875
 31
0.0
  0
LINE
  5
442
  8
F_SILKS
 10
-3.528217516447369
 20
0.51171875
 30
0.0
 11
-3.528217516447369
 21
-0.4882812500000001
 31
0.0
  0
LINE
  5
443
  8
F_SILKS
 10
-3.528217516447369
 20
-0.4882812500000001
 30
0.0
 11
-3.328330592105264
 21
-0.4882812500000001
 31
0.0
  0
LINE
  5
444
  8
F_SILKS
 10
-3.328330592105264
 20
-0.4882812500000001
 30
0.0
 11
-3.328330592105264
 21
-0.0894837068256579
 31
0.0
  0
LINE
  5
445
  8
F_SILKS
 10
-3.328330592105264
 20
-0.0894837068256579
 30
0.0
 11
-2.830052425986842
 21
-0.0894837068256579
 31
0.0
  0
LINE
  5
446
  8
F_SILKS
 10
-2.830052425986842
 20
-0.0894837068256579
 30
0.0
 11
-2.830052425986842
 21
-0.4882812500000001
 31
0.0
  0
LINE
  5
447
  8
F_SILKS
 10
-2.830052425986842
 20
-0.4882812500000001
 30
0.0
 11
-2.631604646381579
 21
-0.4882812500000001
 31
0.0
  0
LINE
  5
448
  8
F_SILKS
 10
-2.631604646381579
 20
-0.4882812500000001
 30
0.0
 11
-2.631604646381579
 21
0.51171875
 31
0.0
  0
LINE
  5
449
  8
F_SILKS
 10
-2.631604646381579
 20
0.51171875
 30
0.0
 11
-2.830052425986842
 21
0.51171875
 31
0.0
  0
LINE
  5
44A
  8
F_SILKS
 10
-2.830052425986842
 20
0.51171875
 30
0.0
 11
-2.830052425986842
 21
0.1104027035361842
 31
0.0
  0
LINE
  5
44B
  8
F_SILKS
 10
-2.830052425986842
 20
0.1104027035361842
 30
0.0
 11
-3.328330592105264
 21
0.1104027035361842
 31
0.0
  0
LINE
  5
44C
  8
F_SILKS
 10
-3.328330592105264
 20
0.1104027035361842
 30
0.0
 11
-3.328330592105264
 21
0.51171875
 31
0.0
  0
ENDSEC
  0
EOF
