  0
SECTION
  2
HEADER
  9
$ACADVER
  1
AC1009
  9
$DWGCODEPAGE
  3
ansi_1252
  9
$INSBASE
 10
0.0
 20
0.0
 30
0.0
  9
$EXTMIN
 10
-20.16652960526316
 20
-0.9765625000000036
 30
0.0
  9
$EXTMAX
 10
20.11060855263158
 20
1.0234375
 30
0.0
  9
$LIMMIN
 10
0.0
 20
0.0
  9
$LIMMAX
 10
12.0
 20
9.0
  9
$ORTHOMODE
 70
     0
  9
$REGENMODE
 70
     1
  9
$FILLMODE
 70
     1
  9
$QTEXTMODE
 70
     0
  9
$MIRRTEXT
 70
     1
  9
$DRAGMODE
 70
     2
  9
$LTSCALE
 40
1.0
  9
$OSMODE
 70
   511
  9
$ATTMODE
 70
     1
  9
$TEXTSIZE
 40
0.2
  9
$TRACEWID
 40
0.05
  9
$TEXTSTYLE
  7
STANDARD
  9
$CLAYER
  8
0
  9
$CELTYPE
  6
BYBLOCK
  9
$CECOLOR
 62
   256
  9
$DIMSCALE
 40
1.0
  9
$DIMASZ
 40
0.18
  9
$DIMEXO
 40
0.0625
  9
$DIMDLI
 40
0.38
  9
$DIMRND
 40
0.0
  9
$DIMDLE
 40
0.0
  9
$DIMEXE
 40
0.18
  9
$DIMTP
 40
0.0
  9
$DIMTM
 40
0.0
  9
$DIMTXT
 40
0.18
  9
$DIMCEN
 40
0.09
  9
$DIMTSZ
 40
0.0
  9
$DIMTOL
 70
     0
  9
$DIMLIM
 70
     0
  9
$DIMTIH
 70
     1
  9
$DIMTOH
 70
     1
  9
$DIMSE1
 70
     0
  9
$DIMSE2
 70
     0
  9
$DIMTAD
 70
     0
  9
$DIMZIN
 70
     0
  9
$DIMBLK
  1

  9
$DIMASO
 70
     1
  9
$DIMSHO
 70
     1
  9
$DIMPOST
  1

  9
$DIMAPOST
  1

  9
$DIMALT
 70
     0
  9
$DIMALTD
 70
     2
  9
$DIMALTF
 40
25.4
  9
$DIMLFAC
 40
1.0
  9
$DIMTOFL
 70
     0
  9
$DIMTVP
 40
0.0
  9
$DIMTIX
 70
     0
  9
$DIMSOXD
 70
     0
  9
$DIMSAH
 70
     0
  9
$DIMBLK1
  1

  9
$DIMBLK2
  1

  9
$DIMSTYLE
  2
STANDARD
  9
$DIMCLRD
 70
     0
  9
$DIMCLRE
 70
     0
  9
$DIMCLRT
 70
     0
  9
$DIMTFAC
 40
1.0
  9
$DIMGAP
 40
0.09
  9
$LUNITS
 70
     2
  9
$LUPREC
 70
     4
  9
$SKETCHINC
 40
0.1
  9
$FILLETRAD
 40
0.5
  9
$AUNITS
 70
     0
  9
$AUPREC
 70
     0
  9
$MENU
  1
.
  9
$ELEVATION
 40
0.0
  9
$PELEVATION
 40
0.0
  9
$THICKNESS
 40
0.0
  9
$LIMCHECK
 70
     0
  9
$CHAMFERA
 40
0.0
  9
$CHAMFERB
 40
0.0
  9
$SKPOLY
 70
     0
  9
$TDCREATE
 40
2457769.940091632
  9
$TDUPDATE
 40
2457769.942689826
  9
$TDINDWG
 40
0.000000081
  9
$TDUSRTIMER
 40
2457769.941802998
  9
$USRTIMER
 70
     1
  9
$ANGBASE
 50
0.0
  9
$ANGDIR
 70
     0
  9
$PDMODE
 70
     0
  9
$PDSIZE
 40
0.0
  9
$PLINEWID
 40
0.0
  9
$COORDS
 70
     1
  9
$SPLFRAME
 70
     0
  9
$SPLINETYPE
 70
     6
  9
$SPLINESEGS
 70
     8
  9
$ATTDIA
 70
     0
  9
$ATTREQ
 70
     1
  9
$HANDLING
 70
     1
  9
$HANDSEED
  5
171
  9
$SURFTAB1
 70
     6
  9
$SURFTAB2
 70
     6
  9
$SURFTYPE
 70
     6
  9
$SURFU
 70
     6
  9
$SURFV
 70
     6
  9
$UCSNAME
  2

  9
$UCSORG
 10
0.0
 20
0.0
 30
0.0
  9
$UCSXDIR
 10
1.0
 20
0.0
 30
0.0
  9
$UCSYDIR
 10
0.0
 20
1.0
 30
0.0
  9
$PUCSNAME
  2

  9
$PUCSORG
 10
0.0
 20
0.0
 30
0.0
  9
$PUCSXDIR
 10
1.0
 20
0.0
 30
0.0
  9
$PUCSYDIR
 10
0.0
 20
1.0
 30
0.0
  9
$USERI1
 70
     0
  9
$USERI2
 70
     0
  9
$USERI3
 70
     0
  9
$USERI4
 70
     0
  9
$USERI5
 70
     0
  9
$USERR1
 40
0.0
  9
$USERR2
 40
0.0
  9
$USERR3
 40
0.0
  9
$USERR4
 40
0.0
  9
$USERR5
 40
0.0
  9
$WORLDVIEW
 70
     1
  9
$SHADEDGE
 70
     3
  9
$SHADEDIF
 70
    70
  9
$TILEMODE
 70
     1
  9
$MAXACTVP
 70
    64
  9
$PLIMCHECK
 70
     0
  9
$PEXTMIN
 10
1.000000000000000E+20
 20
1.000000000000000E+20
 30
1.000000000000000E+20
  9
$PEXTMAX
 10
-1.000000000000000E+20
 20
-1.000000000000000E+20
 30
-1.000000000000000E+20
  9
$PLIMMIN
 10
0.0
 20
0.0
  9
$PLIMMAX
 10
0.0
 20
0.0
  9
$UNITMODE
 70
     0
  9
$VISRETAIN
 70
     1
  9
$PLINEGEN
 70
     0
  9
$PSLTSCALE
 70
     1
  0
ENDSEC
  0
SECTION
  2
TABLES
  0
TABLE
  2
VPORT
 70
     1
  0
VPORT
  2
*ACTIVE
 70
     0
 10
0.0
 20
0.0
 11
1.0
 21
1.0
 12
0.013466456122476
 22
-0.4982380649641502
 13
0.0
 23
0.0
 14
0.5
 24
0.5
 15
0.5
 25
0.5
 16
0.0
 26
0.0
 36
1.0
 17
0.0
 27
0.0
 37
0.0
 40
32.31725457211344
 41
1.676792223572297
 42
50.0
 43
0.0
 44
0.0
 50
0.0
 51
0.0
 71
    16
 72
   100
 73
     1
 74
     3
 75
     0
 76
     0
 77
     0
 78
     0
  0
ENDTAB
  0
TABLE
  2
LTYPE
 70
     1
  0
LTYPE
  2
CONTINUOUS
 70
     0
  3
Solid line
 72
    65
 73
     0
 40
0.0
  0
ENDTAB
  0
TABLE
  2
LAYER
 70
     1
  0
LAYER
  2
0
 70
     0
 62
     7
  6
CONTINUOUS
  0
ENDTAB
  0
TABLE
  2
STYLE
 70
     1
  0
STYLE
  2
STANDARD
 70
     0
 40
0.0
 41
1.0
 50
0.0
 71
     0
 42
0.2
  3
txt
  4

  0
ENDTAB
  0
TABLE
  2
VIEW
 70
     0
  0
ENDTAB
  0
TABLE
  2
UCS
 70
     0
  0
ENDTAB
  0
TABLE
  2
APPID
 70
     1
  0
APPID
  2
ACAD
 70
     0
  0
ENDTAB
  0
TABLE
  2
DIMSTYLE
 70
     1
  0
DIMSTYLE
  2
STANDARD
 70
     0
  3

  4

  5

  6

  7

 40
1.0
 41
0.18
 42
0.0625
 43
0.38
 44
0.18
 45
0.0
 46
0.0
 47
0.0
 48
0.0
140
0.18
141
0.09
142
0.0
143
25.4
144
1.0
145
0.0
146
1.0
147
0.09
 71
     0
 72
     0
 73
     1
 74
     1
 75
     0
 76
     0
 77
     0
 78
     0
170
     0
171
     2
172
     0
173
     0
174
     0
175
     0
176
     0
177
     0
178
     0
  0
ENDTAB
  0
ENDSEC
  0
SECTION
  2
BLOCKS
  0
BLOCK
  8
0
  2
$MODEL_SPACE
 70
     0
 10
0.0
 20
0.0
 30
0.0
  3
$MODEL_SPACE
  1

  0
ENDBLK
  5
14A
  8
0
  0
BLOCK
 67
     1
  8
0
  2
$PAPER_SPACE
 70
     0
 10
0.0
 20
0.0
 30
0.0
  3
$PAPER_SPACE
  1

  0
ENDBLK
  5
14C
 67
     1
  8
0
  0
ENDSEC
  0
SECTION
  2
ENTITIES
  0
LINE
  5
22
  8
0
 10
19.41673519736842
 20
0.6236636513157895
 30
0.0
 11
20.11060855263158
 21
0.6236636513157895
 31
0.0
  0
LINE
  5
23
  8
0
 10
20.11060855263158
 20
0.6236636513157895
 30
0.0
 11
20.11060855263158
 21
1.0234375
 31
0.0
  0
LINE
  5
24
  8
0
 10
20.11060855263158
 20
1.0234375
 30
0.0
 11
18.3173828125
 21
1.0234375
 31
0.0
  0
LINE
  5
25
  8
0
 10
18.3173828125
 20
1.0234375
 30
0.0
 11
18.3173828125
 21
0.6236636513157895
 31
0.0
  0
LINE
  5
26
  8
0
 10
18.3173828125
 20
0.6236636513157895
 30
0.0
 11
19.01696134868421
 21
0.6236636513157895
 31
0.0
  0
LINE
  5
27
  8
0
 10
19.01696134868421
 20
0.6236636513157895
 30
0.0
 11
19.01696134868421
 21
-0.9765625000000001
 31
0.0
  0
LINE
  5
28
  8
0
 10
19.01696134868421
 20
-0.9765625000000001
 30
0.0
 11
19.41673519736842
 21
-0.9765625000000001
 31
0.0
  0
LINE
  5
29
  8
0
 10
19.41673519736842
 20
-0.9765625000000001
 30
0.0
 11
19.41673519736842
 21
0.6236636513157895
 31
0.0
  0
LINE
  5
2A
  8
0
 10
1.392680921052632
 20
0.6236636513157895
 30
0.0
 11
2.086554276315789
 21
0.6236636513157895
 31
0.0
  0
LINE
  5
2B
  8
0
 10
2.086554276315789
 20
0.6236636513157895
 30
0.0
 11
2.086554276315789
 21
1.0234375
 31
0.0
  0
LINE
  5
2C
  8
0
 10
2.086554276315789
 20
1.0234375
 30
0.0
 11
0.293330078125
 21
1.0234375
 31
0.0
  0
LINE
  5
2D
  8
0
 10
0.293330078125
 20
1.0234375
 30
0.0
 11
0.293330078125
 21
0.6236636513157895
 31
0.0
  0
LINE
  5
2E
  8
0
 10
0.293330078125
 20
0.6236636513157895
 30
0.0
 11
0.9929070723684212
 21
0.6236636513157895
 31
0.0
  0
LINE
  5
2F
  8
0
 10
0.9929070723684212
 20
0.6236636513157895
 30
0.0
 11
0.9929070723684212
 21
-0.9765625000000001
 31
0.0
  0
LINE
  5
30
  8
0
 10
0.9929070723684212
 20
-0.9765625000000001
 30
0.0
 11
1.392680921052632
 21
-0.9765625000000001
 31
0.0
  0
LINE
  5
31
  8
0
 10
1.392680921052632
 20
-0.9765625000000001
 30
0.0
 11
1.392680921052632
 21
0.6236636513157895
 31
0.0
  0
LINE
  5
32
  8
0
 10
4.221186266447368
 20
-0.779553865131579
 30
0.0
 11
4.221186266447368
 21
0.8206722861842106
 31
0.0
  0
LINE
  5
33
  8
0
 10
4.221186266447368
 20
0.8206722861842106
 30
0.0
 11
4.024177631578947
 21
1.0234375
 31
0.0
  0
LINE
  5
34
  8
0
 10
4.024177631578947
 20
1.0234375
 30
0.0
 11
2.625020559210526
 21
1.0234375
 31
0.0
  0
LINE
  5
35
  8
0
 10
2.625020559210526
 20
1.0234375
 30
0.0
 11
2.42796052631579
 21
0.8206722861842106
 31
0.0
  0
LINE
  5
36
  8
0
 10
2.42796052631579
 20
0.8206722861842106
 30
0.0
 11
2.42796052631579
 21
-0.779553865131579
 31
0.0
  0
LINE
  5
37
  8
0
 10
2.42796052631579
 20
-0.779553865131579
 30
0.0
 11
2.625020559210526
 21
-0.9765625000000001
 31
0.0
  0
LINE
  5
38
  8
0
 10
2.625020559210526
 20
-0.9765625000000001
 30
0.0
 11
4.024177631578947
 21
-0.9765625000000001
 31
0.0
  0
LINE
  5
39
  8
0
 10
4.024177631578947
 20
-0.9765625000000001
 30
0.0
 11
4.221186266447368
 21
-0.779553865131579
 31
0.0
  0
LINE
  5
3A
  8
0
 10
2.827734375
 20
-0.5768400493421053
 30
0.0
 11
2.827734375
 21
0.6236636513157895
 31
0.0
  0
LINE
  5
3B
  8
0
 10
2.827734375
 20
0.6236636513157895
 30
0.0
 11
3.824290707236842
 21
0.6236636513157895
 31
0.0
  0
LINE
  5
3C
  8
0
 10
3.824290707236842
 20
0.6236636513157895
 30
0.0
 11
3.824290707236842
 21
-0.5768400493421053
 31
0.0
  0
LINE
  5
3D
  8
0
 10
3.824290707236842
 20
-0.5768400493421053
 30
0.0
 11
2.827734375
 21
-0.5768400493421053
 31
0.0
  0
LINE
  5
3E
  8
0
 10
-0.0608922697368421
 20
-0.779553865131579
 30
0.0
 11
-0.0608922697368421
 21
0.0242081106085526
 31
0.0
  0
LINE
  5
3F
  8
0
 10
-0.0608922697368421
 20
0.0242081106085526
 30
0.0
 11
-0.2579014185855263
 21
0.224094880756579
 31
0.0
  0
LINE
  5
40
  8
0
 10
-0.2579014185855263
 20
0.224094880756579
 30
0.0
 11
-1.454343133223684
 21
0.224094880756579
 31
0.0
  0
LINE
  5
41
  8
0
 10
-1.454343133223684
 20
0.224094880756579
 30
0.0
 11
-1.454343133223684
 21
0.6236636513157895
 31
0.0
  0
LINE
  5
42
  8
0
 10
-1.454343133223684
 20
0.6236636513157895
 30
0.0
 11
-0.4577878289473685
 21
0.6236636513157895
 31
0.0
  0
LINE
  5
43
  8
0
 10
-0.4577878289473685
 20
0.6236636513157895
 30
0.0
 11
-0.4577878289473685
 21
0.4237767269736842
 31
0.0
  0
LINE
  5
44
  8
0
 10
-0.4577878289473685
 20
0.4237767269736842
 30
0.0
 11
-0.0608922697368421
 21
0.4237767269736842
 31
0.0
  0
LINE
  5
45
  8
0
 10
-0.0608922697368421
 20
0.4237767269736842
 30
0.0
 11
-0.0608922697368421
 21
0.8206722861842106
 31
0.0
  0
LINE
  5
46
  8
0
 10
-0.0608922697368421
 20
0.8206722861842106
 30
0.0
 11
-0.2579014185855263
 21
1.0234375
 31
0.0
  0
LINE
  5
47
  8
0
 10
-0.2579014185855263
 20
1.0234375
 30
0.0
 11
-1.657056949013158
 21
1.0234375
 31
0.0
  0
LINE
  5
48
  8
0
 10
-1.657056949013158
 20
1.0234375
 30
0.0
 11
-1.854116981907895
 21
0.8206722861842106
 31
0.0
  0
LINE
  5
49
  8
0
 10
-1.854116981907895
 20
0.8206722861842106
 30
0.0
 11
-1.854116981907895
 21
-0.0357729749177632
 31
0.0
  0
LINE
  5
4A
  8
0
 10
-1.854116981907895
 20
-0.0357729749177632
 30
0.0
 11
-1.657056949013158
 21
-0.1785567434210527
 31
0.0
  0
LINE
  5
4B
  8
0
 10
-1.657056949013158
 20
-0.1785567434210527
 30
0.0
 11
-0.4577878289473685
 21
-0.1785567434210527
 31
0.0
  0
LINE
  5
4C
  8
0
 10
-0.4577878289473685
 20
-0.1785567434210527
 30
0.0
 11
-0.4577878289473685
 21
-0.5768400493421053
 31
0.0
  0
LINE
  5
4D
  8
0
 10
-0.4577878289473685
 20
-0.5768400493421053
 30
0.0
 11
-1.454343133223684
 21
-0.5768400493421053
 31
0.0
  0
LINE
  5
4E
  8
0
 10
-1.454343133223684
 20
-0.5768400493421053
 30
0.0
 11
-1.454343133223684
 21
-0.379111328125
 31
0.0
  0
LINE
  5
4F
  8
0
 10
-1.454343133223684
 20
-0.379111328125
 30
0.0
 11
-1.854116981907895
 21
-0.379111328125
 31
0.0
  0
LINE
  5
50
  8
0
 10
-1.854116981907895
 20
-0.379111328125
 30
0.0
 11
-1.854116981907895
 21
-0.779553865131579
 31
0.0
  0
LINE
  5
51
  8
0
 10
-1.854116981907895
 20
-0.779553865131579
 30
0.0
 11
-1.657056949013158
 21
-0.9765625000000001
 31
0.0
  0
LINE
  5
52
  8
0
 10
-1.657056949013158
 20
-0.9765625000000001
 30
0.0
 11
-0.2579014185855263
 21
-0.9765625000000001
 31
0.0
  0
LINE
  5
53
  8
0
 10
-0.2579014185855263
 20
-0.9765625000000001
 30
0.0
 11
-0.0608922697368421
 21
-0.779553865131579
 31
0.0
  0
LINE
  5
54
  8
0
 10
5.060814144736843
 20
-0.1789674136513158
 30
0.0
 11
6.257247121710527
 21
-0.1789674136513158
 31
0.0
  0
LINE
  5
55
  8
0
 10
6.257247121710527
 20
-0.1789674136513158
 30
0.0
 11
6.257247121710527
 21
0.2208054070723684
 31
0.0
  0
LINE
  5
56
  8
0
 10
6.257247121710527
 20
0.2208054070723684
 30
0.0
 11
5.060814144736843
 21
0.2208054070723684
 31
0.0
  0
LINE
  5
57
  8
0
 10
5.060814144736843
 20
0.2208054070723684
 30
0.0
 11
5.060814144736843
 21
0.6236636513157895
 31
0.0
  0
LINE
  5
58
  8
0
 10
5.060814144736843
 20
0.6236636513157895
 30
0.0
 11
6.357164884868421
 21
0.6236636513157895
 31
0.0
  0
LINE
  5
59
  8
0
 10
6.357164884868421
 20
0.6236636513157895
 30
0.0
 11
6.357164884868421
 21
1.0234375
 31
0.0
  0
LINE
  5
5A
  8
0
 10
6.357164884868421
 20
1.0234375
 30
0.0
 11
4.661040296052632
 21
1.0234375
 31
0.0
  0
LINE
  5
5B
  8
0
 10
4.661040296052632
 20
1.0234375
 30
0.0
 11
4.661040296052632
 21
-0.9765625000000001
 31
0.0
  0
LINE
  5
5C
  8
0
 10
4.661040296052632
 20
-0.9765625000000001
 30
0.0
 11
5.060814144736843
 21
-0.9765625000000001
 31
0.0
  0
LINE
  5
5D
  8
0
 10
5.060814144736843
 20
-0.9765625000000001
 30
0.0
 11
5.060814144736843
 21
-0.1789674136513158
 31
0.0
  0
LINE
  5
5E
  8
0
 10
-2.19049650493421
 20
1.0234375
 30
0.0
 11
-2.590270353618421
 21
1.0234375
 31
0.0
  0
LINE
  5
5F
  8
0
 10
-2.590270353618421
 20
1.0234375
 30
0.0
 11
-2.590270353618421
 21
-0.9765625000000001
 31
0.0
  0
LINE
  5
60
  8
0
 10
-2.590270353618421
 20
-0.9765625000000001
 30
0.0
 11
-2.19049650493421
 21
-0.9765625000000001
 31
0.0
  0
LINE
  5
61
  8
0
 10
-2.19049650493421
 20
-0.9765625000000001
 30
0.0
 11
-2.19049650493421
 21
1.0234375
 31
0.0
  0
LINE
  5
62
  8
0
 10
-4.423576274671053
 20
-0.3796253083881579
 30
0.0
 11
-3.826793791118421
 21
-0.3796253083881579
 31
0.0
  0
LINE
  5
63
  8
0
 10
-3.826793791118421
 20
-0.3796253083881579
 30
0.0
 11
-3.626906866776316
 21
-0.5767372532894738
 31
0.0
  0
LINE
  5
64
  8
0
 10
-3.626906866776316
 20
-0.5767372532894738
 30
0.0
 11
-3.427019942434211
 21
-0.7795024671052633
 31
0.0
  0
LINE
  5
65
  8
0
 10
-3.427019942434211
 20
-0.7795024671052633
 30
0.0
 11
-3.427019942434211
 21
-0.9765625000000001
 31
0.0
  0
LINE
  5
66
  8
0
 10
-3.427019942434211
 20
-0.9765625000000001
 30
0.0
 11
-3.030124383223684
 21
-0.9765625000000001
 31
0.0
  0
LINE
  5
67
  8
0
 10
-3.030124383223684
 20
-0.9765625000000001
 30
0.0
 11
-3.030124383223684
 21
-0.5767372532894738
 31
0.0
  0
LINE
  5
68
  8
0
 10
-3.030124383223684
 20
-0.5767372532894738
 30
0.0
 11
-3.227133018092105
 21
-0.3796253083881579
 31
0.0
  0
LINE
  5
69
  8
0
 10
-3.227133018092105
 20
-0.3796253083881579
 30
0.0
 11
-3.030124383223684
 21
-0.1797383840460526
 31
0.0
  0
LINE
  5
6A
  8
0
 10
-3.030124383223684
 20
-0.1797383840460526
 30
0.0
 11
-3.030124383223684
 21
0.8206722861842106
 31
0.0
  0
LINE
  5
6B
  8
0
 10
-3.030124383223684
 20
0.8206722861842106
 30
0.0
 11
-3.227133018092105
 21
1.0234375
 31
0.0
  0
LINE
  5
6C
  8
0
 10
-3.227133018092105
 20
1.0234375
 30
0.0
 11
-4.823350123355264
 21
1.0234375
 31
0.0
  0
LINE
  5
6D
  8
0
 10
-4.823350123355264
 20
1.0234375
 30
0.0
 11
-4.823350123355264
 21
-0.9765625000000001
 31
0.0
  0
LINE
  5
6E
  8
0
 10
-4.823350123355264
 20
-0.9765625000000001
 30
0.0
 11
-4.423576274671053
 21
-0.9765625000000001
 31
0.0
  0
LINE
  5
6F
  8
0
 10
-4.423576274671053
 20
-0.9765625000000001
 30
0.0
 11
-4.423576274671053
 21
-0.3796253083881579
 31
0.0
  0
LINE
  5
70
  8
0
 10
-4.423576274671053
 20
0.0201479235197368
 30
0.0
 11
-4.423576274671053
 21
0.6236636513157895
 31
0.0
  0
LINE
  5
71
  8
0
 10
-4.423576274671053
 20
0.6236636513157895
 30
0.0
 11
-3.427019942434211
 21
0.6236636513157895
 31
0.0
  0
LINE
  5
72
  8
0
 10
-3.427019942434211
 20
0.6236636513157895
 30
0.0
 11
-3.427019942434211
 21
0.0201479235197368
 31
0.0
  0
LINE
  5
73
  8
0
 10
-3.427019942434211
 20
0.0201479235197368
 30
0.0
 11
-4.423576274671053
 21
0.0201479235197368
 31
0.0
  0
LINE
  5
74
  8
0
 10
8.491005345394736
 20
-0.779553865131579
 30
0.0
 11
8.491005345394736
 21
0.8206722861842106
 31
0.0
  0
LINE
  5
75
  8
0
 10
8.491005345394736
 20
0.8206722861842106
 30
0.0
 11
8.293996710526317
 21
1.0234375
 31
0.0
  0
LINE
  5
76
  8
0
 10
8.293996710526317
 20
1.0234375
 30
0.0
 11
6.894839638157895
 21
1.0234375
 31
0.0
  0
LINE
  5
77
  8
0
 10
6.894839638157895
 20
1.0234375
 30
0.0
 11
6.697779605263159
 21
0.8206722861842106
 31
0.0
  0
LINE
  5
78
  8
0
 10
6.697779605263159
 20
0.8206722861842106
 30
0.0
 11
6.697779605263159
 21
-0.779553865131579
 31
0.0
  0
LINE
  5
79
  8
0
 10
6.697779605263159
 20
-0.779553865131579
 30
0.0
 11
6.894839638157895
 21
-0.9765625000000001
 31
0.0
  0
LINE
  5
7A
  8
0
 10
6.894839638157895
 20
-0.9765625000000001
 30
0.0
 11
8.293996710526317
 21
-0.9765625000000001
 31
0.0
  0
LINE
  5
7B
  8
0
 10
8.293996710526317
 20
-0.9765625000000001
 30
0.0
 11
8.491005345394736
 21
-0.779553865131579
 31
0.0
  0
LINE
  5
7C
  8
0
 10
7.097553453947369
 20
-0.5768400493421053
 30
0.0
 11
7.097553453947369
 21
0.6236636513157895
 31
0.0
  0
LINE
  5
7D
  8
0
 10
7.097553453947369
 20
0.6236636513157895
 30
0.0
 11
8.094109786184212
 21
0.6236636513157895
 31
0.0
  0
LINE
  5
7E
  8
0
 10
8.094109786184212
 20
0.6236636513157895
 30
0.0
 11
8.094109786184212
 21
-0.5768400493421053
 31
0.0
  0
LINE
  5
7F
  8
0
 10
8.094109786184212
 20
-0.5768400493421053
 30
0.0
 11
7.097553453947369
 21
-0.5768400493421053
 31
0.0
  0
LINE
  5
80
  8
0
 10
-6.656661184210527
 20
-0.1789674136513158
 30
0.0
 11
-5.660104851973685
 21
-0.1789674136513158
 31
0.0
  0
LINE
  5
81
  8
0
 10
-5.660104851973685
 20
-0.1789674136513158
 30
0.0
 11
-5.660104851973685
 21
-0.9765625000000001
 31
0.0
  0
LINE
  5
82
  8
0
 10
-5.660104851973685
 20
-0.9765625000000001
 30
0.0
 11
-5.263209292763158
 21
-0.9765625000000001
 31
0.0
  0
LINE
  5
83
  8
0
 10
-5.263209292763158
 20
-0.9765625000000001
 30
0.0
 11
-5.263209292763158
 21
1.0234375
 31
0.0
  0
LINE
  5
84
  8
0
 10
-5.263209292763158
 20
1.0234375
 30
0.0
 11
-5.660104851973685
 21
1.0234375
 31
0.0
  0
LINE
  5
85
  8
0
 10
-5.660104851973685
 20
1.0234375
 30
0.0
 11
-5.660104851973685
 21
0.2208054070723684
 31
0.0
  0
LINE
  5
86
  8
0
 10
-5.660104851973685
 20
0.2208054070723684
 30
0.0
 11
-6.656661184210527
 21
0.2208054070723684
 31
0.0
  0
LINE
  5
87
  8
0
 10
-6.656661184210527
 20
0.2208054070723684
 30
0.0
 11
-6.656661184210527
 21
1.0234375
 31
0.0
  0
LINE
  5
88
  8
0
 10
-6.656661184210527
 20
1.0234375
 30
0.0
 11
-7.056435032894737
 21
1.0234375
 31
0.0
  0
LINE
  5
89
  8
0
 10
-7.056435032894737
 20
1.0234375
 30
0.0
 11
-7.056435032894737
 21
-0.9765625000000001
 31
0.0
  0
LINE
  5
8A
  8
0
 10
-7.056435032894737
 20
-0.9765625000000001
 30
0.0
 11
-6.656661184210527
 21
-0.9765625000000001
 31
0.0
  0
LINE
  5
8B
  8
0
 10
-6.656661184210527
 20
-0.9765625000000001
 30
0.0
 11
-6.656661184210527
 21
-0.1789674136513158
 31
0.0
  0
LINE
  5
8C
  8
0
 10
-7.465563322368421
 20
-0.779553865131579
 30
0.0
 11
-7.465563322368421
 21
-0.3797795024671053
 31
0.0
  0
LINE
  5
8D
  8
0
 10
-7.465563322368421
 20
-0.3797795024671053
 30
0.0
 11
-7.862458881578949
 21
-0.3797795024671053
 31
0.0
  0
LINE
  5
8E
  8
0
 10
-7.862458881578949
 20
-0.3797795024671053
 30
0.0
 11
-7.862458881578949
 21
-0.5768400493421053
 31
0.0
  0
LINE
  5
8F
  8
0
 10
-7.862458881578949
 20
-0.5768400493421053
 30
0.0
 11
-8.85901521381579
 21
-0.5768400493421053
 31
0.0
  0
LINE
  5
90
  8
0
 10
-8.85901521381579
 20
-0.5768400493421053
 30
0.0
 11
-8.85901521381579
 21
0.6236636513157895
 31
0.0
  0
LINE
  5
91
  8
0
 10
-8.85901521381579
 20
0.6236636513157895
 30
0.0
 11
-7.862458881578949
 21
0.6236636513157895
 31
0.0
  0
LINE
  5
92
  8
0
 10
-7.862458881578949
 20
0.6236636513157895
 30
0.0
 11
-7.862458881578949
 21
0.4237767269736842
 31
0.0
  0
LINE
  5
93
  8
0
 10
-7.862458881578949
 20
0.4237767269736842
 30
0.0
 11
-7.465563322368421
 21
0.4237767269736842
 31
0.0
  0
LINE
  5
94
  8
0
 10
-7.465563322368421
 20
0.4237767269736842
 30
0.0
 11
-7.465563322368421
 21
0.8206722861842106
 31
0.0
  0
LINE
  5
95
  8
0
 10
-7.465563322368421
 20
0.8206722861842106
 30
0.0
 11
-7.662571957236842
 21
1.0234375
 31
0.0
  0
LINE
  5
96
  8
0
 10
-7.662571957236842
 20
1.0234375
 30
0.0
 11
-9.061729029605264
 21
1.0234375
 31
0.0
  0
LINE
  5
97
  8
0
 10
-9.061729029605264
 20
1.0234375
 30
0.0
 11
-9.258789062500002
 21
0.8206722861842106
 31
0.0
  0
LINE
  5
98
  8
0
 10
-9.258789062500002
 20
0.8206722861842106
 30
0.0
 11
-9.258789062500002
 21
-0.779553865131579
 31
0.0
  0
LINE
  5
99
  8
0
 10
-9.258789062500002
 20
-0.779553865131579
 30
0.0
 11
-9.061729029605264
 21
-0.9765625000000001
 31
0.0
  0
LINE
  5
9A
  8
0
 10
-9.061729029605264
 20
-0.9765625000000001
 30
0.0
 11
-7.662571957236842
 21
-0.9765625000000001
 31
0.0
  0
LINE
  5
9B
  8
0
 10
-7.662571957236842
 20
-0.9765625000000001
 30
0.0
 11
-7.465563322368421
 21
-0.779553865131579
 31
0.0
  0
LINE
  5
9C
  8
0
 10
9.330643503289474
 20
-0.3796253083881579
 30
0.0
 11
9.927425986842106
 21
-0.3796253083881579
 31
0.0
  0
LINE
  5
9D
  8
0
 10
9.927425986842106
 20
-0.3796253083881579
 30
0.0
 11
10.12731291118421
 21
-0.5767372532894738
 31
0.0
  0
LINE
  5
9E
  8
0
 10
10.12731291118421
 20
-0.5767372532894738
 30
0.0
 11
10.32719983552632
 21
-0.7795024671052633
 31
0.0
  0
LINE
  5
9F
  8
0
 10
10.32719983552632
 20
-0.7795024671052633
 30
0.0
 11
10.32719983552632
 21
-0.9765625000000001
 31
0.0
  0
LINE
  5
A0
  8
0
 10
10.32719983552632
 20
-0.9765625000000001
 30
0.0
 11
10.72409539473684
 21
-0.9765625000000001
 31
0.0
  0
LINE
  5
A1
  8
0
 10
10.72409539473684
 20
-0.9765625000000001
 30
0.0
 11
10.72409539473684
 21
-0.5767372532894738
 31
0.0
  0
LINE
  5
A2
  8
0
 10
10.72409539473684
 20
-0.5767372532894738
 30
0.0
 11
10.52708675986842
 21
-0.3796253083881579
 31
0.0
  0
LINE
  5
A3
  8
0
 10
10.52708675986842
 20
-0.3796253083881579
 30
0.0
 11
10.72409539473684
 21
-0.1797383840460526
 31
0.0
  0
LINE
  5
A4
  8
0
 10
10.72409539473684
 20
-0.1797383840460526
 30
0.0
 11
10.72409539473684
 21
0.8206722861842106
 31
0.0
  0
LINE
  5
A5
  8
0
 10
10.72409539473684
 20
0.8206722861842106
 30
0.0
 11
10.52708675986842
 21
1.0234375
 31
0.0
  0
LINE
  5
A6
  8
0
 10
10.52708675986842
 20
1.0234375
 30
0.0
 11
8.930869654605264
 21
1.0234375
 31
0.0
  0
LINE
  5
A7
  8
0
 10
8.930869654605264
 20
1.0234375
 30
0.0
 11
8.930869654605264
 21
-0.9765625000000001
 31
0.0
  0
LINE
  5
A8
  8
0
 10
8.930869654605264
 20
-0.9765625000000001
 30
0.0
 11
9.330643503289474
 21
-0.9765625000000001
 31
0.0
  0
LINE
  5
A9
  8
0
 10
9.330643503289474
 20
-0.9765625000000001
 30
0.0
 11
9.330643503289474
 21
-0.3796253083881579
 31
0.0
  0
LINE
  5
AA
  8
0
 10
9.330643503289474
 20
0.0201479235197368
 30
0.0
 11
9.330643503289474
 21
0.6236636513157895
 31
0.0
  0
LINE
  5
AB
  8
0
 10
9.330643503289474
 20
0.6236636513157895
 30
0.0
 11
10.32719983552632
 21
0.6236636513157895
 31
0.0
  0
LINE
  5
AC
  8
0
 10
10.32719983552632
 20
0.6236636513157895
 30
0.0
 11
10.32719983552632
 21
0.0201479235197368
 31
0.0
  0
LINE
  5
AD
  8
0
 10
10.32719983552632
 20
0.0201479235197368
 30
0.0
 11
9.330643503289474
 21
0.0201479235197368
 31
0.0
  0
LINE
  5
AE
  8
0
 10
12.95718544407895
 20
-0.779553865131579
 30
0.0
 11
12.95718544407895
 21
0.8206722861842106
 31
0.0
  0
LINE
  5
AF
  8
0
 10
12.95718544407895
 20
0.8206722861842106
 30
0.0
 11
12.76017680921053
 21
1.0234375
 31
0.0
  0
LINE
  5
B0
  8
0
 10
12.76017680921053
 20
1.0234375
 30
0.0
 11
11.36101973684211
 21
1.0234375
 31
0.0
  0
LINE
  5
B1
  8
0
 10
11.36101973684211
 20
1.0234375
 30
0.0
 11
11.16395970394737
 21
0.8206722861842106
 31
0.0
  0
LINE
  5
B2
  8
0
 10
11.16395970394737
 20
0.8206722861842106
 30
0.0
 11
11.16395970394737
 21
-0.779553865131579
 31
0.0
  0
LINE
  5
B3
  8
0
 10
11.16395970394737
 20
-0.779553865131579
 30
0.0
 11
11.36101973684211
 21
-0.9765625000000001
 31
0.0
  0
LINE
  5
B4
  8
0
 10
11.36101973684211
 20
-0.9765625000000001
 30
0.0
 11
12.76017680921053
 21
-0.9765625000000001
 31
0.0
  0
LINE
  5
B5
  8
0
 10
12.76017680921053
 20
-0.9765625000000001
 30
0.0
 11
12.95718544407895
 21
-0.779553865131579
 31
0.0
  0
LINE
  5
B6
  8
0
 10
11.56373355263158
 20
-0.5768400493421053
 30
0.0
 11
11.56373355263158
 21
0.6236636513157895
 31
0.0
  0
LINE
  5
B7
  8
0
 10
11.56373355263158
 20
0.6236636513157895
 30
0.0
 11
12.56028988486842
 21
0.6236636513157895
 31
0.0
  0
LINE
  5
B8
  8
0
 10
12.56028988486842
 20
0.6236636513157895
 30
0.0
 11
12.56028988486842
 21
-0.5768400493421053
 31
0.0
  0
LINE
  5
B9
  8
0
 10
12.56028988486842
 20
-0.5768400493421053
 30
0.0
 11
11.56373355263158
 21
-0.5768400493421053
 31
0.0
  0
LINE
  5
BA
  8
0
 10
-9.698653371710527
 20
-0.6739309210526316
 30
0.0
 11
-11.18919613486842
 21
-0.6739309210526316
 31
0.0
  0
LINE
  5
BB
  8
0
 10
-11.18919613486842
 20
-0.6739309210526316
 30
0.0
 11
-11.18919613486842
 21
0.7264597039473685
 31
0.0
  0
LINE
  5
BC
  8
0
 10
-11.18919613486842
 20
0.7264597039473685
 30
0.0
 11
-9.992752878289474
 21
0.7264597039473685
 31
0.0
  0
LINE
  5
BD
  8
0
 10
-9.992752878289474
 20
0.7264597039473685
 30
0.0
 11
-9.992752878289474
 21
-0.179173005756579
 31
0.0
  0
LINE
  5
BE
  8
0
 10
-9.992752878289474
 20
-0.179173005756579
 30
0.0
 11
-10.14406866776316
 21
-0.179173005756579
 31
0.0
  0
LINE
  5
BF
  8
0
 10
-10.14406866776316
 20
-0.179173005756579
 30
0.0
 11
-10.14406866776316
 21
0.530016447368421
 31
0.0
  0
LINE
  5
C0
  8
0
 10
-10.14406866776316
 20
0.530016447368421
 30
0.0
 11
-11.03782894736842
 21
0.530016447368421
 31
0.0
  0
LINE
  5
C1
  8
0
 10
-11.03782894736842
 20
0.530016447368421
 30
0.0
 11
-11.03782894736842
 21
-0.4732725123355264
 31
0.0
  0
LINE
  5
C2
  8
0
 10
-11.03782894736842
 20
-0.4732725123355264
 30
0.0
 11
-9.698653371710527
 21
-0.4732725123355264
 31
0.0
  0
LINE
  5
C3
  8
0
 10
-9.698653371710527
 20
-0.4732725123355264
 30
0.0
 11
-9.698653371710527
 21
0.8206722861842106
 31
0.0
  0
LINE
  5
C4
  8
0
 10
-9.698653371710527
 20
0.8206722861842106
 30
0.0
 11
-9.895662006578949
 21
1.0234375
 31
0.0
  0
LINE
  5
C5
  8
0
 10
-9.895662006578949
 20
1.0234375
 30
0.0
 11
-11.29481907894737
 21
1.0234375
 31
0.0
  0
LINE
  5
C6
  8
0
 10
-11.29481907894737
 20
1.0234375
 30
0.0
 11
-11.49187911184211
 21
0.8206722861842106
 31
0.0
  0
LINE
  5
C7
  8
0
 10
-11.49187911184211
 20
0.8206722861842106
 30
0.0
 11
-11.49187911184211
 21
-0.779553865131579
 31
0.0
  0
LINE
  5
C8
  8
0
 10
-11.49187911184211
 20
-0.779553865131579
 30
0.0
 11
-11.29481907894737
 21
-0.9765625000000001
 31
0.0
  0
LINE
  5
C9
  8
0
 10
-11.29481907894737
 20
-0.9765625000000001
 30
0.0
 11
-9.698653371710527
 21
-0.9765625000000001
 31
0.0
  0
LINE
  5
CA
  8
0
 10
-9.698653371710527
 20
-0.9765625000000001
 30
0.0
 11
-9.698653371710527
 21
-0.6739309210526316
 31
0.0
  0
LINE
  5
CB
  8
0
 10
-10.74372944078947
 20
-0.1677626439144737
 30
0.0
 11
-10.74372944078947
 21
0.2273329564144737
 31
0.0
  0
LINE
  5
CC
  8
0
 10
-10.74372944078947
 20
0.2273329564144737
 30
0.0
 11
-10.43821957236842
 21
0.2273329564144737
 31
0.0
  0
LINE
  5
CD
  8
0
 10
-10.43821957236842
 20
0.2273329564144737
 30
0.0
 11
-10.43821957236842
 21
-0.1677626439144737
 31
0.0
  0
LINE
  5
CE
  8
0
 10
-10.43821957236842
 20
-0.1677626439144737
 30
0.0
 11
-10.74372944078947
 21
-0.1677626439144737
 31
0.0
  0
LINE
  5
CF
  8
0
 10
14.47157689144737
 20
0.3577297491776316
 30
0.0
 11
15.46813322368421
 21
-0.9765625000000001
 31
0.0
  0
LINE
  5
D0
  8
0
 10
15.46813322368421
 20
-0.9765625000000001
 30
0.0
 11
15.86502878289474
 21
-0.9765625000000001
 31
0.0
  0
LINE
  5
D1
  8
0
 10
15.86502878289474
 20
-0.9765625000000001
 30
0.0
 11
15.86502878289474
 21
1.0234375
 31
0.0
  0
LINE
  5
D2
  8
0
 10
15.86502878289474
 20
1.0234375
 30
0.0
 11
15.46813322368421
 21
1.0234375
 31
0.0
  0
LINE
  5
D3
  8
0
 10
15.46813322368421
 20
1.0234375
 30
0.0
 11
15.46813322368421
 21
-0.3080283717105263
 31
0.0
  0
LINE
  5
D4
  8
0
 10
15.46813322368421
 20
-0.3080283717105263
 30
0.0
 11
14.47157689144737
 21
1.0234375
 31
0.0
  0
LINE
  5
D5
  8
0
 10
14.47157689144737
 20
1.0234375
 30
0.0
 11
14.07180304276316
 21
1.0234375
 31
0.0
  0
LINE
  5
D6
  8
0
 10
14.07180304276316
 20
1.0234375
 30
0.0
 11
14.07180304276316
 21
-0.9765625000000001
 31
0.0
  0
LINE
  5
D7
  8
0
 10
14.07180304276316
 20
-0.9765625000000001
 30
0.0
 11
14.47157689144737
 21
-0.9765625000000001
 31
0.0
  0
LINE
  5
D8
  8
0
 10
14.47157689144737
 20
-0.9765625000000001
 30
0.0
 11
14.47157689144737
 21
0.3577297491776316
 31
0.0
  0
LINE
  5
D9
  8
0
 10
-12.56285978618421
 20
-0.2222964638157895
 30
0.0
 11
-11.86615953947368
 21
0.2777035361842105
 31
0.0
  0
LINE
  5
DA
  8
0
 10
-11.86615953947368
 20
0.2777035361842105
 30
0.0
 11
-11.86615953947368
 21
1.0234375
 31
0.0
  0
LINE
  5
DB
  8
0
 10
-11.86615953947368
 20
1.0234375
 30
0.0
 11
-12.26305509868421
 21
1.0234375
 31
0.0
  0
LINE
  5
DC
  8
0
 10
-12.26305509868421
 20
1.0234375
 30
0.0
 11
-12.26305509868421
 21
0.4462890625
 31
0.0
  0
LINE
  5
DD
  8
0
 10
-12.26305509868421
 20
0.4462890625
 30
0.0
 11
-12.765625
 21
0.1091174958881579
 31
0.0
  0
LINE
  5
DE
  8
0
 10
-12.765625
 20
0.1091174958881579
 30
0.0
 11
-13.25961143092105
 21
0.4462890625
 31
0.0
  0
LINE
  5
DF
  8
0
 10
-13.25961143092105
 20
0.4462890625
 30
0.0
 11
-13.25961143092105
 21
1.0234375
 31
0.0
  0
LINE
  5
E0
  8
0
 10
-13.25961143092105
 20
1.0234375
 30
0.0
 11
-13.65938527960526
 21
1.0234375
 31
0.0
  0
LINE
  5
E1
  8
0
 10
-13.65938527960526
 20
1.0234375
 30
0.0
 11
-13.65938527960526
 21
0.2777035361842105
 31
0.0
  0
LINE
  5
E2
  8
0
 10
-13.65938527960526
 20
0.2777035361842105
 30
0.0
 11
-12.95980674342105
 21
-0.2222964638157895
 31
0.0
  0
LINE
  5
E3
  8
0
 10
-12.95980674342105
 20
-0.2222964638157895
 30
0.0
 11
-12.95980674342105
 21
-0.9765625000000001
 31
0.0
  0
LINE
  5
E4
  8
0
 10
-12.95980674342105
 20
-0.9765625000000001
 30
0.0
 11
-12.56285978618421
 21
-0.9765625000000001
 31
0.0
  0
LINE
  5
E5
  8
0
 10
-12.56285978618421
 20
-0.9765625000000001
 30
0.0
 11
-12.56285978618421
 21
-0.2222964638157895
 31
0.0
  0
LINE
  5
E6
  8
0
 10
-14.0042146381579
 20
-0.5768400493421053
 30
0.0
 11
-15.30057565789474
 21
-0.5768400493421053
 31
0.0
  0
LINE
  5
E7
  8
0
 10
-15.30057565789474
 20
-0.5768400493421053
 30
0.0
 11
-15.30057565789474
 21
-0.1789674136513158
 31
0.0
  0
LINE
  5
E8
  8
0
 10
-15.30057565789474
 20
-0.1789674136513158
 30
0.0
 11
-14.10413240131579
 21
-0.1789674136513158
 31
0.0
  0
LINE
  5
E9
  8
0
 10
-14.10413240131579
 20
-0.1789674136513158
 30
0.0
 11
-14.10413240131579
 21
0.2208054070723684
 31
0.0
  0
LINE
  5
EA
  8
0
 10
-14.10413240131579
 20
0.2208054070723684
 30
0.0
 11
-15.30057565789474
 21
0.2208054070723684
 31
0.0
  0
LINE
  5
EB
  8
0
 10
-15.30057565789474
 20
0.2208054070723684
 30
0.0
 11
-15.30057565789474
 21
0.6236636513157895
 31
0.0
  0
LINE
  5
EC
  8
0
 10
-15.30057565789474
 20
0.6236636513157895
 30
0.0
 11
-14.0042146381579
 21
0.6236636513157895
 31
0.0
  0
LINE
  5
ED
  8
0
 10
-14.0042146381579
 20
0.6236636513157895
 30
0.0
 11
-14.0042146381579
 21
1.0234375
 31
0.0
  0
LINE
  5
EE
  8
0
 10
-14.0042146381579
 20
1.0234375
 30
0.0
 11
-15.70034950657895
 21
1.0234375
 31
0.0
  0
LINE
  5
EF
  8
0
 10
-15.70034950657895
 20
1.0234375
 30
0.0
 11
-15.70034950657895
 21
-0.9765625000000001
 31
0.0
  0
LINE
  5
F0
  8
0
 10
-15.70034950657895
 20
-0.9765625000000001
 30
0.0
 11
-14.0042146381579
 21
-0.9765625000000001
 31
0.0
  0
LINE
  5
F1
  8
0
 10
-14.0042146381579
 20
-0.9765625000000001
 30
0.0
 11
-14.0042146381579
 21
-0.5768400493421053
 31
0.0
  0
LINE
  5
F2
  8
0
 10
-17.53366570723684
 20
-0.3796253083881579
 30
0.0
 11
-16.93688322368421
 21
-0.3796253083881579
 31
0.0
  0
LINE
  5
F3
  8
0
 10
-16.93688322368421
 20
-0.3796253083881579
 30
0.0
 11
-16.73699629934211
 21
-0.5767372532894738
 31
0.0
  0
LINE
  5
F4
  8
0
 10
-16.73699629934211
 20
-0.5767372532894738
 30
0.0
 11
-16.537109375
 21
-0.7795024671052633
 31
0.0
  0
LINE
  5
F5
  8
0
 10
-16.537109375
 20
-0.7795024671052633
 30
0.0
 11
-16.537109375
 21
-0.9765625000000001
 31
0.0
  0
LINE
  5
F6
  8
0
 10
-16.537109375
 20
-0.9765625000000001
 30
0.0
 11
-16.14021381578948
 21
-0.9765625000000001
 31
0.0
  0
LINE
  5
F7
  8
0
 10
-16.14021381578948
 20
-0.9765625000000001
 30
0.0
 11
-16.14021381578948
 21
-0.5767372532894738
 31
0.0
  0
LINE
  5
F8
  8
0
 10
-16.14021381578948
 20
-0.5767372532894738
 30
0.0
 11
-16.3372224506579
 21
-0.3796253083881579
 31
0.0
  0
LINE
  5
F9
  8
0
 10
-16.3372224506579
 20
-0.3796253083881579
 30
0.0
 11
-16.14021381578948
 21
-0.1797383840460526
 31
0.0
  0
LINE
  5
FA
  8
0
 10
-16.14021381578948
 20
-0.1797383840460526
 30
0.0
 11
-16.14021381578948
 21
0.8206722861842106
 31
0.0
  0
LINE
  5
FB
  8
0
 10
-16.14021381578948
 20
0.8206722861842106
 30
0.0
 11
-16.3372224506579
 21
1.0234375
 31
0.0
  0
LINE
  5
FC
  8
0
 10
-16.3372224506579
 20
1.0234375
 30
0.0
 11
-17.93343955592105
 21
1.0234375
 31
0.0
  0
LINE
  5
FD
  8
0
 10
-17.93343955592105
 20
1.0234375
 30
0.0
 11
-17.93343955592105
 21
-0.9765625000000001
 31
0.0
  0
LINE
  5
FE
  8
0
 10
-17.93343955592105
 20
-0.9765625000000001
 30
0.0
 11
-17.53366570723684
 21
-0.9765625000000001
 31
0.0
  0
LINE
  5
FF
  8
0
 10
-17.53366570723684
 20
-0.9765625000000001
 30
0.0
 11
-17.53366570723684
 21
-0.3796253083881579
 31
0.0
  0
LINE
  5
100
  8
0
 10
-17.53366570723684
 20
0.0201479235197368
 30
0.0
 11
-17.53366570723684
 21
0.6236636513157895
 31
0.0
  0
LINE
  5
101
  8
0
 10
-17.53366570723684
 20
0.6236636513157895
 30
0.0
 11
-16.537109375
 21
0.6236636513157895
 31
0.0
  0
LINE
  5
102
  8
0
 10
-16.537109375
 20
0.6236636513157895
 30
0.0
 11
-16.537109375
 21
0.0201479235197368
 31
0.0
  0
LINE
  5
103
  8
0
 10
-16.537109375
 20
0.0201479235197368
 30
0.0
 11
-17.53366570723684
 21
0.0201479235197368
 31
0.0
  0
LINE
  5
104
  8
0
 10
18.00102796052632
 20
-0.5768400493421053
 30
0.0
 11
16.70466694078947
 21
-0.5768400493421053
 31
0.0
  0
LINE
  5
105
  8
0
 10
16.70466694078947
 20
-0.5768400493421053
 30
0.0
 11
16.70466694078947
 21
-0.1789674136513158
 31
0.0
  0
LINE
  5
106
  8
0
 10
16.70466694078947
 20
-0.1789674136513158
 30
0.0
 11
17.90111019736842
 21
-0.1789674136513158
 31
0.0
  0
LINE
  5
107
  8
0
 10
17.90111019736842
 20
-0.1789674136513158
 30
0.0
 11
17.90111019736842
 21
0.2208054070723684
 31
0.0
  0
LINE
  5
108
  8
0
 10
17.90111019736842
 20
0.2208054070723684
 30
0.0
 11
16.70466694078947
 21
0.2208054070723684
 31
0.0
  0
LINE
  5
109
  8
0
 10
16.70466694078947
 20
0.2208054070723684
 30
0.0
 11
16.70466694078947
 21
0.6236636513157895
 31
0.0
  0
LINE
  5
10A
  8
0
 10
16.70466694078947
 20
0.6236636513157895
 30
0.0
 11
18.00102796052632
 21
0.6236636513157895
 31
0.0
  0
LINE
  5
10B
  8
0
 10
18.00102796052632
 20
0.6236636513157895
 30
0.0
 11
18.00102796052632
 21
1.0234375
 31
0.0
  0
LINE
  5
10C
  8
0
 10
18.00102796052632
 20
1.0234375
 30
0.0
 11
16.30489309210526
 21
1.0234375
 31
0.0
  0
LINE
  5
10D
  8
0
 10
16.30489309210526
 20
1.0234375
 30
0.0
 11
16.30489309210526
 21
-0.9765625000000001
 31
0.0
  0
LINE
  5
10E
  8
0
 10
16.30489309210526
 20
-0.9765625000000001
 30
0.0
 11
18.00102796052632
 21
-0.9765625000000001
 31
0.0
  0
LINE
  5
10F
  8
0
 10
18.00102796052632
 20
-0.9765625000000001
 30
0.0
 11
18.00102796052632
 21
-0.5768400493421053
 31
0.0
  0
LINE
  5
110
  8
0
 10
-18.37330386513158
 20
-0.779553865131579
 30
0.0
 11
-18.37330386513158
 21
0.1698699629934211
 31
0.0
  0
LINE
  5
111
  8
0
 10
-18.37330386513158
 20
0.1698699629934211
 30
0.0
 11
-19.2727693256579
 21
0.1698699629934211
 31
0.0
  0
LINE
  5
112
  8
0
 10
-19.2727693256579
 20
0.1698699629934211
 30
0.0
 11
-19.2727693256579
 21
-0.2298509457236843
 31
0.0
  0
LINE
  5
113
  8
0
 10
-19.2727693256579
 20
-0.2298509457236843
 30
0.0
 11
-18.77019942434211
 21
-0.2298509457236843
 31
0.0
  0
LINE
  5
114
  8
0
 10
-18.77019942434211
 20
-0.2298509457236843
 30
0.0
 11
-18.77019942434211
 21
-0.5768400493421053
 31
0.0
  0
LINE
  5
115
  8
0
 10
-18.77019942434211
 20
-0.5768400493421053
 30
0.0
 11
-19.76675575657895
 21
-0.5768400493421053
 31
0.0
  0
LINE
  5
116
  8
0
 10
-19.76675575657895
 20
-0.5768400493421053
 30
0.0
 11
-19.76675575657895
 21
0.6236636513157895
 31
0.0
  0
LINE
  5
117
  8
0
 10
-19.76675575657895
 20
0.6236636513157895
 30
0.0
 11
-18.77019942434211
 21
0.6236636513157895
 31
0.0
  0
LINE
  5
118
  8
0
 10
-18.77019942434211
 20
0.6236636513157895
 30
0.0
 11
-18.77019942434211
 21
0.4237767269736842
 31
0.0
  0
LINE
  5
119
  8
0
 10
-18.77019942434211
 20
0.4237767269736842
 30
0.0
 11
-18.37330386513158
 21
0.4237767269736842
 31
0.0
  0
LINE
  5
11A
  8
0
 10
-18.37330386513158
 20
0.4237767269736842
 30
0.0
 11
-18.37330386513158
 21
0.8206722861842106
 31
0.0
  0
LINE
  5
11B
  8
0
 10
-18.37330386513158
 20
0.8206722861842106
 30
0.0
 11
-18.5703125
 21
1.0234375
 31
0.0
  0
LINE
  5
11C
  8
0
 10
-18.5703125
 20
1.0234375
 30
0.0
 11
-19.96946957236842
 21
1.0234375
 31
0.0
  0
LINE
  5
11D
  8
0
 10
-19.96946957236842
 20
1.0234375
 30
0.0
 11
-20.16652960526316
 21
0.8206722861842106
 31
0.0
  0
LINE
  5
11E
  8
0
 10
-20.16652960526316
 20
0.8206722861842106
 30
0.0
 11
-20.16652960526316
 21
-0.779553865131579
 31
0.0
  0
LINE
  5
11F
  8
0
 10
-20.16652960526316
 20
-0.779553865131579
 30
0.0
 11
-19.96946957236842
 21
-0.9765625000000001
 31
0.0
  0
LINE
  5
120
  8
0
 10
-19.96946957236842
 20
-0.9765625000000001
 30
0.0
 11
-18.5703125
 21
-0.9765625000000001
 31
0.0
  0
LINE
  5
121
  8
0
 10
-18.5703125
 20
-0.9765625000000001
 30
0.0
 11
-18.37330386513158
 21
-0.779553865131579
 31
0.0
  0
LINE
  5
122
  8
0
 10
13.76824629934211
 20
-0.5768400493421053
 30
0.0
 11
13.36847245065789
 21
-0.5768400493421053
 31
0.0
  0
LINE
  5
123
  8
0
 10
13.36847245065789
 20
-0.5768400493421053
 30
0.0
 11
13.36847245065789
 21
-0.9765625000000001
 31
0.0
  0
LINE
  5
124
  8
0
 10
13.36847245065789
 20
-0.9765625000000001
 30
0.0
 11
13.76824629934211
 21
-0.9765625000000001
 31
0.0
  0
LINE
  5
125
  8
0
 10
13.76824629934211
 20
-0.9765625000000001
 30
0.0
 11
13.76824629934211
 21
-0.5768400493421053
 31
0.0
  0
ENDSEC
  0
EOF
