%TF.GenerationSoftware,KiCad,Pcbnew,4.0.5*%
%TF.CreationDate,2017-01-31T16:39:47+00:00*%
%TF.ProjectId,28x28,32387832382E6B696361645F70636200,rev?*%
%TF.FileFunction,Copper,L2,Inr,Signal*%
%FSLAX46Y46*%
G04 Gerber Fmt 4.6, Leading zero omitted, Abs format (unit mm)*
G04 Created by KiCad (PCBNEW 4.0.5) date Tue Jan 31 16:39:47 2017*
%MOMM*%
%LPD*%
G01*
G04 APERTURE LIST*
%ADD10C,0.100000*%
%ADD11C,0.600000*%
%ADD12C,0.200000*%
%ADD13C,0.250000*%
G04 APERTURE END LIST*
D10*
D11*
X5850677Y12216509D03*
X2270000Y16270000D03*
X2270000Y13730000D03*
X16300000Y11600000D03*
X15519243Y11314021D03*
X5770000Y27730000D03*
X3230000Y27730000D03*
X5500000Y11200000D03*
X5594046Y10000000D03*
X3230000Y2270000D03*
X15937563Y9863990D03*
X5770000Y2270000D03*
X16189858Y9157686D03*
X16200000Y30400000D03*
X6871998Y16222330D03*
X7366000Y12954000D03*
X13716000Y27686000D03*
X6144056Y9290808D03*
X13716000Y2286000D03*
X5700000Y8500000D03*
X12000000Y3600000D03*
X13462000Y5588000D03*
X15494000Y762000D03*
X15700000Y8500000D03*
X26770000Y27730000D03*
X16800000Y7900000D03*
X23219510Y18288000D03*
X24638000Y18288000D03*
X24230000Y27730000D03*
X6800000Y7900000D03*
X24230000Y2270000D03*
X8800000Y5400000D03*
X26770000Y2270000D03*
X18000000Y6000000D03*
X27730000Y13730000D03*
X19200000Y6300000D03*
X27730000Y16270000D03*
X24800000Y13800000D03*
X10200000Y5600000D03*
X27200000Y23600000D03*
X29200000Y26800000D03*
X3400000Y21378010D03*
X10300000Y24100000D03*
X20000000Y6850010D03*
X19800000Y14300000D03*
X10000000Y15200000D03*
X10000000Y6800000D03*
X6400000Y18700000D03*
X5511008Y21322639D03*
X10200000Y22800000D03*
X11176000Y4318000D03*
X21336000Y2794000D03*
X12192000Y7874000D03*
X8636000Y2794000D03*
X17933845Y13221064D03*
X11152965Y13246526D03*
X10415411Y17588089D03*
X2730500Y18923000D03*
X8382000Y18859500D03*
X20400000Y15200000D03*
X10550010Y13796536D03*
X9462911Y16635589D03*
X7617908Y18453210D03*
X3000000Y24600000D03*
X17789969Y14346546D03*
X8000000Y14500000D03*
X16764000Y5218021D03*
X18542000Y3556000D03*
X21844000Y7500000D03*
X22600000Y8085990D03*
X15500000Y5218021D03*
X11938000Y2540000D03*
X21235961Y15536793D03*
X15000000Y20300000D03*
X4600000Y13800000D03*
X16891000Y22860000D03*
X2667000Y10858500D03*
X2921000Y7302500D03*
X2600000Y5600000D03*
X3683000Y10668000D03*
X6400000Y14200000D03*
X16891000Y21590000D03*
D12*
X5850677Y12216509D02*
X5370656Y11736488D01*
X3236502Y11736488D02*
X1228601Y13744389D01*
X1228601Y15228601D02*
X2270000Y16270000D01*
X5370656Y11736488D02*
X3236502Y11736488D01*
X1228601Y13744389D02*
X1228601Y15228601D01*
X3736498Y12086498D02*
X3311399Y12511597D01*
X3311399Y12511597D02*
X3311399Y12688601D01*
X5026502Y12086498D02*
X3736498Y12086498D01*
X16300000Y11175736D02*
X15888275Y10764011D01*
X5312502Y12372498D02*
X5026502Y12086498D01*
X5312502Y12691512D02*
X5312502Y12372498D01*
X6124992Y13504002D02*
X5312502Y12691512D01*
X7884002Y13504002D02*
X6124992Y13504002D01*
X15888275Y10764011D02*
X10623993Y10764011D01*
X16300000Y11600000D02*
X16300000Y11175736D01*
X10623993Y10764011D02*
X7884002Y13504002D01*
X3311399Y12688601D02*
X2270000Y13730000D01*
X5770000Y27730000D02*
X11410500Y27730000D01*
X11410500Y27730000D02*
X12319000Y28638500D01*
X12319000Y28638500D02*
X13970000Y28638500D01*
X13970000Y28638500D02*
X22542500Y20066000D01*
X15494000Y12382500D02*
X15176500Y12065000D01*
X22542500Y20066000D02*
X22542500Y13906500D01*
X22542500Y13906500D02*
X21018500Y12382500D01*
X15176500Y11656764D02*
X15519243Y11314021D01*
X21018500Y12382500D02*
X15494000Y12382500D01*
X15176500Y12065000D02*
X15176500Y11656764D01*
X1989998Y26489998D02*
X2188601Y26688601D01*
X2126490Y24745506D02*
X1989998Y24881998D01*
X762000Y16764000D02*
X2126489Y18128489D01*
X762000Y13716000D02*
X762000Y16764000D01*
X3259999Y11218001D02*
X762000Y13716000D01*
X5057735Y11218001D02*
X3259999Y11218001D01*
X2126489Y18128489D02*
X2126490Y24745506D01*
X5500000Y11200000D02*
X5075736Y11200000D01*
X2188601Y26688601D02*
X3230000Y27730000D01*
X1989998Y24881998D02*
X1989998Y26489998D01*
X5075736Y11200000D02*
X5057735Y11218001D01*
X5294047Y9700001D02*
X5594046Y10000000D01*
X4033011Y8438965D02*
X5294047Y9700001D01*
X4033011Y5760521D02*
X4033011Y8438965D01*
X3230000Y4957510D02*
X4033011Y5760521D01*
X3230000Y2270000D02*
X3230000Y4957510D01*
X5770000Y2270000D02*
X5770000Y4500000D01*
X11133990Y9863990D02*
X15513299Y9863990D01*
X5770000Y4500000D02*
X11133990Y9863990D01*
X15513299Y9863990D02*
X15937563Y9863990D01*
X23769511Y13355511D02*
X20320000Y9906000D01*
X20320000Y9906000D02*
X16938172Y9906000D01*
X23769511Y20934489D02*
X23769511Y13355511D01*
X16200000Y30400000D02*
X23769511Y20934489D01*
X16489857Y9457685D02*
X16189858Y9157686D01*
X16938172Y9906000D02*
X16489857Y9457685D01*
X13716000Y22783490D02*
X7154840Y16222330D01*
X13716000Y27686000D02*
X13716000Y22783490D01*
X7154840Y16222330D02*
X6871998Y16222330D01*
X6144056Y9290808D02*
X6144056Y11732056D01*
X6144056Y11732056D02*
X7366000Y12954000D01*
X4826000Y1778000D02*
X4826000Y7626000D01*
X4826000Y7626000D02*
X5700000Y8500000D01*
X5080000Y1524000D02*
X4826000Y1778000D01*
X12529736Y1524000D02*
X5080000Y1524000D01*
X13716000Y2286000D02*
X13291736Y2286000D01*
X13291736Y2286000D02*
X12529736Y1524000D01*
X15240000Y3556000D02*
X15494000Y3302000D01*
X15494000Y3302000D02*
X15494000Y762000D01*
X12000000Y3600000D02*
X15240000Y3556000D01*
X15700000Y8500000D02*
X15700000Y7826000D01*
X15700000Y7826000D02*
X13462000Y5588000D01*
D13*
X25800000Y18800000D02*
X25800000Y25287238D01*
X25800000Y25287238D02*
X26770000Y26257238D01*
X26770000Y26257238D02*
X26770000Y27730000D01*
X26600000Y18000000D02*
X25800000Y18800000D01*
X26600000Y14662000D02*
X26600000Y18000000D01*
D12*
X16800000Y7900000D02*
X17224264Y7900000D01*
X21082000Y9144000D02*
X26600000Y14662000D01*
X18468264Y9144000D02*
X21082000Y9144000D01*
X17224264Y7900000D02*
X18468264Y9144000D01*
X23219510Y17863736D02*
X23219510Y18288000D01*
X23219510Y14025020D02*
X23219510Y17863736D01*
X19608490Y10414000D02*
X23219510Y14025020D01*
X6800000Y7900000D02*
X9314000Y10414000D01*
X9314000Y10414000D02*
X19608490Y10414000D01*
X24638000Y18288000D02*
X24638000Y27322000D01*
X24638000Y27322000D02*
X24230000Y27730000D01*
D13*
X22800000Y4200000D02*
X22800000Y3700000D01*
X22800000Y3700000D02*
X24230000Y2270000D01*
D12*
X9331998Y4868002D02*
X9099999Y5100001D01*
X22800000Y4200000D02*
X22331989Y4668011D01*
X11440002Y4868002D02*
X9331998Y4868002D01*
X22331989Y4668011D02*
X11639993Y4668011D01*
X9099999Y5100001D02*
X8800000Y5400000D01*
X11639993Y4668011D02*
X11440002Y4868002D01*
D13*
X26200000Y4200000D02*
X26312762Y4200000D01*
X26312762Y4200000D02*
X26770000Y3742762D01*
X26770000Y3742762D02*
X26770000Y2270000D01*
D12*
X26200000Y4200000D02*
X24700000Y5700000D01*
X18000000Y6000000D02*
X18299999Y5700001D01*
X18299999Y5700001D02*
X24699999Y5700001D01*
X24699999Y5700001D02*
X24700000Y5700000D01*
X27200000Y11600000D02*
X27730000Y12130000D01*
X27730000Y12130000D02*
X27730000Y13730000D01*
X27200000Y10100000D02*
X27200000Y11600000D01*
X23400000Y6300000D02*
X27200000Y10100000D01*
X19200000Y6300000D02*
X23400000Y6300000D01*
X24200000Y13200000D02*
X24800000Y13800000D01*
X20494011Y9494011D02*
X24200000Y13200000D01*
X17508013Y9494011D02*
X20494011Y9494011D01*
X16050011Y8036009D02*
X17508013Y9494011D01*
X13726002Y5037998D02*
X16050011Y7362007D01*
X12635996Y5600000D02*
X13197998Y5037998D01*
X10200000Y5600000D02*
X12635996Y5600000D01*
X13197998Y5037998D02*
X13726002Y5037998D01*
X16050011Y7362007D02*
X16050011Y8036009D01*
X6121990Y24100000D02*
X3699999Y21678009D01*
X3699999Y21678009D02*
X3400000Y21378010D01*
X10300000Y24100000D02*
X6121990Y24100000D01*
X10200000Y22800000D02*
X6988369Y22800000D01*
X5811007Y21622638D02*
X5511008Y21322639D01*
X6988369Y22800000D02*
X5811007Y21622638D01*
X19812000Y4318000D02*
X11176000Y4318000D01*
X21336000Y2794000D02*
X19812000Y4318000D01*
X7112000Y5334000D02*
X7112000Y4318000D01*
X7112000Y4318000D02*
X8636000Y2794000D01*
X9652000Y7874000D02*
X7112000Y5334000D01*
X12192000Y7874000D02*
X9652000Y7874000D01*
X17908383Y13246526D02*
X17933845Y13221064D01*
X11152965Y13246526D02*
X17908383Y13246526D01*
X20400000Y15200000D02*
X12803500Y15200000D01*
X7595530Y17653000D02*
X4000500Y17653000D01*
X10715410Y17288090D02*
X10415411Y17588089D01*
X4000500Y17653000D02*
X3030499Y18623001D01*
X8382000Y18439470D02*
X7595530Y17653000D01*
X12803500Y15200000D02*
X10715410Y17288090D01*
X3030499Y18623001D02*
X2730500Y18923000D01*
X8382000Y18859500D02*
X8382000Y18439470D01*
X18396536Y13796536D02*
X10550010Y13796536D01*
X19500001Y14900001D02*
X18396536Y13796536D01*
X20400000Y15200000D02*
X20100001Y14900001D01*
X20100001Y14900001D02*
X19500001Y14900001D01*
X3000000Y24600000D02*
X2540000Y20510500D01*
X2540000Y20510500D02*
X4903395Y18147105D01*
X7317909Y18153211D02*
X7617908Y18453210D01*
X9162912Y16335590D02*
X9462911Y16635589D01*
X8000000Y15172678D02*
X9162912Y16335590D01*
X8000000Y14500000D02*
X8000000Y15172678D01*
X4903395Y18147105D02*
X7311803Y18147105D01*
X7311803Y18147105D02*
X7317909Y18153211D01*
X17636515Y14500000D02*
X17789969Y14346546D01*
X8000000Y14500000D02*
X17636515Y14500000D01*
X21844000Y7500000D02*
X18621715Y7500000D01*
X16764000Y5642285D02*
X16764000Y5218021D01*
X18621715Y7500000D02*
X16764000Y5642285D01*
X15500000Y5218021D02*
X18367969Y8085990D01*
X18367969Y8085990D02*
X22175736Y8085990D01*
X22175736Y8085990D02*
X22600000Y8085990D01*
X20935962Y15836792D02*
X21235961Y15536793D01*
X16472754Y20300000D02*
X20935962Y15836792D01*
X15000000Y20300000D02*
X16472754Y20300000D01*
X6477000Y14922500D02*
X6159500Y14922500D01*
X6159500Y14922500D02*
X4600000Y13800000D01*
X13779500Y22225000D02*
X6477000Y14922500D01*
X15831736Y22225000D02*
X13779500Y22225000D01*
X16891000Y22860000D02*
X16466736Y22860000D01*
X16466736Y22860000D02*
X15831736Y22225000D01*
X2667000Y7556500D02*
X2921000Y7302500D01*
X2667000Y10858500D02*
X2667000Y7556500D01*
X3683000Y10668000D02*
X3683000Y5905500D01*
X3683000Y5905500D02*
X2600000Y5600000D01*
X7154002Y15104512D02*
X7154002Y15028002D01*
X7154002Y15028002D02*
X6400000Y14200000D01*
X13639490Y21590000D02*
X7154002Y15104512D01*
X16891000Y21590000D02*
X13639490Y21590000D01*
M02*
