solid OpenSCAD_Model
  facet normal -1 0 0
    outer loop
      vertex 14.25 14.25 -7.9
      vertex 14.25 9.4875 -0.799996
      vertex 14.25 14.25 8.9
    endloop
  endfacet
  facet normal -1 0 0
    outer loop
      vertex 14.25 14.25 -7.9
      vertex 14.25 2 -6.3
      vertex 14.25 9.4875 -0.799996
    endloop
  endfacet
  facet normal -1 0 0
    outer loop
      vertex 14.25 14.25 -7.9
      vertex 14.25 -2 -6.3
      vertex 14.25 2 -6.3
    endloop
  endfacet
  facet normal -1 0 0
    outer loop
      vertex 14.25 -2 -6.3
      vertex 14.25 -9.4875 -0.799994
      vertex 14.25 -2 -5.8
    endloop
  endfacet
  facet normal -1 0 0
    outer loop
      vertex 14.25 -14.25 -7.9
      vertex 14.25 -2 -6.3
      vertex 14.25 14.25 -7.9
    endloop
  endfacet
  facet normal -1 0 0
    outer loop
      vertex 14.25 -14.25 -7.9
      vertex 14.25 -9.4875 -0.799994
      vertex 14.25 -2 -6.3
    endloop
  endfacet
  facet normal -1 0 0
    outer loop
      vertex 14.25 -14.25 8.9
      vertex 14.25 -9.4875 -0.799994
      vertex 14.25 -14.25 -7.9
    endloop
  endfacet
  facet normal -1 0 0
    outer loop
      vertex 14.25 -9.4875 -0.799994
      vertex 14.25 -14.25 8.9
      vertex 14.25 -9.4875 8.9
    endloop
  endfacet
  facet normal -1 -0 0
    outer loop
      vertex 14.25 14.25 8.9
      vertex 14.25 9.4875 -0.799996
      vertex 14.25 9.4875 8.9
    endloop
  endfacet
  facet normal -1 0 0
    outer loop
      vertex 14.25 2 -5.8
      vertex 14.25 9.4875 -0.799996
      vertex 14.25 2 -6.3
    endloop
  endfacet
  facet normal -1 0 0
    outer loop
      vertex 14.25 -2 -5.8
      vertex 14.25 9.4875 -0.799996
      vertex 14.25 2 -5.8
    endloop
  endfacet
  facet normal -1 -0 0
    outer loop
      vertex 14.25 9.4875 -0.799996
      vertex 14.25 -2 -5.8
      vertex 14.25 -9.4875 -0.799994
    endloop
  endfacet
  facet normal 0 0 1
    outer loop
      vertex 14.25 14.25 -7.9
      vertex 13.65 13.65 -7.9
      vertex 14.25 -14.25 -7.9
    endloop
  endfacet
  facet normal 0 0 1
    outer loop
      vertex 14.25 14.25 -7.9
      vertex -13.65 13.65 -7.9
      vertex 13.65 13.65 -7.9
    endloop
  endfacet
  facet normal 0 0 1
    outer loop
      vertex -13.65 13.65 -7.9
      vertex -14.25 14.25 -7.9
      vertex -13.65 -13.65 -7.9
    endloop
  endfacet
  facet normal -0 0 1
    outer loop
      vertex -14.25 14.25 -7.9
      vertex -13.65 13.65 -7.9
      vertex 14.25 14.25 -7.9
    endloop
  endfacet
  facet normal -0 0 1
    outer loop
      vertex 13.65 -13.65 -7.9
      vertex 14.25 -14.25 -7.9
      vertex 13.65 13.65 -7.9
    endloop
  endfacet
  facet normal -0 0 1
    outer loop
      vertex -13.65 -13.65 -7.9
      vertex 14.25 -14.25 -7.9
      vertex 13.65 -13.65 -7.9
    endloop
  endfacet
  facet normal 0 0 1
    outer loop
      vertex -13.65 -13.65 -7.9
      vertex -14.25 -14.25 -7.9
      vertex 14.25 -14.25 -7.9
    endloop
  endfacet
  facet normal 0 0 1
    outer loop
      vertex -14.25 -14.25 -7.9
      vertex -13.65 -13.65 -7.9
      vertex -14.25 14.25 -7.9
    endloop
  endfacet
  facet normal 1 0 0
    outer loop
      vertex -14.25 -9.4875 8.9
      vertex -14.25 -14.25 8.9
      vertex -14.25 -9.4875 -0.799996
    endloop
  endfacet
  facet normal 1 0 0
    outer loop
      vertex -14.25 9.4875 -0.799994
      vertex -14.25 -2 -5.8
      vertex -14.25 2 -5.8
    endloop
  endfacet
  facet normal 1 0 0
    outer loop
      vertex -14.25 -2 -5.8
      vertex -14.25 -9.4875 -0.799996
      vertex -14.25 -2 -6.3
    endloop
  endfacet
  facet normal 1 -0 0
    outer loop
      vertex -14.25 -9.4875 -0.799996
      vertex -14.25 -2 -5.8
      vertex -14.25 9.4875 -0.799994
    endloop
  endfacet
  facet normal 1 0 0
    outer loop
      vertex -14.25 9.4875 -0.799994
      vertex -14.25 14.25 8.9
      vertex -14.25 9.4875 8.9
    endloop
  endfacet
  facet normal 1 0 0
    outer loop
      vertex -14.25 14.25 8.9
      vertex -14.25 9.4875 -0.799994
      vertex -14.25 14.25 -7.9
    endloop
  endfacet
  facet normal 1 0 0
    outer loop
      vertex -14.25 2 -6.3
      vertex -14.25 9.4875 -0.799994
      vertex -14.25 2 -5.8
    endloop
  endfacet
  facet normal 1 0 0
    outer loop
      vertex -14.25 9.4875 -0.799994
      vertex -14.25 2 -6.3
      vertex -14.25 14.25 -7.9
    endloop
  endfacet
  facet normal 1 -0 0
    outer loop
      vertex -14.25 -2 -6.3
      vertex -14.25 14.25 -7.9
      vertex -14.25 2 -6.3
    endloop
  endfacet
  facet normal 1 0 0
    outer loop
      vertex -14.25 -2 -6.3
      vertex -14.25 -14.25 -7.9
      vertex -14.25 14.25 -7.9
    endloop
  endfacet
  facet normal 1 0 0
    outer loop
      vertex -14.25 -9.4875 -0.799996
      vertex -14.25 -14.25 -7.9
      vertex -14.25 -2 -6.3
    endloop
  endfacet
  facet normal 1 0 0
    outer loop
      vertex -14.25 -14.25 -7.9
      vertex -14.25 -9.4875 -0.799996
      vertex -14.25 -14.25 8.9
    endloop
  endfacet
  facet normal 0 -1 0
    outer loop
      vertex -14.25 14.25 8.9
      vertex -9.4875 14.25 -0.799996
      vertex -9.4875 14.25 8.9
    endloop
  endfacet
  facet normal 0 -1 0
    outer loop
      vertex -9.4875 14.25 -0.799996
      vertex -2 14.25 -6.3
      vertex -2 14.25 -5.8
    endloop
  endfacet
  facet normal 0 -1 -0
    outer loop
      vertex -2 14.25 -6.3
      vertex -14.25 14.25 -7.9
      vertex 2 14.25 -6.3
    endloop
  endfacet
  facet normal 0 -1 -0
    outer loop
      vertex -9.4875 14.25 -0.799996
      vertex -14.25 14.25 -7.9
      vertex -2 14.25 -6.3
    endloop
  endfacet
  facet normal 0 -1 0
    outer loop
      vertex -14.25 14.25 -7.9
      vertex -9.4875 14.25 -0.799996
      vertex -14.25 14.25 8.9
    endloop
  endfacet
  facet normal 0 -1 0
    outer loop
      vertex 9.4875 14.25 -0.799994
      vertex 14.25 14.25 8.9
      vertex 9.4875 14.25 8.9
    endloop
  endfacet
  facet normal 0 -1 0
    outer loop
      vertex -2 14.25 -5.8
      vertex 9.4875 14.25 -0.799994
      vertex -9.4875 14.25 -0.799996
    endloop
  endfacet
  facet normal 0 -1 0
    outer loop
      vertex 2 14.25 -5.8
      vertex 9.4875 14.25 -0.799994
      vertex -2 14.25 -5.8
    endloop
  endfacet
  facet normal 0 -1 0
    outer loop
      vertex 2 14.25 -6.3
      vertex 9.4875 14.25 -0.799994
      vertex 2 14.25 -5.8
    endloop
  endfacet
  facet normal 0 -1 0
    outer loop
      vertex 9.4875 14.25 -0.799994
      vertex 14.25 14.25 -7.9
      vertex 14.25 14.25 8.9
    endloop
  endfacet
  facet normal 0 -1 0
    outer loop
      vertex 2 14.25 -6.3
      vertex 14.25 14.25 -7.9
      vertex 9.4875 14.25 -0.799994
    endloop
  endfacet
  facet normal 0 -1 0
    outer loop
      vertex 14.25 14.25 -7.9
      vertex 2 14.25 -6.3
      vertex -14.25 14.25 -7.9
    endloop
  endfacet
  facet normal 0 1 0
    outer loop
      vertex 14.25 -14.25 8.9
      vertex 9.4875 -14.25 -0.799996
      vertex 9.4875 -14.25 8.9
    endloop
  endfacet
  facet normal 0 1 0
    outer loop
      vertex 9.4875 -14.25 -0.799996
      vertex 2 -14.25 -5.8
      vertex -9.4875 -14.25 -0.799996
    endloop
  endfacet
  facet normal 0 1 0
    outer loop
      vertex 9.4875 -14.25 -0.799996
      vertex 2 -14.25 -6.3
      vertex 2 -14.25 -5.8
    endloop
  endfacet
  facet normal 0 1 0
    outer loop
      vertex 2 -14.25 -6.3
      vertex 14.25 -14.25 -7.9
      vertex -2 -14.25 -6.3
    endloop
  endfacet
  facet normal 0 1 0
    outer loop
      vertex 9.4875 -14.25 -0.799996
      vertex 14.25 -14.25 -7.9
      vertex 2 -14.25 -6.3
    endloop
  endfacet
  facet normal 0 1 -0
    outer loop
      vertex 14.25 -14.25 -7.9
      vertex 9.4875 -14.25 -0.799996
      vertex 14.25 -14.25 8.9
    endloop
  endfacet
  facet normal 0 1 -0
    outer loop
      vertex -9.4875 -14.25 -0.799996
      vertex -14.25 -14.25 8.9
      vertex -9.4875 -14.25 8.9
    endloop
  endfacet
  facet normal 0 1 -0
    outer loop
      vertex -2 -14.25 -5.8
      vertex -9.4875 -14.25 -0.799996
      vertex 2 -14.25 -5.8
    endloop
  endfacet
  facet normal 0 1 -0
    outer loop
      vertex -2 -14.25 -6.3
      vertex -9.4875 -14.25 -0.799996
      vertex -2 -14.25 -5.8
    endloop
  endfacet
  facet normal 0 1 0
    outer loop
      vertex -9.4875 -14.25 -0.799996
      vertex -14.25 -14.25 -7.9
      vertex -14.25 -14.25 8.9
    endloop
  endfacet
  facet normal 0 1 0
    outer loop
      vertex -2 -14.25 -6.3
      vertex -14.25 -14.25 -7.9
      vertex -9.4875 -14.25 -0.799996
    endloop
  endfacet
  facet normal 0 1 0
    outer loop
      vertex -14.25 -14.25 -7.9
      vertex -2 -14.25 -6.3
      vertex 14.25 -14.25 -7.9
    endloop
  endfacet
  facet normal -0 0 1
    outer loop
      vertex 13.85 2 -5.8
      vertex 14.25 -2 -5.8
      vertex 14.25 2 -5.8
    endloop
  endfacet
  facet normal 0 0 1
    outer loop
      vertex 14.25 -2 -5.8
      vertex 13.85 2 -5.8
      vertex 13.85 -2 -5.8
    endloop
  endfacet
  facet normal 0 0 -1
    outer loop
      vertex 13.85 -2 -6.3
      vertex 14.25 2 -6.3
      vertex 14.25 -2 -6.3
    endloop
  endfacet
  facet normal -0 0 -1
    outer loop
      vertex 14.25 2 -6.3
      vertex 13.85 -2 -6.3
      vertex 13.85 2 -6.3
    endloop
  endfacet
  facet normal -1 0 0
    outer loop
      vertex 13.85 -2 -6.3
      vertex 13.85 2 -5.8
      vertex 13.85 2 -6.3
    endloop
  endfacet
  facet normal -1 -0 0
    outer loop
      vertex 13.85 2 -5.8
      vertex 13.85 -2 -6.3
      vertex 13.85 -2 -5.8
    endloop
  endfacet
  facet normal 0 1 -0
    outer loop
      vertex 14.25 2 -6.3
      vertex 13.85 2 -5.8
      vertex 14.25 2 -5.8
    endloop
  endfacet
  facet normal 0 1 0
    outer loop
      vertex 13.85 2 -5.8
      vertex 14.25 2 -6.3
      vertex 13.85 2 -6.3
    endloop
  endfacet
  facet normal 0 -1 0
    outer loop
      vertex 13.85 -2 -6.3
      vertex 14.25 -2 -5.8
      vertex 13.85 -2 -5.8
    endloop
  endfacet
  facet normal 0 -1 -0
    outer loop
      vertex 14.25 -2 -5.8
      vertex 13.85 -2 -6.3
      vertex 14.25 -2 -6.3
    endloop
  endfacet
  facet normal -0 0 1
    outer loop
      vertex -2 14.25 -5.8
      vertex 2 13.85 -5.8
      vertex 2 14.25 -5.8
    endloop
  endfacet
  facet normal 0 0 1
    outer loop
      vertex 2 13.85 -5.8
      vertex -2 14.25 -5.8
      vertex -2 13.85 -5.8
    endloop
  endfacet
  facet normal 0 -1 0
    outer loop
      vertex -2 13.85 -6.3
      vertex 2 13.85 -5.8
      vertex -2 13.85 -5.8
    endloop
  endfacet
  facet normal 0 -1 -0
    outer loop
      vertex 2 13.85 -5.8
      vertex -2 13.85 -6.3
      vertex 2 13.85 -6.3
    endloop
  endfacet
  facet normal -1 0 0
    outer loop
      vertex -2 13.85 -6.3
      vertex -2 14.25 -5.8
      vertex -2 14.25 -6.3
    endloop
  endfacet
  facet normal -1 -0 0
    outer loop
      vertex -2 14.25 -5.8
      vertex -2 13.85 -6.3
      vertex -2 13.85 -5.8
    endloop
  endfacet
  facet normal 0 0 -1
    outer loop
      vertex -2 13.85 -6.3
      vertex 2 14.25 -6.3
      vertex 2 13.85 -6.3
    endloop
  endfacet
  facet normal -0 0 -1
    outer loop
      vertex 2 14.25 -6.3
      vertex -2 13.85 -6.3
      vertex -2 14.25 -6.3
    endloop
  endfacet
  facet normal 1 -0 0
    outer loop
      vertex 2 13.85 -5.8
      vertex 2 14.25 -6.3
      vertex 2 14.25 -5.8
    endloop
  endfacet
  facet normal 1 0 0
    outer loop
      vertex 2 14.25 -6.3
      vertex 2 13.85 -5.8
      vertex 2 13.85 -6.3
    endloop
  endfacet
  facet normal -0 0 1
    outer loop
      vertex -14.25 2 -5.8
      vertex -13.85 -2 -5.8
      vertex -13.85 2 -5.8
    endloop
  endfacet
  facet normal 0 0 1
    outer loop
      vertex -13.85 -2 -5.8
      vertex -14.25 2 -5.8
      vertex -14.25 -2 -5.8
    endloop
  endfacet
  facet normal 1 -0 0
    outer loop
      vertex -13.85 -2 -5.8
      vertex -13.85 2 -6.3
      vertex -13.85 2 -5.8
    endloop
  endfacet
  facet normal 1 0 0
    outer loop
      vertex -13.85 2 -6.3
      vertex -13.85 -2 -5.8
      vertex -13.85 -2 -6.3
    endloop
  endfacet
  facet normal 0 -1 0
    outer loop
      vertex -14.25 -2 -6.3
      vertex -13.85 -2 -5.8
      vertex -14.25 -2 -5.8
    endloop
  endfacet
  facet normal 0 -1 -0
    outer loop
      vertex -13.85 -2 -5.8
      vertex -14.25 -2 -6.3
      vertex -13.85 -2 -6.3
    endloop
  endfacet
  facet normal 0 0 -1
    outer loop
      vertex -14.25 -2 -6.3
      vertex -13.85 2 -6.3
      vertex -13.85 -2 -6.3
    endloop
  endfacet
  facet normal -0 0 -1
    outer loop
      vertex -13.85 2 -6.3
      vertex -14.25 -2 -6.3
      vertex -14.25 2 -6.3
    endloop
  endfacet
  facet normal 0 1 -0
    outer loop
      vertex -13.85 2 -6.3
      vertex -14.25 2 -5.8
      vertex -13.85 2 -5.8
    endloop
  endfacet
  facet normal 0 1 0
    outer loop
      vertex -14.25 2 -5.8
      vertex -13.85 2 -6.3
      vertex -14.25 2 -6.3
    endloop
  endfacet
  facet normal -0 0 1
    outer loop
      vertex -2 -13.85 -5.8
      vertex 2 -14.25 -5.8
      vertex 2 -13.85 -5.8
    endloop
  endfacet
  facet normal 0 0 1
    outer loop
      vertex 2 -14.25 -5.8
      vertex -2 -13.85 -5.8
      vertex -2 -14.25 -5.8
    endloop
  endfacet
  facet normal 0 0 -1
    outer loop
      vertex -2 -14.25 -6.3
      vertex 2 -13.85 -6.3
      vertex 2 -14.25 -6.3
    endloop
  endfacet
  facet normal -0 0 -1
    outer loop
      vertex 2 -13.85 -6.3
      vertex -2 -14.25 -6.3
      vertex -2 -13.85 -6.3
    endloop
  endfacet
  facet normal 0 1 -0
    outer loop
      vertex 2 -13.85 -6.3
      vertex -2 -13.85 -5.8
      vertex 2 -13.85 -5.8
    endloop
  endfacet
  facet normal 0 1 0
    outer loop
      vertex -2 -13.85 -5.8
      vertex 2 -13.85 -6.3
      vertex -2 -13.85 -6.3
    endloop
  endfacet
  facet normal -1 0 0
    outer loop
      vertex -2 -14.25 -6.3
      vertex -2 -13.85 -5.8
      vertex -2 -13.85 -6.3
    endloop
  endfacet
  facet normal -1 -0 0
    outer loop
      vertex -2 -13.85 -5.8
      vertex -2 -14.25 -6.3
      vertex -2 -14.25 -5.8
    endloop
  endfacet
  facet normal 1 -0 0
    outer loop
      vertex 2 -14.25 -5.8
      vertex 2 -13.85 -6.3
      vertex 2 -13.85 -5.8
    endloop
  endfacet
  facet normal 1 0 0
    outer loop
      vertex 2 -13.85 -6.3
      vertex 2 -14.25 -5.8
      vertex 2 -14.25 -6.3
    endloop
  endfacet
  facet normal 1 0 0
    outer loop
      vertex 17.25 -9.4875 8.9
      vertex 17.25 -17.25 8.9
      vertex 17.25 -9.4875 5.4
    endloop
  endfacet
  facet normal 1 0 0
    outer loop
      vertex 17.25 9.4875 5.4
      vertex 17.25 17.25 8.9
      vertex 17.25 9.4875 8.9
    endloop
  endfacet
  facet normal 1 0 0
    outer loop
      vertex 17.25 17.25 8.9
      vertex 17.25 9.4875 5.4
      vertex 17.25 17.25 -8.9
    endloop
  endfacet
  facet normal 1 -0 0
    outer loop
      vertex 17.25 -9.4875 5.4
      vertex 17.25 17.25 -8.9
      vertex 17.25 9.4875 5.4
    endloop
  endfacet
  facet normal 1 0 0
    outer loop
      vertex 17.25 -17.25 -8.9
      vertex 17.25 -9.4875 5.4
      vertex 17.25 -17.25 8.9
    endloop
  endfacet
  facet normal 1 0 0
    outer loop
      vertex 17.25 -9.4875 5.4
      vertex 17.25 -17.25 -8.9
      vertex 17.25 17.25 -8.9
    endloop
  endfacet
  facet normal 0 0 1
    outer loop
      vertex -9.4875 17.25 8.9
      vertex -14.25 14.25 8.9
      vertex -9.4875 14.25 8.9
    endloop
  endfacet
  facet normal -0 0 1
    outer loop
      vertex -17.25 17.25 8.9
      vertex -14.25 14.25 8.9
      vertex -9.4875 17.25 8.9
    endloop
  endfacet
  facet normal 0 0 1
    outer loop
      vertex -17.25 9.4875 8.9
      vertex -14.25 14.25 8.9
      vertex -17.25 17.25 8.9
    endloop
  endfacet
  facet normal 0 0 1
    outer loop
      vertex -14.25 14.25 8.9
      vertex -17.25 9.4875 8.9
      vertex -14.25 9.4875 8.9
    endloop
  endfacet
  facet normal 0 0 1
    outer loop
      vertex 17.25 17.25 8.9
      vertex 14.25 14.25 8.9
      vertex 17.25 9.4875 8.9
    endloop
  endfacet
  facet normal -0 0 1
    outer loop
      vertex 9.4875 17.25 8.9
      vertex 14.25 14.25 8.9
      vertex 17.25 17.25 8.9
    endloop
  endfacet
  facet normal 0 0 1
    outer loop
      vertex 14.25 14.25 8.9
      vertex 9.4875 17.25 8.9
      vertex 9.4875 14.25 8.9
    endloop
  endfacet
  facet normal 0 0 1
    outer loop
      vertex 17.25 9.4875 8.9
      vertex 14.25 14.25 8.9
      vertex 14.25 9.4875 8.9
    endloop
  endfacet
  facet normal 0 0 1
    outer loop
      vertex -14.25 -9.4875 8.9
      vertex -17.25 -9.4875 8.9
      vertex -14.25 -14.25 8.9
    endloop
  endfacet
  facet normal -0 0 1
    outer loop
      vertex -14.25 -14.25 8.9
      vertex -9.4875 -17.25 8.9
      vertex -9.4875 -14.25 8.9
    endloop
  endfacet
  facet normal 0 0 1
    outer loop
      vertex -14.25 -14.25 8.9
      vertex -17.25 -17.25 8.9
      vertex -9.4875 -17.25 8.9
    endloop
  endfacet
  facet normal 0 0 1
    outer loop
      vertex -17.25 -17.25 8.9
      vertex -14.25 -14.25 8.9
      vertex -17.25 -9.4875 8.9
    endloop
  endfacet
  facet normal 0 0 1
    outer loop
      vertex 14.25 -14.25 8.9
      vertex 17.25 -9.4875 8.9
      vertex 14.25 -9.4875 8.9
    endloop
  endfacet
  facet normal 0 0 1
    outer loop
      vertex 17.25 -9.4875 8.9
      vertex 14.25 -14.25 8.9
      vertex 17.25 -17.25 8.9
    endloop
  endfacet
  facet normal 0 0 1
    outer loop
      vertex 9.4875 -17.25 8.9
      vertex 14.25 -14.25 8.9
      vertex 9.4875 -14.25 8.9
    endloop
  endfacet
  facet normal 0 0 1
    outer loop
      vertex 14.25 -14.25 8.9
      vertex 9.4875 -17.25 8.9
      vertex 17.25 -17.25 8.9
    endloop
  endfacet
  facet normal 0 0 -1
    outer loop
      vertex 17.25 -17.25 -8.9
      vertex 13.65 -13.65 -8.9
      vertex 17.25 17.25 -8.9
    endloop
  endfacet
  facet normal 0 0 -1
    outer loop
      vertex 17.25 -17.25 -8.9
      vertex -13.65 -13.65 -8.9
      vertex 13.65 -13.65 -8.9
    endloop
  endfacet
  facet normal -0 0 -1
    outer loop
      vertex -13.65 -13.65 -8.9
      vertex -17.25 -17.25 -8.9
      vertex -13.65 13.65 -8.9
    endloop
  endfacet
  facet normal 0 0 -1
    outer loop
      vertex -17.25 -17.25 -8.9
      vertex -13.65 -13.65 -8.9
      vertex 17.25 -17.25 -8.9
    endloop
  endfacet
  facet normal 0 0 -1
    outer loop
      vertex 13.65 13.65 -8.9
      vertex 17.25 17.25 -8.9
      vertex 13.65 -13.65 -8.9
    endloop
  endfacet
  facet normal 0 0 -1
    outer loop
      vertex -13.65 13.65 -8.9
      vertex 17.25 17.25 -8.9
      vertex 13.65 13.65 -8.9
    endloop
  endfacet
  facet normal 0 0 -1
    outer loop
      vertex -13.65 13.65 -8.9
      vertex -17.25 17.25 -8.9
      vertex 17.25 17.25 -8.9
    endloop
  endfacet
  facet normal 0 0 -1
    outer loop
      vertex -17.25 17.25 -8.9
      vertex -13.65 13.65 -8.9
      vertex -17.25 -17.25 -8.9
    endloop
  endfacet
  facet normal -1 0 0
    outer loop
      vertex -17.25 17.25 -8.9
      vertex -17.25 9.4875 5.4
      vertex -17.25 17.25 8.9
    endloop
  endfacet
  facet normal -1 0 0
    outer loop
      vertex -17.25 17.25 -8.9
      vertex -17.25 -9.4875 5.4
      vertex -17.25 9.4875 5.4
    endloop
  endfacet
  facet normal -1 0 0
    outer loop
      vertex -17.25 -17.25 -8.9
      vertex -17.25 -9.4875 5.4
      vertex -17.25 17.25 -8.9
    endloop
  endfacet
  facet normal -1 0 0
    outer loop
      vertex -17.25 -17.25 8.9
      vertex -17.25 -9.4875 5.4
      vertex -17.25 -17.25 -8.9
    endloop
  endfacet
  facet normal -1 0 0
    outer loop
      vertex -17.25 -9.4875 5.4
      vertex -17.25 -17.25 8.9
      vertex -17.25 -9.4875 8.9
    endloop
  endfacet
  facet normal -1 -0 0
    outer loop
      vertex -17.25 17.25 8.9
      vertex -17.25 9.4875 5.4
      vertex -17.25 9.4875 8.9
    endloop
  endfacet
  facet normal 0 1 0
    outer loop
      vertex 17.25 17.25 8.9
      vertex 9.4875 17.25 5.4
      vertex 9.4875 17.25 8.9
    endloop
  endfacet
  facet normal 0 1 0
    outer loop
      vertex 9.4875 17.25 5.4
      vertex 17.25 17.25 -8.9
      vertex -9.4875 17.25 5.4
    endloop
  endfacet
  facet normal 0 1 -0
    outer loop
      vertex 17.25 17.25 -8.9
      vertex 9.4875 17.25 5.4
      vertex 17.25 17.25 8.9
    endloop
  endfacet
  facet normal 0 1 -0
    outer loop
      vertex -9.4875 17.25 5.4
      vertex -17.25 17.25 8.9
      vertex -9.4875 17.25 8.9
    endloop
  endfacet
  facet normal 0 1 0
    outer loop
      vertex -17.25 17.25 -8.9
      vertex -9.4875 17.25 5.4
      vertex 17.25 17.25 -8.9
    endloop
  endfacet
  facet normal 0 1 0
    outer loop
      vertex -9.4875 17.25 5.4
      vertex -17.25 17.25 -8.9
      vertex -17.25 17.25 8.9
    endloop
  endfacet
  facet normal 0 -1 0
    outer loop
      vertex -17.25 -17.25 8.9
      vertex -9.4875 -17.25 5.4
      vertex -9.4875 -17.25 8.9
    endloop
  endfacet
  facet normal 0 -1 -0
    outer loop
      vertex -9.4875 -17.25 5.4
      vertex -17.25 -17.25 -8.9
      vertex 9.4875 -17.25 5.4
    endloop
  endfacet
  facet normal 0 -1 0
    outer loop
      vertex -17.25 -17.25 -8.9
      vertex -9.4875 -17.25 5.4
      vertex -17.25 -17.25 8.9
    endloop
  endfacet
  facet normal 0 -1 0
    outer loop
      vertex 9.4875 -17.25 5.4
      vertex 17.25 -17.25 8.9
      vertex 9.4875 -17.25 8.9
    endloop
  endfacet
  facet normal 0 -1 0
    outer loop
      vertex 17.25 -17.25 -8.9
      vertex 9.4875 -17.25 5.4
      vertex -17.25 -17.25 -8.9
    endloop
  endfacet
  facet normal 0 -1 0
    outer loop
      vertex 9.4875 -17.25 5.4
      vertex 17.25 -17.25 -8.9
      vertex 17.25 -17.25 8.9
    endloop
  endfacet
  facet normal -1 0 0
    outer loop
      vertex 13.65 -13.65 -8.9
      vertex 13.65 13.65 -7.9
      vertex 13.65 13.65 -8.9
    endloop
  endfacet
  facet normal -1 -0 0
    outer loop
      vertex 13.65 13.65 -7.9
      vertex 13.65 -13.65 -8.9
      vertex 13.65 -13.65 -7.9
    endloop
  endfacet
  facet normal 1 -0 0
    outer loop
      vertex -13.65 -13.65 -7.9
      vertex -13.65 13.65 -8.9
      vertex -13.65 13.65 -7.9
    endloop
  endfacet
  facet normal 1 0 0
    outer loop
      vertex -13.65 13.65 -8.9
      vertex -13.65 -13.65 -7.9
      vertex -13.65 -13.65 -8.9
    endloop
  endfacet
  facet normal 0 -1 0
    outer loop
      vertex -13.65 13.65 -8.9
      vertex 13.65 13.65 -7.9
      vertex -13.65 13.65 -7.9
    endloop
  endfacet
  facet normal 0 -1 -0
    outer loop
      vertex 13.65 13.65 -7.9
      vertex -13.65 13.65 -8.9
      vertex 13.65 13.65 -8.9
    endloop
  endfacet
  facet normal 0 1 -0
    outer loop
      vertex 13.65 -13.65 -8.9
      vertex -13.65 -13.65 -7.9
      vertex 13.65 -13.65 -7.9
    endloop
  endfacet
  facet normal 0 1 0
    outer loop
      vertex -13.65 -13.65 -7.9
      vertex 13.65 -13.65 -8.9
      vertex -13.65 -13.65 -8.9
    endloop
  endfacet
  facet normal -1 0 0
    outer loop
      vertex 9.4875 14.25 8.9
      vertex 9.4875 17.25 5.4
      vertex 9.4875 14.25 -0.799994
    endloop
  endfacet
  facet normal -1 0 0
    outer loop
      vertex 9.4875 17.25 5.4
      vertex 9.4875 14.25 8.9
      vertex 9.4875 17.25 8.9
    endloop
  endfacet
  facet normal 1 -0 0
    outer loop
      vertex -9.4875 14.25 8.9
      vertex -9.4875 17.25 5.4
      vertex -9.4875 17.25 8.9
    endloop
  endfacet
  facet normal 1 0 0
    outer loop
      vertex -9.4875 17.25 5.4
      vertex -9.4875 14.25 8.9
      vertex -9.4875 14.25 -0.799996
    endloop
  endfacet
  facet normal 0 -0.900159 0.435561
    outer loop
      vertex 9.4875 17.25 5.4
      vertex -9.4875 17.25 5.4
      vertex -9.4875 14.25 -0.799996
    endloop
  endfacet
  facet normal -4.51504e-08 -0.900159 0.435561
    outer loop
      vertex 9.4875 14.25 -0.799994
      vertex 9.4875 17.25 5.4
      vertex -9.4875 14.25 -0.799996
    endloop
  endfacet
  facet normal 0 -1 0
    outer loop
      vertex -17.25 9.4875 5.4
      vertex -14.25 9.4875 8.9
      vertex -17.25 9.4875 8.9
    endloop
  endfacet
  facet normal 0 -1 -0
    outer loop
      vertex -14.25 9.4875 8.9
      vertex -17.25 9.4875 5.4
      vertex -14.25 9.4875 -0.799994
    endloop
  endfacet
  facet normal 0 1 0
    outer loop
      vertex -14.25 -9.4875 8.9
      vertex -17.25 -9.4875 5.4
      vertex -17.25 -9.4875 8.9
    endloop
  endfacet
  facet normal -0 1 0
    outer loop
      vertex -17.25 -9.4875 5.4
      vertex -14.25 -9.4875 8.9
      vertex -14.25 -9.4875 -0.799996
    endloop
  endfacet
  facet normal 0.900159 -0 0.435561
    outer loop
      vertex -17.25 -9.4875 5.4
      vertex -14.25 9.4875 -0.799994
      vertex -17.25 9.4875 5.4
    endloop
  endfacet
  facet normal 0.900159 -4.51504e-08 0.435561
    outer loop
      vertex -14.25 9.4875 -0.799994
      vertex -17.25 -9.4875 5.4
      vertex -14.25 -9.4875 -0.799996
    endloop
  endfacet
  facet normal 1 0 0
    outer loop
      vertex -9.4875 -17.25 5.4
      vertex -9.4875 -14.25 8.9
      vertex -9.4875 -17.25 8.9
    endloop
  endfacet
  facet normal 1 0 0
    outer loop
      vertex -9.4875 -14.25 8.9
      vertex -9.4875 -17.25 5.4
      vertex -9.4875 -14.25 -0.799996
    endloop
  endfacet
  facet normal -1 0 0
    outer loop
      vertex 9.4875 -17.25 5.4
      vertex 9.4875 -14.25 8.9
      vertex 9.4875 -14.25 -0.799996
    endloop
  endfacet
  facet normal -1 -0 0
    outer loop
      vertex 9.4875 -14.25 8.9
      vertex 9.4875 -17.25 5.4
      vertex 9.4875 -17.25 8.9
    endloop
  endfacet
  facet normal 0 0.900159 0.435561
    outer loop
      vertex 9.4875 -14.25 -0.799996
      vertex -9.4875 -17.25 5.4
      vertex 9.4875 -17.25 5.4
    endloop
  endfacet
  facet normal 0 0.900159 0.435561
    outer loop
      vertex -9.4875 -17.25 5.4
      vertex 9.4875 -14.25 -0.799996
      vertex -9.4875 -14.25 -0.799996
    endloop
  endfacet
  facet normal 0 1 -0
    outer loop
      vertex 17.25 -9.4875 5.4
      vertex 14.25 -9.4875 8.9
      vertex 17.25 -9.4875 8.9
    endloop
  endfacet
  facet normal 0 1 0
    outer loop
      vertex 14.25 -9.4875 8.9
      vertex 17.25 -9.4875 5.4
      vertex 14.25 -9.4875 -0.799994
    endloop
  endfacet
  facet normal 0 -1 0
    outer loop
      vertex 14.25 9.4875 8.9
      vertex 17.25 9.4875 5.4
      vertex 17.25 9.4875 8.9
    endloop
  endfacet
  facet normal -0 -1 0
    outer loop
      vertex 17.25 9.4875 5.4
      vertex 14.25 9.4875 8.9
      vertex 14.25 9.4875 -0.799996
    endloop
  endfacet
  facet normal -0.900159 4.51504e-08 0.435561
    outer loop
      vertex 14.25 -9.4875 -0.799994
      vertex 17.25 9.4875 5.4
      vertex 14.25 9.4875 -0.799996
    endloop
  endfacet
  facet normal -0.900159 0 0.435561
    outer loop
      vertex 17.25 9.4875 5.4
      vertex 14.25 -9.4875 -0.799994
      vertex 17.25 -9.4875 5.4
    endloop
  endfacet
endsolid OpenSCAD_Model
