  0
SECTION
  2
BLOCKS
  0
ENDSEC
  0
SECTION
  2
ENTITIES
  0
LINE
  8
0
 10
-16.5
 20
-23.6
 11
16.5
 21
-23.6
  0
LINE
  8
0
 10
16.5
 20
-23.6
 11
16.5
 21
1.55
  0
LINE
  8
0
 10
16.5
 20
1.55
 11
18
 21
1.55
  0
LINE
  8
0
 10
18
 20
1.55
 11
18
 21
6.35
  0
LINE
  8
0
 10
18
 20
6.35
 11
16.5
 21
6.35
  0
LINE
  8
0
 10
16.5
 20
6.35
 11
16.5
 21
23.6
  0
LINE
  8
0
 10
16.5
 20
23.6
 11
-16.5
 21
23.6
  0
LINE
  8
0
 10
-16.5
 20
23.6
 11
-16.5
 21
-23.6
  0
LINE
  8
0
 10
-13.4887
 20
8.94761
 11
-13.4887
 21
9.65239
  0
LINE
  8
0
 10
-13.4887
 20
9.65239
 11
-13.3986
 21
10.3514
  0
LINE
  8
0
 10
-13.3986
 20
10.3514
 11
-13.2198
 21
11.0331
  0
LINE
  8
0
 10
-13.2198
 20
11.0331
 11
-12.9553
 21
11.6864
  0
LINE
  8
0
 10
-12.9553
 20
11.6864
 11
-12.6095
 21
12.3004
  0
LINE
  8
0
 10
-12.6095
 20
12.3004
 11
-12.188
 21
12.8653
  0
LINE
  8
0
 10
-12.188
 20
12.8653
 11
-11.6977
 21
13.3715
  0
LINE
  8
0
 10
-11.6977
 20
13.3715
 11
-11.1466
 21
13.8109
  0
LINE
  8
0
 10
-11.1466
 20
13.8109
 11
-10.544
 21
14.1763
  0
LINE
  8
0
 10
-10.544
 20
14.1763
 11
-9.89951
 21
14.4616
  0
LINE
  8
0
 10
-9.89951
 20
14.4616
 11
-9.22386
 21
14.6621
  0
LINE
  8
0
 10
-9.22386
 20
14.6621
 11
-8.52813
 21
14.7746
  0
LINE
  8
0
 10
-8.52813
 20
14.7746
 11
-7.82372
 21
14.7972
  0
LINE
  8
0
 10
-7.82372
 20
14.7972
 11
-7.1222
 21
14.7295
  0
LINE
  8
0
 10
-7.1222
 20
14.7295
 11
-6.4351
 21
14.5727
  0
LINE
  8
0
 10
-6.4351
 20
14.5727
 11
-5.77369
 21
14.3293
  0
LINE
  8
0
 10
-5.77369
 20
14.3293
 11
-5.14884
 21
14.0033
  0
LINE
  8
0
 10
-5.14884
 20
14.0033
 11
-4.57081
 21
13.6001
  0
LINE
  8
0
 10
-4.57081
 20
13.6001
 11
-4.04908
 21
13.1263
  0
LINE
  8
0
 10
-4.04908
 20
13.1263
 11
-3.59223
 21
12.5896
  0
LINE
  8
0
 10
-3.59223
 20
12.5896
 11
-3.20775
 21
11.9989
  0
LINE
  8
0
 10
-3.20775
 20
11.9989
 11
-2.90196
 21
11.364
  0
LINE
  8
0
 10
-2.90196
 20
11.364
 11
-2.67988
 21
10.6951
  0
LINE
  8
0
 10
-2.67988
 20
10.6951
 11
-2.54516
 21
10.0033
  0
LINE
  8
0
 10
-2.54516
 20
10.0033
 11
-2.5
 21
9.3
  0
LINE
  8
0
 10
-2.5
 20
9.3
 11
-2.54516
 21
8.59668
  0
LINE
  8
0
 10
-2.54516
 20
8.59668
 11
-2.67988
 21
7.9049
  0
LINE
  8
0
 10
-2.67988
 20
7.9049
 11
-2.90196
 21
7.23603
  0
LINE
  8
0
 10
-2.90196
 20
7.23603
 11
-3.20775
 21
6.60105
  0
LINE
  8
0
 10
-3.20775
 20
6.60105
 11
-3.59223
 21
6.01039
  0
LINE
  8
0
 10
-3.59223
 20
6.01039
 11
-4.04908
 21
5.47375
  0
LINE
  8
0
 10
-4.04908
 20
5.47375
 11
-4.57081
 21
4.99993
  0
LINE
  8
0
 10
-4.57081
 20
4.99993
 11
-5.14884
 21
4.59672
  0
LINE
  8
0
 10
-5.14884
 20
4.59672
 11
-5.77369
 21
4.27073
  0
LINE
  8
0
 10
-5.77369
 20
4.27073
 11
-6.4351
 21
4.02733
  0
LINE
  8
0
 10
-6.4351
 20
4.02733
 11
-7.1222
 21
3.8705
  0
LINE
  8
0
 10
-7.1222
 20
3.8705
 11
-7.82372
 21
3.80283
  0
LINE
  8
0
 10
-7.82372
 20
3.80283
 11
-8.52813
 21
3.82542
  0
LINE
  8
0
 10
-8.52813
 20
3.82542
 11
-9.22386
 21
3.9379
  0
LINE
  8
0
 10
-9.22386
 20
3.9379
 11
-9.89951
 21
4.13842
  0
LINE
  8
0
 10
-9.89951
 20
4.13842
 11
-10.544
 21
4.4237
  0
LINE
  8
0
 10
-10.544
 20
4.4237
 11
-11.1466
 21
4.78905
  0
LINE
  8
0
 10
-11.1466
 20
4.78905
 11
-11.6977
 21
5.22847
  0
LINE
  8
0
 10
-11.6977
 20
5.22847
 11
-12.188
 21
5.73474
  0
LINE
  8
0
 10
-12.188
 20
5.73474
 11
-12.6095
 21
6.29956
  0
LINE
  8
0
 10
-12.6095
 20
6.29956
 11
-12.9553
 21
6.91364
  0
LINE
  8
0
 10
-12.9553
 20
6.91364
 11
-13.2198
 21
7.5669
  0
LINE
  8
0
 10
-13.2198
 20
7.5669
 11
-13.3986
 21
8.24863
  0
LINE
  8
0
 10
-13.3986
 20
8.24863
 11
-13.4887
 21
8.94761
  0
LINE
  8
0
 10
2.5113
 20
8.94761
 11
2.5113
 21
9.65239
  0
LINE
  8
0
 10
2.5113
 20
9.65239
 11
2.60143
 21
10.3514
  0
LINE
  8
0
 10
2.60143
 20
10.3514
 11
2.78019
 21
11.0331
  0
LINE
  8
0
 10
2.78019
 20
11.0331
 11
3.04467
 21
11.6864
  0
LINE
  8
0
 10
3.04467
 20
11.6864
 11
3.39052
 21
12.3004
  0
LINE
  8
0
 10
3.39052
 20
12.3004
 11
3.81205
 21
12.8653
  0
LINE
  8
0
 10
3.81205
 20
12.8653
 11
4.30235
 21
13.3715
  0
LINE
  8
0
 10
4.30235
 20
13.3715
 11
4.85336
 21
13.8109
  0
LINE
  8
0
 10
4.85336
 20
13.8109
 11
5.45604
 21
14.1763
  0
LINE
  8
0
 10
5.45604
 20
14.1763
 11
6.10049
 21
14.4616
  0
LINE
  8
0
 10
6.10049
 20
14.4616
 11
6.77614
 21
14.6621
  0
LINE
  8
0
 10
6.77614
 20
14.6621
 11
7.47187
 21
14.7746
  0
LINE
  8
0
 10
7.47187
 20
14.7746
 11
8.17628
 21
14.7972
  0
LINE
  8
0
 10
8.17628
 20
14.7972
 11
8.8778
 21
14.7295
  0
LINE
  8
0
 10
8.8778
 20
14.7295
 11
9.5649
 21
14.5727
  0
LINE
  8
0
 10
9.5649
 20
14.5727
 11
10.2263
 21
14.3293
  0
LINE
  8
0
 10
10.2263
 20
14.3293
 11
10.8512
 21
14.0033
  0
LINE
  8
0
 10
10.8512
 20
14.0033
 11
11.4292
 21
13.6001
  0
LINE
  8
0
 10
11.4292
 20
13.6001
 11
11.9509
 21
13.1263
  0
LINE
  8
0
 10
11.9509
 20
13.1263
 11
12.4078
 21
12.5896
  0
LINE
  8
0
 10
12.4078
 20
12.5896
 11
12.7923
 21
11.9989
  0
LINE
  8
0
 10
12.7923
 20
11.9989
 11
13.098
 21
11.364
  0
LINE
  8
0
 10
13.098
 20
11.364
 11
13.3201
 21
10.6951
  0
LINE
  8
0
 10
13.3201
 20
10.6951
 11
13.4548
 21
10.0033
  0
LINE
  8
0
 10
13.4548
 20
10.0033
 11
13.5
 21
9.3
  0
LINE
  8
0
 10
13.5
 20
9.3
 11
13.4548
 21
8.59668
  0
LINE
  8
0
 10
13.4548
 20
8.59668
 11
13.3201
 21
7.9049
  0
LINE
  8
0
 10
13.3201
 20
7.9049
 11
13.098
 21
7.23603
  0
LINE
  8
0
 10
13.098
 20
7.23603
 11
12.7923
 21
6.60105
  0
LINE
  8
0
 10
12.7923
 20
6.60105
 11
12.4078
 21
6.01039
  0
LINE
  8
0
 10
12.4078
 20
6.01039
 11
11.9509
 21
5.47375
  0
LINE
  8
0
 10
11.9509
 20
5.47375
 11
11.4292
 21
4.99993
  0
LINE
  8
0
 10
11.4292
 20
4.99993
 11
10.8512
 21
4.59672
  0
LINE
  8
0
 10
10.8512
 20
4.59672
 11
10.2263
 21
4.27073
  0
LINE
  8
0
 10
10.2263
 20
4.27073
 11
9.5649
 21
4.02733
  0
LINE
  8
0
 10
9.5649
 20
4.02733
 11
8.8778
 21
3.8705
  0
LINE
  8
0
 10
8.8778
 20
3.8705
 11
8.17628
 21
3.80283
  0
LINE
  8
0
 10
8.17628
 20
3.80283
 11
7.47187
 21
3.82542
  0
LINE
  8
0
 10
7.47187
 20
3.82542
 11
6.77614
 21
3.9379
  0
LINE
  8
0
 10
6.77614
 20
3.9379
 11
6.10049
 21
4.13842
  0
LINE
  8
0
 10
6.10049
 20
4.13842
 11
5.45604
 21
4.4237
  0
LINE
  8
0
 10
5.45604
 20
4.4237
 11
4.85336
 21
4.78905
  0
LINE
  8
0
 10
4.85336
 20
4.78905
 11
4.30235
 21
5.22847
  0
LINE
  8
0
 10
4.30235
 20
5.22847
 11
3.81205
 21
5.73474
  0
LINE
  8
0
 10
3.81205
 20
5.73474
 11
3.39052
 21
6.29956
  0
LINE
  8
0
 10
3.39052
 20
6.29956
 11
3.04467
 21
6.91364
  0
LINE
  8
0
 10
3.04467
 20
6.91364
 11
2.78019
 21
7.5669
  0
LINE
  8
0
 10
2.78019
 20
7.5669
 11
2.60143
 21
8.24863
  0
LINE
  8
0
 10
2.60143
 20
8.24863
 11
2.5113
 21
8.94761
  0
ENDSEC
  0
SECTION
  2
OBJECTS
  0
DICTIONARY
  0
ENDSEC
  0
EOF
