solid OpenSCAD_Model
  facet normal -1 0 0
    outer loop
      vertex 15.25 15.25 -7.9
      vertex 15.25 10.0375 -0.799996
      vertex 15.25 15.25 8.9
    endloop
  endfacet
  facet normal -1 0 0
    outer loop
      vertex 15.25 15.25 -7.9
      vertex 15.25 2 -6.3
      vertex 15.25 10.0375 -0.799996
    endloop
  endfacet
  facet normal -1 0 0
    outer loop
      vertex 15.25 15.25 -7.9
      vertex 15.25 -2 -6.3
      vertex 15.25 2 -6.3
    endloop
  endfacet
  facet normal -1 0 0
    outer loop
      vertex 15.25 -2 -6.3
      vertex 15.25 -10.0375 -0.799994
      vertex 15.25 -2 -5.8
    endloop
  endfacet
  facet normal -1 0 0
    outer loop
      vertex 15.25 -15.25 -7.9
      vertex 15.25 -2 -6.3
      vertex 15.25 15.25 -7.9
    endloop
  endfacet
  facet normal -1 0 0
    outer loop
      vertex 15.25 -15.25 -7.9
      vertex 15.25 -10.0375 -0.799994
      vertex 15.25 -2 -6.3
    endloop
  endfacet
  facet normal -1 0 0
    outer loop
      vertex 15.25 -15.25 8.9
      vertex 15.25 -10.0375 -0.799994
      vertex 15.25 -15.25 -7.9
    endloop
  endfacet
  facet normal -1 0 0
    outer loop
      vertex 15.25 -10.0375 -0.799994
      vertex 15.25 -15.25 8.9
      vertex 15.25 -10.0375 8.9
    endloop
  endfacet
  facet normal -1 -0 0
    outer loop
      vertex 15.25 15.25 8.9
      vertex 15.25 10.0375 -0.799996
      vertex 15.25 10.0375 8.9
    endloop
  endfacet
  facet normal -1 0 0
    outer loop
      vertex 15.25 2 -5.8
      vertex 15.25 10.0375 -0.799996
      vertex 15.25 2 -6.3
    endloop
  endfacet
  facet normal -1 0 0
    outer loop
      vertex 15.25 -2 -5.8
      vertex 15.25 10.0375 -0.799996
      vertex 15.25 2 -5.8
    endloop
  endfacet
  facet normal -1 -0 0
    outer loop
      vertex 15.25 10.0375 -0.799996
      vertex 15.25 -2 -5.8
      vertex 15.25 -10.0375 -0.799994
    endloop
  endfacet
  facet normal 0 0 1
    outer loop
      vertex 15.25 15.25 -7.9
      vertex 14.65 14.65 -7.9
      vertex 15.25 -15.25 -7.9
    endloop
  endfacet
  facet normal 0 0 1
    outer loop
      vertex 15.25 15.25 -7.9
      vertex -14.65 14.65 -7.9
      vertex 14.65 14.65 -7.9
    endloop
  endfacet
  facet normal 0 0 1
    outer loop
      vertex -14.65 14.65 -7.9
      vertex -15.25 15.25 -7.9
      vertex -14.65 -14.65 -7.9
    endloop
  endfacet
  facet normal -0 0 1
    outer loop
      vertex -15.25 15.25 -7.9
      vertex -14.65 14.65 -7.9
      vertex 15.25 15.25 -7.9
    endloop
  endfacet
  facet normal -0 0 1
    outer loop
      vertex 14.65 -14.65 -7.9
      vertex 15.25 -15.25 -7.9
      vertex 14.65 14.65 -7.9
    endloop
  endfacet
  facet normal -0 0 1
    outer loop
      vertex -14.65 -14.65 -7.9
      vertex 15.25 -15.25 -7.9
      vertex 14.65 -14.65 -7.9
    endloop
  endfacet
  facet normal 0 0 1
    outer loop
      vertex -14.65 -14.65 -7.9
      vertex -15.25 -15.25 -7.9
      vertex 15.25 -15.25 -7.9
    endloop
  endfacet
  facet normal 0 0 1
    outer loop
      vertex -15.25 -15.25 -7.9
      vertex -14.65 -14.65 -7.9
      vertex -15.25 15.25 -7.9
    endloop
  endfacet
  facet normal 1 0 0
    outer loop
      vertex -15.25 -10.0375 8.9
      vertex -15.25 -15.25 8.9
      vertex -15.25 -10.0375 -0.799996
    endloop
  endfacet
  facet normal 1 0 0
    outer loop
      vertex -15.25 10.0375 -0.799994
      vertex -15.25 -2 -5.8
      vertex -15.25 2 -5.8
    endloop
  endfacet
  facet normal 1 0 0
    outer loop
      vertex -15.25 -2 -5.8
      vertex -15.25 -10.0375 -0.799996
      vertex -15.25 -2 -6.3
    endloop
  endfacet
  facet normal 1 -0 0
    outer loop
      vertex -15.25 -10.0375 -0.799996
      vertex -15.25 -2 -5.8
      vertex -15.25 10.0375 -0.799994
    endloop
  endfacet
  facet normal 1 0 0
    outer loop
      vertex -15.25 10.0375 -0.799994
      vertex -15.25 15.25 8.9
      vertex -15.25 10.0375 8.9
    endloop
  endfacet
  facet normal 1 0 0
    outer loop
      vertex -15.25 15.25 8.9
      vertex -15.25 10.0375 -0.799994
      vertex -15.25 15.25 -7.9
    endloop
  endfacet
  facet normal 1 0 0
    outer loop
      vertex -15.25 2 -6.3
      vertex -15.25 10.0375 -0.799994
      vertex -15.25 2 -5.8
    endloop
  endfacet
  facet normal 1 0 0
    outer loop
      vertex -15.25 10.0375 -0.799994
      vertex -15.25 2 -6.3
      vertex -15.25 15.25 -7.9
    endloop
  endfacet
  facet normal 1 -0 0
    outer loop
      vertex -15.25 -2 -6.3
      vertex -15.25 15.25 -7.9
      vertex -15.25 2 -6.3
    endloop
  endfacet
  facet normal 1 0 0
    outer loop
      vertex -15.25 -2 -6.3
      vertex -15.25 -15.25 -7.9
      vertex -15.25 15.25 -7.9
    endloop
  endfacet
  facet normal 1 0 0
    outer loop
      vertex -15.25 -10.0375 -0.799996
      vertex -15.25 -15.25 -7.9
      vertex -15.25 -2 -6.3
    endloop
  endfacet
  facet normal 1 0 0
    outer loop
      vertex -15.25 -15.25 -7.9
      vertex -15.25 -10.0375 -0.799996
      vertex -15.25 -15.25 8.9
    endloop
  endfacet
  facet normal 0 -1 0
    outer loop
      vertex -15.25 15.25 8.9
      vertex -10.0375 15.25 -0.799996
      vertex -10.0375 15.25 8.9
    endloop
  endfacet
  facet normal 0 -1 0
    outer loop
      vertex -10.0375 15.25 -0.799996
      vertex -2 15.25 -6.3
      vertex -2 15.25 -5.8
    endloop
  endfacet
  facet normal 0 -1 -0
    outer loop
      vertex -2 15.25 -6.3
      vertex -15.25 15.25 -7.9
      vertex 2 15.25 -6.3
    endloop
  endfacet
  facet normal 0 -1 -0
    outer loop
      vertex -10.0375 15.25 -0.799996
      vertex -15.25 15.25 -7.9
      vertex -2 15.25 -6.3
    endloop
  endfacet
  facet normal 0 -1 0
    outer loop
      vertex -15.25 15.25 -7.9
      vertex -10.0375 15.25 -0.799996
      vertex -15.25 15.25 8.9
    endloop
  endfacet
  facet normal 0 -1 0
    outer loop
      vertex 10.0375 15.25 -0.799994
      vertex 15.25 15.25 8.9
      vertex 10.0375 15.25 8.9
    endloop
  endfacet
  facet normal 0 -1 0
    outer loop
      vertex -2 15.25 -5.8
      vertex 10.0375 15.25 -0.799994
      vertex -10.0375 15.25 -0.799996
    endloop
  endfacet
  facet normal 0 -1 0
    outer loop
      vertex 2 15.25 -5.8
      vertex 10.0375 15.25 -0.799994
      vertex -2 15.25 -5.8
    endloop
  endfacet
  facet normal 0 -1 0
    outer loop
      vertex 2 15.25 -6.3
      vertex 10.0375 15.25 -0.799994
      vertex 2 15.25 -5.8
    endloop
  endfacet
  facet normal 0 -1 0
    outer loop
      vertex 10.0375 15.25 -0.799994
      vertex 15.25 15.25 -7.9
      vertex 15.25 15.25 8.9
    endloop
  endfacet
  facet normal 0 -1 0
    outer loop
      vertex 2 15.25 -6.3
      vertex 15.25 15.25 -7.9
      vertex 10.0375 15.25 -0.799994
    endloop
  endfacet
  facet normal 0 -1 0
    outer loop
      vertex 15.25 15.25 -7.9
      vertex 2 15.25 -6.3
      vertex -15.25 15.25 -7.9
    endloop
  endfacet
  facet normal 0 1 0
    outer loop
      vertex 15.25 -15.25 8.9
      vertex 10.0375 -15.25 -0.799996
      vertex 10.0375 -15.25 8.9
    endloop
  endfacet
  facet normal 0 1 0
    outer loop
      vertex 10.0375 -15.25 -0.799996
      vertex 2 -15.25 -5.8
      vertex -10.0375 -15.25 -0.799996
    endloop
  endfacet
  facet normal 0 1 0
    outer loop
      vertex 10.0375 -15.25 -0.799996
      vertex 2 -15.25 -6.3
      vertex 2 -15.25 -5.8
    endloop
  endfacet
  facet normal 0 1 0
    outer loop
      vertex 2 -15.25 -6.3
      vertex 15.25 -15.25 -7.9
      vertex -2 -15.25 -6.3
    endloop
  endfacet
  facet normal 0 1 0
    outer loop
      vertex 10.0375 -15.25 -0.799996
      vertex 15.25 -15.25 -7.9
      vertex 2 -15.25 -6.3
    endloop
  endfacet
  facet normal 0 1 -0
    outer loop
      vertex 15.25 -15.25 -7.9
      vertex 10.0375 -15.25 -0.799996
      vertex 15.25 -15.25 8.9
    endloop
  endfacet
  facet normal 0 1 -0
    outer loop
      vertex -10.0375 -15.25 -0.799996
      vertex -15.25 -15.25 8.9
      vertex -10.0375 -15.25 8.9
    endloop
  endfacet
  facet normal 0 1 -0
    outer loop
      vertex -2 -15.25 -5.8
      vertex -10.0375 -15.25 -0.799996
      vertex 2 -15.25 -5.8
    endloop
  endfacet
  facet normal 0 1 -0
    outer loop
      vertex -2 -15.25 -6.3
      vertex -10.0375 -15.25 -0.799996
      vertex -2 -15.25 -5.8
    endloop
  endfacet
  facet normal 0 1 0
    outer loop
      vertex -10.0375 -15.25 -0.799996
      vertex -15.25 -15.25 -7.9
      vertex -15.25 -15.25 8.9
    endloop
  endfacet
  facet normal 0 1 0
    outer loop
      vertex -2 -15.25 -6.3
      vertex -15.25 -15.25 -7.9
      vertex -10.0375 -15.25 -0.799996
    endloop
  endfacet
  facet normal 0 1 0
    outer loop
      vertex -15.25 -15.25 -7.9
      vertex -2 -15.25 -6.3
      vertex 15.25 -15.25 -7.9
    endloop
  endfacet
  facet normal -0 0 1
    outer loop
      vertex 14.85 2 -5.8
      vertex 15.25 -2 -5.8
      vertex 15.25 2 -5.8
    endloop
  endfacet
  facet normal 0 0 1
    outer loop
      vertex 15.25 -2 -5.8
      vertex 14.85 2 -5.8
      vertex 14.85 -2 -5.8
    endloop
  endfacet
  facet normal 0 0 -1
    outer loop
      vertex 14.85 -2 -6.3
      vertex 15.25 2 -6.3
      vertex 15.25 -2 -6.3
    endloop
  endfacet
  facet normal -0 0 -1
    outer loop
      vertex 15.25 2 -6.3
      vertex 14.85 -2 -6.3
      vertex 14.85 2 -6.3
    endloop
  endfacet
  facet normal -1 0 0
    outer loop
      vertex 14.85 -2 -6.3
      vertex 14.85 2 -5.8
      vertex 14.85 2 -6.3
    endloop
  endfacet
  facet normal -1 -0 0
    outer loop
      vertex 14.85 2 -5.8
      vertex 14.85 -2 -6.3
      vertex 14.85 -2 -5.8
    endloop
  endfacet
  facet normal 0 1 -0
    outer loop
      vertex 15.25 2 -6.3
      vertex 14.85 2 -5.8
      vertex 15.25 2 -5.8
    endloop
  endfacet
  facet normal 0 1 0
    outer loop
      vertex 14.85 2 -5.8
      vertex 15.25 2 -6.3
      vertex 14.85 2 -6.3
    endloop
  endfacet
  facet normal 0 -1 0
    outer loop
      vertex 14.85 -2 -6.3
      vertex 15.25 -2 -5.8
      vertex 14.85 -2 -5.8
    endloop
  endfacet
  facet normal 0 -1 -0
    outer loop
      vertex 15.25 -2 -5.8
      vertex 14.85 -2 -6.3
      vertex 15.25 -2 -6.3
    endloop
  endfacet
  facet normal -0 0 1
    outer loop
      vertex -2 15.25 -5.8
      vertex 2 14.85 -5.8
      vertex 2 15.25 -5.8
    endloop
  endfacet
  facet normal 0 0 1
    outer loop
      vertex 2 14.85 -5.8
      vertex -2 15.25 -5.8
      vertex -2 14.85 -5.8
    endloop
  endfacet
  facet normal 0 -1 0
    outer loop
      vertex -2 14.85 -6.3
      vertex 2 14.85 -5.8
      vertex -2 14.85 -5.8
    endloop
  endfacet
  facet normal 0 -1 -0
    outer loop
      vertex 2 14.85 -5.8
      vertex -2 14.85 -6.3
      vertex 2 14.85 -6.3
    endloop
  endfacet
  facet normal -1 0 0
    outer loop
      vertex -2 14.85 -6.3
      vertex -2 15.25 -5.8
      vertex -2 15.25 -6.3
    endloop
  endfacet
  facet normal -1 -0 0
    outer loop
      vertex -2 15.25 -5.8
      vertex -2 14.85 -6.3
      vertex -2 14.85 -5.8
    endloop
  endfacet
  facet normal 0 0 -1
    outer loop
      vertex -2 14.85 -6.3
      vertex 2 15.25 -6.3
      vertex 2 14.85 -6.3
    endloop
  endfacet
  facet normal -0 0 -1
    outer loop
      vertex 2 15.25 -6.3
      vertex -2 14.85 -6.3
      vertex -2 15.25 -6.3
    endloop
  endfacet
  facet normal 1 -0 0
    outer loop
      vertex 2 14.85 -5.8
      vertex 2 15.25 -6.3
      vertex 2 15.25 -5.8
    endloop
  endfacet
  facet normal 1 0 0
    outer loop
      vertex 2 15.25 -6.3
      vertex 2 14.85 -5.8
      vertex 2 14.85 -6.3
    endloop
  endfacet
  facet normal -0 0 1
    outer loop
      vertex -15.25 2 -5.8
      vertex -14.85 -2 -5.8
      vertex -14.85 2 -5.8
    endloop
  endfacet
  facet normal 0 0 1
    outer loop
      vertex -14.85 -2 -5.8
      vertex -15.25 2 -5.8
      vertex -15.25 -2 -5.8
    endloop
  endfacet
  facet normal 1 -0 0
    outer loop
      vertex -14.85 -2 -5.8
      vertex -14.85 2 -6.3
      vertex -14.85 2 -5.8
    endloop
  endfacet
  facet normal 1 0 0
    outer loop
      vertex -14.85 2 -6.3
      vertex -14.85 -2 -5.8
      vertex -14.85 -2 -6.3
    endloop
  endfacet
  facet normal 0 -1 0
    outer loop
      vertex -15.25 -2 -6.3
      vertex -14.85 -2 -5.8
      vertex -15.25 -2 -5.8
    endloop
  endfacet
  facet normal 0 -1 -0
    outer loop
      vertex -14.85 -2 -5.8
      vertex -15.25 -2 -6.3
      vertex -14.85 -2 -6.3
    endloop
  endfacet
  facet normal 0 0 -1
    outer loop
      vertex -15.25 -2 -6.3
      vertex -14.85 2 -6.3
      vertex -14.85 -2 -6.3
    endloop
  endfacet
  facet normal -0 0 -1
    outer loop
      vertex -14.85 2 -6.3
      vertex -15.25 -2 -6.3
      vertex -15.25 2 -6.3
    endloop
  endfacet
  facet normal 0 1 -0
    outer loop
      vertex -14.85 2 -6.3
      vertex -15.25 2 -5.8
      vertex -14.85 2 -5.8
    endloop
  endfacet
  facet normal 0 1 0
    outer loop
      vertex -15.25 2 -5.8
      vertex -14.85 2 -6.3
      vertex -15.25 2 -6.3
    endloop
  endfacet
  facet normal -0 0 1
    outer loop
      vertex -2 -14.85 -5.8
      vertex 2 -15.25 -5.8
      vertex 2 -14.85 -5.8
    endloop
  endfacet
  facet normal 0 0 1
    outer loop
      vertex 2 -15.25 -5.8
      vertex -2 -14.85 -5.8
      vertex -2 -15.25 -5.8
    endloop
  endfacet
  facet normal 0 0 -1
    outer loop
      vertex -2 -15.25 -6.3
      vertex 2 -14.85 -6.3
      vertex 2 -15.25 -6.3
    endloop
  endfacet
  facet normal -0 0 -1
    outer loop
      vertex 2 -14.85 -6.3
      vertex -2 -15.25 -6.3
      vertex -2 -14.85 -6.3
    endloop
  endfacet
  facet normal 0 1 -0
    outer loop
      vertex 2 -14.85 -6.3
      vertex -2 -14.85 -5.8
      vertex 2 -14.85 -5.8
    endloop
  endfacet
  facet normal 0 1 0
    outer loop
      vertex -2 -14.85 -5.8
      vertex 2 -14.85 -6.3
      vertex -2 -14.85 -6.3
    endloop
  endfacet
  facet normal 1 -0 0
    outer loop
      vertex 2 -15.25 -5.8
      vertex 2 -14.85 -6.3
      vertex 2 -14.85 -5.8
    endloop
  endfacet
  facet normal 1 0 0
    outer loop
      vertex 2 -14.85 -6.3
      vertex 2 -15.25 -5.8
      vertex 2 -15.25 -6.3
    endloop
  endfacet
  facet normal -1 0 0
    outer loop
      vertex -2 -15.25 -6.3
      vertex -2 -14.85 -5.8
      vertex -2 -14.85 -6.3
    endloop
  endfacet
  facet normal -1 -0 0
    outer loop
      vertex -2 -14.85 -5.8
      vertex -2 -15.25 -6.3
      vertex -2 -15.25 -5.8
    endloop
  endfacet
  facet normal 1 0 0
    outer loop
      vertex 18.25 -10.0375 8.9
      vertex 18.25 -18.25 8.9
      vertex 18.25 -10.0375 5.4
    endloop
  endfacet
  facet normal 1 0 0
    outer loop
      vertex 18.25 10.0375 5.4
      vertex 18.25 18.25 8.9
      vertex 18.25 10.0375 8.9
    endloop
  endfacet
  facet normal 1 0 0
    outer loop
      vertex 18.25 18.25 8.9
      vertex 18.25 10.0375 5.4
      vertex 18.25 18.25 -8.9
    endloop
  endfacet
  facet normal 1 -0 0
    outer loop
      vertex 18.25 -10.0375 5.4
      vertex 18.25 18.25 -8.9
      vertex 18.25 10.0375 5.4
    endloop
  endfacet
  facet normal 1 0 0
    outer loop
      vertex 18.25 -18.25 -8.9
      vertex 18.25 -10.0375 5.4
      vertex 18.25 -18.25 8.9
    endloop
  endfacet
  facet normal 1 0 0
    outer loop
      vertex 18.25 -10.0375 5.4
      vertex 18.25 -18.25 -8.9
      vertex 18.25 18.25 -8.9
    endloop
  endfacet
  facet normal 0 0 1
    outer loop
      vertex -10.0375 18.25 8.9
      vertex -15.25 15.25 8.9
      vertex -10.0375 15.25 8.9
    endloop
  endfacet
  facet normal -0 0 1
    outer loop
      vertex -18.25 18.25 8.9
      vertex -15.25 15.25 8.9
      vertex -10.0375 18.25 8.9
    endloop
  endfacet
  facet normal 0 0 1
    outer loop
      vertex -18.25 10.0375 8.9
      vertex -15.25 15.25 8.9
      vertex -18.25 18.25 8.9
    endloop
  endfacet
  facet normal 0 0 1
    outer loop
      vertex -15.25 15.25 8.9
      vertex -18.25 10.0375 8.9
      vertex -15.25 10.0375 8.9
    endloop
  endfacet
  facet normal 0 0 1
    outer loop
      vertex 18.25 18.25 8.9
      vertex 15.25 15.25 8.9
      vertex 18.25 10.0375 8.9
    endloop
  endfacet
  facet normal -0 0 1
    outer loop
      vertex 10.0375 18.25 8.9
      vertex 15.25 15.25 8.9
      vertex 18.25 18.25 8.9
    endloop
  endfacet
  facet normal 0 0 1
    outer loop
      vertex 15.25 15.25 8.9
      vertex 10.0375 18.25 8.9
      vertex 10.0375 15.25 8.9
    endloop
  endfacet
  facet normal 0 0 1
    outer loop
      vertex 18.25 10.0375 8.9
      vertex 15.25 15.25 8.9
      vertex 15.25 10.0375 8.9
    endloop
  endfacet
  facet normal 0 0 1
    outer loop
      vertex -15.25 -10.0375 8.9
      vertex -18.25 -10.0375 8.9
      vertex -15.25 -15.25 8.9
    endloop
  endfacet
  facet normal -0 0 1
    outer loop
      vertex -15.25 -15.25 8.9
      vertex -10.0375 -18.25 8.9
      vertex -10.0375 -15.25 8.9
    endloop
  endfacet
  facet normal 0 0 1
    outer loop
      vertex -15.25 -15.25 8.9
      vertex -18.25 -18.25 8.9
      vertex -10.0375 -18.25 8.9
    endloop
  endfacet
  facet normal 0 0 1
    outer loop
      vertex -18.25 -18.25 8.9
      vertex -15.25 -15.25 8.9
      vertex -18.25 -10.0375 8.9
    endloop
  endfacet
  facet normal 0 0 1
    outer loop
      vertex 15.25 -15.25 8.9
      vertex 18.25 -10.0375 8.9
      vertex 15.25 -10.0375 8.9
    endloop
  endfacet
  facet normal 0 0 1
    outer loop
      vertex 18.25 -10.0375 8.9
      vertex 15.25 -15.25 8.9
      vertex 18.25 -18.25 8.9
    endloop
  endfacet
  facet normal 0 0 1
    outer loop
      vertex 10.0375 -18.25 8.9
      vertex 15.25 -15.25 8.9
      vertex 10.0375 -15.25 8.9
    endloop
  endfacet
  facet normal 0 0 1
    outer loop
      vertex 15.25 -15.25 8.9
      vertex 10.0375 -18.25 8.9
      vertex 18.25 -18.25 8.9
    endloop
  endfacet
  facet normal 0 0 -1
    outer loop
      vertex 18.25 -18.25 -8.9
      vertex 14.65 -14.65 -8.9
      vertex 18.25 18.25 -8.9
    endloop
  endfacet
  facet normal 0 0 -1
    outer loop
      vertex 18.25 -18.25 -8.9
      vertex -14.65 -14.65 -8.9
      vertex 14.65 -14.65 -8.9
    endloop
  endfacet
  facet normal -0 0 -1
    outer loop
      vertex -14.65 -14.65 -8.9
      vertex -18.25 -18.25 -8.9
      vertex -14.65 14.65 -8.9
    endloop
  endfacet
  facet normal 0 0 -1
    outer loop
      vertex -18.25 -18.25 -8.9
      vertex -14.65 -14.65 -8.9
      vertex 18.25 -18.25 -8.9
    endloop
  endfacet
  facet normal 0 0 -1
    outer loop
      vertex 14.65 14.65 -8.9
      vertex 18.25 18.25 -8.9
      vertex 14.65 -14.65 -8.9
    endloop
  endfacet
  facet normal 0 0 -1
    outer loop
      vertex -14.65 14.65 -8.9
      vertex 18.25 18.25 -8.9
      vertex 14.65 14.65 -8.9
    endloop
  endfacet
  facet normal 0 0 -1
    outer loop
      vertex -14.65 14.65 -8.9
      vertex -18.25 18.25 -8.9
      vertex 18.25 18.25 -8.9
    endloop
  endfacet
  facet normal 0 0 -1
    outer loop
      vertex -18.25 18.25 -8.9
      vertex -14.65 14.65 -8.9
      vertex -18.25 -18.25 -8.9
    endloop
  endfacet
  facet normal -1 0 0
    outer loop
      vertex -18.25 18.25 -8.9
      vertex -18.25 10.0375 5.4
      vertex -18.25 18.25 8.9
    endloop
  endfacet
  facet normal -1 0 0
    outer loop
      vertex -18.25 18.25 -8.9
      vertex -18.25 -10.0375 5.4
      vertex -18.25 10.0375 5.4
    endloop
  endfacet
  facet normal -1 0 0
    outer loop
      vertex -18.25 -18.25 -8.9
      vertex -18.25 -10.0375 5.4
      vertex -18.25 18.25 -8.9
    endloop
  endfacet
  facet normal -1 0 0
    outer loop
      vertex -18.25 -18.25 8.9
      vertex -18.25 -10.0375 5.4
      vertex -18.25 -18.25 -8.9
    endloop
  endfacet
  facet normal -1 0 0
    outer loop
      vertex -18.25 -10.0375 5.4
      vertex -18.25 -18.25 8.9
      vertex -18.25 -10.0375 8.9
    endloop
  endfacet
  facet normal -1 -0 0
    outer loop
      vertex -18.25 18.25 8.9
      vertex -18.25 10.0375 5.4
      vertex -18.25 10.0375 8.9
    endloop
  endfacet
  facet normal 0 1 0
    outer loop
      vertex 18.25 18.25 8.9
      vertex 10.0375 18.25 5.4
      vertex 10.0375 18.25 8.9
    endloop
  endfacet
  facet normal 0 1 0
    outer loop
      vertex 10.0375 18.25 5.4
      vertex 18.25 18.25 -8.9
      vertex -10.0375 18.25 5.4
    endloop
  endfacet
  facet normal 0 1 -0
    outer loop
      vertex 18.25 18.25 -8.9
      vertex 10.0375 18.25 5.4
      vertex 18.25 18.25 8.9
    endloop
  endfacet
  facet normal 0 1 -0
    outer loop
      vertex -10.0375 18.25 5.4
      vertex -18.25 18.25 8.9
      vertex -10.0375 18.25 8.9
    endloop
  endfacet
  facet normal 0 1 0
    outer loop
      vertex -18.25 18.25 -8.9
      vertex -10.0375 18.25 5.4
      vertex 18.25 18.25 -8.9
    endloop
  endfacet
  facet normal 0 1 0
    outer loop
      vertex -10.0375 18.25 5.4
      vertex -18.25 18.25 -8.9
      vertex -18.25 18.25 8.9
    endloop
  endfacet
  facet normal 0 -1 0
    outer loop
      vertex -18.25 -18.25 8.9
      vertex -10.0375 -18.25 5.4
      vertex -10.0375 -18.25 8.9
    endloop
  endfacet
  facet normal 0 -1 -0
    outer loop
      vertex -10.0375 -18.25 5.4
      vertex -18.25 -18.25 -8.9
      vertex 10.0375 -18.25 5.4
    endloop
  endfacet
  facet normal 0 -1 0
    outer loop
      vertex -18.25 -18.25 -8.9
      vertex -10.0375 -18.25 5.4
      vertex -18.25 -18.25 8.9
    endloop
  endfacet
  facet normal 0 -1 0
    outer loop
      vertex 10.0375 -18.25 5.4
      vertex 18.25 -18.25 8.9
      vertex 10.0375 -18.25 8.9
    endloop
  endfacet
  facet normal 0 -1 0
    outer loop
      vertex 18.25 -18.25 -8.9
      vertex 10.0375 -18.25 5.4
      vertex -18.25 -18.25 -8.9
    endloop
  endfacet
  facet normal 0 -1 0
    outer loop
      vertex 10.0375 -18.25 5.4
      vertex 18.25 -18.25 -8.9
      vertex 18.25 -18.25 8.9
    endloop
  endfacet
  facet normal -1 0 0
    outer loop
      vertex 14.65 -14.65 -8.9
      vertex 14.65 14.65 -7.9
      vertex 14.65 14.65 -8.9
    endloop
  endfacet
  facet normal -1 -0 0
    outer loop
      vertex 14.65 14.65 -7.9
      vertex 14.65 -14.65 -8.9
      vertex 14.65 -14.65 -7.9
    endloop
  endfacet
  facet normal 1 -0 0
    outer loop
      vertex -14.65 -14.65 -7.9
      vertex -14.65 14.65 -8.9
      vertex -14.65 14.65 -7.9
    endloop
  endfacet
  facet normal 1 0 0
    outer loop
      vertex -14.65 14.65 -8.9
      vertex -14.65 -14.65 -7.9
      vertex -14.65 -14.65 -8.9
    endloop
  endfacet
  facet normal 0 -1 0
    outer loop
      vertex -14.65 14.65 -8.9
      vertex 14.65 14.65 -7.9
      vertex -14.65 14.65 -7.9
    endloop
  endfacet
  facet normal 0 -1 -0
    outer loop
      vertex 14.65 14.65 -7.9
      vertex -14.65 14.65 -8.9
      vertex 14.65 14.65 -8.9
    endloop
  endfacet
  facet normal 0 1 -0
    outer loop
      vertex 14.65 -14.65 -8.9
      vertex -14.65 -14.65 -7.9
      vertex 14.65 -14.65 -7.9
    endloop
  endfacet
  facet normal 0 1 0
    outer loop
      vertex -14.65 -14.65 -7.9
      vertex 14.65 -14.65 -8.9
      vertex -14.65 -14.65 -8.9
    endloop
  endfacet
  facet normal -1 0 0
    outer loop
      vertex 10.0375 15.25 8.9
      vertex 10.0375 18.25 5.4
      vertex 10.0375 15.25 -0.799994
    endloop
  endfacet
  facet normal -1 0 0
    outer loop
      vertex 10.0375 18.25 5.4
      vertex 10.0375 15.25 8.9
      vertex 10.0375 18.25 8.9
    endloop
  endfacet
  facet normal 1 -0 0
    outer loop
      vertex -10.0375 15.25 8.9
      vertex -10.0375 18.25 5.4
      vertex -10.0375 18.25 8.9
    endloop
  endfacet
  facet normal 1 0 0
    outer loop
      vertex -10.0375 18.25 5.4
      vertex -10.0375 15.25 8.9
      vertex -10.0375 15.25 -0.799996
    endloop
  endfacet
  facet normal 0 -0.900159 0.435561
    outer loop
      vertex 10.0375 18.25 5.4
      vertex -10.0375 18.25 5.4
      vertex -10.0375 15.25 -0.799996
    endloop
  endfacet
  facet normal -4.26764e-08 -0.900159 0.435561
    outer loop
      vertex 10.0375 15.25 -0.799994
      vertex 10.0375 18.25 5.4
      vertex -10.0375 15.25 -0.799996
    endloop
  endfacet
  facet normal 0 1 0
    outer loop
      vertex -15.25 -10.0375 8.9
      vertex -18.25 -10.0375 5.4
      vertex -18.25 -10.0375 8.9
    endloop
  endfacet
  facet normal -0 1 0
    outer loop
      vertex -18.25 -10.0375 5.4
      vertex -15.25 -10.0375 8.9
      vertex -15.25 -10.0375 -0.799996
    endloop
  endfacet
  facet normal 0 -1 0
    outer loop
      vertex -18.25 10.0375 5.4
      vertex -15.25 10.0375 8.9
      vertex -18.25 10.0375 8.9
    endloop
  endfacet
  facet normal 0 -1 -0
    outer loop
      vertex -15.25 10.0375 8.9
      vertex -18.25 10.0375 5.4
      vertex -15.25 10.0375 -0.799994
    endloop
  endfacet
  facet normal 0.900159 -0 0.435561
    outer loop
      vertex -18.25 -10.0375 5.4
      vertex -15.25 10.0375 -0.799994
      vertex -18.25 10.0375 5.4
    endloop
  endfacet
  facet normal 0.900159 -4.26764e-08 0.435561
    outer loop
      vertex -15.25 10.0375 -0.799994
      vertex -18.25 -10.0375 5.4
      vertex -15.25 -10.0375 -0.799996
    endloop
  endfacet
  facet normal 1 0 0
    outer loop
      vertex -10.0375 -18.25 5.4
      vertex -10.0375 -15.25 8.9
      vertex -10.0375 -18.25 8.9
    endloop
  endfacet
  facet normal 1 0 0
    outer loop
      vertex -10.0375 -15.25 8.9
      vertex -10.0375 -18.25 5.4
      vertex -10.0375 -15.25 -0.799996
    endloop
  endfacet
  facet normal -1 0 0
    outer loop
      vertex 10.0375 -18.25 5.4
      vertex 10.0375 -15.25 8.9
      vertex 10.0375 -15.25 -0.799996
    endloop
  endfacet
  facet normal -1 -0 0
    outer loop
      vertex 10.0375 -15.25 8.9
      vertex 10.0375 -18.25 5.4
      vertex 10.0375 -18.25 8.9
    endloop
  endfacet
  facet normal 0 0.900159 0.435561
    outer loop
      vertex 10.0375 -15.25 -0.799996
      vertex -10.0375 -18.25 5.4
      vertex 10.0375 -18.25 5.4
    endloop
  endfacet
  facet normal 0 0.900159 0.435561
    outer loop
      vertex -10.0375 -18.25 5.4
      vertex 10.0375 -15.25 -0.799996
      vertex -10.0375 -15.25 -0.799996
    endloop
  endfacet
  facet normal 0 1 -0
    outer loop
      vertex 18.25 -10.0375 5.4
      vertex 15.25 -10.0375 8.9
      vertex 18.25 -10.0375 8.9
    endloop
  endfacet
  facet normal 0 1 0
    outer loop
      vertex 15.25 -10.0375 8.9
      vertex 18.25 -10.0375 5.4
      vertex 15.25 -10.0375 -0.799994
    endloop
  endfacet
  facet normal 0 -1 0
    outer loop
      vertex 15.25 10.0375 8.9
      vertex 18.25 10.0375 5.4
      vertex 18.25 10.0375 8.9
    endloop
  endfacet
  facet normal -0 -1 0
    outer loop
      vertex 18.25 10.0375 5.4
      vertex 15.25 10.0375 8.9
      vertex 15.25 10.0375 -0.799996
    endloop
  endfacet
  facet normal -0.900159 4.26764e-08 0.435561
    outer loop
      vertex 15.25 -10.0375 -0.799994
      vertex 18.25 10.0375 5.4
      vertex 15.25 10.0375 -0.799996
    endloop
  endfacet
  facet normal -0.900159 0 0.435561
    outer loop
      vertex 18.25 10.0375 5.4
      vertex 15.25 -10.0375 -0.799994
      vertex 18.25 -10.0375 5.4
    endloop
  endfacet
endsolid OpenSCAD_Model
