solid OpenSCAD_Model
  facet normal 1 -0 0
    outer loop
      vertex 12.9 -7.5 3
      vertex 12.9 7.5 -3
      vertex 12.9 7.5 3
    endloop
  endfacet
  facet normal 1 0 0
    outer loop
      vertex 12.9 7.5 -3
      vertex 12.9 -7.5 3
      vertex 12.9 -7.5 -3
    endloop
  endfacet
  facet normal 0 1 0
    outer loop
      vertex 12.9 7.5 3
      vertex 9.9 7.5 1.66533e-15
      vertex 9.9 7.5 3
    endloop
  endfacet
  facet normal 0 1 0
    outer loop
      vertex 9.9 7.5 1.66533e-15
      vertex 12.9 7.5 -3
      vertex -9.9 7.5 1.66533e-15
    endloop
  endfacet
  facet normal 0 1 -0
    outer loop
      vertex 12.9 7.5 -3
      vertex 9.9 7.5 1.66533e-15
      vertex 12.9 7.5 3
    endloop
  endfacet
  facet normal 0 1 -0
    outer loop
      vertex -9.9 7.5 1.66533e-15
      vertex -12.9 7.5 3
      vertex -9.9 7.5 3
    endloop
  endfacet
  facet normal 0 1 0
    outer loop
      vertex -9.9 7.5 1.66533e-15
      vertex -12.9 7.5 -3
      vertex -12.9 7.5 3
    endloop
  endfacet
  facet normal 0 1 0
    outer loop
      vertex -12.9 7.5 -3
      vertex -9.9 7.5 1.66533e-15
      vertex 12.9 7.5 -3
    endloop
  endfacet
  facet normal 0 -1 0
    outer loop
      vertex -12.9 -7.5 3
      vertex -9.9 -7.5 -1.66533e-15
      vertex -9.9 -7.5 3
    endloop
  endfacet
  facet normal 0 -1 -0
    outer loop
      vertex -9.9 -7.5 -1.66533e-15
      vertex -12.9 -7.5 -3
      vertex 9.9 -7.5 -1.66533e-15
    endloop
  endfacet
  facet normal 0 -1 0
    outer loop
      vertex -12.9 -7.5 -3
      vertex -9.9 -7.5 -1.66533e-15
      vertex -12.9 -7.5 3
    endloop
  endfacet
  facet normal 0 -1 0
    outer loop
      vertex 9.9 -7.5 -1.66533e-15
      vertex 12.9 -7.5 3
      vertex 9.9 -7.5 3
    endloop
  endfacet
  facet normal 0 -1 0
    outer loop
      vertex 9.9 -7.5 -1.66533e-15
      vertex 12.9 -7.5 -3
      vertex 12.9 -7.5 3
    endloop
  endfacet
  facet normal 0 -1 0
    outer loop
      vertex 12.9 -7.5 -3
      vertex 9.9 -7.5 -1.66533e-15
      vertex -12.9 -7.5 -3
    endloop
  endfacet
  facet normal -1 0 0
    outer loop
      vertex -12.9 -7.5 -3
      vertex -12.9 7.5 3
      vertex -12.9 7.5 -3
    endloop
  endfacet
  facet normal -1 -0 0
    outer loop
      vertex -12.9 7.5 3
      vertex -12.9 -7.5 -3
      vertex -12.9 -7.5 3
    endloop
  endfacet
  facet normal 0 0 -1
    outer loop
      vertex -12.9 -7.5 -3
      vertex 12.9 7.5 -3
      vertex 12.9 -7.5 -3
    endloop
  endfacet
  facet normal -0 0 -1
    outer loop
      vertex 12.9 7.5 -3
      vertex -12.9 -7.5 -3
      vertex -12.9 7.5 -3
    endloop
  endfacet
  facet normal -0 0 1
    outer loop
      vertex -12.9 7.5 3
      vertex -9.9 -7.5 3
      vertex -9.9 7.5 3
    endloop
  endfacet
  facet normal 0 0 1
    outer loop
      vertex -9.9 -7.5 3
      vertex -12.9 7.5 3
      vertex -12.9 -7.5 3
    endloop
  endfacet
  facet normal -0 0 1
    outer loop
      vertex 9.9 7.5 3
      vertex 12.9 -7.5 3
      vertex 12.9 7.5 3
    endloop
  endfacet
  facet normal 0 0 1
    outer loop
      vertex 12.9 -7.5 3
      vertex 9.9 7.5 3
      vertex 9.9 -7.5 3
    endloop
  endfacet
  facet normal -1 0 0
    outer loop
      vertex 9.9 -7.5 -1.66533e-15
      vertex 9.9 7.5 3
      vertex 9.9 7.5 1.66533e-15
    endloop
  endfacet
  facet normal -1 -0 0
    outer loop
      vertex 9.9 7.5 3
      vertex 9.9 -7.5 -1.66533e-15
      vertex 9.9 -7.5 3
    endloop
  endfacet
  facet normal 1 -0 0
    outer loop
      vertex -9.9 -7.5 3
      vertex -9.9 7.5 1.66533e-15
      vertex -9.9 7.5 3
    endloop
  endfacet
  facet normal 1 0 0
    outer loop
      vertex -9.9 7.5 1.66533e-15
      vertex -9.9 -7.5 3
      vertex -9.9 -7.5 -1.66533e-15
    endloop
  endfacet
  facet normal 0 -2.22045e-16 1
    outer loop
      vertex -9.9 7.5 1.66533e-15
      vertex 9.9 -7.5 -1.66533e-15
      vertex 9.9 7.5 1.66533e-15
    endloop
  endfacet
  facet normal 0 -2.22045e-16 1
    outer loop
      vertex 9.9 -7.5 -1.66533e-15
      vertex -9.9 7.5 1.66533e-15
      vertex -9.9 -7.5 -1.66533e-15
    endloop
  endfacet
endsolid OpenSCAD_Model
