  0
SECTION
  2
HEADER
  9
$ANGBASE
  50
0.0
  9
$ANGDIR
  70
  1
  9
$MEASUREMENT
  70
0
  0
ENDSEC
  0
SECTION
  2
TABLES
  0
TABLE
  2
LTYPE
  70
1
  0
LTYPE
  2
CONTINUOUS
  70
0
  3
Solid line
  72
65
  73
0
  40
0.0
  0
ENDTAB
  0
TABLE
  2
STYLE
  70
4
  0
STYLE
  2
KICAD
  70
0
  40
0
  41
1
  42
1
  50
0
  71
0
  3
isocp.shx
  0
STYLE
  2
KICADB
  70
0
  40
0
  41
1
  42
1
  50
0
  71
0
  3
isocp.shx
  0
STYLE
  2
KICADI
  70
0
  40
0
  41
1
  42
1
  50
15
  71
0
  3
isocp.shx
  0
STYLE
  2
KICADBI
  70
0
  40
0
  41
1
  42
1
  50
15
  71
0
  3
isocp.shx
  0
ENDTAB
  0
TABLE
  2
LAYER
  70
30
  0
LAYER
  2
BLACK
  70
0
  62
7
  6
CONTINUOUS
  0
LAYER
  2
GRAY1
  70
0
  62
251
  6
CONTINUOUS
  0
LAYER
  2
GRAY2
  70
0
  62
8
  6
CONTINUOUS
  0
LAYER
  2
GRAY3
  70
0
  62
9
  6
CONTINUOUS
  0
LAYER
  2
WHITE
  70
0
  62
7
  6
CONTINUOUS
  0
LAYER
  2
LYELLOW
  70
0
  62
51
  6
CONTINUOUS
  0
LAYER
  2
BLUE1
  70
0
  62
178
  6
CONTINUOUS
  0
LAYER
  2
GREEN1
  70
0
  62
98
  6
CONTINUOUS
  0
LAYER
  2
CYAN1
  70
0
  62
138
  6
CONTINUOUS
  0
LAYER
  2
RED1
  70
0
  62
18
  6
CONTINUOUS
  0
LAYER
  2
MAGENTA1
  70
0
  62
228
  6
CONTINUOUS
  0
LAYER
  2
BROWN1
  70
0
  62
58
  6
CONTINUOUS
  0
LAYER
  2
BLUE2
  70
0
  62
5
  6
CONTINUOUS
  0
LAYER
  2
GREEN2
  70
0
  62
3
  6
CONTINUOUS
  0
LAYER
  2
CYAN2
  70
0
  62
4
  6
CONTINUOUS
  0
LAYER
  2
RED2
  70
0
  62
1
  6
CONTINUOUS
  0
LAYER
  2
MAGENTA2
  70
0
  62
6
  6
CONTINUOUS
  0
LAYER
  2
BROWN2
  70
0
  62
54
  6
CONTINUOUS
  0
LAYER
  2
BLUE3
  70
0
  62
171
  6
CONTINUOUS
  0
LAYER
  2
GREEN3
  70
0
  62
91
  6
CONTINUOUS
  0
LAYER
  2
CYAN3
  70
0
  62
131
  6
CONTINUOUS
  0
LAYER
  2
RED3
  70
0
  62
11
  6
CONTINUOUS
  0
LAYER
  2
MAGENTA3
  70
0
  62
221
  6
CONTINUOUS
  0
LAYER
  2
YELLOW3
  70
0
  62
2
  6
CONTINUOUS
  0
LAYER
  2
BLUE4
  70
0
  62
5
  6
CONTINUOUS
  0
LAYER
  2
GREEN4
  70
0
  62
3
  6
CONTINUOUS
  0
LAYER
  2
CYAN4
  70
0
  62
4
  6
CONTINUOUS
  0
LAYER
  2
RED4
  70
0
  62
1
  6
CONTINUOUS
  0
LAYER
  2
MAGENTA4
  70
0
  62
6
  6
CONTINUOUS
  0
LAYER
  2
YELLOW4
  70
0
  62
2
  6
CONTINUOUS
  0
ENDTAB
  0
ENDSEC
  0
SECTION
  2
ENTITIES
0
LINE
8
Black
10
12.103
20
3.88298
11
12.1936
21
3.83069
0
LINE
8
Black
10
12.1936
20
3.83069
11
12.2608
21
3.75057
0
LINE
8
Black
10
12.2608
20
3.75057
11
12.2806
21
3.6962
0
LINE
8
Black
10
12.2806
20
3.6962
11
15.2414
21
3.65599
0
LINE
8
Black
10
15.2414
20
3.65599
11
15.245
21
3.65529
0
LINE
8
Black
10
15.245
20
3.65529
11
15.2487
21
3.65562
0
LINE
8
Black
10
15.2487
20
3.65562
11
15.262
21
3.65206
0
LINE
8
Black
10
15.262
20
3.65206
11
15.2755
21
3.6495
0
LINE
8
Black
10
15.2755
20
3.6495
11
15.2787
21
3.64759
0
LINE
8
Black
10
15.2787
20
3.64759
11
15.2823
21
3.64663
0
LINE
8
Black
10
15.2823
20
3.64663
11
15.2935
21
3.63875
0
LINE
8
Black
10
15.2935
20
3.63875
11
15.3053
21
3.63172
0
LINE
8
Black
10
15.3053
20
3.63172
11
15.3077
21
3.62884
0
LINE
8
Black
10
15.3077
20
3.62884
11
15.3107
21
3.62671
0
LINE
8
Black
10
15.3107
20
3.62671
11
15.5647
21
3.37271
0
LINE
8
Black
10
15.5647
20
3.37271
11
15.5672
21
3.36911
0
LINE
8
Black
10
15.5672
20
3.36911
11
15.5706
21
3.36628
0
LINE
8
Black
10
15.5706
20
3.36628
11
15.5771
21
3.35496
0
LINE
8
Black
10
15.5771
20
3.35496
11
15.5846
21
3.34426
0
LINE
8
Black
10
15.5846
20
3.34426
11
15.5858
21
3.34001
0
LINE
8
Black
10
15.5858
20
3.34001
11
15.588
21
3.3362
0
LINE
8
Black
10
15.588
20
3.3362
11
15.5902
21
3.32333
0
LINE
8
Black
10
15.5902
20
3.32333
11
15.5936
21
3.31071
0
LINE
8
Black
10
15.5936
20
3.31071
11
15.5932
21
3.30633
0
LINE
8
Black
10
15.5932
20
3.30633
11
15.594
21
3.302
0
LINE
8
Black
10
15.594
20
3.302
11
15.594
21
1.04551
0
LINE
8
Black
10
15.594
20
1.04551
11
15.597
21
1.04499
0
LINE
8
Black
10
15.597
20
1.04499
11
15.6876
21
0.992691
0
LINE
8
Black
10
15.6876
20
0.992691
11
15.7548
21
0.912573
0
LINE
8
Black
10
15.7548
20
0.912573
11
15.7906
21
0.814293
0
LINE
8
Black
10
15.7906
20
0.814293
11
15.7906
21
0.709707
0
LINE
8
Black
10
15.7906
20
0.709707
11
15.7548
21
0.611427
0
LINE
8
Black
10
15.7548
20
0.611427
11
15.6876
21
0.531309
0
LINE
8
Black
10
15.6876
20
0.531309
11
15.597
21
0.479015
0
LINE
8
Black
10
15.597
20
0.479015
11
15.494
21
0.460854
0
LINE
8
Black
10
15.494
20
0.460854
11
15.391
21
0.479015
0
LINE
8
Black
10
15.391
20
0.479015
11
15.3004
21
0.531309
0
LINE
8
Black
10
15.3004
20
0.531309
11
15.2332
21
0.611427
0
LINE
8
Black
10
15.2332
20
0.611427
11
15.1974
21
0.709707
0
LINE
8
Black
10
15.1974
20
0.709707
11
15.1974
21
0.814293
0
LINE
8
Black
10
15.1974
20
0.814293
11
15.2332
21
0.912573
0
LINE
8
Black
10
15.2332
20
0.912573
11
15.3004
21
0.992691
0
LINE
8
Black
10
15.3004
20
0.992691
11
15.391
21
1.04499
0
LINE
8
Black
10
15.391
20
1.04499
11
15.394
21
1.04551
0
LINE
8
Black
10
15.394
20
1.04551
11
15.394
21
3.26058
0
LINE
8
Black
10
15.394
20
3.26058
11
15.198
21
3.45656
0
LINE
8
Black
10
15.198
20
3.45656
11
12.2778
21
3.49622
0
LINE
8
Black
10
12.2778
20
3.49622
11
12.2608
21
3.44943
0
LINE
8
Black
10
12.2608
20
3.44943
11
12.1936
21
3.36931
0
LINE
8
Black
10
12.1936
20
3.36931
11
12.103
21
3.31702
0
LINE
8
Black
10
12.103
20
3.31702
11
12
21
3.29885
0
LINE
8
Black
10
12
20
3.29885
11
11.897
21
3.31702
0
LINE
8
Black
10
11.897
20
3.31702
11
11.8064
21
3.36931
0
LINE
8
Black
10
11.8064
20
3.36931
11
11.7392
21
3.44943
0
LINE
8
Black
10
11.7392
20
3.44943
11
11.7034
21
3.54771
0
LINE
8
Black
10
11.7034
20
3.54771
11
11.7034
21
3.65229
0
LINE
8
Black
10
11.7034
20
3.65229
11
11.7392
21
3.75057
0
LINE
8
Black
10
11.7392
20
3.75057
11
11.8064
21
3.83069
0
LINE
8
Black
10
11.8064
20
3.83069
11
11.897
21
3.88298
0
LINE
8
Black
10
11.897
20
3.88298
11
12
21
3.90115
0
LINE
8
Black
10
12
20
3.90115
11
12.103
21
3.88298
0
LINE
8
Black
10
5.803
20
8.78299
11
5.89357
21
8.73069
0
LINE
8
Black
10
5.89357
20
8.73069
11
5.9608
21
8.65057
0
LINE
8
Black
10
5.9608
20
8.65057
11
5.99657
21
8.55229
0
LINE
8
Black
10
5.99657
20
8.55229
11
5.99657
21
8.44771
0
LINE
8
Black
10
5.99657
20
8.44771
11
5.9608
21
8.34943
0
LINE
8
Black
10
5.9608
20
8.34943
11
5.89357
21
8.26931
0
LINE
8
Black
10
5.89357
20
8.26931
11
5.803
21
8.21701
0
LINE
8
Black
10
5.803
20
8.21701
11
5.7
21
8.19885
0
LINE
8
Black
10
5.7
20
8.19885
11
5.597
21
8.21701
0
LINE
8
Black
10
5.597
20
8.21701
11
5.57255
21
8.23113
0
LINE
8
Black
10
5.57255
20
8.23113
11
4.926
21
7.58458
0
LINE
8
Black
10
4.926
20
7.58458
11
4.926
21
1.81942
0
LINE
8
Black
10
4.926
20
1.81942
11
5.12142
21
1.624
0
LINE
8
Black
10
5.12142
20
1.624
11
12.4883
21
1.624
0
LINE
8
Black
10
12.4883
20
1.624
11
13.221
21
2.35671
0
LINE
8
Black
10
13.221
20
2.35671
11
13.2246
21
2.35923
0
LINE
8
Black
10
13.2246
20
2.35923
11
13.2275
21
2.3626
0
LINE
8
Black
10
13.2275
20
2.3626
11
13.2388
21
2.36914
0
LINE
8
Black
10
13.2388
20
2.36914
11
13.2495
21
2.37663
0
LINE
8
Black
10
13.2495
20
2.37663
11
13.2537
21
2.37777
0
LINE
8
Black
10
13.2537
20
2.37777
11
13.2575
21
2.37997
0
LINE
8
Black
10
13.2575
20
2.37997
11
13.2704
21
2.38224
0
LINE
8
Black
10
13.2704
20
2.38224
11
13.283
21
2.38562
0
LINE
8
Black
10
13.283
20
2.38562
11
13.2874
21
2.38524
0
LINE
8
Black
10
13.2874
20
2.38524
11
13.2917
21
2.386
0
LINE
8
Black
10
13.2917
20
2.386
11
13.4368
21
2.386
0
LINE
8
Black
10
13.4368
20
2.386
11
13.4552
21
2.43657
0
LINE
8
Black
10
13.4552
20
2.43657
11
13.5224
21
2.51669
0
LINE
8
Black
10
13.5224
20
2.51669
11
13.613
21
2.56899
0
LINE
8
Black
10
13.613
20
2.56899
11
13.716
21
2.58715
0
LINE
8
Black
10
13.716
20
2.58715
11
13.819
21
2.56899
0
LINE
8
Black
10
13.819
20
2.56899
11
13.9096
21
2.51669
0
LINE
8
Black
10
13.9096
20
2.51669
11
13.9768
21
2.43657
0
LINE
8
Black
10
13.9768
20
2.43657
11
14.0126
21
2.33829
0
LINE
8
Black
10
14.0126
20
2.33829
11
14.0126
21
2.23371
0
LINE
8
Black
10
14.0126
20
2.23371
11
13.9768
21
2.13543
0
LINE
8
Black
10
13.9768
20
2.13543
11
13.9096
21
2.05531
0
LINE
8
Black
10
13.9096
20
2.05531
11
13.819
21
2.00301
0
LINE
8
Black
10
13.819
20
2.00301
11
13.716
21
1.98485
0
LINE
8
Black
10
13.716
20
1.98485
11
13.613
21
2.00301
0
LINE
8
Black
10
13.613
20
2.00301
11
13.5224
21
2.05531
0
LINE
8
Black
10
13.5224
20
2.05531
11
13.4552
21
2.13543
0
LINE
8
Black
10
13.4552
20
2.13543
11
13.4368
21
2.186
0
LINE
8
Black
10
13.4368
20
2.186
11
13.3332
21
2.186
0
LINE
8
Black
10
13.3332
20
2.186
11
12.6004
21
1.45329
0
LINE
8
Black
10
12.6004
20
1.45329
11
12.5968
21
1.45076
0
LINE
8
Black
10
12.5968
20
1.45076
11
12.594
21
1.4474
0
LINE
8
Black
10
12.594
20
1.4474
11
12.5827
21
1.44087
0
LINE
8
Black
10
12.5827
20
1.44087
11
12.572
21
1.43337
0
LINE
8
Black
10
12.572
20
1.43337
11
12.5677
21
1.43223
0
LINE
8
Black
10
12.5677
20
1.43223
11
12.5639
21
1.43003
0
LINE
8
Black
10
12.5639
20
1.43003
11
12.5511
21
1.42776
0
LINE
8
Black
10
12.5511
20
1.42776
11
12.5385
21
1.42438
0
LINE
8
Black
10
12.5385
20
1.42438
11
12.5341
21
1.42476
0
LINE
8
Black
10
12.5341
20
1.42476
11
12.5297
21
1.424
0
LINE
8
Black
10
12.5297
20
1.424
11
5.08
21
1.424
0
LINE
8
Black
10
5.08
20
1.424
11
5.07567
21
1.42476
0
LINE
8
Black
10
5.07567
20
1.42476
11
5.07128
21
1.42438
0
LINE
8
Black
10
5.07128
20
1.42438
11
5.05867
21
1.42776
0
LINE
8
Black
10
5.05867
20
1.42776
11
5.0458
21
1.43003
0
LINE
8
Black
10
5.0458
20
1.43003
11
5.04199
21
1.43223
0
LINE
8
Black
10
5.04199
20
1.43223
11
5.03774
21
1.43337
0
LINE
8
Black
10
5.03774
20
1.43337
11
5.02703
21
1.44086
0
LINE
8
Black
10
5.02703
20
1.44086
11
5.01572
21
1.4474
0
LINE
8
Black
10
5.01572
20
1.4474
11
5.01289
21
1.45076
0
LINE
8
Black
10
5.01289
20
1.45076
11
5.00929
21
1.45329
0
LINE
8
Black
10
5.00929
20
1.45329
11
4.75529
21
1.70729
0
LINE
8
Black
10
4.75529
20
1.70729
11
4.75276
21
1.71089
0
LINE
8
Black
10
4.75276
20
1.71089
11
4.7494
21
1.71372
0
LINE
8
Black
10
4.7494
20
1.71372
11
4.74287
21
1.72503
0
LINE
8
Black
10
4.74287
20
1.72503
11
4.73537
21
1.73574
0
LINE
8
Black
10
4.73537
20
1.73574
11
4.73423
21
1.73999
0
LINE
8
Black
10
4.73423
20
1.73999
11
4.73203
21
1.7438
0
LINE
8
Black
10
4.73203
20
1.7438
11
4.72976
21
1.75667
0
LINE
8
Black
10
4.72976
20
1.75667
11
4.72638
21
1.76928
0
LINE
8
Black
10
4.72638
20
1.76928
11
4.72676
21
1.77367
0
LINE
8
Black
10
4.72676
20
1.77367
11
4.726
21
1.778
0
LINE
8
Black
10
4.726
20
1.778
11
4.726
21
7.626
0
LINE
8
Black
10
4.726
20
7.626
11
4.72676
21
7.63033
0
LINE
8
Black
10
4.72676
20
7.63033
11
4.72638
21
7.63471
0
LINE
8
Black
10
4.72638
20
7.63471
11
4.72976
21
7.64733
0
LINE
8
Black
10
4.72976
20
7.64733
11
4.73203
21
7.6602
0
LINE
8
Black
10
4.73203
20
7.6602
11
4.73423
21
7.66401
0
LINE
8
Black
10
4.73423
20
7.66401
11
4.73537
21
7.66826
0
LINE
8
Black
10
4.73537
20
7.66826
11
4.74287
21
7.67897
0
LINE
8
Black
10
4.74287
20
7.67897
11
4.7494
21
7.69028
0
LINE
8
Black
10
4.7494
20
7.69028
11
4.75276
21
7.69311
0
LINE
8
Black
10
4.75276
20
7.69311
11
4.75529
21
7.69671
0
LINE
8
Black
10
4.75529
20
7.69671
11
5.43088
21
8.3723
0
LINE
8
Black
10
5.43088
20
8.3723
11
5.40343
21
8.44771
0
LINE
8
Black
10
5.40343
20
8.44771
11
5.40343
21
8.55229
0
LINE
8
Black
10
5.40343
20
8.55229
11
5.4392
21
8.65057
0
LINE
8
Black
10
5.4392
20
8.65057
11
5.50643
21
8.73069
0
LINE
8
Black
10
5.50643
20
8.73069
11
5.597
21
8.78299
0
LINE
8
Black
10
5.597
20
8.78299
11
5.7
21
8.80115
0
LINE
8
Black
10
5.7
20
8.80115
11
5.803
21
8.78299
0
LINE
8
Black
10
18.103
20
6.28299
11
18.1936
21
6.23069
0
LINE
8
Black
10
18.1936
20
6.23069
11
18.2608
21
6.15057
0
LINE
8
Black
10
18.2608
20
6.15057
11
18.2966
21
6.05229
0
LINE
8
Black
10
18.2966
20
6.05229
11
18.2966
21
5.94771
0
LINE
8
Black
10
18.2966
20
5.94771
11
18.2691
21
5.8723
0
LINE
8
Black
10
18.2691
20
5.8723
11
18.3414
21
5.8
0
LINE
8
Black
10
18.3414
20
5.8
11
24.7
21
5.8
0
LINE
8
Black
10
24.7
20
5.8
11
24.7043
21
5.79924
0
LINE
8
Black
10
24.7043
20
5.79924
11
24.7087
21
5.79962
0
LINE
8
Black
10
24.7087
20
5.79962
11
24.7213
21
5.79624
0
LINE
8
Black
10
24.7213
20
5.79624
11
24.7342
21
5.79397
0
LINE
8
Black
10
24.7342
20
5.79397
11
24.738
21
5.79177
0
LINE
8
Black
10
24.738
20
5.79177
11
24.7423
21
5.79063
0
LINE
8
Black
10
24.7423
20
5.79063
11
24.753
21
5.78313
0
LINE
8
Black
10
24.753
20
5.78313
11
24.7643
21
5.7766
0
LINE
8
Black
10
24.7643
20
5.7766
11
24.7671
21
5.77324
0
LINE
8
Black
10
24.7671
20
5.77324
11
24.7707
21
5.77071
0
LINE
8
Black
10
24.7707
20
5.77071
11
24.7707
21
5.77071
0
LINE
8
Black
10
24.7707
20
5.77071
11
26.2164
21
4.325
0
LINE
8
Black
10
26.2164
20
4.325
11
26.3128
21
4.325
0
LINE
8
Black
10
26.3128
20
4.325
11
26.3182
21
4.32404
0
LINE
8
Black
10
26.3182
20
4.32404
11
26.3237
21
4.32452
0
LINE
8
Black
10
26.3237
20
4.32452
11
26.3394
21
4.3203
0
LINE
8
Black
10
26.3394
20
4.3203
11
26.3555
21
4.31746
0
LINE
8
Black
10
26.3555
20
4.31746
11
26.3603
21
4.31471
0
LINE
8
Black
10
26.3603
20
4.31471
11
26.3656
21
4.31329
0
LINE
8
Black
10
26.3656
20
4.31329
11
26.379
21
4.30392
0
LINE
8
Black
10
26.379
20
4.30392
11
26.3931
21
4.29576
0
LINE
8
Black
10
26.3931
20
4.29576
11
26.3966
21
4.29154
0
LINE
8
Black
10
26.3966
20
4.29154
11
26.4011
21
4.28839
0
LINE
8
Black
10
26.4011
20
4.28839
11
26.8584
21
3.83115
0
LINE
8
Black
10
26.8584
20
3.83115
11
26.8615
21
3.82665
0
LINE
8
Black
10
26.8615
20
3.82665
11
26.8658
21
3.82311
0
LINE
8
Black
10
26.8658
20
3.82311
11
26.8739
21
3.80896
0
LINE
8
Black
10
26.8739
20
3.80896
11
26.8833
21
3.79559
0
LINE
8
Black
10
26.8833
20
3.79559
11
26.8847
21
3.79028
0
LINE
8
Black
10
26.8847
20
3.79028
11
26.8875
21
3.78551
0
LINE
8
Black
10
26.8875
20
3.78551
11
26.8903
21
3.76943
0
LINE
8
Black
10
26.8903
20
3.76943
11
26.8945
21
3.75366
0
LINE
8
Black
10
26.8945
20
3.75366
11
26.894
21
3.74818
0
LINE
8
Black
10
26.894
20
3.74818
11
26.895
21
3.74276
0
LINE
8
Black
10
26.895
20
3.74276
11
26.895
21
2.54028
0
LINE
8
Black
10
26.895
20
2.54028
11
26.9636
21
2.50069
0
LINE
8
Black
10
26.9636
20
2.50069
11
27.0308
21
2.42057
0
LINE
8
Black
10
27.0308
20
2.42057
11
27.0666
21
2.32229
0
LINE
8
Black
10
27.0666
20
2.32229
11
27.0666
21
2.21771
0
LINE
8
Black
10
27.0666
20
2.21771
11
27.0308
21
2.11943
0
LINE
8
Black
10
27.0308
20
2.11943
11
26.9636
21
2.03931
0
LINE
8
Black
10
26.9636
20
2.03931
11
26.873
21
1.98701
0
LINE
8
Black
10
26.873
20
1.98701
11
26.77
21
1.96885
0
LINE
8
Black
10
26.77
20
1.96885
11
26.667
21
1.98701
0
LINE
8
Black
10
26.667
20
1.98701
11
26.5764
21
2.03931
0
LINE
8
Black
10
26.5764
20
2.03931
11
26.5092
21
2.11943
0
LINE
8
Black
10
26.5092
20
2.11943
11
26.4734
21
2.21771
0
LINE
8
Black
10
26.4734
20
2.21771
11
26.4734
21
2.32229
0
LINE
8
Black
10
26.4734
20
2.32229
11
26.5092
21
2.42057
0
LINE
8
Black
10
26.5092
20
2.42057
11
26.5764
21
2.50069
0
LINE
8
Black
10
26.5764
20
2.50069
11
26.645
21
2.54028
0
LINE
8
Black
10
26.645
20
2.54028
11
26.645
21
3.69099
0
LINE
8
Black
10
26.645
20
3.69099
11
26.261
21
4.075
0
LINE
8
Black
10
26.261
20
4.075
11
26.2
21
4.075
0
LINE
8
Black
10
26.2
20
4.075
11
26.1572
21
4.08254
0
LINE
8
Black
10
26.1572
20
4.08254
11
26.1197
21
4.10424
0
LINE
8
Black
10
26.1197
20
4.10424
11
26.0917
21
4.1375
0
LINE
8
Black
10
26.0917
20
4.1375
11
26.0769
21
4.17829
0
LINE
8
Black
10
26.0769
20
4.17829
11
26.0769
21
4.18168
0
LINE
8
Black
10
26.0769
20
4.18168
11
24.6586
21
5.6
0
LINE
8
Black
10
24.6586
20
5.6
11
18.3
21
5.6
0
LINE
8
Black
10
18.3
20
5.6
11
18.2957
21
5.60076
0
LINE
8
Black
10
18.2957
20
5.60076
11
18.2913
21
5.60038
0
LINE
8
Black
10
18.2913
20
5.60038
11
18.2787
21
5.60376
0
LINE
8
Black
10
18.2787
20
5.60376
11
18.2658
21
5.60603
0
LINE
8
Black
10
18.2658
20
5.60603
11
18.262
21
5.60823
0
LINE
8
Black
10
18.262
20
5.60823
11
18.2577
21
5.60937
0
LINE
8
Black
10
18.2577
20
5.60937
11
18.247
21
5.61686
0
LINE
8
Black
10
18.247
20
5.61686
11
18.2357
21
5.6234
0
LINE
8
Black
10
18.2357
20
5.6234
11
18.2329
21
5.62677
0
LINE
8
Black
10
18.2329
20
5.62677
11
18.2293
21
5.62929
0
LINE
8
Black
10
18.2293
20
5.62929
11
18.1274
21
5.73113
0
LINE
8
Black
10
18.1274
20
5.73113
11
18.103
21
5.71701
0
LINE
8
Black
10
18.103
20
5.71701
11
18
21
5.69885
0
LINE
8
Black
10
18
20
5.69885
11
17.897
21
5.71701
0
LINE
8
Black
10
17.897
20
5.71701
11
17.8064
21
5.76931
0
LINE
8
Black
10
17.8064
20
5.76931
11
17.7392
21
5.84943
0
LINE
8
Black
10
17.7392
20
5.84943
11
17.7034
21
5.94771
0
LINE
8
Black
10
17.7034
20
5.94771
11
17.7034
21
6.05229
0
LINE
8
Black
10
17.7034
20
6.05229
11
17.7392
21
6.15057
0
LINE
8
Black
10
17.7392
20
6.15057
11
17.8064
21
6.23069
0
LINE
8
Black
10
17.8064
20
6.23069
11
17.897
21
6.28299
0
LINE
8
Black
10
17.897
20
6.28299
11
18
21
6.30115
0
LINE
8
Black
10
18
20
6.30115
11
18.103
21
6.28299
0
LINE
8
Black
10
8.903
20
5.68298
11
8.99357
21
5.63069
0
LINE
8
Black
10
8.99357
20
5.63069
11
9.0608
21
5.55057
0
LINE
8
Black
10
9.0608
20
5.55057
11
9.09657
21
5.45229
0
LINE
8
Black
10
9.09657
20
5.45229
11
9.09657
21
5.34771
0
LINE
8
Black
10
9.09657
20
5.34771
11
9.06912
21
5.2723
0
LINE
8
Black
10
9.06912
20
5.2723
11
9.17071
21
5.17071
0
LINE
8
Black
10
9.17071
20
5.17071
11
9.17071
21
5.17071
0
LINE
8
Black
10
9.17071
20
5.17071
11
9.37342
21
4.968
0
LINE
8
Black
10
9.37342
20
4.968
11
11.44
21
4.968
0
LINE
8
Black
10
11.44
20
4.968
11
11.4443
21
4.96724
0
LINE
8
Black
10
11.4443
20
4.96724
11
11.4487
21
4.96762
0
LINE
8
Black
10
11.4487
20
4.96762
11
11.4613
21
4.96424
0
LINE
8
Black
10
11.4613
20
4.96424
11
11.4742
21
4.96197
0
LINE
8
Black
10
11.4742
20
4.96197
11
11.478
21
4.95977
0
LINE
8
Black
10
11.478
20
4.95977
11
11.4823
21
4.95863
0
LINE
8
Black
10
11.4823
20
4.95863
11
11.493
21
4.95113
0
LINE
8
Black
10
11.493
20
4.95113
11
11.5043
21
4.94461
0
LINE
8
Black
10
11.5043
20
4.94461
11
11.5071
21
4.94124
0
LINE
8
Black
10
11.5071
20
4.94124
11
11.5107
21
4.93871
0
LINE
8
Black
10
11.5107
20
4.93871
11
11.6814
21
4.76801
0
LINE
8
Black
10
11.6814
20
4.76801
11
22.332
21
4.76801
0
LINE
8
Black
10
22.332
20
4.76801
11
22.3363
21
4.76725
0
LINE
8
Black
10
22.3363
20
4.76725
11
22.3407
21
4.76763
0
LINE
8
Black
10
22.3407
20
4.76763
11
22.3533
21
4.76425
0
LINE
8
Black
10
22.3533
20
4.76425
11
22.3662
21
4.76198
0
LINE
8
Black
10
22.3662
20
4.76198
11
22.37
21
4.75978
0
LINE
8
Black
10
22.37
20
4.75978
11
22.3743
21
4.75864
0
LINE
8
Black
10
22.3743
20
4.75864
11
22.385
21
4.75114
0
LINE
8
Black
10
22.385
20
4.75114
11
22.3963
21
4.74461
0
LINE
8
Black
10
22.3963
20
4.74461
11
22.3991
21
4.74125
0
LINE
8
Black
10
22.3991
20
4.74125
11
22.4027
21
4.73872
0
LINE
8
Black
10
22.4027
20
4.73872
11
22.8183
21
4.3231
0
LINE
8
Black
10
22.8183
20
4.3231
11
22.8217
21
4.3231
0
LINE
8
Black
10
22.8217
20
4.3231
11
22.8625
21
4.30825
0
LINE
8
Black
10
22.8625
20
4.30825
11
22.8958
21
4.28035
0
LINE
8
Black
10
22.8958
20
4.28035
11
22.9175
21
4.24275
0
LINE
8
Black
10
22.9175
20
4.24275
11
22.925
21
4.2
0
LINE
8
Black
10
22.925
20
4.2
11
22.925
21
3.75178
0
LINE
8
Black
10
22.925
20
3.75178
11
24.125
21
2.55181
0
LINE
8
Black
10
24.125
20
2.55181
11
24.127
21
2.55299
0
LINE
8
Black
10
24.127
20
2.55299
11
24.23
21
2.57115
0
LINE
8
Black
10
24.23
20
2.57115
11
24.333
21
2.55299
0
LINE
8
Black
10
24.333
20
2.55299
11
24.4236
21
2.50069
0
LINE
8
Black
10
24.4236
20
2.50069
11
24.4908
21
2.42057
0
LINE
8
Black
10
24.4908
20
2.42057
11
24.5266
21
2.32229
0
LINE
8
Black
10
24.5266
20
2.32229
11
24.5266
21
2.21771
0
LINE
8
Black
10
24.5266
20
2.21771
11
24.4908
21
2.11943
0
LINE
8
Black
10
24.4908
20
2.11943
11
24.4236
21
2.03931
0
LINE
8
Black
10
24.4236
20
2.03931
11
24.333
21
1.98701
0
LINE
8
Black
10
24.333
20
1.98701
11
24.23
21
1.96885
0
LINE
8
Black
10
24.23
20
1.96885
11
24.127
21
1.98701
0
LINE
8
Black
10
24.127
20
1.98701
11
24.0364
21
2.03931
0
LINE
8
Black
10
24.0364
20
2.03931
11
23.9692
21
2.11943
0
LINE
8
Black
10
23.9692
20
2.11943
11
23.9334
21
2.21771
0
LINE
8
Black
10
23.9334
20
2.21771
11
23.9334
21
2.32229
0
LINE
8
Black
10
23.9334
20
2.32229
11
23.9514
21
2.37178
0
LINE
8
Black
10
23.9514
20
2.37178
11
22.7116
21
3.61161
0
LINE
8
Black
10
22.7116
20
3.61161
11
22.7085
21
3.61612
0
LINE
8
Black
10
22.7085
20
3.61612
11
22.7042
21
3.61965
0
LINE
8
Black
10
22.7042
20
3.61965
11
22.6961
21
3.6338
0
LINE
8
Black
10
22.6961
20
3.6338
11
22.6867
21
3.64717
0
LINE
8
Black
10
22.6867
20
3.64717
11
22.6853
21
3.65248
0
LINE
8
Black
10
22.6853
20
3.65248
11
22.6825
21
3.65725
0
LINE
8
Black
10
22.6825
20
3.65725
11
22.6797
21
3.67333
0
LINE
8
Black
10
22.6797
20
3.67333
11
22.6755
21
3.6891
0
LINE
8
Black
10
22.6755
20
3.6891
11
22.676
21
3.69458
0
LINE
8
Black
10
22.676
20
3.69458
11
22.675
21
3.7
0
LINE
8
Black
10
22.675
20
3.7
11
22.675
21
4.18358
0
LINE
8
Black
10
22.675
20
4.18358
11
22.2906
21
4.56801
0
LINE
8
Black
10
22.2906
20
4.56801
11
11.64
21
4.56801
0
LINE
8
Black
10
11.64
20
4.56801
11
11.6357
21
4.56877
0
LINE
8
Black
10
11.6357
20
4.56877
11
11.6313
21
4.56839
0
LINE
8
Black
10
11.6313
20
4.56839
11
11.6187
21
4.57177
0
LINE
8
Black
10
11.6187
20
4.57177
11
11.6058
21
4.57404
0
LINE
8
Black
10
11.6058
20
4.57404
11
11.602
21
4.57624
0
LINE
8
Black
10
11.602
20
4.57624
11
11.5977
21
4.57738
0
LINE
8
Black
10
11.5977
20
4.57738
11
11.587
21
4.58488
0
LINE
8
Black
10
11.587
20
4.58488
11
11.5757
21
4.59141
0
LINE
8
Black
10
11.5757
20
4.59141
11
11.5729
21
4.59477
0
LINE
8
Black
10
11.5729
20
4.59477
11
11.5693
21
4.5973
0
LINE
8
Black
10
11.5693
20
4.5973
11
11.3986
21
4.768
0
LINE
8
Black
10
11.3986
20
4.768
11
9.332
21
4.768
0
LINE
8
Black
10
9.332
20
4.768
11
9.32766
21
4.76877
0
LINE
8
Black
10
9.32766
20
4.76877
11
9.32328
21
4.76838
0
LINE
8
Black
10
9.32328
20
4.76838
11
9.31067
21
4.77176
0
LINE
8
Black
10
9.31067
20
4.77176
11
9.2978
21
4.77403
0
LINE
8
Black
10
9.2978
20
4.77403
11
9.29398
21
4.77623
0
LINE
8
Black
10
9.29398
20
4.77623
11
9.28974
21
4.77737
0
LINE
8
Black
10
9.28974
20
4.77737
11
9.27903
21
4.78487
0
LINE
8
Black
10
9.27903
20
4.78487
11
9.26772
21
4.7914
0
LINE
8
Black
10
9.26772
20
4.7914
11
9.26489
21
4.79477
0
LINE
8
Black
10
9.26489
20
4.79477
11
9.26129
21
4.79729
0
LINE
8
Black
10
9.26129
20
4.79729
11
9.02929
21
5.02929
0
LINE
8
Black
10
9.02929
20
5.02929
11
9.02929
21
5.02929
0
LINE
8
Black
10
9.02929
20
5.02929
11
8.92745
21
5.13113
0
LINE
8
Black
10
8.92745
20
5.13113
11
8.903
21
5.11701
0
LINE
8
Black
10
8.903
20
5.11701
11
8.8
21
5.09885
0
LINE
8
Black
10
8.8
20
5.09885
11
8.697
21
5.11701
0
LINE
8
Black
10
8.697
20
5.11701
11
8.60643
21
5.16931
0
LINE
8
Black
10
8.60643
20
5.16931
11
8.5392
21
5.24943
0
LINE
8
Black
10
8.5392
20
5.24943
11
8.50343
21
5.34771
0
LINE
8
Black
10
8.50343
20
5.34771
11
8.50343
21
5.45229
0
LINE
8
Black
10
8.50343
20
5.45229
11
8.5392
21
5.55057
0
LINE
8
Black
10
8.5392
20
5.55057
11
8.60643
21
5.63069
0
LINE
8
Black
10
8.60643
20
5.63069
11
8.697
21
5.68298
0
LINE
8
Black
10
8.697
20
5.68298
11
8.8
21
5.70115
0
LINE
8
Black
10
8.8
20
5.70115
11
8.903
21
5.68298
0
LINE
8
Black
10
5.68704
20
10.283
11
5.77762
21
10.2307
0
LINE
8
Black
10
5.77762
20
10.2307
11
5.84485
21
10.1506
0
LINE
8
Black
10
5.84485
20
10.1506
11
5.88062
21
10.0523
0
LINE
8
Black
10
5.88062
20
10.0523
11
5.88062
21
9.94771
0
LINE
8
Black
10
5.88062
20
9.94771
11
5.84485
21
9.84943
0
LINE
8
Black
10
5.84485
20
9.84943
11
5.77762
21
9.76931
0
LINE
8
Black
10
5.77762
20
9.76931
11
5.68704
21
9.71701
0
LINE
8
Black
10
5.68704
20
9.71701
11
5.58405
21
9.69885
0
LINE
8
Black
10
5.58405
20
9.69885
11
5.48105
21
9.71701
0
LINE
8
Black
10
5.48105
20
9.71701
11
5.4566
21
9.73113
0
LINE
8
Black
10
5.4566
20
9.73113
11
5.35476
21
9.62929
0
LINE
8
Black
10
5.35476
20
9.62929
11
4.13301
21
8.40754
0
LINE
8
Black
10
4.13301
20
8.40754
11
4.13301
21
5.76052
0
LINE
8
Black
10
4.13301
20
5.76052
11
4.13225
21
5.75619
0
LINE
8
Black
10
4.13225
20
5.75619
11
4.13263
21
5.75181
0
LINE
8
Black
10
4.13263
20
5.75181
11
4.12925
21
5.73919
0
LINE
8
Black
10
4.12925
20
5.73919
11
4.12698
21
5.72632
0
LINE
8
Black
10
4.12698
20
5.72632
11
4.12478
21
5.72251
0
LINE
8
Black
10
4.12478
20
5.72251
11
4.12364
21
5.71826
0
LINE
8
Black
10
4.12364
20
5.71826
11
4.11614
21
5.70755
0
LINE
8
Black
10
4.11614
20
5.70755
11
4.10961
21
5.69624
0
LINE
8
Black
10
4.10961
20
5.69624
11
4.10625
21
5.69341
0
LINE
8
Black
10
4.10625
20
5.69341
11
4.10372
21
5.68981
0
LINE
8
Black
10
4.10372
20
5.68981
11
3.33
21
4.91609
0
LINE
8
Black
10
3.33
20
4.91609
11
3.33
21
2.55351
0
LINE
8
Black
10
3.33
20
2.55351
11
3.333
21
2.55299
0
LINE
8
Black
10
3.333
20
2.55299
11
3.42357
21
2.50069
0
LINE
8
Black
10
3.42357
20
2.50069
11
3.4908
21
2.42057
0
LINE
8
Black
10
3.4908
20
2.42057
11
3.52657
21
2.32229
0
LINE
8
Black
10
3.52657
20
2.32229
11
3.52657
21
2.21771
0
LINE
8
Black
10
3.52657
20
2.21771
11
3.4908
21
2.11943
0
LINE
8
Black
10
3.4908
20
2.11943
11
3.42357
21
2.03931
0
LINE
8
Black
10
3.42357
20
2.03931
11
3.333
21
1.98701
0
LINE
8
Black
10
3.333
20
1.98701
11
3.23
21
1.96885
0
LINE
8
Black
10
3.23
20
1.96885
11
3.127
21
1.98701
0
LINE
8
Black
10
3.127
20
1.98701
11
3.03643
21
2.03931
0
LINE
8
Black
10
3.03643
20
2.03931
11
2.9692
21
2.11943
0
LINE
8
Black
10
2.9692
20
2.11943
11
2.93343
21
2.21771
0
LINE
8
Black
10
2.93343
20
2.21771
11
2.93343
21
2.32229
0
LINE
8
Black
10
2.93343
20
2.32229
11
2.9692
21
2.42057
0
LINE
8
Black
10
2.9692
20
2.42057
11
3.03643
21
2.50069
0
LINE
8
Black
10
3.03643
20
2.50069
11
3.127
21
2.55299
0
LINE
8
Black
10
3.127
20
2.55299
11
3.13
21
2.55351
0
LINE
8
Black
10
3.13
20
2.55351
11
3.13
21
4.95751
0
LINE
8
Black
10
3.13
20
4.95751
11
3.13076
21
4.96184
0
LINE
8
Black
10
3.13076
20
4.96184
11
3.13038
21
4.96622
0
LINE
8
Black
10
3.13038
20
4.96622
11
3.13376
21
4.97884
0
LINE
8
Black
10
3.13376
20
4.97884
11
3.13603
21
4.99171
0
LINE
8
Black
10
3.13603
20
4.99171
11
3.13823
21
4.99552
0
LINE
8
Black
10
3.13823
20
4.99552
11
3.13937
21
4.99977
0
LINE
8
Black
10
3.13937
20
4.99977
11
3.14687
21
5.01048
0
LINE
8
Black
10
3.14687
20
5.01048
11
3.1534
21
5.02179
0
LINE
8
Black
10
3.1534
20
5.02179
11
3.15676
21
5.02462
0
LINE
8
Black
10
3.15676
20
5.02462
11
3.15929
21
5.02822
0
LINE
8
Black
10
3.15929
20
5.02822
11
3.93301
21
5.80194
0
LINE
8
Black
10
3.93301
20
5.80194
11
3.93301
21
8.44896
0
LINE
8
Black
10
3.93301
20
8.44896
11
3.93377
21
8.4533
0
LINE
8
Black
10
3.93377
20
8.4533
11
3.93339
21
8.45768
0
LINE
8
Black
10
3.93339
20
8.45768
11
3.93677
21
8.4703
0
LINE
8
Black
10
3.93677
20
8.4703
11
3.93904
21
8.48317
0
LINE
8
Black
10
3.93904
20
8.48317
11
3.94124
21
8.48698
0
LINE
8
Black
10
3.94124
20
8.48698
11
3.94238
21
8.49123
0
LINE
8
Black
10
3.94238
20
8.49123
11
3.94988
21
8.50193
0
LINE
8
Black
10
3.94988
20
8.50193
11
3.95641
21
8.51324
0
LINE
8
Black
10
3.95641
20
8.51324
11
3.95977
21
8.51607
0
LINE
8
Black
10
3.95977
20
8.51607
11
3.9623
21
8.51968
0
LINE
8
Black
10
3.9623
20
8.51968
11
5.21334
21
9.77071
0
LINE
8
Black
10
5.21334
20
9.77071
11
5.31492
21
9.8723
0
LINE
8
Black
10
5.31492
20
9.8723
11
5.28747
21
9.94771
0
LINE
8
Black
10
5.28747
20
9.94771
11
5.28747
21
10.0523
0
LINE
8
Black
10
5.28747
20
10.0523
11
5.32325
21
10.1506
0
LINE
8
Black
10
5.32325
20
10.1506
11
5.39047
21
10.2307
0
LINE
8
Black
10
5.39047
20
10.2307
11
5.48105
21
10.283
0
LINE
8
Black
10
5.48105
20
10.283
11
5.58405
21
10.3011
0
LINE
8
Black
10
5.58405
20
10.3011
11
5.68704
21
10.283
0
LINE
8
Black
10
5.87
20
4.45858
11
5.87
21
2.55351
0
LINE
8
Black
10
5.87
20
2.55351
11
5.873
21
2.55299
0
LINE
8
Black
10
5.873
20
2.55299
11
5.96357
21
2.50069
0
LINE
8
Black
10
5.96357
20
2.50069
11
6.0308
21
2.42057
0
LINE
8
Black
10
6.0308
20
2.42057
11
6.06657
21
2.32229
0
LINE
8
Black
10
6.06657
20
2.32229
11
6.06657
21
2.21771
0
LINE
8
Black
10
6.06657
20
2.21771
11
6.0308
21
2.11943
0
LINE
8
Black
10
6.0308
20
2.11943
11
5.96357
21
2.03931
0
LINE
8
Black
10
5.96357
20
2.03931
11
5.873
21
1.98701
0
LINE
8
Black
10
5.873
20
1.98701
11
5.77
21
1.96885
0
LINE
8
Black
10
5.77
20
1.96885
11
5.667
21
1.98701
0
LINE
8
Black
10
5.667
20
1.98701
11
5.57643
21
2.03931
0
LINE
8
Black
10
5.57643
20
2.03931
11
5.5092
21
2.11943
0
LINE
8
Black
10
5.5092
20
2.11943
11
5.47343
21
2.21771
0
LINE
8
Black
10
5.47343
20
2.21771
11
5.47343
21
2.32229
0
LINE
8
Black
10
5.47343
20
2.32229
11
5.5092
21
2.42057
0
LINE
8
Black
10
5.5092
20
2.42057
11
5.57643
21
2.50069
0
LINE
8
Black
10
5.57643
20
2.50069
11
5.667
21
2.55299
0
LINE
8
Black
10
5.667
20
2.55299
11
5.67
21
2.55351
0
LINE
8
Black
10
5.67
20
2.55351
11
5.67
21
4.5
0
LINE
8
Black
10
5.67
20
4.5
11
5.67076
21
4.50433
0
LINE
8
Black
10
5.67076
20
4.50433
11
5.67038
21
4.50871
0
LINE
8
Black
10
5.67038
20
4.50871
11
5.67376
21
4.52133
0
LINE
8
Black
10
5.67376
20
4.52133
11
5.67603
21
4.5342
0
LINE
8
Black
10
5.67603
20
4.5342
11
5.67823
21
4.53801
0
LINE
8
Black
10
5.67823
20
4.53801
11
5.67937
21
4.54226
0
LINE
8
Black
10
5.67937
20
4.54226
11
5.68687
21
4.55297
0
LINE
8
Black
10
5.68687
20
4.55297
11
5.6934
21
4.56428
0
LINE
8
Black
10
5.6934
20
4.56428
11
5.69676
21
4.56711
0
LINE
8
Black
10
5.69676
20
4.56711
11
5.69929
21
4.57071
0
LINE
8
Black
10
5.69929
20
4.57071
11
11.0393
21
9.9107
0
LINE
8
Black
10
11.0393
20
9.9107
11
11.0429
21
9.91322
0
LINE
8
Black
10
11.0429
20
9.91322
11
11.0457
21
9.91659
0
LINE
8
Black
10
11.0457
20
9.91659
11
11.057
21
9.92313
0
LINE
8
Black
10
11.057
20
9.92313
11
11.0677
21
9.93062
0
LINE
8
Black
10
11.0677
20
9.93062
11
11.072
21
9.93176
0
LINE
8
Black
10
11.072
20
9.93176
11
11.0758
21
9.93396
0
LINE
8
Black
10
11.0758
20
9.93396
11
11.0887
21
9.93623
0
LINE
8
Black
10
11.0887
20
9.93623
11
11.1013
21
9.93961
0
LINE
8
Black
10
11.1013
20
9.93961
11
11.1057
21
9.93923
0
LINE
8
Black
10
11.1057
20
9.93923
11
11.11
21
9.93999
0
LINE
8
Black
10
11.11
20
9.93999
11
15.5161
21
9.93999
0
LINE
8
Black
10
15.5161
20
9.93999
11
15.6612
21
9.93999
0
LINE
8
Black
10
15.6612
20
9.93999
11
15.6796
21
9.99056
0
LINE
8
Black
10
15.6796
20
9.99056
11
15.7468
21
10.0707
0
LINE
8
Black
10
15.7468
20
10.0707
11
15.8374
21
10.123
0
LINE
8
Black
10
15.8374
20
10.123
11
15.9404
21
10.1411
0
LINE
8
Black
10
15.9404
20
10.1411
11
16.0434
21
10.123
0
LINE
8
Black
10
16.0434
20
10.123
11
16.1339
21
10.0707
0
LINE
8
Black
10
16.1339
20
10.0707
11
16.2012
21
9.99056
0
LINE
8
Black
10
16.2012
20
9.99056
11
16.2369
21
9.89228
0
LINE
8
Black
10
16.2369
20
9.89228
11
16.2369
21
9.7877
0
LINE
8
Black
10
16.2369
20
9.7877
11
16.2012
21
9.68942
0
LINE
8
Black
10
16.2012
20
9.68942
11
16.1339
21
9.6093
0
LINE
8
Black
10
16.1339
20
9.6093
11
16.0434
21
9.55701
0
LINE
8
Black
10
16.0434
20
9.55701
11
15.9404
21
9.53884
0
LINE
8
Black
10
15.9404
20
9.53884
11
15.8374
21
9.55701
0
LINE
8
Black
10
15.8374
20
9.55701
11
15.7468
21
9.6093
0
LINE
8
Black
10
15.7468
20
9.6093
11
15.6796
21
9.68942
0
LINE
8
Black
10
15.6796
20
9.68942
11
15.6612
21
9.73999
0
LINE
8
Black
10
15.6612
20
9.73999
11
15.5161
21
9.73999
0
LINE
8
Black
10
15.5161
20
9.73999
11
11.1514
21
9.73999
0
LINE
8
Black
10
11.1514
20
9.73999
11
5.87
21
4.45858
0
LINE
8
Black
10
12.041
20
2.82299
11
12.1316
21
2.77069
0
LINE
8
Black
10
12.1316
20
2.77069
11
12.1988
21
2.69057
0
LINE
8
Black
10
12.1988
20
2.69057
11
12.2346
21
2.59229
0
LINE
8
Black
10
12.2346
20
2.59229
11
12.2346
21
2.48771
0
LINE
8
Black
10
12.2346
20
2.48771
11
12.1988
21
2.38943
0
LINE
8
Black
10
12.1988
20
2.38943
11
12.1316
21
2.30931
0
LINE
8
Black
10
12.1316
20
2.30931
11
12.041
21
2.25701
0
LINE
8
Black
10
12.041
20
2.25701
11
11.938
21
2.23885
0
LINE
8
Black
10
11.938
20
2.23885
11
11.835
21
2.25701
0
LINE
8
Black
10
11.835
20
2.25701
11
11.7444
21
2.30931
0
LINE
8
Black
10
11.7444
20
2.30931
11
11.6772
21
2.38943
0
LINE
8
Black
10
11.6772
20
2.38943
11
11.6414
21
2.48771
0
LINE
8
Black
10
11.6414
20
2.48771
11
11.6414
21
2.59229
0
LINE
8
Black
10
11.6414
20
2.59229
11
11.6772
21
2.69057
0
LINE
8
Black
10
11.6772
20
2.69057
11
11.7444
21
2.77069
0
LINE
8
Black
10
11.7444
20
2.77069
11
11.835
21
2.82299
0
LINE
8
Black
10
11.835
20
2.82299
11
11.938
21
2.84115
0
LINE
8
Black
10
11.938
20
2.84115
11
12.041
21
2.82299
0
LINE
8
Black
10
11.303
20
4.58298
11
11.3936
21
4.53069
0
LINE
8
Black
10
11.3936
20
4.53069
11
11.4608
21
4.45057
0
LINE
8
Black
10
11.4608
20
4.45057
11
11.4792
21
4.4
0
LINE
8
Black
10
11.4792
20
4.4
11
19.83
21
4.4
0
LINE
8
Black
10
19.83
20
4.4
11
19.8343
21
4.39924
0
LINE
8
Black
10
19.8343
20
4.39924
11
19.8387
21
4.39962
0
LINE
8
Black
10
19.8387
20
4.39962
11
19.8513
21
4.39624
0
LINE
8
Black
10
19.8513
20
4.39624
11
19.8642
21
4.39397
0
LINE
8
Black
10
19.8642
20
4.39397
11
19.868
21
4.39177
0
LINE
8
Black
10
19.868
20
4.39177
11
19.8723
21
4.39063
0
LINE
8
Black
10
19.8723
20
4.39063
11
19.883
21
4.38313
0
LINE
8
Black
10
19.883
20
4.38313
11
19.8943
21
4.3766
0
LINE
8
Black
10
19.8943
20
4.3766
11
19.8971
21
4.37324
0
LINE
8
Black
10
19.8971
20
4.37324
11
19.9007
21
4.37071
0
LINE
8
Black
10
19.9007
20
4.37071
11
19.9707
21
4.30071
0
LINE
8
Black
10
19.9707
20
4.30071
11
21.2086
21
3.06287
0
LINE
8
Black
10
21.2086
20
3.06287
11
21.233
21
3.07699
0
LINE
8
Black
10
21.233
20
3.07699
11
21.336
21
3.09515
0
LINE
8
Black
10
21.336
20
3.09515
11
21.439
21
3.07699
0
LINE
8
Black
10
21.439
20
3.07699
11
21.5296
21
3.02469
0
LINE
8
Black
10
21.5296
20
3.02469
11
21.5968
21
2.94457
0
LINE
8
Black
10
21.5968
20
2.94457
11
21.6326
21
2.84629
0
LINE
8
Black
10
21.6326
20
2.84629
11
21.6326
21
2.74171
0
LINE
8
Black
10
21.6326
20
2.74171
11
21.5968
21
2.64343
0
LINE
8
Black
10
21.5968
20
2.64343
11
21.5296
21
2.56331
0
LINE
8
Black
10
21.5296
20
2.56331
11
21.439
21
2.51101
0
LINE
8
Black
10
21.439
20
2.51101
11
21.336
21
2.49285
0
LINE
8
Black
10
21.336
20
2.49285
11
21.233
21
2.51101
0
LINE
8
Black
10
21.233
20
2.51101
11
21.1424
21
2.56331
0
LINE
8
Black
10
21.1424
20
2.56331
11
21.0752
21
2.64343
0
LINE
8
Black
10
21.0752
20
2.64343
11
21.0394
21
2.74171
0
LINE
8
Black
10
21.0394
20
2.74171
11
21.0394
21
2.84629
0
LINE
8
Black
10
21.0394
20
2.84629
11
21.0669
21
2.9217
0
LINE
8
Black
10
21.0669
20
2.9217
11
19.8293
21
4.15929
0
LINE
8
Black
10
19.8293
20
4.15929
11
19.7886
21
4.2
0
LINE
8
Black
10
19.7886
20
4.2
11
11.4792
21
4.2
0
LINE
8
Black
10
11.4792
20
4.2
11
11.4608
21
4.14943
0
LINE
8
Black
10
11.4608
20
4.14943
11
11.3936
21
4.06931
0
LINE
8
Black
10
11.3936
20
4.06931
11
11.303
21
4.01701
0
LINE
8
Black
10
11.303
20
4.01701
11
11.2
21
3.99885
0
LINE
8
Black
10
11.2
20
3.99885
11
11.097
21
4.01701
0
LINE
8
Black
10
11.097
20
4.01701
11
11.0064
21
4.06931
0
LINE
8
Black
10
11.0064
20
4.06931
11
10.9392
21
4.14943
0
LINE
8
Black
10
10.9392
20
4.14943
11
10.9034
21
4.24771
0
LINE
8
Black
10
10.9034
20
4.24771
11
10.9034
21
4.35229
0
LINE
8
Black
10
10.9034
20
4.35229
11
10.9392
21
4.45057
0
LINE
8
Black
10
10.9392
20
4.45057
11
11.0064
21
4.53069
0
LINE
8
Black
10
11.0064
20
4.53069
11
11.097
21
4.58298
0
LINE
8
Black
10
11.097
20
4.58298
11
11.2
21
4.60115
0
LINE
8
Black
10
11.2
20
4.60115
11
11.303
21
4.58298
0
LINE
8
Black
10
12.803
20
7.98298
11
12.8936
21
7.93069
0
LINE
8
Black
10
12.8936
20
7.93069
11
12.9608
21
7.85057
0
LINE
8
Black
10
12.9608
20
7.85057
11
12.9966
21
7.75229
0
LINE
8
Black
10
12.9966
20
7.75229
11
12.9966
21
7.64771
0
LINE
8
Black
10
12.9966
20
7.64771
11
12.9608
21
7.54943
0
LINE
8
Black
10
12.9608
20
7.54943
11
12.8936
21
7.46931
0
LINE
8
Black
10
12.8936
20
7.46931
11
12.803
21
7.41701
0
LINE
8
Black
10
12.803
20
7.41701
11
12.7
21
7.39885
0
LINE
8
Black
10
12.7
20
7.39885
11
12.597
21
7.41701
0
LINE
8
Black
10
12.597
20
7.41701
11
12.5064
21
7.46931
0
LINE
8
Black
10
12.5064
20
7.46931
11
12.4392
21
7.54943
0
LINE
8
Black
10
12.4392
20
7.54943
11
12.4208
21
7.6
0
LINE
8
Black
10
12.4208
20
7.6
11
12.3172
21
7.6
0
LINE
8
Black
10
12.3172
20
7.6
11
12.1707
21
7.45355
0
LINE
8
Black
10
12.1707
20
7.45355
11
12.1671
21
7.45103
0
LINE
8
Black
10
12.1671
20
7.45103
11
12.1643
21
7.44766
0
LINE
8
Black
10
12.1643
20
7.44766
11
12.153
21
7.44113
0
LINE
8
Black
10
12.153
20
7.44113
11
12.1423
21
7.43363
0
LINE
8
Black
10
12.1423
20
7.43363
11
12.138
21
7.43249
0
LINE
8
Black
10
12.138
20
7.43249
11
12.1342
21
7.4303
0
LINE
8
Black
10
12.1342
20
7.4303
11
12.1213
21
7.42803
0
LINE
8
Black
10
12.1213
20
7.42803
11
12.1087
21
7.42464
0
LINE
8
Black
10
12.1087
20
7.42464
11
12.1043
21
7.42503
0
LINE
8
Black
10
12.1043
20
7.42503
11
12.1
21
7.42426
0
LINE
8
Black
10
12.1
20
7.42426
11
9.66569
21
7.42426
0
LINE
8
Black
10
9.66569
20
7.42426
11
7.04142
21
4.8
0
LINE
8
Black
10
7.04142
20
4.8
11
8.40671
21
3.43471
0
LINE
8
Black
10
8.40671
20
3.43471
11
8.40924
21
3.4311
0
LINE
8
Black
10
8.40924
20
3.4311
11
8.4126
21
3.42828
0
LINE
8
Black
10
8.4126
20
3.42828
11
8.41913
21
3.41697
0
LINE
8
Black
10
8.41913
20
3.41697
11
8.42663
21
3.40626
0
LINE
8
Black
10
8.42663
20
3.40626
11
8.42777
21
3.40201
0
LINE
8
Black
10
8.42777
20
3.40201
11
8.42997
21
3.3982
0
LINE
8
Black
10
8.42997
20
3.3982
11
8.43224
21
3.38533
0
LINE
8
Black
10
8.43224
20
3.38533
11
8.43562
21
3.37271
0
LINE
8
Black
10
8.43562
20
3.37271
11
8.43524
21
3.36833
0
LINE
8
Black
10
8.43524
20
3.36833
11
8.436
21
3.364
0
LINE
8
Black
10
8.436
20
3.364
11
8.436
21
3.13542
0
LINE
8
Black
10
8.436
20
3.13542
11
8.50855
21
3.06287
0
LINE
8
Black
10
8.50855
20
3.06287
11
8.533
21
3.07699
0
LINE
8
Black
10
8.533
20
3.07699
11
8.636
21
3.09515
0
LINE
8
Black
10
8.636
20
3.09515
11
8.739
21
3.07699
0
LINE
8
Black
10
8.739
20
3.07699
11
8.82957
21
3.02469
0
LINE
8
Black
10
8.82957
20
3.02469
11
8.8968
21
2.94457
0
LINE
8
Black
10
8.8968
20
2.94457
11
8.93257
21
2.84629
0
LINE
8
Black
10
8.93257
20
2.84629
11
8.93257
21
2.74171
0
LINE
8
Black
10
8.93257
20
2.74171
11
8.8968
21
2.64343
0
LINE
8
Black
10
8.8968
20
2.64343
11
8.82957
21
2.56331
0
LINE
8
Black
10
8.82957
20
2.56331
11
8.739
21
2.51101
0
LINE
8
Black
10
8.739
20
2.51101
11
8.636
21
2.49285
0
LINE
8
Black
10
8.636
20
2.49285
11
8.533
21
2.51101
0
LINE
8
Black
10
8.533
20
2.51101
11
8.44243
21
2.56331
0
LINE
8
Black
10
8.44243
20
2.56331
11
8.3752
21
2.64343
0
LINE
8
Black
10
8.3752
20
2.64343
11
8.33943
21
2.74171
0
LINE
8
Black
10
8.33943
20
2.74171
11
8.33943
21
2.84629
0
LINE
8
Black
10
8.33943
20
2.84629
11
8.36688
21
2.9217
0
LINE
8
Black
10
8.36688
20
2.9217
11
8.26529
21
3.02329
0
LINE
8
Black
10
8.26529
20
3.02329
11
8.26276
21
3.02689
0
LINE
8
Black
10
8.26276
20
3.02689
11
8.2594
21
3.02972
0
LINE
8
Black
10
8.2594
20
3.02972
11
8.25287
21
3.04103
0
LINE
8
Black
10
8.25287
20
3.04103
11
8.24537
21
3.05174
0
LINE
8
Black
10
8.24537
20
3.05174
11
8.24423
21
3.05599
0
LINE
8
Black
10
8.24423
20
3.05599
11
8.24203
21
3.0598
0
LINE
8
Black
10
8.24203
20
3.0598
11
8.23976
21
3.07266
0
LINE
8
Black
10
8.23976
20
3.07266
11
8.23638
21
3.08528
0
LINE
8
Black
10
8.23638
20
3.08528
11
8.23677
21
3.08966
0
LINE
8
Black
10
8.23677
20
3.08966
11
8.236
21
3.094
0
LINE
8
Black
10
8.236
20
3.094
11
8.236
21
3.32258
0
LINE
8
Black
10
8.236
20
3.32258
11
6.82929
21
4.72929
0
LINE
8
Black
10
6.82929
20
4.72929
11
6.82427
21
4.73646
0
LINE
8
Black
10
6.82427
20
4.73646
11
6.81808
21
4.74264
0
LINE
8
Black
10
6.81808
20
4.74264
11
6.81439
21
4.75057
0
LINE
8
Black
10
6.81439
20
4.75057
11
6.80937
21
4.75774
0
LINE
8
Black
10
6.80937
20
4.75774
11
6.8071
21
4.76619
0
LINE
8
Black
10
6.8071
20
4.76619
11
6.80341
21
4.77412
0
LINE
8
Black
10
6.80341
20
4.77412
11
6.80264
21
4.78284
0
LINE
8
Black
10
6.80264
20
4.78284
11
6.80038
21
4.79128
0
LINE
8
Black
10
6.80038
20
4.79128
11
6.80114
21
4.8
0
LINE
8
Black
10
6.80114
20
4.8
11
6.80038
21
4.80871
0
LINE
8
Black
10
6.80038
20
4.80871
11
6.80264
21
4.81716
0
LINE
8
Black
10
6.80264
20
4.81716
11
6.80341
21
4.82588
0
LINE
8
Black
10
6.80341
20
4.82588
11
6.8071
21
4.83381
0
LINE
8
Black
10
6.8071
20
4.83381
11
6.80937
21
4.84226
0
LINE
8
Black
10
6.80937
20
4.84226
11
6.81439
21
4.84943
0
LINE
8
Black
10
6.81439
20
4.84943
11
6.81808
21
4.85736
0
LINE
8
Black
10
6.81808
20
4.85736
11
6.82427
21
4.86354
0
LINE
8
Black
10
6.82427
20
4.86354
11
6.82929
21
4.87071
0
LINE
8
Black
10
6.82929
20
4.87071
11
9.55355
21
7.59497
0
LINE
8
Black
10
9.55355
20
7.59497
11
9.55716
21
7.5975
0
LINE
8
Black
10
9.55716
20
7.5975
11
9.55998
21
7.60087
0
LINE
8
Black
10
9.55998
20
7.60087
11
9.57129
21
7.6074
0
LINE
8
Black
10
9.57129
20
7.6074
11
9.582
21
7.61489
0
LINE
8
Black
10
9.582
20
7.61489
11
9.58625
21
7.61603
0
LINE
8
Black
10
9.58625
20
7.61603
11
9.59006
21
7.61823
0
LINE
8
Black
10
9.59006
20
7.61823
11
9.60293
21
7.6205
0
LINE
8
Black
10
9.60293
20
7.6205
11
9.61555
21
7.62388
0
LINE
8
Black
10
9.61555
20
7.62388
11
9.61993
21
7.6235
0
LINE
8
Black
10
9.61993
20
7.6235
11
9.62426
21
7.62426
0
LINE
8
Black
10
9.62426
20
7.62426
11
12.0586
21
7.62426
0
LINE
8
Black
10
12.0586
20
7.62426
11
12.205
21
7.77071
0
LINE
8
Black
10
12.205
20
7.77071
11
12.2086
21
7.77323
0
LINE
8
Black
10
12.2086
20
7.77323
11
12.2115
21
7.7766
0
LINE
8
Black
10
12.2115
20
7.7766
11
12.2228
21
7.78314
0
LINE
8
Black
10
12.2228
20
7.78314
11
12.2335
21
7.79063
0
LINE
8
Black
10
12.2335
20
7.79063
11
12.2377
21
7.79177
0
LINE
8
Black
10
12.2377
20
7.79177
11
12.2415
21
7.79397
0
LINE
8
Black
10
12.2415
20
7.79397
11
12.2544
21
7.79624
0
LINE
8
Black
10
12.2544
20
7.79624
11
12.267
21
7.79962
0
LINE
8
Black
10
12.267
20
7.79962
11
12.2714
21
7.79924
0
LINE
8
Black
10
12.2714
20
7.79924
11
12.2757
21
7.8
0
LINE
8
Black
10
12.2757
20
7.8
11
12.4208
21
7.8
0
LINE
8
Black
10
12.4208
20
7.8
11
12.4392
21
7.85057
0
LINE
8
Black
10
12.4392
20
7.85057
11
12.5064
21
7.93069
0
LINE
8
Black
10
12.5064
20
7.93069
11
12.597
21
7.98298
0
LINE
8
Black
10
12.597
20
7.98298
11
12.7
21
8.00115
0
LINE
8
Black
10
12.7
20
8.00115
11
12.803
21
7.98298
0
LINE
8
Black
10
18.645
20
3.83898
11
18.7356
21
3.78669
0
LINE
8
Black
10
18.7356
20
3.78669
11
18.8028
21
3.70657
0
LINE
8
Black
10
18.8028
20
3.70657
11
18.8386
21
3.60829
0
LINE
8
Black
10
18.8386
20
3.60829
11
18.8386
21
3.50371
0
LINE
8
Black
10
18.8386
20
3.50371
11
18.8028
21
3.40543
0
LINE
8
Black
10
18.8028
20
3.40543
11
18.7356
21
3.32531
0
LINE
8
Black
10
18.7356
20
3.32531
11
18.645
21
3.27302
0
LINE
8
Black
10
18.645
20
3.27302
11
18.542
21
3.25485
0
LINE
8
Black
10
18.542
20
3.25485
11
18.439
21
3.27302
0
LINE
8
Black
10
18.439
20
3.27302
11
18.3484
21
3.32531
0
LINE
8
Black
10
18.3484
20
3.32531
11
18.2812
21
3.40543
0
LINE
8
Black
10
18.2812
20
3.40543
11
18.2454
21
3.50371
0
LINE
8
Black
10
18.2454
20
3.50371
11
18.2454
21
3.60829
0
LINE
8
Black
10
18.2454
20
3.60829
11
18.2812
21
3.70657
0
LINE
8
Black
10
18.2812
20
3.70657
11
18.3484
21
3.78669
0
LINE
8
Black
10
18.3484
20
3.78669
11
18.439
21
3.83898
0
LINE
8
Black
10
18.439
20
3.83898
11
18.542
21
3.85715
0
LINE
8
Black
10
18.542
20
3.85715
11
18.645
21
3.83898
0
LINE
8
Black
10
21.947
20
7.78299
11
22.0376
21
7.73069
0
LINE
8
Black
10
22.0376
20
7.73069
11
22.1048
21
7.65057
0
LINE
8
Black
10
22.1048
20
7.65057
11
22.1406
21
7.55229
0
LINE
8
Black
10
22.1406
20
7.55229
11
22.1406
21
7.44771
0
LINE
8
Black
10
22.1406
20
7.44771
11
22.1048
21
7.34943
0
LINE
8
Black
10
22.1048
20
7.34943
11
22.0376
21
7.26931
0
LINE
8
Black
10
22.0376
20
7.26931
11
21.947
21
7.21701
0
LINE
8
Black
10
21.947
20
7.21701
11
21.844
21
7.19885
0
LINE
8
Black
10
21.844
20
7.19885
11
21.741
21
7.21701
0
LINE
8
Black
10
21.741
20
7.21701
11
21.6504
21
7.26931
0
LINE
8
Black
10
21.6504
20
7.26931
11
21.5832
21
7.34943
0
LINE
8
Black
10
21.5832
20
7.34943
11
21.5648
21
7.4
0
LINE
8
Black
10
21.5648
20
7.4
11
18.6631
21
7.4
0
LINE
8
Black
10
18.6631
20
7.4
11
17
21
5.73686
0
LINE
8
Black
10
17
20
5.73686
11
17
21
5.6
0
LINE
8
Black
10
17
20
5.6
11
16.9992
21
5.59567
0
LINE
8
Black
10
16.9992
20
5.59567
11
16.9996
21
5.59128
0
LINE
8
Black
10
16.9996
20
5.59128
11
16.9962
21
5.57866
0
LINE
8
Black
10
16.9962
20
5.57866
11
16.994
21
5.5658
0
LINE
8
Black
10
16.994
20
5.5658
11
16.9918
21
5.56199
0
LINE
8
Black
10
16.9918
20
5.56199
11
16.9906
21
5.55774
0
LINE
8
Black
10
16.9906
20
5.55774
11
16.9831
21
5.54704
0
LINE
8
Black
10
16.9831
20
5.54704
11
16.9766
21
5.53572
0
LINE
8
Black
10
16.9766
20
5.53572
11
16.9732
21
5.53289
0
LINE
8
Black
10
16.9732
20
5.53289
11
16.9707
21
5.52929
0
LINE
8
Black
10
16.9707
20
5.52929
11
16.8691
21
5.4277
0
LINE
8
Black
10
16.8691
20
5.4277
11
16.8966
21
5.35229
0
LINE
8
Black
10
16.8966
20
5.35229
11
16.8966
21
5.24771
0
LINE
8
Black
10
16.8966
20
5.24771
11
16.8608
21
5.14943
0
LINE
8
Black
10
16.8608
20
5.14943
11
16.7936
21
5.06931
0
LINE
8
Black
10
16.7936
20
5.06931
11
16.703
21
5.01701
0
LINE
8
Black
10
16.703
20
5.01701
11
16.6
21
4.99885
0
LINE
8
Black
10
16.6
20
4.99885
11
16.497
21
5.01701
0
LINE
8
Black
10
16.497
20
5.01701
11
16.4064
21
5.06931
0
LINE
8
Black
10
16.4064
20
5.06931
11
16.3392
21
5.14943
0
LINE
8
Black
10
16.3392
20
5.14943
11
16.3034
21
5.24771
0
LINE
8
Black
10
16.3034
20
5.24771
11
16.3034
21
5.35229
0
LINE
8
Black
10
16.3034
20
5.35229
11
16.3392
21
5.45057
0
LINE
8
Black
10
16.3392
20
5.45057
11
16.4064
21
5.53069
0
LINE
8
Black
10
16.4064
20
5.53069
11
16.497
21
5.58298
0
LINE
8
Black
10
16.497
20
5.58298
11
16.6
21
5.60115
0
LINE
8
Black
10
16.6
20
5.60115
11
16.703
21
5.58298
0
LINE
8
Black
10
16.703
20
5.58298
11
16.7274
21
5.56887
0
LINE
8
Black
10
16.7274
20
5.56887
11
16.8
21
5.64142
0
LINE
8
Black
10
16.8
20
5.64142
11
16.8
21
5.77828
0
LINE
8
Black
10
16.8
20
5.77828
11
16.8008
21
5.78262
0
LINE
8
Black
10
16.8008
20
5.78262
11
16.8004
21
5.787
0
LINE
8
Black
10
16.8004
20
5.787
11
16.8038
21
5.79962
0
LINE
8
Black
10
16.8038
20
5.79962
11
16.806
21
5.81249
0
LINE
8
Black
10
16.806
20
5.81249
11
16.8082
21
5.81629
0
LINE
8
Black
10
16.8082
20
5.81629
11
16.8094
21
5.82055
0
LINE
8
Black
10
16.8094
20
5.82055
11
16.8169
21
5.83125
0
LINE
8
Black
10
16.8169
20
5.83125
11
16.8234
21
5.84256
0
LINE
8
Black
10
16.8234
20
5.84256
11
16.8268
21
5.84539
0
LINE
8
Black
10
16.8268
20
5.84539
11
16.8293
21
5.84899
0
LINE
8
Black
10
16.8293
20
5.84899
11
18.551
21
7.57071
0
LINE
8
Black
10
18.551
20
7.57071
11
18.5546
21
7.57323
0
LINE
8
Black
10
18.5546
20
7.57323
11
18.5574
21
7.5766
0
LINE
8
Black
10
18.5574
20
7.5766
11
18.5687
21
7.58314
0
LINE
8
Black
10
18.5687
20
7.58314
11
18.5795
21
7.59063
0
LINE
8
Black
10
18.5795
20
7.59063
11
18.5837
21
7.59177
0
LINE
8
Black
10
18.5837
20
7.59177
11
18.5875
21
7.59397
0
LINE
8
Black
10
18.5875
20
7.59397
11
18.6004
21
7.59624
0
LINE
8
Black
10
18.6004
20
7.59624
11
18.613
21
7.59962
0
LINE
8
Black
10
18.613
20
7.59962
11
18.6174
21
7.59924
0
LINE
8
Black
10
18.6174
20
7.59924
11
18.6217
21
7.6
0
LINE
8
Black
10
18.6217
20
7.6
11
21.5648
21
7.6
0
LINE
8
Black
10
21.5648
20
7.6
11
21.5832
21
7.65057
0
LINE
8
Black
10
21.5832
20
7.65057
11
21.6504
21
7.73069
0
LINE
8
Black
10
21.6504
20
7.73069
11
21.741
21
7.78299
0
LINE
8
Black
10
21.741
20
7.78299
11
21.844
21
7.80115
0
LINE
8
Black
10
21.844
20
7.80115
11
21.947
21
7.78299
0
LINE
8
Black
10
15.9527
20
5.52929
11
15.9491
21
5.52676
0
LINE
8
Black
10
15.9491
20
5.52676
11
15.9463
21
5.5234
0
LINE
8
Black
10
15.9463
20
5.5234
11
15.9349
21
5.51687
0
LINE
8
Black
10
15.9349
20
5.51687
11
15.9242
21
5.50937
0
LINE
8
Black
10
15.9242
20
5.50937
11
15.92
21
5.50823
0
LINE
8
Black
10
15.92
20
5.50823
11
15.9162
21
5.50603
0
LINE
8
Black
10
15.9162
20
5.50603
11
15.9033
21
5.50376
0
LINE
8
Black
10
15.9033
20
5.50376
11
15.8907
21
5.50038
0
LINE
8
Black
10
15.8907
20
5.50038
11
15.8863
21
5.50076
0
LINE
8
Black
10
15.8863
20
5.50076
11
15.882
21
5.5
0
LINE
8
Black
10
15.882
20
5.5
11
15.2792
21
5.5
0
LINE
8
Black
10
15.2792
20
5.5
11
15.2608
21
5.44943
0
LINE
8
Black
10
15.2608
20
5.44943
11
15.1936
21
5.36931
0
LINE
8
Black
10
15.1936
20
5.36931
11
15.103
21
5.31701
0
LINE
8
Black
10
15.103
20
5.31701
11
15
21
5.29885
0
LINE
8
Black
10
15
20
5.29885
11
14.897
21
5.31701
0
LINE
8
Black
10
14.897
20
5.31701
11
14.8064
21
5.36931
0
LINE
8
Black
10
14.8064
20
5.36931
11
14.7392
21
5.44943
0
LINE
8
Black
10
14.7392
20
5.44943
11
14.7034
21
5.54771
0
LINE
8
Black
10
14.7034
20
5.54771
11
14.7034
21
5.65229
0
LINE
8
Black
10
14.7034
20
5.65229
11
14.7392
21
5.75057
0
LINE
8
Black
10
14.7392
20
5.75057
11
14.8064
21
5.83069
0
LINE
8
Black
10
14.8064
20
5.83069
11
14.897
21
5.88298
0
LINE
8
Black
10
14.897
20
5.88298
11
15
21
5.90115
0
LINE
8
Black
10
15
20
5.90115
11
15.103
21
5.88298
0
LINE
8
Black
10
15.103
20
5.88298
11
15.1936
21
5.83069
0
LINE
8
Black
10
15.1936
20
5.83069
11
15.2608
21
5.75057
0
LINE
8
Black
10
15.2608
20
5.75057
11
15.2792
21
5.7
0
LINE
8
Black
10
15.2792
20
5.7
11
15.8406
21
5.7
0
LINE
8
Black
10
15.8406
20
5.7
11
18.2973
21
8.1567
0
LINE
8
Black
10
18.2973
20
8.1567
11
18.3009
21
8.15922
0
LINE
8
Black
10
18.3009
20
8.15922
11
18.3037
21
8.16259
0
LINE
8
Black
10
18.3037
20
8.16259
11
18.315
21
8.16912
0
LINE
8
Black
10
18.315
20
8.16912
11
18.3257
21
8.17662
0
LINE
8
Black
10
18.3257
20
8.17662
11
18.33
21
8.17776
0
LINE
8
Black
10
18.33
20
8.17776
11
18.3338
21
8.17996
0
LINE
8
Black
10
18.3338
20
8.17996
11
18.3466
21
8.18223
0
LINE
8
Black
10
18.3466
20
8.18223
11
18.3593
21
8.18561
0
LINE
8
Black
10
18.3593
20
8.18561
11
18.3636
21
8.18523
0
LINE
8
Black
10
18.3636
20
8.18523
11
18.368
21
8.18599
0
LINE
8
Black
10
18.368
20
8.18599
11
22.1757
21
8.18599
0
LINE
8
Black
10
22.1757
20
8.18599
11
22.3208
21
8.18599
0
LINE
8
Black
10
22.3208
20
8.18599
11
22.3392
21
8.23656
0
LINE
8
Black
10
22.3392
20
8.23656
11
22.4064
21
8.31668
0
LINE
8
Black
10
22.4064
20
8.31668
11
22.497
21
8.36897
0
LINE
8
Black
10
22.497
20
8.36897
11
22.6
21
8.38714
0
LINE
8
Black
10
22.6
20
8.38714
11
22.703
21
8.36897
0
LINE
8
Black
10
22.703
20
8.36897
11
22.7936
21
8.31668
0
LINE
8
Black
10
22.7936
20
8.31668
11
22.8608
21
8.23656
0
LINE
8
Black
10
22.8608
20
8.23656
11
22.8966
21
8.13828
0
LINE
8
Black
10
22.8966
20
8.13828
11
22.8966
21
8.0337
0
LINE
8
Black
10
22.8966
20
8.0337
11
22.8608
21
7.93542
0
LINE
8
Black
10
22.8608
20
7.93542
11
22.7936
21
7.8553
0
LINE
8
Black
10
22.7936
20
7.8553
11
22.703
21
7.803
0
LINE
8
Black
10
22.703
20
7.803
11
22.6
21
7.78484
0
LINE
8
Black
10
22.6
20
7.78484
11
22.497
21
7.803
0
LINE
8
Black
10
22.497
20
7.803
11
22.4064
21
7.8553
0
LINE
8
Black
10
22.4064
20
7.8553
11
22.3392
21
7.93542
0
LINE
8
Black
10
22.3392
20
7.93542
11
22.3208
21
7.98599
0
LINE
8
Black
10
22.3208
20
7.98599
11
22.1757
21
7.98599
0
LINE
8
Black
10
22.1757
20
7.98599
11
18.4094
21
7.98599
0
LINE
8
Black
10
18.4094
20
7.98599
11
15.9527
21
5.52929
0
LINE
8
Black
10
3.803
20
10.603
11
3.89357
21
10.5507
0
LINE
8
Black
10
3.89357
20
10.5507
11
3.9608
21
10.4706
0
LINE
8
Black
10
3.9608
20
10.4706
11
3.99657
21
10.3723
0
LINE
8
Black
10
3.99657
20
10.3723
11
3.99657
21
10.2677
0
LINE
8
Black
10
3.99657
20
10.2677
11
3.9608
21
10.1694
0
LINE
8
Black
10
3.9608
20
10.1694
11
3.89357
21
10.0893
0
LINE
8
Black
10
3.89357
20
10.0893
11
3.803
21
10.037
0
LINE
8
Black
10
3.803
20
10.037
11
3.7
21
10.0189
0
LINE
8
Black
10
3.7
20
10.0189
11
3.67
21
10.0241
0
LINE
8
Black
10
3.67
20
10.0241
11
3.67
21
6.57
0
LINE
8
Black
10
3.67
20
6.57
11
3.66924
21
6.56567
0
LINE
8
Black
10
3.66924
20
6.56567
11
3.66962
21
6.56128
0
LINE
8
Black
10
3.66962
20
6.56128
11
3.66624
21
6.54867
0
LINE
8
Black
10
3.66624
20
6.54867
11
3.66397
21
6.5358
0
LINE
8
Black
10
3.66397
20
6.5358
11
3.66177
21
6.53199
0
LINE
8
Black
10
3.66177
20
6.53199
11
3.66063
21
6.52774
0
LINE
8
Black
10
3.66063
20
6.52774
11
3.65314
21
6.51703
0
LINE
8
Black
10
3.65314
20
6.51703
11
3.6466
21
6.50572
0
LINE
8
Black
10
3.6466
20
6.50572
11
3.64323
21
6.50289
0
LINE
8
Black
10
3.64323
20
6.50289
11
3.64071
21
6.49929
0
LINE
8
Black
10
3.64071
20
6.49929
11
2.86912
21
5.7277
0
LINE
8
Black
10
2.86912
20
5.7277
11
2.89657
21
5.65229
0
LINE
8
Black
10
2.89657
20
5.65229
11
2.89657
21
5.54771
0
LINE
8
Black
10
2.89657
20
5.54771
11
2.8608
21
5.44943
0
LINE
8
Black
10
2.8608
20
5.44943
11
2.79357
21
5.36931
0
LINE
8
Black
10
2.79357
20
5.36931
11
2.703
21
5.31701
0
LINE
8
Black
10
2.703
20
5.31701
11
2.6
21
5.29885
0
LINE
8
Black
10
2.6
20
5.29885
11
2.497
21
5.31701
0
LINE
8
Black
10
2.497
20
5.31701
11
2.40643
21
5.36931
0
LINE
8
Black
10
2.40643
20
5.36931
11
2.3392
21
5.44943
0
LINE
8
Black
10
2.3392
20
5.44943
11
2.30343
21
5.54771
0
LINE
8
Black
10
2.30343
20
5.54771
11
2.30343
21
5.65229
0
LINE
8
Black
10
2.30343
20
5.65229
11
2.3392
21
5.75057
0
LINE
8
Black
10
2.3392
20
5.75057
11
2.40643
21
5.83069
0
LINE
8
Black
10
2.40643
20
5.83069
11
2.497
21
5.88298
0
LINE
8
Black
10
2.497
20
5.88298
11
2.6
21
5.90115
0
LINE
8
Black
10
2.6
20
5.90115
11
2.703
21
5.88298
0
LINE
8
Black
10
2.703
20
5.88298
11
2.72745
21
5.86887
0
LINE
8
Black
10
2.72745
20
5.86887
11
3.47
21
6.61142
0
LINE
8
Black
10
3.47
20
6.61142
11
3.47
21
10.1327
0
LINE
8
Black
10
3.47
20
10.1327
11
3.4392
21
10.1694
0
LINE
8
Black
10
3.4392
20
10.1694
11
3.40343
21
10.2677
0
LINE
8
Black
10
3.40343
20
10.2677
11
3.40343
21
10.3723
0
LINE
8
Black
10
3.40343
20
10.3723
11
3.4392
21
10.4706
0
LINE
8
Black
10
3.4392
20
10.4706
11
3.50643
21
10.5507
0
LINE
8
Black
10
3.50643
20
10.5507
11
3.597
21
10.603
0
LINE
8
Black
10
3.597
20
10.603
11
3.7
21
10.6211
0
LINE
8
Black
10
3.7
20
10.6211
11
3.803
21
10.603
0
LINE
8
Black
10
24.903
20
14.083
11
24.9936
21
14.0307
0
LINE
8
Black
10
24.9936
20
14.0307
11
25.0608
21
13.9506
0
LINE
8
Black
10
25.0608
20
13.9506
11
25.0966
21
13.8523
0
LINE
8
Black
10
25.0966
20
13.8523
11
25.0966
21
13.7477
0
LINE
8
Black
10
25.0966
20
13.7477
11
25.0608
21
13.6494
0
LINE
8
Black
10
25.0608
20
13.6494
11
24.9936
21
13.5693
0
LINE
8
Black
10
24.9936
20
13.5693
11
24.903
21
13.517
0
LINE
8
Black
10
24.903
20
13.517
11
24.8
21
13.4989
0
LINE
8
Black
10
24.8
20
13.4989
11
24.697
21
13.517
0
LINE
8
Black
10
24.697
20
13.517
11
24.6726
21
13.5311
0
LINE
8
Black
10
24.6726
20
13.5311
11
20.4707
21
9.32929
0
LINE
8
Black
10
20.4707
20
9.32929
11
20.4671
21
9.32676
0
LINE
8
Black
10
20.4671
20
9.32676
11
20.4643
21
9.3234
0
LINE
8
Black
10
20.4643
20
9.3234
11
20.453
21
9.31687
0
LINE
8
Black
10
20.453
20
9.31687
11
20.4423
21
9.30937
0
LINE
8
Black
10
20.4423
20
9.30937
11
20.438
21
9.30823
0
LINE
8
Black
10
20.438
20
9.30823
11
20.4342
21
9.30603
0
LINE
8
Black
10
20.4342
20
9.30603
11
20.4213
21
9.30376
0
LINE
8
Black
10
20.4213
20
9.30376
11
20.4087
21
9.30038
0
LINE
8
Black
10
20.4087
20
9.30038
11
20.4043
21
9.30076
0
LINE
8
Black
10
20.4043
20
9.30076
11
20.4
21
9.3
0
LINE
8
Black
10
20.4
20
9.3
11
17.4414
21
9.3
0
LINE
8
Black
10
17.4414
20
9.3
11
13.6707
21
5.52929
0
LINE
8
Black
10
13.6707
20
5.52929
11
13.6671
21
5.52676
0
LINE
8
Black
10
13.6671
20
5.52676
11
13.6643
21
5.5234
0
LINE
8
Black
10
13.6643
20
5.5234
11
13.653
21
5.51687
0
LINE
8
Black
10
13.653
20
5.51687
11
13.6423
21
5.50937
0
LINE
8
Black
10
13.6423
20
5.50937
11
13.638
21
5.50823
0
LINE
8
Black
10
13.638
20
5.50823
11
13.6342
21
5.50603
0
LINE
8
Black
10
13.6342
20
5.50603
11
13.6213
21
5.50376
0
LINE
8
Black
10
13.6213
20
5.50376
11
13.6087
21
5.50038
0
LINE
8
Black
10
13.6087
20
5.50038
11
13.6043
21
5.50076
0
LINE
8
Black
10
13.6043
20
5.50076
11
13.6
21
5.5
0
LINE
8
Black
10
13.6
20
5.5
11
10.4792
21
5.5
0
LINE
8
Black
10
10.4792
20
5.5
11
10.4608
21
5.44943
0
LINE
8
Black
10
10.4608
20
5.44943
11
10.3936
21
5.36931
0
LINE
8
Black
10
10.3936
20
5.36931
11
10.303
21
5.31701
0
LINE
8
Black
10
10.303
20
5.31701
11
10.2
21
5.29885
0
LINE
8
Black
10
10.2
20
5.29885
11
10.097
21
5.31701
0
LINE
8
Black
10
10.097
20
5.31701
11
10.0064
21
5.36931
0
LINE
8
Black
10
10.0064
20
5.36931
11
9.9392
21
5.44943
0
LINE
8
Black
10
9.9392
20
5.44943
11
9.90343
21
5.54771
0
LINE
8
Black
10
9.90343
20
5.54771
11
9.90343
21
5.65229
0
LINE
8
Black
10
9.90343
20
5.65229
11
9.9392
21
5.75057
0
LINE
8
Black
10
9.9392
20
5.75057
11
10.0064
21
5.83069
0
LINE
8
Black
10
10.0064
20
5.83069
11
10.097
21
5.88298
0
LINE
8
Black
10
10.097
20
5.88298
11
10.2
21
5.90115
0
LINE
8
Black
10
10.2
20
5.90115
11
10.303
21
5.88298
0
LINE
8
Black
10
10.303
20
5.88298
11
10.3936
21
5.83069
0
LINE
8
Black
10
10.3936
20
5.83069
11
10.4608
21
5.75057
0
LINE
8
Black
10
10.4608
20
5.75057
11
10.4792
21
5.7
0
LINE
8
Black
10
10.4792
20
5.7
11
13.5586
21
5.7
0
LINE
8
Black
10
13.5586
20
5.7
11
17.3293
21
9.47071
0
LINE
8
Black
10
17.3293
20
9.47071
11
17.3329
21
9.47323
0
LINE
8
Black
10
17.3329
20
9.47323
11
17.3357
21
9.4766
0
LINE
8
Black
10
17.3357
20
9.4766
11
17.347
21
9.48314
0
LINE
8
Black
10
17.347
20
9.48314
11
17.3577
21
9.49063
0
LINE
8
Black
10
17.3577
20
9.49063
11
17.362
21
9.49177
0
LINE
8
Black
10
17.362
20
9.49177
11
17.3658
21
9.49397
0
LINE
8
Black
10
17.3658
20
9.49397
11
17.3787
21
9.49624
0
LINE
8
Black
10
17.3787
20
9.49624
11
17.3913
21
9.49962
0
LINE
8
Black
10
17.3913
20
9.49962
11
17.3957
21
9.49924
0
LINE
8
Black
10
17.3957
20
9.49924
11
17.4
21
9.5
0
LINE
8
Black
10
17.4
20
9.5
11
20.3586
21
9.5
0
LINE
8
Black
10
20.3586
20
9.5
11
24.5309
21
13.6723
0
LINE
8
Black
10
24.5309
20
13.6723
11
24.5034
21
13.7477
0
LINE
8
Black
10
24.5034
20
13.7477
11
24.5034
21
13.8523
0
LINE
8
Black
10
24.5034
20
13.8523
11
24.5392
21
13.9506
0
LINE
8
Black
10
24.5392
20
13.9506
11
24.6064
21
14.0307
0
LINE
8
Black
10
24.6064
20
14.0307
11
24.697
21
14.083
0
LINE
8
Black
10
24.697
20
14.083
11
24.8
21
14.1011
0
LINE
8
Black
10
24.8
20
14.1011
11
24.903
21
14.083
0
LINE
8
Black
10
27.833
20
14.013
11
27.9236
21
13.9607
0
LINE
8
Black
10
27.9236
20
13.9607
11
27.9908
21
13.8806
0
LINE
8
Black
10
27.9908
20
13.8806
11
28.0266
21
13.7823
0
LINE
8
Black
10
28.0266
20
13.7823
11
28.0266
21
13.6777
0
LINE
8
Black
10
28.0266
20
13.6777
11
27.9908
21
13.5794
0
LINE
8
Black
10
27.9908
20
13.5794
11
27.9236
21
13.4993
0
LINE
8
Black
10
27.9236
20
13.4993
11
27.833
21
13.447
0
LINE
8
Black
10
27.833
20
13.447
11
27.83
21
13.4465
0
LINE
8
Black
10
27.83
20
13.4465
11
27.83
21
12.13
0
LINE
8
Black
10
27.83
20
12.13
11
27.8292
21
12.1257
0
LINE
8
Black
10
27.8292
20
12.1257
11
27.8296
21
12.1213
0
LINE
8
Black
10
27.8296
20
12.1213
11
27.8262
21
12.1087
0
LINE
8
Black
10
27.8262
20
12.1087
11
27.824
21
12.0958
0
LINE
8
Black
10
27.824
20
12.0958
11
27.8218
21
12.092
0
LINE
8
Black
10
27.8218
20
12.092
11
27.8206
21
12.0877
0
LINE
8
Black
10
27.8206
20
12.0877
11
27.8131
21
12.077
0
LINE
8
Black
10
27.8131
20
12.077
11
27.8066
21
12.0657
0
LINE
8
Black
10
27.8066
20
12.0657
11
27.8032
21
12.0629
0
LINE
8
Black
10
27.8032
20
12.0629
11
27.8007
21
12.0593
0
LINE
8
Black
10
27.8007
20
12.0593
11
27.3
21
11.5586
0
LINE
8
Black
10
27.3
20
11.5586
11
27.3
21
10.1
0
LINE
8
Black
10
27.3
20
10.1
11
27.2992
21
10.0957
0
LINE
8
Black
10
27.2992
20
10.0957
11
27.2996
21
10.0913
0
LINE
8
Black
10
27.2996
20
10.0913
11
27.2962
21
10.0787
0
LINE
8
Black
10
27.2962
20
10.0787
11
27.294
21
10.0658
0
LINE
8
Black
10
27.294
20
10.0658
11
27.2918
21
10.062
0
LINE
8
Black
10
27.2918
20
10.062
11
27.2906
21
10.0577
0
LINE
8
Black
10
27.2906
20
10.0577
11
27.2831
21
10.047
0
LINE
8
Black
10
27.2831
20
10.047
11
27.2766
21
10.0357
0
LINE
8
Black
10
27.2766
20
10.0357
11
27.2732
21
10.0329
0
LINE
8
Black
10
27.2732
20
10.0329
11
27.2707
21
10.0293
0
LINE
8
Black
10
27.2707
20
10.0293
11
23.4707
21
6.22929
0
LINE
8
Black
10
23.4707
20
6.22929
11
23.4671
21
6.22676
0
LINE
8
Black
10
23.4671
20
6.22676
11
23.4643
21
6.2234
0
LINE
8
Black
10
23.4643
20
6.2234
11
23.453
21
6.21687
0
LINE
8
Black
10
23.453
20
6.21687
11
23.4423
21
6.20937
0
LINE
8
Black
10
23.4423
20
6.20937
11
23.438
21
6.20823
0
LINE
8
Black
10
23.438
20
6.20823
11
23.4342
21
6.20603
0
LINE
8
Black
10
23.4342
20
6.20603
11
23.4213
21
6.20376
0
LINE
8
Black
10
23.4213
20
6.20376
11
23.4087
21
6.20038
0
LINE
8
Black
10
23.4087
20
6.20038
11
23.4043
21
6.20076
0
LINE
8
Black
10
23.4043
20
6.20076
11
23.4
21
6.2
0
LINE
8
Black
10
23.4
20
6.2
11
19.4792
21
6.2
0
LINE
8
Black
10
19.4792
20
6.2
11
19.4608
21
6.14943
0
LINE
8
Black
10
19.4608
20
6.14943
11
19.3936
21
6.06931
0
LINE
8
Black
10
19.3936
20
6.06931
11
19.303
21
6.01701
0
LINE
8
Black
10
19.303
20
6.01701
11
19.2
21
5.99885
0
LINE
8
Black
10
19.2
20
5.99885
11
19.097
21
6.01701
0
LINE
8
Black
10
19.097
20
6.01701
11
19.0064
21
6.06931
0
LINE
8
Black
10
19.0064
20
6.06931
11
18.9392
21
6.14943
0
LINE
8
Black
10
18.9392
20
6.14943
11
18.9034
21
6.24771
0
LINE
8
Black
10
18.9034
20
6.24771
11
18.9034
21
6.35229
0
LINE
8
Black
10
18.9034
20
6.35229
11
18.9392
21
6.45057
0
LINE
8
Black
10
18.9392
20
6.45057
11
19.0064
21
6.53069
0
LINE
8
Black
10
19.0064
20
6.53069
11
19.097
21
6.58298
0
LINE
8
Black
10
19.097
20
6.58298
11
19.2
21
6.60115
0
LINE
8
Black
10
19.2
20
6.60115
11
19.303
21
6.58298
0
LINE
8
Black
10
19.303
20
6.58298
11
19.3936
21
6.53069
0
LINE
8
Black
10
19.3936
20
6.53069
11
19.4608
21
6.45057
0
LINE
8
Black
10
19.4608
20
6.45057
11
19.4792
21
6.4
0
LINE
8
Black
10
19.4792
20
6.4
11
23.3586
21
6.4
0
LINE
8
Black
10
23.3586
20
6.4
11
27.1
21
10.1414
0
LINE
8
Black
10
27.1
20
10.1414
11
27.1
21
11.6
0
LINE
8
Black
10
27.1
20
11.6
11
27.1008
21
11.6043
0
LINE
8
Black
10
27.1008
20
11.6043
11
27.1004
21
11.6087
0
LINE
8
Black
10
27.1004
20
11.6087
11
27.1038
21
11.6213
0
LINE
8
Black
10
27.1038
20
11.6213
11
27.106
21
11.6342
0
LINE
8
Black
10
27.106
20
11.6342
11
27.1082
21
11.638
0
LINE
8
Black
10
27.1082
20
11.638
11
27.1094
21
11.6423
0
LINE
8
Black
10
27.1094
20
11.6423
11
27.1169
21
11.653
0
LINE
8
Black
10
27.1169
20
11.653
11
27.1234
21
11.6643
0
LINE
8
Black
10
27.1234
20
11.6643
11
27.1268
21
11.6671
0
LINE
8
Black
10
27.1268
20
11.6671
11
27.1293
21
11.6707
0
LINE
8
Black
10
27.1293
20
11.6707
11
27.63
21
12.1714
0
LINE
8
Black
10
27.63
20
12.1714
11
27.63
21
13.4465
0
LINE
8
Black
10
27.63
20
13.4465
11
27.627
21
13.447
0
LINE
8
Black
10
27.627
20
13.447
11
27.5364
21
13.4993
0
LINE
8
Black
10
27.5364
20
13.4993
11
27.4692
21
13.5794
0
LINE
8
Black
10
27.4692
20
13.5794
11
27.4334
21
13.6777
0
LINE
8
Black
10
27.4334
20
13.6777
11
27.4334
21
13.7823
0
LINE
8
Black
10
27.4334
20
13.7823
11
27.4692
21
13.8806
0
LINE
8
Black
10
27.4692
20
13.8806
11
27.5364
21
13.9607
0
LINE
8
Black
10
27.5364
20
13.9607
11
27.627
21
14.013
0
LINE
8
Black
10
27.627
20
14.013
11
27.73
21
14.0311
0
LINE
8
Black
10
27.73
20
14.0311
11
27.833
21
14.013
0
LINE
8
Black
10
15.803
20
8.78299
11
15.8936
21
8.73069
0
LINE
8
Black
10
15.8936
20
8.73069
11
15.9608
21
8.65057
0
LINE
8
Black
10
15.9608
20
8.65057
11
15.9966
21
8.55229
0
LINE
8
Black
10
15.9966
20
8.55229
11
15.9966
21
8.44771
0
LINE
8
Black
10
15.9966
20
8.44771
11
15.9608
21
8.34943
0
LINE
8
Black
10
15.9608
20
8.34943
11
15.8936
21
8.26931
0
LINE
8
Black
10
15.8936
20
8.26931
11
15.803
21
8.21701
0
LINE
8
Black
10
15.803
20
8.21701
11
15.7
21
8.19885
0
LINE
8
Black
10
15.7
20
8.19885
11
15.597
21
8.21701
0
LINE
8
Black
10
15.597
20
8.21701
11
15.5726
21
8.23113
0
LINE
8
Black
10
15.5726
20
8.23113
11
13.9414
21
6.60002
0
LINE
8
Black
10
13.9414
20
6.60002
11
13.971
21
6.51872
0
LINE
8
Black
10
13.971
20
6.51872
11
13.971
21
6.41414
0
LINE
8
Black
10
13.971
20
6.41414
11
13.9353
21
6.31586
0
LINE
8
Black
10
13.9353
20
6.31586
11
13.868
21
6.23574
0
LINE
8
Black
10
13.868
20
6.23574
11
13.7775
21
6.18345
0
LINE
8
Black
10
13.7775
20
6.18345
11
13.6745
21
6.16528
0
LINE
8
Black
10
13.6745
20
6.16528
11
13.5715
21
6.18345
0
LINE
8
Black
10
13.5715
20
6.18345
11
13.4809
21
6.23574
0
LINE
8
Black
10
13.4809
20
6.23574
11
13.4137
21
6.31586
0
LINE
8
Black
10
13.4137
20
6.31586
11
13.3779
21
6.41414
0
LINE
8
Black
10
13.3779
20
6.41414
11
13.3779
21
6.51872
0
LINE
8
Black
10
13.3779
20
6.51872
11
13.4137
21
6.617
0
LINE
8
Black
10
13.4137
20
6.617
11
13.4809
21
6.69712
0
LINE
8
Black
10
13.4809
20
6.69712
11
13.5715
21
6.74942
0
LINE
8
Black
10
13.5715
20
6.74942
11
13.6745
21
6.76758
0
LINE
8
Black
10
13.6745
20
6.76758
11
13.7775
21
6.74942
0
LINE
8
Black
10
13.7775
20
6.74942
11
13.7968
21
6.73824
0
LINE
8
Black
10
13.7968
20
6.73824
11
15.4309
21
8.3723
0
LINE
8
Black
10
15.4309
20
8.3723
11
15.4034
21
8.44771
0
LINE
8
Black
10
15.4034
20
8.44771
11
15.4034
21
8.55229
0
LINE
8
Black
10
15.4034
20
8.55229
11
15.4392
21
8.65057
0
LINE
8
Black
10
15.4392
20
8.65057
11
15.5064
21
8.73069
0
LINE
8
Black
10
15.5064
20
8.73069
11
15.597
21
8.78299
0
LINE
8
Black
10
15.597
20
8.78299
11
15.7
21
8.80115
0
LINE
8
Black
10
15.7
20
8.80115
11
15.803
21
8.78299
0
LINE
8
Black
10
10.103
20
7.08298
11
10.1936
21
7.03069
0
LINE
8
Black
10
10.1936
20
7.03069
11
10.2608
21
6.95057
0
LINE
8
Black
10
10.2608
20
6.95057
11
10.2966
21
6.85229
0
LINE
8
Black
10
10.2966
20
6.85229
11
10.2966
21
6.74771
0
LINE
8
Black
10
10.2966
20
6.74771
11
10.2608
21
6.64943
0
LINE
8
Black
10
10.2608
20
6.64943
11
10.1936
21
6.56931
0
LINE
8
Black
10
10.1936
20
6.56931
11
10.103
21
6.51701
0
LINE
8
Black
10
10.103
20
6.51701
11
10
21
6.49885
0
LINE
8
Black
10
10
20
6.49885
11
9.897
21
6.51701
0
LINE
8
Black
10
9.897
20
6.51701
11
9.80643
21
6.56931
0
LINE
8
Black
10
9.80643
20
6.56931
11
9.7392
21
6.64943
0
LINE
8
Black
10
9.7392
20
6.64943
11
9.70343
21
6.74771
0
LINE
8
Black
10
9.70343
20
6.74771
11
9.70343
21
6.85229
0
LINE
8
Black
10
9.70343
20
6.85229
11
9.7392
21
6.95057
0
LINE
8
Black
10
9.7392
20
6.95057
11
9.80643
21
7.03069
0
LINE
8
Black
10
9.80643
20
7.03069
11
9.897
21
7.08298
0
LINE
8
Black
10
9.897
20
7.08298
11
10
21
7.10115
0
LINE
8
Black
10
10
20
7.10115
11
10.103
21
7.08298
0
LINE
8
Black
10
20.103
20
7.18298
11
20.1936
21
7.13069
0
LINE
8
Black
10
20.1936
20
7.13069
11
20.2608
21
7.05057
0
LINE
8
Black
10
20.2608
20
7.05057
11
20.2966
21
6.95229
0
LINE
8
Black
10
20.2966
20
6.95229
11
20.2966
21
6.84771
0
LINE
8
Black
10
20.2966
20
6.84771
11
20.2608
21
6.74943
0
LINE
8
Black
10
20.2608
20
6.74943
11
20.1936
21
6.66931
0
LINE
8
Black
10
20.1936
20
6.66931
11
20.103
21
6.61701
0
LINE
8
Black
10
20.103
20
6.61701
11
20
21
6.59885
0
LINE
8
Black
10
20
20
6.59885
11
19.897
21
6.61701
0
LINE
8
Black
10
19.897
20
6.61701
11
19.8064
21
6.66931
0
LINE
8
Black
10
19.8064
20
6.66931
11
19.7392
21
6.74943
0
LINE
8
Black
10
19.7392
20
6.74943
11
19.7034
21
6.84771
0
LINE
8
Black
10
19.7034
20
6.84771
11
19.7034
21
6.95229
0
LINE
8
Black
10
19.7034
20
6.95229
11
19.7392
21
7.05057
0
LINE
8
Black
10
19.7392
20
7.05057
11
19.8064
21
7.13069
0
LINE
8
Black
10
19.8064
20
7.13069
11
19.897
21
7.18298
0
LINE
8
Black
10
19.897
20
7.18298
11
20
21
7.20115
0
LINE
8
Black
10
20
20
7.20115
11
20.103
21
7.18298
0
LINE
8
Black
10
2.77
20
11.1415
11
2.86057
21
11.0892
0
LINE
8
Black
10
2.86057
20
11.0892
11
2.9278
21
11.0091
0
LINE
8
Black
10
2.9278
20
11.0091
11
2.96357
21
10.9108
0
LINE
8
Black
10
2.96357
20
10.9108
11
2.96357
21
10.8062
0
LINE
8
Black
10
2.96357
20
10.8062
11
2.9278
21
10.7079
0
LINE
8
Black
10
2.9278
20
10.7079
11
2.86057
21
10.6278
0
LINE
8
Black
10
2.86057
20
10.6278
11
2.77
21
10.5755
0
LINE
8
Black
10
2.77
20
10.5755
11
2.767
21
10.575
0
LINE
8
Black
10
2.767
20
10.575
11
2.767
21
7.59792
0
LINE
8
Black
10
2.767
20
7.59792
11
2.79355
21
7.57137
0
LINE
8
Black
10
2.79355
20
7.57137
11
2.818
21
7.58548
0
LINE
8
Black
10
2.818
20
7.58548
11
2.921
21
7.60365
0
LINE
8
Black
10
2.921
20
7.60365
11
3.024
21
7.58548
0
LINE
8
Black
10
3.024
20
7.58548
11
3.11457
21
7.53319
0
LINE
8
Black
10
3.11457
20
7.53319
11
3.1818
21
7.45307
0
LINE
8
Black
10
3.1818
20
7.45307
11
3.21757
21
7.35479
0
LINE
8
Black
10
3.21757
20
7.35479
11
3.21757
21
7.25021
0
LINE
8
Black
10
3.21757
20
7.25021
11
3.1818
21
7.15193
0
LINE
8
Black
10
3.1818
20
7.15193
11
3.11457
21
7.07181
0
LINE
8
Black
10
3.11457
20
7.07181
11
3.024
21
7.01951
0
LINE
8
Black
10
3.024
20
7.01951
11
2.921
21
7.00135
0
LINE
8
Black
10
2.921
20
7.00135
11
2.818
21
7.01951
0
LINE
8
Black
10
2.818
20
7.01951
11
2.72743
21
7.07181
0
LINE
8
Black
10
2.72743
20
7.07181
11
2.6602
21
7.15193
0
LINE
8
Black
10
2.6602
20
7.15193
11
2.62443
21
7.25021
0
LINE
8
Black
10
2.62443
20
7.25021
11
2.62443
21
7.35479
0
LINE
8
Black
10
2.62443
20
7.35479
11
2.65188
21
7.4302
0
LINE
8
Black
10
2.65188
20
7.4302
11
2.59629
21
7.48579
0
LINE
8
Black
10
2.59629
20
7.48579
11
2.59376
21
7.48939
0
LINE
8
Black
10
2.59376
20
7.48939
11
2.5904
21
7.49222
0
LINE
8
Black
10
2.5904
20
7.49222
11
2.58387
21
7.50353
0
LINE
8
Black
10
2.58387
20
7.50353
11
2.57637
21
7.51424
0
LINE
8
Black
10
2.57637
20
7.51424
11
2.57523
21
7.51849
0
LINE
8
Black
10
2.57523
20
7.51849
11
2.57303
21
7.5223
0
LINE
8
Black
10
2.57303
20
7.5223
11
2.57076
21
7.53517
0
LINE
8
Black
10
2.57076
20
7.53517
11
2.56738
21
7.54778
0
LINE
8
Black
10
2.56738
20
7.54778
11
2.56776
21
7.55217
0
LINE
8
Black
10
2.56776
20
7.55217
11
2.567
21
7.5565
0
LINE
8
Black
10
2.567
20
7.5565
11
2.567
21
10.575
0
LINE
8
Black
10
2.567
20
10.575
11
2.564
21
10.5755
0
LINE
8
Black
10
2.564
20
10.5755
11
2.47343
21
10.6278
0
LINE
8
Black
10
2.47343
20
10.6278
11
2.4062
21
10.7079
0
LINE
8
Black
10
2.4062
20
10.7079
11
2.37043
21
10.8062
0
LINE
8
Black
10
2.37043
20
10.8062
11
2.37043
21
10.9108
0
LINE
8
Black
10
2.37043
20
10.9108
11
2.4062
21
11.0091
0
LINE
8
Black
10
2.4062
20
11.0091
11
2.47343
21
11.0892
0
LINE
8
Black
10
2.47343
20
11.0892
11
2.564
21
11.1415
0
LINE
8
Black
10
2.564
20
11.1415
11
2.667
21
11.1596
0
LINE
8
Black
10
2.667
20
11.1596
11
2.77
21
11.1415
0
LINE
8
Black
10
23.3225
20
18.571
11
23.4131
21
18.5187
0
LINE
8
Black
10
23.4131
20
18.5187
11
23.4803
21
18.4386
0
LINE
8
Black
10
23.4803
20
18.4386
11
23.5161
21
18.3403
0
LINE
8
Black
10
23.5161
20
18.3403
11
23.5161
21
18.2357
0
LINE
8
Black
10
23.5161
20
18.2357
11
23.4803
21
18.1374
0
LINE
8
Black
10
23.4803
20
18.1374
11
23.4131
21
18.0573
0
LINE
8
Black
10
23.4131
20
18.0573
11
23.3225
21
18.005
0
LINE
8
Black
10
23.3225
20
18.005
11
23.3195
21
18.0045
0
LINE
8
Black
10
23.3195
20
18.0045
11
23.3195
21
13.6195
0
LINE
8
Black
10
23.3195
20
13.6195
11
23.3187
21
13.6152
0
LINE
8
Black
10
23.3187
20
13.6152
11
23.3191
21
13.6108
0
LINE
8
Black
10
23.3191
20
13.6108
11
23.3157
21
13.5982
0
LINE
8
Black
10
23.3157
20
13.5982
11
23.3135
21
13.5853
0
LINE
8
Black
10
23.3135
20
13.5853
11
23.3113
21
13.5815
0
LINE
8
Black
10
23.3113
20
13.5815
11
23.3101
21
13.5772
0
LINE
8
Black
10
23.3101
20
13.5772
11
23.3026
21
13.5665
0
LINE
8
Black
10
23.3026
20
13.5665
11
23.2961
21
13.5552
0
LINE
8
Black
10
23.2961
20
13.5552
11
23.2927
21
13.5524
0
LINE
8
Black
10
23.2927
20
13.5524
11
23.2902
21
13.5488
0
LINE
8
Black
10
23.2902
20
13.5488
11
20.0707
21
10.3293
0
LINE
8
Black
10
20.0707
20
10.3293
11
20.0671
21
10.3268
0
LINE
8
Black
10
20.0671
20
10.3268
11
20.0643
21
10.3234
0
LINE
8
Black
10
20.0643
20
10.3234
11
20.053
21
10.3169
0
LINE
8
Black
10
20.053
20
10.3169
11
20.0423
21
10.3094
0
LINE
8
Black
10
20.0423
20
10.3094
11
20.038
21
10.3082
0
LINE
8
Black
10
20.038
20
10.3082
11
20.0342
21
10.306
0
LINE
8
Black
10
20.0342
20
10.306
11
20.0213
21
10.3038
0
LINE
8
Black
10
20.0213
20
10.3038
11
20.0087
21
10.3004
0
LINE
8
Black
10
20.0087
20
10.3004
11
20.0043
21
10.3008
0
LINE
8
Black
10
20.0043
20
10.3008
11
20
21
10.3
0
LINE
8
Black
10
20
20
10.3
11
9.84142
21
10.3
0
LINE
8
Black
10
9.84142
20
10.3
11
7.22071
21
7.67929
0
LINE
8
Black
10
7.22071
20
7.67929
11
7.21711
21
7.67676
0
LINE
8
Black
10
7.21711
20
7.67676
11
7.21428
21
7.6734
0
LINE
8
Black
10
7.21428
20
7.6734
11
7.20297
21
7.66687
0
LINE
8
Black
10
7.20297
20
7.66687
11
7.19226
21
7.65937
0
LINE
8
Black
10
7.19226
20
7.65937
11
7.18801
21
7.65823
0
LINE
8
Black
10
7.18801
20
7.65823
11
7.1842
21
7.65603
0
LINE
8
Black
10
7.1842
20
7.65603
11
7.17133
21
7.65376
0
LINE
8
Black
10
7.17133
20
7.65376
11
7.15871
21
7.65038
0
LINE
8
Black
10
7.15871
20
7.65038
11
7.15433
21
7.65076
0
LINE
8
Black
10
7.15433
20
7.65076
11
7.15
21
7.65
0
LINE
8
Black
10
7.15
20
7.65
11
6.96921
21
7.65
0
LINE
8
Black
10
6.96921
20
7.65
11
6.9508
21
7.59943
0
LINE
8
Black
10
6.9508
20
7.59943
11
6.88357
21
7.51931
0
LINE
8
Black
10
6.88357
20
7.51931
11
6.793
21
7.46701
0
LINE
8
Black
10
6.793
20
7.46701
11
6.69
21
7.44885
0
LINE
8
Black
10
6.69
20
7.44885
11
6.587
21
7.46701
0
LINE
8
Black
10
6.587
20
7.46701
11
6.49643
21
7.51931
0
LINE
8
Black
10
6.49643
20
7.51931
11
6.4292
21
7.59943
0
LINE
8
Black
10
6.4292
20
7.59943
11
6.39343
21
7.69771
0
LINE
8
Black
10
6.39343
20
7.69771
11
6.39343
21
7.80229
0
LINE
8
Black
10
6.39343
20
7.80229
11
6.4292
21
7.90057
0
LINE
8
Black
10
6.4292
20
7.90057
11
6.49643
21
7.98069
0
LINE
8
Black
10
6.49643
20
7.98069
11
6.587
21
8.03299
0
LINE
8
Black
10
6.587
20
8.03299
11
6.69
21
8.05115
0
LINE
8
Black
10
6.69
20
8.05115
11
6.793
21
8.03299
0
LINE
8
Black
10
6.793
20
8.03299
11
6.88357
21
7.98069
0
LINE
8
Black
10
6.88357
20
7.98069
11
6.9508
21
7.90057
0
LINE
8
Black
10
6.9508
20
7.90057
11
6.96921
21
7.85
0
LINE
8
Black
10
6.96921
20
7.85
11
7.10858
21
7.85
0
LINE
8
Black
10
7.10858
20
7.85
11
9.72929
21
10.4707
0
LINE
8
Black
10
9.72929
20
10.4707
11
9.73289
21
10.4732
0
LINE
8
Black
10
9.73289
20
10.4732
11
9.73572
21
10.4766
0
LINE
8
Black
10
9.73572
20
10.4766
11
9.74703
21
10.4831
0
LINE
8
Black
10
9.74703
20
10.4831
11
9.75774
21
10.4906
0
LINE
8
Black
10
9.75774
20
10.4906
11
9.76199
21
10.4918
0
LINE
8
Black
10
9.76199
20
10.4918
11
9.7658
21
10.494
0
LINE
8
Black
10
9.7658
20
10.494
11
9.77867
21
10.4962
0
LINE
8
Black
10
9.77867
20
10.4962
11
9.79129
21
10.4996
0
LINE
8
Black
10
9.79129
20
10.4996
11
9.79567
21
10.4992
0
LINE
8
Black
10
9.79567
20
10.4992
11
9.8
21
10.5
0
LINE
8
Black
10
9.8
20
10.5
11
19.9586
21
10.5
0
LINE
8
Black
10
19.9586
20
10.5
11
23.1195
21
13.6609
0
LINE
8
Black
10
23.1195
20
13.6609
11
23.1195
21
18.0045
0
LINE
8
Black
10
23.1195
20
18.0045
11
23.1165
21
18.005
0
LINE
8
Black
10
23.1165
20
18.005
11
23.0259
21
18.0573
0
LINE
8
Black
10
23.0259
20
18.0573
11
22.9587
21
18.1374
0
LINE
8
Black
10
22.9587
20
18.1374
11
22.9229
21
18.2357
0
LINE
8
Black
10
22.9229
20
18.2357
11
22.9229
21
18.3403
0
LINE
8
Black
10
22.9229
20
18.3403
11
22.9587
21
18.4386
0
LINE
8
Black
10
22.9587
20
18.4386
11
23.0259
21
18.5187
0
LINE
8
Black
10
23.0259
20
18.5187
11
23.1165
21
18.571
0
LINE
8
Black
10
23.1165
20
18.571
11
23.2195
21
18.5891
0
LINE
8
Black
10
23.2195
20
18.5891
11
23.3225
21
18.571
0
LINE
8
Black
10
26.873
20
28.013
11
26.9636
21
27.9607
0
LINE
8
Black
10
26.9636
20
27.9607
11
27.0308
21
27.8806
0
LINE
8
Black
10
27.0308
20
27.8806
11
27.0666
21
27.7823
0
LINE
8
Black
10
27.0666
20
27.7823
11
27.0666
21
27.6777
0
LINE
8
Black
10
27.0666
20
27.6777
11
27.0308
21
27.5794
0
LINE
8
Black
10
27.0308
20
27.5794
11
26.9636
21
27.4993
0
LINE
8
Black
10
26.9636
20
27.4993
11
26.895
21
27.4597
0
LINE
8
Black
10
26.895
20
27.4597
11
26.895
21
26.2572
0
LINE
8
Black
10
26.895
20
26.2572
11
26.894
21
26.2518
0
LINE
8
Black
10
26.894
20
26.2518
11
26.8945
21
26.2463
0
LINE
8
Black
10
26.8945
20
26.2463
11
26.8903
21
26.2306
0
LINE
8
Black
10
26.8903
20
26.2306
11
26.8875
21
26.2145
0
LINE
8
Black
10
26.8875
20
26.2145
11
26.8847
21
26.2097
0
LINE
8
Black
10
26.8847
20
26.2097
11
26.8833
21
26.2044
0
LINE
8
Black
10
26.8833
20
26.2044
11
26.8739
21
26.191
0
LINE
8
Black
10
26.8739
20
26.191
11
26.8658
21
26.1769
0
LINE
8
Black
10
26.8658
20
26.1769
11
26.8615
21
26.1734
0
LINE
8
Black
10
26.8615
20
26.1734
11
26.8584
21
26.1688
0
LINE
8
Black
10
26.8584
20
26.1688
11
25.925
21
25.2355
0
LINE
8
Black
10
25.925
20
25.2355
11
25.925
21
18.8518
0
LINE
8
Black
10
25.925
20
18.8518
11
26.6884
21
18.0884
0
LINE
8
Black
10
26.6884
20
18.0884
11
26.6915
21
18.0839
0
LINE
8
Black
10
26.6915
20
18.0839
11
26.6958
21
18.0803
0
LINE
8
Black
10
26.6958
20
18.0803
11
26.7039
21
18.0662
0
LINE
8
Black
10
26.7039
20
18.0662
11
26.7133
21
18.0528
0
LINE
8
Black
10
26.7133
20
18.0528
11
26.7147
21
18.0475
0
LINE
8
Black
10
26.7147
20
18.0475
11
26.7175
21
18.0428
0
LINE
8
Black
10
26.7175
20
18.0428
11
26.7203
21
18.0267
0
LINE
8
Black
10
26.7203
20
18.0267
11
26.7245
21
18.0109
0
LINE
8
Black
10
26.7245
20
18.0109
11
26.724
21
18.0054
0
LINE
8
Black
10
26.724
20
18.0054
11
26.725
21
18
0
LINE
8
Black
10
26.725
20
18
11
26.725
21
14.662
0
LINE
8
Black
10
26.725
20
14.662
11
26.7175
21
14.6192
0
LINE
8
Black
10
26.7175
20
14.6192
11
26.6958
21
14.5817
0
LINE
8
Black
10
26.6958
20
14.5817
11
26.6625
21
14.5537
0
LINE
8
Black
10
26.6625
20
14.5537
11
26.6217
21
14.5389
0
LINE
8
Black
10
26.6217
20
14.5389
11
26.6183
21
14.5389
0
LINE
8
Black
10
26.6183
20
14.5389
11
21.0487
21
8.96928
0
LINE
8
Black
10
21.0487
20
8.96928
11
21.0451
21
8.96675
0
LINE
8
Black
10
21.0451
20
8.96675
11
21.0423
21
8.96338
0
LINE
8
Black
10
21.0423
20
8.96338
11
21.031
21
8.95686
0
LINE
8
Black
10
21.031
20
8.95686
11
21.0203
21
8.94936
0
LINE
8
Black
10
21.0203
20
8.94936
11
21.016
21
8.94822
0
LINE
8
Black
10
21.016
20
8.94822
11
21.0122
21
8.94602
0
LINE
8
Black
10
21.0122
20
8.94602
11
20.9993
21
8.94375
0
LINE
8
Black
10
20.9993
20
8.94375
11
20.9867
21
8.94037
0
LINE
8
Black
10
20.9867
20
8.94037
11
20.9823
21
8.94075
0
LINE
8
Black
10
20.9823
20
8.94075
11
20.978
21
8.93999
0
LINE
8
Black
10
20.978
20
8.93999
11
17.9814
21
8.93999
0
LINE
8
Black
10
17.9814
20
8.93999
11
17.0691
21
8.0277
0
LINE
8
Black
10
17.0691
20
8.0277
11
17.0966
21
7.95229
0
LINE
8
Black
10
17.0966
20
7.95229
11
17.0966
21
7.84771
0
LINE
8
Black
10
17.0966
20
7.84771
11
17.0608
21
7.74943
0
LINE
8
Black
10
17.0608
20
7.74943
11
16.9936
21
7.66931
0
LINE
8
Black
10
16.9936
20
7.66931
11
16.903
21
7.61701
0
LINE
8
Black
10
16.903
20
7.61701
11
16.8
21
7.59885
0
LINE
8
Black
10
16.8
20
7.59885
11
16.697
21
7.61701
0
LINE
8
Black
10
16.697
20
7.61701
11
16.6064
21
7.66931
0
LINE
8
Black
10
16.6064
20
7.66931
11
16.5392
21
7.74943
0
LINE
8
Black
10
16.5392
20
7.74943
11
16.5034
21
7.84771
0
LINE
8
Black
10
16.5034
20
7.84771
11
16.5034
21
7.95229
0
LINE
8
Black
10
16.5034
20
7.95229
11
16.5392
21
8.05057
0
LINE
8
Black
10
16.5392
20
8.05057
11
16.6064
21
8.13069
0
LINE
8
Black
10
16.6064
20
8.13069
11
16.697
21
8.18299
0
LINE
8
Black
10
16.697
20
8.18299
11
16.8
21
8.20115
0
LINE
8
Black
10
16.8
20
8.20115
11
16.903
21
8.18299
0
LINE
8
Black
10
16.903
20
8.18299
11
16.9274
21
8.16887
0
LINE
8
Black
10
16.9274
20
8.16887
11
17.8693
21
9.1107
0
LINE
8
Black
10
17.8693
20
9.1107
11
17.8729
21
9.11322
0
LINE
8
Black
10
17.8729
20
9.11322
11
17.8757
21
9.11659
0
LINE
8
Black
10
17.8757
20
9.11659
11
17.887
21
9.12312
0
LINE
8
Black
10
17.887
20
9.12312
11
17.8977
21
9.13062
0
LINE
8
Black
10
17.8977
20
9.13062
11
17.902
21
9.13176
0
LINE
8
Black
10
17.902
20
9.13176
11
17.9058
21
9.13396
0
LINE
8
Black
10
17.9058
20
9.13396
11
17.9187
21
9.13623
0
LINE
8
Black
10
17.9187
20
9.13623
11
17.9313
21
9.13961
0
LINE
8
Black
10
17.9313
20
9.13961
11
17.9357
21
9.13922
0
LINE
8
Black
10
17.9357
20
9.13922
11
17.94
21
9.13999
0
LINE
8
Black
10
17.94
20
9.13999
11
20.9366
21
9.13999
0
LINE
8
Black
10
20.9366
20
9.13999
11
26.475
21
14.6784
0
LINE
8
Black
10
26.475
20
14.6784
11
26.475
21
17.9482
0
LINE
8
Black
10
26.475
20
17.9482
11
25.7116
21
18.7116
0
LINE
8
Black
10
25.7116
20
18.7116
11
25.7085
21
18.7161
0
LINE
8
Black
10
25.7085
20
18.7161
11
25.7042
21
18.7197
0
LINE
8
Black
10
25.7042
20
18.7197
11
25.6961
21
18.7338
0
LINE
8
Black
10
25.6961
20
18.7338
11
25.6867
21
18.7472
0
LINE
8
Black
10
25.6867
20
18.7472
11
25.6853
21
18.7525
0
LINE
8
Black
10
25.6853
20
18.7525
11
25.6825
21
18.7572
0
LINE
8
Black
10
25.6825
20
18.7572
11
25.6797
21
18.7733
0
LINE
8
Black
10
25.6797
20
18.7733
11
25.6755
21
18.7891
0
LINE
8
Black
10
25.6755
20
18.7891
11
25.676
21
18.7946
0
LINE
8
Black
10
25.676
20
18.7946
11
25.675
21
18.8
0
LINE
8
Black
10
25.675
20
18.8
11
25.675
21
25.2872
0
LINE
8
Black
10
25.675
20
25.2872
11
25.676
21
25.2927
0
LINE
8
Black
10
25.676
20
25.2927
11
25.6755
21
25.2981
0
LINE
8
Black
10
25.6755
20
25.2981
11
25.6797
21
25.3139
0
LINE
8
Black
10
25.6797
20
25.3139
11
25.6825
21
25.33
0
LINE
8
Black
10
25.6825
20
25.33
11
25.6853
21
25.3348
0
LINE
8
Black
10
25.6853
20
25.3348
11
25.6867
21
25.3401
0
LINE
8
Black
10
25.6867
20
25.3401
11
25.6961
21
25.3534
0
LINE
8
Black
10
25.6961
20
25.3534
11
25.7042
21
25.3676
0
LINE
8
Black
10
25.7042
20
25.3676
11
25.7085
21
25.3711
0
LINE
8
Black
10
25.7085
20
25.3711
11
25.7116
21
25.3756
0
LINE
8
Black
10
25.7116
20
25.3756
11
26.645
21
26.309
0
LINE
8
Black
10
26.645
20
26.309
11
26.645
21
27.4597
0
LINE
8
Black
10
26.645
20
27.4597
11
26.5764
21
27.4993
0
LINE
8
Black
10
26.5764
20
27.4993
11
26.5092
21
27.5794
0
LINE
8
Black
10
26.5092
20
27.5794
11
26.4734
21
27.6777
0
LINE
8
Black
10
26.4734
20
27.6777
11
26.4734
21
27.7823
0
LINE
8
Black
10
26.4734
20
27.7823
11
26.5092
21
27.8806
0
LINE
8
Black
10
26.5092
20
27.8806
11
26.5764
21
27.9607
0
LINE
8
Black
10
26.5764
20
27.9607
11
26.667
21
28.013
0
LINE
8
Black
10
26.667
20
28.013
11
26.77
21
28.0311
0
LINE
8
Black
10
26.77
20
28.0311
11
26.873
21
28.013
0
LINE
8
Black
10
16.303
20
30.683
11
16.3936
21
30.6307
0
LINE
8
Black
10
16.3936
20
30.6307
11
16.4608
21
30.5506
0
LINE
8
Black
10
16.4608
20
30.5506
11
16.4966
21
30.4523
0
LINE
8
Black
10
16.4966
20
30.4523
11
16.4966
21
30.3477
0
LINE
8
Black
10
16.4966
20
30.3477
11
16.4691
21
30.2723
0
LINE
8
Black
10
16.4691
20
30.2723
11
23.8502
21
22.8912
0
LINE
8
Black
10
23.8502
20
22.8912
11
23.8527
21
22.8876
0
LINE
8
Black
10
23.8527
20
22.8876
11
23.8561
21
22.8848
0
LINE
8
Black
10
23.8561
20
22.8848
11
23.8626
21
22.8735
0
LINE
8
Black
10
23.8626
20
22.8735
11
23.8701
21
22.8628
0
LINE
8
Black
10
23.8701
20
22.8628
11
23.8713
21
22.8585
0
LINE
8
Black
10
23.8713
20
22.8585
11
23.8735
21
22.8547
0
LINE
8
Black
10
23.8735
20
22.8547
11
23.8758
21
22.8418
0
LINE
8
Black
10
23.8758
20
22.8418
11
23.8791
21
22.8292
0
LINE
8
Black
10
23.8791
20
22.8292
11
23.8787
21
22.8248
0
LINE
8
Black
10
23.8787
20
22.8248
11
23.8795
21
22.8205
0
LINE
8
Black
10
23.8795
20
22.8205
11
23.8795
21
18.0192
0
LINE
8
Black
10
23.8795
20
18.0192
11
23.8787
21
18.0149
0
LINE
8
Black
10
23.8787
20
18.0149
11
23.8791
21
18.0105
0
LINE
8
Black
10
23.8791
20
18.0105
11
23.8758
21
17.9979
0
LINE
8
Black
10
23.8758
20
17.9979
11
23.8735
21
17.985
0
LINE
8
Black
10
23.8735
20
17.985
11
23.8713
21
17.9812
0
LINE
8
Black
10
23.8713
20
17.9812
11
23.8701
21
17.9769
0
LINE
8
Black
10
23.8701
20
17.9769
11
23.8695
21
17.976
0
LINE
8
Black
10
23.8695
20
17.976
11
23.8695
21
13.3555
0
LINE
8
Black
10
23.8695
20
13.3555
11
23.8687
21
13.3512
0
LINE
8
Black
10
23.8687
20
13.3512
11
23.8691
21
13.3468
0
LINE
8
Black
10
23.8691
20
13.3468
11
23.8657
21
13.3342
0
LINE
8
Black
10
23.8657
20
13.3342
11
23.8635
21
13.3213
0
LINE
8
Black
10
23.8635
20
13.3213
11
23.8613
21
13.3175
0
LINE
8
Black
10
23.8613
20
13.3175
11
23.8601
21
13.3132
0
LINE
8
Black
10
23.8601
20
13.3132
11
23.8526
21
13.3025
0
LINE
8
Black
10
23.8526
20
13.3025
11
23.8461
21
13.2912
0
LINE
8
Black
10
23.8461
20
13.2912
11
23.8427
21
13.2884
0
LINE
8
Black
10
23.8427
20
13.2884
11
23.8402
21
13.2848
0
LINE
8
Black
10
23.8402
20
13.2848
11
20.3907
21
9.83529
0
LINE
8
Black
10
20.3907
20
9.83529
11
20.3871
21
9.83276
0
LINE
8
Black
10
20.3871
20
9.83276
11
20.3843
21
9.8294
0
LINE
8
Black
10
20.3843
20
9.8294
11
20.373
21
9.82287
0
LINE
8
Black
10
20.373
20
9.82287
11
20.3623
21
9.81537
0
LINE
8
Black
10
20.3623
20
9.81537
11
20.358
21
9.81423
0
LINE
8
Black
10
20.358
20
9.81423
11
20.3542
21
9.81203
0
LINE
8
Black
10
20.3542
20
9.81203
11
20.3413
21
9.80976
0
LINE
8
Black
10
20.3413
20
9.80976
11
20.3287
21
9.80638
0
LINE
8
Black
10
20.3287
20
9.80638
11
20.3243
21
9.80676
0
LINE
8
Black
10
20.3243
20
9.80676
11
20.32
21
9.806
0
LINE
8
Black
10
20.32
20
9.806
11
17.0225
21
9.806
0
LINE
8
Black
10
17.0225
20
9.806
11
16.572
21
9.35544
0
LINE
8
Black
10
16.572
20
9.35544
11
16.572
21
9.35544
0
LINE
8
Black
10
16.572
20
9.35544
11
16.4704
21
9.25386
0
LINE
8
Black
10
16.4704
20
9.25386
11
16.4978
21
9.17845
0
LINE
8
Black
10
16.4978
20
9.17845
11
16.4978
21
9.07386
0
LINE
8
Black
10
16.4978
20
9.07386
11
16.4621
21
8.97558
0
LINE
8
Black
10
16.4621
20
8.97558
11
16.3948
21
8.89546
0
LINE
8
Black
10
16.3948
20
8.89546
11
16.3043
21
8.84317
0
LINE
8
Black
10
16.3043
20
8.84317
11
16.2013
21
8.82501
0
LINE
8
Black
10
16.2013
20
8.82501
11
16.0983
21
8.84317
0
LINE
8
Black
10
16.0983
20
8.84317
11
16.0077
21
8.89546
0
LINE
8
Black
10
16.0077
20
8.89546
11
15.9405
21
8.97558
0
LINE
8
Black
10
15.9405
20
8.97558
11
15.9047
21
9.07386
0
LINE
8
Black
10
15.9047
20
9.07386
11
15.9047
21
9.17845
0
LINE
8
Black
10
15.9047
20
9.17845
11
15.9405
21
9.27673
0
LINE
8
Black
10
15.9405
20
9.27673
11
16.0077
21
9.35685
0
LINE
8
Black
10
16.0077
20
9.35685
11
16.0983
21
9.40914
0
LINE
8
Black
10
16.0983
20
9.40914
11
16.2013
21
9.4273
0
LINE
8
Black
10
16.2013
20
9.4273
11
16.3043
21
9.40914
0
LINE
8
Black
10
16.3043
20
9.40914
11
16.3287
21
9.39503
0
LINE
8
Black
10
16.3287
20
9.39503
11
16.4305
21
9.49686
0
LINE
8
Black
10
16.4305
20
9.49686
11
16.4305
21
9.49687
0
LINE
8
Black
10
16.4305
20
9.49687
11
16.9104
21
9.97671
0
LINE
8
Black
10
16.9104
20
9.97671
11
16.914
21
9.97923
0
LINE
8
Black
10
16.914
20
9.97923
11
16.9168
21
9.9826
0
LINE
8
Black
10
16.9168
20
9.9826
11
16.9281
21
9.98914
0
LINE
8
Black
10
16.9281
20
9.98914
11
16.9388
21
9.99663
0
LINE
8
Black
10
16.9388
20
9.99663
11
16.9431
21
9.99777
0
LINE
8
Black
10
16.9431
20
9.99777
11
16.9469
21
9.99997
0
LINE
8
Black
10
16.9469
20
9.99997
11
16.9598
21
10.0022
0
LINE
8
Black
10
16.9598
20
10.0022
11
16.9724
21
10.0056
0
LINE
8
Black
10
16.9724
20
10.0056
11
16.9768
21
10.0052
0
LINE
8
Black
10
16.9768
20
10.0052
11
16.9811
21
10.006
0
LINE
8
Black
10
16.9811
20
10.006
11
20.2786
21
10.006
0
LINE
8
Black
10
20.2786
20
10.006
11
23.6695
21
13.3969
0
LINE
8
Black
10
23.6695
20
13.3969
11
23.6695
21
18.0092
0
LINE
8
Black
10
23.6695
20
18.0092
11
23.6703
21
18.0135
0
LINE
8
Black
10
23.6703
20
18.0135
11
23.6699
21
18.0179
0
LINE
8
Black
10
23.6699
20
18.0179
11
23.6733
21
18.0305
0
LINE
8
Black
10
23.6733
20
18.0305
11
23.6755
21
18.0434
0
LINE
8
Black
10
23.6755
20
18.0434
11
23.6777
21
18.0472
0
LINE
8
Black
10
23.6777
20
18.0472
11
23.6789
21
18.0515
0
LINE
8
Black
10
23.6789
20
18.0515
11
23.6795
21
18.0524
0
LINE
8
Black
10
23.6795
20
18.0524
11
23.6795
21
22.7791
0
LINE
8
Black
10
23.6795
20
22.7791
11
16.3274
21
30.1311
0
LINE
8
Black
10
16.3274
20
30.1311
11
16.303
21
30.117
0
LINE
8
Black
10
16.303
20
30.117
11
16.2
21
30.0989
0
LINE
8
Black
10
16.2
20
30.0989
11
16.097
21
30.117
0
LINE
8
Black
10
16.097
20
30.117
11
16.0064
21
30.1693
0
LINE
8
Black
10
16.0064
20
30.1693
11
15.9392
21
30.2494
0
LINE
8
Black
10
15.9392
20
30.2494
11
15.9034
21
30.3477
0
LINE
8
Black
10
15.9034
20
30.3477
11
15.9034
21
30.4523
0
LINE
8
Black
10
15.9034
20
30.4523
11
15.9392
21
30.5506
0
LINE
8
Black
10
15.9392
20
30.5506
11
16.0064
21
30.6307
0
LINE
8
Black
10
16.0064
20
30.6307
11
16.097
21
30.683
0
LINE
8
Black
10
16.097
20
30.683
11
16.2
21
30.7011
0
LINE
8
Black
10
16.2
20
30.7011
11
16.303
21
30.683
0
LINE
8
Black
10
6.903
20
12.883
11
6.99357
21
12.8307
0
LINE
8
Black
10
6.99357
20
12.8307
11
7.0608
21
12.7506
0
LINE
8
Black
10
7.0608
20
12.7506
11
7.09657
21
12.6523
0
LINE
8
Black
10
7.09657
20
12.6523
11
7.09657
21
12.5477
0
LINE
8
Black
10
7.09657
20
12.5477
11
7.0608
21
12.4494
0
LINE
8
Black
10
7.0608
20
12.4494
11
6.99357
21
12.3693
0
LINE
8
Black
10
6.99357
20
12.3693
11
6.903
21
12.317
0
LINE
8
Black
10
6.903
20
12.317
11
6.9
21
12.3165
0
LINE
8
Black
10
6.9
20
12.3165
11
6.9
21
11.7
0
LINE
8
Black
10
6.9
20
11.7
11
6.89924
21
11.6957
0
LINE
8
Black
10
6.89924
20
11.6957
11
6.89962
21
11.6913
0
LINE
8
Black
10
6.89962
20
11.6913
11
6.89624
21
11.6787
0
LINE
8
Black
10
6.89624
20
11.6787
11
6.89397
21
11.6658
0
LINE
8
Black
10
6.89397
20
11.6658
11
6.89177
21
11.662
0
LINE
8
Black
10
6.89177
20
11.662
11
6.89063
21
11.6577
0
LINE
8
Black
10
6.89063
20
11.6577
11
6.88314
21
11.647
0
LINE
8
Black
10
6.88314
20
11.647
11
6.8766
21
11.6357
0
LINE
8
Black
10
6.8766
20
11.6357
11
6.87323
21
11.6329
0
LINE
8
Black
10
6.87323
20
11.6329
11
6.87071
21
11.6293
0
LINE
8
Black
10
6.87071
20
11.6293
11
6.54405
21
11.3026
0
LINE
8
Black
10
6.54405
20
11.3026
11
6.54405
21
9.59081
0
LINE
8
Black
10
6.54405
20
9.59081
11
6.54329
21
9.58648
0
LINE
8
Black
10
6.54329
20
9.58648
11
6.54367
21
9.58209
0
LINE
8
Black
10
6.54367
20
9.58209
11
6.54029
21
9.56947
0
LINE
8
Black
10
6.54029
20
9.56947
11
6.53802
21
9.5566
0
LINE
8
Black
10
6.53802
20
9.5566
11
6.53582
21
9.5528
0
LINE
8
Black
10
6.53582
20
9.5528
11
6.53469
21
9.54855
0
LINE
8
Black
10
6.53469
20
9.54855
11
6.52719
21
9.53784
0
LINE
8
Black
10
6.52719
20
9.53784
11
6.52066
21
9.52653
0
LINE
8
Black
10
6.52066
20
9.52653
11
6.51729
21
9.5237
0
LINE
8
Black
10
6.51729
20
9.5237
11
6.51477
21
9.5201
0
LINE
8
Black
10
6.51477
20
9.5201
11
6.41318
21
9.41851
0
LINE
8
Black
10
6.41318
20
9.41851
11
6.44063
21
9.3431
0
LINE
8
Black
10
6.44063
20
9.3431
11
6.44063
21
9.23851
0
LINE
8
Black
10
6.44063
20
9.23851
11
6.40486
21
9.14023
0
LINE
8
Black
10
6.40486
20
9.14023
11
6.33763
21
9.06012
0
LINE
8
Black
10
6.33763
20
9.06012
11
6.24705
21
9.00782
0
LINE
8
Black
10
6.24705
20
9.00782
11
6.14406
21
8.98966
0
LINE
8
Black
10
6.14406
20
8.98966
11
6.04106
21
9.00782
0
LINE
8
Black
10
6.04106
20
9.00782
11
5.95048
21
9.06012
0
LINE
8
Black
10
5.95048
20
9.06012
11
5.88326
21
9.14023
0
LINE
8
Black
10
5.88326
20
9.14023
11
5.84748
21
9.23851
0
LINE
8
Black
10
5.84748
20
9.23851
11
5.84748
21
9.3431
0
LINE
8
Black
10
5.84748
20
9.3431
11
5.88326
21
9.44138
0
LINE
8
Black
10
5.88326
20
9.44138
11
5.95048
21
9.5215
0
LINE
8
Black
10
5.95048
20
9.5215
11
6.04106
21
9.57379
0
LINE
8
Black
10
6.04106
20
9.57379
11
6.14406
21
9.59195
0
LINE
8
Black
10
6.14406
20
9.59195
11
6.24705
21
9.57379
0
LINE
8
Black
10
6.24705
20
9.57379
11
6.2715
21
9.55968
0
LINE
8
Black
10
6.2715
20
9.55968
11
6.34405
21
9.63223
0
LINE
8
Black
10
6.34405
20
9.63223
11
6.34405
21
11.3441
0
LINE
8
Black
10
6.34405
20
11.3441
11
6.34482
21
11.3484
0
LINE
8
Black
10
6.34482
20
11.3484
11
6.34444
21
11.3528
0
LINE
8
Black
10
6.34444
20
11.3528
11
6.34782
21
11.3654
0
LINE
8
Black
10
6.34782
20
11.3654
11
6.35009
21
11.3783
0
LINE
8
Black
10
6.35009
20
11.3783
11
6.35228
21
11.3821
0
LINE
8
Black
10
6.35228
20
11.3821
11
6.35342
21
11.3863
0
LINE
8
Black
10
6.35342
20
11.3863
11
6.36092
21
11.397
0
LINE
8
Black
10
6.36092
20
11.397
11
6.36745
21
11.4083
0
LINE
8
Black
10
6.36745
20
11.4083
11
6.37082
21
11.4112
0
LINE
8
Black
10
6.37082
20
11.4112
11
6.37334
21
11.4148
0
LINE
8
Black
10
6.37334
20
11.4148
11
6.7
21
11.7414
0
LINE
8
Black
10
6.7
20
11.7414
11
6.7
21
12.3165
0
LINE
8
Black
10
6.7
20
12.3165
11
6.697
21
12.317
0
LINE
8
Black
10
6.697
20
12.317
11
6.60643
21
12.3693
0
LINE
8
Black
10
6.60643
20
12.3693
11
6.5392
21
12.4494
0
LINE
8
Black
10
6.5392
20
12.4494
11
6.50343
21
12.5477
0
LINE
8
Black
10
6.50343
20
12.5477
11
6.50343
21
12.6523
0
LINE
8
Black
10
6.50343
20
12.6523
11
6.5392
21
12.7506
0
LINE
8
Black
10
6.5392
20
12.7506
11
6.60643
21
12.8307
0
LINE
8
Black
10
6.60643
20
12.8307
11
6.697
21
12.883
0
LINE
8
Black
10
6.697
20
12.883
11
6.8
21
12.9011
0
LINE
8
Black
10
6.8
20
12.9011
11
6.903
21
12.883
0
LINE
8
Black
10
2.373
20
14.013
11
2.46357
21
13.9607
0
LINE
8
Black
10
2.46357
20
13.9607
11
2.5308
21
13.8806
0
LINE
8
Black
10
2.5308
20
13.8806
11
2.54921
21
13.83
0
LINE
8
Black
10
2.54921
20
13.83
11
3.74276
21
13.83
0
LINE
8
Black
10
3.74276
20
13.83
11
3.7471
21
13.8292
0
LINE
8
Black
10
3.7471
20
13.8292
11
3.75148
21
13.8296
0
LINE
8
Black
10
3.75148
20
13.8296
11
3.7641
21
13.8262
0
LINE
8
Black
10
3.7641
20
13.8262
11
3.77696
21
13.824
0
LINE
8
Black
10
3.77696
20
13.824
11
3.78077
21
13.8218
0
LINE
8
Black
10
3.78077
20
13.8218
11
3.78502
21
13.8206
0
LINE
8
Black
10
3.78502
20
13.8206
11
3.79573
21
13.8131
0
LINE
8
Black
10
3.79573
20
13.8131
11
3.80704
21
13.8066
0
LINE
8
Black
10
3.80704
20
13.8066
11
3.80987
21
13.8032
0
LINE
8
Black
10
3.80987
20
13.8032
11
3.81347
21
13.8007
0
LINE
8
Black
10
3.81347
20
13.8007
11
4.21418
21
13.4
0
LINE
8
Black
10
4.21418
20
13.4
11
7.5
21
13.4
0
LINE
8
Black
10
7.5
20
13.4
11
7.50433
21
13.3992
0
LINE
8
Black
10
7.50433
20
13.3992
11
7.50871
21
13.3996
0
LINE
8
Black
10
7.50871
20
13.3996
11
7.52133
21
13.3962
0
LINE
8
Black
10
7.52133
20
13.3962
11
7.5342
21
13.394
0
LINE
8
Black
10
7.5342
20
13.394
11
7.53801
21
13.3918
0
LINE
8
Black
10
7.53801
20
13.3918
11
7.54226
21
13.3906
0
LINE
8
Black
10
7.54226
20
13.3906
11
7.55297
21
13.3831
0
LINE
8
Black
10
7.55297
20
13.3831
11
7.56428
21
13.3766
0
LINE
8
Black
10
7.56428
20
13.3766
11
7.56711
21
13.3732
0
LINE
8
Black
10
7.56711
20
13.3732
11
7.57071
21
13.3707
0
LINE
8
Black
10
7.57071
20
13.3707
11
10.0774
21
10.864
0
LINE
8
Black
10
10.0774
20
10.864
11
15.8469
21
10.864
0
LINE
8
Black
10
15.8469
20
10.864
11
16.2
21
11.2172
0
LINE
8
Black
10
16.2
20
11.2172
11
16.2
21
11.3165
0
LINE
8
Black
10
16.2
20
11.3165
11
16.197
21
11.317
0
LINE
8
Black
10
16.197
20
11.317
11
16.1064
21
11.3693
0
LINE
8
Black
10
16.1064
20
11.3693
11
16.0392
21
11.4494
0
LINE
8
Black
10
16.0392
20
11.4494
11
16.0034
21
11.5477
0
LINE
8
Black
10
16.0034
20
11.5477
11
16.0034
21
11.6523
0
LINE
8
Black
10
16.0034
20
11.6523
11
16.0392
21
11.7506
0
LINE
8
Black
10
16.0392
20
11.7506
11
16.1064
21
11.8307
0
LINE
8
Black
10
16.1064
20
11.8307
11
16.197
21
11.883
0
LINE
8
Black
10
16.197
20
11.883
11
16.3
21
11.9011
0
LINE
8
Black
10
16.3
20
11.9011
11
16.403
21
11.883
0
LINE
8
Black
10
16.403
20
11.883
11
16.4936
21
11.8307
0
LINE
8
Black
10
16.4936
20
11.8307
11
16.5608
21
11.7506
0
LINE
8
Black
10
16.5608
20
11.7506
11
16.5966
21
11.6523
0
LINE
8
Black
10
16.5966
20
11.6523
11
16.5966
21
11.5477
0
LINE
8
Black
10
16.5966
20
11.5477
11
16.5608
21
11.4494
0
LINE
8
Black
10
16.5608
20
11.4494
11
16.4936
21
11.3693
0
LINE
8
Black
10
16.4936
20
11.3693
11
16.403
21
11.317
0
LINE
8
Black
10
16.403
20
11.317
11
16.4
21
11.3165
0
LINE
8
Black
10
16.4
20
11.3165
11
16.4
21
11.1757
0
LINE
8
Black
10
16.4
20
11.1757
11
16.3992
21
11.1714
0
LINE
8
Black
10
16.3992
20
11.1714
11
16.3996
21
11.167
0
LINE
8
Black
10
16.3996
20
11.167
11
16.3962
21
11.1544
0
LINE
8
Black
10
16.3962
20
11.1544
11
16.394
21
11.1415
0
LINE
8
Black
10
16.394
20
11.1415
11
16.3918
21
11.1377
0
LINE
8
Black
10
16.3918
20
11.1377
11
16.3906
21
11.1335
0
LINE
8
Black
10
16.3906
20
11.1335
11
16.3831
21
11.1228
0
LINE
8
Black
10
16.3831
20
11.1228
11
16.3766
21
11.1115
0
LINE
8
Black
10
16.3766
20
11.1115
11
16.3732
21
11.1086
0
LINE
8
Black
10
16.3732
20
11.1086
11
16.3707
21
11.105
0
LINE
8
Black
10
16.3707
20
11.105
11
15.959
21
10.6933
0
LINE
8
Black
10
15.959
20
10.6933
11
15.9554
21
10.6908
0
LINE
8
Black
10
15.9554
20
10.6908
11
15.9526
21
10.6874
0
LINE
8
Black
10
15.9526
20
10.6874
11
15.9412
21
10.6809
0
LINE
8
Black
10
15.9412
20
10.6809
11
15.9305
21
10.6734
0
LINE
8
Black
10
15.9305
20
10.6734
11
15.9263
21
10.6722
0
LINE
8
Black
10
15.9263
20
10.6722
11
15.9225
21
10.67
0
LINE
8
Black
10
15.9225
20
10.67
11
15.9096
21
10.6678
0
LINE
8
Black
10
15.9096
20
10.6678
11
15.897
21
10.6644
0
LINE
8
Black
10
15.897
20
10.6644
11
15.8926
21
10.6648
0
LINE
8
Black
10
15.8926
20
10.6648
11
15.8883
21
10.664
0
LINE
8
Black
10
15.8883
20
10.664
11
10.036
21
10.664
0
LINE
8
Black
10
10.036
20
10.664
11
10.0317
21
10.6648
0
LINE
8
Black
10
10.0317
20
10.6648
11
10.0273
21
10.6644
0
LINE
8
Black
10
10.0273
20
10.6644
11
10.0147
21
10.6678
0
LINE
8
Black
10
10.0147
20
10.6678
11
10.0018
21
10.67
0
LINE
8
Black
10
10.0018
20
10.67
11
9.99798
21
10.6722
0
LINE
8
Black
10
9.99798
20
10.6722
11
9.99373
21
10.6734
0
LINE
8
Black
10
9.99373
20
10.6734
11
9.98302
21
10.6809
0
LINE
8
Black
10
9.98302
20
10.6809
11
9.97171
21
10.6874
0
LINE
8
Black
10
9.97171
20
10.6874
11
9.96888
21
10.6908
0
LINE
8
Black
10
9.96888
20
10.6908
11
9.96528
21
10.6933
0
LINE
8
Black
10
9.96528
20
10.6933
11
7.45858
21
13.2
0
LINE
8
Black
10
7.45858
20
13.2
11
4.17276
21
13.2
0
LINE
8
Black
10
4.17276
20
13.2
11
4.16843
21
13.2008
0
LINE
8
Black
10
4.16843
20
13.2008
11
4.16405
21
13.2004
0
LINE
8
Black
10
4.16405
20
13.2004
11
4.15143
21
13.2038
0
LINE
8
Black
10
4.15143
20
13.2038
11
4.13856
21
13.206
0
LINE
8
Black
10
4.13856
20
13.206
11
4.13475
21
13.2082
0
LINE
8
Black
10
4.13475
20
13.2082
11
4.1305
21
13.2094
0
LINE
8
Black
10
4.1305
20
13.2094
11
4.11979
21
13.2169
0
LINE
8
Black
10
4.11979
20
13.2169
11
4.10848
21
13.2234
0
LINE
8
Black
10
4.10848
20
13.2234
11
4.10566
21
13.2268
0
LINE
8
Black
10
4.10566
20
13.2268
11
4.10205
21
13.2293
0
LINE
8
Black
10
4.10205
20
13.2293
11
3.70134
21
13.63
0
LINE
8
Black
10
3.70134
20
13.63
11
2.54921
21
13.63
0
LINE
8
Black
10
2.54921
20
13.63
11
2.5308
21
13.5794
0
LINE
8
Black
10
2.5308
20
13.5794
11
2.46357
21
13.4993
0
LINE
8
Black
10
2.46357
20
13.4993
11
2.373
21
13.447
0
LINE
8
Black
10
2.373
20
13.447
11
2.27
21
13.4289
0
LINE
8
Black
10
2.27
20
13.4289
11
2.167
21
13.447
0
LINE
8
Black
10
2.167
20
13.447
11
2.07643
21
13.4993
0
LINE
8
Black
10
2.07643
20
13.4993
11
2.0092
21
13.5794
0
LINE
8
Black
10
2.0092
20
13.5794
11
1.97343
21
13.6777
0
LINE
8
Black
10
1.97343
20
13.6777
11
1.97343
21
13.7823
0
LINE
8
Black
10
1.97343
20
13.7823
11
2.0092
21
13.8806
0
LINE
8
Black
10
2.0092
20
13.8806
11
2.07643
21
13.9607
0
LINE
8
Black
10
2.07643
20
13.9607
11
2.167
21
14.013
0
LINE
8
Black
10
2.167
20
14.013
11
2.27
21
14.0311
0
LINE
8
Black
10
2.27
20
14.0311
11
2.373
21
14.013
0
LINE
8
Black
10
5.21636
20
11.1906
11
5.28359
21
11.2707
0
LINE
8
Black
10
5.28359
20
11.2707
11
5.37416
21
11.323
0
LINE
8
Black
10
5.37416
20
11.323
11
5.47716
21
11.3411
0
LINE
8
Black
10
5.47716
20
11.3411
11
5.58016
21
11.323
0
LINE
8
Black
10
5.58016
20
11.323
11
5.67073
21
11.2707
0
LINE
8
Black
10
5.67073
20
11.2707
11
5.73796
21
11.1906
0
LINE
8
Black
10
5.73796
20
11.1906
11
5.77373
21
11.0923
0
LINE
8
Black
10
5.77373
20
11.0923
11
5.77373
21
10.9877
0
LINE
8
Black
10
5.77373
20
10.9877
11
5.73796
21
10.8894
0
LINE
8
Black
10
5.73796
20
10.8894
11
5.67073
21
10.8093
0
LINE
8
Black
10
5.67073
20
10.8093
11
5.58016
21
10.757
0
LINE
8
Black
10
5.58016
20
10.757
11
5.47716
21
10.7388
0
LINE
8
Black
10
5.47716
20
10.7388
11
5.37416
21
10.757
0
LINE
8
Black
10
5.37416
20
10.757
11
5.28359
21
10.8093
0
LINE
8
Black
10
5.28359
20
10.8093
11
5.21636
21
10.8894
0
LINE
8
Black
10
5.21636
20
10.8894
11
5.19795
21
10.94
0
LINE
8
Black
10
5.19795
20
10.94
11
5.0529
21
10.94
0
LINE
8
Black
10
5.0529
20
10.94
11
3.43801
21
10.94
0
LINE
8
Black
10
3.43801
20
10.94
11
3.43368
21
10.9408
0
LINE
8
Black
10
3.43368
20
10.9408
11
3.42929
21
10.9404
0
LINE
8
Black
10
3.42929
20
10.9404
11
3.41667
21
10.9438
0
LINE
8
Black
10
3.41667
20
10.9438
11
3.40381
21
10.946
0
LINE
8
Black
10
3.40381
20
10.946
11
3.4
21
10.9482
0
LINE
8
Black
10
3.4
20
10.9482
11
3.39575
21
10.9494
0
LINE
8
Black
10
3.39575
20
10.9494
11
3.38505
21
10.9569
0
LINE
8
Black
10
3.38505
20
10.9569
11
3.37373
21
10.9634
0
LINE
8
Black
10
3.37373
20
10.9634
11
3.3709
21
10.9668
0
LINE
8
Black
10
3.3709
20
10.9668
11
3.3673
21
10.9693
0
LINE
8
Black
10
3.3673
20
10.9693
11
0.691289
21
13.6453
0
LINE
8
Black
10
0.691289
20
13.6453
11
0.688764
21
13.6489
0
LINE
8
Black
10
0.688764
20
13.6489
11
0.685396
21
13.6517
0
LINE
8
Black
10
0.685396
20
13.6517
11
0.678867
21
13.663
0
LINE
8
Black
10
0.678867
20
13.663
11
0.671369
21
13.6737
0
LINE
8
Black
10
0.671369
20
13.6737
11
0.67023
21
13.678
0
LINE
8
Black
10
0.67023
20
13.678
11
0.668031
21
13.6818
0
LINE
8
Black
10
0.668031
20
13.6818
11
0.665762
21
13.6947
0
LINE
8
Black
10
0.665762
20
13.6947
11
0.662381
21
13.7073
0
LINE
8
Black
10
0.662381
20
13.7073
11
0.662764
21
13.7117
0
LINE
8
Black
10
0.662764
20
13.7117
11
0.662
21
13.716
0
LINE
8
Black
10
0.662
20
13.716
11
0.662
21
16.764
0
LINE
8
Black
10
0.662
20
16.764
11
0.662764
21
16.7683
0
LINE
8
Black
10
0.662764
20
16.7683
11
0.662381
21
16.7727
0
LINE
8
Black
10
0.662381
20
16.7727
11
0.665762
21
16.7853
0
LINE
8
Black
10
0.665762
20
16.7853
11
0.668031
21
16.7982
0
LINE
8
Black
10
0.668031
20
16.7982
11
0.67023
21
16.802
0
LINE
8
Black
10
0.67023
20
16.802
11
0.671369
21
16.8063
0
LINE
8
Black
10
0.671369
20
16.8063
11
0.678867
21
16.817
0
LINE
8
Black
10
0.678867
20
16.817
11
0.685396
21
16.8283
0
LINE
8
Black
10
0.685396
20
16.8283
11
0.688764
21
16.8311
0
LINE
8
Black
10
0.688764
20
16.8311
11
0.691289
21
16.8347
0
LINE
8
Black
10
0.691289
20
16.8347
11
2.02649
21
18.1699
0
LINE
8
Black
10
2.02649
20
18.1699
11
2.02649
21
24.7041
0
LINE
8
Black
10
2.02649
20
24.7041
11
1.91929
21
24.8113
0
LINE
8
Black
10
1.91929
20
24.8113
11
1.91676
21
24.8149
0
LINE
8
Black
10
1.91676
20
24.8149
11
1.91339
21
24.8177
0
LINE
8
Black
10
1.91339
20
24.8177
11
1.90686
21
24.829
0
LINE
8
Black
10
1.90686
20
24.829
11
1.89937
21
24.8397
0
LINE
8
Black
10
1.89937
20
24.8397
11
1.89823
21
24.844
0
LINE
8
Black
10
1.89823
20
24.844
11
1.89603
21
24.8478
0
LINE
8
Black
10
1.89603
20
24.8478
11
1.89376
21
24.8607
0
LINE
8
Black
10
1.89376
20
24.8607
11
1.89038
21
24.8733
0
LINE
8
Black
10
1.89038
20
24.8733
11
1.89076
21
24.8777
0
LINE
8
Black
10
1.89076
20
24.8777
11
1.89
21
24.882
0
LINE
8
Black
10
1.89
20
24.882
11
1.89
21
26.49
0
LINE
8
Black
10
1.89
20
26.49
11
1.89076
21
26.4943
0
LINE
8
Black
10
1.89076
20
26.4943
11
1.89038
21
26.4987
0
LINE
8
Black
10
1.89038
20
26.4987
11
1.89376
21
26.5113
0
LINE
8
Black
10
1.89376
20
26.5113
11
1.89603
21
26.5242
0
LINE
8
Black
10
1.89603
20
26.5242
11
1.89823
21
26.528
0
LINE
8
Black
10
1.89823
20
26.528
11
1.89937
21
26.5323
0
LINE
8
Black
10
1.89937
20
26.5323
11
1.90686
21
26.543
0
LINE
8
Black
10
1.90686
20
26.543
11
1.91339
21
26.5543
0
LINE
8
Black
10
1.91339
20
26.5543
11
1.91676
21
26.5571
0
LINE
8
Black
10
1.91676
20
26.5571
11
1.91929
21
26.5607
0
LINE
8
Black
10
1.91929
20
26.5607
11
2.96088
21
27.6023
0
LINE
8
Black
10
2.96088
20
27.6023
11
2.93343
21
27.6777
0
LINE
8
Black
10
2.93343
20
27.6777
11
2.93343
21
27.7823
0
LINE
8
Black
10
2.93343
20
27.7823
11
2.9692
21
27.8806
0
LINE
8
Black
10
2.9692
20
27.8806
11
3.03643
21
27.9607
0
LINE
8
Black
10
3.03643
20
27.9607
11
3.127
21
28.013
0
LINE
8
Black
10
3.127
20
28.013
11
3.23
21
28.0311
0
LINE
8
Black
10
3.23
20
28.0311
11
3.333
21
28.013
0
LINE
8
Black
10
3.333
20
28.013
11
3.42357
21
27.9607
0
LINE
8
Black
10
3.42357
20
27.9607
11
3.4908
21
27.8806
0
LINE
8
Black
10
3.4908
20
27.8806
11
3.52657
21
27.7823
0
LINE
8
Black
10
3.52657
20
27.7823
11
3.52657
21
27.6777
0
LINE
8
Black
10
3.52657
20
27.6777
11
3.4908
21
27.5794
0
LINE
8
Black
10
3.4908
20
27.5794
11
3.42357
21
27.4993
0
LINE
8
Black
10
3.42357
20
27.4993
11
3.333
21
27.447
0
LINE
8
Black
10
3.333
20
27.447
11
3.23
21
27.4289
0
LINE
8
Black
10
3.23
20
27.4289
11
3.127
21
27.447
0
LINE
8
Black
10
3.127
20
27.447
11
3.10255
21
27.4611
0
LINE
8
Black
10
3.10255
20
27.4611
11
2.09
21
26.4486
0
LINE
8
Black
10
2.09
20
26.4486
11
2.09
21
24.9234
0
LINE
8
Black
10
2.09
20
24.9234
11
2.1972
21
24.8162
0
LINE
8
Black
10
2.1972
20
24.8162
11
2.19973
21
24.8126
0
LINE
8
Black
10
2.19973
20
24.8126
11
2.20309
21
24.8098
0
LINE
8
Black
10
2.20309
20
24.8098
11
2.20962
21
24.7985
0
LINE
8
Black
10
2.20962
20
24.7985
11
2.21712
21
24.7878
0
LINE
8
Black
10
2.21712
20
24.7878
11
2.21826
21
24.7835
0
LINE
8
Black
10
2.21826
20
24.7835
11
2.22046
21
24.7797
0
LINE
8
Black
10
2.22046
20
24.7797
11
2.22273
21
24.7668
0
LINE
8
Black
10
2.22273
20
24.7668
11
2.22611
21
24.7542
0
LINE
8
Black
10
2.22611
20
24.7542
11
2.22573
21
24.7498
0
LINE
8
Black
10
2.22573
20
24.7498
11
2.22649
21
24.7455
0
LINE
8
Black
10
2.22649
20
24.7455
11
2.22649
21
18.1285
0
LINE
8
Black
10
2.22649
20
18.1285
11
2.22572
21
18.1242
0
LINE
8
Black
10
2.22572
20
18.1242
11
2.22611
21
18.1198
0
LINE
8
Black
10
2.22611
20
18.1198
11
2.22273
21
18.1072
0
LINE
8
Black
10
2.22273
20
18.1072
11
2.22046
21
18.0943
0
LINE
8
Black
10
2.22046
20
18.0943
11
2.21826
21
18.0905
0
LINE
8
Black
10
2.21826
20
18.0905
11
2.21712
21
18.0862
0
LINE
8
Black
10
2.21712
20
18.0862
11
2.20962
21
18.0755
0
LINE
8
Black
10
2.20962
20
18.0755
11
2.20309
21
18.0642
0
LINE
8
Black
10
2.20309
20
18.0642
11
2.19972
21
18.0614
0
LINE
8
Black
10
2.19972
20
18.0614
11
2.1972
21
18.0578
0
LINE
8
Black
10
2.1972
20
18.0578
11
0.862
21
16.7226
0
LINE
8
Black
10
0.862
20
16.7226
11
0.862
21
13.7574
0
LINE
8
Black
10
0.862
20
13.7574
11
3.47943
21
11.14
0
LINE
8
Black
10
3.47943
20
11.14
11
5.0529
21
11.14
0
LINE
8
Black
10
5.0529
20
11.14
11
5.19795
21
11.14
0
LINE
8
Black
10
5.19795
20
11.14
11
5.21636
21
11.1906
0
LINE
8
Black
10
13.9743
20
28.7377
11
13.9787
21
28.7381
0
LINE
8
Black
10
13.9787
20
28.7381
11
13.9913
21
28.7347
0
LINE
8
Black
10
13.9913
20
28.7347
11
14.0042
21
28.7325
0
LINE
8
Black
10
14.0042
20
28.7325
11
14.008
21
28.7303
0
LINE
8
Black
10
14.008
20
28.7303
11
14.0123
21
28.7291
0
LINE
8
Black
10
14.0123
20
28.7291
11
14.023
21
28.7216
0
LINE
8
Black
10
14.023
20
28.7216
11
14.0343
21
28.7151
0
LINE
8
Black
10
14.0343
20
28.7151
11
14.0371
21
28.7117
0
LINE
8
Black
10
14.0371
20
28.7117
11
14.0407
21
28.7092
0
LINE
8
Black
10
14.0407
20
28.7092
11
22.6132
21
20.1367
0
LINE
8
Black
10
22.6132
20
20.1367
11
22.6157
21
20.1331
0
LINE
8
Black
10
22.6157
20
20.1331
11
22.6191
21
20.1303
0
LINE
8
Black
10
22.6191
20
20.1303
11
22.6256
21
20.119
0
LINE
8
Black
10
22.6256
20
20.119
11
22.6331
21
20.1083
0
LINE
8
Black
10
22.6331
20
20.1083
11
22.6343
21
20.104
0
LINE
8
Black
10
22.6343
20
20.104
11
22.6365
21
20.1002
0
LINE
8
Black
10
22.6365
20
20.1002
11
22.6387
21
20.0873
0
LINE
8
Black
10
22.6387
20
20.0873
11
22.6421
21
20.0747
0
LINE
8
Black
10
22.6421
20
20.0747
11
22.6417
21
20.0703
0
LINE
8
Black
10
22.6417
20
20.0703
11
22.6425
21
20.066
0
LINE
8
Black
10
22.6425
20
20.066
11
22.6425
21
13.9065
0
LINE
8
Black
10
22.6425
20
13.9065
11
22.6417
21
13.9022
0
LINE
8
Black
10
22.6417
20
13.9022
11
22.6421
21
13.8978
0
LINE
8
Black
10
22.6421
20
13.8978
11
22.6387
21
13.8852
0
LINE
8
Black
10
22.6387
20
13.8852
11
22.6365
21
13.8723
0
LINE
8
Black
10
22.6365
20
13.8723
11
22.6343
21
13.8685
0
LINE
8
Black
10
22.6343
20
13.8685
11
22.6331
21
13.8642
0
LINE
8
Black
10
22.6331
20
13.8642
11
22.6256
21
13.8535
0
LINE
8
Black
10
22.6256
20
13.8535
11
22.6191
21
13.8422
0
LINE
8
Black
10
22.6191
20
13.8422
11
22.6157
21
13.8394
0
LINE
8
Black
10
22.6157
20
13.8394
11
22.6132
21
13.8358
0
LINE
8
Black
10
22.6132
20
13.8358
11
21.0892
21
12.3118
0
LINE
8
Black
10
21.0892
20
12.3118
11
21.0856
21
12.3093
0
LINE
8
Black
10
21.0856
20
12.3093
11
21.0828
21
12.3059
0
LINE
8
Black
10
21.0828
20
12.3059
11
21.0715
21
12.2994
0
LINE
8
Black
10
21.0715
20
12.2994
11
21.0608
21
12.2919
0
LINE
8
Black
10
21.0608
20
12.2919
11
21.0565
21
12.2907
0
LINE
8
Black
10
21.0565
20
12.2907
11
21.0527
21
12.2885
0
LINE
8
Black
10
21.0527
20
12.2885
11
21.0398
21
12.2863
0
LINE
8
Black
10
21.0398
20
12.2863
11
21.0272
21
12.2829
0
LINE
8
Black
10
21.0272
20
12.2829
11
21.0228
21
12.2833
0
LINE
8
Black
10
21.0228
20
12.2833
11
21.0185
21
12.2825
0
LINE
8
Black
10
21.0185
20
12.2825
11
15.5354
21
12.2825
0
LINE
8
Black
10
15.5354
20
12.2825
11
15.5
21
12.2471
0
LINE
8
Black
10
15.5
20
12.2471
11
15.5
21
11.6835
0
LINE
8
Black
10
15.5
20
11.6835
11
15.503
21
11.683
0
LINE
8
Black
10
15.503
20
11.683
11
15.5936
21
11.6307
0
LINE
8
Black
10
15.5936
20
11.6307
11
15.6608
21
11.5506
0
LINE
8
Black
10
15.6608
20
11.5506
11
15.6966
21
11.4523
0
LINE
8
Black
10
15.6966
20
11.4523
11
15.6966
21
11.3477
0
LINE
8
Black
10
15.6966
20
11.3477
11
15.6608
21
11.2494
0
LINE
8
Black
10
15.6608
20
11.2494
11
15.5936
21
11.1693
0
LINE
8
Black
10
15.5936
20
11.1693
11
15.503
21
11.117
0
LINE
8
Black
10
15.503
20
11.117
11
15.4
21
11.0989
0
LINE
8
Black
10
15.4
20
11.0989
11
15.297
21
11.117
0
LINE
8
Black
10
15.297
20
11.117
11
15.2064
21
11.1693
0
LINE
8
Black
10
15.2064
20
11.1693
11
15.1392
21
11.2494
0
LINE
8
Black
10
15.1392
20
11.2494
11
15.1034
21
11.3477
0
LINE
8
Black
10
15.1034
20
11.3477
11
15.1034
21
11.4523
0
LINE
8
Black
10
15.1034
20
11.4523
11
15.1392
21
11.5506
0
LINE
8
Black
10
15.1392
20
11.5506
11
15.2064
21
11.6307
0
LINE
8
Black
10
15.2064
20
11.6307
11
15.297
21
11.683
0
LINE
8
Black
10
15.297
20
11.683
11
15.3
21
11.6835
0
LINE
8
Black
10
15.3
20
11.6835
11
15.3
21
12.2885
0
LINE
8
Black
10
15.3
20
12.2885
11
15.3008
21
12.2928
0
LINE
8
Black
10
15.3008
20
12.2928
11
15.3004
21
12.2972
0
LINE
8
Black
10
15.3004
20
12.2972
11
15.3038
21
12.3098
0
LINE
8
Black
10
15.3038
20
12.3098
11
15.306
21
12.3227
0
LINE
8
Black
10
15.306
20
12.3227
11
15.3082
21
12.3265
0
LINE
8
Black
10
15.3082
20
12.3265
11
15.3094
21
12.3308
0
LINE
8
Black
10
15.3094
20
12.3308
11
15.3169
21
12.3415
0
LINE
8
Black
10
15.3169
20
12.3415
11
15.3234
21
12.3528
0
LINE
8
Black
10
15.3234
20
12.3528
11
15.3268
21
12.3556
0
LINE
8
Black
10
15.3268
20
12.3556
11
15.3293
21
12.3592
0
LINE
8
Black
10
15.3293
20
12.3592
11
15.4233
21
12.4532
0
LINE
8
Black
10
15.4233
20
12.4532
11
15.4269
21
12.4557
0
LINE
8
Black
10
15.4269
20
12.4557
11
15.4297
21
12.4591
0
LINE
8
Black
10
15.4297
20
12.4591
11
15.441
21
12.4656
0
LINE
8
Black
10
15.441
20
12.4656
11
15.4517
21
12.4731
0
LINE
8
Black
10
15.4517
20
12.4731
11
15.456
21
12.4743
0
LINE
8
Black
10
15.456
20
12.4743
11
15.4598
21
12.4765
0
LINE
8
Black
10
15.4598
20
12.4765
11
15.4727
21
12.4787
0
LINE
8
Black
10
15.4727
20
12.4787
11
15.4853
21
12.4821
0
LINE
8
Black
10
15.4853
20
12.4821
11
15.4897
21
12.4817
0
LINE
8
Black
10
15.4897
20
12.4817
11
15.494
21
12.4825
0
LINE
8
Black
10
15.494
20
12.4825
11
20.9771
21
12.4825
0
LINE
8
Black
10
20.9771
20
12.4825
11
22.4425
21
13.9479
0
LINE
8
Black
10
22.4425
20
13.9479
11
22.4425
21
20.0246
0
LINE
8
Black
10
22.4425
20
20.0246
11
13.9286
21
28.5385
0
LINE
8
Black
10
13.9286
20
28.5385
11
12.3604
21
28.5385
0
LINE
8
Black
10
12.3604
20
28.5385
11
11.4812
21
27.6593
0
LINE
8
Black
10
11.4812
20
27.6593
11
11.4776
21
27.6568
0
LINE
8
Black
10
11.4776
20
27.6568
11
11.4748
21
27.6534
0
LINE
8
Black
10
11.4748
20
27.6534
11
11.4635
21
27.6469
0
LINE
8
Black
10
11.4635
20
27.6469
11
11.4528
21
27.6394
0
LINE
8
Black
10
11.4528
20
27.6394
11
11.4485
21
27.6382
0
LINE
8
Black
10
11.4485
20
27.6382
11
11.4447
21
27.636
0
LINE
8
Black
10
11.4447
20
27.636
11
11.4318
21
27.6338
0
LINE
8
Black
10
11.4318
20
27.6338
11
11.4192
21
27.6304
0
LINE
8
Black
10
11.4192
20
27.6304
11
11.4148
21
27.6308
0
LINE
8
Black
10
11.4148
20
27.6308
11
11.4105
21
27.63
0
LINE
8
Black
10
11.4105
20
27.63
11
6.04921
21
27.63
0
LINE
8
Black
10
6.04921
20
27.63
11
6.0308
21
27.5794
0
LINE
8
Black
10
6.0308
20
27.5794
11
5.96357
21
27.4993
0
LINE
8
Black
10
5.96357
20
27.4993
11
5.873
21
27.447
0
LINE
8
Black
10
5.873
20
27.447
11
5.77
21
27.4289
0
LINE
8
Black
10
5.77
20
27.4289
11
5.667
21
27.447
0
LINE
8
Black
10
5.667
20
27.447
11
5.57643
21
27.4993
0
LINE
8
Black
10
5.57643
20
27.4993
11
5.5092
21
27.5794
0
LINE
8
Black
10
5.5092
20
27.5794
11
5.47343
21
27.6777
0
LINE
8
Black
10
5.47343
20
27.6777
11
5.47343
21
27.7823
0
LINE
8
Black
10
5.47343
20
27.7823
11
5.5092
21
27.8806
0
LINE
8
Black
10
5.5092
20
27.8806
11
5.57643
21
27.9607
0
LINE
8
Black
10
5.57643
20
27.9607
11
5.667
21
28.013
0
LINE
8
Black
10
5.667
20
28.013
11
5.77
21
28.0311
0
LINE
8
Black
10
5.77
20
28.0311
11
5.873
21
28.013
0
LINE
8
Black
10
5.873
20
28.013
11
5.96357
21
27.9607
0
LINE
8
Black
10
5.96357
20
27.9607
11
6.0308
21
27.8806
0
LINE
8
Black
10
6.0308
20
27.8806
11
6.04921
21
27.83
0
LINE
8
Black
10
6.04921
20
27.83
11
11.3691
21
27.83
0
LINE
8
Black
10
11.3691
20
27.83
11
12.2483
21
28.7092
0
LINE
8
Black
10
12.2483
20
28.7092
11
12.2519
21
28.7117
0
LINE
8
Black
10
12.2519
20
28.7117
11
12.2547
21
28.7151
0
LINE
8
Black
10
12.2547
20
28.7151
11
12.266
21
28.7216
0
LINE
8
Black
10
12.266
20
28.7216
11
12.2767
21
28.7291
0
LINE
8
Black
10
12.2767
20
28.7291
11
12.281
21
28.7303
0
LINE
8
Black
10
12.281
20
28.7303
11
12.2848
21
28.7325
0
LINE
8
Black
10
12.2848
20
28.7325
11
12.2977
21
28.7347
0
LINE
8
Black
10
12.2977
20
28.7347
11
12.3103
21
28.7381
0
LINE
8
Black
10
12.3103
20
28.7381
11
12.3147
21
28.7377
0
LINE
8
Black
10
12.3147
20
28.7377
11
12.319
21
28.7385
0
LINE
8
Black
10
12.319
20
28.7385
11
13.97
21
28.7385
0
LINE
8
Black
10
13.97
20
28.7385
11
13.9743
21
28.7377
0
LINE
8
Black
10
2.373
20
16.553
11
2.46357
21
16.5007
0
LINE
8
Black
10
2.46357
20
16.5007
11
2.5308
21
16.4206
0
LINE
8
Black
10
2.5308
20
16.4206
11
2.56657
21
16.3223
0
LINE
8
Black
10
2.56657
20
16.3223
11
2.56657
21
16.2177
0
LINE
8
Black
10
2.56657
20
16.2177
11
2.5308
21
16.1194
0
LINE
8
Black
10
2.5308
20
16.1194
11
2.46357
21
16.0393
0
LINE
8
Black
10
2.46357
20
16.0393
11
2.373
21
15.987
0
LINE
8
Black
10
2.373
20
15.987
11
2.27
21
15.9689
0
LINE
8
Black
10
2.27
20
15.9689
11
2.167
21
15.987
0
LINE
8
Black
10
2.167
20
15.987
11
2.14255
21
16.0011
0
LINE
8
Black
10
2.14255
20
16.0011
11
1.3286
21
15.1872
0
LINE
8
Black
10
1.3286
20
15.1872
11
1.3286
21
13.8128
0
LINE
8
Black
10
1.3286
20
13.8128
11
3.44142
21
11.7
0
LINE
8
Black
10
3.44142
20
11.7
11
5.44234
21
11.7
0
LINE
8
Black
10
5.44234
20
11.7
11
5.67575
21
11.9334
0
LINE
8
Black
10
5.67575
20
11.9334
11
5.67936
21
11.9359
0
LINE
8
Black
10
5.67936
20
11.9359
11
5.68219
21
11.9393
0
LINE
8
Black
10
5.68219
20
11.9393
11
5.6935
21
11.9458
0
LINE
8
Black
10
5.6935
20
11.9458
11
5.7042
21
11.9533
0
LINE
8
Black
10
5.7042
20
11.9533
11
5.70845
21
11.9545
0
LINE
8
Black
10
5.70845
20
11.9545
11
5.71226
21
11.9567
0
LINE
8
Black
10
5.71226
20
11.9567
11
5.72513
21
11.9589
0
LINE
8
Black
10
5.72513
20
11.9589
11
5.73775
21
11.9623
0
LINE
8
Black
10
5.73775
20
11.9623
11
5.74213
21
11.9619
0
LINE
8
Black
10
5.74213
20
11.9619
11
5.74646
21
11.9627
0
LINE
8
Black
10
5.74646
20
11.9627
11
5.89152
21
11.9627
0
LINE
8
Black
10
5.89152
20
11.9627
11
5.90993
21
12.0133
0
LINE
8
Black
10
5.90993
20
12.0133
11
5.97716
21
12.0934
0
LINE
8
Black
10
5.97716
20
12.0934
11
6.06773
21
12.1457
0
LINE
8
Black
10
6.06773
20
12.1457
11
6.17073
21
12.1638
0
LINE
8
Black
10
6.17073
20
12.1638
11
6.27373
21
12.1457
0
LINE
8
Black
10
6.27373
20
12.1457
11
6.3643
21
12.0934
0
LINE
8
Black
10
6.3643
20
12.0934
11
6.43153
21
12.0133
0
LINE
8
Black
10
6.43153
20
12.0133
11
6.4673
21
11.915
0
LINE
8
Black
10
6.4673
20
11.915
11
6.4673
21
11.8104
0
LINE
8
Black
10
6.4673
20
11.8104
11
6.43153
21
11.7121
0
LINE
8
Black
10
6.43153
20
11.7121
11
6.3643
21
11.632
0
LINE
8
Black
10
6.3643
20
11.632
11
6.27373
21
11.5797
0
LINE
8
Black
10
6.27373
20
11.5797
11
6.17073
21
11.5616
0
LINE
8
Black
10
6.17073
20
11.5616
11
6.06773
21
11.5797
0
LINE
8
Black
10
6.06773
20
11.5797
11
5.97716
21
11.632
0
LINE
8
Black
10
5.97716
20
11.632
11
5.90993
21
11.7121
0
LINE
8
Black
10
5.90993
20
11.7121
11
5.89152
21
11.7627
0
LINE
8
Black
10
5.89152
20
11.7627
11
5.78789
21
11.7627
0
LINE
8
Black
10
5.78789
20
11.7627
11
5.55447
21
11.5293
0
LINE
8
Black
10
5.55447
20
11.5293
11
5.55087
21
11.5268
0
LINE
8
Black
10
5.55087
20
11.5268
11
5.54804
21
11.5234
0
LINE
8
Black
10
5.54804
20
11.5234
11
5.53673
21
11.5169
0
LINE
8
Black
10
5.53673
20
11.5169
11
5.52602
21
11.5094
0
LINE
8
Black
10
5.52602
20
11.5094
11
5.52177
21
11.5082
0
LINE
8
Black
10
5.52177
20
11.5082
11
5.51796
21
11.506
0
LINE
8
Black
10
5.51796
20
11.506
11
5.5051
21
11.5038
0
LINE
8
Black
10
5.5051
20
11.5038
11
5.49248
21
11.5004
0
LINE
8
Black
10
5.49248
20
11.5004
11
5.4881
21
11.5008
0
LINE
8
Black
10
5.4881
20
11.5008
11
5.48376
21
11.5
0
LINE
8
Black
10
5.48376
20
11.5
11
3.4
21
11.5
0
LINE
8
Black
10
3.4
20
11.5
11
3.39567
21
11.5008
0
LINE
8
Black
10
3.39567
20
11.5008
11
3.39128
21
11.5004
0
LINE
8
Black
10
3.39128
20
11.5004
11
3.37867
21
11.5038
0
LINE
8
Black
10
3.37867
20
11.5038
11
3.3658
21
11.506
0
LINE
8
Black
10
3.3658
20
11.506
11
3.36199
21
11.5082
0
LINE
8
Black
10
3.36199
20
11.5082
11
3.35774
21
11.5094
0
LINE
8
Black
10
3.35774
20
11.5094
11
3.34703
21
11.5169
0
LINE
8
Black
10
3.34703
20
11.5169
11
3.33572
21
11.5234
0
LINE
8
Black
10
3.33572
20
11.5234
11
3.33289
21
11.5268
0
LINE
8
Black
10
3.33289
20
11.5268
11
3.32929
21
11.5293
0
LINE
8
Black
10
3.32929
20
11.5293
11
1.15789
21
13.7007
0
LINE
8
Black
10
1.15789
20
13.7007
11
1.15536
21
13.7043
0
LINE
8
Black
10
1.15536
20
13.7043
11
1.152
21
13.7071
0
LINE
8
Black
10
1.152
20
13.7071
11
1.14547
21
13.7184
0
LINE
8
Black
10
1.14547
20
13.7184
11
1.13797
21
13.7291
0
LINE
8
Black
10
1.13797
20
13.7291
11
1.13683
21
13.7334
0
LINE
8
Black
10
1.13683
20
13.7334
11
1.13463
21
13.7372
0
LINE
8
Black
10
1.13463
20
13.7372
11
1.13236
21
13.7501
0
LINE
8
Black
10
1.13236
20
13.7501
11
1.12898
21
13.7627
0
LINE
8
Black
10
1.12898
20
13.7627
11
1.12936
21
13.7671
0
LINE
8
Black
10
1.12936
20
13.7671
11
1.1286
21
13.7714
0
LINE
8
Black
10
1.1286
20
13.7714
11
1.1286
21
15.2286
0
LINE
8
Black
10
1.1286
20
15.2286
11
1.12936
21
15.2329
0
LINE
8
Black
10
1.12936
20
15.2329
11
1.12898
21
15.2373
0
LINE
8
Black
10
1.12898
20
15.2373
11
1.13236
21
15.2499
0
LINE
8
Black
10
1.13236
20
15.2499
11
1.13463
21
15.2628
0
LINE
8
Black
10
1.13463
20
15.2628
11
1.13683
21
15.2666
0
LINE
8
Black
10
1.13683
20
15.2666
11
1.13797
21
15.2709
0
LINE
8
Black
10
1.13797
20
15.2709
11
1.14547
21
15.2816
0
LINE
8
Black
10
1.14547
20
15.2816
11
1.152
21
15.2929
0
LINE
8
Black
10
1.152
20
15.2929
11
1.15536
21
15.2957
0
LINE
8
Black
10
1.15536
20
15.2957
11
1.15789
21
15.2993
0
LINE
8
Black
10
1.15789
20
15.2993
11
2.00088
21
16.1423
0
LINE
8
Black
10
2.00088
20
16.1423
11
1.97343
21
16.2177
0
LINE
8
Black
10
1.97343
20
16.2177
11
1.97343
21
16.3223
0
LINE
8
Black
10
1.97343
20
16.3223
11
2.0092
21
16.4206
0
LINE
8
Black
10
2.0092
20
16.4206
11
2.07643
21
16.5007
0
LINE
8
Black
10
2.07643
20
16.5007
11
2.167
21
16.553
0
LINE
8
Black
10
2.167
20
16.553
11
2.27
21
16.5711
0
LINE
8
Black
10
2.27
20
16.5711
11
2.373
21
16.553
0
LINE
8
Black
10
11.503
20
13.583
11
11.5936
21
13.5307
0
LINE
8
Black
10
11.5936
20
13.5307
11
11.6608
21
13.4506
0
LINE
8
Black
10
11.6608
20
13.4506
11
11.6792
21
13.4
0
LINE
8
Black
10
11.6792
20
13.4
11
17.6968
21
13.4
0
LINE
8
Black
10
17.6968
20
13.4
11
17.7403
21
13.4518
0
LINE
8
Black
10
17.7403
20
13.4518
11
17.8308
21
13.504
0
LINE
8
Black
10
17.8308
20
13.504
11
17.9338
21
13.5222
0
LINE
8
Black
10
17.9338
20
13.5222
11
18.0368
21
13.504
0
LINE
8
Black
10
18.0368
20
13.504
11
18.1274
21
13.4518
0
LINE
8
Black
10
18.1274
20
13.4518
11
18.1946
21
13.3716
0
LINE
8
Black
10
18.1946
20
13.3716
11
18.2304
21
13.2734
0
LINE
8
Black
10
18.2304
20
13.2734
11
18.2304
21
13.1688
0
LINE
8
Black
10
18.2304
20
13.1688
11
18.1946
21
13.0705
0
LINE
8
Black
10
18.1946
20
13.0705
11
18.1274
21
12.9904
0
LINE
8
Black
10
18.1274
20
12.9904
11
18.0368
21
12.9381
0
LINE
8
Black
10
18.0368
20
12.9381
11
17.9338
21
12.9199
0
LINE
8
Black
10
17.9338
20
12.9199
11
17.8308
21
12.9381
0
LINE
8
Black
10
17.8308
20
12.9381
11
17.7403
21
12.9904
0
LINE
8
Black
10
17.7403
20
12.9904
11
17.673
21
13.0705
0
LINE
8
Black
10
17.673
20
13.0705
11
17.6373
21
13.1688
0
LINE
8
Black
10
17.6373
20
13.1688
11
17.6373
21
13.2
0
LINE
8
Black
10
17.6373
20
13.2
11
11.6792
21
13.2
0
LINE
8
Black
10
11.6792
20
13.2
11
11.6608
21
13.1494
0
LINE
8
Black
10
11.6608
20
13.1494
11
11.5936
21
13.0693
0
LINE
8
Black
10
11.5936
20
13.0693
11
11.503
21
13.017
0
LINE
8
Black
10
11.503
20
13.017
11
11.4
21
12.9989
0
LINE
8
Black
10
11.4
20
12.9989
11
11.297
21
13.017
0
LINE
8
Black
10
11.297
20
13.017
11
11.2064
21
13.0693
0
LINE
8
Black
10
11.2064
20
13.0693
11
11.1392
21
13.1494
0
LINE
8
Black
10
11.1392
20
13.1494
11
11.1034
21
13.2477
0
LINE
8
Black
10
11.1034
20
13.2477
11
11.1034
21
13.3523
0
LINE
8
Black
10
11.1034
20
13.3523
11
11.1392
21
13.4506
0
LINE
8
Black
10
11.1392
20
13.4506
11
11.2064
21
13.5307
0
LINE
8
Black
10
11.2064
20
13.5307
11
11.297
21
13.583
0
LINE
8
Black
10
11.297
20
13.583
11
11.4
21
13.6011
0
LINE
8
Black
10
11.4
20
13.6011
11
11.503
21
13.583
0
LINE
8
Black
10
16.994
20
23.143
11
17.0846
21
23.0907
0
LINE
8
Black
10
17.0846
20
23.0907
11
17.1518
21
23.0106
0
LINE
8
Black
10
17.1518
20
23.0106
11
17.1876
21
22.9123
0
LINE
8
Black
10
17.1876
20
22.9123
11
17.1876
21
22.8077
0
LINE
8
Black
10
17.1876
20
22.8077
11
17.1518
21
22.7094
0
LINE
8
Black
10
17.1518
20
22.7094
11
17.0846
21
22.6293
0
LINE
8
Black
10
17.0846
20
22.6293
11
16.994
21
22.577
0
LINE
8
Black
10
16.994
20
22.577
11
16.891
21
22.5589
0
LINE
8
Black
10
16.891
20
22.5589
11
16.788
21
22.577
0
LINE
8
Black
10
16.788
20
22.577
11
16.6974
21
22.6293
0
LINE
8
Black
10
16.6974
20
22.6293
11
16.6302
21
22.7094
0
LINE
8
Black
10
16.6302
20
22.7094
11
16.6118
21
22.76
0
LINE
8
Black
10
16.6118
20
22.76
11
14.4559
21
22.76
0
LINE
8
Black
10
14.4559
20
22.76
11
6.55829
21
14.8624
0
LINE
8
Black
10
6.55829
20
14.8624
11
6.55469
21
14.8598
0
LINE
8
Black
10
6.55469
20
14.8598
11
6.55186
21
14.8565
0
LINE
8
Black
10
6.55186
20
14.8565
11
6.54055
21
14.8499
0
LINE
8
Black
10
6.54055
20
14.8499
11
6.52984
21
14.8425
0
LINE
8
Black
10
6.52984
20
14.8425
11
6.52559
21
14.8413
0
LINE
8
Black
10
6.52559
20
14.8413
11
6.52178
21
14.8391
0
LINE
8
Black
10
6.52178
20
14.8391
11
6.50892
21
14.8368
0
LINE
8
Black
10
6.50892
20
14.8368
11
6.4963
21
14.8335
0
LINE
8
Black
10
6.4963
20
14.8335
11
6.49192
21
14.8338
0
LINE
8
Black
10
6.49192
20
14.8338
11
6.48758
21
14.8331
0
LINE
8
Black
10
6.48758
20
14.8331
11
5.70033
21
14.8331
0
LINE
8
Black
10
5.70033
20
14.8331
11
4.95655
21
14.0893
0
LINE
8
Black
10
4.95655
20
14.0893
11
4.95655
21
14.0893
0
LINE
8
Black
10
4.95655
20
14.0893
11
4.85496
21
13.9877
0
LINE
8
Black
10
4.85496
20
13.9877
11
4.88241
21
13.9123
0
LINE
8
Black
10
4.88241
20
13.9123
11
4.88241
21
13.8077
0
LINE
8
Black
10
4.88241
20
13.8077
11
4.84664
21
13.7094
0
LINE
8
Black
10
4.84664
20
13.7094
11
4.77941
21
13.6293
0
LINE
8
Black
10
4.77941
20
13.6293
11
4.68884
21
13.577
0
LINE
8
Black
10
4.68884
20
13.577
11
4.58584
21
13.5589
0
LINE
8
Black
10
4.58584
20
13.5589
11
4.48284
21
13.577
0
LINE
8
Black
10
4.48284
20
13.577
11
4.39227
21
13.6293
0
LINE
8
Black
10
4.39227
20
13.6293
11
4.32504
21
13.7094
0
LINE
8
Black
10
4.32504
20
13.7094
11
4.28927
21
13.8077
0
LINE
8
Black
10
4.28927
20
13.8077
11
4.28927
21
13.9123
0
LINE
8
Black
10
4.28927
20
13.9123
11
4.32504
21
14.0106
0
LINE
8
Black
10
4.32504
20
14.0106
11
4.39227
21
14.0907
0
LINE
8
Black
10
4.39227
20
14.0907
11
4.48284
21
14.143
0
LINE
8
Black
10
4.48284
20
14.143
11
4.58584
21
14.1612
0
LINE
8
Black
10
4.58584
20
14.1612
11
4.68884
21
14.143
0
LINE
8
Black
10
4.68884
20
14.143
11
4.71329
21
14.1289
0
LINE
8
Black
10
4.71329
20
14.1289
11
4.81512
21
14.2307
0
LINE
8
Black
10
4.81512
20
14.2307
11
4.81513
21
14.2307
0
LINE
8
Black
10
4.81513
20
14.2307
11
5.5882
21
15.0038
0
LINE
8
Black
10
5.5882
20
15.0038
11
5.5918
21
15.0063
0
LINE
8
Black
10
5.5918
20
15.0063
11
5.59463
21
15.0097
0
LINE
8
Black
10
5.59463
20
15.0097
11
5.60595
21
15.0162
0
LINE
8
Black
10
5.60595
20
15.0162
11
5.61665
21
15.0237
0
LINE
8
Black
10
5.61665
20
15.0237
11
5.6209
21
15.0248
0
LINE
8
Black
10
5.6209
20
15.0248
11
5.62471
21
15.0271
0
LINE
8
Black
10
5.62471
20
15.0271
11
5.63758
21
15.0293
0
LINE
8
Black
10
5.63758
20
15.0293
11
5.6502
21
15.0327
0
LINE
8
Black
10
5.6502
20
15.0327
11
5.65458
21
15.0323
0
LINE
8
Black
10
5.65458
20
15.0323
11
5.65891
21
15.0331
0
LINE
8
Black
10
5.65891
20
15.0331
11
6.44616
21
15.0331
0
LINE
8
Black
10
6.44616
20
15.0331
11
14.3438
21
22.9307
0
LINE
8
Black
10
14.3438
20
22.9307
11
14.3474
21
22.9332
0
LINE
8
Black
10
14.3474
20
22.9332
11
14.3502
21
22.9366
0
LINE
8
Black
10
14.3502
20
22.9366
11
14.3615
21
22.9431
0
LINE
8
Black
10
14.3615
20
22.9431
11
14.3722
21
22.9506
0
LINE
8
Black
10
14.3722
20
22.9506
11
14.3765
21
22.9518
0
LINE
8
Black
10
14.3765
20
22.9518
11
14.3803
21
22.954
0
LINE
8
Black
10
14.3803
20
22.954
11
14.3932
21
22.9562
0
LINE
8
Black
10
14.3932
20
22.9562
11
14.4058
21
22.9596
0
LINE
8
Black
10
14.4058
20
22.9596
11
14.4102
21
22.9592
0
LINE
8
Black
10
14.4102
20
22.9592
11
14.4145
21
22.96
0
LINE
8
Black
10
14.4145
20
22.96
11
16.6118
21
22.96
0
LINE
8
Black
10
16.6118
20
22.96
11
16.6302
21
23.0106
0
LINE
8
Black
10
16.6302
20
23.0106
11
16.6974
21
23.0907
0
LINE
8
Black
10
16.6974
20
23.0907
11
16.788
21
23.143
0
LINE
8
Black
10
16.788
20
23.143
11
16.891
21
23.1611
0
LINE
8
Black
10
16.891
20
23.1611
11
16.994
21
23.143
0
LINE
8
Black
10
10.8208
20
13.7504
11
10.7536
21
13.6703
0
LINE
8
Black
10
10.7536
20
13.6703
11
10.663
21
13.618
0
LINE
8
Black
10
10.663
20
13.618
11
10.56
21
13.5999
0
LINE
8
Black
10
10.56
20
13.5999
11
10.457
21
13.618
0
LINE
8
Black
10
10.457
20
13.618
11
10.3664
21
13.6703
0
LINE
8
Black
10
10.3664
20
13.6703
11
10.2992
21
13.7504
0
LINE
8
Black
10
10.2992
20
13.7504
11
10.2634
21
13.8487
0
LINE
8
Black
10
10.2634
20
13.8487
11
10.2634
21
13.9533
0
LINE
8
Black
10
10.2634
20
13.9533
11
10.2992
21
14.0516
0
LINE
8
Black
10
10.2992
20
14.0516
11
10.3664
21
14.1317
0
LINE
8
Black
10
10.3664
20
14.1317
11
10.457
21
14.184
0
LINE
8
Black
10
10.457
20
14.184
11
10.56
21
14.2022
0
LINE
8
Black
10
10.56
20
14.2022
11
10.663
21
14.184
0
LINE
8
Black
10
10.663
20
14.184
11
10.7536
21
14.1317
0
LINE
8
Black
10
10.7536
20
14.1317
11
10.8208
21
14.0516
0
LINE
8
Black
10
10.8208
20
14.0516
11
10.8392
21
14.001
0
LINE
8
Black
10
10.8392
20
14.001
11
10.9843
21
14.001
0
LINE
8
Black
10
10.9843
20
14.001
11
11.6278
21
14.001
0
LINE
8
Black
10
11.6278
20
14.001
11
11.6321
21
14.0003
0
LINE
8
Black
10
11.6321
20
14.0003
11
11.6365
21
14.0006
0
LINE
8
Black
10
11.6365
20
14.0006
11
11.6491
21
13.9973
0
LINE
8
Black
10
11.6491
20
13.9973
11
11.662
21
13.995
0
LINE
8
Black
10
11.662
20
13.995
11
11.6658
21
13.9928
0
LINE
8
Black
10
11.6658
20
13.9928
11
11.67
21
13.9916
0
LINE
8
Black
10
11.67
20
13.9916
11
11.6808
21
13.9842
0
LINE
8
Black
10
11.6808
20
13.9842
11
11.6921
21
13.9776
0
LINE
8
Black
10
11.6921
20
13.9776
11
11.6949
21
13.9743
0
LINE
8
Black
10
11.6949
20
13.9743
11
11.6985
21
13.9717
0
LINE
8
Black
10
11.6985
20
13.9717
11
11.7737
21
13.8965
0
LINE
8
Black
10
11.7737
20
13.8965
11
18.3551
21
13.8965
0
LINE
8
Black
10
18.3551
20
13.8965
11
19.7293
21
15.2707
0
LINE
8
Black
10
19.7293
20
15.2707
11
19.7329
21
15.2732
0
LINE
8
Black
10
19.7329
20
15.2732
11
19.7357
21
15.2766
0
LINE
8
Black
10
19.7357
20
15.2766
11
19.747
21
15.2831
0
LINE
8
Black
10
19.747
20
15.2831
11
19.7577
21
15.2906
0
LINE
8
Black
10
19.7577
20
15.2906
11
19.762
21
15.2918
0
LINE
8
Black
10
19.762
20
15.2918
11
19.7658
21
15.294
0
LINE
8
Black
10
19.7658
20
15.294
11
19.7787
21
15.2962
0
LINE
8
Black
10
19.7787
20
15.2962
11
19.7913
21
15.2996
0
LINE
8
Black
10
19.7913
20
15.2996
11
19.7957
21
15.2992
0
LINE
8
Black
10
19.7957
20
15.2992
11
19.8
21
15.3
0
LINE
8
Black
10
19.8
20
15.3
11
20.1208
21
15.3
0
LINE
8
Black
10
20.1208
20
15.3
11
20.1392
21
15.3506
0
LINE
8
Black
10
20.1392
20
15.3506
11
20.2064
21
15.4307
0
LINE
8
Black
10
20.2064
20
15.4307
11
20.297
21
15.483
0
LINE
8
Black
10
20.297
20
15.483
11
20.4
21
15.5011
0
LINE
8
Black
10
20.4
20
15.5011
11
20.503
21
15.483
0
LINE
8
Black
10
20.503
20
15.483
11
20.5936
21
15.4307
0
LINE
8
Black
10
20.5936
20
15.4307
11
20.6608
21
15.3506
0
LINE
8
Black
10
20.6608
20
15.3506
11
20.6966
21
15.2523
0
LINE
8
Black
10
20.6966
20
15.2523
11
20.6966
21
15.1477
0
LINE
8
Black
10
20.6966
20
15.1477
11
20.6608
21
15.0494
0
LINE
8
Black
10
20.6608
20
15.0494
11
20.5936
21
14.9693
0
LINE
8
Black
10
20.5936
20
14.9693
11
20.503
21
14.917
0
LINE
8
Black
10
20.503
20
14.917
11
20.4
21
14.8989
0
LINE
8
Black
10
20.4
20
14.8989
11
20.297
21
14.917
0
LINE
8
Black
10
20.297
20
14.917
11
20.2064
21
14.9693
0
LINE
8
Black
10
20.2064
20
14.9693
11
20.1392
21
15.0494
0
LINE
8
Black
10
20.1392
20
15.0494
11
20.1208
21
15.1
0
LINE
8
Black
10
20.1208
20
15.1
11
19.8414
21
15.1
0
LINE
8
Black
10
19.8414
20
15.1
11
18.4672
21
13.7258
0
LINE
8
Black
10
18.4672
20
13.7258
11
18.4636
21
13.7233
0
LINE
8
Black
10
18.4636
20
13.7233
11
18.4608
21
13.7199
0
LINE
8
Black
10
18.4608
20
13.7199
11
18.4495
21
13.7134
0
LINE
8
Black
10
18.4495
20
13.7134
11
18.4388
21
13.7059
0
LINE
8
Black
10
18.4388
20
13.7059
11
18.4345
21
13.7048
0
LINE
8
Black
10
18.4345
20
13.7048
11
18.4307
21
13.7026
0
LINE
8
Black
10
18.4307
20
13.7026
11
18.4179
21
13.7003
0
LINE
8
Black
10
18.4179
20
13.7003
11
18.4053
21
13.6969
0
LINE
8
Black
10
18.4053
20
13.6969
11
18.4009
21
13.6973
0
LINE
8
Black
10
18.4009
20
13.6973
11
18.3965
21
13.6965
0
LINE
8
Black
10
18.3965
20
13.6965
11
11.7323
21
13.6965
0
LINE
8
Black
10
11.7323
20
13.6965
11
11.7279
21
13.6973
0
LINE
8
Black
10
11.7279
20
13.6973
11
11.7236
21
13.6969
0
LINE
8
Black
10
11.7236
20
13.6969
11
11.7109
21
13.7003
0
LINE
8
Black
10
11.7109
20
13.7003
11
11.6981
21
13.7026
0
LINE
8
Black
10
11.6981
20
13.7026
11
11.6943
21
13.7048
0
LINE
8
Black
10
11.6943
20
13.7048
11
11.69
21
13.7059
0
LINE
8
Black
10
11.69
20
13.7059
11
11.6793
21
13.7134
0
LINE
8
Black
10
11.6793
20
13.7134
11
11.668
21
13.7199
0
LINE
8
Black
10
11.668
20
13.7199
11
11.6652
21
13.7233
0
LINE
8
Black
10
11.6652
20
13.7233
11
11.6616
21
13.7258
0
LINE
8
Black
10
11.6616
20
13.7258
11
11.5864
21
13.801
0
LINE
8
Black
10
11.5864
20
13.801
11
10.9843
21
13.801
0
LINE
8
Black
10
10.9843
20
13.801
11
10.8392
21
13.801
0
LINE
8
Black
10
10.8392
20
13.801
11
10.8208
21
13.7504
0
LINE
8
Black
10
16.994
20
21.873
11
17.0846
21
21.8207
0
LINE
8
Black
10
17.0846
20
21.8207
11
17.1518
21
21.7406
0
LINE
8
Black
10
17.1518
20
21.7406
11
17.1876
21
21.6423
0
LINE
8
Black
10
17.1876
20
21.6423
11
17.1876
21
21.5377
0
LINE
8
Black
10
17.1876
20
21.5377
11
17.1518
21
21.4394
0
LINE
8
Black
10
17.1518
20
21.4394
11
17.0846
21
21.3593
0
LINE
8
Black
10
17.0846
20
21.3593
11
16.994
21
21.307
0
LINE
8
Black
10
16.994
20
21.307
11
16.891
21
21.2889
0
LINE
8
Black
10
16.891
20
21.2889
11
16.788
21
21.307
0
LINE
8
Black
10
16.788
20
21.307
11
16.6974
21
21.3593
0
LINE
8
Black
10
16.6974
20
21.3593
11
16.6302
21
21.4394
0
LINE
8
Black
10
16.6302
20
21.4394
11
16.6118
21
21.49
0
LINE
8
Black
10
16.6118
20
21.49
11
13.7474
21
21.49
0
LINE
8
Black
10
13.7474
20
21.49
11
6.76282
21
14.5054
0
LINE
8
Black
10
6.76282
20
14.5054
11
6.75921
21
14.5029
0
LINE
8
Black
10
6.75921
20
14.5029
11
6.75638
21
14.4995
0
LINE
8
Black
10
6.75638
20
14.4995
11
6.74507
21
14.493
0
LINE
8
Black
10
6.74507
20
14.493
11
6.73437
21
14.4855
0
LINE
8
Black
10
6.73437
20
14.4855
11
6.73012
21
14.4843
0
LINE
8
Black
10
6.73012
20
14.4843
11
6.72631
21
14.4821
0
LINE
8
Black
10
6.72631
20
14.4821
11
6.71344
21
14.4799
0
LINE
8
Black
10
6.71344
20
14.4799
11
6.70082
21
14.4765
0
LINE
8
Black
10
6.70082
20
14.4765
11
6.69644
21
14.4769
0
LINE
8
Black
10
6.69644
20
14.4769
11
6.6921
21
14.4761
0
LINE
8
Black
10
6.6921
20
14.4761
11
6.58141
21
14.4761
0
LINE
8
Black
10
6.58141
20
14.4761
11
6.50911
21
14.4038
0
LINE
8
Black
10
6.50911
20
14.4038
11
6.53656
21
14.3284
0
LINE
8
Black
10
6.53656
20
14.3284
11
6.53656
21
14.2238
0
LINE
8
Black
10
6.53656
20
14.2238
11
6.50079
21
14.1255
0
LINE
8
Black
10
6.50079
20
14.1255
11
6.43356
21
14.0454
0
LINE
8
Black
10
6.43356
20
14.0454
11
6.34299
21
13.9931
0
LINE
8
Black
10
6.34299
20
13.9931
11
6.23999
21
13.975
0
LINE
8
Black
10
6.23999
20
13.975
11
6.13699
21
13.9931
0
LINE
8
Black
10
6.13699
20
13.9931
11
6.04642
21
14.0454
0
LINE
8
Black
10
6.04642
20
14.0454
11
5.97919
21
14.1255
0
LINE
8
Black
10
5.97919
20
14.1255
11
5.94342
21
14.2238
0
LINE
8
Black
10
5.94342
20
14.2238
11
5.94342
21
14.3284
0
LINE
8
Black
10
5.94342
20
14.3284
11
5.97919
21
14.4267
0
LINE
8
Black
10
5.97919
20
14.4267
11
6.04642
21
14.5068
0
LINE
8
Black
10
6.04642
20
14.5068
11
6.13699
21
14.5591
0
LINE
8
Black
10
6.13699
20
14.5591
11
6.23999
21
14.5773
0
LINE
8
Black
10
6.23999
20
14.5773
11
6.34299
21
14.5591
0
LINE
8
Black
10
6.34299
20
14.5591
11
6.36744
21
14.545
0
LINE
8
Black
10
6.36744
20
14.545
11
6.46928
21
14.6468
0
LINE
8
Black
10
6.46928
20
14.6468
11
6.47288
21
14.6494
0
LINE
8
Black
10
6.47288
20
14.6494
11
6.47571
21
14.6527
0
LINE
8
Black
10
6.47571
20
14.6527
11
6.48703
21
14.6593
0
LINE
8
Black
10
6.48703
20
14.6593
11
6.49773
21
14.6667
0
LINE
8
Black
10
6.49773
20
14.6667
11
6.50198
21
14.6679
0
LINE
8
Black
10
6.50198
20
14.6679
11
6.50579
21
14.6701
0
LINE
8
Black
10
6.50579
20
14.6701
11
6.51865
21
14.6724
0
LINE
8
Black
10
6.51865
20
14.6724
11
6.53127
21
14.6757
0
LINE
8
Black
10
6.53127
20
14.6757
11
6.53566
21
14.6754
0
LINE
8
Black
10
6.53566
20
14.6754
11
6.53999
21
14.6761
0
LINE
8
Black
10
6.53999
20
14.6761
11
6.65068
21
14.6761
0
LINE
8
Black
10
6.65068
20
14.6761
11
13.6353
21
21.6607
0
LINE
8
Black
10
13.6353
20
21.6607
11
13.6389
21
21.6632
0
LINE
8
Black
10
13.6389
20
21.6632
11
13.6417
21
21.6666
0
LINE
8
Black
10
13.6417
20
21.6666
11
13.653
21
21.6731
0
LINE
8
Black
10
13.653
20
21.6731
11
13.6637
21
21.6806
0
LINE
8
Black
10
13.6637
20
21.6806
11
13.668
21
21.6818
0
LINE
8
Black
10
13.668
20
21.6818
11
13.6718
21
21.684
0
LINE
8
Black
10
13.6718
20
21.684
11
13.6846
21
21.6862
0
LINE
8
Black
10
13.6846
20
21.6862
11
13.6973
21
21.6896
0
LINE
8
Black
10
13.6973
20
21.6896
11
13.7017
21
21.6892
0
LINE
8
Black
10
13.7017
20
21.6892
11
13.706
21
21.69
0
LINE
8
Black
10
13.706
20
21.69
11
16.6118
21
21.69
0
LINE
8
Black
10
16.6118
20
21.69
11
16.6302
21
21.7406
0
LINE
8
Black
10
16.6302
20
21.7406
11
16.6974
21
21.8207
0
LINE
8
Black
10
16.6974
20
21.8207
11
16.788
21
21.873
0
LINE
8
Black
10
16.788
20
21.873
11
16.891
21
21.8911
0
LINE
8
Black
10
16.891
20
21.8911
11
16.994
21
21.873
0
LINE
8
Black
10
19.903
20
14.583
11
19.9936
21
14.5307
0
LINE
8
Black
10
19.9936
20
14.5307
11
20.0608
21
14.4506
0
LINE
8
Black
10
20.0608
20
14.4506
11
20.0966
21
14.3523
0
LINE
8
Black
10
20.0966
20
14.3523
11
20.0966
21
14.2477
0
LINE
8
Black
10
20.0966
20
14.2477
11
20.0608
21
14.1494
0
LINE
8
Black
10
20.0608
20
14.1494
11
19.9936
21
14.0693
0
LINE
8
Black
10
19.9936
20
14.0693
11
19.903
21
14.017
0
LINE
8
Black
10
19.903
20
14.017
11
19.8
21
13.9989
0
LINE
8
Black
10
19.8
20
13.9989
11
19.697
21
14.017
0
LINE
8
Black
10
19.697
20
14.017
11
19.6064
21
14.0693
0
LINE
8
Black
10
19.6064
20
14.0693
11
19.5392
21
14.1494
0
LINE
8
Black
10
19.5392
20
14.1494
11
19.5034
21
14.2477
0
LINE
8
Black
10
19.5034
20
14.2477
11
19.5034
21
14.3523
0
LINE
8
Black
10
19.5034
20
14.3523
11
19.5392
21
14.4506
0
LINE
8
Black
10
19.5392
20
14.4506
11
19.6064
21
14.5307
0
LINE
8
Black
10
19.6064
20
14.5307
11
19.697
21
14.583
0
LINE
8
Black
10
19.697
20
14.583
11
19.8
21
14.6011
0
LINE
8
Black
10
19.8
20
14.6011
11
19.903
21
14.583
0
LINE
8
Black
10
9.64823
20
16.8362
11
9.73881
21
16.784
0
LINE
8
Black
10
9.73881
20
16.784
11
9.80604
21
16.7038
0
LINE
8
Black
10
9.80604
20
16.7038
11
9.84181
21
16.6056
0
LINE
8
Black
10
9.84181
20
16.6056
11
9.84181
21
16.501
0
LINE
8
Black
10
9.84181
20
16.501
11
9.80604
21
16.4027
0
LINE
8
Black
10
9.80604
20
16.4027
11
9.73881
21
16.3226
0
LINE
8
Black
10
9.73881
20
16.3226
11
9.64823
21
16.2703
0
LINE
8
Black
10
9.64823
20
16.2703
11
9.54524
21
16.2521
0
LINE
8
Black
10
9.54524
20
16.2521
11
9.44224
21
16.2703
0
LINE
8
Black
10
9.44224
20
16.2703
11
9.41779
21
16.2844
0
LINE
8
Black
10
9.41779
20
16.2844
11
9.31595
21
16.1826
0
LINE
8
Black
10
9.31595
20
16.1826
11
9.31595
21
16.1826
0
LINE
8
Black
10
9.31595
20
16.1826
11
8.1
21
14.9666
0
LINE
8
Black
10
8.1
20
14.9666
11
8.1
21
14.7835
0
LINE
8
Black
10
8.1
20
14.7835
11
8.103
21
14.783
0
LINE
8
Black
10
8.103
20
14.783
11
8.19357
21
14.7307
0
LINE
8
Black
10
8.19357
20
14.7307
11
8.2608
21
14.6506
0
LINE
8
Black
10
8.2608
20
14.6506
11
8.27921
21
14.6
0
LINE
8
Black
10
8.27921
20
14.6
11
17.6185
21
14.6
0
LINE
8
Black
10
17.6185
20
14.6
11
17.687
21
14.6395
0
LINE
8
Black
10
17.687
20
14.6395
11
17.79
21
14.6577
0
LINE
8
Black
10
17.79
20
14.6577
11
17.893
21
14.6395
0
LINE
8
Black
10
17.893
20
14.6395
11
17.9835
21
14.5872
0
LINE
8
Black
10
17.9835
20
14.5872
11
18.0508
21
14.5071
0
LINE
8
Black
10
18.0508
20
14.5071
11
18.0865
21
14.4088
0
LINE
8
Black
10
18.0865
20
14.4088
11
18.0865
21
14.3043
0
LINE
8
Black
10
18.0865
20
14.3043
11
18.0508
21
14.206
0
LINE
8
Black
10
18.0508
20
14.206
11
17.9835
21
14.1259
0
LINE
8
Black
10
17.9835
20
14.1259
11
17.893
21
14.0736
0
LINE
8
Black
10
17.893
20
14.0736
11
17.79
21
14.0554
0
LINE
8
Black
10
17.79
20
14.0554
11
17.687
21
14.0736
0
LINE
8
Black
10
17.687
20
14.0736
11
17.5964
21
14.1259
0
LINE
8
Black
10
17.5964
20
14.1259
11
17.5292
21
14.206
0
LINE
8
Black
10
17.5292
20
14.206
11
17.4934
21
14.3043
0
LINE
8
Black
10
17.4934
20
14.3043
11
17.4934
21
14.4
0
LINE
8
Black
10
17.4934
20
14.4
11
8.27921
21
14.4
0
LINE
8
Black
10
8.27921
20
14.4
11
8.2608
21
14.3494
0
LINE
8
Black
10
8.2608
20
14.3494
11
8.19357
21
14.2693
0
LINE
8
Black
10
8.19357
20
14.2693
11
8.103
21
14.217
0
LINE
8
Black
10
8.103
20
14.217
11
8
21
14.1989
0
LINE
8
Black
10
8
20
14.1989
11
7.897
21
14.217
0
LINE
8
Black
10
7.897
20
14.217
11
7.80643
21
14.2693
0
LINE
8
Black
10
7.80643
20
14.2693
11
7.7392
21
14.3494
0
LINE
8
Black
10
7.7392
20
14.3494
11
7.70343
21
14.4477
0
LINE
8
Black
10
7.70343
20
14.4477
11
7.70343
21
14.5523
0
LINE
8
Black
10
7.70343
20
14.5523
11
7.7392
21
14.6506
0
LINE
8
Black
10
7.7392
20
14.6506
11
7.80643
21
14.7307
0
LINE
8
Black
10
7.80643
20
14.7307
11
7.897
21
14.783
0
LINE
8
Black
10
7.897
20
14.783
11
7.9
21
14.7835
0
LINE
8
Black
10
7.9
20
14.7835
11
7.9
21
15.008
0
LINE
8
Black
10
7.9
20
15.008
11
7.90076
21
15.0124
0
LINE
8
Black
10
7.90076
20
15.0124
11
7.90038
21
15.0167
0
LINE
8
Black
10
7.90038
20
15.0167
11
7.90376
21
15.0294
0
LINE
8
Black
10
7.90376
20
15.0294
11
7.90603
21
15.0422
0
LINE
8
Black
10
7.90603
20
15.0422
11
7.90823
21
15.046
0
LINE
8
Black
10
7.90823
20
15.046
11
7.90937
21
15.0503
0
LINE
8
Black
10
7.90937
20
15.0503
11
7.91687
21
15.061
0
LINE
8
Black
10
7.91687
20
15.061
11
7.9234
21
15.0723
0
LINE
8
Black
10
7.9234
20
15.0723
11
7.92676
21
15.0751
0
LINE
8
Black
10
7.92676
20
15.0751
11
7.92929
21
15.0787
0
LINE
8
Black
10
7.92929
20
15.0787
11
9.17452
21
16.324
0
LINE
8
Black
10
9.17452
20
16.324
11
9.17453
21
16.324
0
LINE
8
Black
10
9.17453
20
16.324
11
9.27611
21
16.4256
0
LINE
8
Black
10
9.27611
20
16.4256
11
9.24867
21
16.501
0
LINE
8
Black
10
9.24867
20
16.501
11
9.24867
21
16.6056
0
LINE
8
Black
10
9.24867
20
16.6056
11
9.28444
21
16.7038
0
LINE
8
Black
10
9.28444
20
16.7038
11
9.35166
21
16.784
0
LINE
8
Black
10
9.35166
20
16.784
11
9.44224
21
16.8362
0
LINE
8
Black
10
9.44224
20
16.8362
11
9.54524
21
16.8544
0
LINE
8
Black
10
9.54524
20
16.8544
11
9.64823
21
16.8362
0
LINE
8
Black
10
10.103
20
15.483
11
10.1936
21
15.4307
0
LINE
8
Black
10
10.1936
20
15.4307
11
10.2608
21
15.3506
0
LINE
8
Black
10
10.2608
20
15.3506
11
10.2966
21
15.2523
0
LINE
8
Black
10
10.2966
20
15.2523
11
10.2966
21
15.1477
0
LINE
8
Black
10
10.2966
20
15.1477
11
10.2608
21
15.0494
0
LINE
8
Black
10
10.2608
20
15.0494
11
10.1936
21
14.9693
0
LINE
8
Black
10
10.1936
20
14.9693
11
10.103
21
14.917
0
LINE
8
Black
10
10.103
20
14.917
11
10
21
14.8989
0
LINE
8
Black
10
10
20
14.8989
11
9.897
21
14.917
0
LINE
8
Black
10
9.897
20
14.917
11
9.80643
21
14.9693
0
LINE
8
Black
10
9.80643
20
14.9693
11
9.7392
21
15.0494
0
LINE
8
Black
10
9.7392
20
15.0494
11
9.70343
21
15.1477
0
LINE
8
Black
10
9.70343
20
15.1477
11
9.70343
21
15.2523
0
LINE
8
Black
10
9.70343
20
15.2523
11
9.7392
21
15.3506
0
LINE
8
Black
10
9.7392
20
15.3506
11
9.80643
21
15.4307
0
LINE
8
Black
10
9.80643
20
15.4307
11
9.897
21
15.483
0
LINE
8
Black
10
9.897
20
15.483
11
10
21
15.5011
0
LINE
8
Black
10
10
20
15.5011
11
10.103
21
15.483
0
LINE
8
Black
10
14.403
20
15.583
11
14.4936
21
15.5307
0
LINE
8
Black
10
14.4936
20
15.5307
11
14.5608
21
15.4506
0
LINE
8
Black
10
14.5608
20
15.4506
11
14.5966
21
15.3523
0
LINE
8
Black
10
14.5966
20
15.3523
11
14.5966
21
15.2477
0
LINE
8
Black
10
14.5966
20
15.2477
11
14.5608
21
15.1494
0
LINE
8
Black
10
14.5608
20
15.1494
11
14.4936
21
15.0693
0
LINE
8
Black
10
14.4936
20
15.0693
11
14.403
21
15.017
0
LINE
8
Black
10
14.403
20
15.017
11
14.3
21
14.9989
0
LINE
8
Black
10
14.3
20
14.9989
11
14.197
21
15.017
0
LINE
8
Black
10
14.197
20
15.017
11
14.1064
21
15.0693
0
LINE
8
Black
10
14.1064
20
15.0693
11
14.0392
21
15.1494
0
LINE
8
Black
10
14.0392
20
15.1494
11
14.0034
21
15.2477
0
LINE
8
Black
10
14.0034
20
15.2477
11
14.0034
21
15.3523
0
LINE
8
Black
10
14.0034
20
15.3523
11
14.0392
21
15.4506
0
LINE
8
Black
10
14.0392
20
15.4506
11
14.1064
21
15.5307
0
LINE
8
Black
10
14.1064
20
15.5307
11
14.197
21
15.583
0
LINE
8
Black
10
14.197
20
15.583
11
14.3
21
15.6011
0
LINE
8
Black
10
14.3
20
15.6011
11
14.403
21
15.583
0
LINE
8
Black
10
15.103
20
20.583
11
15.1936
21
20.5307
0
LINE
8
Black
10
15.1936
20
20.5307
11
15.2608
21
20.4506
0
LINE
8
Black
10
15.2608
20
20.4506
11
15.2792
21
20.4
0
LINE
8
Black
10
15.2792
20
20.4
11
16.4728
21
20.4
0
LINE
8
Black
10
16.4728
20
20.4
11
16.4771
21
20.3992
0
LINE
8
Black
10
16.4771
20
20.3992
11
16.4815
21
20.3996
0
LINE
8
Black
10
16.4815
20
20.3996
11
16.4941
21
20.3962
0
LINE
8
Black
10
16.4941
20
20.3962
11
16.507
21
20.394
0
LINE
8
Black
10
16.507
20
20.394
11
16.5108
21
20.3918
0
LINE
8
Black
10
16.5108
20
20.3918
11
16.515
21
20.3906
0
LINE
8
Black
10
16.515
20
20.3906
11
16.5257
21
20.3831
0
LINE
8
Black
10
16.5257
20
20.3831
11
16.537
21
20.3766
0
LINE
8
Black
10
16.537
20
20.3766
11
16.5399
21
20.3732
0
LINE
8
Black
10
16.5399
20
20.3732
11
16.5435
21
20.3707
0
LINE
8
Black
10
16.5435
20
20.3707
11
21.0067
21
15.9075
0
LINE
8
Black
10
21.0067
20
15.9075
11
21.0067
21
15.9075
0
LINE
8
Black
10
21.0067
20
15.9075
11
21.1085
21
15.8057
0
LINE
8
Black
10
21.1085
20
15.8057
11
21.133
21
15.8198
0
LINE
8
Black
10
21.133
20
15.8198
11
21.236
21
15.8379
0
LINE
8
Black
10
21.236
20
15.8379
11
21.339
21
15.8198
0
LINE
8
Black
10
21.339
20
15.8198
11
21.4295
21
15.7675
0
LINE
8
Black
10
21.4295
20
15.7675
11
21.4968
21
15.6874
0
LINE
8
Black
10
21.4968
20
15.6874
11
21.5325
21
15.5891
0
LINE
8
Black
10
21.5325
20
15.5891
11
21.5325
21
15.4845
0
LINE
8
Black
10
21.5325
20
15.4845
11
21.4968
21
15.3862
0
LINE
8
Black
10
21.4968
20
15.3862
11
21.4295
21
15.3061
0
LINE
8
Black
10
21.4295
20
15.3061
11
21.339
21
15.2538
0
LINE
8
Black
10
21.339
20
15.2538
11
21.236
21
15.2356
0
LINE
8
Black
10
21.236
20
15.2356
11
21.133
21
15.2538
0
LINE
8
Black
10
21.133
20
15.2538
11
21.0424
21
15.3061
0
LINE
8
Black
10
21.0424
20
15.3061
11
20.9752
21
15.3862
0
LINE
8
Black
10
20.9752
20
15.3862
11
20.9394
21
15.4845
0
LINE
8
Black
10
20.9394
20
15.4845
11
20.9394
21
15.5891
0
LINE
8
Black
10
20.9394
20
15.5891
11
20.9668
21
15.6645
0
LINE
8
Black
10
20.9668
20
15.6645
11
20.8653
21
15.7661
0
LINE
8
Black
10
20.8653
20
15.7661
11
20.8652
21
15.7661
0
LINE
8
Black
10
20.8652
20
15.7661
11
16.4313
21
20.2
0
LINE
8
Black
10
16.4313
20
20.2
11
15.2792
21
20.2
0
LINE
8
Black
10
15.2792
20
20.2
11
15.2608
21
20.1494
0
LINE
8
Black
10
15.2608
20
20.1494
11
15.1936
21
20.0693
0
LINE
8
Black
10
15.1936
20
20.0693
11
15.103
21
20.017
0
LINE
8
Black
10
15.103
20
20.017
11
15
21
19.9989
0
LINE
8
Black
10
15
20
19.9989
11
14.897
21
20.017
0
LINE
8
Black
10
14.897
20
20.017
11
14.8064
21
20.0693
0
LINE
8
Black
10
14.8064
20
20.0693
11
14.7392
21
20.1494
0
LINE
8
Black
10
14.7392
20
20.1494
11
14.7034
21
20.2477
0
LINE
8
Black
10
14.7034
20
20.2477
11
14.7034
21
20.3523
0
LINE
8
Black
10
14.7034
20
20.3523
11
14.7392
21
20.4506
0
LINE
8
Black
10
14.7392
20
20.4506
11
14.8064
21
20.5307
0
LINE
8
Black
10
14.8064
20
20.5307
11
14.897
21
20.583
0
LINE
8
Black
10
14.897
20
20.583
11
15
21
20.6011
0
LINE
8
Black
10
15
20
20.6011
11
15.103
21
20.583
0
LINE
8
Black
10
13.819
20
27.969
11
13.9096
21
27.9167
0
LINE
8
Black
10
13.9096
20
27.9167
11
13.9768
21
27.8366
0
LINE
8
Black
10
13.9768
20
27.8366
11
14.0126
21
27.7383
0
LINE
8
Black
10
14.0126
20
27.7383
11
14.0126
21
27.6337
0
LINE
8
Black
10
14.0126
20
27.6337
11
13.9768
21
27.5354
0
LINE
8
Black
10
13.9768
20
27.5354
11
13.9096
21
27.4553
0
LINE
8
Black
10
13.9096
20
27.4553
11
13.819
21
27.403
0
LINE
8
Black
10
13.819
20
27.403
11
13.816
21
27.4025
0
LINE
8
Black
10
13.816
20
27.4025
11
13.816
21
22.7835
0
LINE
8
Black
10
13.816
20
22.7835
11
13.8152
21
22.7792
0
LINE
8
Black
10
13.8152
20
22.7792
11
13.8156
21
22.7748
0
LINE
8
Black
10
13.8156
20
22.7748
11
13.8122
21
22.7622
0
LINE
8
Black
10
13.8122
20
22.7622
11
13.81
21
22.7493
0
LINE
8
Black
10
13.81
20
22.7493
11
13.8078
21
22.7455
0
LINE
8
Black
10
13.8078
20
22.7455
11
13.8066
21
22.7412
0
LINE
8
Black
10
13.8066
20
22.7412
11
13.7991
21
22.7305
0
LINE
8
Black
10
13.7991
20
22.7305
11
13.7926
21
22.7192
0
LINE
8
Black
10
13.7926
20
22.7192
11
13.7892
21
22.7164
0
LINE
8
Black
10
13.7892
20
22.7164
11
13.7867
21
22.7128
0
LINE
8
Black
10
13.7867
20
22.7128
11
7.22555
21
16.1516
0
LINE
8
Black
10
7.22555
20
16.1516
11
7.22195
21
16.1491
0
LINE
8
Black
10
7.22195
20
16.1491
11
7.21912
21
16.1457
0
LINE
8
Black
10
7.21912
20
16.1457
11
7.20781
21
16.1392
0
LINE
8
Black
10
7.20781
20
16.1392
11
7.1971
21
16.1317
0
LINE
8
Black
10
7.1971
20
16.1317
11
7.19285
21
16.1306
0
LINE
8
Black
10
7.19285
20
16.1306
11
7.18904
21
16.1284
0
LINE
8
Black
10
7.18904
20
16.1284
11
7.17617
21
16.1261
0
LINE
8
Black
10
7.17617
20
16.1261
11
7.16355
21
16.1227
0
LINE
8
Black
10
7.16355
20
16.1227
11
7.15917
21
16.1231
0
LINE
8
Black
10
7.15917
20
16.1231
11
7.15484
21
16.1223
0
LINE
8
Black
10
7.15484
20
16.1223
11
7.15121
21
16.1223
0
LINE
8
Black
10
7.15121
20
16.1223
11
7.1328
21
16.0718
0
LINE
8
Black
10
7.1328
20
16.0718
11
7.06557
21
15.9916
0
LINE
8
Black
10
7.06557
20
15.9916
11
6.975
21
15.9393
0
LINE
8
Black
10
6.975
20
15.9393
11
6.872
21
15.9212
0
LINE
8
Black
10
6.872
20
15.9212
11
6.769
21
15.9393
0
LINE
8
Black
10
6.769
20
15.9393
11
6.67842
21
15.9916
0
LINE
8
Black
10
6.67842
20
15.9916
11
6.6112
21
16.0718
0
LINE
8
Black
10
6.6112
20
16.0718
11
6.57543
21
16.17
0
LINE
8
Black
10
6.57543
20
16.17
11
6.57543
21
16.2746
0
LINE
8
Black
10
6.57543
20
16.2746
11
6.6112
21
16.3729
0
LINE
8
Black
10
6.6112
20
16.3729
11
6.67842
21
16.453
0
LINE
8
Black
10
6.67842
20
16.453
11
6.769
21
16.5053
0
LINE
8
Black
10
6.769
20
16.5053
11
6.872
21
16.5235
0
LINE
8
Black
10
6.872
20
16.5235
11
6.975
21
16.5053
0
LINE
8
Black
10
6.975
20
16.5053
11
7.06557
21
16.453
0
LINE
8
Black
10
7.06557
20
16.453
11
7.1328
21
16.3729
0
LINE
8
Black
10
7.1328
20
16.3729
11
7.14112
21
16.35
0
LINE
8
Black
10
7.14112
20
16.35
11
13.616
21
22.8249
0
LINE
8
Black
10
13.616
20
22.8249
11
13.616
21
27.4025
0
LINE
8
Black
10
13.616
20
27.4025
11
13.613
21
27.403
0
LINE
8
Black
10
13.613
20
27.403
11
13.5224
21
27.4553
0
LINE
8
Black
10
13.5224
20
27.4553
11
13.4552
21
27.5354
0
LINE
8
Black
10
13.4552
20
27.5354
11
13.4194
21
27.6337
0
LINE
8
Black
10
13.4194
20
27.6337
11
13.4194
21
27.7383
0
LINE
8
Black
10
13.4194
20
27.7383
11
13.4552
21
27.8366
0
LINE
8
Black
10
13.4552
20
27.8366
11
13.5224
21
27.9167
0
LINE
8
Black
10
13.5224
20
27.9167
11
13.613
21
27.969
0
LINE
8
Black
10
13.613
20
27.969
11
13.716
21
27.9871
0
LINE
8
Black
10
13.716
20
27.9871
11
13.819
21
27.969
0
LINE
8
Black
10
27.833
20
16.553
11
27.9236
21
16.5007
0
LINE
8
Black
10
27.9236
20
16.5007
11
27.9908
21
16.4206
0
LINE
8
Black
10
27.9908
20
16.4206
11
28.0266
21
16.3223
0
LINE
8
Black
10
28.0266
20
16.3223
11
28.0266
21
16.2177
0
LINE
8
Black
10
28.0266
20
16.2177
11
27.9908
21
16.1194
0
LINE
8
Black
10
27.9908
20
16.1194
11
27.9236
21
16.0393
0
LINE
8
Black
10
27.9236
20
16.0393
11
27.833
21
15.987
0
LINE
8
Black
10
27.833
20
15.987
11
27.73
21
15.9689
0
LINE
8
Black
10
27.73
20
15.9689
11
27.627
21
15.987
0
LINE
8
Black
10
27.627
20
15.987
11
27.5364
21
16.0393
0
LINE
8
Black
10
27.5364
20
16.0393
11
27.4692
21
16.1194
0
LINE
8
Black
10
27.4692
20
16.1194
11
27.4334
21
16.2177
0
LINE
8
Black
10
27.4334
20
16.2177
11
27.4334
21
16.3223
0
LINE
8
Black
10
27.4334
20
16.3223
11
27.4692
21
16.4206
0
LINE
8
Black
10
27.4692
20
16.4206
11
27.5364
21
16.5007
0
LINE
8
Black
10
27.5364
20
16.5007
11
27.627
21
16.553
0
LINE
8
Black
10
27.627
20
16.553
11
27.73
21
16.5711
0
LINE
8
Black
10
27.73
20
16.5711
11
27.833
21
16.553
0
LINE
8
Black
10
8.63088
20
18.6723
11
8.60343
21
18.7477
0
LINE
8
Black
10
8.60343
20
18.7477
11
8.60343
21
18.8523
0
LINE
8
Black
10
8.60343
20
18.8523
11
8.6392
21
18.9506
0
LINE
8
Black
10
8.6392
20
18.9506
11
8.70643
21
19.0307
0
LINE
8
Black
10
8.70643
20
19.0307
11
8.797
21
19.083
0
LINE
8
Black
10
8.797
20
19.083
11
8.9
21
19.1011
0
LINE
8
Black
10
8.9
20
19.1011
11
9.003
21
19.083
0
LINE
8
Black
10
9.003
20
19.083
11
9.09357
21
19.0307
0
LINE
8
Black
10
9.09357
20
19.0307
11
9.1608
21
18.9506
0
LINE
8
Black
10
9.1608
20
18.9506
11
9.19657
21
18.8523
0
LINE
8
Black
10
9.19657
20
18.8523
11
9.19657
21
18.7477
0
LINE
8
Black
10
9.19657
20
18.7477
11
9.1608
21
18.6494
0
LINE
8
Black
10
9.1608
20
18.6494
11
9.09357
21
18.5693
0
LINE
8
Black
10
9.09357
20
18.5693
11
9.003
21
18.517
0
LINE
8
Black
10
9.003
20
18.517
11
8.9
21
18.4989
0
LINE
8
Black
10
8.9
20
18.4989
11
8.797
21
18.517
0
LINE
8
Black
10
8.797
20
18.517
11
8.77255
21
18.5311
0
LINE
8
Black
10
8.77255
20
18.5311
11
7.57071
21
17.3293
0
LINE
8
Black
10
7.57071
20
17.3293
11
7.56711
21
17.3268
0
LINE
8
Black
10
7.56711
20
17.3268
11
7.56428
21
17.3234
0
LINE
8
Black
10
7.56428
20
17.3234
11
7.55297
21
17.3169
0
LINE
8
Black
10
7.55297
20
17.3169
11
7.54226
21
17.3094
0
LINE
8
Black
10
7.54226
20
17.3094
11
7.53801
21
17.3082
0
LINE
8
Black
10
7.53801
20
17.3082
11
7.5342
21
17.306
0
LINE
8
Black
10
7.5342
20
17.306
11
7.52133
21
17.3038
0
LINE
8
Black
10
7.52133
20
17.3038
11
7.50871
21
17.3004
0
LINE
8
Black
10
7.50871
20
17.3004
11
7.50433
21
17.3008
0
LINE
8
Black
10
7.50433
20
17.3008
11
7.5
21
17.3
0
LINE
8
Black
10
7.5
20
17.3
11
7.3
21
17.3
0
LINE
8
Black
10
7.3
20
17.3
11
4.8
21
17.3
0
LINE
8
Black
10
4.8
20
17.3
11
4.79567
21
17.3008
0
LINE
8
Black
10
4.79567
20
17.3008
11
4.79128
21
17.3004
0
LINE
8
Black
10
4.79128
20
17.3004
11
4.77867
21
17.3038
0
LINE
8
Black
10
4.77867
20
17.3038
11
4.7658
21
17.306
0
LINE
8
Black
10
4.7658
20
17.306
11
4.76199
21
17.3082
0
LINE
8
Black
10
4.76199
20
17.3082
11
4.75774
21
17.3094
0
LINE
8
Black
10
4.75774
20
17.3094
11
4.74704
21
17.3169
0
LINE
8
Black
10
4.74704
20
17.3169
11
4.73572
21
17.3234
0
LINE
8
Black
10
4.73572
20
17.3234
11
4.73289
21
17.3268
0
LINE
8
Black
10
4.73289
20
17.3268
11
4.72929
21
17.3293
0
LINE
8
Black
10
4.72929
20
17.3293
11
3.23558
21
18.823
0
LINE
8
Black
10
3.23558
20
18.823
11
3.00971
21
18.823
0
LINE
8
Black
10
3.00971
20
18.823
11
2.9913
21
18.7724
0
LINE
8
Black
10
2.9913
20
18.7724
11
2.92407
21
18.6923
0
LINE
8
Black
10
2.92407
20
18.6923
11
2.8335
21
18.64
0
LINE
8
Black
10
2.8335
20
18.64
11
2.7305
21
18.6219
0
LINE
8
Black
10
2.7305
20
18.6219
11
2.6275
21
18.64
0
LINE
8
Black
10
2.6275
20
18.64
11
2.53693
21
18.6923
0
LINE
8
Black
10
2.53693
20
18.6923
11
2.4697
21
18.7724
0
LINE
8
Black
10
2.4697
20
18.7724
11
2.43393
21
18.8707
0
LINE
8
Black
10
2.43393
20
18.8707
11
2.43393
21
18.9753
0
LINE
8
Black
10
2.43393
20
18.9753
11
2.4697
21
19.0736
0
LINE
8
Black
10
2.4697
20
19.0736
11
2.53693
21
19.1537
0
LINE
8
Black
10
2.53693
20
19.1537
11
2.6275
21
19.206
0
LINE
8
Black
10
2.6275
20
19.206
11
2.7305
21
19.2241
0
LINE
8
Black
10
2.7305
20
19.2241
11
2.8335
21
19.206
0
LINE
8
Black
10
2.8335
20
19.206
11
2.92407
21
19.1537
0
LINE
8
Black
10
2.92407
20
19.1537
11
2.9913
21
19.0736
0
LINE
8
Black
10
2.9913
20
19.0736
11
3.00971
21
19.023
0
LINE
8
Black
10
3.00971
20
19.023
11
3.277
21
19.023
0
LINE
8
Black
10
3.277
20
19.023
11
3.28133
21
19.0222
0
LINE
8
Black
10
3.28133
20
19.0222
11
3.28571
21
19.0226
0
LINE
8
Black
10
3.28571
20
19.0226
11
3.29833
21
19.0192
0
LINE
8
Black
10
3.29833
20
19.0192
11
3.3112
21
19.017
0
LINE
8
Black
10
3.3112
20
19.017
11
3.31501
21
19.0148
0
LINE
8
Black
10
3.31501
20
19.0148
11
3.31926
21
19.0136
0
LINE
8
Black
10
3.31926
20
19.0136
11
3.32997
21
19.0061
0
LINE
8
Black
10
3.32997
20
19.0061
11
3.34128
21
18.9996
0
LINE
8
Black
10
3.34128
20
18.9996
11
3.34411
21
18.9962
0
LINE
8
Black
10
3.34411
20
18.9962
11
3.34771
21
18.9937
0
LINE
8
Black
10
3.34771
20
18.9937
11
4.84142
21
17.5
0
LINE
8
Black
10
4.84142
20
17.5
11
7.3
21
17.5
0
LINE
8
Black
10
7.3
20
17.5
11
7.45858
21
17.5
0
LINE
8
Black
10
7.45858
20
17.5
11
8.63088
21
18.6723
0
LINE
8
Black
10
24.333
20
28.013
11
24.4236
21
27.9607
0
LINE
8
Black
10
24.4236
20
27.9607
11
24.4908
21
27.8806
0
LINE
8
Black
10
24.4908
20
27.8806
11
24.5266
21
27.7823
0
LINE
8
Black
10
24.5266
20
27.7823
11
24.5266
21
27.6777
0
LINE
8
Black
10
24.5266
20
27.6777
11
24.4991
21
27.6023
0
LINE
8
Black
10
24.4991
20
27.6023
11
24.7087
21
27.3927
0
LINE
8
Black
10
24.7087
20
27.3927
11
24.7112
21
27.3891
0
LINE
8
Black
10
24.7112
20
27.3891
11
24.7146
21
27.3863
0
LINE
8
Black
10
24.7146
20
27.3863
11
24.7211
21
27.375
0
LINE
8
Black
10
24.7211
20
27.375
11
24.7286
21
27.3643
0
LINE
8
Black
10
24.7286
20
27.3643
11
24.7298
21
27.36
0
LINE
8
Black
10
24.7298
20
27.36
11
24.732
21
27.3562
0
LINE
8
Black
10
24.732
20
27.3562
11
24.7342
21
27.3433
0
LINE
8
Black
10
24.7342
20
27.3433
11
24.7376
21
27.3307
0
LINE
8
Black
10
24.7376
20
27.3307
11
24.7372
21
27.3263
0
LINE
8
Black
10
24.7372
20
27.3263
11
24.738
21
27.322
0
LINE
8
Black
10
24.738
20
27.322
11
24.738
21
18.5715
0
LINE
8
Black
10
24.738
20
18.5715
11
24.741
21
18.571
0
LINE
8
Black
10
24.741
20
18.571
11
24.8316
21
18.5187
0
LINE
8
Black
10
24.8316
20
18.5187
11
24.8988
21
18.4386
0
LINE
8
Black
10
24.8988
20
18.4386
11
24.9346
21
18.3403
0
LINE
8
Black
10
24.9346
20
18.3403
11
24.9346
21
18.2357
0
LINE
8
Black
10
24.9346
20
18.2357
11
24.8988
21
18.1374
0
LINE
8
Black
10
24.8988
20
18.1374
11
24.8316
21
18.0573
0
LINE
8
Black
10
24.8316
20
18.0573
11
24.741
21
18.005
0
LINE
8
Black
10
24.741
20
18.005
11
24.638
21
17.9869
0
LINE
8
Black
10
24.638
20
17.9869
11
24.535
21
18.005
0
LINE
8
Black
10
24.535
20
18.005
11
24.4444
21
18.0573
0
LINE
8
Black
10
24.4444
20
18.0573
11
24.3772
21
18.1374
0
LINE
8
Black
10
24.3772
20
18.1374
11
24.3414
21
18.2357
0
LINE
8
Black
10
24.3414
20
18.2357
11
24.3414
21
18.3403
0
LINE
8
Black
10
24.3414
20
18.3403
11
24.3772
21
18.4386
0
LINE
8
Black
10
24.3772
20
18.4386
11
24.4444
21
18.5187
0
LINE
8
Black
10
24.4444
20
18.5187
11
24.535
21
18.571
0
LINE
8
Black
10
24.535
20
18.571
11
24.538
21
18.5715
0
LINE
8
Black
10
24.538
20
18.5715
11
24.538
21
27.2806
0
LINE
8
Black
10
24.538
20
27.2806
11
24.3574
21
27.4611
0
LINE
8
Black
10
24.3574
20
27.4611
11
24.333
21
27.447
0
LINE
8
Black
10
24.333
20
27.447
11
24.23
21
27.4289
0
LINE
8
Black
10
24.23
20
27.4289
11
24.127
21
27.447
0
LINE
8
Black
10
24.127
20
27.447
11
24.0364
21
27.4993
0
LINE
8
Black
10
24.0364
20
27.4993
11
23.9692
21
27.5794
0
LINE
8
Black
10
23.9692
20
27.5794
11
23.9334
21
27.6777
0
LINE
8
Black
10
23.9334
20
27.6777
11
23.9334
21
27.7823
0
LINE
8
Black
10
23.9334
20
27.7823
11
23.9692
21
27.8806
0
LINE
8
Black
10
23.9692
20
27.8806
11
24.0364
21
27.9607
0
LINE
8
Black
10
24.0364
20
27.9607
11
24.127
21
28.013
0
LINE
8
Black
10
24.127
20
28.013
11
24.23
21
28.0311
0
LINE
8
Black
10
24.23
20
28.0311
11
24.333
21
28.013
0
LINE
8
Black
10
2.78408
20
25.4544
11
2.87466
21
25.4021
0
LINE
8
Black
10
2.87466
20
25.4021
11
2.94189
21
25.322
0
LINE
8
Black
10
2.94189
20
25.322
11
2.97766
21
25.2237
0
LINE
8
Black
10
2.97766
20
25.2237
11
2.97766
21
25.1191
0
LINE
8
Black
10
2.97766
20
25.1191
11
2.94189
21
25.0209
0
LINE
8
Black
10
2.94189
20
25.0209
11
2.87466
21
24.9407
0
LINE
8
Black
10
2.87466
20
24.9407
11
2.78408
21
24.8884
0
LINE
8
Black
10
2.78408
20
24.8884
11
2.78109
21
24.8879
0
LINE
8
Black
10
2.78109
20
24.8879
11
2.78109
21
20.5603
0
LINE
8
Black
10
2.78109
20
20.5603
11
5.04142
21
18.3
0
LINE
8
Black
10
5.04142
20
18.3
11
7.05858
21
18.3
0
LINE
8
Black
10
7.05858
20
18.3
11
7.23088
21
18.4723
0
LINE
8
Black
10
7.23088
20
18.4723
11
7.20343
21
18.5477
0
LINE
8
Black
10
7.20343
20
18.5477
11
7.20343
21
18.6523
0
LINE
8
Black
10
7.20343
20
18.6523
11
7.2392
21
18.7506
0
LINE
8
Black
10
7.2392
20
18.7506
11
7.30643
21
18.8307
0
LINE
8
Black
10
7.30643
20
18.8307
11
7.397
21
18.883
0
LINE
8
Black
10
7.397
20
18.883
11
7.5
21
18.9011
0
LINE
8
Black
10
7.5
20
18.9011
11
7.603
21
18.883
0
LINE
8
Black
10
7.603
20
18.883
11
7.69357
21
18.8307
0
LINE
8
Black
10
7.69357
20
18.8307
11
7.7608
21
18.7506
0
LINE
8
Black
10
7.7608
20
18.7506
11
7.79657
21
18.6523
0
LINE
8
Black
10
7.79657
20
18.6523
11
7.79657
21
18.5477
0
LINE
8
Black
10
7.79657
20
18.5477
11
7.7608
21
18.4494
0
LINE
8
Black
10
7.7608
20
18.4494
11
7.69357
21
18.3693
0
LINE
8
Black
10
7.69357
20
18.3693
11
7.603
21
18.317
0
LINE
8
Black
10
7.603
20
18.317
11
7.5
21
18.2989
0
LINE
8
Black
10
7.5
20
18.2989
11
7.397
21
18.317
0
LINE
8
Black
10
7.397
20
18.317
11
7.37255
21
18.3311
0
LINE
8
Black
10
7.37255
20
18.3311
11
7.17071
21
18.1293
0
LINE
8
Black
10
7.17071
20
18.1293
11
7.16711
21
18.1268
0
LINE
8
Black
10
7.16711
20
18.1268
11
7.16428
21
18.1234
0
LINE
8
Black
10
7.16428
20
18.1234
11
7.15297
21
18.1169
0
LINE
8
Black
10
7.15297
20
18.1169
11
7.14226
21
18.1094
0
LINE
8
Black
10
7.14226
20
18.1094
11
7.13801
21
18.1082
0
LINE
8
Black
10
7.13801
20
18.1082
11
7.1342
21
18.106
0
LINE
8
Black
10
7.1342
20
18.106
11
7.12133
21
18.1038
0
LINE
8
Black
10
7.12133
20
18.1038
11
7.10872
21
18.1004
0
LINE
8
Black
10
7.10872
20
18.1004
11
7.10433
21
18.1008
0
LINE
8
Black
10
7.10433
20
18.1008
11
7.1
21
18.1
0
LINE
8
Black
10
7.1
20
18.1
11
5
21
18.1
0
LINE
8
Black
10
5
20
18.1
11
4.99567
21
18.1008
0
LINE
8
Black
10
4.99567
20
18.1008
11
4.99128
21
18.1004
0
LINE
8
Black
10
4.99128
20
18.1004
11
4.97867
21
18.1038
0
LINE
8
Black
10
4.97867
20
18.1038
11
4.9658
21
18.106
0
LINE
8
Black
10
4.9658
20
18.106
11
4.96199
21
18.1082
0
LINE
8
Black
10
4.96199
20
18.1082
11
4.95774
21
18.1094
0
LINE
8
Black
10
4.95774
20
18.1094
11
4.94703
21
18.1169
0
LINE
8
Black
10
4.94703
20
18.1169
11
4.93572
21
18.1234
0
LINE
8
Black
10
4.93572
20
18.1234
11
4.93289
21
18.1268
0
LINE
8
Black
10
4.93289
20
18.1268
11
4.92929
21
18.1293
0
LINE
8
Black
10
4.92929
20
18.1293
11
2.61037
21
20.4482
0
LINE
8
Black
10
2.61037
20
20.4482
11
2.60785
21
20.4518
0
LINE
8
Black
10
2.60785
20
20.4518
11
2.60448
21
20.4546
0
LINE
8
Black
10
2.60448
20
20.4546
11
2.59795
21
20.4659
0
LINE
8
Black
10
2.59795
20
20.4659
11
2.59045
21
20.4767
0
LINE
8
Black
10
2.59045
20
20.4767
11
2.58932
21
20.4809
0
LINE
8
Black
10
2.58932
20
20.4809
11
2.58712
21
20.4847
0
LINE
8
Black
10
2.58712
20
20.4847
11
2.58485
21
20.4976
0
LINE
8
Black
10
2.58485
20
20.4976
11
2.58147
21
20.5102
0
LINE
8
Black
10
2.58147
20
20.5102
11
2.58185
21
20.5146
0
LINE
8
Black
10
2.58185
20
20.5146
11
2.58108
21
20.5189
0
LINE
8
Black
10
2.58108
20
20.5189
11
2.58108
21
24.8879
0
LINE
8
Black
10
2.58108
20
24.8879
11
2.57809
21
24.8884
0
LINE
8
Black
10
2.57809
20
24.8884
11
2.48751
21
24.9407
0
LINE
8
Black
10
2.48751
20
24.9407
11
2.42028
21
25.0209
0
LINE
8
Black
10
2.42028
20
25.0209
11
2.38451
21
25.1191
0
LINE
8
Black
10
2.38451
20
25.1191
11
2.38451
21
25.2237
0
LINE
8
Black
10
2.38451
20
25.2237
11
2.42028
21
25.322
0
LINE
8
Black
10
2.42028
20
25.322
11
2.48751
21
25.4021
0
LINE
8
Black
10
2.48751
20
25.4021
11
2.57809
21
25.4544
0
LINE
8
Black
10
2.57809
20
25.4544
11
2.68108
21
25.4726
0
LINE
8
Black
10
2.68108
20
25.4726
11
2.78408
21
25.4544
0
LINE
8
Black
10
6.433
20
19.083
11
6.52357
21
19.0307
0
LINE
8
Black
10
6.52357
20
19.0307
11
6.5908
21
18.9506
0
LINE
8
Black
10
6.5908
20
18.9506
11
6.62657
21
18.8523
0
LINE
8
Black
10
6.62657
20
18.8523
11
6.62657
21
18.7477
0
LINE
8
Black
10
6.62657
20
18.7477
11
6.5908
21
18.6494
0
LINE
8
Black
10
6.5908
20
18.6494
11
6.52357
21
18.5693
0
LINE
8
Black
10
6.52357
20
18.5693
11
6.433
21
18.517
0
LINE
8
Black
10
6.433
20
18.517
11
6.33
21
18.4989
0
LINE
8
Black
10
6.33
20
18.4989
11
6.227
21
18.517
0
LINE
8
Black
10
6.227
20
18.517
11
6.13643
21
18.5693
0
LINE
8
Black
10
6.13643
20
18.5693
11
6.0692
21
18.6494
0
LINE
8
Black
10
6.0692
20
18.6494
11
6.03343
21
18.7477
0
LINE
8
Black
10
6.03343
20
18.7477
11
6.03343
21
18.8523
0
LINE
8
Black
10
6.03343
20
18.8523
11
6.0692
21
18.9506
0
LINE
8
Black
10
6.0692
20
18.9506
11
6.13643
21
19.0307
0
LINE
8
Black
10
6.13643
20
19.0307
11
6.227
21
19.083
0
LINE
8
Black
10
6.227
20
19.083
11
6.33
21
19.1011
0
LINE
8
Black
10
6.33
20
19.1011
11
6.433
21
19.083
0
LINE
8
Black
10
10.303
20
23.083
11
10.3936
21
23.0307
0
LINE
8
Black
10
10.3936
20
23.0307
11
10.4608
21
22.9506
0
LINE
8
Black
10
10.4608
20
22.9506
11
10.4966
21
22.8523
0
LINE
8
Black
10
10.4966
20
22.8523
11
10.4966
21
22.7477
0
LINE
8
Black
10
10.4966
20
22.7477
11
10.4608
21
22.6494
0
LINE
8
Black
10
10.4608
20
22.6494
11
10.3936
21
22.5693
0
LINE
8
Black
10
10.3936
20
22.5693
11
10.303
21
22.517
0
LINE
8
Black
10
10.303
20
22.517
11
10.2
21
22.4989
0
LINE
8
Black
10
10.2
20
22.4989
11
10.097
21
22.517
0
LINE
8
Black
10
10.097
20
22.517
11
10.0064
21
22.5693
0
LINE
8
Black
10
10.0064
20
22.5693
11
9.9392
21
22.6494
0
LINE
8
Black
10
9.9392
20
22.6494
11
9.92079
21
22.7
0
LINE
8
Black
10
9.92079
20
22.7
11
7.02979
21
22.7
0
LINE
8
Black
10
7.02979
20
22.7
11
5.88172
21
21.5519
0
LINE
8
Black
10
5.88172
20
21.5519
11
5.88171
21
21.5519
0
LINE
8
Black
10
5.88171
20
21.5519
11
5.78013
21
21.4503
0
LINE
8
Black
10
5.78013
20
21.4503
11
5.80758
21
21.3749
0
LINE
8
Black
10
5.80758
20
21.3749
11
5.80758
21
21.2703
0
LINE
8
Black
10
5.80758
20
21.2703
11
5.77181
21
21.1721
0
LINE
8
Black
10
5.77181
20
21.1721
11
5.70458
21
21.0919
0
LINE
8
Black
10
5.70458
20
21.0919
11
5.61401
21
21.0397
0
LINE
8
Black
10
5.61401
20
21.0397
11
5.51101
21
21.0215
0
LINE
8
Black
10
5.51101
20
21.0215
11
5.40801
21
21.0397
0
LINE
8
Black
10
5.40801
20
21.0397
11
5.31743
21
21.0919
0
LINE
8
Black
10
5.31743
20
21.0919
11
5.25021
21
21.1721
0
LINE
8
Black
10
5.25021
20
21.1721
11
5.21444
21
21.2703
0
LINE
8
Black
10
5.21444
20
21.2703
11
5.21444
21
21.3749
0
LINE
8
Black
10
5.21444
20
21.3749
11
5.25021
21
21.4732
0
LINE
8
Black
10
5.25021
20
21.4732
11
5.31743
21
21.5533
0
LINE
8
Black
10
5.31743
20
21.5533
11
5.40801
21
21.6056
0
LINE
8
Black
10
5.40801
20
21.6056
11
5.51101
21
21.6238
0
LINE
8
Black
10
5.51101
20
21.6238
11
5.61401
21
21.6056
0
LINE
8
Black
10
5.61401
20
21.6056
11
5.63846
21
21.5915
0
LINE
8
Black
10
5.63846
20
21.5915
11
5.74029
21
21.6933
0
LINE
8
Black
10
5.74029
20
21.6933
11
5.7403
21
21.6933
0
LINE
8
Black
10
5.7403
20
21.6933
11
6.91766
21
22.8707
0
LINE
8
Black
10
6.91766
20
22.8707
11
6.92126
21
22.8732
0
LINE
8
Black
10
6.92126
20
22.8732
11
6.92409
21
22.8766
0
LINE
8
Black
10
6.92409
20
22.8766
11
6.93541
21
22.8831
0
LINE
8
Black
10
6.93541
20
22.8831
11
6.94611
21
22.8906
0
LINE
8
Black
10
6.94611
20
22.8906
11
6.95036
21
22.8918
0
LINE
8
Black
10
6.95036
20
22.8918
11
6.95417
21
22.894
0
LINE
8
Black
10
6.95417
20
22.894
11
6.96704
21
22.8962
0
LINE
8
Black
10
6.96704
20
22.8962
11
6.97965
21
22.8996
0
LINE
8
Black
10
6.97965
20
22.8996
11
6.98403
21
22.8992
0
LINE
8
Black
10
6.98403
20
22.8992
11
6.98837
21
22.9
0
LINE
8
Black
10
6.98837
20
22.9
11
9.92079
21
22.9
0
LINE
8
Black
10
9.92079
20
22.9
11
9.9392
21
22.9506
0
LINE
8
Black
10
9.9392
20
22.9506
11
10.0064
21
23.0307
0
LINE
8
Black
10
10.0064
20
23.0307
11
10.097
21
23.083
0
LINE
8
Black
10
10.097
20
23.083
11
10.2
21
23.1011
0
LINE
8
Black
10
10.2
20
23.1011
11
10.303
21
23.083
0
LINE
8
Black
10
10.403
20
24.383
11
10.4936
21
24.3307
0
LINE
8
Black
10
10.4936
20
24.3307
11
10.5608
21
24.2506
0
LINE
8
Black
10
10.5608
20
24.2506
11
10.5966
21
24.1523
0
LINE
8
Black
10
10.5966
20
24.1523
11
10.5966
21
24.0477
0
LINE
8
Black
10
10.5966
20
24.0477
11
10.5608
21
23.9494
0
LINE
8
Black
10
10.5608
20
23.9494
11
10.4936
21
23.8693
0
LINE
8
Black
10
10.4936
20
23.8693
11
10.403
21
23.817
0
LINE
8
Black
10
10.403
20
23.817
11
10.3
21
23.7989
0
LINE
8
Black
10
10.3
20
23.7989
11
10.197
21
23.817
0
LINE
8
Black
10
10.197
20
23.817
11
10.1064
21
23.8693
0
LINE
8
Black
10
10.1064
20
23.8693
11
10.0392
21
23.9494
0
LINE
8
Black
10
10.0392
20
23.9494
11
10.0208
21
24
0
LINE
8
Black
10
10.0208
20
24
11
6.16341
21
24
0
LINE
8
Black
10
6.16341
20
24
11
3.77071
21
21.6073
0
LINE
8
Black
10
3.77071
20
21.6073
11
3.77071
21
21.6073
0
LINE
8
Black
10
3.77071
20
21.6073
11
3.66912
21
21.5057
0
LINE
8
Black
10
3.66912
20
21.5057
11
3.69657
21
21.4303
0
LINE
8
Black
10
3.69657
20
21.4303
11
3.69657
21
21.3257
0
LINE
8
Black
10
3.69657
20
21.3257
11
3.6608
21
21.2274
0
LINE
8
Black
10
3.6608
20
21.2274
11
3.59357
21
21.1473
0
LINE
8
Black
10
3.59357
20
21.1473
11
3.503
21
21.095
0
LINE
8
Black
10
3.503
20
21.095
11
3.4
21
21.0769
0
LINE
8
Black
10
3.4
20
21.0769
11
3.297
21
21.095
0
LINE
8
Black
10
3.297
20
21.095
11
3.20643
21
21.1473
0
LINE
8
Black
10
3.20643
20
21.1473
11
3.1392
21
21.2274
0
LINE
8
Black
10
3.1392
20
21.2274
11
3.10343
21
21.3257
0
LINE
8
Black
10
3.10343
20
21.3257
11
3.10343
21
21.4303
0
LINE
8
Black
10
3.10343
20
21.4303
11
3.1392
21
21.5286
0
LINE
8
Black
10
3.1392
20
21.5286
11
3.20643
21
21.6087
0
LINE
8
Black
10
3.20643
20
21.6087
11
3.297
21
21.661
0
LINE
8
Black
10
3.297
20
21.661
11
3.4
21
21.6792
0
LINE
8
Black
10
3.4
20
21.6792
11
3.503
21
21.661
0
LINE
8
Black
10
3.503
20
21.661
11
3.52745
21
21.6469
0
LINE
8
Black
10
3.52745
20
21.6469
11
3.62929
21
21.7487
0
LINE
8
Black
10
3.62929
20
21.7487
11
3.62929
21
21.7487
0
LINE
8
Black
10
3.62929
20
21.7487
11
6.05128
21
24.1707
0
LINE
8
Black
10
6.05128
20
24.1707
11
6.05488
21
24.1732
0
LINE
8
Black
10
6.05488
20
24.1732
11
6.05771
21
24.1766
0
LINE
8
Black
10
6.05771
20
24.1766
11
6.06903
21
24.1831
0
LINE
8
Black
10
6.06903
20
24.1831
11
6.07973
21
24.1906
0
LINE
8
Black
10
6.07973
20
24.1906
11
6.08398
21
24.1918
0
LINE
8
Black
10
6.08398
20
24.1918
11
6.08779
21
24.194
0
LINE
8
Black
10
6.08779
20
24.194
11
6.10065
21
24.1962
0
LINE
8
Black
10
6.10065
20
24.1962
11
6.11327
21
24.1996
0
LINE
8
Black
10
6.11327
20
24.1996
11
6.11766
21
24.1992
0
LINE
8
Black
10
6.11766
20
24.1992
11
6.12199
21
24.2
0
LINE
8
Black
10
6.12199
20
24.2
11
10.0208
21
24.2
0
LINE
8
Black
10
10.0208
20
24.2
11
10.0392
21
24.2506
0
LINE
8
Black
10
10.0392
20
24.2506
11
10.1064
21
24.3307
0
LINE
8
Black
10
10.1064
20
24.3307
11
10.197
21
24.383
0
LINE
8
Black
10
10.197
20
24.383
11
10.3
21
24.4011
0
LINE
8
Black
10
10.3
20
24.4011
11
10.403
21
24.383
0
LINE
8
Black
10
27.303
20
23.883
11
27.3936
21
23.8307
0
LINE
8
Black
10
27.3936
20
23.8307
11
27.4608
21
23.7506
0
LINE
8
Black
10
27.4608
20
23.7506
11
27.4966
21
23.6523
0
LINE
8
Black
10
27.4966
20
23.6523
11
27.4966
21
23.5477
0
LINE
8
Black
10
27.4966
20
23.5477
11
27.4608
21
23.4494
0
LINE
8
Black
10
27.4608
20
23.4494
11
27.3936
21
23.3693
0
LINE
8
Black
10
27.3936
20
23.3693
11
27.303
21
23.317
0
LINE
8
Black
10
27.303
20
23.317
11
27.2
21
23.2989
0
LINE
8
Black
10
27.2
20
23.2989
11
27.097
21
23.317
0
LINE
8
Black
10
27.097
20
23.317
11
27.0064
21
23.3693
0
LINE
8
Black
10
27.0064
20
23.3693
11
26.9392
21
23.4494
0
LINE
8
Black
10
26.9392
20
23.4494
11
26.9034
21
23.5477
0
LINE
8
Black
10
26.9034
20
23.5477
11
26.9034
21
23.6523
0
LINE
8
Black
10
26.9034
20
23.6523
11
26.9392
21
23.7506
0
LINE
8
Black
10
26.9392
20
23.7506
11
27.0064
21
23.8307
0
LINE
8
Black
10
27.0064
20
23.8307
11
27.097
21
23.883
0
LINE
8
Black
10
27.097
20
23.883
11
27.2
21
23.9011
0
LINE
8
Black
10
27.2
20
23.9011
11
27.303
21
23.883
0
LINE
8
Black
10
29.303
20
27.083
11
29.3936
21
27.0307
0
LINE
8
Black
10
29.3936
20
27.0307
11
29.4608
21
26.9506
0
LINE
8
Black
10
29.4608
20
26.9506
11
29.4966
21
26.8523
0
LINE
8
Black
10
29.4966
20
26.8523
11
29.4966
21
26.7477
0
LINE
8
Black
10
29.4966
20
26.7477
11
29.4608
21
26.6494
0
LINE
8
Black
10
29.4608
20
26.6494
11
29.3936
21
26.5693
0
LINE
8
Black
10
29.3936
20
26.5693
11
29.303
21
26.517
0
LINE
8
Black
10
29.303
20
26.517
11
29.2
21
26.4989
0
LINE
8
Black
10
29.2
20
26.4989
11
29.097
21
26.517
0
LINE
8
Black
10
29.097
20
26.517
11
29.0064
21
26.5693
0
LINE
8
Black
10
29.0064
20
26.5693
11
28.9392
21
26.6494
0
LINE
8
Black
10
28.9392
20
26.6494
11
28.9034
21
26.7477
0
LINE
8
Black
10
28.9034
20
26.7477
11
28.9034
21
26.8523
0
LINE
8
Black
10
28.9034
20
26.8523
11
28.9392
21
26.9506
0
LINE
8
Black
10
28.9392
20
26.9506
11
29.0064
21
27.0307
0
LINE
8
Black
10
29.0064
20
27.0307
11
29.097
21
27.083
0
LINE
8
Black
10
29.097
20
27.083
11
29.2
21
27.1011
0
LINE
8
Black
10
29.2
20
27.1011
11
29.303
21
27.083
0
CIRCLE
8
Black
10
6.17073
20
11.8627
40
0.2
0
CIRCLE
8
Black
10
2.27
20
16.27
40
0.2
0
CIRCLE
8
Black
10
2.27
20
13.73
40
0.2
0
CIRCLE
8
Black
10
16.3
20
11.6
40
0.2
0
CIRCLE
8
Black
10
15.4
20
11.4
40
0.2
0
CIRCLE
8
Black
10
5.77
20
27.73
40
0.2
0
CIRCLE
8
Black
10
5.47716
20
11.04
40
0.2
0
CIRCLE
8
Black
10
3.23
20
27.73
40
0.2
0
CIRCLE
8
Black
10
5.58405
20
10
40
0.2
0
CIRCLE
8
Black
10
3.23
20
2.27
40
0.2
0
CIRCLE
8
Black
10
15.9404
20
9.83999
40
0.2
0
CIRCLE
8
Black
10
5.77
20
2.27
40
0.2
0
CIRCLE
8
Black
10
16.2013
20
9.12616
40
0.2
0
CIRCLE
8
Black
10
16.2
20
30.4
40
0.2
0
CIRCLE
8
Black
10
6.8
20
12.6
40
0.2
0
CIRCLE
8
Black
10
6.872
20
16.2223
40
0.2
0
CIRCLE
8
Black
10
13.716
20
27.686
40
0.2
0
CIRCLE
8
Black
10
6.14406
20
9.29081
40
0.2
0
CIRCLE
8
Black
10
13.716
20
2.286
40
0.2
0
CIRCLE
8
Black
10
5.7
20
8.5
40
0.2
0
CIRCLE
8
Black
10
13.6745
20
6.46643
40
0.2
0
CIRCLE
8
Black
10
12
20
3.6
40
0.2
0
CIRCLE
8
Black
10
15.494
20
0.762
40
0.2
0
CIRCLE
8
Black
10
15.7
20
8.5
40
0.2
0
CIRCLE
8
Black
10
26.77
20
27.73
40
0.2
0
CIRCLE
8
Black
10
16.8
20
7.9
40
0.2
0
CIRCLE
8
Black
10
23.2195
20
18.288
40
0.2
0
CIRCLE
8
Black
10
24.638
20
18.288
40
0.2
0
CIRCLE
8
Black
10
24.23
20
27.73
40
0.2
0
CIRCLE
8
Black
10
6.69
20
7.75
40
0.2
0
CIRCLE
8
Black
10
24.23
20
2.27
40
0.2
0
CIRCLE
8
Black
10
8.8
20
5.4
40
0.2
0
CIRCLE
8
Black
10
26.77
20
2.27
40
0.2
0
CIRCLE
8
Black
10
18
20
6
40
0.2
0
CIRCLE
8
Black
10
27.73
20
13.73
40
0.2
0
CIRCLE
8
Black
10
19.2
20
6.3
40
0.2
0
CIRCLE
8
Black
10
27.73
20
16.27
40
0.2
0
CIRCLE
8
Black
10
24.8
20
13.8
40
0.2
0
CIRCLE
8
Black
10
10.2
20
5.6
40
0.2
0
CIRCLE
8
Black
10
27.2
20
23.6
40
0.2
0
CIRCLE
8
Black
10
29.2
20
26.8
40
0.2
0
CIRCLE
8
Black
10
3.4
20
21.378
40
0.2
0
CIRCLE
8
Black
10
10.3
20
24.1
40
0.2
0
CIRCLE
8
Black
10
14.3
20
15.3
40
0.2
0
CIRCLE
8
Black
10
20
20
6.9
40
0.2
0
CIRCLE
8
Black
10
6.33
20
18.8
40
0.2
0
CIRCLE
8
Black
10
19.8
20
14.3
40
0.2
0
CIRCLE
8
Black
10
10
20
15.2
40
0.2
0
CIRCLE
8
Black
10
10
20
6.8
40
0.2
0
CIRCLE
8
Black
10
5.51101
20
21.3226
40
0.2
0
CIRCLE
8
Black
10
10.2
20
22.8
40
0.2
0
CIRCLE
8
Black
10
11.2
20
4.3
40
0.2
0
CIRCLE
8
Black
10
21.336
20
2.794
40
0.2
0
CIRCLE
8
Black
10
12.7
20
7.7
40
0.2
0
CIRCLE
8
Black
10
8.636
20
2.794
40
0.2
0
CIRCLE
8
Black
10
11.4
20
13.3
40
0.2
0
CIRCLE
8
Black
10
17.9338
20
13.2211
40
0.2
0
CIRCLE
8
Black
10
10.56
20
13.901
40
0.2
0
CIRCLE
8
Black
10
8.9
20
18.8
40
0.2
0
CIRCLE
8
Black
10
2.7305
20
18.923
40
0.2
0
CIRCLE
8
Black
10
20.4
20
15.2
40
0.2
0
CIRCLE
8
Black
10
17.79
20
14.3565
40
0.2
0
CIRCLE
8
Black
10
9.54524
20
16.5533
40
0.2
0
CIRCLE
8
Black
10
2.68108
20
25.1714
40
0.2
0
CIRCLE
8
Black
10
7.5
20
18.6
40
0.2
0
CIRCLE
8
Black
10
8
20
14.5
40
0.2
0
CIRCLE
8
Black
10
16.6
20
5.3
40
0.2
0
CIRCLE
8
Black
10
18.542
20
3.556
40
0.2
0
CIRCLE
8
Black
10
21.844
20
7.5
40
0.2
0
CIRCLE
8
Black
10
15
20
5.6
40
0.2
0
CIRCLE
8
Black
10
22.6
20
8.08599
40
0.2
0
CIRCLE
8
Black
10
11.938
20
2.54
40
0.2
0
CIRCLE
8
Black
10
21.236
20
15.5368
40
0.2
0
CIRCLE
8
Black
10
15
20
20.3
40
0.2
0
CIRCLE
8
Black
10
4.58584
20
13.86
40
0.2
0
CIRCLE
8
Black
10
16.891
20
22.86
40
0.2
0
CIRCLE
8
Black
10
2.667
20
10.8585
40
0.2
0
CIRCLE
8
Black
10
2.921
20
7.3025
40
0.2
0
CIRCLE
8
Black
10
6.23999
20
14.2761
40
0.2
0
CIRCLE
8
Black
10
3.7
20
10.32
40
0.2
0
CIRCLE
8
Black
10
2.6
20
5.6
40
0.2
0
CIRCLE
8
Black
10
16.891
20
21.59
40
0.2
  0
ENDSEC
  0
EOF
