  0
SECTION
  2
HEADER
  9
$ANGBASE
  50
0.0
  9
$ANGDIR
  70
  1
  9
$MEASUREMENT
  70
0
  0
ENDSEC
  0
SECTION
  2
TABLES
  0
TABLE
  2
LTYPE
  70
1
  0
LTYPE
  2
CONTINUOUS
  70
0
  3
Solid line
  72
65
  73
0
  40
0.0
  0
ENDTAB
  0
TABLE
  2
STYLE
  70
4
  0
STYLE
  2
KICAD
  70
0
  40
0
  41
1
  42
1
  50
0
  71
0
  3
isocp.shx
  0
STYLE
  2
KICADB
  70
0
  40
0
  41
1
  42
1
  50
0
  71
0
  3
isocp.shx
  0
STYLE
  2
KICADI
  70
0
  40
0
  41
1
  42
1
  50
15
  71
0
  3
isocp.shx
  0
STYLE
  2
KICADBI
  70
0
  40
0
  41
1
  42
1
  50
15
  71
0
  3
isocp.shx
  0
ENDTAB
  0
TABLE
  2
LAYER
  70
30
  0
LAYER
  2
BLACK
  70
0
  62
7
  6
CONTINUOUS
  0
LAYER
  2
GRAY1
  70
0
  62
251
  6
CONTINUOUS
  0
LAYER
  2
GRAY2
  70
0
  62
8
  6
CONTINUOUS
  0
LAYER
  2
GRAY3
  70
0
  62
9
  6
CONTINUOUS
  0
LAYER
  2
WHITE
  70
0
  62
7
  6
CONTINUOUS
  0
LAYER
  2
LYELLOW
  70
0
  62
51
  6
CONTINUOUS
  0
LAYER
  2
BLUE1
  70
0
  62
178
  6
CONTINUOUS
  0
LAYER
  2
GREEN1
  70
0
  62
98
  6
CONTINUOUS
  0
LAYER
  2
CYAN1
  70
0
  62
138
  6
CONTINUOUS
  0
LAYER
  2
RED1
  70
0
  62
18
  6
CONTINUOUS
  0
LAYER
  2
MAGENTA1
  70
0
  62
228
  6
CONTINUOUS
  0
LAYER
  2
BROWN1
  70
0
  62
58
  6
CONTINUOUS
  0
LAYER
  2
BLUE2
  70
0
  62
5
  6
CONTINUOUS
  0
LAYER
  2
GREEN2
  70
0
  62
3
  6
CONTINUOUS
  0
LAYER
  2
CYAN2
  70
0
  62
4
  6
CONTINUOUS
  0
LAYER
  2
RED2
  70
0
  62
1
  6
CONTINUOUS
  0
LAYER
  2
MAGENTA2
  70
0
  62
6
  6
CONTINUOUS
  0
LAYER
  2
BROWN2
  70
0
  62
54
  6
CONTINUOUS
  0
LAYER
  2
BLUE3
  70
0
  62
171
  6
CONTINUOUS
  0
LAYER
  2
GREEN3
  70
0
  62
91
  6
CONTINUOUS
  0
LAYER
  2
CYAN3
  70
0
  62
131
  6
CONTINUOUS
  0
LAYER
  2
RED3
  70
0
  62
11
  6
CONTINUOUS
  0
LAYER
  2
MAGENTA3
  70
0
  62
221
  6
CONTINUOUS
  0
LAYER
  2
YELLOW3
  70
0
  62
2
  6
CONTINUOUS
  0
LAYER
  2
BLUE4
  70
0
  62
5
  6
CONTINUOUS
  0
LAYER
  2
GREEN4
  70
0
  62
3
  6
CONTINUOUS
  0
LAYER
  2
CYAN4
  70
0
  62
4
  6
CONTINUOUS
  0
LAYER
  2
RED4
  70
0
  62
1
  6
CONTINUOUS
  0
LAYER
  2
MAGENTA4
  70
0
  62
6
  6
CONTINUOUS
  0
LAYER
  2
YELLOW4
  70
0
  62
2
  6
CONTINUOUS
  0
ENDTAB
  0
ENDSEC
  0
SECTION
  2
ENTITIES
0
LINE
8
Black
10
6.19621
20
3.44099
11
6.571
21
3.2246
0
LINE
8
Black
10
6.571
20
3.2246
11
6.84919
21
2.89307
0
LINE
8
Black
10
6.84919
20
2.89307
11
6.99721
21
2.48639
0
LINE
8
Black
10
6.99721
20
2.48639
11
6.99721
21
2.05361
0
LINE
8
Black
10
6.99721
20
2.05361
11
6.84919
21
1.64693
0
LINE
8
Black
10
6.84919
20
1.64693
11
6.571
21
1.3154
0
LINE
8
Black
10
6.571
20
1.3154
11
6.19621
21
1.09901
0
LINE
8
Black
10
6.19621
20
1.09901
11
5.77
21
1.02386
0
LINE
8
Black
10
5.77
20
1.02386
11
5.34379
21
1.09901
0
LINE
8
Black
10
5.34379
20
1.09901
11
4.96899
21
1.3154
0
LINE
8
Black
10
4.96899
20
1.3154
11
4.69081
21
1.64693
0
LINE
8
Black
10
4.69081
20
1.64693
11
4.54279
21
2.05361
0
LINE
8
Black
10
4.54279
20
2.05361
11
4.54279
21
2.48639
0
LINE
8
Black
10
4.54279
20
2.48639
11
4.69081
21
2.89307
0
LINE
8
Black
10
4.69081
20
2.89307
11
4.96899
21
3.2246
0
LINE
8
Black
10
4.96899
20
3.2246
11
5.34379
21
3.44099
0
LINE
8
Black
10
5.34379
20
3.44099
11
5.77
21
3.51614
0
LINE
8
Black
10
5.77
20
3.51614
11
6.19621
21
3.44099
0
LINE
8
Black
10
3.65621
20
3.44099
11
4.031
21
3.2246
0
LINE
8
Black
10
4.031
20
3.2246
11
4.30919
21
2.89307
0
LINE
8
Black
10
4.30919
20
2.89307
11
4.45721
21
2.48639
0
LINE
8
Black
10
4.45721
20
2.48639
11
4.45721
21
2.05361
0
LINE
8
Black
10
4.45721
20
2.05361
11
4.30919
21
1.64693
0
LINE
8
Black
10
4.30919
20
1.64693
11
4.031
21
1.3154
0
LINE
8
Black
10
4.031
20
1.3154
11
3.65621
21
1.09901
0
LINE
8
Black
10
3.65621
20
1.09901
11
3.23
21
1.02386
0
LINE
8
Black
10
3.23
20
1.02386
11
2.80379
21
1.09901
0
LINE
8
Black
10
2.80379
20
1.09901
11
2.429
21
1.3154
0
LINE
8
Black
10
2.429
20
1.3154
11
2.15081
21
1.64693
0
LINE
8
Black
10
2.15081
20
1.64693
11
2.00279
21
2.05361
0
LINE
8
Black
10
2.00279
20
2.05361
11
2.00279
21
2.48639
0
LINE
8
Black
10
2.00279
20
2.48639
11
2.15081
21
2.89307
0
LINE
8
Black
10
2.15081
20
2.89307
11
2.429
21
3.2246
0
LINE
8
Black
10
2.429
20
3.2246
11
2.80379
21
3.44099
0
LINE
8
Black
10
2.80379
20
3.44099
11
3.23
21
3.51614
0
LINE
8
Black
10
3.23
20
3.51614
11
3.65621
21
3.44099
0
LINE
8
Black
10
17.6562
20
3.44099
11
18.031
21
3.2246
0
LINE
8
Black
10
18.031
20
3.2246
11
18.3092
21
2.89307
0
LINE
8
Black
10
18.3092
20
2.89307
11
18.4572
21
2.48639
0
LINE
8
Black
10
18.4572
20
2.48639
11
18.4572
21
2.05361
0
LINE
8
Black
10
18.4572
20
2.05361
11
18.3092
21
1.64693
0
LINE
8
Black
10
18.3092
20
1.64693
11
18.031
21
1.3154
0
LINE
8
Black
10
18.031
20
1.3154
11
17.6562
21
1.09901
0
LINE
8
Black
10
17.6562
20
1.09901
11
17.23
21
1.02386
0
LINE
8
Black
10
17.23
20
1.02386
11
16.8038
21
1.09901
0
LINE
8
Black
10
16.8038
20
1.09901
11
16.429
21
1.3154
0
LINE
8
Black
10
16.429
20
1.3154
11
16.1508
21
1.64693
0
LINE
8
Black
10
16.1508
20
1.64693
11
16.0028
21
2.05361
0
LINE
8
Black
10
16.0028
20
2.05361
11
16.0028
21
2.48639
0
LINE
8
Black
10
16.0028
20
2.48639
11
16.1508
21
2.89307
0
LINE
8
Black
10
16.1508
20
2.89307
11
16.429
21
3.2246
0
LINE
8
Black
10
16.429
20
3.2246
11
16.8038
21
3.44099
0
LINE
8
Black
10
16.8038
20
3.44099
11
17.23
21
3.51614
0
LINE
8
Black
10
17.23
20
3.51614
11
17.6562
21
3.44099
0
LINE
8
Black
10
20.1962
20
3.44099
11
20.571
21
3.2246
0
LINE
8
Black
10
20.571
20
3.2246
11
20.8492
21
2.89307
0
LINE
8
Black
10
20.8492
20
2.89307
11
20.9972
21
2.48639
0
LINE
8
Black
10
20.9972
20
2.48639
11
20.9972
21
2.05361
0
LINE
8
Black
10
20.9972
20
2.05361
11
20.8492
21
1.64693
0
LINE
8
Black
10
20.8492
20
1.64693
11
20.571
21
1.3154
0
LINE
8
Black
10
20.571
20
1.3154
11
20.1962
21
1.09901
0
LINE
8
Black
10
20.1962
20
1.09901
11
19.77
21
1.02386
0
LINE
8
Black
10
19.77
20
1.02386
11
19.3438
21
1.09901
0
LINE
8
Black
10
19.3438
20
1.09901
11
18.969
21
1.3154
0
LINE
8
Black
10
18.969
20
1.3154
11
18.6908
21
1.64693
0
LINE
8
Black
10
18.6908
20
1.64693
11
18.5428
21
2.05361
0
LINE
8
Black
10
18.5428
20
2.05361
11
18.5428
21
2.48639
0
LINE
8
Black
10
18.5428
20
2.48639
11
18.6908
21
2.89307
0
LINE
8
Black
10
18.6908
20
2.89307
11
18.969
21
3.2246
0
LINE
8
Black
10
18.969
20
3.2246
11
19.3438
21
3.44099
0
LINE
8
Black
10
19.3438
20
3.44099
11
19.77
21
3.51614
0
LINE
8
Black
10
19.77
20
3.51614
11
20.1962
21
3.44099
0
LINE
8
Black
10
24.6562
20
3.44099
11
25.031
21
3.2246
0
LINE
8
Black
10
25.031
20
3.2246
11
25.3092
21
2.89307
0
LINE
8
Black
10
25.3092
20
2.89307
11
25.4572
21
2.48639
0
LINE
8
Black
10
25.4572
20
2.48639
11
25.4572
21
2.05361
0
LINE
8
Black
10
25.4572
20
2.05361
11
25.3092
21
1.64693
0
LINE
8
Black
10
25.3092
20
1.64693
11
25.031
21
1.3154
0
LINE
8
Black
10
25.031
20
1.3154
11
24.6562
21
1.09901
0
LINE
8
Black
10
24.6562
20
1.09901
11
24.23
21
1.02386
0
LINE
8
Black
10
24.23
20
1.02386
11
23.8038
21
1.09901
0
LINE
8
Black
10
23.8038
20
1.09901
11
23.429
21
1.3154
0
LINE
8
Black
10
23.429
20
1.3154
11
23.1508
21
1.64693
0
LINE
8
Black
10
23.1508
20
1.64693
11
23.0028
21
2.05361
0
LINE
8
Black
10
23.0028
20
2.05361
11
23.0028
21
2.48639
0
LINE
8
Black
10
23.0028
20
2.48639
11
23.1508
21
2.89307
0
LINE
8
Black
10
23.1508
20
2.89307
11
23.429
21
3.2246
0
LINE
8
Black
10
23.429
20
3.2246
11
23.8038
21
3.44099
0
LINE
8
Black
10
23.8038
20
3.44099
11
24.23
21
3.51614
0
LINE
8
Black
10
24.23
20
3.51614
11
24.6562
21
3.44099
0
LINE
8
Black
10
27.1962
20
3.44099
11
27.571
21
3.2246
0
LINE
8
Black
10
27.571
20
3.2246
11
27.8492
21
2.89307
0
LINE
8
Black
10
27.8492
20
2.89307
11
27.9972
21
2.48639
0
LINE
8
Black
10
27.9972
20
2.48639
11
27.9972
21
2.05361
0
LINE
8
Black
10
27.9972
20
2.05361
11
27.8492
21
1.64693
0
LINE
8
Black
10
27.8492
20
1.64693
11
27.571
21
1.3154
0
LINE
8
Black
10
27.571
20
1.3154
11
27.1962
21
1.09901
0
LINE
8
Black
10
27.1962
20
1.09901
11
26.77
21
1.02386
0
LINE
8
Black
10
26.77
20
1.02386
11
26.3438
21
1.09901
0
LINE
8
Black
10
26.3438
20
1.09901
11
25.969
21
1.3154
0
LINE
8
Black
10
25.969
20
1.3154
11
25.6908
21
1.64693
0
LINE
8
Black
10
25.6908
20
1.64693
11
25.5428
21
2.05361
0
LINE
8
Black
10
25.5428
20
2.05361
11
25.5428
21
2.48639
0
LINE
8
Black
10
25.5428
20
2.48639
11
25.6908
21
2.89307
0
LINE
8
Black
10
25.6908
20
2.89307
11
25.969
21
3.2246
0
LINE
8
Black
10
25.969
20
3.2246
11
26.3438
21
3.44099
0
LINE
8
Black
10
26.3438
20
3.44099
11
26.77
21
3.51614
0
LINE
8
Black
10
26.77
20
3.51614
11
27.1962
21
3.44099
0
LINE
8
Black
10
20.3
20
12.55
11
20.7
21
12.55
0
LINE
8
Black
10
20.7
20
12.55
11
21.1
21
12.55
0
LINE
8
Black
10
21.1
20
12.55
11
21.5
21
12.55
0
LINE
8
Black
10
21.5
20
12.55
11
21.5
21
11.5
0
LINE
8
Black
10
21.5
20
11.5
11
22.55
21
11.5
0
LINE
8
Black
10
22.55
20
11.5
11
22.55
21
10.9
0
LINE
8
Black
10
22.55
20
10.9
11
22.55
21
10.5
0
LINE
8
Black
10
22.55
20
10.5
11
22.55
21
10.1
0
LINE
8
Black
10
22.55
20
10.1
11
22.55
21
9.7
0
LINE
8
Black
10
22.55
20
9.7
11
22.55
21
9.3
0
LINE
8
Black
10
22.55
20
9.3
11
22.55
21
8.9
0
LINE
8
Black
10
22.55
20
8.9
11
22.55
21
8.5
0
LINE
8
Black
10
22.55
20
8.5
11
21.5
21
8.5
0
LINE
8
Black
10
21.5
20
8.5
11
21.5
21
7.45
0
LINE
8
Black
10
21.5
20
7.45
11
20.9
21
7.45
0
LINE
8
Black
10
20.9
20
7.45
11
20.5
21
7.45
0
LINE
8
Black
10
20.5
20
7.45
11
20.1
21
7.45
0
LINE
8
Black
10
20.1
20
7.45
11
19.7
21
7.45
0
LINE
8
Black
10
19.7
20
7.45
11
19.5
21
7.45
0
LINE
8
Black
10
19.5
20
7.45
11
19.3
21
7.45
0
LINE
8
Black
10
19.3
20
7.45
11
18.9
21
7.45
0
LINE
8
Black
10
18.9
20
7.45
11
18.5
21
7.45
0
LINE
8
Black
10
18.5
20
7.45
11
18.5
21
8.5
0
LINE
8
Black
10
18.5
20
8.5
11
17.45
21
8.5
0
LINE
8
Black
10
17.45
20
8.5
11
17.45
21
9.1
0
LINE
8
Black
10
17.45
20
9.1
11
17.45
21
9.5
0
LINE
8
Black
10
17.45
20
9.5
11
17.45
21
9.9
0
LINE
8
Black
10
17.45
20
9.9
11
17.45
21
10.3
0
LINE
8
Black
10
17.45
20
10.3
11
17.45
21
10.7
0
LINE
8
Black
10
17.45
20
10.7
11
17.45
21
11.1
0
LINE
8
Black
10
17.45
20
11.1
11
17.45
21
11.5
0
LINE
8
Black
10
17.45
20
11.5
11
18.5
21
11.5
0
LINE
8
Black
10
18.5
20
11.5
11
18.5
21
12.55
0
LINE
8
Black
10
18.5
20
12.55
11
19.1
21
12.55
0
LINE
8
Black
10
19.1
20
12.55
11
19.5
21
12.55
0
LINE
8
Black
10
19.5
20
12.55
11
19.9
21
12.55
0
LINE
8
Black
10
19.9
20
12.55
11
20.3
21
12.55
0
LINE
8
Black
10
10.3
20
12.55
11
10.7
21
12.55
0
LINE
8
Black
10
10.7
20
12.55
11
11.1
21
12.55
0
LINE
8
Black
10
11.1
20
12.55
11
11.5
21
12.55
0
LINE
8
Black
10
11.5
20
12.55
11
11.5
21
11.5
0
LINE
8
Black
10
11.5
20
11.5
11
12.55
21
11.5
0
LINE
8
Black
10
12.55
20
11.5
11
12.55
21
10.9
0
LINE
8
Black
10
12.55
20
10.9
11
12.55
21
10.5
0
LINE
8
Black
10
12.55
20
10.5
11
12.55
21
10.1
0
LINE
8
Black
10
12.55
20
10.1
11
12.55
21
9.7
0
LINE
8
Black
10
12.55
20
9.7
11
12.55
21
9.3
0
LINE
8
Black
10
12.55
20
9.3
11
12.55
21
8.9
0
LINE
8
Black
10
12.55
20
8.9
11
12.55
21
8.5
0
LINE
8
Black
10
12.55
20
8.5
11
11.5
21
8.5
0
LINE
8
Black
10
11.5
20
8.5
11
11.5
21
7.45
0
LINE
8
Black
10
11.5
20
7.45
11
11.1
21
7.45
0
LINE
8
Black
10
11.1
20
7.45
11
10.9
21
7.45
0
LINE
8
Black
10
10.9
20
7.45
11
10.7
21
7.45
0
LINE
8
Black
10
10.7
20
7.45
11
10.5
21
7.45
0
LINE
8
Black
10
10.5
20
7.45
11
10.3
21
7.45
0
LINE
8
Black
10
10.3
20
7.45
11
10.1
21
7.45
0
LINE
8
Black
10
10.1
20
7.45
11
9.9
21
7.45
0
LINE
8
Black
10
9.9
20
7.45
11
9.7
21
7.45
0
LINE
8
Black
10
9.7
20
7.45
11
9.5
21
7.45
0
LINE
8
Black
10
9.5
20
7.45
11
9.3
21
7.45
0
LINE
8
Black
10
9.3
20
7.45
11
9.1
21
7.45
0
LINE
8
Black
10
9.1
20
7.45
11
8.9
21
7.45
0
LINE
8
Black
10
8.9
20
7.45
11
8.5
21
7.45
0
LINE
8
Black
10
8.5
20
7.45
11
8.5
21
8.5
0
LINE
8
Black
10
8.5
20
8.5
11
7.45
21
8.5
0
LINE
8
Black
10
7.45
20
8.5
11
7.45
21
9.1
0
LINE
8
Black
10
7.45
20
9.1
11
7.45
21
9.5
0
LINE
8
Black
10
7.45
20
9.5
11
7.45
21
9.9
0
LINE
8
Black
10
7.45
20
9.9
11
7.45
21
10.3
0
LINE
8
Black
10
7.45
20
10.3
11
7.45
21
10.7
0
LINE
8
Black
10
7.45
20
10.7
11
7.45
21
11.1
0
LINE
8
Black
10
7.45
20
11.1
11
7.45
21
11.5
0
LINE
8
Black
10
7.45
20
11.5
11
8.5
21
11.5
0
LINE
8
Black
10
8.5
20
11.5
11
8.5
21
12.55
0
LINE
8
Black
10
8.5
20
12.55
11
9.1
21
12.55
0
LINE
8
Black
10
9.1
20
12.55
11
9.5
21
12.55
0
LINE
8
Black
10
9.5
20
12.55
11
9.9
21
12.55
0
LINE
8
Black
10
9.9
20
12.55
11
10.3
21
12.55
0
LINE
8
Black
10
28.1562
20
14.901
11
28.531
21
14.6846
0
LINE
8
Black
10
28.531
20
14.6846
11
28.8092
21
14.3531
0
LINE
8
Black
10
28.8092
20
14.3531
11
28.9572
21
13.9464
0
LINE
8
Black
10
28.9572
20
13.9464
11
28.9572
21
13.5136
0
LINE
8
Black
10
28.9572
20
13.5136
11
28.8092
21
13.1069
0
LINE
8
Black
10
28.8092
20
13.1069
11
28.531
21
12.7754
0
LINE
8
Black
10
28.531
20
12.7754
11
28.1562
21
12.559
0
LINE
8
Black
10
28.1562
20
12.559
11
27.73
21
12.4839
0
LINE
8
Black
10
27.73
20
12.4839
11
27.3038
21
12.559
0
LINE
8
Black
10
27.3038
20
12.559
11
26.929
21
12.7754
0
LINE
8
Black
10
26.929
20
12.7754
11
26.6508
21
13.1069
0
LINE
8
Black
10
26.6508
20
13.1069
11
26.5028
21
13.5136
0
LINE
8
Black
10
26.5028
20
13.5136
11
26.5028
21
13.9464
0
LINE
8
Black
10
26.5028
20
13.9464
11
26.6508
21
14.3531
0
LINE
8
Black
10
26.6508
20
14.3531
11
26.929
21
14.6846
0
LINE
8
Black
10
26.929
20
14.6846
11
27.3038
21
14.901
0
LINE
8
Black
10
27.3038
20
14.901
11
27.73
21
14.9761
0
LINE
8
Black
10
27.73
20
14.9761
11
28.1562
21
14.901
0
LINE
8
Black
10
2.69621
20
14.901
11
3.071
21
14.6846
0
LINE
8
Black
10
3.071
20
14.6846
11
3.34919
21
14.3531
0
LINE
8
Black
10
3.34919
20
14.3531
11
3.49721
21
13.9464
0
LINE
8
Black
10
3.49721
20
13.9464
11
3.49721
21
13.5136
0
LINE
8
Black
10
3.49721
20
13.5136
11
3.34919
21
13.1069
0
LINE
8
Black
10
3.34919
20
13.1069
11
3.071
21
12.7754
0
LINE
8
Black
10
3.071
20
12.7754
11
2.69621
21
12.559
0
LINE
8
Black
10
2.69621
20
12.559
11
2.27
21
12.4839
0
LINE
8
Black
10
2.27
20
12.4839
11
1.84379
21
12.559
0
LINE
8
Black
10
1.84379
20
12.559
11
1.46899
21
12.7754
0
LINE
8
Black
10
1.46899
20
12.7754
11
1.19081
21
13.1069
0
LINE
8
Black
10
1.19081
20
13.1069
11
1.04279
21
13.5136
0
LINE
8
Black
10
1.04279
20
13.5136
11
1.04279
21
13.9464
0
LINE
8
Black
10
1.04279
20
13.9464
11
1.19081
21
14.3531
0
LINE
8
Black
10
1.19081
20
14.3531
11
1.46899
21
14.6846
0
LINE
8
Black
10
1.46899
20
14.6846
11
1.84379
21
14.901
0
LINE
8
Black
10
1.84379
20
14.901
11
2.27
21
14.9761
0
LINE
8
Black
10
2.27
20
14.9761
11
2.69621
21
14.901
0
LINE
8
Black
10
19.1865
20
14.786
11
17.6435
21
14.786
0
LINE
8
Black
10
17.6435
20
14.786
11
17.6435
21
15.694
0
LINE
8
Black
10
17.6435
20
15.694
11
19.1865
21
15.694
0
LINE
8
Black
10
19.1865
20
15.694
11
19.1865
21
14.786
0
LINE
8
Black
10
12.8365
20
14.786
11
11.2935
21
14.786
0
LINE
8
Black
10
11.2935
20
14.786
11
11.2935
21
15.694
0
LINE
8
Black
10
11.2935
20
15.694
11
12.8365
21
15.694
0
LINE
8
Black
10
12.8365
20
15.694
11
12.8365
21
14.786
0
LINE
8
Black
10
2.69621
20
17.441
11
3.071
21
17.2246
0
LINE
8
Black
10
3.071
20
17.2246
11
3.34919
21
16.8931
0
LINE
8
Black
10
3.34919
20
16.8931
11
3.49721
21
16.4864
0
LINE
8
Black
10
3.49721
20
16.4864
11
3.49721
21
16.0536
0
LINE
8
Black
10
3.49721
20
16.0536
11
3.34919
21
15.6469
0
LINE
8
Black
10
3.34919
20
15.6469
11
3.071
21
15.3154
0
LINE
8
Black
10
3.071
20
15.3154
11
2.69621
21
15.099
0
LINE
8
Black
10
2.69621
20
15.099
11
2.27
21
15.0239
0
LINE
8
Black
10
2.27
20
15.0239
11
1.84379
21
15.099
0
LINE
8
Black
10
1.84379
20
15.099
11
1.46899
21
15.3154
0
LINE
8
Black
10
1.46899
20
15.3154
11
1.19081
21
15.6469
0
LINE
8
Black
10
1.19081
20
15.6469
11
1.04279
21
16.0536
0
LINE
8
Black
10
1.04279
20
16.0536
11
1.04279
21
16.4864
0
LINE
8
Black
10
1.04279
20
16.4864
11
1.19081
21
16.8931
0
LINE
8
Black
10
1.19081
20
16.8931
11
1.46899
21
17.2246
0
LINE
8
Black
10
1.46899
20
17.2246
11
1.84379
21
17.441
0
LINE
8
Black
10
1.84379
20
17.441
11
2.27
21
17.5161
0
LINE
8
Black
10
2.27
20
17.5161
11
2.69621
21
17.441
0
LINE
8
Black
10
28.1562
20
17.441
11
28.531
21
17.2246
0
LINE
8
Black
10
28.531
20
17.2246
11
28.8092
21
16.8931
0
LINE
8
Black
10
28.8092
20
16.8931
11
28.9572
21
16.4864
0
LINE
8
Black
10
28.9572
20
16.4864
11
28.9572
21
16.0536
0
LINE
8
Black
10
28.9572
20
16.0536
11
28.8092
21
15.6469
0
LINE
8
Black
10
28.8092
20
15.6469
11
28.531
21
15.3154
0
LINE
8
Black
10
28.531
20
15.3154
11
28.1562
21
15.099
0
LINE
8
Black
10
28.1562
20
15.099
11
27.73
21
15.0239
0
LINE
8
Black
10
27.73
20
15.0239
11
27.3038
21
15.099
0
LINE
8
Black
10
27.3038
20
15.099
11
26.929
21
15.3154
0
LINE
8
Black
10
26.929
20
15.3154
11
26.6508
21
15.6469
0
LINE
8
Black
10
26.6508
20
15.6469
11
26.5028
21
16.0536
0
LINE
8
Black
10
26.5028
20
16.0536
11
26.5028
21
16.4864
0
LINE
8
Black
10
26.5028
20
16.4864
11
26.6508
21
16.8931
0
LINE
8
Black
10
26.6508
20
16.8931
11
26.929
21
17.2246
0
LINE
8
Black
10
26.929
20
17.2246
11
27.3038
21
17.441
0
LINE
8
Black
10
27.3038
20
17.441
11
27.73
21
17.5161
0
LINE
8
Black
10
27.73
20
17.5161
11
28.1562
21
17.441
0
LINE
8
Black
10
19.1865
20
16.056
11
17.6435
21
16.056
0
LINE
8
Black
10
17.6435
20
16.056
11
17.6435
21
16.964
0
LINE
8
Black
10
17.6435
20
16.964
11
19.1865
21
16.964
0
LINE
8
Black
10
19.1865
20
16.964
11
19.1865
21
16.056
0
LINE
8
Black
10
12.8365
20
16.056
11
11.2935
21
16.056
0
LINE
8
Black
10
11.2935
20
16.056
11
11.2935
21
16.964
0
LINE
8
Black
10
11.2935
20
16.964
11
12.8365
21
16.964
0
LINE
8
Black
10
12.8365
20
16.964
11
12.8365
21
16.056
0
LINE
8
Black
10
12.8365
20
17.326
11
11.2935
21
17.326
0
LINE
8
Black
10
11.2935
20
17.326
11
11.2935
21
18.234
0
LINE
8
Black
10
11.2935
20
18.234
11
12.8365
21
18.234
0
LINE
8
Black
10
12.8365
20
18.234
11
12.8365
21
17.326
0
LINE
8
Black
10
19.1865
20
17.326
11
17.6435
21
17.326
0
LINE
8
Black
10
17.6435
20
17.326
11
17.6435
21
18.234
0
LINE
8
Black
10
17.6435
20
18.234
11
19.1865
21
18.234
0
LINE
8
Black
10
19.1865
20
18.234
11
19.1865
21
17.326
0
LINE
8
Black
10
19.1865
20
18.596
11
17.6435
21
18.596
0
LINE
8
Black
10
17.6435
20
18.596
11
17.6435
21
19.504
0
LINE
8
Black
10
17.6435
20
19.504
11
19.1865
21
19.504
0
LINE
8
Black
10
19.1865
20
19.504
11
19.1865
21
18.596
0
LINE
8
Black
10
12.8365
20
18.596
11
11.2935
21
18.596
0
LINE
8
Black
10
11.2935
20
18.596
11
11.2935
21
19.504
0
LINE
8
Black
10
11.2935
20
19.504
11
12.8365
21
19.504
0
LINE
8
Black
10
12.8365
20
19.504
11
12.8365
21
18.596
0
LINE
8
Black
10
5.072
20
19.47
11
4.072
21
19.47
0
LINE
8
Black
10
4.072
20
19.47
11
4.072
21
20.27
0
LINE
8
Black
10
4.072
20
20.27
11
5.072
21
20.27
0
LINE
8
Black
10
5.072
20
20.27
11
5.072
21
19.47
0
LINE
8
Black
10
6.85
20
19.47
11
5.85
21
19.47
0
LINE
8
Black
10
5.85
20
19.47
11
5.85
21
20.27
0
LINE
8
Black
10
5.85
20
20.27
11
6.85
21
20.27
0
LINE
8
Black
10
6.85
20
20.27
11
6.85
21
19.47
0
LINE
8
Black
10
8.628
20
19.47
11
7.628
21
19.47
0
LINE
8
Black
10
7.628
20
19.47
11
7.628
21
20.27
0
LINE
8
Black
10
7.628
20
20.27
11
8.628
21
20.27
0
LINE
8
Black
10
8.628
20
20.27
11
8.628
21
19.47
0
LINE
8
Black
10
12.8365
20
19.866
11
11.2935
21
19.866
0
LINE
8
Black
10
11.2935
20
19.866
11
11.2935
21
20.774
0
LINE
8
Black
10
11.2935
20
20.774
11
12.8365
21
20.774
0
LINE
8
Black
10
12.8365
20
20.774
11
12.8365
21
19.866
0
LINE
8
Black
10
19.1865
20
19.866
11
17.6435
21
19.866
0
LINE
8
Black
10
17.6435
20
19.866
11
17.6435
21
20.774
0
LINE
8
Black
10
17.6435
20
20.774
11
19.1865
21
20.774
0
LINE
8
Black
10
19.1865
20
20.774
11
19.1865
21
19.866
0
LINE
8
Black
10
8.628
20
20.37
11
7.628
21
20.37
0
LINE
8
Black
10
7.628
20
20.37
11
7.628
21
21.17
0
LINE
8
Black
10
7.628
20
21.17
11
8.628
21
21.17
0
LINE
8
Black
10
8.628
20
21.17
11
8.628
21
20.37
0
LINE
8
Black
10
6.85
20
20.37
11
5.85
21
20.37
0
LINE
8
Black
10
5.85
20
20.37
11
5.85
21
21.17
0
LINE
8
Black
10
5.85
20
21.17
11
6.85
21
21.17
0
LINE
8
Black
10
6.85
20
21.17
11
6.85
21
20.37
0
LINE
8
Black
10
5.072
20
20.37
11
4.072
21
20.37
0
LINE
8
Black
10
4.072
20
20.37
11
4.072
21
21.17
0
LINE
8
Black
10
4.072
20
21.17
11
5.072
21
21.17
0
LINE
8
Black
10
5.072
20
21.17
11
5.072
21
20.37
0
LINE
8
Black
10
12.8365
20
21.136
11
11.2935
21
21.136
0
LINE
8
Black
10
11.2935
20
21.136
11
11.2935
21
22.044
0
LINE
8
Black
10
11.2935
20
22.044
11
12.8365
21
22.044
0
LINE
8
Black
10
12.8365
20
22.044
11
12.8365
21
21.136
0
LINE
8
Black
10
19.1865
20
21.136
11
17.6435
21
21.136
0
LINE
8
Black
10
17.6435
20
21.136
11
17.6435
21
22.044
0
LINE
8
Black
10
17.6435
20
22.044
11
19.1865
21
22.044
0
LINE
8
Black
10
19.1865
20
22.044
11
19.1865
21
21.136
0
LINE
8
Black
10
21.9365
20
21.136
11
20.3935
21
21.136
0
LINE
8
Black
10
20.3935
20
21.136
11
20.3935
21
22.044
0
LINE
8
Black
10
20.3935
20
22.044
11
21.9365
21
22.044
0
LINE
8
Black
10
21.9365
20
22.044
11
21.9365
21
21.136
0
LINE
8
Black
10
8.628
20
21.502
11
7.628
21
21.502
0
LINE
8
Black
10
7.628
20
21.502
11
7.628
21
22.302
0
LINE
8
Black
10
7.628
20
22.302
11
8.628
21
22.302
0
LINE
8
Black
10
8.628
20
22.302
11
8.628
21
21.502
0
LINE
8
Black
10
6.85
20
21.502
11
5.85
21
21.502
0
LINE
8
Black
10
5.85
20
21.502
11
5.85
21
22.302
0
LINE
8
Black
10
5.85
20
22.302
11
6.85
21
22.302
0
LINE
8
Black
10
6.85
20
22.302
11
6.85
21
21.502
0
LINE
8
Black
10
5.072
20
21.502
11
4.072
21
21.502
0
LINE
8
Black
10
4.072
20
21.502
11
4.072
21
22.302
0
LINE
8
Black
10
4.072
20
22.302
11
5.072
21
22.302
0
LINE
8
Black
10
5.072
20
22.302
11
5.072
21
21.502
0
LINE
8
Black
10
8.628
20
22.402
11
7.628
21
22.402
0
LINE
8
Black
10
7.628
20
22.402
11
7.628
21
23.202
0
LINE
8
Black
10
7.628
20
23.202
11
8.628
21
23.202
0
LINE
8
Black
10
8.628
20
23.202
11
8.628
21
22.402
0
LINE
8
Black
10
6.85
20
22.402
11
5.85
21
22.402
0
LINE
8
Black
10
5.85
20
22.402
11
5.85
21
23.202
0
LINE
8
Black
10
5.85
20
23.202
11
6.85
21
23.202
0
LINE
8
Black
10
6.85
20
23.202
11
6.85
21
22.402
0
LINE
8
Black
10
5.072
20
22.402
11
4.072
21
22.402
0
LINE
8
Black
10
4.072
20
22.402
11
4.072
21
23.202
0
LINE
8
Black
10
4.072
20
23.202
11
5.072
21
23.202
0
LINE
8
Black
10
5.072
20
23.202
11
5.072
21
22.402
0
LINE
8
Black
10
12.8365
20
22.406
11
11.2935
21
22.406
0
LINE
8
Black
10
11.2935
20
22.406
11
11.2935
21
23.314
0
LINE
8
Black
10
11.2935
20
23.314
11
12.8365
21
23.314
0
LINE
8
Black
10
12.8365
20
23.314
11
12.8365
21
22.406
0
LINE
8
Black
10
19.1865
20
22.406
11
17.6435
21
22.406
0
LINE
8
Black
10
17.6435
20
22.406
11
17.6435
21
23.314
0
LINE
8
Black
10
17.6435
20
23.314
11
19.1865
21
23.314
0
LINE
8
Black
10
19.1865
20
23.314
11
19.1865
21
22.406
0
LINE
8
Black
10
21.9365
20
22.406
11
20.3935
21
22.406
0
LINE
8
Black
10
20.3935
20
22.406
11
20.3935
21
23.314
0
LINE
8
Black
10
20.3935
20
23.314
11
21.9365
21
23.314
0
LINE
8
Black
10
21.9365
20
23.314
11
21.9365
21
22.406
0
LINE
8
Black
10
19.1865
20
23.676
11
17.6435
21
23.676
0
LINE
8
Black
10
17.6435
20
23.676
11
17.6435
21
24.584
0
LINE
8
Black
10
17.6435
20
24.584
11
19.1865
21
24.584
0
LINE
8
Black
10
19.1865
20
24.584
11
19.1865
21
23.676
0
LINE
8
Black
10
21.9365
20
23.676
11
20.3935
21
23.676
0
LINE
8
Black
10
20.3935
20
23.676
11
20.3935
21
24.584
0
LINE
8
Black
10
20.3935
20
24.584
11
21.9365
21
24.584
0
LINE
8
Black
10
21.9365
20
24.584
11
21.9365
21
23.676
0
LINE
8
Black
10
12.8365
20
23.676
11
11.2935
21
23.676
0
LINE
8
Black
10
11.2935
20
23.676
11
11.2935
21
24.584
0
LINE
8
Black
10
11.2935
20
24.584
11
12.8365
21
24.584
0
LINE
8
Black
10
12.8365
20
24.584
11
12.8365
21
23.676
0
LINE
8
Black
10
24.6562
20
28.901
11
25.031
21
28.6846
0
LINE
8
Black
10
25.031
20
28.6846
11
25.3092
21
28.3531
0
LINE
8
Black
10
25.3092
20
28.3531
11
25.4572
21
27.9464
0
LINE
8
Black
10
25.4572
20
27.9464
11
25.4572
21
27.5136
0
LINE
8
Black
10
25.4572
20
27.5136
11
25.3092
21
27.1069
0
LINE
8
Black
10
25.3092
20
27.1069
11
25.031
21
26.7754
0
LINE
8
Black
10
25.031
20
26.7754
11
24.6562
21
26.559
0
LINE
8
Black
10
24.6562
20
26.559
11
24.23
21
26.4839
0
LINE
8
Black
10
24.23
20
26.4839
11
23.8038
21
26.559
0
LINE
8
Black
10
23.8038
20
26.559
11
23.429
21
26.7754
0
LINE
8
Black
10
23.429
20
26.7754
11
23.1508
21
27.1069
0
LINE
8
Black
10
23.1508
20
27.1069
11
23.0028
21
27.5136
0
LINE
8
Black
10
23.0028
20
27.5136
11
23.0028
21
27.9464
0
LINE
8
Black
10
23.0028
20
27.9464
11
23.1508
21
28.3531
0
LINE
8
Black
10
23.1508
20
28.3531
11
23.429
21
28.6846
0
LINE
8
Black
10
23.429
20
28.6846
11
23.8038
21
28.901
0
LINE
8
Black
10
23.8038
20
28.901
11
24.23
21
28.9761
0
LINE
8
Black
10
24.23
20
28.9761
11
24.6562
21
28.901
0
LINE
8
Black
10
27.1962
20
28.901
11
27.571
21
28.6846
0
LINE
8
Black
10
27.571
20
28.6846
11
27.8492
21
28.3531
0
LINE
8
Black
10
27.8492
20
28.3531
11
27.9972
21
27.9464
0
LINE
8
Black
10
27.9972
20
27.9464
11
27.9972
21
27.5136
0
LINE
8
Black
10
27.9972
20
27.5136
11
27.8492
21
27.1069
0
LINE
8
Black
10
27.8492
20
27.1069
11
27.571
21
26.7754
0
LINE
8
Black
10
27.571
20
26.7754
11
27.1962
21
26.559
0
LINE
8
Black
10
27.1962
20
26.559
11
26.77
21
26.4839
0
LINE
8
Black
10
26.77
20
26.4839
11
26.3438
21
26.559
0
LINE
8
Black
10
26.3438
20
26.559
11
25.969
21
26.7754
0
LINE
8
Black
10
25.969
20
26.7754
11
25.6908
21
27.1069
0
LINE
8
Black
10
25.6908
20
27.1069
11
25.5428
21
27.5136
0
LINE
8
Black
10
25.5428
20
27.5136
11
25.5428
21
27.9464
0
LINE
8
Black
10
25.5428
20
27.9464
11
25.6908
21
28.3531
0
LINE
8
Black
10
25.6908
20
28.3531
11
25.969
21
28.6846
0
LINE
8
Black
10
25.969
20
28.6846
11
26.3438
21
28.901
0
LINE
8
Black
10
26.3438
20
28.901
11
26.77
21
28.9761
0
LINE
8
Black
10
26.77
20
28.9761
11
27.1962
21
28.901
0
LINE
8
Black
10
17.6562
20
28.901
11
18.031
21
28.6846
0
LINE
8
Black
10
18.031
20
28.6846
11
18.3092
21
28.3531
0
LINE
8
Black
10
18.3092
20
28.3531
11
18.4572
21
27.9464
0
LINE
8
Black
10
18.4572
20
27.9464
11
18.4572
21
27.5136
0
LINE
8
Black
10
18.4572
20
27.5136
11
18.3092
21
27.1069
0
LINE
8
Black
10
18.3092
20
27.1069
11
18.031
21
26.7754
0
LINE
8
Black
10
18.031
20
26.7754
11
17.6562
21
26.559
0
LINE
8
Black
10
17.6562
20
26.559
11
17.23
21
26.4839
0
LINE
8
Black
10
17.23
20
26.4839
11
16.8038
21
26.559
0
LINE
8
Black
10
16.8038
20
26.559
11
16.429
21
26.7754
0
LINE
8
Black
10
16.429
20
26.7754
11
16.1508
21
27.1069
0
LINE
8
Black
10
16.1508
20
27.1069
11
16.0028
21
27.5136
0
LINE
8
Black
10
16.0028
20
27.5136
11
16.0028
21
27.9464
0
LINE
8
Black
10
16.0028
20
27.9464
11
16.1508
21
28.3531
0
LINE
8
Black
10
16.1508
20
28.3531
11
16.429
21
28.6846
0
LINE
8
Black
10
16.429
20
28.6846
11
16.8038
21
28.901
0
LINE
8
Black
10
16.8038
20
28.901
11
17.23
21
28.9761
0
LINE
8
Black
10
17.23
20
28.9761
11
17.6562
21
28.901
0
LINE
8
Black
10
20.1962
20
28.901
11
20.571
21
28.6846
0
LINE
8
Black
10
20.571
20
28.6846
11
20.8492
21
28.3531
0
LINE
8
Black
10
20.8492
20
28.3531
11
20.9972
21
27.9464
0
LINE
8
Black
10
20.9972
20
27.9464
11
20.9972
21
27.5136
0
LINE
8
Black
10
20.9972
20
27.5136
11
20.8492
21
27.1069
0
LINE
8
Black
10
20.8492
20
27.1069
11
20.571
21
26.7754
0
LINE
8
Black
10
20.571
20
26.7754
11
20.1962
21
26.559
0
LINE
8
Black
10
20.1962
20
26.559
11
19.77
21
26.4839
0
LINE
8
Black
10
19.77
20
26.4839
11
19.3438
21
26.559
0
LINE
8
Black
10
19.3438
20
26.559
11
18.969
21
26.7754
0
LINE
8
Black
10
18.969
20
26.7754
11
18.6908
21
27.1069
0
LINE
8
Black
10
18.6908
20
27.1069
11
18.5428
21
27.5136
0
LINE
8
Black
10
18.5428
20
27.5136
11
18.5428
21
27.9464
0
LINE
8
Black
10
18.5428
20
27.9464
11
18.6908
21
28.3531
0
LINE
8
Black
10
18.6908
20
28.3531
11
18.969
21
28.6846
0
LINE
8
Black
10
18.969
20
28.6846
11
19.3438
21
28.901
0
LINE
8
Black
10
19.3438
20
28.901
11
19.77
21
28.9761
0
LINE
8
Black
10
19.77
20
28.9761
11
20.1962
21
28.901
0
LINE
8
Black
10
3.65621
20
28.901
11
4.031
21
28.6846
0
LINE
8
Black
10
4.031
20
28.6846
11
4.30919
21
28.3531
0
LINE
8
Black
10
4.30919
20
28.3531
11
4.45721
21
27.9464
0
LINE
8
Black
10
4.45721
20
27.9464
11
4.45721
21
27.5136
0
LINE
8
Black
10
4.45721
20
27.5136
11
4.30919
21
27.1069
0
LINE
8
Black
10
4.30919
20
27.1069
11
4.031
21
26.7754
0
LINE
8
Black
10
4.031
20
26.7754
11
3.65621
21
26.559
0
LINE
8
Black
10
3.65621
20
26.559
11
3.23
21
26.4839
0
LINE
8
Black
10
3.23
20
26.4839
11
2.80379
21
26.559
0
LINE
8
Black
10
2.80379
20
26.559
11
2.429
21
26.7754
0
LINE
8
Black
10
2.429
20
26.7754
11
2.15081
21
27.1069
0
LINE
8
Black
10
2.15081
20
27.1069
11
2.00279
21
27.5136
0
LINE
8
Black
10
2.00279
20
27.5136
11
2.00279
21
27.9464
0
LINE
8
Black
10
2.00279
20
27.9464
11
2.15081
21
28.3531
0
LINE
8
Black
10
2.15081
20
28.3531
11
2.429
21
28.6846
0
LINE
8
Black
10
2.429
20
28.6846
11
2.80379
21
28.901
0
LINE
8
Black
10
2.80379
20
28.901
11
3.23
21
28.9761
0
LINE
8
Black
10
3.23
20
28.9761
11
3.65621
21
28.901
0
LINE
8
Black
10
6.19621
20
28.901
11
6.571
21
28.6846
0
LINE
8
Black
10
6.571
20
28.6846
11
6.84919
21
28.3531
0
LINE
8
Black
10
6.84919
20
28.3531
11
6.99721
21
27.9464
0
LINE
8
Black
10
6.99721
20
27.9464
11
6.99721
21
27.5136
0
LINE
8
Black
10
6.99721
20
27.5136
11
6.84919
21
27.1069
0
LINE
8
Black
10
6.84919
20
27.1069
11
6.571
21
26.7754
0
LINE
8
Black
10
6.571
20
26.7754
11
6.19621
21
26.559
0
LINE
8
Black
10
6.19621
20
26.559
11
5.77
21
26.4839
0
LINE
8
Black
10
5.77
20
26.4839
11
5.34379
21
26.559
0
LINE
8
Black
10
5.34379
20
26.559
11
4.96899
21
26.7754
0
LINE
8
Black
10
4.96899
20
26.7754
11
4.69081
21
27.1069
0
LINE
8
Black
10
4.69081
20
27.1069
11
4.54279
21
27.5136
0
LINE
8
Black
10
4.54279
20
27.5136
11
4.54279
21
27.9464
0
LINE
8
Black
10
4.54279
20
27.9464
11
4.69081
21
28.3531
0
LINE
8
Black
10
4.69081
20
28.3531
11
4.96899
21
28.6846
0
LINE
8
Black
10
4.96899
20
28.6846
11
5.34379
21
28.901
0
LINE
8
Black
10
5.34379
20
28.901
11
5.77
21
28.9761
0
LINE
8
Black
10
5.77
20
28.9761
11
6.19621
21
28.901
  0
ENDSEC
  0
EOF
