  0
SECTION
  2
HEADER
  9
$ANGBASE
  50
0.0
  9
$ANGDIR
  70
  1
  9
$MEASUREMENT
  70
0
  0
ENDSEC
  0
SECTION
  2
TABLES
  0
TABLE
  2
LTYPE
  70
1
  0
LTYPE
  2
CONTINUOUS
  70
0
  3
Solid line
  72
65
  73
0
  40
0.0
  0
ENDTAB
  0
TABLE
  2
STYLE
  70
4
  0
STYLE
  2
KICAD
  70
0
  40
0
  41
1
  42
1
  50
0
  71
0
  3
isocp.shx
  0
STYLE
  2
KICADB
  70
0
  40
0
  41
1
  42
1
  50
0
  71
0
  3
isocp.shx
  0
STYLE
  2
KICADI
  70
0
  40
0
  41
1
  42
1
  50
15
  71
0
  3
isocp.shx
  0
STYLE
  2
KICADBI
  70
0
  40
0
  41
1
  42
1
  50
15
  71
0
  3
isocp.shx
  0
ENDTAB
  0
TABLE
  2
LAYER
  70
30
  0
LAYER
  2
BLACK
  70
0
  62
7
  6
CONTINUOUS
  0
LAYER
  2
GRAY1
  70
0
  62
251
  6
CONTINUOUS
  0
LAYER
  2
GRAY2
  70
0
  62
8
  6
CONTINUOUS
  0
LAYER
  2
GRAY3
  70
0
  62
9
  6
CONTINUOUS
  0
LAYER
  2
WHITE
  70
0
  62
7
  6
CONTINUOUS
  0
LAYER
  2
LYELLOW
  70
0
  62
51
  6
CONTINUOUS
  0
LAYER
  2
BLUE1
  70
0
  62
178
  6
CONTINUOUS
  0
LAYER
  2
GREEN1
  70
0
  62
98
  6
CONTINUOUS
  0
LAYER
  2
CYAN1
  70
0
  62
138
  6
CONTINUOUS
  0
LAYER
  2
RED1
  70
0
  62
18
  6
CONTINUOUS
  0
LAYER
  2
MAGENTA1
  70
0
  62
228
  6
CONTINUOUS
  0
LAYER
  2
BROWN1
  70
0
  62
58
  6
CONTINUOUS
  0
LAYER
  2
BLUE2
  70
0
  62
5
  6
CONTINUOUS
  0
LAYER
  2
GREEN2
  70
0
  62
3
  6
CONTINUOUS
  0
LAYER
  2
CYAN2
  70
0
  62
4
  6
CONTINUOUS
  0
LAYER
  2
RED2
  70
0
  62
1
  6
CONTINUOUS
  0
LAYER
  2
MAGENTA2
  70
0
  62
6
  6
CONTINUOUS
  0
LAYER
  2
BROWN2
  70
0
  62
54
  6
CONTINUOUS
  0
LAYER
  2
BLUE3
  70
0
  62
171
  6
CONTINUOUS
  0
LAYER
  2
GREEN3
  70
0
  62
91
  6
CONTINUOUS
  0
LAYER
  2
CYAN3
  70
0
  62
131
  6
CONTINUOUS
  0
LAYER
  2
RED3
  70
0
  62
11
  6
CONTINUOUS
  0
LAYER
  2
MAGENTA3
  70
0
  62
221
  6
CONTINUOUS
  0
LAYER
  2
YELLOW3
  70
0
  62
2
  6
CONTINUOUS
  0
LAYER
  2
BLUE4
  70
0
  62
5
  6
CONTINUOUS
  0
LAYER
  2
GREEN4
  70
0
  62
3
  6
CONTINUOUS
  0
LAYER
  2
CYAN4
  70
0
  62
4
  6
CONTINUOUS
  0
LAYER
  2
RED4
  70
0
  62
1
  6
CONTINUOUS
  0
LAYER
  2
MAGENTA4
  70
0
  62
6
  6
CONTINUOUS
  0
LAYER
  2
YELLOW4
  70
0
  62
2
  6
CONTINUOUS
  0
ENDTAB
  0
ENDSEC
  0
SECTION
  2
ENTITIES
0
LINE
8
Black
10
33.0065
20
33.0739
11
33.013
21
33.0739
0
LINE
8
Black
10
33.013
20
33.0739
11
33.0192
21
33.0716
0
LINE
8
Black
10
33.0192
20
33.0716
11
33.0257
21
33.0705
0
LINE
8
Black
10
33.0257
20
33.0705
11
33.0313
21
33.0672
0
LINE
8
Black
10
33.0313
20
33.0672
11
33.0375
21
33.065
0
LINE
8
Black
10
33.0375
20
33.065
11
33.0425
21
33.0607
0
LINE
8
Black
10
33.0425
20
33.0607
11
33.0482
21
33.0575
0
LINE
8
Black
10
33.0482
20
33.0575
11
33.0524
21
33.0524
0
LINE
8
Black
10
33.0524
20
33.0524
11
33.0575
21
33.0482
0
LINE
8
Black
10
33.0575
20
33.0482
11
33.0607
21
33.0425
0
LINE
8
Black
10
33.0607
20
33.0425
11
33.065
21
33.0375
0
LINE
8
Black
10
33.065
20
33.0375
11
33.0672
21
33.0313
0
LINE
8
Black
10
33.0672
20
33.0313
11
33.0705
21
33.0257
0
LINE
8
Black
10
33.0705
20
33.0257
11
33.0716
21
33.0192
0
LINE
8
Black
10
33.0716
20
33.0192
11
33.0739
21
33.013
0
LINE
8
Black
10
33.0739
20
33.013
11
33.0739
21
33.0065
0
LINE
8
Black
10
33.0739
20
33.0065
11
33.075
21
33
0
LINE
8
Black
10
33.075
20
33
11
33.075
21
-3
0
LINE
8
Black
10
33.075
20
-3
11
33.0739
21
-3.00646
0
LINE
8
Black
10
33.0739
20
-3.00646
11
33.0739
21
-3.01302
0
LINE
8
Black
10
33.0739
20
-3.01302
11
33.0716
21
-3.01919
0
LINE
8
Black
10
33.0716
20
-3.01919
11
33.0705
21
-3.02565
0
LINE
8
Black
10
33.0705
20
-3.02565
11
33.0672
21
-3.03133
0
LINE
8
Black
10
33.0672
20
-3.03133
11
33.065
21
-3.0375
0
LINE
8
Black
10
33.065
20
-3.0375
11
33.0607
21
-3.04253
0
LINE
8
Black
10
33.0607
20
-3.04253
11
33.0575
21
-3.04821
0
LINE
8
Black
10
33.0575
20
-3.04821
11
33.0524
21
-3.05243
0
LINE
8
Black
10
33.0524
20
-3.05243
11
33.0482
21
-3.05745
0
LINE
8
Black
10
33.0482
20
-3.05745
11
33.0425
21
-3.06073
0
LINE
8
Black
10
33.0425
20
-3.06073
11
33.0375
21
-3.06495
0
LINE
8
Black
10
33.0375
20
-3.06495
11
33.0313
21
-3.0672
0
LINE
8
Black
10
33.0313
20
-3.0672
11
33.0257
21
-3.07048
0
LINE
8
Black
10
33.0257
20
-3.07048
11
33.0192
21
-3.07162
0
LINE
8
Black
10
33.0192
20
-3.07162
11
33.013
21
-3.07386
0
LINE
8
Black
10
33.013
20
-3.07386
11
33.0065
21
-3.07386
0
LINE
8
Black
10
33.0065
20
-3.07386
11
33
21
-3.075
0
LINE
8
Black
10
33
20
-3.075
11
-3
21
-3.075
0
LINE
8
Black
10
-3
20
-3.075
11
-3.00646
21
-3.07386
0
LINE
8
Black
10
-3.00646
20
-3.07386
11
-3.01302
21
-3.07386
0
LINE
8
Black
10
-3.01302
20
-3.07386
11
-3.01919
21
-3.07162
0
LINE
8
Black
10
-3.01919
20
-3.07162
11
-3.02565
21
-3.07048
0
LINE
8
Black
10
-3.02565
20
-3.07048
11
-3.03133
21
-3.0672
0
LINE
8
Black
10
-3.03133
20
-3.0672
11
-3.0375
21
-3.06495
0
LINE
8
Black
10
-3.0375
20
-3.06495
11
-3.04253
21
-3.06073
0
LINE
8
Black
10
-3.04253
20
-3.06073
11
-3.04821
21
-3.05745
0
LINE
8
Black
10
-3.04821
20
-3.05745
11
-3.05243
21
-3.05243
0
LINE
8
Black
10
-3.05243
20
-3.05243
11
-3.05745
21
-3.04821
0
LINE
8
Black
10
-3.05745
20
-3.04821
11
-3.06073
21
-3.04253
0
LINE
8
Black
10
-3.06073
20
-3.04253
11
-3.06495
21
-3.0375
0
LINE
8
Black
10
-3.06495
20
-3.0375
11
-3.0672
21
-3.03133
0
LINE
8
Black
10
-3.0672
20
-3.03133
11
-3.07048
21
-3.02565
0
LINE
8
Black
10
-3.07048
20
-3.02565
11
-3.07162
21
-3.01919
0
LINE
8
Black
10
-3.07162
20
-3.01919
11
-3.07386
21
-3.01302
0
LINE
8
Black
10
-3.07386
20
-3.01302
11
-3.07386
21
-3.00646
0
LINE
8
Black
10
-3.07386
20
-3.00646
11
-3.075
21
-3
0
LINE
8
Black
10
-3.075
20
-3
11
-3.075
21
33
0
LINE
8
Black
10
-3.075
20
33
11
-3.07386
21
33.0065
0
LINE
8
Black
10
-3.07386
20
33.0065
11
-3.07386
21
33.013
0
LINE
8
Black
10
-3.07386
20
33.013
11
-3.07162
21
33.0192
0
LINE
8
Black
10
-3.07162
20
33.0192
11
-3.07048
21
33.0257
0
LINE
8
Black
10
-3.07048
20
33.0257
11
-3.0672
21
33.0313
0
LINE
8
Black
10
-3.0672
20
33.0313
11
-3.06495
21
33.0375
0
LINE
8
Black
10
-3.06495
20
33.0375
11
-3.06073
21
33.0425
0
LINE
8
Black
10
-3.06073
20
33.0425
11
-3.05745
21
33.0482
0
LINE
8
Black
10
-3.05745
20
33.0482
11
-3.05243
21
33.0524
0
LINE
8
Black
10
-3.05243
20
33.0524
11
-3.04821
21
33.0575
0
LINE
8
Black
10
-3.04821
20
33.0575
11
-3.04253
21
33.0607
0
LINE
8
Black
10
-3.04253
20
33.0607
11
-3.0375
21
33.065
0
LINE
8
Black
10
-3.0375
20
33.065
11
-3.03133
21
33.0672
0
LINE
8
Black
10
-3.03133
20
33.0672
11
-3.02565
21
33.0705
0
LINE
8
Black
10
-3.02565
20
33.0705
11
-3.01919
21
33.0716
0
LINE
8
Black
10
-3.01919
20
33.0716
11
-3.01302
21
33.0739
0
LINE
8
Black
10
-3.01302
20
33.0739
11
-3.00646
21
33.0739
0
LINE
8
Black
10
-3.00646
20
33.0739
11
-3
21
33.075
0
LINE
8
Black
10
-3
20
33.075
11
33
21
33.075
0
LINE
8
Black
10
33
20
33.075
11
33.0065
21
33.0739
0
LINE
8
Black
10
-2.925
20
32.925
11
-2.925
21
-2.925
0
LINE
8
Black
10
-2.925
20
-2.925
11
32.925
21
-2.925
0
LINE
8
Black
10
32.925
20
-2.925
11
32.925
21
32.925
0
LINE
8
Black
10
32.925
20
32.925
11
-2.925
21
32.925
  0
ENDSEC
  0
EOF
