G04 #@! TF.FileFunction,Legend,Top*
%FSLAX46Y46*%
G04 Gerber Fmt 4.6, Leading zero omitted, Abs format (unit mm)*
G04 Created by KiCad (PCBNEW 4.0.5) date Thu Feb 16 13:03:40 2017*
%MOMM*%
%LPD*%
G01*
G04 APERTURE LIST*
%ADD10C,0.100000*%
%ADD11C,0.187500*%
%ADD12C,0.300000*%
%ADD13C,0.150000*%
%ADD14C,0.001000*%
G04 APERTURE END LIST*
D10*
D11*
X-2160714Y29571428D02*
X-1660714Y29749999D01*
X-2160714Y29928571D01*
X-2410714Y30357143D02*
X-2410714Y30428571D01*
X-2375000Y30500000D01*
X-2339286Y30535714D01*
X-2267857Y30571428D01*
X-2125000Y30607143D01*
X-1946429Y30607143D01*
X-1803571Y30571428D01*
X-1732143Y30535714D01*
X-1696429Y30500000D01*
X-1660714Y30428571D01*
X-1660714Y30357143D01*
X-1696429Y30285714D01*
X-1732143Y30250000D01*
X-1803571Y30214285D01*
X-1946429Y30178571D01*
X-2125000Y30178571D01*
X-2267857Y30214285D01*
X-2339286Y30250000D01*
X-2375000Y30285714D01*
X-2410714Y30357143D01*
X-1732143Y30928571D02*
X-1696429Y30964286D01*
X-1660714Y30928571D01*
X-1696429Y30892857D01*
X-1732143Y30928571D01*
X-1660714Y30928571D01*
X-2339286Y31250000D02*
X-2375000Y31285714D01*
X-2410714Y31357143D01*
X-2410714Y31535714D01*
X-2375000Y31607143D01*
X-2339286Y31642857D01*
X-2267857Y31678572D01*
X-2196429Y31678572D01*
X-2089286Y31642857D01*
X-1660714Y31214286D01*
X-1660714Y31678572D01*
X-2410714Y31928572D02*
X-2410714Y32392858D01*
X-2125000Y32142858D01*
X-2125000Y32250000D01*
X-2089286Y32321429D01*
X-2053571Y32357143D01*
X-1982143Y32392858D01*
X-1803571Y32392858D01*
X-1732143Y32357143D01*
X-1696429Y32321429D01*
X-1660714Y32250000D01*
X-1660714Y32035715D01*
X-1696429Y31964286D01*
X-1732143Y31928572D01*
D12*
X3464286Y19521429D02*
X2750000Y19521429D01*
X2750000Y21021429D01*
X2771429Y21521429D02*
X2771429Y23021429D01*
X2771429Y22307143D02*
X3628572Y22307143D01*
X3628572Y21521429D02*
X3628572Y23021429D01*
X7771429Y24878571D02*
X7842858Y24950000D01*
X7985715Y25021429D01*
X8342858Y25021429D01*
X8485715Y24950000D01*
X8557144Y24878571D01*
X8628572Y24735714D01*
X8628572Y24592857D01*
X8557144Y24378571D01*
X7700001Y23521429D01*
X8628572Y23521429D01*
X6828572Y23521429D02*
X5971429Y23521429D01*
X6400001Y23521429D02*
X6400001Y25021429D01*
X6257144Y24807143D01*
X6114286Y24664286D01*
X5971429Y24592857D01*
X2928572Y23950000D02*
X3642858Y23950000D01*
X2785715Y23521429D02*
X3285715Y25021429D01*
X3785715Y23521429D01*
X4571429Y25021429D02*
X4714286Y25021429D01*
X4857143Y24950000D01*
X4928572Y24878571D01*
X5000001Y24735714D01*
X5071429Y24450000D01*
X5071429Y24092857D01*
X5000001Y23807143D01*
X4928572Y23664286D01*
X4857143Y23592857D01*
X4714286Y23521429D01*
X4571429Y23521429D01*
X4428572Y23592857D01*
X4357143Y23664286D01*
X4285715Y23807143D01*
X4214286Y24092857D01*
X4214286Y24450000D01*
X4285715Y24735714D01*
X4357143Y24878571D01*
X4428572Y24950000D01*
X4571429Y25021429D01*
D13*
X16002000Y25273000D02*
X16002000Y24511000D01*
X16002000Y24511000D02*
X14478000Y24511000D01*
X14478000Y24511000D02*
X14478000Y25273000D01*
X17526000Y14097000D02*
X12954000Y14097000D01*
X12954000Y14097000D02*
X12954000Y25273000D01*
X12954000Y25273000D02*
X17526000Y25273000D01*
X17526000Y25273000D02*
X17526000Y14097000D01*
X3540000Y17286000D02*
X1000000Y17286000D01*
X3540000Y15000000D02*
X3540000Y12460000D01*
X3540000Y12460000D02*
X1000000Y12460000D01*
X1000000Y12460000D02*
X1000000Y15000000D01*
X3540000Y17540000D02*
X1000000Y17540000D01*
X1000000Y17540000D02*
X1000000Y15000000D01*
X3540000Y15000000D02*
X3540000Y17540000D01*
X6786000Y26460000D02*
X6786000Y29000000D01*
X4500000Y26460000D02*
X1960000Y26460000D01*
X1960000Y26460000D02*
X1960000Y29000000D01*
X1960000Y29000000D02*
X4500000Y29000000D01*
X7040000Y26460000D02*
X7040000Y29000000D01*
X7040000Y29000000D02*
X4500000Y29000000D01*
X4500000Y26460000D02*
X7040000Y26460000D01*
X2214000Y3540000D02*
X2214000Y1000000D01*
X4500000Y3540000D02*
X7040000Y3540000D01*
X7040000Y3540000D02*
X7040000Y1000000D01*
X7040000Y1000000D02*
X4500000Y1000000D01*
X1960000Y3540000D02*
X1960000Y1000000D01*
X1960000Y1000000D02*
X4500000Y1000000D01*
X4500000Y3540000D02*
X1960000Y3540000D01*
X20786000Y26460000D02*
X20786000Y29000000D01*
X18500000Y26460000D02*
X15960000Y26460000D01*
X15960000Y26460000D02*
X15960000Y29000000D01*
X15960000Y29000000D02*
X18500000Y29000000D01*
X21040000Y26460000D02*
X21040000Y29000000D01*
X21040000Y29000000D02*
X18500000Y29000000D01*
X18500000Y26460000D02*
X21040000Y26460000D01*
X16214000Y3540000D02*
X16214000Y1000000D01*
X18500000Y3540000D02*
X21040000Y3540000D01*
X21040000Y3540000D02*
X21040000Y1000000D01*
X21040000Y1000000D02*
X18500000Y1000000D01*
X15960000Y3540000D02*
X15960000Y1000000D01*
X15960000Y1000000D02*
X18500000Y1000000D01*
X18500000Y3540000D02*
X15960000Y3540000D01*
X27786000Y26460000D02*
X27786000Y29000000D01*
X25500000Y26460000D02*
X22960000Y26460000D01*
X22960000Y26460000D02*
X22960000Y29000000D01*
X22960000Y29000000D02*
X25500000Y29000000D01*
X28040000Y26460000D02*
X28040000Y29000000D01*
X28040000Y29000000D02*
X25500000Y29000000D01*
X25500000Y26460000D02*
X28040000Y26460000D01*
X23214000Y3540000D02*
X23214000Y1000000D01*
X25500000Y3540000D02*
X28040000Y3540000D01*
X28040000Y3540000D02*
X28040000Y1000000D01*
X28040000Y1000000D02*
X25500000Y1000000D01*
X22960000Y3540000D02*
X22960000Y1000000D01*
X22960000Y1000000D02*
X25500000Y1000000D01*
X25500000Y3540000D02*
X22960000Y3540000D01*
X26460000Y12714000D02*
X29000000Y12714000D01*
X26460000Y15000000D02*
X26460000Y17540000D01*
X26460000Y17540000D02*
X29000000Y17540000D01*
X29000000Y17540000D02*
X29000000Y15000000D01*
X26460000Y12460000D02*
X29000000Y12460000D01*
X29000000Y12460000D02*
X29000000Y15000000D01*
X26460000Y15000000D02*
X26460000Y12460000D01*
X5097000Y22102000D02*
X5097000Y22602000D01*
X4047000Y22602000D02*
X4047000Y22102000D01*
X5097000Y20070000D02*
X5097000Y20570000D01*
X4047000Y20570000D02*
X4047000Y20070000D01*
X6875000Y22102000D02*
X6875000Y22602000D01*
X5825000Y22602000D02*
X5825000Y22102000D01*
X6875000Y20070000D02*
X6875000Y20570000D01*
X5825000Y20570000D02*
X5825000Y20070000D01*
X8653000Y22102000D02*
X8653000Y22602000D01*
X7603000Y22602000D02*
X7603000Y22102000D01*
X8653000Y20070000D02*
X8653000Y20570000D01*
X7603000Y20570000D02*
X7603000Y20070000D01*
X12150000Y12150000D02*
X12150000Y11525000D01*
X7850000Y7850000D02*
X7850000Y8475000D01*
X12150000Y7850000D02*
X12150000Y8475000D01*
X7850000Y12150000D02*
X8475000Y12150000D01*
X7850000Y7850000D02*
X8475000Y7850000D01*
X12150000Y7850000D02*
X11525000Y7850000D01*
X12150000Y12150000D02*
X11525000Y12150000D01*
X22150000Y12150000D02*
X22150000Y11525000D01*
X17850000Y7850000D02*
X17850000Y8475000D01*
X22150000Y7850000D02*
X22150000Y8475000D01*
X17850000Y12150000D02*
X18475000Y12150000D01*
X17850000Y7850000D02*
X18475000Y7850000D01*
X22150000Y7850000D02*
X21525000Y7850000D01*
X22150000Y12150000D02*
X21525000Y12150000D01*
D14*
G36*
X-2410336Y7969554D02*
X-2511719Y7871049D01*
X-2511719Y7171472D01*
X-2410336Y7072942D01*
X-1982114Y7072942D01*
X-1910722Y7171472D01*
X-1910722Y7771106D01*
X-1711580Y7771106D01*
X-1711580Y7272828D01*
X-1810444Y7272828D01*
X-1810444Y7072942D01*
X-1610223Y7072942D01*
X-1511719Y7171472D01*
X-1511719Y7871049D01*
X-1610223Y7969554D01*
X-2012104Y7969554D01*
X-2112047Y7871049D01*
X-2112047Y7272828D01*
X-2311832Y7272828D01*
X-2311832Y7771106D01*
X-2211888Y7771106D01*
X-2211888Y7969554D01*
X-2410336Y7969554D01*
G37*
X-2410336Y7969554D02*
X-2511719Y7871049D01*
X-2511719Y7171472D01*
X-2410336Y7072942D01*
X-1982114Y7072942D01*
X-1910722Y7171472D01*
X-1910722Y7771106D01*
X-1711580Y7771106D01*
X-1711580Y7272828D01*
X-1810444Y7272828D01*
X-1810444Y7072942D01*
X-1610223Y7072942D01*
X-1511719Y7171472D01*
X-1511719Y7871049D01*
X-1610223Y7969554D01*
X-2012104Y7969554D01*
X-2112047Y7871049D01*
X-2112047Y7272828D01*
X-2311832Y7272828D01*
X-2311832Y7771106D01*
X-2211888Y7771106D01*
X-2211888Y7969554D01*
X-2410336Y7969554D01*
G36*
X-1910516Y349712D02*
X-1910516Y947934D01*
X-2110403Y947934D01*
X-2110403Y349712D01*
X-2311832Y349712D01*
X-2311832Y997893D01*
X-2511719Y997893D01*
X-2511719Y149825D01*
X-1511719Y149825D01*
X-1511719Y997893D01*
X-1711580Y997893D01*
X-1711580Y349712D01*
X-1910516Y349712D01*
G37*
X-1910516Y349712D02*
X-1910516Y947934D01*
X-2110403Y947934D01*
X-2110403Y349712D01*
X-2311832Y349712D01*
X-2311832Y997893D01*
X-2511719Y997893D01*
X-2511719Y149825D01*
X-1511719Y149825D01*
X-1511719Y997893D01*
X-1711580Y997893D01*
X-1711580Y349712D01*
X-1910516Y349712D01*
G36*
X-1511719Y-766833D02*
X-2010074Y-766833D01*
X-2311832Y-766833D01*
X-2311832Y-268555D01*
X-2010074Y-268555D01*
X-2010074Y-766833D01*
X-1511719Y-766833D01*
X-1810187Y-766833D01*
X-1810187Y-468442D01*
X-1711631Y-368498D01*
X-1610249Y-268555D01*
X-1511719Y-268555D01*
X-1511719Y-70107D01*
X-1711631Y-70107D01*
X-1810187Y-168611D01*
X-1910131Y-70107D01*
X-2410336Y-70107D01*
X-2511719Y-168611D01*
X-2511719Y-966720D01*
X-1511719Y-966720D01*
X-1511719Y-766833D01*
G37*
X-1511719Y-766833D02*
X-2010074Y-766833D01*
X-2311832Y-766833D01*
X-2311832Y-268555D01*
X-2010074Y-268555D01*
X-2010074Y-766833D01*
X-1511719Y-766833D01*
X-1810187Y-766833D01*
X-1810187Y-468442D01*
X-1711631Y-368498D01*
X-1610249Y-268555D01*
X-1511719Y-268555D01*
X-1511719Y-70107D01*
X-1711631Y-70107D01*
X-1810187Y-168611D01*
X-1910131Y-70107D01*
X-2410336Y-70107D01*
X-2511719Y-168611D01*
X-2511719Y-966720D01*
X-1511719Y-966720D01*
X-1511719Y-766833D01*
G36*
X-1610223Y-2083265D02*
X-1511719Y-1984735D01*
X-1511719Y-1285156D01*
X-1610223Y-1186652D01*
X-2084935Y-1186652D01*
X-2084935Y-1636385D01*
X-1885075Y-1636385D01*
X-1885075Y-1385100D01*
X-1711580Y-1385100D01*
X-1711580Y-1883378D01*
X-2311832Y-1883378D01*
X-2311832Y-1385100D01*
X-2211888Y-1385100D01*
X-2211888Y-1186652D01*
X-2410336Y-1186652D01*
X-2511719Y-1285156D01*
X-2511719Y-1984735D01*
X-2410336Y-2083265D01*
X-1610223Y-2083265D01*
G37*
X-1610223Y-2083265D02*
X-1511719Y-1984735D01*
X-1511719Y-1285156D01*
X-1610223Y-1186652D01*
X-2084935Y-1186652D01*
X-2084935Y-1636385D01*
X-1885075Y-1636385D01*
X-1885075Y-1385100D01*
X-1711580Y-1385100D01*
X-1711580Y-1883378D01*
X-2311832Y-1883378D01*
X-2311832Y-1385100D01*
X-2211888Y-1385100D01*
X-2211888Y-1186652D01*
X-2410336Y-1186652D01*
X-2511719Y-1285156D01*
X-2511719Y-1984735D01*
X-2410336Y-2083265D01*
X-1610223Y-2083265D01*
G36*
X-1810187Y5788212D02*
X-2311832Y5788212D01*
X-2311832Y6286490D01*
X-2010074Y6286490D01*
X-2010074Y5788212D01*
X-2311832Y5788212D01*
X-1810187Y5788212D01*
X-1810187Y6086603D01*
X-1711631Y6186547D01*
X-1610249Y6286490D01*
X-1511719Y6286490D01*
X-1511719Y6484938D01*
X-1711631Y6484938D01*
X-1810187Y6386433D01*
X-1910131Y6484938D01*
X-2410336Y6484938D01*
X-2511719Y6386433D01*
X-2511719Y5588325D01*
X-1511719Y5588325D01*
X-1511719Y5788212D01*
X-1810187Y5788212D01*
G37*
X-1810187Y5788212D02*
X-2311832Y5788212D01*
X-2311832Y6286490D01*
X-2010074Y6286490D01*
X-2010074Y5788212D01*
X-2311832Y5788212D01*
X-1810187Y5788212D01*
X-1810187Y6086603D01*
X-1711631Y6186547D01*
X-1610249Y6286490D01*
X-1511719Y6286490D01*
X-1511719Y6484938D01*
X-1711631Y6484938D01*
X-1810187Y6386433D01*
X-1910131Y6484938D01*
X-2410336Y6484938D01*
X-2511719Y6386433D01*
X-2511719Y5588325D01*
X-1511719Y5588325D01*
X-1511719Y5788212D01*
X-1810187Y5788212D01*
G36*
X-1511719Y2352590D02*
X-1511719Y3150673D01*
X-1663035Y3150673D01*
X-1663035Y2405402D01*
X-2363230Y2405402D01*
X-2363230Y3003624D01*
X-1910413Y3003624D01*
X-1910413Y2927966D01*
X-1916119Y2780890D01*
X-1916119Y2628135D01*
X-2113666Y2628135D01*
X-2113666Y2780890D01*
X-1916119Y2780890D01*
X-1910413Y2927966D01*
X-2265008Y2927966D01*
X-2265008Y2481086D01*
X-1763364Y2481086D01*
X-1763364Y3150673D01*
X-2410336Y3150673D01*
X-2511719Y3052169D01*
X-2511719Y2352590D01*
X-2410336Y2254060D01*
X-1610223Y2254060D01*
X-1511719Y2352590D01*
G37*
X-1511719Y2352590D02*
X-1511719Y3150673D01*
X-1663035Y3150673D01*
X-1663035Y2405402D01*
X-2363230Y2405402D01*
X-2363230Y3003624D01*
X-1910413Y3003624D01*
X-1910413Y2927966D01*
X-1916119Y2780890D01*
X-1916119Y2628135D01*
X-2113666Y2628135D01*
X-2113666Y2780890D01*
X-1916119Y2780890D01*
X-1910413Y2927966D01*
X-2265008Y2927966D01*
X-2265008Y2481086D01*
X-1763364Y2481086D01*
X-1763364Y3150673D01*
X-2410336Y3150673D01*
X-2511719Y3052169D01*
X-2511719Y2352590D01*
X-2410336Y2254060D01*
X-1610223Y2254060D01*
X-1511719Y2352590D01*
G36*
X-2511719Y10330520D02*
X-1511719Y10330520D01*
X-1511719Y10530407D01*
X-1910516Y10530407D01*
X-1910516Y11128624D01*
X-2110403Y11128624D01*
X-2110403Y10530407D01*
X-2311832Y10530407D01*
X-2311832Y11178582D01*
X-2511719Y11178582D01*
X-2511719Y10330520D01*
G37*
X-2511719Y10330520D02*
X-1511719Y10330520D01*
X-1511719Y10530407D01*
X-1910516Y10530407D01*
X-1910516Y11128624D01*
X-2110403Y11128624D01*
X-2110403Y10530407D01*
X-2311832Y10530407D01*
X-2311832Y11178582D01*
X-2511719Y11178582D01*
X-2511719Y10330520D01*
G36*
X-2223145Y1868472D02*
X-2054559Y1617187D01*
X-2223145Y1370194D01*
X-2511719Y1370194D01*
X-2511719Y1170307D01*
X-2138852Y1170307D01*
X-1888852Y1520097D01*
X-1511719Y1520097D01*
X-1511719Y1718570D01*
X-1888852Y1718570D01*
X-2138852Y2066920D01*
X-2511719Y2066920D01*
X-2511719Y1868472D01*
X-2223145Y1868472D01*
G37*
X-2223145Y1868472D02*
X-2054559Y1617187D01*
X-2223145Y1370194D01*
X-2511719Y1370194D01*
X-2511719Y1170307D01*
X-2138852Y1170307D01*
X-1888852Y1520097D01*
X-1511719Y1520097D01*
X-1511719Y1718570D01*
X-1888852Y1718570D01*
X-2138852Y2066920D01*
X-2511719Y2066920D01*
X-2511719Y1868472D01*
X-2223145Y1868472D01*
G36*
X-2311832Y3570492D02*
X-2311832Y4068771D01*
X-2211888Y4068771D01*
X-2211888Y4267218D01*
X-2410336Y4267218D01*
X-2511719Y4168714D01*
X-2511719Y3469135D01*
X-2410336Y3370605D01*
X-1610223Y3370605D01*
X-1511719Y3469135D01*
X-1511719Y4168714D01*
X-1610223Y4267218D01*
X-1810110Y4267218D01*
X-1810110Y4068771D01*
X-1711580Y4068771D01*
X-1711580Y3570492D01*
X-2311832Y3570492D01*
G37*
X-2311832Y3570492D02*
X-2311832Y4068771D01*
X-2211888Y4068771D01*
X-2211888Y4267218D01*
X-2410336Y4267218D01*
X-2511719Y4168714D01*
X-2511719Y3469135D01*
X-2410336Y3370605D01*
X-1610223Y3370605D01*
X-1511719Y3469135D01*
X-1511719Y4168714D01*
X-1610223Y4267218D01*
X-1810110Y4267218D01*
X-1810110Y4068771D01*
X-1711580Y4068771D01*
X-1711580Y3570492D01*
X-2311832Y3570492D01*
G36*
X-2511719Y17000514D02*
X-2511719Y16152447D01*
X-1511719Y16152447D01*
X-1511719Y17000514D01*
X-1711580Y17000514D01*
X-1711580Y16352333D01*
X-1910516Y16352333D01*
X-1910516Y16950555D01*
X-2110403Y16950555D01*
X-2110403Y16352333D01*
X-2311832Y16352333D01*
X-2311832Y17000514D01*
X-2511719Y17000514D01*
G37*
X-2511719Y17000514D02*
X-2511719Y16152447D01*
X-1511719Y16152447D01*
X-1511719Y17000514D01*
X-1711580Y17000514D01*
X-1711580Y16352333D01*
X-1910516Y16352333D01*
X-1910516Y16950555D01*
X-2110403Y16950555D01*
X-2110403Y16352333D01*
X-2311832Y16352333D01*
X-2311832Y17000514D01*
X-2511719Y17000514D01*
G36*
X-2511719Y12465435D02*
X-1511719Y12465435D01*
X-1511719Y12665322D01*
X-2311832Y12665322D01*
X-2311832Y13163600D01*
X-2010074Y13163600D01*
X-2010074Y12665322D01*
X-2311832Y12665322D01*
X-1511719Y12665322D01*
X-1810187Y12665322D01*
X-1810187Y12963713D01*
X-1711631Y13063656D01*
X-1610249Y13163600D01*
X-1511719Y13163600D01*
X-1511719Y13362048D01*
X-1711631Y13362048D01*
X-1810187Y13263543D01*
X-1910131Y13362048D01*
X-2410336Y13362048D01*
X-2511719Y13263543D01*
X-2511719Y12465435D01*
G37*
X-2511719Y12465435D02*
X-1511719Y12465435D01*
X-1511719Y12665322D01*
X-2311832Y12665322D01*
X-2311832Y13163600D01*
X-2010074Y13163600D01*
X-2010074Y12665322D01*
X-2311832Y12665322D01*
X-1511719Y12665322D01*
X-1810187Y12665322D01*
X-1810187Y12963713D01*
X-1711631Y13063656D01*
X-1610249Y13163600D01*
X-1511719Y13163600D01*
X-1511719Y13362048D01*
X-1711631Y13362048D01*
X-1810187Y13263543D01*
X-1910131Y13362048D01*
X-2410336Y13362048D01*
X-2511719Y13263543D01*
X-2511719Y12465435D01*
G36*
X-1511719Y13680510D02*
X-1511719Y14380088D01*
X-1711580Y14280145D01*
X-1711580Y13781867D01*
X-2311832Y13781867D01*
X-2311832Y14280145D01*
X-1711580Y14280145D01*
X-1511719Y14380088D01*
X-1610223Y14478593D01*
X-2410336Y14478593D01*
X-2511719Y14380088D01*
X-2511719Y13680510D01*
X-2410336Y13581980D01*
X-1610223Y13581980D01*
X-1511719Y13680510D01*
G37*
X-1511719Y13680510D02*
X-1511719Y14380088D01*
X-1711580Y14280145D01*
X-1711580Y13781867D01*
X-2311832Y13781867D01*
X-2311832Y14280145D01*
X-1711580Y14280145D01*
X-1511719Y14380088D01*
X-1610223Y14478593D01*
X-2410336Y14478593D01*
X-2511719Y14380088D01*
X-2511719Y13680510D01*
X-2410336Y13581980D01*
X-1610223Y13581980D01*
X-1511719Y13680510D01*
G36*
X-2511719Y15235788D02*
X-2511719Y15035902D01*
X-1511719Y15035902D01*
X-1511719Y15235788D01*
X-2178865Y15235788D01*
X-1511719Y15734067D01*
X-1511719Y15932514D01*
X-2511719Y15932514D01*
X-2511719Y15734067D01*
X-1845986Y15734067D01*
X-2511719Y15235788D01*
G37*
X-2511719Y15235788D02*
X-2511719Y15035902D01*
X-1511719Y15035902D01*
X-1511719Y15235788D01*
X-2178865Y15235788D01*
X-1511719Y15734067D01*
X-1511719Y15932514D01*
X-2511719Y15932514D01*
X-2511719Y15734067D01*
X-1845986Y15734067D01*
X-2511719Y15235788D01*
G36*
X-2511719Y18055304D02*
X-2511719Y17158691D01*
X-2311832Y17158691D01*
X-2311832Y17508481D01*
X-1511719Y17508481D01*
X-1511719Y17708368D01*
X-2311832Y17708368D01*
X-2311832Y18055304D01*
X-2511719Y18055304D01*
G37*
X-2511719Y18055304D02*
X-2511719Y17158691D01*
X-2311832Y17158691D01*
X-2311832Y17508481D01*
X-1511719Y17508481D01*
X-1511719Y17708368D01*
X-2311832Y17708368D01*
X-2311832Y18055304D01*
X-2511719Y18055304D01*
G36*
X-2511719Y6704865D02*
X-1511719Y6704865D01*
X-1511719Y6904752D01*
X-2511719Y6904752D01*
X-2511719Y6704865D01*
G37*
X-2511719Y6704865D02*
X-1511719Y6704865D01*
X-1511719Y6904752D01*
X-2511719Y6904752D01*
X-2511719Y6704865D01*
G36*
X-1711580Y14884123D02*
X-1711580Y14684236D01*
X-1511719Y14684236D01*
X-1511719Y14884123D01*
X-1711580Y14884123D01*
G37*
X-1711580Y14884123D02*
X-1711580Y14684236D01*
X-1511719Y14684236D01*
X-1511719Y14884123D01*
X-1711580Y14884123D01*
G36*
X-2410336Y9213980D02*
X-2311832Y9413867D01*
X-2311832Y9912145D01*
X-1711580Y9912145D01*
X-1711580Y9413867D01*
X-2311832Y9413867D01*
X-2410336Y9213980D01*
X-1610223Y9213980D01*
X-1511719Y9312510D01*
X-1511719Y10012089D01*
X-1610223Y10110593D01*
X-2410336Y10110593D01*
X-2511719Y10012089D01*
X-2511719Y9312510D01*
X-2410336Y9213980D01*
G37*
X-2410336Y9213980D02*
X-2311832Y9413867D01*
X-2311832Y9912145D01*
X-1711580Y9912145D01*
X-1711580Y9413867D01*
X-2311832Y9413867D01*
X-2410336Y9213980D01*
X-1610223Y9213980D01*
X-1511719Y9312510D01*
X-1511719Y10012089D01*
X-1610223Y10110593D01*
X-2410336Y10110593D01*
X-2511719Y10012089D01*
X-2511719Y9312510D01*
X-2410336Y9213980D01*
G36*
X-2511719Y4671669D02*
X-2511719Y4471782D01*
X-1511719Y4471782D01*
X-1511719Y4671669D01*
X-1910516Y4671669D01*
X-1910516Y5169948D01*
X-1511719Y5169948D01*
X-1511719Y5368395D01*
X-2511719Y5368395D01*
X-2511719Y5169948D01*
X-2110403Y5169948D01*
X-2110403Y4671669D01*
X-2511719Y4671669D01*
G37*
X-2511719Y4671669D02*
X-2511719Y4471782D01*
X-1511719Y4471782D01*
X-1511719Y4671669D01*
X-1910516Y4671669D01*
X-1910516Y5169948D01*
X-1511719Y5169948D01*
X-1511719Y5368395D01*
X-2511719Y5368395D01*
X-2511719Y5169948D01*
X-2110403Y5169948D01*
X-2110403Y4671669D01*
X-2511719Y4671669D01*
G36*
X-2511719Y9043277D02*
X-2511719Y8146665D01*
X-2311832Y8146665D01*
X-2311832Y8496454D01*
X-1511719Y8496454D01*
X-1511719Y8696340D01*
X-2311832Y8696340D01*
X-2311832Y9043277D01*
X-2511719Y9043277D01*
G37*
X-2511719Y9043277D02*
X-2511719Y8146665D01*
X-2311832Y8146665D01*
X-2311832Y8496454D01*
X-1511719Y8496454D01*
X-1511719Y8696340D01*
X-2311832Y8696340D01*
X-2311832Y9043277D01*
X-2511719Y9043277D01*
G36*
X-2511719Y12146998D02*
X-2511719Y11447420D01*
X-2410336Y11348890D01*
X-2311832Y11548777D01*
X-2311832Y12047055D01*
X-1711580Y12047055D01*
X-1711580Y11548777D01*
X-2311832Y11548777D01*
X-2410336Y11348890D01*
X-1610223Y11348890D01*
X-1511719Y11447420D01*
X-1511719Y12146998D01*
X-1610223Y12245503D01*
X-2410336Y12245503D01*
X-2511719Y12146998D01*
G37*
X-2511719Y12146998D02*
X-2511719Y11447420D01*
X-2410336Y11348890D01*
X-2311832Y11548777D01*
X-2311832Y12047055D01*
X-1711580Y12047055D01*
X-1711580Y11548777D01*
X-2311832Y11548777D01*
X-2410336Y11348890D01*
X-1610223Y11348890D01*
X-1511719Y11447420D01*
X-1511719Y12146998D01*
X-1610223Y12245503D01*
X-2410336Y12245503D01*
X-2511719Y12146998D01*
D13*
X10668095Y25947619D02*
X10668095Y25138095D01*
X10715714Y25042857D01*
X10763333Y24995238D01*
X10858571Y24947619D01*
X11049048Y24947619D01*
X11144286Y24995238D01*
X11191905Y25042857D01*
X11239524Y25138095D01*
X11239524Y25947619D01*
X11620476Y25947619D02*
X12239524Y25947619D01*
X11906190Y25566667D01*
X12049048Y25566667D01*
X12144286Y25519048D01*
X12191905Y25471429D01*
X12239524Y25376190D01*
X12239524Y25138095D01*
X12191905Y25042857D01*
X12144286Y24995238D01*
X12049048Y24947619D01*
X11763333Y24947619D01*
X11668095Y24995238D01*
X11620476Y25042857D01*
X6858095Y13882619D02*
X6858095Y13073095D01*
X6905714Y12977857D01*
X6953333Y12930238D01*
X7048571Y12882619D01*
X7239048Y12882619D01*
X7334286Y12930238D01*
X7381905Y12977857D01*
X7429524Y13073095D01*
X7429524Y13882619D01*
X8429524Y12882619D02*
X7858095Y12882619D01*
X8143809Y12882619D02*
X8143809Y13882619D01*
X8048571Y13739762D01*
X7953333Y13644524D01*
X7858095Y13596905D01*
X17018095Y13882619D02*
X17018095Y13073095D01*
X17065714Y12977857D01*
X17113333Y12930238D01*
X17208571Y12882619D01*
X17399048Y12882619D01*
X17494286Y12930238D01*
X17541905Y12977857D01*
X17589524Y13073095D01*
X17589524Y13882619D01*
X18018095Y13787381D02*
X18065714Y13835000D01*
X18160952Y13882619D01*
X18399048Y13882619D01*
X18494286Y13835000D01*
X18541905Y13787381D01*
X18589524Y13692143D01*
X18589524Y13596905D01*
X18541905Y13454048D01*
X17970476Y12882619D01*
X18589524Y12882619D01*
M02*
