G04 #@! TF.FileFunction,Legend,Bot*
%FSLAX46Y46*%
G04 Gerber Fmt 4.6, Leading zero omitted, Abs format (unit mm)*
G04 Created by KiCad (PCBNEW 4.0.5) date Thu Feb 16 13:03:40 2017*
%MOMM*%
%LPD*%
G01*
G04 APERTURE LIST*
%ADD10C,0.100000*%
%ADD11C,0.150000*%
G04 APERTURE END LIST*
D10*
D11*
X2794000Y26684000D02*
X2794000Y23890000D01*
X-254000Y26684000D02*
X2794000Y26684000D01*
X-254000Y23890000D02*
X-254000Y26684000D01*
X0Y3570000D02*
X0Y26430000D01*
X2540000Y3570000D02*
X0Y3570000D01*
X2540000Y26430000D02*
X2540000Y3570000D01*
X0Y26430000D02*
X2540000Y26430000D01*
X2046000Y2794000D02*
X4840000Y2794000D01*
X2046000Y-254000D02*
X2046000Y2794000D01*
X4840000Y-254000D02*
X2046000Y-254000D01*
X27700000Y0D02*
X2300000Y0D01*
X27700000Y2540000D02*
X27700000Y0D01*
X2300000Y2540000D02*
X27700000Y2540000D01*
X2300000Y0D02*
X2300000Y2540000D01*
X30254000Y26684000D02*
X30254000Y23890000D01*
X27206000Y26684000D02*
X30254000Y26684000D01*
X27206000Y23890000D02*
X27206000Y26684000D01*
X27460000Y3570000D02*
X27460000Y26430000D01*
X30000000Y3570000D02*
X27460000Y3570000D01*
X30000000Y26430000D02*
X30000000Y3570000D01*
X27460000Y26430000D02*
X30000000Y26430000D01*
X2046000Y30254000D02*
X4840000Y30254000D01*
X2046000Y27206000D02*
X2046000Y30254000D01*
X4840000Y27206000D02*
X2046000Y27206000D01*
X27700000Y27460000D02*
X2300000Y27460000D01*
X27700000Y30000000D02*
X27700000Y27460000D01*
X2300000Y30000000D02*
X27700000Y30000000D01*
X2300000Y27460000D02*
X2300000Y30000000D01*
X1214286Y27047619D02*
X1214286Y28047619D01*
X833333Y28047619D01*
X738095Y28000000D01*
X690476Y27952381D01*
X642857Y27857143D01*
X642857Y27714286D01*
X690476Y27619048D01*
X738095Y27571429D01*
X833333Y27523810D01*
X1214286Y27523810D01*
X-214286Y27714286D02*
X-214286Y27047619D01*
X23810Y28095238D02*
X261905Y27380952D01*
X-357143Y27380952D01*
X-642857Y28047619D02*
X-1309524Y28047619D01*
X-880952Y27047619D01*
X1482381Y2484286D02*
X482381Y2484286D01*
X482381Y2103333D01*
X530000Y2008095D01*
X577619Y1960476D01*
X672857Y1912857D01*
X815714Y1912857D01*
X910952Y1960476D01*
X958571Y2008095D01*
X1006190Y2103333D01*
X1006190Y2484286D01*
X815714Y1055714D02*
X1482381Y1055714D01*
X434762Y1293810D02*
X1149048Y1531905D01*
X1149048Y912857D01*
X1482381Y484286D02*
X1482381Y293810D01*
X1434762Y198571D01*
X1387143Y150952D01*
X1244286Y55714D01*
X1053810Y8095D01*
X672857Y8095D01*
X577619Y55714D01*
X530000Y103333D01*
X482381Y198571D01*
X482381Y389048D01*
X530000Y484286D01*
X577619Y531905D01*
X672857Y579524D01*
X910952Y579524D01*
X1006190Y531905D01*
X1053810Y484286D01*
X1101429Y389048D01*
X1101429Y198571D01*
X1053810Y103333D01*
X1006190Y55714D01*
X910952Y8095D01*
X31214286Y27547619D02*
X31214286Y28547619D01*
X30833333Y28547619D01*
X30738095Y28500000D01*
X30690476Y28452381D01*
X30642857Y28357143D01*
X30642857Y28214286D01*
X30690476Y28119048D01*
X30738095Y28071429D01*
X30833333Y28023810D01*
X31214286Y28023810D01*
X29738095Y28547619D02*
X30214286Y28547619D01*
X30261905Y28071429D01*
X30214286Y28119048D01*
X30119048Y28166667D01*
X29880952Y28166667D01*
X29785714Y28119048D01*
X29738095Y28071429D01*
X29690476Y27976190D01*
X29690476Y27738095D01*
X29738095Y27642857D01*
X29785714Y27595238D01*
X29880952Y27547619D01*
X30119048Y27547619D01*
X30214286Y27595238D01*
X30261905Y27642857D01*
X29071429Y28547619D02*
X28976190Y28547619D01*
X28880952Y28500000D01*
X28833333Y28452381D01*
X28785714Y28357143D01*
X28738095Y28166667D01*
X28738095Y27928571D01*
X28785714Y27738095D01*
X28833333Y27642857D01*
X28880952Y27595238D01*
X28976190Y27547619D01*
X29071429Y27547619D01*
X29166667Y27595238D01*
X29214286Y27642857D01*
X29261905Y27738095D01*
X29309524Y27928571D01*
X29309524Y28166667D01*
X29261905Y28357143D01*
X29214286Y28452381D01*
X29166667Y28500000D01*
X29071429Y28547619D01*
X4714286Y30547619D02*
X4714286Y31547619D01*
X4333333Y31547619D01*
X4238095Y31500000D01*
X4190476Y31452381D01*
X4142857Y31357143D01*
X4142857Y31214286D01*
X4190476Y31119048D01*
X4238095Y31071429D01*
X4333333Y31023810D01*
X4714286Y31023810D01*
X3285714Y31214286D02*
X3285714Y30547619D01*
X3523810Y31595238D02*
X3761905Y30880952D01*
X3142857Y30880952D01*
X2619048Y31119048D02*
X2714286Y31166667D01*
X2761905Y31214286D01*
X2809524Y31309524D01*
X2809524Y31357143D01*
X2761905Y31452381D01*
X2714286Y31500000D01*
X2619048Y31547619D01*
X2428571Y31547619D01*
X2333333Y31500000D01*
X2285714Y31452381D01*
X2238095Y31357143D01*
X2238095Y31309524D01*
X2285714Y31214286D01*
X2333333Y31166667D01*
X2428571Y31119048D01*
X2619048Y31119048D01*
X2714286Y31071429D01*
X2761905Y31023810D01*
X2809524Y30928571D01*
X2809524Y30738095D01*
X2761905Y30642857D01*
X2714286Y30595238D01*
X2619048Y30547619D01*
X2428571Y30547619D01*
X2333333Y30595238D01*
X2285714Y30642857D01*
X2238095Y30738095D01*
X2238095Y30928571D01*
X2285714Y31023810D01*
X2333333Y31071429D01*
X2428571Y31119048D01*
M02*
