  0
SECTION
  2
HEADER
  9
$ANGBASE
  50
0.0
  9
$ANGDIR
  70
  1
  9
$MEASUREMENT
  70
0
  0
ENDSEC
  0
SECTION
  2
TABLES
  0
TABLE
  2
LTYPE
  70
1
  0
LTYPE
  2
CONTINUOUS
  70
0
  3
Solid line
  72
65
  73
0
  40
0.0
  0
ENDTAB
  0
TABLE
  2
STYLE
  70
4
  0
STYLE
  2
KICAD
  70
0
  40
0
  41
1
  42
1
  50
0
  71
0
  3
isocp.shx
  0
STYLE
  2
KICADB
  70
0
  40
0
  41
1
  42
1
  50
0
  71
0
  3
isocp.shx
  0
STYLE
  2
KICADI
  70
0
  40
0
  41
1
  42
1
  50
15
  71
0
  3
isocp.shx
  0
STYLE
  2
KICADBI
  70
0
  40
0
  41
1
  42
1
  50
15
  71
0
  3
isocp.shx
  0
ENDTAB
  0
TABLE
  2
LAYER
  70
30
  0
LAYER
  2
BLACK
  70
0
  62
7
  6
CONTINUOUS
  0
LAYER
  2
GRAY1
  70
0
  62
251
  6
CONTINUOUS
  0
LAYER
  2
GRAY2
  70
0
  62
8
  6
CONTINUOUS
  0
LAYER
  2
GRAY3
  70
0
  62
9
  6
CONTINUOUS
  0
LAYER
  2
WHITE
  70
0
  62
7
  6
CONTINUOUS
  0
LAYER
  2
LYELLOW
  70
0
  62
51
  6
CONTINUOUS
  0
LAYER
  2
BLUE1
  70
0
  62
178
  6
CONTINUOUS
  0
LAYER
  2
GREEN1
  70
0
  62
98
  6
CONTINUOUS
  0
LAYER
  2
CYAN1
  70
0
  62
138
  6
CONTINUOUS
  0
LAYER
  2
RED1
  70
0
  62
18
  6
CONTINUOUS
  0
LAYER
  2
MAGENTA1
  70
0
  62
228
  6
CONTINUOUS
  0
LAYER
  2
BROWN1
  70
0
  62
58
  6
CONTINUOUS
  0
LAYER
  2
BLUE2
  70
0
  62
5
  6
CONTINUOUS
  0
LAYER
  2
GREEN2
  70
0
  62
3
  6
CONTINUOUS
  0
LAYER
  2
CYAN2
  70
0
  62
4
  6
CONTINUOUS
  0
LAYER
  2
RED2
  70
0
  62
1
  6
CONTINUOUS
  0
LAYER
  2
MAGENTA2
  70
0
  62
6
  6
CONTINUOUS
  0
LAYER
  2
BROWN2
  70
0
  62
54
  6
CONTINUOUS
  0
LAYER
  2
BLUE3
  70
0
  62
171
  6
CONTINUOUS
  0
LAYER
  2
GREEN3
  70
0
  62
91
  6
CONTINUOUS
  0
LAYER
  2
CYAN3
  70
0
  62
131
  6
CONTINUOUS
  0
LAYER
  2
RED3
  70
0
  62
11
  6
CONTINUOUS
  0
LAYER
  2
MAGENTA3
  70
0
  62
221
  6
CONTINUOUS
  0
LAYER
  2
YELLOW3
  70
0
  62
2
  6
CONTINUOUS
  0
LAYER
  2
BLUE4
  70
0
  62
5
  6
CONTINUOUS
  0
LAYER
  2
GREEN4
  70
0
  62
3
  6
CONTINUOUS
  0
LAYER
  2
CYAN4
  70
0
  62
4
  6
CONTINUOUS
  0
LAYER
  2
RED4
  70
0
  62
1
  6
CONTINUOUS
  0
LAYER
  2
MAGENTA4
  70
0
  62
6
  6
CONTINUOUS
  0
LAYER
  2
YELLOW4
  70
0
  62
2
  6
CONTINUOUS
  0
ENDTAB
  0
ENDSEC
  0
SECTION
  2
ENTITIES
0
LINE
8
Black
10
20.1275
20
3.25233
11
20.442
21
3.07081
0
LINE
8
Black
10
20.442
20
3.07081
11
20.6753
21
2.79269
0
LINE
8
Black
10
20.6753
20
2.79269
11
20.7995
21
2.45153
0
LINE
8
Black
10
20.7995
20
2.45153
11
20.7995
21
2.08847
0
LINE
8
Black
10
20.7995
20
2.08847
11
20.6753
21
1.74731
0
LINE
8
Black
10
20.6753
20
1.74731
11
20.442
21
1.46919
0
LINE
8
Black
10
20.442
20
1.46919
11
20.27
21
1.36991
0
LINE
8
Black
10
20.27
20
1.36991
11
20.27
21
0.797238
0
LINE
8
Black
10
20.27
20
0.797238
11
20.2662
21
0.775577
0
LINE
8
Black
10
20.2662
20
0.775577
11
20.2681
21
0.753661
0
LINE
8
Black
10
20.2681
20
0.753661
11
20.2512
21
0.690555
0
LINE
8
Black
10
20.2512
20
0.690555
11
20.2398
21
0.626228
0
LINE
8
Black
10
20.2398
20
0.626228
11
20.2288
21
0.607179
0
LINE
8
Black
10
20.2288
20
0.607179
11
20.2232
21
0.585929
0
LINE
8
Black
10
20.2232
20
0.585929
11
20.1857
21
0.532415
0
LINE
8
Black
10
20.1857
20
0.532415
11
20.153
21
0.475844
0
LINE
8
Black
10
20.153
20
0.475844
11
20.1362
21
0.461705
0
LINE
8
Black
10
20.1362
20
0.461705
11
20.1236
21
0.443685
0
LINE
8
Black
10
20.1236
20
0.443685
11
19.7883
21
0.108448
0
LINE
8
Black
10
19.7883
20
0.108448
11
19.7703
21
0.095832
0
LINE
8
Black
10
19.7703
20
0.095832
11
19.7562
21
0.078979
0
LINE
8
Black
10
19.7562
20
0.078979
11
19.6996
21
0.046316
0
LINE
8
Black
10
19.6996
20
0.046316
11
19.6461
21
0.008847
0
LINE
8
Black
10
19.6461
20
0.008847
11
19.6248
21
0.003153
0
LINE
8
Black
10
19.6248
20
0.003153
11
19.6058
21
-0.007845
0
LINE
8
Black
10
19.6058
20
-0.007845
11
19.5414
21
-0.019189
0
LINE
8
Black
10
19.5414
20
-0.019189
11
19.4783
21
-0.036096
0
LINE
8
Black
10
19.4783
20
-0.036096
11
19.4564
21
-0.034179
0
LINE
8
Black
10
19.4564
20
-0.034179
11
19.4348
21
-0.037999
0
LINE
8
Black
10
19.4348
20
-0.037999
11
15.794
21
-0.037999
0
LINE
8
Black
10
15.794
20
-0.037999
11
15.7723
21
-0.03418
0
LINE
8
Black
10
15.7723
20
-0.03418
11
15.7504
21
-0.036097
0
LINE
8
Black
10
15.7504
20
-0.036097
11
15.6873
21
-0.019188
0
LINE
8
Black
10
15.6873
20
-0.019188
11
15.623
21
-0.007845
0
LINE
8
Black
10
15.623
20
-0.007845
11
15.6039
21
0.003153
0
LINE
8
Black
10
15.6039
20
0.003153
11
15.5827
21
0.008847
0
LINE
8
Black
10
15.5827
20
0.008847
11
15.5292
21
0.046318
0
LINE
8
Black
10
15.5292
20
0.046318
11
15.4726
21
0.078979
0
LINE
8
Black
10
15.4726
20
0.078979
11
15.4585
21
0.09583
0
LINE
8
Black
10
15.4585
20
0.09583
11
15.4404
21
0.108447
0
LINE
8
Black
10
15.4404
20
0.108447
11
15.1404
21
0.408447
0
LINE
8
Black
10
15.1404
20
0.408447
11
15.0408
21
0.550691
0
LINE
8
Black
10
15.0408
20
0.550691
11
14.9959
21
0.718422
0
LINE
8
Black
10
14.9959
20
0.718422
11
15.011
21
0.89141
0
LINE
8
Black
10
15.011
20
0.89141
11
15.0844
21
1.04879
0
LINE
8
Black
10
15.0844
20
1.04879
11
15.2072
21
1.17158
0
LINE
8
Black
10
15.2072
20
1.17158
11
15.3646
21
1.24496
0
LINE
8
Black
10
15.3646
20
1.24496
11
15.5376
21
1.2601
0
LINE
8
Black
10
15.5376
20
1.2601
11
15.7053
21
1.21515
0
LINE
8
Black
10
15.7053
20
1.21515
11
15.8476
21
1.11555
0
LINE
8
Black
10
15.8476
20
1.11555
11
16.0011
21
0.962001
0
LINE
8
Black
10
16.0011
20
0.962001
11
19.2277
21
0.962001
0
LINE
8
Black
10
19.2277
20
0.962001
11
19.27
21
1.00435
0
LINE
8
Black
10
19.27
20
1.00435
11
19.27
21
1.36991
0
LINE
8
Black
10
19.27
20
1.36991
11
19.098
21
1.46919
0
LINE
8
Black
10
19.098
20
1.46919
11
18.8647
21
1.74731
0
LINE
8
Black
10
18.8647
20
1.74731
11
18.7405
21
2.08847
0
LINE
8
Black
10
18.7405
20
2.08847
11
18.7405
21
2.45153
0
LINE
8
Black
10
18.7405
20
2.45153
11
18.8647
21
2.79269
0
LINE
8
Black
10
18.8647
20
2.79269
11
19.098
21
3.07081
0
LINE
8
Black
10
19.098
20
3.07081
11
19.4125
21
3.25233
0
LINE
8
Black
10
19.4125
20
3.25233
11
19.77
21
3.31538
0
LINE
8
Black
10
19.77
20
3.31538
11
20.1275
21
3.25233
0
LINE
8
Black
10
3.58754
20
3.25233
11
3.90196
21
3.07081
0
LINE
8
Black
10
3.90196
20
3.07081
11
4.13532
21
2.79269
0
LINE
8
Black
10
4.13532
20
2.79269
11
4.2595
21
2.45153
0
LINE
8
Black
10
4.2595
20
2.45153
11
4.2595
21
2.08847
0
LINE
8
Black
10
4.2595
20
2.08847
11
4.13532
21
1.74731
0
LINE
8
Black
10
4.13532
20
1.74731
11
3.90196
21
1.46919
0
LINE
8
Black
10
3.90196
20
1.46919
11
3.58754
21
1.28767
0
LINE
8
Black
10
3.58754
20
1.28767
11
3.23
21
1.22462
0
LINE
8
Black
10
3.23
20
1.22462
11
2.87246
21
1.28767
0
LINE
8
Black
10
2.87246
20
1.28767
11
2.55804
21
1.46919
0
LINE
8
Black
10
2.55804
20
1.46919
11
2.32468
21
1.74731
0
LINE
8
Black
10
2.32468
20
1.74731
11
2.2005
21
2.08847
0
LINE
8
Black
10
2.2005
20
2.08847
11
2.2005
21
2.45153
0
LINE
8
Black
10
2.2005
20
2.45153
11
2.32468
21
2.79269
0
LINE
8
Black
10
2.32468
20
2.79269
11
2.55804
21
3.07081
0
LINE
8
Black
10
2.55804
20
3.07081
11
2.87246
21
3.25233
0
LINE
8
Black
10
2.87246
20
3.25233
11
3.23
21
3.31538
0
LINE
8
Black
10
3.23
20
3.31538
11
3.58754
21
3.25233
0
LINE
8
Black
10
6.12754
20
3.25233
11
6.44196
21
3.07081
0
LINE
8
Black
10
6.44196
20
3.07081
11
6.67532
21
2.79269
0
LINE
8
Black
10
6.67532
20
2.79269
11
6.7995
21
2.45153
0
LINE
8
Black
10
6.7995
20
2.45153
11
6.7995
21
2.08847
0
LINE
8
Black
10
6.7995
20
2.08847
11
6.67532
21
1.74731
0
LINE
8
Black
10
6.67532
20
1.74731
11
6.44196
21
1.46919
0
LINE
8
Black
10
6.44196
20
1.46919
11
6.12754
21
1.28767
0
LINE
8
Black
10
6.12754
20
1.28767
11
5.77
21
1.22462
0
LINE
8
Black
10
5.77
20
1.22462
11
5.41246
21
1.28767
0
LINE
8
Black
10
5.41246
20
1.28767
11
5.09804
21
1.46919
0
LINE
8
Black
10
5.09804
20
1.46919
11
4.86468
21
1.74731
0
LINE
8
Black
10
4.86468
20
1.74731
11
4.7405
21
2.08847
0
LINE
8
Black
10
4.7405
20
2.08847
11
4.7405
21
2.45153
0
LINE
8
Black
10
4.7405
20
2.45153
11
4.86468
21
2.79269
0
LINE
8
Black
10
4.86468
20
2.79269
11
5.09804
21
3.07081
0
LINE
8
Black
10
5.09804
20
3.07081
11
5.41246
21
3.25233
0
LINE
8
Black
10
5.41246
20
3.25233
11
5.77
21
3.31538
0
LINE
8
Black
10
5.77
20
3.31538
11
6.12754
21
3.25233
0
LINE
8
Black
10
17.5875
20
3.25233
11
17.902
21
3.07081
0
LINE
8
Black
10
17.902
20
3.07081
11
18.1353
21
2.79269
0
LINE
8
Black
10
18.1353
20
2.79269
11
18.2595
21
2.45153
0
LINE
8
Black
10
18.2595
20
2.45153
11
18.2595
21
2.08847
0
LINE
8
Black
10
18.2595
20
2.08847
11
18.1353
21
1.74731
0
LINE
8
Black
10
18.1353
20
1.74731
11
17.902
21
1.46919
0
LINE
8
Black
10
17.902
20
1.46919
11
17.5875
21
1.28767
0
LINE
8
Black
10
17.5875
20
1.28767
11
17.23
21
1.22462
0
LINE
8
Black
10
17.23
20
1.22462
11
16.8725
21
1.28767
0
LINE
8
Black
10
16.8725
20
1.28767
11
16.558
21
1.46919
0
LINE
8
Black
10
16.558
20
1.46919
11
16.3247
21
1.74731
0
LINE
8
Black
10
16.3247
20
1.74731
11
16.3164
21
1.77
0
LINE
8
Black
10
16.3164
20
1.77
11
13.732
21
1.77
0
LINE
8
Black
10
13.732
20
1.77
11
13.7103
21
1.77382
0
LINE
8
Black
10
13.7103
20
1.77382
11
13.6884
21
1.7719
0
LINE
8
Black
10
13.6884
20
1.7719
11
13.6253
21
1.78881
0
LINE
8
Black
10
13.6253
20
1.78881
11
13.561
21
1.80015
0
LINE
8
Black
10
13.561
20
1.80015
11
13.5419
21
1.81115
0
LINE
8
Black
10
13.5419
20
1.81115
11
13.5207
21
1.81685
0
LINE
8
Black
10
13.5207
20
1.81685
11
13.4672
21
1.85431
0
LINE
8
Black
10
13.4672
20
1.85431
11
13.4106
21
1.88698
0
LINE
8
Black
10
13.4106
20
1.88698
11
13.3965
21
1.90383
0
LINE
8
Black
10
13.3965
20
1.90383
11
13.3784
21
1.91645
0
LINE
8
Black
10
13.3784
20
1.91645
11
13.3624
21
1.93245
0
LINE
8
Black
10
13.3624
20
1.93245
11
13.312
21
2.00449
0
LINE
8
Black
10
13.312
20
2.00449
11
13.299
21
2.02
0
LINE
8
Black
10
13.299
20
2.02
11
13.2967
21
2.02641
0
LINE
8
Black
10
13.2967
20
2.02641
11
13.2628
21
2.07469
0
LINE
8
Black
10
13.2628
20
2.07469
11
13.2179
21
2.24242
0
LINE
8
Black
10
13.2179
20
2.24242
11
13.233
21
2.41541
0
LINE
8
Black
10
13.233
20
2.41541
11
13.3064
21
2.57279
0
LINE
8
Black
10
13.3064
20
2.57279
11
13.4292
21
2.69558
0
LINE
8
Black
10
13.4292
20
2.69558
11
13.5866
21
2.76896
0
LINE
8
Black
10
13.5866
20
2.76896
11
13.7596
21
2.7841
0
LINE
8
Black
10
13.7596
20
2.7841
11
13.8122
21
2.77
0
LINE
8
Black
10
13.8122
20
2.77
11
16.3164
21
2.77
0
LINE
8
Black
10
16.3164
20
2.77
11
16.3247
21
2.79269
0
LINE
8
Black
10
16.3247
20
2.79269
11
16.558
21
3.07081
0
LINE
8
Black
10
16.558
20
3.07081
11
16.8725
21
3.25233
0
LINE
8
Black
10
16.8725
20
3.25233
11
17.23
21
3.31538
0
LINE
8
Black
10
17.23
20
3.31538
11
17.5875
21
3.25233
0
LINE
8
Black
10
24.5875
20
3.25233
11
24.902
21
3.07081
0
LINE
8
Black
10
24.902
20
3.07081
11
25.1353
21
2.79269
0
LINE
8
Black
10
25.1353
20
2.79269
11
25.2595
21
2.45153
0
LINE
8
Black
10
25.2595
20
2.45153
11
25.2595
21
2.08847
0
LINE
8
Black
10
25.2595
20
2.08847
11
25.1353
21
1.74731
0
LINE
8
Black
10
25.1353
20
1.74731
11
24.902
21
1.46919
0
LINE
8
Black
10
24.902
20
1.46919
11
24.5875
21
1.28767
0
LINE
8
Black
10
24.5875
20
1.28767
11
24.23
21
1.22462
0
LINE
8
Black
10
24.23
20
1.22462
11
23.8725
21
1.28767
0
LINE
8
Black
10
23.8725
20
1.28767
11
23.558
21
1.46919
0
LINE
8
Black
10
23.558
20
1.46919
11
23.3247
21
1.74731
0
LINE
8
Black
10
23.3247
20
1.74731
11
23.2005
21
2.08847
0
LINE
8
Black
10
23.2005
20
2.08847
11
23.2005
21
2.45153
0
LINE
8
Black
10
23.2005
20
2.45153
11
23.3247
21
2.79269
0
LINE
8
Black
10
23.3247
20
2.79269
11
23.558
21
3.07081
0
LINE
8
Black
10
23.558
20
3.07081
11
23.8725
21
3.25233
0
LINE
8
Black
10
23.8725
20
3.25233
11
24.23
21
3.31538
0
LINE
8
Black
10
24.23
20
3.31538
11
24.5875
21
3.25233
0
LINE
8
Black
10
27.1275
20
3.25233
11
27.442
21
3.07081
0
LINE
8
Black
10
27.442
20
3.07081
11
27.6753
21
2.79269
0
LINE
8
Black
10
27.6753
20
2.79269
11
27.7995
21
2.45153
0
LINE
8
Black
10
27.7995
20
2.45153
11
27.7995
21
2.08847
0
LINE
8
Black
10
27.7995
20
2.08847
11
27.6753
21
1.74731
0
LINE
8
Black
10
27.6753
20
1.74731
11
27.442
21
1.46919
0
LINE
8
Black
10
27.442
20
1.46919
11
27.1275
21
1.28767
0
LINE
8
Black
10
27.1275
20
1.28767
11
26.77
21
1.22462
0
LINE
8
Black
10
26.77
20
1.22462
11
26.4125
21
1.28767
0
LINE
8
Black
10
26.4125
20
1.28767
11
26.098
21
1.46919
0
LINE
8
Black
10
26.098
20
1.46919
11
25.8647
21
1.74731
0
LINE
8
Black
10
25.8647
20
1.74731
11
25.7405
21
2.08847
0
LINE
8
Black
10
25.7405
20
2.08847
11
25.7405
21
2.45153
0
LINE
8
Black
10
25.7405
20
2.45153
11
25.8647
21
2.79269
0
LINE
8
Black
10
25.8647
20
2.79269
11
26.098
21
3.07081
0
LINE
8
Black
10
26.098
20
3.07081
11
26.4125
21
3.25233
0
LINE
8
Black
10
26.4125
20
3.25233
11
26.77
21
3.31538
0
LINE
8
Black
10
26.77
20
3.31538
11
27.1275
21
3.25233
0
LINE
8
Black
10
15.103
20
5.88298
11
15.1936
21
5.83069
0
LINE
8
Black
10
15.1936
20
5.83069
11
15.2608
21
5.75057
0
LINE
8
Black
10
15.2608
20
5.75057
11
15.2966
21
5.65229
0
LINE
8
Black
10
15.2966
20
5.65229
11
15.2966
21
5.54771
0
LINE
8
Black
10
15.2966
20
5.54771
11
15.2608
21
5.44943
0
LINE
8
Black
10
15.2608
20
5.44943
11
15.1936
21
5.36931
0
LINE
8
Black
10
15.1936
20
5.36931
11
15.103
21
5.31701
0
LINE
8
Black
10
15.103
20
5.31701
11
15
21
5.29885
0
LINE
8
Black
10
15
20
5.29885
11
14.897
21
5.31701
0
LINE
8
Black
10
14.897
20
5.31701
11
14.8713
21
5.33186
0
LINE
8
Black
10
14.8713
20
5.33186
11
12.2071
21
2.6677
0
LINE
8
Black
10
12.2071
20
2.6677
11
12.2346
21
2.59229
0
LINE
8
Black
10
12.2346
20
2.59229
11
12.2346
21
2.48771
0
LINE
8
Black
10
12.2346
20
2.48771
11
12.1988
21
2.38943
0
LINE
8
Black
10
12.1988
20
2.38943
11
12.1316
21
2.30931
0
LINE
8
Black
10
12.1316
20
2.30931
11
12.041
21
2.25701
0
LINE
8
Black
10
12.041
20
2.25701
11
11.938
21
2.23885
0
LINE
8
Black
10
11.938
20
2.23885
11
11.835
21
2.25701
0
LINE
8
Black
10
11.835
20
2.25701
11
11.7444
21
2.30931
0
LINE
8
Black
10
11.7444
20
2.30931
11
11.6772
21
2.38943
0
LINE
8
Black
10
11.6772
20
2.38943
11
11.6414
21
2.48771
0
LINE
8
Black
10
11.6414
20
2.48771
11
11.6414
21
2.59229
0
LINE
8
Black
10
11.6414
20
2.59229
11
11.6772
21
2.69057
0
LINE
8
Black
10
11.6772
20
2.69057
11
11.7444
21
2.77069
0
LINE
8
Black
10
11.7444
20
2.77069
11
11.835
21
2.82299
0
LINE
8
Black
10
11.835
20
2.82299
11
11.938
21
2.84115
0
LINE
8
Black
10
11.938
20
2.84115
11
12.041
21
2.82299
0
LINE
8
Black
10
12.041
20
2.82299
11
12.0654
21
2.80887
0
LINE
8
Black
10
12.0654
20
2.80887
11
14.7303
21
5.47376
0
LINE
8
Black
10
14.7303
20
5.47376
11
14.7034
21
5.54771
0
LINE
8
Black
10
14.7034
20
5.54771
11
14.7034
21
5.65229
0
LINE
8
Black
10
14.7034
20
5.65229
11
14.7392
21
5.75057
0
LINE
8
Black
10
14.7392
20
5.75057
11
14.8064
21
5.83069
0
LINE
8
Black
10
14.8064
20
5.83069
11
14.897
21
5.88298
0
LINE
8
Black
10
14.897
20
5.88298
11
15
21
5.90115
0
LINE
8
Black
10
15
20
5.90115
11
15.103
21
5.88298
0
LINE
8
Black
10
8.739
20
3.07699
11
8.82957
21
3.02469
0
LINE
8
Black
10
8.82957
20
3.02469
11
8.8968
21
2.94457
0
LINE
8
Black
10
8.8968
20
2.94457
11
8.93257
21
2.84629
0
LINE
8
Black
10
8.93257
20
2.84629
11
8.93257
21
2.74171
0
LINE
8
Black
10
8.93257
20
2.74171
11
8.8968
21
2.64343
0
LINE
8
Black
10
8.8968
20
2.64343
11
8.82957
21
2.56331
0
LINE
8
Black
10
8.82957
20
2.56331
11
8.739
21
2.51101
0
LINE
8
Black
10
8.739
20
2.51101
11
8.636
21
2.49285
0
LINE
8
Black
10
8.636
20
2.49285
11
8.533
21
2.51101
0
LINE
8
Black
10
8.533
20
2.51101
11
8.44243
21
2.56331
0
LINE
8
Black
10
8.44243
20
2.56331
11
8.3752
21
2.64343
0
LINE
8
Black
10
8.3752
20
2.64343
11
8.33943
21
2.74171
0
LINE
8
Black
10
8.33943
20
2.74171
11
8.33943
21
2.84629
0
LINE
8
Black
10
8.33943
20
2.84629
11
8.3752
21
2.94457
0
LINE
8
Black
10
8.3752
20
2.94457
11
8.44243
21
3.02469
0
LINE
8
Black
10
8.44243
20
3.02469
11
8.533
21
3.07699
0
LINE
8
Black
10
8.533
20
3.07699
11
8.636
21
3.09515
0
LINE
8
Black
10
8.636
20
3.09515
11
8.739
21
3.07699
0
LINE
8
Black
10
21.439
20
3.07699
11
21.5296
21
3.02469
0
LINE
8
Black
10
21.5296
20
3.02469
11
21.5968
21
2.94457
0
LINE
8
Black
10
21.5968
20
2.94457
11
21.6326
21
2.84629
0
LINE
8
Black
10
21.6326
20
2.84629
11
21.6326
21
2.74171
0
LINE
8
Black
10
21.6326
20
2.74171
11
21.5968
21
2.64343
0
LINE
8
Black
10
21.5968
20
2.64343
11
21.5296
21
2.56331
0
LINE
8
Black
10
21.5296
20
2.56331
11
21.439
21
2.51101
0
LINE
8
Black
10
21.439
20
2.51101
11
21.336
21
2.49285
0
LINE
8
Black
10
21.336
20
2.49285
11
21.233
21
2.51101
0
LINE
8
Black
10
21.233
20
2.51101
11
21.1424
21
2.56331
0
LINE
8
Black
10
21.1424
20
2.56331
11
21.0752
21
2.64343
0
LINE
8
Black
10
21.0752
20
2.64343
11
21.0394
21
2.74171
0
LINE
8
Black
10
21.0394
20
2.74171
11
21.0394
21
2.84629
0
LINE
8
Black
10
21.0394
20
2.84629
11
21.0752
21
2.94457
0
LINE
8
Black
10
21.0752
20
2.94457
11
21.1424
21
3.02469
0
LINE
8
Black
10
21.1424
20
3.02469
11
21.233
21
3.07699
0
LINE
8
Black
10
21.233
20
3.07699
11
21.336
21
3.09515
0
LINE
8
Black
10
21.336
20
3.09515
11
21.439
21
3.07699
0
LINE
8
Black
10
16.703
20
5.58298
11
16.7936
21
5.53069
0
LINE
8
Black
10
16.7936
20
5.53069
11
16.8608
21
5.45057
0
LINE
8
Black
10
16.8608
20
5.45057
11
16.8966
21
5.35229
0
LINE
8
Black
10
16.8966
20
5.35229
11
16.8966
21
5.34285
0
LINE
8
Black
10
16.8966
20
5.34285
11
18.4146
21
3.82487
0
LINE
8
Black
10
18.4146
20
3.82487
11
18.439
21
3.83898
0
LINE
8
Black
10
18.439
20
3.83898
11
18.542
21
3.85715
0
LINE
8
Black
10
18.542
20
3.85715
11
18.645
21
3.83898
0
LINE
8
Black
10
18.645
20
3.83898
11
18.7356
21
3.78669
0
LINE
8
Black
10
18.7356
20
3.78669
11
18.8028
21
3.70657
0
LINE
8
Black
10
18.8028
20
3.70657
11
18.8386
21
3.60829
0
LINE
8
Black
10
18.8386
20
3.60829
11
18.8386
21
3.50371
0
LINE
8
Black
10
18.8386
20
3.50371
11
18.8028
21
3.40543
0
LINE
8
Black
10
18.8028
20
3.40543
11
18.7356
21
3.32531
0
LINE
8
Black
10
18.7356
20
3.32531
11
18.645
21
3.27302
0
LINE
8
Black
10
18.645
20
3.27302
11
18.542
21
3.25485
0
LINE
8
Black
10
18.542
20
3.25485
11
18.439
21
3.27302
0
LINE
8
Black
10
18.439
20
3.27302
11
18.3484
21
3.32531
0
LINE
8
Black
10
18.3484
20
3.32531
11
18.2812
21
3.40543
0
LINE
8
Black
10
18.2812
20
3.40543
11
18.2454
21
3.50371
0
LINE
8
Black
10
18.2454
20
3.50371
11
18.2454
21
3.60829
0
LINE
8
Black
10
18.2454
20
3.60829
11
18.2729
21
3.6837
0
LINE
8
Black
10
18.2729
20
3.6837
11
16.8363
21
5.12026
0
LINE
8
Black
10
16.8363
20
5.12026
11
16.7936
21
5.06931
0
LINE
8
Black
10
16.7936
20
5.06931
11
16.703
21
5.01701
0
LINE
8
Black
10
16.703
20
5.01701
11
16.6
21
4.99885
0
LINE
8
Black
10
16.6
20
4.99885
11
16.497
21
5.01701
0
LINE
8
Black
10
16.497
20
5.01701
11
16.4064
21
5.06931
0
LINE
8
Black
10
16.4064
20
5.06931
11
16.3392
21
5.14943
0
LINE
8
Black
10
16.3392
20
5.14943
11
16.3034
21
5.24771
0
LINE
8
Black
10
16.3034
20
5.24771
11
16.3034
21
5.35229
0
LINE
8
Black
10
16.3034
20
5.35229
11
16.3392
21
5.45057
0
LINE
8
Black
10
16.3392
20
5.45057
11
16.4064
21
5.53069
0
LINE
8
Black
10
16.4064
20
5.53069
11
16.497
21
5.58298
0
LINE
8
Black
10
16.497
20
5.58298
11
16.6
21
5.60115
0
LINE
8
Black
10
16.6
20
5.60115
11
16.703
21
5.58298
0
LINE
8
Black
10
13.7775
20
6.74942
11
13.868
21
6.69712
0
LINE
8
Black
10
13.868
20
6.69712
11
13.9353
21
6.617
0
LINE
8
Black
10
13.9353
20
6.617
11
13.971
21
6.51872
0
LINE
8
Black
10
13.971
20
6.51872
11
13.971
21
6.41414
0
LINE
8
Black
10
13.971
20
6.41414
11
13.9353
21
6.31586
0
LINE
8
Black
10
13.9353
20
6.31586
11
13.868
21
6.23574
0
LINE
8
Black
10
13.868
20
6.23574
11
13.7775
21
6.18345
0
LINE
8
Black
10
13.7775
20
6.18345
11
13.6745
21
6.16528
0
LINE
8
Black
10
13.6745
20
6.16528
11
13.5715
21
6.18345
0
LINE
8
Black
10
13.5715
20
6.18345
11
13.547
21
6.19756
0
LINE
8
Black
10
13.547
20
6.19756
11
13.4452
21
6.09572
0
LINE
8
Black
10
13.4452
20
6.09572
11
13.4452
21
6.09572
0
LINE
8
Black
10
13.4452
20
6.09572
11
12.1
21
4.75055
0
LINE
8
Black
10
12.1
20
4.75055
11
12.1
21
3.88351
0
LINE
8
Black
10
12.1
20
3.88351
11
12.103
21
3.88298
0
LINE
8
Black
10
12.103
20
3.88298
11
12.1936
21
3.83069
0
LINE
8
Black
10
12.1936
20
3.83069
11
12.2608
21
3.75057
0
LINE
8
Black
10
12.2608
20
3.75057
11
12.2966
21
3.65229
0
LINE
8
Black
10
12.2966
20
3.65229
11
12.2966
21
3.54771
0
LINE
8
Black
10
12.2966
20
3.54771
11
12.2608
21
3.44943
0
LINE
8
Black
10
12.2608
20
3.44943
11
12.1936
21
3.36931
0
LINE
8
Black
10
12.1936
20
3.36931
11
12.103
21
3.31702
0
LINE
8
Black
10
12.103
20
3.31702
11
12
21
3.29885
0
LINE
8
Black
10
12
20
3.29885
11
11.897
21
3.31702
0
LINE
8
Black
10
11.897
20
3.31702
11
11.8064
21
3.36931
0
LINE
8
Black
10
11.8064
20
3.36931
11
11.7392
21
3.44943
0
LINE
8
Black
10
11.7392
20
3.44943
11
11.7034
21
3.54771
0
LINE
8
Black
10
11.7034
20
3.54771
11
11.7034
21
3.65229
0
LINE
8
Black
10
11.7034
20
3.65229
11
11.7392
21
3.75057
0
LINE
8
Black
10
11.7392
20
3.75057
11
11.8064
21
3.83069
0
LINE
8
Black
10
11.8064
20
3.83069
11
11.897
21
3.88298
0
LINE
8
Black
10
11.897
20
3.88298
11
11.9
21
3.88351
0
LINE
8
Black
10
11.9
20
3.88351
11
11.9
21
4.79197
0
LINE
8
Black
10
11.9
20
4.79197
11
11.9008
21
4.79631
0
LINE
8
Black
10
11.9008
20
4.79631
11
11.9004
21
4.80069
0
LINE
8
Black
10
11.9004
20
4.80069
11
11.9038
21
4.81331
0
LINE
8
Black
10
11.9038
20
4.81331
11
11.906
21
4.82618
0
LINE
8
Black
10
11.906
20
4.82618
11
11.9082
21
4.82999
0
LINE
8
Black
10
11.9082
20
4.82999
11
11.9094
21
4.83424
0
LINE
8
Black
10
11.9094
20
4.83424
11
11.9169
21
4.84495
0
LINE
8
Black
10
11.9169
20
4.84495
11
11.9234
21
4.85625
0
LINE
8
Black
10
11.9234
20
4.85625
11
11.9268
21
4.85908
0
LINE
8
Black
10
11.9268
20
4.85908
11
11.9293
21
4.86269
0
LINE
8
Black
10
11.9293
20
4.86269
11
13.3037
21
6.23714
0
LINE
8
Black
10
13.3037
20
6.23714
11
13.3037
21
6.23714
0
LINE
8
Black
10
13.3037
20
6.23714
11
13.4053
21
6.33873
0
LINE
8
Black
10
13.4053
20
6.33873
11
13.3779
21
6.41414
0
LINE
8
Black
10
13.3779
20
6.41414
11
13.3779
21
6.51872
0
LINE
8
Black
10
13.3779
20
6.51872
11
13.4137
21
6.617
0
LINE
8
Black
10
13.4137
20
6.617
11
13.4809
21
6.69712
0
LINE
8
Black
10
13.4809
20
6.69712
11
13.5715
21
6.74942
0
LINE
8
Black
10
13.5715
20
6.74942
11
13.6745
21
6.76758
0
LINE
8
Black
10
13.6745
20
6.76758
11
13.7775
21
6.74942
0
LINE
8
Black
10
11.55
20
11.3
11
12.35
21
11.3
0
LINE
8
Black
10
12.35
20
11.3
11
13.4
21
11.3
0
LINE
8
Black
10
13.4
20
11.3
11
13.4086
21
11.2985
0
LINE
8
Black
10
13.4086
20
11.2985
11
13.4174
21
11.2985
0
LINE
8
Black
10
13.4174
20
11.2985
11
13.4256
21
11.2955
0
LINE
8
Black
10
13.4256
20
11.2955
11
13.4342
21
11.294
0
LINE
8
Black
10
13.4342
20
11.294
11
13.4418
21
11.2896
0
LINE
8
Black
10
13.4418
20
11.2896
11
13.45
21
11.2866
0
LINE
8
Black
10
13.45
20
11.2866
11
13.4567
21
11.281
0
LINE
8
Black
10
13.4567
20
11.281
11
13.4643
21
11.2766
0
LINE
8
Black
10
13.4643
20
11.2766
11
13.4699
21
11.2699
0
LINE
8
Black
10
13.4699
20
11.2699
11
13.4766
21
11.2643
0
LINE
8
Black
10
13.4766
20
11.2643
11
13.481
21
11.2567
0
LINE
8
Black
10
13.481
20
11.2567
11
13.4866
21
11.25
0
LINE
8
Black
10
13.4866
20
11.25
11
13.4896
21
11.2418
0
LINE
8
Black
10
13.4896
20
11.2418
11
13.494
21
11.2342
0
LINE
8
Black
10
13.494
20
11.2342
11
13.4955
21
11.2256
0
LINE
8
Black
10
13.4955
20
11.2256
11
13.4985
21
11.2174
0
LINE
8
Black
10
13.4985
20
11.2174
11
13.4985
21
11.2086
0
LINE
8
Black
10
13.4985
20
11.2086
11
13.5
21
11.2
0
LINE
8
Black
10
13.5
20
11.2
11
13.5
21
7.1
0
LINE
8
Black
10
13.5
20
7.1
11
13.4985
21
7.09139
0
LINE
8
Black
10
13.4985
20
7.09139
11
13.4985
21
7.08263
0
LINE
8
Black
10
13.4985
20
7.08263
11
13.4955
21
7.07441
0
LINE
8
Black
10
13.4955
20
7.07441
11
13.494
21
7.0658
0
LINE
8
Black
10
13.494
20
7.0658
11
13.4896
21
7.05822
0
LINE
8
Black
10
13.4896
20
7.05822
11
13.4866
21
7.05
0
LINE
8
Black
10
13.4866
20
7.05
11
13.481
21
7.0433
0
LINE
8
Black
10
13.481
20
7.0433
11
13.4766
21
7.03572
0
LINE
8
Black
10
13.4766
20
7.03572
11
13.4699
21
7.0301
0
LINE
8
Black
10
13.4699
20
7.0301
11
13.4643
21
7.0234
0
LINE
8
Black
10
13.4643
20
7.0234
11
13.4567
21
7.01902
0
LINE
8
Black
10
13.4567
20
7.01902
11
13.45
21
7.0134
0
LINE
8
Black
10
13.45
20
7.0134
11
13.4418
21
7.0104
0
LINE
8
Black
10
13.4418
20
7.0104
11
13.4342
21
7.00603
0
LINE
8
Black
10
13.4342
20
7.00603
11
13.4256
21
7.00451
0
LINE
8
Black
10
13.4256
20
7.00451
11
13.4174
21
7.00152
0
LINE
8
Black
10
13.4174
20
7.00152
11
13.4086
21
7.00152
0
LINE
8
Black
10
13.4086
20
7.00152
11
13.4
21
7
0
LINE
8
Black
10
13.4
20
7
11
11.3
21
7
0
LINE
8
Black
10
11.3
20
7
11
11.3
21
4.58351
0
LINE
8
Black
10
11.3
20
4.58351
11
11.303
21
4.58298
0
LINE
8
Black
10
11.303
20
4.58298
11
11.3936
21
4.53069
0
LINE
8
Black
10
11.3936
20
4.53069
11
11.4608
21
4.45057
0
LINE
8
Black
10
11.4608
20
4.45057
11
11.4966
21
4.35229
0
LINE
8
Black
10
11.4966
20
4.35229
11
11.4966
21
4.24771
0
LINE
8
Black
10
11.4966
20
4.24771
11
11.4608
21
4.14943
0
LINE
8
Black
10
11.4608
20
4.14943
11
11.3936
21
4.06931
0
LINE
8
Black
10
11.3936
20
4.06931
11
11.303
21
4.01701
0
LINE
8
Black
10
11.303
20
4.01701
11
11.2
21
3.99885
0
LINE
8
Black
10
11.2
20
3.99885
11
11.097
21
4.01701
0
LINE
8
Black
10
11.097
20
4.01701
11
11.0064
21
4.06931
0
LINE
8
Black
10
11.0064
20
4.06931
11
10.9392
21
4.14943
0
LINE
8
Black
10
10.9392
20
4.14943
11
10.9034
21
4.24771
0
LINE
8
Black
10
10.9034
20
4.24771
11
10.9034
21
4.35229
0
LINE
8
Black
10
10.9034
20
4.35229
11
10.9392
21
4.45057
0
LINE
8
Black
10
10.9392
20
4.45057
11
11.0064
21
4.53069
0
LINE
8
Black
10
11.0064
20
4.53069
11
11.097
21
4.58298
0
LINE
8
Black
10
11.097
20
4.58298
11
11.1
21
4.58351
0
LINE
8
Black
10
11.1
20
4.58351
11
11.1
21
7.1
0
LINE
8
Black
10
11.1
20
7.1
11
11.1
21
8.05
0
LINE
8
Black
10
11.1
20
8.05
11
11.1
21
8.45
0
LINE
8
Black
10
11.1
20
8.45
11
11.3
21
8.45
0
LINE
8
Black
10
11.3
20
8.45
11
11.3
21
7.65
0
LINE
8
Black
10
11.3
20
7.65
11
11.3
21
7.2
0
LINE
8
Black
10
11.3
20
7.2
11
13.3
21
7.2
0
LINE
8
Black
10
13.3
20
7.2
11
13.3
21
11.1
0
LINE
8
Black
10
13.3
20
11.1
11
11.95
21
11.1
0
LINE
8
Black
10
11.95
20
11.1
11
11.55
21
11.1
0
LINE
8
Black
10
11.55
20
11.1
11
11.55
21
11.3
0
LINE
8
Black
10
8.9
20
7.65
11
8.9
21
5.68351
0
LINE
8
Black
10
8.9
20
5.68351
11
8.903
21
5.68298
0
LINE
8
Black
10
8.903
20
5.68298
11
8.99357
21
5.63069
0
LINE
8
Black
10
8.99357
20
5.63069
11
9.0608
21
5.55057
0
LINE
8
Black
10
9.0608
20
5.55057
11
9.09657
21
5.45229
0
LINE
8
Black
10
9.09657
20
5.45229
11
9.09657
21
5.34771
0
LINE
8
Black
10
9.09657
20
5.34771
11
9.0608
21
5.24943
0
LINE
8
Black
10
9.0608
20
5.24943
11
8.99357
21
5.16931
0
LINE
8
Black
10
8.99357
20
5.16931
11
8.903
21
5.11701
0
LINE
8
Black
10
8.903
20
5.11701
11
8.8
21
5.09885
0
LINE
8
Black
10
8.8
20
5.09885
11
8.697
21
5.11701
0
LINE
8
Black
10
8.697
20
5.11701
11
8.60643
21
5.16931
0
LINE
8
Black
10
8.60643
20
5.16931
11
8.5392
21
5.24943
0
LINE
8
Black
10
8.5392
20
5.24943
11
8.50343
21
5.34771
0
LINE
8
Black
10
8.50343
20
5.34771
11
8.50343
21
5.45229
0
LINE
8
Black
10
8.50343
20
5.45229
11
8.5392
21
5.55057
0
LINE
8
Black
10
8.5392
20
5.55057
11
8.60643
21
5.63069
0
LINE
8
Black
10
8.60643
20
5.63069
11
8.697
21
5.68298
0
LINE
8
Black
10
8.697
20
5.68298
11
8.7
21
5.68351
0
LINE
8
Black
10
8.7
20
5.68351
11
8.7
21
8.05
0
LINE
8
Black
10
8.7
20
8.05
11
8.7
21
8.45
0
LINE
8
Black
10
8.7
20
8.45
11
8.9
21
8.45
0
LINE
8
Black
10
8.9
20
8.45
11
8.9
21
7.65
0
LINE
8
Black
10
9.3
20
7.65
11
9.3
21
6.64142
0
LINE
8
Black
10
9.3
20
6.64142
11
10.0726
21
5.86887
0
LINE
8
Black
10
10.0726
20
5.86887
11
10.097
21
5.88298
0
LINE
8
Black
10
10.097
20
5.88298
11
10.2
21
5.90115
0
LINE
8
Black
10
10.2
20
5.90115
11
10.303
21
5.88298
0
LINE
8
Black
10
10.303
20
5.88298
11
10.3936
21
5.83069
0
LINE
8
Black
10
10.3936
20
5.83069
11
10.4608
21
5.75057
0
LINE
8
Black
10
10.4608
20
5.75057
11
10.4966
21
5.65229
0
LINE
8
Black
10
10.4966
20
5.65229
11
10.4966
21
5.54771
0
LINE
8
Black
10
10.4966
20
5.54771
11
10.4608
21
5.44943
0
LINE
8
Black
10
10.4608
20
5.44943
11
10.3936
21
5.36931
0
LINE
8
Black
10
10.3936
20
5.36931
11
10.303
21
5.31701
0
LINE
8
Black
10
10.303
20
5.31701
11
10.2
21
5.29885
0
LINE
8
Black
10
10.2
20
5.29885
11
10.097
21
5.31701
0
LINE
8
Black
10
10.097
20
5.31701
11
10.0064
21
5.36931
0
LINE
8
Black
10
10.0064
20
5.36931
11
9.9392
21
5.44943
0
LINE
8
Black
10
9.9392
20
5.44943
11
9.90343
21
5.54771
0
LINE
8
Black
10
9.90343
20
5.54771
11
9.90343
21
5.65229
0
LINE
8
Black
10
9.90343
20
5.65229
11
9.93088
21
5.7277
0
LINE
8
Black
10
9.93088
20
5.7277
11
9.12929
21
6.52929
0
LINE
8
Black
10
9.12929
20
6.52929
11
9.12676
21
6.53289
0
LINE
8
Black
10
9.12676
20
6.53289
11
9.1234
21
6.53572
0
LINE
8
Black
10
9.1234
20
6.53572
11
9.11687
21
6.54703
0
LINE
8
Black
10
9.11687
20
6.54703
11
9.10937
21
6.55774
0
LINE
8
Black
10
9.10937
20
6.55774
11
9.10823
21
6.56199
0
LINE
8
Black
10
9.10823
20
6.56199
11
9.10603
21
6.5658
0
LINE
8
Black
10
9.10603
20
6.5658
11
9.10376
21
6.57867
0
LINE
8
Black
10
9.10376
20
6.57867
11
9.10038
21
6.59129
0
LINE
8
Black
10
9.10038
20
6.59129
11
9.10076
21
6.59567
0
LINE
8
Black
10
9.10076
20
6.59567
11
9.1
21
6.6
0
LINE
8
Black
10
9.1
20
6.6
11
9.1
21
8.05
0
LINE
8
Black
10
9.1
20
8.05
11
9.1
21
8.45
0
LINE
8
Black
10
9.1
20
8.45
11
9.3
21
8.45
0
LINE
8
Black
10
9.3
20
8.45
11
9.3
21
7.65
0
LINE
8
Black
10
2.703
20
5.88298
11
2.79357
21
5.83069
0
LINE
8
Black
10
2.79357
20
5.83069
11
2.8608
21
5.75057
0
LINE
8
Black
10
2.8608
20
5.75057
11
2.89657
21
5.65229
0
LINE
8
Black
10
2.89657
20
5.65229
11
2.89657
21
5.54771
0
LINE
8
Black
10
2.89657
20
5.54771
11
2.8608
21
5.44943
0
LINE
8
Black
10
2.8608
20
5.44943
11
2.79357
21
5.36931
0
LINE
8
Black
10
2.79357
20
5.36931
11
2.703
21
5.31701
0
LINE
8
Black
10
2.703
20
5.31701
11
2.6
21
5.29885
0
LINE
8
Black
10
2.6
20
5.29885
11
2.497
21
5.31701
0
LINE
8
Black
10
2.497
20
5.31701
11
2.40643
21
5.36931
0
LINE
8
Black
10
2.40643
20
5.36931
11
2.3392
21
5.44943
0
LINE
8
Black
10
2.3392
20
5.44943
11
2.30343
21
5.54771
0
LINE
8
Black
10
2.30343
20
5.54771
11
2.30343
21
5.65229
0
LINE
8
Black
10
2.30343
20
5.65229
11
2.3392
21
5.75057
0
LINE
8
Black
10
2.3392
20
5.75057
11
2.40643
21
5.83069
0
LINE
8
Black
10
2.40643
20
5.83069
11
2.497
21
5.88298
0
LINE
8
Black
10
2.497
20
5.88298
11
2.6
21
5.90115
0
LINE
8
Black
10
2.6
20
5.90115
11
2.703
21
5.88298
0
LINE
8
Black
10
18.9
20
7.65
11
18.9
21
6.8
0
LINE
8
Black
10
18.9
20
6.8
11
18.8992
21
6.79567
0
LINE
8
Black
10
18.8992
20
6.79567
11
18.8996
21
6.79128
0
LINE
8
Black
10
18.8996
20
6.79128
11
18.8962
21
6.77867
0
LINE
8
Black
10
18.8962
20
6.77867
11
18.894
21
6.7658
0
LINE
8
Black
10
18.894
20
6.7658
11
18.8918
21
6.76199
0
LINE
8
Black
10
18.8918
20
6.76199
11
18.8906
21
6.75774
0
LINE
8
Black
10
18.8906
20
6.75774
11
18.8831
21
6.74703
0
LINE
8
Black
10
18.8831
20
6.74703
11
18.8766
21
6.73572
0
LINE
8
Black
10
18.8766
20
6.73572
11
18.8732
21
6.73289
0
LINE
8
Black
10
18.8732
20
6.73289
11
18.8707
21
6.72929
0
LINE
8
Black
10
18.8707
20
6.72929
11
18.2691
21
6.1277
0
LINE
8
Black
10
18.2691
20
6.1277
11
18.2966
21
6.05229
0
LINE
8
Black
10
18.2966
20
6.05229
11
18.2966
21
5.94771
0
LINE
8
Black
10
18.2966
20
5.94771
11
18.2608
21
5.84943
0
LINE
8
Black
10
18.2608
20
5.84943
11
18.1936
21
5.76931
0
LINE
8
Black
10
18.1936
20
5.76931
11
18.103
21
5.71701
0
LINE
8
Black
10
18.103
20
5.71701
11
18
21
5.69885
0
LINE
8
Black
10
18
20
5.69885
11
17.897
21
5.71701
0
LINE
8
Black
10
17.897
20
5.71701
11
17.8064
21
5.76931
0
LINE
8
Black
10
17.8064
20
5.76931
11
17.7392
21
5.84943
0
LINE
8
Black
10
17.7392
20
5.84943
11
17.7034
21
5.94771
0
LINE
8
Black
10
17.7034
20
5.94771
11
17.7034
21
6.05229
0
LINE
8
Black
10
17.7034
20
6.05229
11
17.7392
21
6.15057
0
LINE
8
Black
10
17.7392
20
6.15057
11
17.8064
21
6.23069
0
LINE
8
Black
10
17.8064
20
6.23069
11
17.897
21
6.28299
0
LINE
8
Black
10
17.897
20
6.28299
11
18
21
6.30115
0
LINE
8
Black
10
18
20
6.30115
11
18.103
21
6.28299
0
LINE
8
Black
10
18.103
20
6.28299
11
18.1274
21
6.26887
0
LINE
8
Black
10
18.1274
20
6.26887
11
18.7
21
6.84142
0
LINE
8
Black
10
18.7
20
6.84142
11
18.7
21
8.05
0
LINE
8
Black
10
18.7
20
8.05
11
18.7
21
8.45
0
LINE
8
Black
10
18.7
20
8.45
11
18.9
21
8.45
0
LINE
8
Black
10
18.9
20
8.45
11
18.9
21
7.65
0
LINE
8
Black
10
19.3
20
7.65
11
19.3
21
6.58351
0
LINE
8
Black
10
19.3
20
6.58351
11
19.303
21
6.58298
0
LINE
8
Black
10
19.303
20
6.58298
11
19.3936
21
6.53069
0
LINE
8
Black
10
19.3936
20
6.53069
11
19.4608
21
6.45057
0
LINE
8
Black
10
19.4608
20
6.45057
11
19.4966
21
6.35229
0
LINE
8
Black
10
19.4966
20
6.35229
11
19.4966
21
6.24771
0
LINE
8
Black
10
19.4966
20
6.24771
11
19.4608
21
6.14943
0
LINE
8
Black
10
19.4608
20
6.14943
11
19.3936
21
6.06931
0
LINE
8
Black
10
19.3936
20
6.06931
11
19.303
21
6.01701
0
LINE
8
Black
10
19.303
20
6.01701
11
19.2
21
5.99885
0
LINE
8
Black
10
19.2
20
5.99885
11
19.097
21
6.01701
0
LINE
8
Black
10
19.097
20
6.01701
11
19.0064
21
6.06931
0
LINE
8
Black
10
19.0064
20
6.06931
11
18.9392
21
6.14943
0
LINE
8
Black
10
18.9392
20
6.14943
11
18.9034
21
6.24771
0
LINE
8
Black
10
18.9034
20
6.24771
11
18.9034
21
6.35229
0
LINE
8
Black
10
18.9034
20
6.35229
11
18.9392
21
6.45057
0
LINE
8
Black
10
18.9392
20
6.45057
11
19.0064
21
6.53069
0
LINE
8
Black
10
19.0064
20
6.53069
11
19.097
21
6.58298
0
LINE
8
Black
10
19.097
20
6.58298
11
19.1
21
6.58351
0
LINE
8
Black
10
19.1
20
6.58351
11
19.1
21
8.05
0
LINE
8
Black
10
19.1
20
8.05
11
19.1
21
8.45
0
LINE
8
Black
10
19.1
20
8.45
11
19.3
21
8.45
0
LINE
8
Black
10
19.3
20
8.45
11
19.3
21
7.65
0
LINE
8
Black
10
10.1
20
7.65
11
10.1
21
7.08351
0
LINE
8
Black
10
10.1
20
7.08351
11
10.103
21
7.08298
0
LINE
8
Black
10
10.103
20
7.08298
11
10.1936
21
7.03069
0
LINE
8
Black
10
10.1936
20
7.03069
11
10.2608
21
6.95057
0
LINE
8
Black
10
10.2608
20
6.95057
11
10.2966
21
6.85229
0
LINE
8
Black
10
10.2966
20
6.85229
11
10.2966
21
6.74771
0
LINE
8
Black
10
10.2966
20
6.74771
11
10.2608
21
6.64943
0
LINE
8
Black
10
10.2608
20
6.64943
11
10.1936
21
6.56931
0
LINE
8
Black
10
10.1936
20
6.56931
11
10.103
21
6.51701
0
LINE
8
Black
10
10.103
20
6.51701
11
10
21
6.49885
0
LINE
8
Black
10
10
20
6.49885
11
9.897
21
6.51701
0
LINE
8
Black
10
9.897
20
6.51701
11
9.80643
21
6.56931
0
LINE
8
Black
10
9.80643
20
6.56931
11
9.7392
21
6.64943
0
LINE
8
Black
10
9.7392
20
6.64943
11
9.70343
21
6.74771
0
LINE
8
Black
10
9.70343
20
6.74771
11
9.70343
21
6.85229
0
LINE
8
Black
10
9.70343
20
6.85229
11
9.7392
21
6.95057
0
LINE
8
Black
10
9.7392
20
6.95057
11
9.80643
21
7.03069
0
LINE
8
Black
10
9.80643
20
7.03069
11
9.897
21
7.08298
0
LINE
8
Black
10
9.897
20
7.08298
11
9.9
21
7.08351
0
LINE
8
Black
10
9.9
20
7.08351
11
9.9
21
8.05
0
LINE
8
Black
10
9.9
20
8.05
11
9.9
21
8.45
0
LINE
8
Black
10
9.9
20
8.45
11
10.1
21
8.45
0
LINE
8
Black
10
10.1
20
8.45
11
10.1
21
7.65
0
LINE
8
Black
10
20.1
20
7.65
11
20.1
21
7.18351
0
LINE
8
Black
10
20.1
20
7.18351
11
20.103
21
7.18298
0
LINE
8
Black
10
20.103
20
7.18298
11
20.1936
21
7.13069
0
LINE
8
Black
10
20.1936
20
7.13069
11
20.2608
21
7.05057
0
LINE
8
Black
10
20.2608
20
7.05057
11
20.2966
21
6.95229
0
LINE
8
Black
10
20.2966
20
6.95229
11
20.2966
21
6.84771
0
LINE
8
Black
10
20.2966
20
6.84771
11
20.2608
21
6.74943
0
LINE
8
Black
10
20.2608
20
6.74943
11
20.1936
21
6.66931
0
LINE
8
Black
10
20.1936
20
6.66931
11
20.103
21
6.61701
0
LINE
8
Black
10
20.103
20
6.61701
11
20
21
6.59885
0
LINE
8
Black
10
20
20
6.59885
11
19.897
21
6.61701
0
LINE
8
Black
10
19.897
20
6.61701
11
19.8064
21
6.66931
0
LINE
8
Black
10
19.8064
20
6.66931
11
19.7392
21
6.74943
0
LINE
8
Black
10
19.7392
20
6.74943
11
19.7034
21
6.84771
0
LINE
8
Black
10
19.7034
20
6.84771
11
19.7034
21
6.95229
0
LINE
8
Black
10
19.7034
20
6.95229
11
19.7392
21
7.05057
0
LINE
8
Black
10
19.7392
20
7.05057
11
19.8064
21
7.13069
0
LINE
8
Black
10
19.8064
20
7.13069
11
19.897
21
7.18298
0
LINE
8
Black
10
19.897
20
7.18298
11
19.9
21
7.18351
0
LINE
8
Black
10
19.9
20
7.18351
11
19.9
21
8.05
0
LINE
8
Black
10
19.9
20
8.05
11
19.9
21
8.45
0
LINE
8
Black
10
19.9
20
8.45
11
20.1
21
8.45
0
LINE
8
Black
10
20.1
20
8.45
11
20.1
21
7.65
0
LINE
8
Black
10
3.024
20
7.58548
11
3.11457
21
7.53319
0
LINE
8
Black
10
3.11457
20
7.53319
11
3.1818
21
7.45307
0
LINE
8
Black
10
3.1818
20
7.45307
11
3.21757
21
7.35479
0
LINE
8
Black
10
3.21757
20
7.35479
11
3.21757
21
7.25021
0
LINE
8
Black
10
3.21757
20
7.25021
11
3.1818
21
7.15193
0
LINE
8
Black
10
3.1818
20
7.15193
11
3.11457
21
7.07181
0
LINE
8
Black
10
3.11457
20
7.07181
11
3.024
21
7.01951
0
LINE
8
Black
10
3.024
20
7.01951
11
2.921
21
7.00135
0
LINE
8
Black
10
2.921
20
7.00135
11
2.818
21
7.01951
0
LINE
8
Black
10
2.818
20
7.01951
11
2.72743
21
7.07181
0
LINE
8
Black
10
2.72743
20
7.07181
11
2.6602
21
7.15193
0
LINE
8
Black
10
2.6602
20
7.15193
11
2.62443
21
7.25021
0
LINE
8
Black
10
2.62443
20
7.25021
11
2.62443
21
7.35479
0
LINE
8
Black
10
2.62443
20
7.35479
11
2.6602
21
7.45307
0
LINE
8
Black
10
2.6602
20
7.45307
11
2.72743
21
7.53319
0
LINE
8
Black
10
2.72743
20
7.53319
11
2.818
21
7.58548
0
LINE
8
Black
10
2.818
20
7.58548
11
2.921
21
7.60365
0
LINE
8
Black
10
2.921
20
7.60365
11
3.024
21
7.58548
0
LINE
8
Black
10
21.55
20
11.3
11
22.35
21
11.3
0
LINE
8
Black
10
22.35
20
11.3
11
23.4
21
11.3
0
LINE
8
Black
10
23.4
20
11.3
11
23.4086
21
11.2985
0
LINE
8
Black
10
23.4086
20
11.2985
11
23.4174
21
11.2985
0
LINE
8
Black
10
23.4174
20
11.2985
11
23.4256
21
11.2955
0
LINE
8
Black
10
23.4256
20
11.2955
11
23.4342
21
11.294
0
LINE
8
Black
10
23.4342
20
11.294
11
23.4418
21
11.2896
0
LINE
8
Black
10
23.4418
20
11.2896
11
23.45
21
11.2866
0
LINE
8
Black
10
23.45
20
11.2866
11
23.4567
21
11.281
0
LINE
8
Black
10
23.4567
20
11.281
11
23.4643
21
11.2766
0
LINE
8
Black
10
23.4643
20
11.2766
11
23.4699
21
11.2699
0
LINE
8
Black
10
23.4699
20
11.2699
11
23.4766
21
11.2643
0
LINE
8
Black
10
23.4766
20
11.2643
11
23.481
21
11.2567
0
LINE
8
Black
10
23.481
20
11.2567
11
23.4866
21
11.25
0
LINE
8
Black
10
23.4866
20
11.25
11
23.4896
21
11.2418
0
LINE
8
Black
10
23.4896
20
11.2418
11
23.494
21
11.2342
0
LINE
8
Black
10
23.494
20
11.2342
11
23.4955
21
11.2256
0
LINE
8
Black
10
23.4955
20
11.2256
11
23.4985
21
11.2174
0
LINE
8
Black
10
23.4985
20
11.2174
11
23.4985
21
11.2086
0
LINE
8
Black
10
23.4985
20
11.2086
11
23.5
21
11.2
0
LINE
8
Black
10
23.5
20
11.2
11
23.5
21
7.5
0
LINE
8
Black
10
23.5
20
7.5
11
23.4985
21
7.49139
0
LINE
8
Black
10
23.4985
20
7.49139
11
23.4985
21
7.48263
0
LINE
8
Black
10
23.4985
20
7.48263
11
23.4955
21
7.47441
0
LINE
8
Black
10
23.4955
20
7.47441
11
23.494
21
7.4658
0
LINE
8
Black
10
23.494
20
7.4658
11
23.4896
21
7.45822
0
LINE
8
Black
10
23.4896
20
7.45822
11
23.4866
21
7.45
0
LINE
8
Black
10
23.4866
20
7.45
11
23.481
21
7.4433
0
LINE
8
Black
10
23.481
20
7.4433
11
23.4766
21
7.43572
0
LINE
8
Black
10
23.4766
20
7.43572
11
23.4699
21
7.4301
0
LINE
8
Black
10
23.4699
20
7.4301
11
23.4643
21
7.4234
0
LINE
8
Black
10
23.4643
20
7.4234
11
23.4567
21
7.41902
0
LINE
8
Black
10
23.4567
20
7.41902
11
23.45
21
7.4134
0
LINE
8
Black
10
23.45
20
7.4134
11
23.4418
21
7.4104
0
LINE
8
Black
10
23.4418
20
7.4104
11
23.4342
21
7.40603
0
LINE
8
Black
10
23.4342
20
7.40603
11
23.4256
21
7.40451
0
LINE
8
Black
10
23.4256
20
7.40451
11
23.4174
21
7.40152
0
LINE
8
Black
10
23.4174
20
7.40152
11
23.4086
21
7.40152
0
LINE
8
Black
10
23.4086
20
7.40152
11
23.4
21
7.4
0
LINE
8
Black
10
23.4
20
7.4
11
22.1232
21
7.4
0
LINE
8
Black
10
22.1232
20
7.4
11
22.1048
21
7.34943
0
LINE
8
Black
10
22.1048
20
7.34943
11
22.0376
21
7.26931
0
LINE
8
Black
10
22.0376
20
7.26931
11
21.947
21
7.21701
0
LINE
8
Black
10
21.947
20
7.21701
11
21.844
21
7.19885
0
LINE
8
Black
10
21.844
20
7.19885
11
21.741
21
7.21701
0
LINE
8
Black
10
21.741
20
7.21701
11
21.6504
21
7.26931
0
LINE
8
Black
10
21.6504
20
7.26931
11
21.5832
21
7.34943
0
LINE
8
Black
10
21.5832
20
7.34943
11
21.5648
21
7.4
0
LINE
8
Black
10
21.5648
20
7.4
11
21.2
21
7.4
0
LINE
8
Black
10
21.2
20
7.4
11
21.1914
21
7.40152
0
LINE
8
Black
10
21.1914
20
7.40152
11
21.1826
21
7.40152
0
LINE
8
Black
10
21.1826
20
7.40152
11
21.1744
21
7.40451
0
LINE
8
Black
10
21.1744
20
7.40451
11
21.1658
21
7.40603
0
LINE
8
Black
10
21.1658
20
7.40603
11
21.1582
21
7.4104
0
LINE
8
Black
10
21.1582
20
7.4104
11
21.15
21
7.4134
0
LINE
8
Black
10
21.15
20
7.4134
11
21.1433
21
7.41902
0
LINE
8
Black
10
21.1433
20
7.41902
11
21.1357
21
7.4234
0
LINE
8
Black
10
21.1357
20
7.4234
11
21.1301
21
7.4301
0
LINE
8
Black
10
21.1301
20
7.4301
11
21.1234
21
7.43572
0
LINE
8
Black
10
21.1234
20
7.43572
11
21.119
21
7.4433
0
LINE
8
Black
10
21.119
20
7.4433
11
21.1134
21
7.45
0
LINE
8
Black
10
21.1134
20
7.45
11
21.1104
21
7.45822
0
LINE
8
Black
10
21.1104
20
7.45822
11
21.106
21
7.4658
0
LINE
8
Black
10
21.106
20
7.4658
11
21.1045
21
7.47441
0
LINE
8
Black
10
21.1045
20
7.47441
11
21.1015
21
7.48263
0
LINE
8
Black
10
21.1015
20
7.48263
11
21.1015
21
7.49139
0
LINE
8
Black
10
21.1015
20
7.49139
11
21.1
21
7.5
0
LINE
8
Black
10
21.1
20
7.5
11
21.1
21
8.05
0
LINE
8
Black
10
21.1
20
8.05
11
21.1
21
8.45
0
LINE
8
Black
10
21.1
20
8.45
11
21.3
21
8.45
0
LINE
8
Black
10
21.3
20
8.45
11
21.3
21
7.65
0
LINE
8
Black
10
21.3
20
7.65
11
21.3
21
7.6
0
LINE
8
Black
10
21.3
20
7.6
11
21.5648
21
7.6
0
LINE
8
Black
10
21.5648
20
7.6
11
21.5832
21
7.65057
0
LINE
8
Black
10
21.5832
20
7.65057
11
21.6504
21
7.73069
0
LINE
8
Black
10
21.6504
20
7.73069
11
21.741
21
7.78299
0
LINE
8
Black
10
21.741
20
7.78299
11
21.844
21
7.80115
0
LINE
8
Black
10
21.844
20
7.80115
11
21.947
21
7.78299
0
LINE
8
Black
10
21.947
20
7.78299
11
22.0376
21
7.73069
0
LINE
8
Black
10
22.0376
20
7.73069
11
22.1048
21
7.65057
0
LINE
8
Black
10
22.1048
20
7.65057
11
22.1232
21
7.6
0
LINE
8
Black
10
22.1232
20
7.6
11
23.3
21
7.6
0
LINE
8
Black
10
23.3
20
7.6
11
23.3
21
11.1
0
LINE
8
Black
10
23.3
20
11.1
11
22.35
21
11.1
0
LINE
8
Black
10
22.35
20
11.1
11
21.95
21
11.1
0
LINE
8
Black
10
21.95
20
11.1
11
21.55
21
11.1
0
LINE
8
Black
10
21.55
20
11.1
11
21.55
21
11.3
0
LINE
8
Black
10
11.55
20
8.9
11
12.35
21
8.9
0
LINE
8
Black
10
12.35
20
8.9
11
12.9
21
8.9
0
LINE
8
Black
10
12.9
20
8.9
11
12.9
21
9.1
0
LINE
8
Black
10
12.9
20
9.1
11
11.95
21
9.1
0
LINE
8
Black
10
11.95
20
9.1
11
11.55
21
9.1
0
LINE
8
Black
10
11.55
20
9.1
11
11.55
21
9.3
0
LINE
8
Black
10
11.55
20
9.3
11
12.35
21
9.3
0
LINE
8
Black
10
12.35
20
9.3
11
12.9
21
9.3
0
LINE
8
Black
10
12.9
20
9.3
11
12.9
21
9.5
0
LINE
8
Black
10
12.9
20
9.5
11
11.95
21
9.5
0
LINE
8
Black
10
11.95
20
9.5
11
11.55
21
9.5
0
LINE
8
Black
10
11.55
20
9.5
11
11.55
21
9.7
0
LINE
8
Black
10
11.55
20
9.7
11
12.35
21
9.7
0
LINE
8
Black
10
12.35
20
9.7
11
12.9
21
9.7
0
LINE
8
Black
10
12.9
20
9.7
11
12.9
21
9.9
0
LINE
8
Black
10
12.9
20
9.9
11
11.95
21
9.9
0
LINE
8
Black
10
11.95
20
9.9
11
11.55
21
9.9
0
LINE
8
Black
10
11.55
20
9.9
11
11.55
21
10.1
0
LINE
8
Black
10
11.55
20
10.1
11
12.35
21
10.1
0
LINE
8
Black
10
12.35
20
10.1
11
12.9
21
10.1
0
LINE
8
Black
10
12.9
20
10.1
11
12.9
21
10.3
0
LINE
8
Black
10
12.9
20
10.3
11
12.35
21
10.3
0
LINE
8
Black
10
12.35
20
10.3
11
11.95
21
10.3
0
LINE
8
Black
10
11.95
20
10.3
11
11.55
21
10.3
0
LINE
8
Black
10
11.55
20
10.3
11
11.55
21
10.5
0
LINE
8
Black
10
11.55
20
10.5
11
12.35
21
10.5
0
LINE
8
Black
10
12.35
20
10.5
11
12.9
21
10.5
0
LINE
8
Black
10
12.9
20
10.5
11
12.9
21
10.7
0
LINE
8
Black
10
12.9
20
10.7
11
11.95
21
10.7
0
LINE
8
Black
10
11.95
20
10.7
11
11.55
21
10.7
0
LINE
8
Black
10
11.55
20
10.7
11
11.55
21
10.9
0
LINE
8
Black
10
11.55
20
10.9
11
12.35
21
10.9
0
LINE
8
Black
10
12.35
20
10.9
11
13
21
10.9
0
LINE
8
Black
10
13
20
10.9
11
13.0086
21
10.8985
0
LINE
8
Black
10
13.0086
20
10.8985
11
13.0174
21
10.8985
0
LINE
8
Black
10
13.0174
20
10.8985
11
13.0256
21
10.8955
0
LINE
8
Black
10
13.0256
20
10.8955
11
13.0342
21
10.894
0
LINE
8
Black
10
13.0342
20
10.894
11
13.0418
21
10.8896
0
LINE
8
Black
10
13.0418
20
10.8896
11
13.05
21
10.8866
0
LINE
8
Black
10
13.05
20
10.8866
11
13.0567
21
10.881
0
LINE
8
Black
10
13.0567
20
10.881
11
13.0643
21
10.8766
0
LINE
8
Black
10
13.0643
20
10.8766
11
13.0699
21
10.8699
0
LINE
8
Black
10
13.0699
20
10.8699
11
13.0766
21
10.8643
0
LINE
8
Black
10
13.0766
20
10.8643
11
13.081
21
10.8567
0
LINE
8
Black
10
13.081
20
10.8567
11
13.0866
21
10.85
0
LINE
8
Black
10
13.0866
20
10.85
11
13.0896
21
10.8418
0
LINE
8
Black
10
13.0896
20
10.8418
11
13.094
21
10.8342
0
LINE
8
Black
10
13.094
20
10.8342
11
13.0955
21
10.8256
0
LINE
8
Black
10
13.0955
20
10.8256
11
13.0985
21
10.8174
0
LINE
8
Black
10
13.0985
20
10.8174
11
13.0985
21
10.8086
0
LINE
8
Black
10
13.0985
20
10.8086
11
13.1
21
10.8
0
LINE
8
Black
10
13.1
20
10.8
11
13.1
21
10.4
0
LINE
8
Black
10
13.1
20
10.4
11
13.1
21
10
0
LINE
8
Black
10
13.1
20
10
11
13.1
21
9.6
0
LINE
8
Black
10
13.1
20
9.6
11
13.1
21
9.2
0
LINE
8
Black
10
13.1
20
9.2
11
13.1
21
8.8
0
LINE
8
Black
10
13.1
20
8.8
11
13.1
21
8.682
0
LINE
8
Black
10
13.1
20
8.682
11
13.1
21
8
0
LINE
8
Black
10
13.1
20
8
11
13.0992
21
7.99567
0
LINE
8
Black
10
13.0992
20
7.99567
11
13.0996
21
7.99128
0
LINE
8
Black
10
13.0996
20
7.99128
11
13.0962
21
7.97867
0
LINE
8
Black
10
13.0962
20
7.97867
11
13.094
21
7.9658
0
LINE
8
Black
10
13.094
20
7.9658
11
13.0918
21
7.96199
0
LINE
8
Black
10
13.0918
20
7.96199
11
13.0906
21
7.95774
0
LINE
8
Black
10
13.0906
20
7.95774
11
13.0831
21
7.94703
0
LINE
8
Black
10
13.0831
20
7.94703
11
13.0766
21
7.93572
0
LINE
8
Black
10
13.0766
20
7.93572
11
13.0732
21
7.93289
0
LINE
8
Black
10
13.0732
20
7.93289
11
13.0707
21
7.92929
0
LINE
8
Black
10
13.0707
20
7.92929
11
12.9691
21
7.8277
0
LINE
8
Black
10
12.9691
20
7.8277
11
12.9966
21
7.75229
0
LINE
8
Black
10
12.9966
20
7.75229
11
12.9966
21
7.64771
0
LINE
8
Black
10
12.9966
20
7.64771
11
12.9608
21
7.54943
0
LINE
8
Black
10
12.9608
20
7.54943
11
12.8936
21
7.46931
0
LINE
8
Black
10
12.8936
20
7.46931
11
12.803
21
7.41701
0
LINE
8
Black
10
12.803
20
7.41701
11
12.7
21
7.39885
0
LINE
8
Black
10
12.7
20
7.39885
11
12.597
21
7.41701
0
LINE
8
Black
10
12.597
20
7.41701
11
12.5064
21
7.46931
0
LINE
8
Black
10
12.5064
20
7.46931
11
12.4392
21
7.54943
0
LINE
8
Black
10
12.4392
20
7.54943
11
12.4034
21
7.64771
0
LINE
8
Black
10
12.4034
20
7.64771
11
12.4034
21
7.75229
0
LINE
8
Black
10
12.4034
20
7.75229
11
12.4392
21
7.85057
0
LINE
8
Black
10
12.4392
20
7.85057
11
12.5064
21
7.93069
0
LINE
8
Black
10
12.5064
20
7.93069
11
12.597
21
7.98298
0
LINE
8
Black
10
12.597
20
7.98298
11
12.7
21
8.00115
0
LINE
8
Black
10
12.7
20
8.00115
11
12.803
21
7.98298
0
LINE
8
Black
10
12.803
20
7.98298
11
12.8274
21
7.96887
0
LINE
8
Black
10
12.8274
20
7.96887
11
12.9
21
8.04142
0
LINE
8
Black
10
12.9
20
8.04142
11
12.9
21
8.682
0
LINE
8
Black
10
12.9
20
8.682
11
12.9
21
8.7
0
LINE
8
Black
10
12.9
20
8.7
11
11.95
21
8.7
0
LINE
8
Black
10
11.95
20
8.7
11
11.55
21
8.7
0
LINE
8
Black
10
11.55
20
8.7
11
11.55
21
8.9
0
LINE
8
Black
10
8.45
20
8.7
11
8.05
21
8.7
0
LINE
8
Black
10
8.05
20
8.7
11
7.74256
21
8.7
0
LINE
8
Black
10
7.74256
20
8.7
11
6.95706
21
7.88338
0
LINE
8
Black
10
6.95706
20
7.88338
11
6.98657
21
7.80229
0
LINE
8
Black
10
6.98657
20
7.80229
11
6.98657
21
7.69771
0
LINE
8
Black
10
6.98657
20
7.69771
11
6.9508
21
7.59943
0
LINE
8
Black
10
6.9508
20
7.59943
11
6.88357
21
7.51931
0
LINE
8
Black
10
6.88357
20
7.51931
11
6.793
21
7.46701
0
LINE
8
Black
10
6.793
20
7.46701
11
6.69
21
7.44885
0
LINE
8
Black
10
6.69
20
7.44885
11
6.587
21
7.46701
0
LINE
8
Black
10
6.587
20
7.46701
11
6.49643
21
7.51931
0
LINE
8
Black
10
6.49643
20
7.51931
11
6.4292
21
7.59943
0
LINE
8
Black
10
6.4292
20
7.59943
11
6.39343
21
7.69771
0
LINE
8
Black
10
6.39343
20
7.69771
11
6.39343
21
7.80229
0
LINE
8
Black
10
6.39343
20
7.80229
11
6.4292
21
7.90057
0
LINE
8
Black
10
6.4292
20
7.90057
11
6.49643
21
7.98069
0
LINE
8
Black
10
6.49643
20
7.98069
11
6.587
21
8.03299
0
LINE
8
Black
10
6.587
20
8.03299
11
6.69
21
8.05115
0
LINE
8
Black
10
6.69
20
8.05115
11
6.793
21
8.03299
0
LINE
8
Black
10
6.793
20
8.03299
11
6.81258
21
8.02168
0
LINE
8
Black
10
6.81258
20
8.02168
11
7.62793
21
8.86932
0
LINE
8
Black
10
7.62793
20
8.86932
11
7.63227
21
8.87249
0
LINE
8
Black
10
7.63227
20
8.87249
11
7.63572
21
8.8766
0
LINE
8
Black
10
7.63572
20
8.8766
11
7.6462
21
8.88266
0
LINE
8
Black
10
7.6462
20
8.88266
11
7.65
21
8.88542
0
LINE
8
Black
10
7.65
20
8.88542
11
7.65
21
8.9
0
LINE
8
Black
10
7.65
20
8.9
11
8.45
21
8.9
0
LINE
8
Black
10
8.45
20
8.9
11
8.45
21
8.7
0
LINE
8
Black
10
18.45
20
8.7
11
17.7414
21
8.7
0
LINE
8
Black
10
17.7414
20
8.7
11
17.0691
21
8.0277
0
LINE
8
Black
10
17.0691
20
8.0277
11
17.0966
21
7.95229
0
LINE
8
Black
10
17.0966
20
7.95229
11
17.0966
21
7.84771
0
LINE
8
Black
10
17.0966
20
7.84771
11
17.0608
21
7.74943
0
LINE
8
Black
10
17.0608
20
7.74943
11
16.9936
21
7.66931
0
LINE
8
Black
10
16.9936
20
7.66931
11
16.903
21
7.61701
0
LINE
8
Black
10
16.903
20
7.61701
11
16.8
21
7.59885
0
LINE
8
Black
10
16.8
20
7.59885
11
16.697
21
7.61701
0
LINE
8
Black
10
16.697
20
7.61701
11
16.6064
21
7.66931
0
LINE
8
Black
10
16.6064
20
7.66931
11
16.5392
21
7.74943
0
LINE
8
Black
10
16.5392
20
7.74943
11
16.5034
21
7.84771
0
LINE
8
Black
10
16.5034
20
7.84771
11
16.5034
21
7.95229
0
LINE
8
Black
10
16.5034
20
7.95229
11
16.5392
21
8.05057
0
LINE
8
Black
10
16.5392
20
8.05057
11
16.6064
21
8.13069
0
LINE
8
Black
10
16.6064
20
8.13069
11
16.697
21
8.18299
0
LINE
8
Black
10
16.697
20
8.18299
11
16.8
21
8.20115
0
LINE
8
Black
10
16.8
20
8.20115
11
16.903
21
8.18299
0
LINE
8
Black
10
16.903
20
8.18299
11
16.9274
21
8.16887
0
LINE
8
Black
10
16.9274
20
8.16887
11
17.6293
21
8.87071
0
LINE
8
Black
10
17.6293
20
8.87071
11
17.6329
21
8.87323
0
LINE
8
Black
10
17.6329
20
8.87323
11
17.6357
21
8.8766
0
LINE
8
Black
10
17.6357
20
8.8766
11
17.647
21
8.88314
0
LINE
8
Black
10
17.647
20
8.88314
11
17.65
21
8.88521
0
LINE
8
Black
10
17.65
20
8.88521
11
17.65
21
8.9
0
LINE
8
Black
10
17.65
20
8.9
11
18.45
21
8.9
0
LINE
8
Black
10
18.45
20
8.9
11
18.45
21
8.7
0
LINE
8
Black
10
10.9
20
7.65
11
10.7
21
7.65
0
LINE
8
Black
10
10.7
20
7.65
11
10.7
21
8.45
0
LINE
8
Black
10
10.7
20
8.45
11
10.9
21
8.45
0
LINE
8
Black
10
10.9
20
8.45
11
10.9
21
7.65
0
LINE
8
Black
10
10.5
20
7.65
11
10.3
21
7.65
0
LINE
8
Black
10
10.3
20
7.65
11
10.3
21
8.45
0
LINE
8
Black
10
10.3
20
8.45
11
10.5
21
8.45
0
LINE
8
Black
10
10.5
20
8.45
11
10.5
21
7.65
0
LINE
8
Black
10
9.7
20
7.65
11
9.5
21
7.65
0
LINE
8
Black
10
9.5
20
7.65
11
9.5
21
8.45
0
LINE
8
Black
10
9.5
20
8.45
11
9.7
21
8.45
0
LINE
8
Black
10
9.7
20
8.45
11
9.7
21
7.65
0
LINE
8
Black
10
19.7
20
7.65
11
19.5
21
7.65
0
LINE
8
Black
10
19.5
20
7.65
11
19.5
21
8.45
0
LINE
8
Black
10
19.5
20
8.45
11
19.7
21
8.45
0
LINE
8
Black
10
19.7
20
8.45
11
19.7
21
7.65
0
LINE
8
Black
10
20.9
20
7.65
11
20.7
21
7.65
0
LINE
8
Black
10
20.7
20
7.65
11
20.7
21
8.45
0
LINE
8
Black
10
20.7
20
8.45
11
20.9
21
8.45
0
LINE
8
Black
10
20.9
20
8.45
11
20.9
21
7.65
0
LINE
8
Black
10
20.5
20
7.65
11
20.3
21
7.65
0
LINE
8
Black
10
20.3
20
7.65
11
20.3
21
8.45
0
LINE
8
Black
10
20.3
20
8.45
11
20.5
21
8.45
0
LINE
8
Black
10
20.5
20
8.45
11
20.5
21
7.65
0
LINE
8
Black
10
21.55
20
8.9
11
22.35
21
8.9
0
LINE
8
Black
10
22.35
20
8.9
11
22.9
21
8.9
0
LINE
8
Black
10
22.9
20
8.9
11
22.9
21
9.1
0
LINE
8
Black
10
22.9
20
9.1
11
21.95
21
9.1
0
LINE
8
Black
10
21.95
20
9.1
11
21.55
21
9.1
0
LINE
8
Black
10
21.55
20
9.1
11
21.55
21
9.3
0
LINE
8
Black
10
21.55
20
9.3
11
22.35
21
9.3
0
LINE
8
Black
10
22.35
20
9.3
11
22.8586
21
9.3
0
LINE
8
Black
10
22.8586
20
9.3
11
22.9
21
9.34142
0
LINE
8
Black
10
22.9
20
9.34142
11
22.9
21
9.5
0
LINE
8
Black
10
22.9
20
9.5
11
22.35
21
9.5
0
LINE
8
Black
10
22.35
20
9.5
11
21.95
21
9.5
0
LINE
8
Black
10
21.95
20
9.5
11
21.55
21
9.5
0
LINE
8
Black
10
21.55
20
9.5
11
21.55
21
9.7
0
LINE
8
Black
10
21.55
20
9.7
11
22.35
21
9.7
0
LINE
8
Black
10
22.35
20
9.7
11
22.9
21
9.7
0
LINE
8
Black
10
22.9
20
9.7
11
22.9
21
9.9
0
LINE
8
Black
10
22.9
20
9.9
11
21.95
21
9.9
0
LINE
8
Black
10
21.95
20
9.9
11
21.55
21
9.9
0
LINE
8
Black
10
21.55
20
9.9
11
21.55
21
10.1
0
LINE
8
Black
10
21.55
20
10.1
11
22.35
21
10.1
0
LINE
8
Black
10
22.35
20
10.1
11
22.9
21
10.1
0
LINE
8
Black
10
22.9
20
10.1
11
22.9
21
10.3
0
LINE
8
Black
10
22.9
20
10.3
11
21.95
21
10.3
0
LINE
8
Black
10
21.95
20
10.3
11
21.55
21
10.3
0
LINE
8
Black
10
21.55
20
10.3
11
21.55
21
10.5
0
LINE
8
Black
10
21.55
20
10.5
11
22.35
21
10.5
0
LINE
8
Black
10
22.35
20
10.5
11
22.9
21
10.5
0
LINE
8
Black
10
22.9
20
10.5
11
22.9
21
10.7
0
LINE
8
Black
10
22.9
20
10.7
11
21.95
21
10.7
0
LINE
8
Black
10
21.95
20
10.7
11
21.55
21
10.7
0
LINE
8
Black
10
21.55
20
10.7
11
21.55
21
10.9
0
LINE
8
Black
10
21.55
20
10.9
11
22.35
21
10.9
0
LINE
8
Black
10
22.35
20
10.9
11
23
21
10.9
0
LINE
8
Black
10
23
20
10.9
11
23.0086
21
10.8985
0
LINE
8
Black
10
23.0086
20
10.8985
11
23.0174
21
10.8985
0
LINE
8
Black
10
23.0174
20
10.8985
11
23.0256
21
10.8955
0
LINE
8
Black
10
23.0256
20
10.8955
11
23.0342
21
10.894
0
LINE
8
Black
10
23.0342
20
10.894
11
23.0418
21
10.8896
0
LINE
8
Black
10
23.0418
20
10.8896
11
23.05
21
10.8866
0
LINE
8
Black
10
23.05
20
10.8866
11
23.0567
21
10.881
0
LINE
8
Black
10
23.0567
20
10.881
11
23.0643
21
10.8766
0
LINE
8
Black
10
23.0643
20
10.8766
11
23.0699
21
10.8699
0
LINE
8
Black
10
23.0699
20
10.8699
11
23.0766
21
10.8643
0
LINE
8
Black
10
23.0766
20
10.8643
11
23.081
21
10.8567
0
LINE
8
Black
10
23.081
20
10.8567
11
23.0866
21
10.85
0
LINE
8
Black
10
23.0866
20
10.85
11
23.0896
21
10.8418
0
LINE
8
Black
10
23.0896
20
10.8418
11
23.094
21
10.8342
0
LINE
8
Black
10
23.094
20
10.8342
11
23.0955
21
10.8256
0
LINE
8
Black
10
23.0955
20
10.8256
11
23.0985
21
10.8174
0
LINE
8
Black
10
23.0985
20
10.8174
11
23.0985
21
10.8086
0
LINE
8
Black
10
23.0985
20
10.8086
11
23.1
21
10.8
0
LINE
8
Black
10
23.1
20
10.8
11
23.1
21
10.4
0
LINE
8
Black
10
23.1
20
10.4
11
23.1
21
10
0
LINE
8
Black
10
23.1
20
10
11
23.1
21
9.6
0
LINE
8
Black
10
23.1
20
9.6
11
23.1
21
9.3
0
LINE
8
Black
10
23.1
20
9.3
11
23.1
21
8.8
0
LINE
8
Black
10
23.1
20
8.8
11
23.1
21
8.48599
0
LINE
8
Black
10
23.1
20
8.48599
11
23.0992
21
8.48166
0
LINE
8
Black
10
23.0992
20
8.48166
11
23.0996
21
8.47727
0
LINE
8
Black
10
23.0996
20
8.47727
11
23.0962
21
8.46466
0
LINE
8
Black
10
23.0962
20
8.46466
11
23.094
21
8.45179
0
LINE
8
Black
10
23.094
20
8.45179
11
23.0918
21
8.44798
0
LINE
8
Black
10
23.0918
20
8.44798
11
23.0906
21
8.44373
0
LINE
8
Black
10
23.0906
20
8.44373
11
23.0831
21
8.43302
0
LINE
8
Black
10
23.0831
20
8.43302
11
23.0766
21
8.42171
0
LINE
8
Black
10
23.0766
20
8.42171
11
23.0732
21
8.41888
0
LINE
8
Black
10
23.0732
20
8.41888
11
23.0707
21
8.41528
0
LINE
8
Black
10
23.0707
20
8.41528
11
22.9707
21
8.31528
0
LINE
8
Black
10
22.9707
20
8.31528
11
22.9707
21
8.31528
0
LINE
8
Black
10
22.9707
20
8.31528
11
22.8691
21
8.21369
0
LINE
8
Black
10
22.8691
20
8.21369
11
22.8966
21
8.13828
0
LINE
8
Black
10
22.8966
20
8.13828
11
22.8966
21
8.0337
0
LINE
8
Black
10
22.8966
20
8.0337
11
22.8608
21
7.93542
0
LINE
8
Black
10
22.8608
20
7.93542
11
22.7936
21
7.8553
0
LINE
8
Black
10
22.7936
20
7.8553
11
22.703
21
7.803
0
LINE
8
Black
10
22.703
20
7.803
11
22.6
21
7.78484
0
LINE
8
Black
10
22.6
20
7.78484
11
22.497
21
7.803
0
LINE
8
Black
10
22.497
20
7.803
11
22.4064
21
7.8553
0
LINE
8
Black
10
22.4064
20
7.8553
11
22.3392
21
7.93542
0
LINE
8
Black
10
22.3392
20
7.93542
11
22.3034
21
8.0337
0
LINE
8
Black
10
22.3034
20
8.0337
11
22.3034
21
8.13828
0
LINE
8
Black
10
22.3034
20
8.13828
11
22.3392
21
8.23656
0
LINE
8
Black
10
22.3392
20
8.23656
11
22.4064
21
8.31668
0
LINE
8
Black
10
22.4064
20
8.31668
11
22.497
21
8.36897
0
LINE
8
Black
10
22.497
20
8.36897
11
22.6
21
8.38714
0
LINE
8
Black
10
22.6
20
8.38714
11
22.703
21
8.36897
0
LINE
8
Black
10
22.703
20
8.36897
11
22.7274
21
8.35486
0
LINE
8
Black
10
22.7274
20
8.35486
11
22.8293
21
8.4567
0
LINE
8
Black
10
22.8293
20
8.4567
11
22.8293
21
8.4567
0
LINE
8
Black
10
22.8293
20
8.4567
11
22.9
21
8.52741
0
LINE
8
Black
10
22.9
20
8.52741
11
22.9
21
8.7
0
LINE
8
Black
10
22.9
20
8.7
11
21.95
21
8.7
0
LINE
8
Black
10
21.95
20
8.7
11
21.55
21
8.7
0
LINE
8
Black
10
21.55
20
8.7
11
21.55
21
8.9
0
LINE
8
Black
10
6.23285
20
8.42929
11
6.22924
21
8.42676
0
LINE
8
Black
10
6.22924
20
8.42676
11
6.22642
21
8.4234
0
LINE
8
Black
10
6.22642
20
8.4234
11
6.21511
21
8.41687
0
LINE
8
Black
10
6.21511
20
8.41687
11
6.2044
21
8.40937
0
LINE
8
Black
10
6.2044
20
8.40937
11
6.20015
21
8.40823
0
LINE
8
Black
10
6.20015
20
8.40823
11
6.19634
21
8.40603
0
LINE
8
Black
10
6.19634
20
8.40603
11
6.18347
21
8.40376
0
LINE
8
Black
10
6.18347
20
8.40376
11
6.17085
21
8.40038
0
LINE
8
Black
10
6.17085
20
8.40038
11
6.16647
21
8.40076
0
LINE
8
Black
10
6.16647
20
8.40076
11
6.16214
21
8.4
0
LINE
8
Black
10
6.16214
20
8.4
11
6.12426
21
8.4
0
LINE
8
Black
10
6.12426
20
8.4
11
5.97921
21
8.4
0
LINE
8
Black
10
5.97921
20
8.4
11
5.9608
21
8.34943
0
LINE
8
Black
10
5.9608
20
8.34943
11
5.89357
21
8.26931
0
LINE
8
Black
10
5.89357
20
8.26931
11
5.803
21
8.21701
0
LINE
8
Black
10
5.803
20
8.21701
11
5.7
21
8.19885
0
LINE
8
Black
10
5.7
20
8.19885
11
5.597
21
8.21701
0
LINE
8
Black
10
5.597
20
8.21701
11
5.50643
21
8.26931
0
LINE
8
Black
10
5.50643
20
8.26931
11
5.4392
21
8.34943
0
LINE
8
Black
10
5.4392
20
8.34943
11
5.40343
21
8.44771
0
LINE
8
Black
10
5.40343
20
8.44771
11
5.40343
21
8.55229
0
LINE
8
Black
10
5.40343
20
8.55229
11
5.4392
21
8.65057
0
LINE
8
Black
10
5.4392
20
8.65057
11
5.50643
21
8.73069
0
LINE
8
Black
10
5.50643
20
8.73069
11
5.597
21
8.78299
0
LINE
8
Black
10
5.597
20
8.78299
11
5.7
21
8.80115
0
LINE
8
Black
10
5.7
20
8.80115
11
5.803
21
8.78299
0
LINE
8
Black
10
5.803
20
8.78299
11
5.89357
21
8.73069
0
LINE
8
Black
10
5.89357
20
8.73069
11
5.9608
21
8.65057
0
LINE
8
Black
10
5.9608
20
8.65057
11
5.97921
21
8.6
0
LINE
8
Black
10
5.97921
20
8.6
11
6.12072
21
8.6
0
LINE
8
Black
10
6.12072
20
8.6
11
6.79143
21
9.27071
0
LINE
8
Black
10
6.79143
20
9.27071
11
6.79503
21
9.27323
0
LINE
8
Black
10
6.79503
20
9.27323
11
6.79786
21
9.2766
0
LINE
8
Black
10
6.79786
20
9.2766
11
6.80918
21
9.28314
0
LINE
8
Black
10
6.80918
20
9.28314
11
6.81988
21
9.29063
0
LINE
8
Black
10
6.81988
20
9.29063
11
6.82412
21
9.29177
0
LINE
8
Black
10
6.82412
20
9.29177
11
6.82794
21
9.29397
0
LINE
8
Black
10
6.82794
20
9.29397
11
6.84081
21
9.29624
0
LINE
8
Black
10
6.84081
20
9.29624
11
6.85342
21
9.29962
0
LINE
8
Black
10
6.85342
20
9.29962
11
6.8578
21
9.29924
0
LINE
8
Black
10
6.8578
20
9.29924
11
6.86214
21
9.3
0
LINE
8
Black
10
6.86214
20
9.3
11
8.05
21
9.3
0
LINE
8
Black
10
8.05
20
9.3
11
8.45
21
9.3
0
LINE
8
Black
10
8.45
20
9.3
11
8.45
21
9.1
0
LINE
8
Black
10
8.45
20
9.1
11
7.65
21
9.1
0
LINE
8
Black
10
7.65
20
9.1
11
6.90356
21
9.1
0
LINE
8
Black
10
6.90356
20
9.1
11
6.23285
21
8.42929
0
LINE
8
Black
10
16.4729
20
8.42929
11
16.4693
21
8.42676
0
LINE
8
Black
10
16.4693
20
8.42676
11
16.4664
21
8.4234
0
LINE
8
Black
10
16.4664
20
8.4234
11
16.4551
21
8.41687
0
LINE
8
Black
10
16.4551
20
8.41687
11
16.4444
21
8.40937
0
LINE
8
Black
10
16.4444
20
8.40937
11
16.4402
21
8.40823
0
LINE
8
Black
10
16.4402
20
8.40823
11
16.4364
21
8.40603
0
LINE
8
Black
10
16.4364
20
8.40603
11
16.4235
21
8.40376
0
LINE
8
Black
10
16.4235
20
8.40376
11
16.4109
21
8.40038
0
LINE
8
Black
10
16.4109
20
8.40038
11
16.4065
21
8.40076
0
LINE
8
Black
10
16.4065
20
8.40076
11
16.4021
21
8.4
0
LINE
8
Black
10
16.4021
20
8.4
11
16.1243
21
8.4
0
LINE
8
Black
10
16.1243
20
8.4
11
15.9792
21
8.4
0
LINE
8
Black
10
15.9792
20
8.4
11
15.9608
21
8.34943
0
LINE
8
Black
10
15.9608
20
8.34943
11
15.8936
21
8.26931
0
LINE
8
Black
10
15.8936
20
8.26931
11
15.803
21
8.21701
0
LINE
8
Black
10
15.803
20
8.21701
11
15.7
21
8.19885
0
LINE
8
Black
10
15.7
20
8.19885
11
15.597
21
8.21701
0
LINE
8
Black
10
15.597
20
8.21701
11
15.5064
21
8.26931
0
LINE
8
Black
10
15.5064
20
8.26931
11
15.4392
21
8.34943
0
LINE
8
Black
10
15.4392
20
8.34943
11
15.4034
21
8.44771
0
LINE
8
Black
10
15.4034
20
8.44771
11
15.4034
21
8.55229
0
LINE
8
Black
10
15.4034
20
8.55229
11
15.4392
21
8.65057
0
LINE
8
Black
10
15.4392
20
8.65057
11
15.5064
21
8.73069
0
LINE
8
Black
10
15.5064
20
8.73069
11
15.597
21
8.78299
0
LINE
8
Black
10
15.597
20
8.78299
11
15.7
21
8.80115
0
LINE
8
Black
10
15.7
20
8.80115
11
15.803
21
8.78299
0
LINE
8
Black
10
15.803
20
8.78299
11
15.8936
21
8.73069
0
LINE
8
Black
10
15.8936
20
8.73069
11
15.9608
21
8.65057
0
LINE
8
Black
10
15.9608
20
8.65057
11
15.9792
21
8.6
0
LINE
8
Black
10
15.9792
20
8.6
11
16.1243
21
8.6
0
LINE
8
Black
10
16.1243
20
8.6
11
16.3607
21
8.6
0
LINE
8
Black
10
16.3607
20
8.6
11
17.0314
21
9.27071
0
LINE
8
Black
10
17.0314
20
9.27071
11
17.035
21
9.27323
0
LINE
8
Black
10
17.035
20
9.27323
11
17.0379
21
9.2766
0
LINE
8
Black
10
17.0379
20
9.2766
11
17.0492
21
9.28314
0
LINE
8
Black
10
17.0492
20
9.28314
11
17.0599
21
9.29063
0
LINE
8
Black
10
17.0599
20
9.29063
11
17.0641
21
9.29177
0
LINE
8
Black
10
17.0641
20
9.29177
11
17.0679
21
9.29397
0
LINE
8
Black
10
17.0679
20
9.29397
11
17.0808
21
9.29624
0
LINE
8
Black
10
17.0808
20
9.29624
11
17.0934
21
9.29962
0
LINE
8
Black
10
17.0934
20
9.29962
11
17.0978
21
9.29924
0
LINE
8
Black
10
17.0978
20
9.29924
11
17.1021
21
9.3
0
LINE
8
Black
10
17.1021
20
9.3
11
18.05
21
9.3
0
LINE
8
Black
10
18.05
20
9.3
11
18.45
21
9.3
0
LINE
8
Black
10
18.45
20
9.3
11
18.45
21
9.1
0
LINE
8
Black
10
18.45
20
9.1
11
17.65
21
9.1
0
LINE
8
Black
10
17.65
20
9.1
11
17.1436
21
9.1
0
LINE
8
Black
10
17.1436
20
9.1
11
16.4729
21
8.42929
0
LINE
8
Black
10
10
20
11.2
11
11.2
21
11.2
0
LINE
8
Black
10
11.2
20
11.2
11
11.2
21
10
0
LINE
8
Black
10
11.2
20
10
11
11.2
21
8.8
0
LINE
8
Black
10
11.2
20
8.8
11
10
21
8.8
0
LINE
8
Black
10
10
20
8.8
11
8.8
21
8.8
0
LINE
8
Black
10
8.8
20
8.8
11
8.8
21
10
0
LINE
8
Black
10
8.8
20
10
11
8.8
21
11.2
0
LINE
8
Black
10
8.8
20
11.2
11
10
21
11.2
0
LINE
8
Black
10
20
20
11.2
11
21.2
21
11.2
0
LINE
8
Black
10
21.2
20
11.2
11
21.2
21
10
0
LINE
8
Black
10
21.2
20
10
11
21.2
21
8.8
0
LINE
8
Black
10
21.2
20
8.8
11
20
21
8.8
0
LINE
8
Black
10
20
20
8.8
11
18.8
21
8.8
0
LINE
8
Black
10
18.8
20
8.8
11
18.8
21
10
0
LINE
8
Black
10
18.8
20
10
11
18.8
21
11.2
0
LINE
8
Black
10
18.8
20
11.2
11
20
21
11.2
0
LINE
8
Black
10
16.572
20
9.35544
11
16.572
21
9.35544
0
LINE
8
Black
10
16.572
20
9.35544
11
16.4704
21
9.25386
0
LINE
8
Black
10
16.4704
20
9.25386
11
16.4978
21
9.17845
0
LINE
8
Black
10
16.4978
20
9.17845
11
16.4978
21
9.07386
0
LINE
8
Black
10
16.4978
20
9.07386
11
16.4621
21
8.97558
0
LINE
8
Black
10
16.4621
20
8.97558
11
16.3948
21
8.89546
0
LINE
8
Black
10
16.3948
20
8.89546
11
16.3043
21
8.84317
0
LINE
8
Black
10
16.3043
20
8.84317
11
16.2013
21
8.82501
0
LINE
8
Black
10
16.2013
20
8.82501
11
16.0983
21
8.84317
0
LINE
8
Black
10
16.0983
20
8.84317
11
16.0077
21
8.89546
0
LINE
8
Black
10
16.0077
20
8.89546
11
15.9405
21
8.97558
0
LINE
8
Black
10
15.9405
20
8.97558
11
15.9047
21
9.07386
0
LINE
8
Black
10
15.9047
20
9.07386
11
15.9047
21
9.17845
0
LINE
8
Black
10
15.9047
20
9.17845
11
15.9405
21
9.27673
0
LINE
8
Black
10
15.9405
20
9.27673
11
16.0077
21
9.35685
0
LINE
8
Black
10
16.0077
20
9.35685
11
16.0983
21
9.40914
0
LINE
8
Black
10
16.0983
20
9.40914
11
16.2013
21
9.4273
0
LINE
8
Black
10
16.2013
20
9.4273
11
16.3043
21
9.40914
0
LINE
8
Black
10
16.3043
20
9.40914
11
16.3287
21
9.39503
0
LINE
8
Black
10
16.3287
20
9.39503
11
16.4305
21
9.49686
0
LINE
8
Black
10
16.4305
20
9.49686
11
16.4305
21
9.49687
0
LINE
8
Black
10
16.4305
20
9.49687
11
16.6044
21
9.67071
0
LINE
8
Black
10
16.6044
20
9.67071
11
16.608
21
9.67324
0
LINE
8
Black
10
16.608
20
9.67324
11
16.6108
21
9.6766
0
LINE
8
Black
10
16.6108
20
9.6766
11
16.6221
21
9.68313
0
LINE
8
Black
10
16.6221
20
9.68313
11
16.6328
21
9.69063
0
LINE
8
Black
10
16.6328
20
9.69063
11
16.6371
21
9.69177
0
LINE
8
Black
10
16.6371
20
9.69177
11
16.6409
21
9.69397
0
LINE
8
Black
10
16.6409
20
9.69397
11
16.6538
21
9.69624
0
LINE
8
Black
10
16.6538
20
9.69624
11
16.6664
21
9.69962
0
LINE
8
Black
10
16.6664
20
9.69962
11
16.6708
21
9.69924
0
LINE
8
Black
10
16.6708
20
9.69924
11
16.6751
21
9.7
0
LINE
8
Black
10
16.6751
20
9.7
11
18.05
21
9.7
0
LINE
8
Black
10
18.05
20
9.7
11
18.45
21
9.7
0
LINE
8
Black
10
18.45
20
9.7
11
18.45
21
9.5
0
LINE
8
Black
10
18.45
20
9.5
11
18.05
21
9.5
0
LINE
8
Black
10
18.05
20
9.5
11
17.65
21
9.5
0
LINE
8
Black
10
17.65
20
9.5
11
16.7165
21
9.5
0
LINE
8
Black
10
16.7165
20
9.5
11
16.572
21
9.35544
0
LINE
8
Black
10
6.41318
20
9.41851
11
6.44063
21
9.3431
0
LINE
8
Black
10
6.44063
20
9.3431
11
6.44063
21
9.23851
0
LINE
8
Black
10
6.44063
20
9.23851
11
6.40486
21
9.14023
0
LINE
8
Black
10
6.40486
20
9.14023
11
6.33763
21
9.06012
0
LINE
8
Black
10
6.33763
20
9.06012
11
6.24705
21
9.00782
0
LINE
8
Black
10
6.24705
20
9.00782
11
6.14406
21
8.98966
0
LINE
8
Black
10
6.14406
20
8.98966
11
6.04106
21
9.00782
0
LINE
8
Black
10
6.04106
20
9.00782
11
5.95048
21
9.06012
0
LINE
8
Black
10
5.95048
20
9.06012
11
5.88326
21
9.14023
0
LINE
8
Black
10
5.88326
20
9.14023
11
5.84748
21
9.23851
0
LINE
8
Black
10
5.84748
20
9.23851
11
5.84748
21
9.3431
0
LINE
8
Black
10
5.84748
20
9.3431
11
5.88326
21
9.44138
0
LINE
8
Black
10
5.88326
20
9.44138
11
5.95048
21
9.5215
0
LINE
8
Black
10
5.95048
20
9.5215
11
6.04106
21
9.57379
0
LINE
8
Black
10
6.04106
20
9.57379
11
6.14406
21
9.59195
0
LINE
8
Black
10
6.14406
20
9.59195
11
6.24705
21
9.57379
0
LINE
8
Black
10
6.24705
20
9.57379
11
6.2715
21
9.55968
0
LINE
8
Black
10
6.2715
20
9.55968
11
6.37334
21
9.66151
0
LINE
8
Black
10
6.37334
20
9.66151
11
6.37334
21
9.66152
0
LINE
8
Black
10
6.37334
20
9.66152
11
6.38254
21
9.67071
0
LINE
8
Black
10
6.38254
20
9.67071
11
6.38614
21
9.67324
0
LINE
8
Black
10
6.38614
20
9.67324
11
6.38897
21
9.6766
0
LINE
8
Black
10
6.38897
20
9.6766
11
6.40028
21
9.68313
0
LINE
8
Black
10
6.40028
20
9.68313
11
6.41099
21
9.69063
0
LINE
8
Black
10
6.41099
20
9.69063
11
6.41524
21
9.69177
0
LINE
8
Black
10
6.41524
20
9.69177
11
6.41905
21
9.69397
0
LINE
8
Black
10
6.41905
20
9.69397
11
6.43191
21
9.69624
0
LINE
8
Black
10
6.43191
20
9.69624
11
6.44453
21
9.69962
0
LINE
8
Black
10
6.44453
20
9.69962
11
6.44891
21
9.69924
0
LINE
8
Black
10
6.44891
20
9.69924
11
6.45325
21
9.7
0
LINE
8
Black
10
6.45325
20
9.7
11
8.05
21
9.7
0
LINE
8
Black
10
8.05
20
9.7
11
8.45
21
9.7
0
LINE
8
Black
10
8.45
20
9.7
11
8.45
21
9.5
0
LINE
8
Black
10
8.45
20
9.5
11
7.65
21
9.5
0
LINE
8
Black
10
7.65
20
9.5
11
6.49467
21
9.5
0
LINE
8
Black
10
6.49467
20
9.5
11
6.41318
21
9.41851
0
LINE
8
Black
10
18.45
20
9.9
11
17.65
21
9.9
0
LINE
8
Black
10
17.65
20
9.9
11
16.2341
21
9.9
0
LINE
8
Black
10
16.2341
20
9.9
11
16.2369
21
9.89228
0
LINE
8
Black
10
16.2369
20
9.89228
11
16.2369
21
9.7877
0
LINE
8
Black
10
16.2369
20
9.7877
11
16.2012
21
9.68942
0
LINE
8
Black
10
16.2012
20
9.68942
11
16.1339
21
9.6093
0
LINE
8
Black
10
16.1339
20
9.6093
11
16.0434
21
9.55701
0
LINE
8
Black
10
16.0434
20
9.55701
11
15.9404
21
9.53884
0
LINE
8
Black
10
15.9404
20
9.53884
11
15.8374
21
9.55701
0
LINE
8
Black
10
15.8374
20
9.55701
11
15.7468
21
9.6093
0
LINE
8
Black
10
15.7468
20
9.6093
11
15.6796
21
9.68942
0
LINE
8
Black
10
15.6796
20
9.68942
11
15.6438
21
9.7877
0
LINE
8
Black
10
15.6438
20
9.7877
11
15.6438
21
9.89228
0
LINE
8
Black
10
15.6438
20
9.89228
11
15.6796
21
9.99056
0
LINE
8
Black
10
15.6796
20
9.99056
11
15.7468
21
10.0707
0
LINE
8
Black
10
15.7468
20
10.0707
11
15.8374
21
10.123
0
LINE
8
Black
10
15.8374
20
10.123
11
15.9404
21
10.1411
0
LINE
8
Black
10
15.9404
20
10.1411
11
16.0434
21
10.123
0
LINE
8
Black
10
16.0434
20
10.123
11
16.0863
21
10.0982
0
LINE
8
Black
10
16.0863
20
10.0982
11
16.0917
21
10.0996
0
LINE
8
Black
10
16.0917
20
10.0996
11
16.0961
21
10.0992
0
LINE
8
Black
10
16.0961
20
10.0992
11
16.1004
21
10.1
0
LINE
8
Black
10
16.1004
20
10.1
11
18.05
21
10.1
0
LINE
8
Black
10
18.05
20
10.1
11
18.45
21
10.1
0
LINE
8
Black
10
18.45
20
10.1
11
18.45
21
9.9
0
LINE
8
Black
10
8.45
20
9.9
11
7.65
21
9.9
0
LINE
8
Black
10
7.65
20
9.9
11
5.86325
21
9.9
0
LINE
8
Black
10
5.86325
20
9.9
11
5.84485
21
9.84943
0
LINE
8
Black
10
5.84485
20
9.84943
11
5.77762
21
9.76931
0
LINE
8
Black
10
5.77762
20
9.76931
11
5.68704
21
9.71701
0
LINE
8
Black
10
5.68704
20
9.71701
11
5.58405
21
9.69885
0
LINE
8
Black
10
5.58405
20
9.69885
11
5.48105
21
9.71701
0
LINE
8
Black
10
5.48105
20
9.71701
11
5.39047
21
9.76931
0
LINE
8
Black
10
5.39047
20
9.76931
11
5.32325
21
9.84943
0
LINE
8
Black
10
5.32325
20
9.84943
11
5.28747
21
9.94771
0
LINE
8
Black
10
5.28747
20
9.94771
11
5.28747
21
10.0523
0
LINE
8
Black
10
5.28747
20
10.0523
11
5.32325
21
10.1506
0
LINE
8
Black
10
5.32325
20
10.1506
11
5.39047
21
10.2307
0
LINE
8
Black
10
5.39047
20
10.2307
11
5.48105
21
10.283
0
LINE
8
Black
10
5.48105
20
10.283
11
5.58405
21
10.3011
0
LINE
8
Black
10
5.58405
20
10.3011
11
5.68704
21
10.283
0
LINE
8
Black
10
5.68704
20
10.283
11
5.77762
21
10.2307
0
LINE
8
Black
10
5.77762
20
10.2307
11
5.84485
21
10.1506
0
LINE
8
Black
10
5.84485
20
10.1506
11
5.86325
21
10.1
0
LINE
8
Black
10
5.86325
20
10.1
11
8.05
21
10.1
0
LINE
8
Black
10
8.05
20
10.1
11
8.45
21
10.1
0
LINE
8
Black
10
8.45
20
10.1
11
8.45
21
9.9
0
LINE
8
Black
10
6.34299
20
14.5591
11
6.43356
21
14.5068
0
LINE
8
Black
10
6.43356
20
14.5068
11
6.50079
21
14.4267
0
LINE
8
Black
10
6.50079
20
14.4267
11
6.53656
21
14.3284
0
LINE
8
Black
10
6.53656
20
14.3284
11
6.53656
21
14.2238
0
LINE
8
Black
10
6.53656
20
14.2238
11
6.50079
21
14.1255
0
LINE
8
Black
10
6.50079
20
14.1255
11
6.43356
21
14.0454
0
LINE
8
Black
10
6.43356
20
14.0454
11
6.34299
21
13.9931
0
LINE
8
Black
10
6.34299
20
13.9931
11
6.23999
21
13.975
0
LINE
8
Black
10
6.23999
20
13.975
11
6.13699
21
13.9931
0
LINE
8
Black
10
6.13699
20
13.9931
11
6.11254
21
14.0073
0
LINE
8
Black
10
6.11254
20
14.0073
11
3.8
21
11.6947
0
LINE
8
Black
10
3.8
20
11.6947
11
3.8
21
10.6035
0
LINE
8
Black
10
3.8
20
10.6035
11
3.803
21
10.603
0
LINE
8
Black
10
3.803
20
10.603
11
3.89357
21
10.5507
0
LINE
8
Black
10
3.89357
20
10.5507
11
3.9608
21
10.4706
0
LINE
8
Black
10
3.9608
20
10.4706
11
3.99657
21
10.3723
0
LINE
8
Black
10
3.99657
20
10.3723
11
3.99657
21
10.2677
0
LINE
8
Black
10
3.99657
20
10.2677
11
3.9608
21
10.1694
0
LINE
8
Black
10
3.9608
20
10.1694
11
3.89357
21
10.0893
0
LINE
8
Black
10
3.89357
20
10.0893
11
3.803
21
10.037
0
LINE
8
Black
10
3.803
20
10.037
11
3.7
21
10.0189
0
LINE
8
Black
10
3.7
20
10.0189
11
3.597
21
10.037
0
LINE
8
Black
10
3.597
20
10.037
11
3.50643
21
10.0893
0
LINE
8
Black
10
3.50643
20
10.0893
11
3.4392
21
10.1694
0
LINE
8
Black
10
3.4392
20
10.1694
11
3.40343
21
10.2677
0
LINE
8
Black
10
3.40343
20
10.2677
11
3.40343
21
10.3723
0
LINE
8
Black
10
3.40343
20
10.3723
11
3.4392
21
10.4706
0
LINE
8
Black
10
3.4392
20
10.4706
11
3.50643
21
10.5507
0
LINE
8
Black
10
3.50643
20
10.5507
11
3.597
21
10.603
0
LINE
8
Black
10
3.597
20
10.603
11
3.6
21
10.6035
0
LINE
8
Black
10
3.6
20
10.6035
11
3.6
21
11.7361
0
LINE
8
Black
10
3.6
20
11.7361
11
3.60076
21
11.7405
0
LINE
8
Black
10
3.60076
20
11.7405
11
3.60038
21
11.7448
0
LINE
8
Black
10
3.60038
20
11.7448
11
3.60376
21
11.7575
0
LINE
8
Black
10
3.60376
20
11.7575
11
3.60603
21
11.7703
0
LINE
8
Black
10
3.60603
20
11.7703
11
3.60823
21
11.7741
0
LINE
8
Black
10
3.60823
20
11.7741
11
3.60937
21
11.7784
0
LINE
8
Black
10
3.60937
20
11.7784
11
3.61687
21
11.7891
0
LINE
8
Black
10
3.61687
20
11.7891
11
3.6234
21
11.8004
0
LINE
8
Black
10
3.6234
20
11.8004
11
3.62676
21
11.8032
0
LINE
8
Black
10
3.62676
20
11.8032
11
3.62929
21
11.8068
0
LINE
8
Black
10
3.62929
20
11.8068
11
5.97087
21
14.1484
0
LINE
8
Black
10
5.97087
20
14.1484
11
5.94342
21
14.2238
0
LINE
8
Black
10
5.94342
20
14.2238
11
5.94342
21
14.3284
0
LINE
8
Black
10
5.94342
20
14.3284
11
5.97919
21
14.4267
0
LINE
8
Black
10
5.97919
20
14.4267
11
6.04642
21
14.5068
0
LINE
8
Black
10
6.04642
20
14.5068
11
6.13699
21
14.5591
0
LINE
8
Black
10
6.13699
20
14.5591
11
6.23999
21
14.5773
0
LINE
8
Black
10
6.23999
20
14.5773
11
6.34299
21
14.5591
0
LINE
8
Black
10
8.45
20
10.3
11
8.05
21
10.3
0
LINE
8
Black
10
8.05
20
10.3
11
7.65
21
10.3
0
LINE
8
Black
10
7.65
20
10.3
11
6.11715
21
10.3
0
LINE
8
Black
10
6.11715
20
10.3
11
6.11282
21
10.3008
0
LINE
8
Black
10
6.11282
20
10.3008
11
6.10844
21
10.3004
0
LINE
8
Black
10
6.10844
20
10.3004
11
6.09582
21
10.3038
0
LINE
8
Black
10
6.09582
20
10.3038
11
6.08295
21
10.306
0
LINE
8
Black
10
6.08295
20
10.306
11
6.07914
21
10.3082
0
LINE
8
Black
10
6.07914
20
10.3082
11
6.07489
21
10.3094
0
LINE
8
Black
10
6.07489
20
10.3094
11
6.06418
21
10.3169
0
LINE
8
Black
10
6.06418
20
10.3169
11
6.05287
21
10.3234
0
LINE
8
Black
10
6.05287
20
10.3234
11
6.05005
21
10.3268
0
LINE
8
Black
10
6.05005
20
10.3268
11
6.04644
21
10.3293
0
LINE
8
Black
10
6.04644
20
10.3293
11
5.70645
21
10.6693
0
LINE
8
Black
10
5.70645
20
10.6693
11
5.70645
21
10.6693
0
LINE
8
Black
10
5.70645
20
10.6693
11
5.60461
21
10.7711
0
LINE
8
Black
10
5.60461
20
10.7711
11
5.58016
21
10.757
0
LINE
8
Black
10
5.58016
20
10.757
11
5.47716
21
10.7388
0
LINE
8
Black
10
5.47716
20
10.7388
11
5.37416
21
10.757
0
LINE
8
Black
10
5.37416
20
10.757
11
5.28359
21
10.8093
0
LINE
8
Black
10
5.28359
20
10.8093
11
5.21636
21
10.8894
0
LINE
8
Black
10
5.21636
20
10.8894
11
5.18059
21
10.9877
0
LINE
8
Black
10
5.18059
20
10.9877
11
5.18059
21
11.0923
0
LINE
8
Black
10
5.18059
20
11.0923
11
5.21636
21
11.1906
0
LINE
8
Black
10
5.21636
20
11.1906
11
5.28359
21
11.2707
0
LINE
8
Black
10
5.28359
20
11.2707
11
5.37416
21
11.323
0
LINE
8
Black
10
5.37416
20
11.323
11
5.47716
21
11.3411
0
LINE
8
Black
10
5.47716
20
11.3411
11
5.58016
21
11.323
0
LINE
8
Black
10
5.58016
20
11.323
11
5.67073
21
11.2707
0
LINE
8
Black
10
5.67073
20
11.2707
11
5.73796
21
11.1906
0
LINE
8
Black
10
5.73796
20
11.1906
11
5.77373
21
11.0923
0
LINE
8
Black
10
5.77373
20
11.0923
11
5.77373
21
10.9877
0
LINE
8
Black
10
5.77373
20
10.9877
11
5.74629
21
10.9123
0
LINE
8
Black
10
5.74629
20
10.9123
11
5.84787
21
10.8107
0
LINE
8
Black
10
5.84787
20
10.8107
11
5.84787
21
10.8107
0
LINE
8
Black
10
5.84787
20
10.8107
11
6.15857
21
10.5
0
LINE
8
Black
10
6.15857
20
10.5
11
8.05
21
10.5
0
LINE
8
Black
10
8.05
20
10.5
11
8.45
21
10.5
0
LINE
8
Black
10
8.45
20
10.5
11
8.45
21
10.3
0
LINE
8
Black
10
18.45
20
10.3
11
17.65
21
10.3
0
LINE
8
Black
10
17.65
20
10.3
11
16.4
21
10.3
0
LINE
8
Black
10
16.4
20
10.3
11
16.3957
21
10.3008
0
LINE
8
Black
10
16.3957
20
10.3008
11
16.3913
21
10.3004
0
LINE
8
Black
10
16.3913
20
10.3004
11
16.3787
21
10.3038
0
LINE
8
Black
10
16.3787
20
10.3038
11
16.3658
21
10.306
0
LINE
8
Black
10
16.3658
20
10.306
11
16.362
21
10.3082
0
LINE
8
Black
10
16.362
20
10.3082
11
16.3577
21
10.3094
0
LINE
8
Black
10
16.3577
20
10.3094
11
16.347
21
10.3169
0
LINE
8
Black
10
16.347
20
10.3169
11
16.3357
21
10.3234
0
LINE
8
Black
10
16.3357
20
10.3234
11
16.3329
21
10.3268
0
LINE
8
Black
10
16.3329
20
10.3268
11
16.3293
21
10.3293
0
LINE
8
Black
10
16.3293
20
10.3293
11
15.5274
21
11.1311
0
LINE
8
Black
10
15.5274
20
11.1311
11
15.503
21
11.117
0
LINE
8
Black
10
15.503
20
11.117
11
15.4
21
11.0989
0
LINE
8
Black
10
15.4
20
11.0989
11
15.297
21
11.117
0
LINE
8
Black
10
15.297
20
11.117
11
15.2064
21
11.1693
0
LINE
8
Black
10
15.2064
20
11.1693
11
15.1392
21
11.2494
0
LINE
8
Black
10
15.1392
20
11.2494
11
15.1034
21
11.3477
0
LINE
8
Black
10
15.1034
20
11.3477
11
15.1034
21
11.4523
0
LINE
8
Black
10
15.1034
20
11.4523
11
15.1392
21
11.5506
0
LINE
8
Black
10
15.1392
20
11.5506
11
15.2064
21
11.6307
0
LINE
8
Black
10
15.2064
20
11.6307
11
15.297
21
11.683
0
LINE
8
Black
10
15.297
20
11.683
11
15.4
21
11.7011
0
LINE
8
Black
10
15.4
20
11.7011
11
15.503
21
11.683
0
LINE
8
Black
10
15.503
20
11.683
11
15.5936
21
11.6307
0
LINE
8
Black
10
15.5936
20
11.6307
11
15.6608
21
11.5506
0
LINE
8
Black
10
15.6608
20
11.5506
11
15.6966
21
11.4523
0
LINE
8
Black
10
15.6966
20
11.4523
11
15.6966
21
11.3477
0
LINE
8
Black
10
15.6966
20
11.3477
11
15.6691
21
11.2723
0
LINE
8
Black
10
15.6691
20
11.2723
11
16.4414
21
10.5
0
LINE
8
Black
10
16.4414
20
10.5
11
18.05
21
10.5
0
LINE
8
Black
10
18.05
20
10.5
11
18.45
21
10.5
0
LINE
8
Black
10
18.45
20
10.5
11
18.45
21
10.3
0
LINE
8
Black
10
4.68884
20
14.143
11
4.77941
21
14.0907
0
LINE
8
Black
10
4.77941
20
14.0907
11
4.84664
21
14.0106
0
LINE
8
Black
10
4.84664
20
14.0106
11
4.88241
21
13.9123
0
LINE
8
Black
10
4.88241
20
13.9123
11
4.88241
21
13.8077
0
LINE
8
Black
10
4.88241
20
13.8077
11
4.84664
21
13.7094
0
LINE
8
Black
10
4.84664
20
13.7094
11
4.77941
21
13.6293
0
LINE
8
Black
10
4.77941
20
13.6293
11
4.68884
21
13.577
0
LINE
8
Black
10
4.68884
20
13.577
11
4.58584
21
13.5589
0
LINE
8
Black
10
4.58584
20
13.5589
11
4.48284
21
13.577
0
LINE
8
Black
10
4.48284
20
13.577
11
4.45839
21
13.5911
0
LINE
8
Black
10
4.45839
20
13.5911
11
4.35655
21
13.4893
0
LINE
8
Black
10
4.35655
20
13.4893
11
2.767
21
11.8997
0
LINE
8
Black
10
2.767
20
11.8997
11
2.767
21
11.142
0
LINE
8
Black
10
2.767
20
11.142
11
2.77
21
11.1415
0
LINE
8
Black
10
2.77
20
11.1415
11
2.86057
21
11.0892
0
LINE
8
Black
10
2.86057
20
11.0892
11
2.9278
21
11.0091
0
LINE
8
Black
10
2.9278
20
11.0091
11
2.96357
21
10.9108
0
LINE
8
Black
10
2.96357
20
10.9108
11
2.96357
21
10.8062
0
LINE
8
Black
10
2.96357
20
10.8062
11
2.9278
21
10.7079
0
LINE
8
Black
10
2.9278
20
10.7079
11
2.86057
21
10.6278
0
LINE
8
Black
10
2.86057
20
10.6278
11
2.77
21
10.5755
0
LINE
8
Black
10
2.77
20
10.5755
11
2.667
21
10.5574
0
LINE
8
Black
10
2.667
20
10.5574
11
2.564
21
10.5755
0
LINE
8
Black
10
2.564
20
10.5755
11
2.47343
21
10.6278
0
LINE
8
Black
10
2.47343
20
10.6278
11
2.4062
21
10.7079
0
LINE
8
Black
10
2.4062
20
10.7079
11
2.37043
21
10.8062
0
LINE
8
Black
10
2.37043
20
10.8062
11
2.37043
21
10.9108
0
LINE
8
Black
10
2.37043
20
10.9108
11
2.4062
21
11.0091
0
LINE
8
Black
10
2.4062
20
11.0091
11
2.47343
21
11.0892
0
LINE
8
Black
10
2.47343
20
11.0892
11
2.564
21
11.1415
0
LINE
8
Black
10
2.564
20
11.1415
11
2.567
21
11.142
0
LINE
8
Black
10
2.567
20
11.142
11
2.567
21
11.9412
0
LINE
8
Black
10
2.567
20
11.9412
11
2.56776
21
11.9455
0
LINE
8
Black
10
2.56776
20
11.9455
11
2.56738
21
11.9499
0
LINE
8
Black
10
2.56738
20
11.9499
11
2.57076
21
11.9625
0
LINE
8
Black
10
2.57076
20
11.9625
11
2.57303
21
11.9754
0
LINE
8
Black
10
2.57303
20
11.9754
11
2.57523
21
11.9792
0
LINE
8
Black
10
2.57523
20
11.9792
11
2.57637
21
11.9834
0
LINE
8
Black
10
2.57637
20
11.9834
11
2.58387
21
11.9941
0
LINE
8
Black
10
2.58387
20
11.9941
11
2.5904
21
12.0055
0
LINE
8
Black
10
2.5904
20
12.0055
11
2.59376
21
12.0083
0
LINE
8
Black
10
2.59376
20
12.0083
11
2.59629
21
12.0119
0
LINE
8
Black
10
2.59629
20
12.0119
11
4.21513
21
13.6307
0
LINE
8
Black
10
4.21513
20
13.6307
11
4.31671
21
13.7323
0
LINE
8
Black
10
4.31671
20
13.7323
11
4.28927
21
13.8077
0
LINE
8
Black
10
4.28927
20
13.8077
11
4.28927
21
13.9123
0
LINE
8
Black
10
4.28927
20
13.9123
11
4.32504
21
14.0106
0
LINE
8
Black
10
4.32504
20
14.0106
11
4.39227
21
14.0907
0
LINE
8
Black
10
4.39227
20
14.0907
11
4.48284
21
14.143
0
LINE
8
Black
10
4.48284
20
14.143
11
4.58584
21
14.1612
0
LINE
8
Black
10
4.58584
20
14.1612
11
4.68884
21
14.143
0
LINE
8
Black
10
8.45
20
10.7
11
7.65
21
10.7
0
LINE
8
Black
10
7.65
20
10.7
11
7.23343
21
10.7
0
LINE
8
Black
10
7.23343
20
10.7
11
7.2291
21
10.7008
0
LINE
8
Black
10
7.2291
20
10.7008
11
7.22472
21
10.7004
0
LINE
8
Black
10
7.22472
20
10.7004
11
7.2121
21
10.7038
0
LINE
8
Black
10
7.2121
20
10.7038
11
7.19923
21
10.706
0
LINE
8
Black
10
7.19923
20
10.706
11
7.19542
21
10.7082
0
LINE
8
Black
10
7.19542
20
10.7082
11
7.19117
21
10.7094
0
LINE
8
Black
10
7.19117
20
10.7094
11
7.18047
21
10.7169
0
LINE
8
Black
10
7.18047
20
10.7169
11
7.16915
21
10.7234
0
LINE
8
Black
10
7.16915
20
10.7234
11
7.16632
21
10.7268
0
LINE
8
Black
10
7.16632
20
10.7268
11
7.16272
21
10.7293
0
LINE
8
Black
10
7.16272
20
10.7293
11
6.40002
21
11.492
0
LINE
8
Black
10
6.40002
20
11.492
11
6.40001
21
11.492
0
LINE
8
Black
10
6.40001
20
11.492
11
6.29818
21
11.5938
0
LINE
8
Black
10
6.29818
20
11.5938
11
6.27373
21
11.5797
0
LINE
8
Black
10
6.27373
20
11.5797
11
6.17073
21
11.5616
0
LINE
8
Black
10
6.17073
20
11.5616
11
6.06773
21
11.5797
0
LINE
8
Black
10
6.06773
20
11.5797
11
5.97716
21
11.632
0
LINE
8
Black
10
5.97716
20
11.632
11
5.90993
21
11.7121
0
LINE
8
Black
10
5.90993
20
11.7121
11
5.87416
21
11.8104
0
LINE
8
Black
10
5.87416
20
11.8104
11
5.87416
21
11.915
0
LINE
8
Black
10
5.87416
20
11.915
11
5.90993
21
12.0133
0
LINE
8
Black
10
5.90993
20
12.0133
11
5.97716
21
12.0934
0
LINE
8
Black
10
5.97716
20
12.0934
11
6.06773
21
12.1457
0
LINE
8
Black
10
6.06773
20
12.1457
11
6.17073
21
12.1638
0
LINE
8
Black
10
6.17073
20
12.1638
11
6.27373
21
12.1457
0
LINE
8
Black
10
6.27373
20
12.1457
11
6.3643
21
12.0934
0
LINE
8
Black
10
6.3643
20
12.0934
11
6.43153
21
12.0133
0
LINE
8
Black
10
6.43153
20
12.0133
11
6.4673
21
11.915
0
LINE
8
Black
10
6.4673
20
11.915
11
6.4673
21
11.8104
0
LINE
8
Black
10
6.4673
20
11.8104
11
6.43985
21
11.735
0
LINE
8
Black
10
6.43985
20
11.735
11
6.54144
21
11.6334
0
LINE
8
Black
10
6.54144
20
11.6334
11
6.54144
21
11.6334
0
LINE
8
Black
10
6.54144
20
11.6334
11
7.27485
21
10.9
0
LINE
8
Black
10
7.27485
20
10.9
11
8.05
21
10.9
0
LINE
8
Black
10
8.05
20
10.9
11
8.45
21
10.9
0
LINE
8
Black
10
8.45
20
10.9
11
8.45
21
10.7
0
LINE
8
Black
10
18.45
20
10.7
11
17.65
21
10.7
0
LINE
8
Black
10
17.65
20
10.7
11
17.1
21
10.7
0
LINE
8
Black
10
17.1
20
10.7
11
17.0957
21
10.7008
0
LINE
8
Black
10
17.0957
20
10.7008
11
17.0913
21
10.7004
0
LINE
8
Black
10
17.0913
20
10.7004
11
17.0787
21
10.7038
0
LINE
8
Black
10
17.0787
20
10.7038
11
17.0658
21
10.706
0
LINE
8
Black
10
17.0658
20
10.706
11
17.062
21
10.7082
0
LINE
8
Black
10
17.062
20
10.7082
11
17.0577
21
10.7094
0
LINE
8
Black
10
17.0577
20
10.7094
11
17.047
21
10.7169
0
LINE
8
Black
10
17.047
20
10.7169
11
17.0357
21
10.7234
0
LINE
8
Black
10
17.0357
20
10.7234
11
17.0329
21
10.7268
0
LINE
8
Black
10
17.0329
20
10.7268
11
17.0293
21
10.7293
0
LINE
8
Black
10
17.0293
20
10.7293
11
16.4274
21
11.3311
0
LINE
8
Black
10
16.4274
20
11.3311
11
16.403
21
11.317
0
LINE
8
Black
10
16.403
20
11.317
11
16.3
21
11.2989
0
LINE
8
Black
10
16.3
20
11.2989
11
16.197
21
11.317
0
LINE
8
Black
10
16.197
20
11.317
11
16.1064
21
11.3693
0
LINE
8
Black
10
16.1064
20
11.3693
11
16.0392
21
11.4494
0
LINE
8
Black
10
16.0392
20
11.4494
11
16.0034
21
11.5477
0
LINE
8
Black
10
16.0034
20
11.5477
11
16.0034
21
11.6523
0
LINE
8
Black
10
16.0034
20
11.6523
11
16.0392
21
11.7506
0
LINE
8
Black
10
16.0392
20
11.7506
11
16.1064
21
11.8307
0
LINE
8
Black
10
16.1064
20
11.8307
11
16.197
21
11.883
0
LINE
8
Black
10
16.197
20
11.883
11
16.3
21
11.9011
0
LINE
8
Black
10
16.3
20
11.9011
11
16.403
21
11.883
0
LINE
8
Black
10
16.403
20
11.883
11
16.4936
21
11.8307
0
LINE
8
Black
10
16.4936
20
11.8307
11
16.5608
21
11.7506
0
LINE
8
Black
10
16.5608
20
11.7506
11
16.5966
21
11.6523
0
LINE
8
Black
10
16.5966
20
11.6523
11
16.5966
21
11.5477
0
LINE
8
Black
10
16.5966
20
11.5477
11
16.5691
21
11.4723
0
LINE
8
Black
10
16.5691
20
11.4723
11
17.1414
21
10.9
0
LINE
8
Black
10
17.1414
20
10.9
11
18.05
21
10.9
0
LINE
8
Black
10
18.05
20
10.9
11
18.45
21
10.9
0
LINE
8
Black
10
18.45
20
10.9
11
18.45
21
10.7
0
LINE
8
Black
10
17.3658
20
11.106
11
17.3357
21
11.1234
0
LINE
8
Black
10
17.3357
20
11.1234
11
17.3134
21
11.15
0
LINE
8
Black
10
17.3134
20
11.15
11
17.3015
21
11.1826
0
LINE
8
Black
10
17.3015
20
11.1826
11
17.3015
21
11.2174
0
LINE
8
Black
10
17.3015
20
11.2174
11
17.3134
21
11.25
0
LINE
8
Black
10
17.3134
20
11.25
11
17.3357
21
11.2766
0
LINE
8
Black
10
17.3357
20
11.2766
11
17.3658
21
11.294
0
LINE
8
Black
10
17.3658
20
11.294
11
17.4
21
11.3
0
LINE
8
Black
10
17.4
20
11.3
11
18.05
21
11.3
0
LINE
8
Black
10
18.05
20
11.3
11
18.45
21
11.3
0
LINE
8
Black
10
18.45
20
11.3
11
18.45
21
11.1
0
LINE
8
Black
10
18.45
20
11.1
11
18.05
21
11.1
0
LINE
8
Black
10
18.05
20
11.1
11
17.65
21
11.1
0
LINE
8
Black
10
17.65
20
11.1
11
17.4
21
11.1
0
LINE
8
Black
10
17.4
20
11.1
11
17.3658
21
11.106
0
LINE
8
Black
10
7.3658
20
11.106
11
7.33572
21
11.1234
0
LINE
8
Black
10
7.33572
20
11.1234
11
7.3134
21
11.15
0
LINE
8
Black
10
7.3134
20
11.15
11
7.30152
21
11.1826
0
LINE
8
Black
10
7.30152
20
11.1826
11
7.30152
21
11.2174
0
LINE
8
Black
10
7.30152
20
11.2174
11
7.3134
21
11.25
0
LINE
8
Black
10
7.3134
20
11.25
11
7.33572
21
11.2766
0
LINE
8
Black
10
7.33572
20
11.2766
11
7.3658
21
11.294
0
LINE
8
Black
10
7.3658
20
11.294
11
7.4
21
11.3
0
LINE
8
Black
10
7.4
20
11.3
11
8.05
21
11.3
0
LINE
8
Black
10
8.05
20
11.3
11
8.45
21
11.3
0
LINE
8
Black
10
8.45
20
11.3
11
8.45
21
11.1
0
LINE
8
Black
10
8.45
20
11.1
11
7.65
21
11.1
0
LINE
8
Black
10
7.65
20
11.1
11
7.4
21
11.1
0
LINE
8
Black
10
7.4
20
11.1
11
7.3658
21
11.106
0
LINE
8
Black
10
8.9
20
11.55
11
8.7
21
11.55
0
LINE
8
Black
10
8.7
20
11.55
11
8.7
21
12.35
0
LINE
8
Black
10
8.7
20
12.35
11
8.9
21
12.35
0
LINE
8
Black
10
8.9
20
12.35
11
8.9
21
11.55
0
LINE
8
Black
10
18.0368
20
13.504
11
18.1274
21
13.4518
0
LINE
8
Black
10
18.1274
20
13.4518
11
18.1946
21
13.3716
0
LINE
8
Black
10
18.1946
20
13.3716
11
18.2304
21
13.2734
0
LINE
8
Black
10
18.2304
20
13.2734
11
18.2304
21
13.1688
0
LINE
8
Black
10
18.2304
20
13.1688
11
18.1946
21
13.0705
0
LINE
8
Black
10
18.1946
20
13.0705
11
18.161
21
13.0304
0
LINE
8
Black
10
18.161
20
13.0304
11
18.8414
21
12.35
0
LINE
8
Black
10
18.8414
20
12.35
11
18.9
21
12.35
0
LINE
8
Black
10
18.9
20
12.35
11
18.9
21
11.55
0
LINE
8
Black
10
18.9
20
11.55
11
18.7
21
11.55
0
LINE
8
Black
10
18.7
20
11.55
11
18.7
21
12.2086
0
LINE
8
Black
10
18.7
20
12.2086
11
17.9804
21
12.9281
0
LINE
8
Black
10
17.9804
20
12.9281
11
17.9338
21
12.9199
0
LINE
8
Black
10
17.9338
20
12.9199
11
17.8308
21
12.9381
0
LINE
8
Black
10
17.8308
20
12.9381
11
17.7403
21
12.9904
0
LINE
8
Black
10
17.7403
20
12.9904
11
17.673
21
13.0705
0
LINE
8
Black
10
17.673
20
13.0705
11
17.6373
21
13.1688
0
LINE
8
Black
10
17.6373
20
13.1688
11
17.6373
21
13.2734
0
LINE
8
Black
10
17.6373
20
13.2734
11
17.673
21
13.3716
0
LINE
8
Black
10
17.673
20
13.3716
11
17.7403
21
13.4518
0
LINE
8
Black
10
17.7403
20
13.4518
11
17.8308
21
13.504
0
LINE
8
Black
10
17.8308
20
13.504
11
17.9338
21
13.5222
0
LINE
8
Black
10
17.9338
20
13.5222
11
18.0368
21
13.504
0
LINE
8
Black
10
17.893
20
14.6395
11
17.9835
21
14.5872
0
LINE
8
Black
10
17.9835
20
14.5872
11
18.0508
21
14.5071
0
LINE
8
Black
10
18.0508
20
14.5071
11
18.0865
21
14.4088
0
LINE
8
Black
10
18.0865
20
14.4088
11
18.0865
21
14.3043
0
LINE
8
Black
10
18.0865
20
14.3043
11
18.0591
21
14.2288
0
LINE
8
Black
10
18.0591
20
14.2288
11
18.1607
21
14.1273
0
LINE
8
Black
10
18.1607
20
14.1273
11
18.1607
21
14.1273
0
LINE
8
Black
10
18.1607
20
14.1273
11
19.2707
21
13.0172
0
LINE
8
Black
10
19.2707
20
13.0172
11
19.2732
21
13.0136
0
LINE
8
Black
10
19.2732
20
13.0136
11
19.2766
21
13.0108
0
LINE
8
Black
10
19.2766
20
13.0108
11
19.2831
21
12.9995
0
LINE
8
Black
10
19.2831
20
12.9995
11
19.2906
21
12.9888
0
LINE
8
Black
10
19.2906
20
12.9888
11
19.2918
21
12.9845
0
LINE
8
Black
10
19.2918
20
12.9845
11
19.294
21
12.9807
0
LINE
8
Black
10
19.294
20
12.9807
11
19.2962
21
12.9678
0
LINE
8
Black
10
19.2962
20
12.9678
11
19.2996
21
12.9552
0
LINE
8
Black
10
19.2996
20
12.9552
11
19.2992
21
12.9508
0
LINE
8
Black
10
19.2992
20
12.9508
11
19.3
21
12.9465
0
LINE
8
Black
10
19.3
20
12.9465
11
19.3
21
12.35
0
LINE
8
Black
10
19.3
20
12.35
11
19.3
21
11.55
0
LINE
8
Black
10
19.3
20
11.55
11
19.1
21
11.55
0
LINE
8
Black
10
19.1
20
11.55
11
19.1
21
12.35
0
LINE
8
Black
10
19.1
20
12.35
11
19.1
21
12.9051
0
LINE
8
Black
10
19.1
20
12.9051
11
18.0193
21
13.9858
0
LINE
8
Black
10
18.0193
20
13.9858
11
18.0193
21
13.9858
0
LINE
8
Black
10
18.0193
20
13.9858
11
17.9174
21
14.0877
0
LINE
8
Black
10
17.9174
20
14.0877
11
17.893
21
14.0736
0
LINE
8
Black
10
17.893
20
14.0736
11
17.79
21
14.0554
0
LINE
8
Black
10
17.79
20
14.0554
11
17.687
21
14.0736
0
LINE
8
Black
10
17.687
20
14.0736
11
17.5964
21
14.1259
0
LINE
8
Black
10
17.5964
20
14.1259
11
17.5292
21
14.206
0
LINE
8
Black
10
17.5292
20
14.206
11
17.4934
21
14.3043
0
LINE
8
Black
10
17.4934
20
14.3043
11
17.4934
21
14.4088
0
LINE
8
Black
10
17.4934
20
14.4088
11
17.5292
21
14.5071
0
LINE
8
Black
10
17.5292
20
14.5071
11
17.5964
21
14.5872
0
LINE
8
Black
10
17.5964
20
14.5872
11
17.687
21
14.6395
0
LINE
8
Black
10
17.687
20
14.6395
11
17.79
21
14.6577
0
LINE
8
Black
10
17.79
20
14.6577
11
17.893
21
14.6395
0
LINE
8
Black
10
19.65
20
12.6866
11
19.6766
21
12.6643
0
LINE
8
Black
10
19.6766
20
12.6643
11
19.694
21
12.6342
0
LINE
8
Black
10
19.694
20
12.6342
11
19.7
21
12.6
0
LINE
8
Black
10
19.7
20
12.6
11
19.7
21
12.35
0
LINE
8
Black
10
19.7
20
12.35
11
19.7
21
11.55
0
LINE
8
Black
10
19.7
20
11.55
11
19.5
21
11.55
0
LINE
8
Black
10
19.5
20
11.55
11
19.5
21
12.35
0
LINE
8
Black
10
19.5
20
12.35
11
19.5
21
12.6
0
LINE
8
Black
10
19.5
20
12.6
11
19.506
21
12.6342
0
LINE
8
Black
10
19.506
20
12.6342
11
19.5234
21
12.6643
0
LINE
8
Black
10
19.5234
20
12.6643
11
19.55
21
12.6866
0
LINE
8
Black
10
19.55
20
12.6866
11
19.5826
21
12.6985
0
LINE
8
Black
10
19.5826
20
12.6985
11
19.6174
21
12.6985
0
LINE
8
Black
10
19.6174
20
12.6985
11
19.65
21
12.6866
0
LINE
8
Black
10
19.903
20
14.583
11
19.9936
21
14.5307
0
LINE
8
Black
10
19.9936
20
14.5307
11
20.0608
21
14.4506
0
LINE
8
Black
10
20.0608
20
14.4506
11
20.0966
21
14.3523
0
LINE
8
Black
10
20.0966
20
14.3523
11
20.0966
21
14.2477
0
LINE
8
Black
10
20.0966
20
14.2477
11
20.0691
21
14.1723
0
LINE
8
Black
10
20.0691
20
14.1723
11
20.0707
21
14.1707
0
LINE
8
Black
10
20.0707
20
14.1707
11
20.0732
21
14.1671
0
LINE
8
Black
10
20.0732
20
14.1671
11
20.0766
21
14.1643
0
LINE
8
Black
10
20.0766
20
14.1643
11
20.0831
21
14.153
0
LINE
8
Black
10
20.0831
20
14.153
11
20.0906
21
14.1423
0
LINE
8
Black
10
20.0906
20
14.1423
11
20.0918
21
14.138
0
LINE
8
Black
10
20.0918
20
14.138
11
20.094
21
14.1342
0
LINE
8
Black
10
20.094
20
14.1342
11
20.0962
21
14.1213
0
LINE
8
Black
10
20.0962
20
14.1213
11
20.0996
21
14.1087
0
LINE
8
Black
10
20.0996
20
14.1087
11
20.0992
21
14.1043
0
LINE
8
Black
10
20.0992
20
14.1043
11
20.1
21
14.1
0
LINE
8
Black
10
20.1
20
14.1
11
20.1
21
12.35
0
LINE
8
Black
10
20.1
20
12.35
11
20.1
21
11.55
0
LINE
8
Black
10
20.1
20
11.55
11
19.9
21
11.55
0
LINE
8
Black
10
19.9
20
11.55
11
19.9
21
12.35
0
LINE
8
Black
10
19.9
20
12.35
11
19.9
21
14.0165
0
LINE
8
Black
10
19.9
20
14.0165
11
19.8
21
13.9989
0
LINE
8
Black
10
19.8
20
13.9989
11
19.697
21
14.017
0
LINE
8
Black
10
19.697
20
14.017
11
19.6064
21
14.0693
0
LINE
8
Black
10
19.6064
20
14.0693
11
19.5392
21
14.1494
0
LINE
8
Black
10
19.5392
20
14.1494
11
19.5034
21
14.2477
0
LINE
8
Black
10
19.5034
20
14.2477
11
19.5034
21
14.3523
0
LINE
8
Black
10
19.5034
20
14.3523
11
19.5392
21
14.4506
0
LINE
8
Black
10
19.5392
20
14.4506
11
19.6064
21
14.5307
0
LINE
8
Black
10
19.6064
20
14.5307
11
19.697
21
14.583
0
LINE
8
Black
10
19.697
20
14.583
11
19.8
21
14.6011
0
LINE
8
Black
10
19.8
20
14.6011
11
19.903
21
14.583
0
LINE
8
Black
10
20.503
20
15.483
11
20.5936
21
15.4307
0
LINE
8
Black
10
20.5936
20
15.4307
11
20.6608
21
15.3506
0
LINE
8
Black
10
20.6608
20
15.3506
11
20.6966
21
15.2523
0
LINE
8
Black
10
20.6966
20
15.2523
11
20.6966
21
15.1477
0
LINE
8
Black
10
20.6966
20
15.1477
11
20.6608
21
15.0494
0
LINE
8
Black
10
20.6608
20
15.0494
11
20.5936
21
14.9693
0
LINE
8
Black
10
20.5936
20
14.9693
11
20.503
21
14.917
0
LINE
8
Black
10
20.503
20
14.917
11
20.5
21
14.9165
0
LINE
8
Black
10
20.5
20
14.9165
11
20.5
21
12.35
0
LINE
8
Black
10
20.5
20
12.35
11
20.5
21
11.55
0
LINE
8
Black
10
20.5
20
11.55
11
20.3
21
11.55
0
LINE
8
Black
10
20.3
20
11.55
11
20.3
21
12.35
0
LINE
8
Black
10
20.3
20
12.35
11
20.3
21
14.9165
0
LINE
8
Black
10
20.3
20
14.9165
11
20.297
21
14.917
0
LINE
8
Black
10
20.297
20
14.917
11
20.2064
21
14.9693
0
LINE
8
Black
10
20.2064
20
14.9693
11
20.1392
21
15.0494
0
LINE
8
Black
10
20.1392
20
15.0494
11
20.1034
21
15.1477
0
LINE
8
Black
10
20.1034
20
15.1477
11
20.1034
21
15.2523
0
LINE
8
Black
10
20.1034
20
15.2523
11
20.1392
21
15.3506
0
LINE
8
Black
10
20.1392
20
15.3506
11
20.2064
21
15.4307
0
LINE
8
Black
10
20.2064
20
15.4307
11
20.297
21
15.483
0
LINE
8
Black
10
20.297
20
15.483
11
20.4
21
15.5011
0
LINE
8
Black
10
20.4
20
15.5011
11
20.503
21
15.483
0
LINE
8
Black
10
21.339
20
15.8198
11
21.4295
21
15.7675
0
LINE
8
Black
10
21.4295
20
15.7675
11
21.4968
21
15.6874
0
LINE
8
Black
10
21.4968
20
15.6874
11
21.5325
21
15.5891
0
LINE
8
Black
10
21.5325
20
15.5891
11
21.5325
21
15.4845
0
LINE
8
Black
10
21.5325
20
15.4845
11
21.4968
21
15.3862
0
LINE
8
Black
10
21.4968
20
15.3862
11
21.4295
21
15.3061
0
LINE
8
Black
10
21.4295
20
15.3061
11
21.339
21
15.2538
0
LINE
8
Black
10
21.339
20
15.2538
11
21.336
21
15.2533
0
LINE
8
Black
10
21.336
20
15.2533
11
21.336
21
15.2193
0
LINE
8
Black
10
21.336
20
15.2193
11
21.3352
21
15.215
0
LINE
8
Black
10
21.3352
20
15.215
11
21.3356
21
15.2106
0
LINE
8
Black
10
21.3356
20
15.2106
11
21.3322
21
15.198
0
LINE
8
Black
10
21.3322
20
15.198
11
21.3299
21
15.1851
0
LINE
8
Black
10
21.3299
20
15.1851
11
21.3277
21
15.1813
0
LINE
8
Black
10
21.3277
20
15.1813
11
21.3266
21
15.177
0
LINE
8
Black
10
21.3266
20
15.177
11
21.3191
21
15.1663
0
LINE
8
Black
10
21.3191
20
15.1663
11
21.3126
21
15.155
0
LINE
8
Black
10
21.3126
20
15.155
11
21.3092
21
15.1522
0
LINE
8
Black
10
21.3092
20
15.1522
11
21.3067
21
15.1486
0
LINE
8
Black
10
21.3067
20
15.1486
11
20.9
21
14.7419
0
LINE
8
Black
10
20.9
20
14.7419
11
20.9
21
12.35
0
LINE
8
Black
10
20.9
20
12.35
11
20.9
21
11.55
0
LINE
8
Black
10
20.9
20
11.55
11
20.7
21
11.55
0
LINE
8
Black
10
20.7
20
11.55
11
20.7
21
12.35
0
LINE
8
Black
10
20.7
20
12.35
11
20.7
21
14.7833
0
LINE
8
Black
10
20.7
20
14.7833
11
20.7008
21
14.7877
0
LINE
8
Black
10
20.7008
20
14.7877
11
20.7004
21
14.792
0
LINE
8
Black
10
20.7004
20
14.792
11
20.7038
21
14.8047
0
LINE
8
Black
10
20.7038
20
14.8047
11
20.706
21
14.8175
0
LINE
8
Black
10
20.706
20
14.8175
11
20.7082
21
14.8213
0
LINE
8
Black
10
20.7082
20
14.8213
11
20.7094
21
14.8256
0
LINE
8
Black
10
20.7094
20
14.8256
11
20.7169
21
14.8363
0
LINE
8
Black
10
20.7169
20
14.8363
11
20.7234
21
14.8476
0
LINE
8
Black
10
20.7234
20
14.8476
11
20.7268
21
14.8504
0
LINE
8
Black
10
20.7268
20
14.8504
11
20.7293
21
14.854
0
LINE
8
Black
10
20.7293
20
14.854
11
21.1305
21
15.2552
0
LINE
8
Black
10
21.1305
20
15.2552
11
21.0424
21
15.3061
0
LINE
8
Black
10
21.0424
20
15.3061
11
20.9752
21
15.3862
0
LINE
8
Black
10
20.9752
20
15.3862
11
20.9394
21
15.4845
0
LINE
8
Black
10
20.9394
20
15.4845
11
20.9394
21
15.5891
0
LINE
8
Black
10
20.9394
20
15.5891
11
20.9752
21
15.6874
0
LINE
8
Black
10
20.9752
20
15.6874
11
21.0424
21
15.7675
0
LINE
8
Black
10
21.0424
20
15.7675
11
21.133
21
15.8198
0
LINE
8
Black
10
21.133
20
15.8198
11
21.236
21
15.8379
0
LINE
8
Black
10
21.236
20
15.8379
11
21.339
21
15.8198
0
LINE
8
Black
10
21.25
20
12.6866
11
21.2766
21
12.6643
0
LINE
8
Black
10
21.2766
20
12.6643
11
21.294
21
12.6342
0
LINE
8
Black
10
21.294
20
12.6342
11
21.3
21
12.6
0
LINE
8
Black
10
21.3
20
12.6
11
21.3
21
12.35
0
LINE
8
Black
10
21.3
20
12.35
11
21.3
21
11.55
0
LINE
8
Black
10
21.3
20
11.55
11
21.1
21
11.55
0
LINE
8
Black
10
21.1
20
11.55
11
21.1
21
12.35
0
LINE
8
Black
10
21.1
20
12.35
11
21.1
21
12.6
0
LINE
8
Black
10
21.1
20
12.6
11
21.106
21
12.6342
0
LINE
8
Black
10
21.106
20
12.6342
11
21.1234
21
12.6643
0
LINE
8
Black
10
21.1234
20
12.6643
11
21.15
21
12.6866
0
LINE
8
Black
10
21.15
20
12.6866
11
21.1826
21
12.6985
0
LINE
8
Black
10
21.1826
20
12.6985
11
21.2174
21
12.6985
0
LINE
8
Black
10
21.2174
20
12.6985
11
21.25
21
12.6866
0
LINE
8
Black
10
8.103
20
14.783
11
8.19357
21
14.7307
0
LINE
8
Black
10
8.19357
20
14.7307
11
8.2608
21
14.6506
0
LINE
8
Black
10
8.2608
20
14.6506
11
8.29657
21
14.5523
0
LINE
8
Black
10
8.29657
20
14.5523
11
8.29657
21
14.4477
0
LINE
8
Black
10
8.29657
20
14.4477
11
8.26912
21
14.3723
0
LINE
8
Black
10
8.26912
20
14.3723
11
9.27071
21
13.3707
0
LINE
8
Black
10
9.27071
20
13.3707
11
9.27323
21
13.3671
0
LINE
8
Black
10
9.27323
20
13.3671
11
9.2766
21
13.3643
0
LINE
8
Black
10
9.2766
20
13.3643
11
9.28314
21
13.353
0
LINE
8
Black
10
9.28314
20
13.353
11
9.29063
21
13.3423
0
LINE
8
Black
10
9.29063
20
13.3423
11
9.29177
21
13.338
0
LINE
8
Black
10
9.29177
20
13.338
11
9.29397
21
13.3342
0
LINE
8
Black
10
9.29397
20
13.3342
11
9.29624
21
13.3213
0
LINE
8
Black
10
9.29624
20
13.3213
11
9.29962
21
13.3087
0
LINE
8
Black
10
9.29962
20
13.3087
11
9.29924
21
13.3043
0
LINE
8
Black
10
9.29924
20
13.3043
11
9.3
21
13.3
0
LINE
8
Black
10
9.3
20
13.3
11
9.3
21
12.35
0
LINE
8
Black
10
9.3
20
12.35
11
9.3
21
11.55
0
LINE
8
Black
10
9.3
20
11.55
11
9.1
21
11.55
0
LINE
8
Black
10
9.1
20
11.55
11
9.1
21
12.35
0
LINE
8
Black
10
9.1
20
12.35
11
9.1
21
13.2586
0
LINE
8
Black
10
9.1
20
13.2586
11
8.12745
21
14.2311
0
LINE
8
Black
10
8.12745
20
14.2311
11
8.103
21
14.217
0
LINE
8
Black
10
8.103
20
14.217
11
8
21
14.1989
0
LINE
8
Black
10
8
20
14.1989
11
7.897
21
14.217
0
LINE
8
Black
10
7.897
20
14.217
11
7.80643
21
14.2693
0
LINE
8
Black
10
7.80643
20
14.2693
11
7.7392
21
14.3494
0
LINE
8
Black
10
7.7392
20
14.3494
11
7.70343
21
14.4477
0
LINE
8
Black
10
7.70343
20
14.4477
11
7.70343
21
14.5523
0
LINE
8
Black
10
7.70343
20
14.5523
11
7.7392
21
14.6506
0
LINE
8
Black
10
7.7392
20
14.6506
11
7.80643
21
14.7307
0
LINE
8
Black
10
7.80643
20
14.7307
11
7.897
21
14.783
0
LINE
8
Black
10
7.897
20
14.783
11
8
21
14.8011
0
LINE
8
Black
10
8
20
14.8011
11
8.103
21
14.783
0
LINE
8
Black
10
9.65
20
14.1866
11
9.6766
21
14.1643
0
LINE
8
Black
10
9.6766
20
14.1643
11
9.69397
21
14.1342
0
LINE
8
Black
10
9.69397
20
14.1342
11
9.7
21
14.1
0
LINE
8
Black
10
9.7
20
14.1
11
9.7
21
12.35
0
LINE
8
Black
10
9.7
20
12.35
11
9.7
21
11.55
0
LINE
8
Black
10
9.7
20
11.55
11
9.5
21
11.55
0
LINE
8
Black
10
9.5
20
11.55
11
9.5
21
12.35
0
LINE
8
Black
10
9.5
20
12.35
11
9.5
21
14.1
0
LINE
8
Black
10
9.5
20
14.1
11
9.50603
21
14.1342
0
LINE
8
Black
10
9.50603
20
14.1342
11
9.5234
21
14.1643
0
LINE
8
Black
10
9.5234
20
14.1643
11
9.55
21
14.1866
0
LINE
8
Black
10
9.55
20
14.1866
11
9.58263
21
14.1985
0
LINE
8
Black
10
9.58263
20
14.1985
11
9.61736
21
14.1985
0
LINE
8
Black
10
9.61736
20
14.1985
11
9.65
21
14.1866
0
LINE
8
Black
10
10.103
20
15.483
11
10.1936
21
15.4307
0
LINE
8
Black
10
10.1936
20
15.4307
11
10.2608
21
15.3506
0
LINE
8
Black
10
10.2608
20
15.3506
11
10.2966
21
15.2523
0
LINE
8
Black
10
10.2966
20
15.2523
11
10.2966
21
15.1477
0
LINE
8
Black
10
10.2966
20
15.1477
11
10.2608
21
15.0494
0
LINE
8
Black
10
10.2608
20
15.0494
11
10.1936
21
14.9693
0
LINE
8
Black
10
10.1936
20
14.9693
11
10.103
21
14.917
0
LINE
8
Black
10
10.103
20
14.917
11
10.1
21
14.9165
0
LINE
8
Black
10
10.1
20
14.9165
11
10.1
21
12.35
0
LINE
8
Black
10
10.1
20
12.35
11
10.1
21
11.55
0
LINE
8
Black
10
10.1
20
11.55
11
9.9
21
11.55
0
LINE
8
Black
10
9.9
20
11.55
11
9.9
21
12.35
0
LINE
8
Black
10
9.9
20
12.35
11
9.9
21
14.9165
0
LINE
8
Black
10
9.9
20
14.9165
11
9.897
21
14.917
0
LINE
8
Black
10
9.897
20
14.917
11
9.80643
21
14.9693
0
LINE
8
Black
10
9.80643
20
14.9693
11
9.7392
21
15.0494
0
LINE
8
Black
10
9.7392
20
15.0494
11
9.70343
21
15.1477
0
LINE
8
Black
10
9.70343
20
15.1477
11
9.70343
21
15.2523
0
LINE
8
Black
10
9.70343
20
15.2523
11
9.7392
21
15.3506
0
LINE
8
Black
10
9.7392
20
15.3506
11
9.80643
21
15.4307
0
LINE
8
Black
10
9.80643
20
15.4307
11
9.897
21
15.483
0
LINE
8
Black
10
9.897
20
15.483
11
10
21
15.5011
0
LINE
8
Black
10
10
20
15.5011
11
10.103
21
15.483
0
LINE
8
Black
10
9.003
20
19.083
11
9.09357
21
19.0307
0
LINE
8
Black
10
9.09357
20
19.0307
11
9.1608
21
18.9506
0
LINE
8
Black
10
9.1608
20
18.9506
11
9.19657
21
18.8523
0
LINE
8
Black
10
9.19657
20
18.8523
11
9.19657
21
18.7477
0
LINE
8
Black
10
9.19657
20
18.7477
11
9.16912
21
18.6723
0
LINE
8
Black
10
9.16912
20
18.6723
11
10.6307
21
17.2107
0
LINE
8
Black
10
10.6307
20
17.2107
11
10.6332
21
17.2071
0
LINE
8
Black
10
10.6332
20
17.2071
11
10.6366
21
17.2043
0
LINE
8
Black
10
10.6366
20
17.2043
11
10.6431
21
17.193
0
LINE
8
Black
10
10.6431
20
17.193
11
10.6506
21
17.1823
0
LINE
8
Black
10
10.6506
20
17.1823
11
10.6518
21
17.178
0
LINE
8
Black
10
10.6518
20
17.178
11
10.654
21
17.1742
0
LINE
8
Black
10
10.654
20
17.1742
11
10.6562
21
17.1613
0
LINE
8
Black
10
10.6562
20
17.1613
11
10.6596
21
17.1487
0
LINE
8
Black
10
10.6596
20
17.1487
11
10.6592
21
17.1443
0
LINE
8
Black
10
10.6592
20
17.1443
11
10.66
21
17.14
0
LINE
8
Black
10
10.66
20
17.14
11
10.66
21
14.3253
0
LINE
8
Black
10
10.66
20
14.3253
11
10.66
21
14.1845
0
LINE
8
Black
10
10.66
20
14.1845
11
10.663
21
14.184
0
LINE
8
Black
10
10.663
20
14.184
11
10.7536
21
14.1317
0
LINE
8
Black
10
10.7536
20
14.1317
11
10.8208
21
14.0516
0
LINE
8
Black
10
10.8208
20
14.0516
11
10.8566
21
13.9533
0
LINE
8
Black
10
10.8566
20
13.9533
11
10.8566
21
13.8487
0
LINE
8
Black
10
10.8566
20
13.8487
11
10.8208
21
13.7504
0
LINE
8
Black
10
10.8208
20
13.7504
11
10.7536
21
13.6703
0
LINE
8
Black
10
10.7536
20
13.6703
11
10.663
21
13.618
0
LINE
8
Black
10
10.663
20
13.618
11
10.56
21
13.5999
0
LINE
8
Black
10
10.56
20
13.5999
11
10.5
21
13.6105
0
LINE
8
Black
10
10.5
20
13.6105
11
10.5
21
12.35
0
LINE
8
Black
10
10.5
20
12.35
11
10.5
21
11.55
0
LINE
8
Black
10
10.5
20
11.55
11
10.3
21
11.55
0
LINE
8
Black
10
10.3
20
11.55
11
10.3
21
12.35
0
LINE
8
Black
10
10.3
20
12.35
11
10.3
21
13.741
0
LINE
8
Black
10
10.3
20
13.741
11
10.3008
21
13.7453
0
LINE
8
Black
10
10.3008
20
13.7453
11
10.3004
21
13.749
0
LINE
8
Black
10
10.3004
20
13.749
11
10.2992
21
13.7504
0
LINE
8
Black
10
10.2992
20
13.7504
11
10.2634
21
13.8487
0
LINE
8
Black
10
10.2634
20
13.8487
11
10.2634
21
13.9533
0
LINE
8
Black
10
10.2634
20
13.9533
11
10.2992
21
14.0516
0
LINE
8
Black
10
10.2992
20
14.0516
11
10.3664
21
14.1317
0
LINE
8
Black
10
10.3664
20
14.1317
11
10.457
21
14.184
0
LINE
8
Black
10
10.457
20
14.184
11
10.46
21
14.1845
0
LINE
8
Black
10
10.46
20
14.1845
11
10.46
21
14.3253
0
LINE
8
Black
10
10.46
20
14.3253
11
10.46
21
17.0986
0
LINE
8
Black
10
10.46
20
17.0986
11
9.02745
21
18.5311
0
LINE
8
Black
10
9.02745
20
18.5311
11
9.003
21
18.517
0
LINE
8
Black
10
9.003
20
18.517
11
8.9
21
18.4989
0
LINE
8
Black
10
8.9
20
18.4989
11
8.797
21
18.517
0
LINE
8
Black
10
8.797
20
18.517
11
8.70643
21
18.5693
0
LINE
8
Black
10
8.70643
20
18.5693
11
8.6392
21
18.6494
0
LINE
8
Black
10
8.6392
20
18.6494
11
8.60343
21
18.7477
0
LINE
8
Black
10
8.60343
20
18.7477
11
8.60343
21
18.8523
0
LINE
8
Black
10
8.60343
20
18.8523
11
8.6392
21
18.9506
0
LINE
8
Black
10
8.6392
20
18.9506
11
8.70643
21
19.0307
0
LINE
8
Black
10
8.70643
20
19.0307
11
8.797
21
19.083
0
LINE
8
Black
10
8.797
20
19.083
11
8.9
21
19.1011
0
LINE
8
Black
10
8.9
20
19.1011
11
9.003
21
19.083
0
LINE
8
Black
10
11.503
20
13.583
11
11.5936
21
13.5307
0
LINE
8
Black
10
11.5936
20
13.5307
11
11.6608
21
13.4506
0
LINE
8
Black
10
11.6608
20
13.4506
11
11.6966
21
13.3523
0
LINE
8
Black
10
11.6966
20
13.3523
11
11.6966
21
13.2477
0
LINE
8
Black
10
11.6966
20
13.2477
11
11.6608
21
13.1494
0
LINE
8
Black
10
11.6608
20
13.1494
11
11.5936
21
13.0693
0
LINE
8
Black
10
11.5936
20
13.0693
11
11.503
21
13.017
0
LINE
8
Black
10
11.503
20
13.017
11
11.4
21
12.9989
0
LINE
8
Black
10
11.4
20
12.9989
11
11.297
21
13.017
0
LINE
8
Black
10
11.297
20
13.017
11
11.2726
21
13.0311
0
LINE
8
Black
10
11.2726
20
13.0311
11
10.9
21
12.6586
0
LINE
8
Black
10
10.9
20
12.6586
11
10.9
21
12.35
0
LINE
8
Black
10
10.9
20
12.35
11
10.9
21
11.55
0
LINE
8
Black
10
10.9
20
11.55
11
10.7
21
11.55
0
LINE
8
Black
10
10.7
20
11.55
11
10.7
21
12.35
0
LINE
8
Black
10
10.7
20
12.35
11
10.7
21
12.7
0
LINE
8
Black
10
10.7
20
12.7
11
10.7008
21
12.7043
0
LINE
8
Black
10
10.7008
20
12.7043
11
10.7004
21
12.7087
0
LINE
8
Black
10
10.7004
20
12.7087
11
10.7038
21
12.7213
0
LINE
8
Black
10
10.7038
20
12.7213
11
10.706
21
12.7342
0
LINE
8
Black
10
10.706
20
12.7342
11
10.7082
21
12.738
0
LINE
8
Black
10
10.7082
20
12.738
11
10.7094
21
12.7423
0
LINE
8
Black
10
10.7094
20
12.7423
11
10.7169
21
12.753
0
LINE
8
Black
10
10.7169
20
12.753
11
10.7234
21
12.7643
0
LINE
8
Black
10
10.7234
20
12.7643
11
10.7268
21
12.7671
0
LINE
8
Black
10
10.7268
20
12.7671
11
10.7293
21
12.7707
0
LINE
8
Black
10
10.7293
20
12.7707
11
11.1309
21
13.1723
0
LINE
8
Black
10
11.1309
20
13.1723
11
11.1034
21
13.2477
0
LINE
8
Black
10
11.1034
20
13.2477
11
11.1034
21
13.3523
0
LINE
8
Black
10
11.1034
20
13.3523
11
11.1392
21
13.4506
0
LINE
8
Black
10
11.1392
20
13.4506
11
11.2064
21
13.5307
0
LINE
8
Black
10
11.2064
20
13.5307
11
11.297
21
13.583
0
LINE
8
Black
10
11.297
20
13.583
11
11.4
21
13.6011
0
LINE
8
Black
10
11.4
20
13.6011
11
11.503
21
13.583
0
LINE
8
Black
10
11.25
20
12.6366
11
11.2766
21
12.6143
0
LINE
8
Black
10
11.2766
20
12.6143
11
11.294
21
12.5842
0
LINE
8
Black
10
11.294
20
12.5842
11
11.3
21
12.55
0
LINE
8
Black
10
11.3
20
12.55
11
11.3
21
12.35
0
LINE
8
Black
10
11.3
20
12.35
11
11.3
21
11.55
0
LINE
8
Black
10
11.3
20
11.55
11
11.1
21
11.55
0
LINE
8
Black
10
11.1
20
11.55
11
11.1
21
12.35
0
LINE
8
Black
10
11.1
20
12.35
11
11.1
21
12.55
0
LINE
8
Black
10
11.1
20
12.55
11
11.106
21
12.5842
0
LINE
8
Black
10
11.106
20
12.5842
11
11.1234
21
12.6143
0
LINE
8
Black
10
11.1234
20
12.6143
11
11.15
21
12.6366
0
LINE
8
Black
10
11.15
20
12.6366
11
11.1826
21
12.6485
0
LINE
8
Black
10
11.1826
20
12.6485
11
11.2174
21
12.6485
0
LINE
8
Black
10
11.2174
20
12.6485
11
11.25
21
12.6366
0
LINE
8
Black
10
6.975
20
16.5053
11
7.06557
21
16.453
0
LINE
8
Black
10
7.06557
20
16.453
11
7.1328
21
16.3729
0
LINE
8
Black
10
7.1328
20
16.3729
11
7.16857
21
16.2746
0
LINE
8
Black
10
7.16857
20
16.2746
11
7.16857
21
16.17
0
LINE
8
Black
10
7.16857
20
16.17
11
7.1328
21
16.0718
0
LINE
8
Black
10
7.1328
20
16.0718
11
7.06557
21
15.9916
0
LINE
8
Black
10
7.06557
20
15.9916
11
6.975
21
15.9393
0
LINE
8
Black
10
6.975
20
15.9393
11
6.9
21
15.9261
0
LINE
8
Black
10
6.9
20
15.9261
11
6.9
21
12.8835
0
LINE
8
Black
10
6.9
20
12.8835
11
6.903
21
12.883
0
LINE
8
Black
10
6.903
20
12.883
11
6.99357
21
12.8307
0
LINE
8
Black
10
6.99357
20
12.8307
11
7.0608
21
12.7506
0
LINE
8
Black
10
7.0608
20
12.7506
11
7.09657
21
12.6523
0
LINE
8
Black
10
7.09657
20
12.6523
11
7.09657
21
12.5477
0
LINE
8
Black
10
7.09657
20
12.5477
11
7.0608
21
12.4494
0
LINE
8
Black
10
7.0608
20
12.4494
11
6.99357
21
12.3693
0
LINE
8
Black
10
6.99357
20
12.3693
11
6.903
21
12.317
0
LINE
8
Black
10
6.903
20
12.317
11
6.8
21
12.2989
0
LINE
8
Black
10
6.8
20
12.2989
11
6.697
21
12.317
0
LINE
8
Black
10
6.697
20
12.317
11
6.60643
21
12.3693
0
LINE
8
Black
10
6.60643
20
12.3693
11
6.5392
21
12.4494
0
LINE
8
Black
10
6.5392
20
12.4494
11
6.50343
21
12.5477
0
LINE
8
Black
10
6.50343
20
12.5477
11
6.50343
21
12.6523
0
LINE
8
Black
10
6.50343
20
12.6523
11
6.5392
21
12.7506
0
LINE
8
Black
10
6.5392
20
12.7506
11
6.60643
21
12.8307
0
LINE
8
Black
10
6.60643
20
12.8307
11
6.697
21
12.883
0
LINE
8
Black
10
6.697
20
12.883
11
6.7
21
12.8835
0
LINE
8
Black
10
6.7
20
12.8835
11
6.7
21
15.9792
0
LINE
8
Black
10
6.7
20
15.9792
11
6.67842
21
15.9916
0
LINE
8
Black
10
6.67842
20
15.9916
11
6.6112
21
16.0718
0
LINE
8
Black
10
6.6112
20
16.0718
11
6.57543
21
16.17
0
LINE
8
Black
10
6.57543
20
16.17
11
6.57543
21
16.2746
0
LINE
8
Black
10
6.57543
20
16.2746
11
6.6112
21
16.3729
0
LINE
8
Black
10
6.6112
20
16.3729
11
6.67842
21
16.453
0
LINE
8
Black
10
6.67842
20
16.453
11
6.769
21
16.5053
0
LINE
8
Black
10
6.769
20
16.5053
11
6.872
21
16.5235
0
LINE
8
Black
10
6.872
20
16.5235
11
6.975
21
16.5053
0
LINE
8
Black
10
2.62754
20
14.7123
11
2.94196
21
14.5308
0
LINE
8
Black
10
2.94196
20
14.5308
11
3.17532
21
14.2527
0
LINE
8
Black
10
3.17532
20
14.2527
11
3.2995
21
13.9115
0
LINE
8
Black
10
3.2995
20
13.9115
11
3.2995
21
13.5485
0
LINE
8
Black
10
3.2995
20
13.5485
11
3.17532
21
13.2073
0
LINE
8
Black
10
3.17532
20
13.2073
11
2.94196
21
12.9292
0
LINE
8
Black
10
2.94196
20
12.9292
11
2.62754
21
12.7477
0
LINE
8
Black
10
2.62754
20
12.7477
11
2.27
21
12.6846
0
LINE
8
Black
10
2.27
20
12.6846
11
1.91246
21
12.7477
0
LINE
8
Black
10
1.91246
20
12.7477
11
1.59804
21
12.9292
0
LINE
8
Black
10
1.59804
20
12.9292
11
1.36468
21
13.2073
0
LINE
8
Black
10
1.36468
20
13.2073
11
1.2405
21
13.5485
0
LINE
8
Black
10
1.2405
20
13.5485
11
1.2405
21
13.9115
0
LINE
8
Black
10
1.2405
20
13.9115
11
1.36468
21
14.2527
0
LINE
8
Black
10
1.36468
20
14.2527
11
1.59804
21
14.5308
0
LINE
8
Black
10
1.59804
20
14.5308
11
1.91246
21
14.7123
0
LINE
8
Black
10
1.91246
20
14.7123
11
2.27
21
14.7754
0
LINE
8
Black
10
2.27
20
14.7754
11
2.62754
21
14.7123
0
LINE
8
Black
10
28.0875
20
14.7123
11
28.402
21
14.5308
0
LINE
8
Black
10
28.402
20
14.5308
11
28.6353
21
14.2527
0
LINE
8
Black
10
28.6353
20
14.2527
11
28.7595
21
13.9115
0
LINE
8
Black
10
28.7595
20
13.9115
11
28.7595
21
13.5485
0
LINE
8
Black
10
28.7595
20
13.5485
11
28.6353
21
13.2073
0
LINE
8
Black
10
28.6353
20
13.2073
11
28.402
21
12.9292
0
LINE
8
Black
10
28.402
20
12.9292
11
28.0875
21
12.7477
0
LINE
8
Black
10
28.0875
20
12.7477
11
27.73
21
12.6846
0
LINE
8
Black
10
27.73
20
12.6846
11
27.3725
21
12.7477
0
LINE
8
Black
10
27.3725
20
12.7477
11
27.058
21
12.9292
0
LINE
8
Black
10
27.058
20
12.9292
11
26.8247
21
13.2073
0
LINE
8
Black
10
26.8247
20
13.2073
11
26.7005
21
13.5485
0
LINE
8
Black
10
26.7005
20
13.5485
11
26.7005
21
13.9115
0
LINE
8
Black
10
26.7005
20
13.9115
11
26.8247
21
14.2527
0
LINE
8
Black
10
26.8247
20
14.2527
11
27.058
21
14.5308
0
LINE
8
Black
10
27.058
20
14.5308
11
27.3725
21
14.7123
0
LINE
8
Black
10
27.3725
20
14.7123
11
27.73
21
14.7754
0
LINE
8
Black
10
27.73
20
14.7754
11
28.0875
21
14.7123
0
LINE
8
Black
10
28.0875
20
17.2523
11
28.402
21
17.0708
0
LINE
8
Black
10
28.402
20
17.0708
11
28.6353
21
16.7927
0
LINE
8
Black
10
28.6353
20
16.7927
11
28.7595
21
16.4515
0
LINE
8
Black
10
28.7595
20
16.4515
11
28.7595
21
16.0885
0
LINE
8
Black
10
28.7595
20
16.0885
11
28.6353
21
15.7473
0
LINE
8
Black
10
28.6353
20
15.7473
11
28.402
21
15.4692
0
LINE
8
Black
10
28.402
20
15.4692
11
28.0875
21
15.2877
0
LINE
8
Black
10
28.0875
20
15.2877
11
27.73
21
15.2246
0
LINE
8
Black
10
27.73
20
15.2246
11
27.3725
21
15.2877
0
LINE
8
Black
10
27.3725
20
15.2877
11
27.058
21
15.4692
0
LINE
8
Black
10
27.058
20
15.4692
11
26.8539
21
15.7125
0
LINE
8
Black
10
26.8539
20
15.7125
11
25.0691
21
13.9277
0
LINE
8
Black
10
25.0691
20
13.9277
11
25.0966
21
13.8523
0
LINE
8
Black
10
25.0966
20
13.8523
11
25.0966
21
13.7477
0
LINE
8
Black
10
25.0966
20
13.7477
11
25.0608
21
13.6494
0
LINE
8
Black
10
25.0608
20
13.6494
11
24.9936
21
13.5693
0
LINE
8
Black
10
24.9936
20
13.5693
11
24.903
21
13.517
0
LINE
8
Black
10
24.903
20
13.517
11
24.8
21
13.4989
0
LINE
8
Black
10
24.8
20
13.4989
11
24.697
21
13.517
0
LINE
8
Black
10
24.697
20
13.517
11
24.6064
21
13.5693
0
LINE
8
Black
10
24.6064
20
13.5693
11
24.5392
21
13.6494
0
LINE
8
Black
10
24.5392
20
13.6494
11
24.5034
21
13.7477
0
LINE
8
Black
10
24.5034
20
13.7477
11
24.5034
21
13.8523
0
LINE
8
Black
10
24.5034
20
13.8523
11
24.5392
21
13.9506
0
LINE
8
Black
10
24.5392
20
13.9506
11
24.6064
21
14.0307
0
LINE
8
Black
10
24.6064
20
14.0307
11
24.697
21
14.083
0
LINE
8
Black
10
24.697
20
14.083
11
24.8
21
14.1011
0
LINE
8
Black
10
24.8
20
14.1011
11
24.903
21
14.083
0
LINE
8
Black
10
24.903
20
14.083
11
24.9274
21
14.0689
0
LINE
8
Black
10
24.9274
20
14.0689
11
26.7663
21
15.9077
0
LINE
8
Black
10
26.7663
20
15.9077
11
26.7005
21
16.0885
0
LINE
8
Black
10
26.7005
20
16.0885
11
26.7005
21
16.4515
0
LINE
8
Black
10
26.7005
20
16.4515
11
26.8247
21
16.7927
0
LINE
8
Black
10
26.8247
20
16.7927
11
27.058
21
17.0708
0
LINE
8
Black
10
27.058
20
17.0708
11
27.3725
21
17.2523
0
LINE
8
Black
10
27.3725
20
17.2523
11
27.73
21
17.3154
0
LINE
8
Black
10
27.73
20
17.3154
11
28.0875
21
17.2523
0
LINE
8
Black
10
14.4294
20
15.783
11
14.5868
21
15.7096
0
LINE
8
Black
10
14.5868
20
15.7096
11
14.7096
21
15.5868
0
LINE
8
Black
10
14.7096
20
15.5868
11
14.783
21
15.4294
0
LINE
8
Black
10
14.783
20
15.4294
11
14.7981
21
15.2564
0
LINE
8
Black
10
14.7981
20
15.2564
11
14.7532
21
15.0887
0
LINE
8
Black
10
14.7532
20
15.0887
11
14.6536
21
14.9464
0
LINE
8
Black
10
14.6536
20
14.9464
11
14.5936
21
14.8864
0
LINE
8
Black
10
14.5936
20
14.8864
11
14.5755
21
14.8738
0
LINE
8
Black
10
14.5755
20
14.8738
11
14.5614
21
14.857
0
LINE
8
Black
10
14.5614
20
14.857
11
14.5048
21
14.8243
0
LINE
8
Black
10
14.5048
20
14.8243
11
14.4513
21
14.7868
0
LINE
8
Black
10
14.4513
20
14.7868
11
14.4301
21
14.7812
0
LINE
8
Black
10
14.4301
20
14.7812
11
14.411
21
14.7702
0
LINE
8
Black
10
14.411
20
14.7702
11
14.3467
21
14.7588
0
LINE
8
Black
10
14.3467
20
14.7588
11
14.2836
21
14.7419
0
LINE
8
Black
10
14.2836
20
14.7419
11
14.2617
21
14.7438
0
LINE
8
Black
10
14.2617
20
14.7438
11
14.24
21
14.74
0
LINE
8
Black
10
14.24
20
14.74
11
12.065
21
14.74
0
LINE
8
Black
10
12.065
20
14.74
11
11.894
21
14.7702
0
LINE
8
Black
10
11.894
20
14.7702
11
11.7436
21
14.857
0
LINE
8
Black
10
11.7436
20
14.857
11
11.6353
21
14.986
0
LINE
8
Black
10
11.6353
20
14.986
11
11.4935
21
14.986
0
LINE
8
Black
10
11.4935
20
14.986
11
11.4935
21
15.494
0
LINE
8
Black
10
11.4935
20
15.494
11
11.6353
21
15.494
0
LINE
8
Black
10
11.6353
20
15.494
11
11.7436
21
15.623
0
LINE
8
Black
10
11.7436
20
15.623
11
11.894
21
15.7098
0
LINE
8
Black
10
11.894
20
15.7098
11
12.065
21
15.74
0
LINE
8
Black
10
12.065
20
15.74
11
14.0699
21
15.74
0
LINE
8
Black
10
14.0699
20
15.74
11
14.0887
21
15.7532
0
LINE
8
Black
10
14.0887
20
15.7532
11
14.2564
21
15.7981
0
LINE
8
Black
10
14.2564
20
15.7981
11
14.4294
21
15.783
0
LINE
8
Black
10
18.9865
20
14.986
11
17.8435
21
14.986
0
LINE
8
Black
10
17.8435
20
14.986
11
17.8435
21
15.494
0
LINE
8
Black
10
17.8435
20
15.494
11
18.9865
21
15.494
0
LINE
8
Black
10
18.9865
20
15.494
11
18.9865
21
14.986
0
LINE
8
Black
10
2.62754
20
17.2523
11
2.94196
21
17.0708
0
LINE
8
Black
10
2.94196
20
17.0708
11
3.17532
21
16.7927
0
LINE
8
Black
10
3.17532
20
16.7927
11
3.2995
21
16.4515
0
LINE
8
Black
10
3.2995
20
16.4515
11
3.2995
21
16.0885
0
LINE
8
Black
10
3.2995
20
16.0885
11
3.17532
21
15.7473
0
LINE
8
Black
10
3.17532
20
15.7473
11
2.94196
21
15.4692
0
LINE
8
Black
10
2.94196
20
15.4692
11
2.62754
21
15.2877
0
LINE
8
Black
10
2.62754
20
15.2877
11
2.27
21
15.2246
0
LINE
8
Black
10
2.27
20
15.2246
11
1.91246
21
15.2877
0
LINE
8
Black
10
1.91246
20
15.2877
11
1.59804
21
15.4692
0
LINE
8
Black
10
1.59804
20
15.4692
11
1.36468
21
15.7473
0
LINE
8
Black
10
1.36468
20
15.7473
11
1.2405
21
16.0885
0
LINE
8
Black
10
1.2405
20
16.0885
11
1.2405
21
16.4515
0
LINE
8
Black
10
1.2405
20
16.4515
11
1.36468
21
16.7927
0
LINE
8
Black
10
1.36468
20
16.7927
11
1.59804
21
17.0708
0
LINE
8
Black
10
1.59804
20
17.0708
11
1.91246
21
17.2523
0
LINE
8
Black
10
1.91246
20
17.2523
11
2.27
21
17.3154
0
LINE
8
Black
10
2.27
20
17.3154
11
2.62754
21
17.2523
0
LINE
8
Black
10
7.603
20
18.883
11
7.69357
21
18.8307
0
LINE
8
Black
10
7.69357
20
18.8307
11
7.7608
21
18.7506
0
LINE
8
Black
10
7.7608
20
18.7506
11
7.79657
21
18.6523
0
LINE
8
Black
10
7.79657
20
18.6523
11
7.79657
21
18.5477
0
LINE
8
Black
10
7.79657
20
18.5477
11
7.76912
21
18.4723
0
LINE
8
Black
10
7.76912
20
18.4723
11
9.41874
21
16.8227
0
LINE
8
Black
10
9.41874
20
16.8227
11
9.44224
21
16.8362
0
LINE
8
Black
10
9.44224
20
16.8362
11
9.54524
21
16.8544
0
LINE
8
Black
10
9.54524
20
16.8544
11
9.64823
21
16.8362
0
LINE
8
Black
10
9.64823
20
16.8362
11
9.73881
21
16.784
0
LINE
8
Black
10
9.73881
20
16.784
11
9.80604
21
16.7038
0
LINE
8
Black
10
9.80604
20
16.7038
11
9.84181
21
16.6056
0
LINE
8
Black
10
9.84181
20
16.6056
11
9.84181
21
16.501
0
LINE
8
Black
10
9.84181
20
16.501
11
9.80604
21
16.4027
0
LINE
8
Black
10
9.80604
20
16.4027
11
9.73881
21
16.3226
0
LINE
8
Black
10
9.73881
20
16.3226
11
9.64823
21
16.2703
0
LINE
8
Black
10
9.64823
20
16.2703
11
9.54524
21
16.2521
0
LINE
8
Black
10
9.54524
20
16.2521
11
9.44224
21
16.2703
0
LINE
8
Black
10
9.44224
20
16.2703
11
9.35166
21
16.3226
0
LINE
8
Black
10
9.35166
20
16.3226
11
9.28444
21
16.4027
0
LINE
8
Black
10
9.28444
20
16.4027
11
9.24867
21
16.501
0
LINE
8
Black
10
9.24867
20
16.501
11
9.24867
21
16.6056
0
LINE
8
Black
10
9.24867
20
16.6056
11
9.27651
21
16.6821
0
LINE
8
Black
10
9.27651
20
16.6821
11
7.62745
21
18.3311
0
LINE
8
Black
10
7.62745
20
18.3311
11
7.603
21
18.317
0
LINE
8
Black
10
7.603
20
18.317
11
7.5
21
18.2989
0
LINE
8
Black
10
7.5
20
18.2989
11
7.397
21
18.317
0
LINE
8
Black
10
7.397
20
18.317
11
7.30643
21
18.3693
0
LINE
8
Black
10
7.30643
20
18.3693
11
7.2392
21
18.4494
0
LINE
8
Black
10
7.2392
20
18.4494
11
7.20343
21
18.5477
0
LINE
8
Black
10
7.20343
20
18.5477
11
7.20343
21
18.6523
0
LINE
8
Black
10
7.20343
20
18.6523
11
7.2392
21
18.7506
0
LINE
8
Black
10
7.2392
20
18.7506
11
7.30643
21
18.8307
0
LINE
8
Black
10
7.30643
20
18.8307
11
7.397
21
18.883
0
LINE
8
Black
10
7.397
20
18.883
11
7.5
21
18.9011
0
LINE
8
Black
10
7.5
20
18.9011
11
7.603
21
18.883
0
LINE
8
Black
10
12.6365
20
16.256
11
11.4935
21
16.256
0
LINE
8
Black
10
11.4935
20
16.256
11
11.4935
21
16.764
0
LINE
8
Black
10
11.4935
20
16.764
11
12.6365
21
16.764
0
LINE
8
Black
10
12.6365
20
16.764
11
12.6365
21
16.256
0
LINE
8
Black
10
18.9865
20
16.256
11
17.8435
21
16.256
0
LINE
8
Black
10
17.8435
20
16.256
11
17.8435
21
16.764
0
LINE
8
Black
10
17.8435
20
16.764
11
18.9865
21
16.764
0
LINE
8
Black
10
18.9865
20
16.764
11
18.9865
21
16.256
0
LINE
8
Black
10
12.6365
20
17.526
11
11.4935
21
17.526
0
LINE
8
Black
10
11.4935
20
17.526
11
11.4935
21
18.034
0
LINE
8
Black
10
11.4935
20
18.034
11
12.6365
21
18.034
0
LINE
8
Black
10
12.6365
20
18.034
11
12.6365
21
17.526
0
LINE
8
Black
10
18.9865
20
17.526
11
17.8435
21
17.526
0
LINE
8
Black
10
17.8435
20
17.526
11
17.8435
21
18.034
0
LINE
8
Black
10
17.8435
20
18.034
11
18.9865
21
18.034
0
LINE
8
Black
10
18.9865
20
18.034
11
18.9865
21
17.526
0
LINE
8
Black
10
24.741
20
18.571
11
24.8316
21
18.5187
0
LINE
8
Black
10
24.8316
20
18.5187
11
24.8988
21
18.4386
0
LINE
8
Black
10
24.8988
20
18.4386
11
24.9346
21
18.3403
0
LINE
8
Black
10
24.9346
20
18.3403
11
24.9346
21
18.2357
0
LINE
8
Black
10
24.9346
20
18.2357
11
24.8988
21
18.1374
0
LINE
8
Black
10
24.8988
20
18.1374
11
24.8316
21
18.0573
0
LINE
8
Black
10
24.8316
20
18.0573
11
24.741
21
18.005
0
LINE
8
Black
10
24.741
20
18.005
11
24.638
21
17.9869
0
LINE
8
Black
10
24.638
20
17.9869
11
24.535
21
18.005
0
LINE
8
Black
10
24.535
20
18.005
11
24.4444
21
18.0573
0
LINE
8
Black
10
24.4444
20
18.0573
11
24.3772
21
18.1374
0
LINE
8
Black
10
24.3772
20
18.1374
11
24.3588
21
18.188
0
LINE
8
Black
10
24.3588
20
18.188
11
23.4987
21
18.188
0
LINE
8
Black
10
23.4987
20
18.188
11
23.4803
21
18.1374
0
LINE
8
Black
10
23.4803
20
18.1374
11
23.4131
21
18.0573
0
LINE
8
Black
10
23.4131
20
18.0573
11
23.3225
21
18.005
0
LINE
8
Black
10
23.3225
20
18.005
11
23.2195
21
17.9869
0
LINE
8
Black
10
23.2195
20
17.9869
11
23.1165
21
18.005
0
LINE
8
Black
10
23.1165
20
18.005
11
23.0259
21
18.0573
0
LINE
8
Black
10
23.0259
20
18.0573
11
22.9587
21
18.1374
0
LINE
8
Black
10
22.9587
20
18.1374
11
22.9229
21
18.2357
0
LINE
8
Black
10
22.9229
20
18.2357
11
22.9229
21
18.3403
0
LINE
8
Black
10
22.9229
20
18.3403
11
22.9587
21
18.4386
0
LINE
8
Black
10
22.9587
20
18.4386
11
23.0259
21
18.5187
0
LINE
8
Black
10
23.0259
20
18.5187
11
23.1165
21
18.571
0
LINE
8
Black
10
23.1165
20
18.571
11
23.2195
21
18.5891
0
LINE
8
Black
10
23.2195
20
18.5891
11
23.3225
21
18.571
0
LINE
8
Black
10
23.3225
20
18.571
11
23.4131
21
18.5187
0
LINE
8
Black
10
23.4131
20
18.5187
11
23.4803
21
18.4386
0
LINE
8
Black
10
23.4803
20
18.4386
11
23.4987
21
18.388
0
LINE
8
Black
10
23.4987
20
18.388
11
24.3588
21
18.388
0
LINE
8
Black
10
24.3588
20
18.388
11
24.3772
21
18.4386
0
LINE
8
Black
10
24.3772
20
18.4386
11
24.4444
21
18.5187
0
LINE
8
Black
10
24.4444
20
18.5187
11
24.535
21
18.571
0
LINE
8
Black
10
24.535
20
18.571
11
24.638
21
18.5891
0
LINE
8
Black
10
24.638
20
18.5891
11
24.741
21
18.571
0
LINE
8
Black
10
4.872
20
19.97
11
6.05
21
19.97
0
LINE
8
Black
10
6.05
20
19.97
11
6.05
21
20.07
0
LINE
8
Black
10
6.05
20
20.07
11
6.65
21
20.07
0
LINE
8
Black
10
6.65
20
20.07
11
6.65
21
19.97
0
LINE
8
Black
10
6.65
20
19.97
11
7.828
21
19.97
0
LINE
8
Black
10
7.828
20
19.97
11
7.828
21
20.07
0
LINE
8
Black
10
7.828
20
20.07
11
8.428
21
20.07
0
LINE
8
Black
10
8.428
20
20.07
11
8.428
21
19.67
0
LINE
8
Black
10
8.428
20
19.67
11
7.828
21
19.67
0
LINE
8
Black
10
7.828
20
19.67
11
7.828
21
19.77
0
LINE
8
Black
10
7.828
20
19.77
11
6.65
21
19.77
0
LINE
8
Black
10
6.65
20
19.77
11
6.65
21
19.67
0
LINE
8
Black
10
6.65
20
19.67
11
6.45
21
19.67
0
LINE
8
Black
10
6.45
20
19.67
11
6.45
21
19.0732
0
LINE
8
Black
10
6.45
20
19.0732
11
6.52357
21
19.0307
0
LINE
8
Black
10
6.52357
20
19.0307
11
6.5908
21
18.9506
0
LINE
8
Black
10
6.5908
20
18.9506
11
6.62657
21
18.8523
0
LINE
8
Black
10
6.62657
20
18.8523
11
6.62657
21
18.7477
0
LINE
8
Black
10
6.62657
20
18.7477
11
6.5908
21
18.6494
0
LINE
8
Black
10
6.5908
20
18.6494
11
6.52357
21
18.5693
0
LINE
8
Black
10
6.52357
20
18.5693
11
6.433
21
18.517
0
LINE
8
Black
10
6.433
20
18.517
11
6.33
21
18.4989
0
LINE
8
Black
10
6.33
20
18.4989
11
6.227
21
18.517
0
LINE
8
Black
10
6.227
20
18.517
11
6.13643
21
18.5693
0
LINE
8
Black
10
6.13643
20
18.5693
11
6.0692
21
18.6494
0
LINE
8
Black
10
6.0692
20
18.6494
11
6.03343
21
18.7477
0
LINE
8
Black
10
6.03343
20
18.7477
11
6.03343
21
18.8523
0
LINE
8
Black
10
6.03343
20
18.8523
11
6.0692
21
18.9506
0
LINE
8
Black
10
6.0692
20
18.9506
11
6.13643
21
19.0307
0
LINE
8
Black
10
6.13643
20
19.0307
11
6.227
21
19.083
0
LINE
8
Black
10
6.227
20
19.083
11
6.25
21
19.087
0
LINE
8
Black
10
6.25
20
19.087
11
6.25
21
19.67
0
LINE
8
Black
10
6.25
20
19.67
11
6.05
21
19.67
0
LINE
8
Black
10
6.05
20
19.67
11
6.05
21
19.77
0
LINE
8
Black
10
6.05
20
19.77
11
4.872
21
19.77
0
LINE
8
Black
10
4.872
20
19.77
11
4.872
21
19.67
0
LINE
8
Black
10
4.872
20
19.67
11
4.272
21
19.67
0
LINE
8
Black
10
4.272
20
19.67
11
4.272
21
20.07
0
LINE
8
Black
10
4.272
20
20.07
11
4.872
21
20.07
0
LINE
8
Black
10
4.872
20
20.07
11
4.872
21
19.97
0
LINE
8
Black
10
2.8335
20
19.206
11
2.92407
21
19.1537
0
LINE
8
Black
10
2.92407
20
19.1537
11
2.9913
21
19.0736
0
LINE
8
Black
10
2.9913
20
19.0736
11
3.02707
21
18.9753
0
LINE
8
Black
10
3.02707
20
18.9753
11
3.02707
21
18.8707
0
LINE
8
Black
10
3.02707
20
18.8707
11
2.9913
21
18.7724
0
LINE
8
Black
10
2.9913
20
18.7724
11
2.92407
21
18.6923
0
LINE
8
Black
10
2.92407
20
18.6923
11
2.8335
21
18.64
0
LINE
8
Black
10
2.8335
20
18.64
11
2.7305
21
18.6219
0
LINE
8
Black
10
2.7305
20
18.6219
11
2.6275
21
18.64
0
LINE
8
Black
10
2.6275
20
18.64
11
2.53693
21
18.6923
0
LINE
8
Black
10
2.53693
20
18.6923
11
2.4697
21
18.7724
0
LINE
8
Black
10
2.4697
20
18.7724
11
2.43393
21
18.8707
0
LINE
8
Black
10
2.43393
20
18.8707
11
2.43393
21
18.9753
0
LINE
8
Black
10
2.43393
20
18.9753
11
2.4697
21
19.0736
0
LINE
8
Black
10
2.4697
20
19.0736
11
2.53693
21
19.1537
0
LINE
8
Black
10
2.53693
20
19.1537
11
2.6275
21
19.206
0
LINE
8
Black
10
2.6275
20
19.206
11
2.7305
21
19.2241
0
LINE
8
Black
10
2.7305
20
19.2241
11
2.8335
21
19.206
0
LINE
8
Black
10
12.6365
20
18.796
11
11.4935
21
18.796
0
LINE
8
Black
10
11.4935
20
18.796
11
11.4935
21
19.304
0
LINE
8
Black
10
11.4935
20
19.304
11
12.6365
21
19.304
0
LINE
8
Black
10
12.6365
20
19.304
11
12.6365
21
18.796
0
LINE
8
Black
10
18.9865
20
18.796
11
17.8435
21
18.796
0
LINE
8
Black
10
17.8435
20
18.796
11
17.8435
21
19.304
0
LINE
8
Black
10
17.8435
20
19.304
11
18.9865
21
19.304
0
LINE
8
Black
10
18.9865
20
19.304
11
18.9865
21
18.796
0
LINE
8
Black
10
15.103
20
20.583
11
15.1936
21
20.5307
0
LINE
8
Black
10
15.1936
20
20.5307
11
15.2608
21
20.4506
0
LINE
8
Black
10
15.2608
20
20.4506
11
15.2966
21
20.3523
0
LINE
8
Black
10
15.2966
20
20.3523
11
15.2966
21
20.2477
0
LINE
8
Black
10
15.2966
20
20.2477
11
15.2608
21
20.1494
0
LINE
8
Black
10
15.2608
20
20.1494
11
15.1936
21
20.0693
0
LINE
8
Black
10
15.1936
20
20.0693
11
15.103
21
20.017
0
LINE
8
Black
10
15.103
20
20.017
11
15
21
19.9989
0
LINE
8
Black
10
15
20
19.9989
11
14.897
21
20.017
0
LINE
8
Black
10
14.897
20
20.017
11
14.8064
21
20.0693
0
LINE
8
Black
10
14.8064
20
20.0693
11
14.7392
21
20.1494
0
LINE
8
Black
10
14.7392
20
20.1494
11
14.7135
21
20.22
0
LINE
8
Black
10
14.7135
20
20.22
11
12.6365
21
20.22
0
LINE
8
Black
10
12.6365
20
20.22
11
12.6365
21
20.066
0
LINE
8
Black
10
12.6365
20
20.066
11
11.4935
21
20.066
0
LINE
8
Black
10
11.4935
20
20.066
11
11.4935
21
20.574
0
LINE
8
Black
10
11.4935
20
20.574
11
12.6365
21
20.574
0
LINE
8
Black
10
12.6365
20
20.574
11
12.6365
21
20.42
0
LINE
8
Black
10
12.6365
20
20.42
11
14.7281
21
20.42
0
LINE
8
Black
10
14.7281
20
20.42
11
14.7392
21
20.4506
0
LINE
8
Black
10
14.7392
20
20.4506
11
14.8064
21
20.5307
0
LINE
8
Black
10
14.8064
20
20.5307
11
14.897
21
20.583
0
LINE
8
Black
10
14.897
20
20.583
11
15
21
20.6011
0
LINE
8
Black
10
15
20
20.6011
11
15.103
21
20.583
0
LINE
8
Black
10
18.9865
20
20.066
11
17.8435
21
20.066
0
LINE
8
Black
10
17.8435
20
20.066
11
17.8435
21
20.574
0
LINE
8
Black
10
17.8435
20
20.574
11
18.9865
21
20.574
0
LINE
8
Black
10
18.9865
20
20.574
11
18.9865
21
20.066
0
LINE
8
Black
10
5.77181
20
21.1721
11
5.70458
21
21.0919
0
LINE
8
Black
10
5.70458
20
21.0919
11
5.61401
21
21.0397
0
LINE
8
Black
10
5.61401
20
21.0397
11
5.51101
21
21.0215
0
LINE
8
Black
10
5.51101
20
21.0215
11
5.40801
21
21.0397
0
LINE
8
Black
10
5.40801
20
21.0397
11
5.31743
21
21.0919
0
LINE
8
Black
10
5.31743
20
21.0919
11
5.25021
21
21.1721
0
LINE
8
Black
10
5.25021
20
21.1721
11
5.21444
21
21.2703
0
LINE
8
Black
10
5.21444
20
21.2703
11
5.21444
21
21.3749
0
LINE
8
Black
10
5.21444
20
21.3749
11
5.25021
21
21.4732
0
LINE
8
Black
10
5.25021
20
21.4732
11
5.31743
21
21.5533
0
LINE
8
Black
10
5.31743
20
21.5533
11
5.40801
21
21.6056
0
LINE
8
Black
10
5.40801
20
21.6056
11
5.51101
21
21.6238
0
LINE
8
Black
10
5.51101
20
21.6238
11
5.61401
21
21.6056
0
LINE
8
Black
10
5.61401
20
21.6056
11
5.70458
21
21.5533
0
LINE
8
Black
10
5.70458
20
21.5533
11
5.77181
21
21.4732
0
LINE
8
Black
10
5.77181
20
21.4732
11
5.79021
21
21.4226
0
LINE
8
Black
10
5.79021
20
21.4226
11
5.93527
21
21.4226
0
LINE
8
Black
10
5.93527
20
21.4226
11
6.25
21
21.4226
0
LINE
8
Black
10
6.25
20
21.4226
11
6.25
21
21.702
0
LINE
8
Black
10
6.25
20
21.702
11
6.05
21
21.702
0
LINE
8
Black
10
6.05
20
21.702
11
6.05
21
22.102
0
LINE
8
Black
10
6.05
20
22.102
11
6.65
21
22.102
0
LINE
8
Black
10
6.65
20
22.102
11
6.65
21
21.702
0
LINE
8
Black
10
6.65
20
21.702
11
6.45
21
21.702
0
LINE
8
Black
10
6.45
20
21.702
11
6.45
21
21.3
0
LINE
8
Black
10
6.45
20
21.3
11
6.45
21
20.97
0
LINE
8
Black
10
6.45
20
20.97
11
6.65
21
20.97
0
LINE
8
Black
10
6.65
20
20.97
11
6.65
21
20.57
0
LINE
8
Black
10
6.65
20
20.57
11
6.05
21
20.57
0
LINE
8
Black
10
6.05
20
20.57
11
6.05
21
20.97
0
LINE
8
Black
10
6.05
20
20.97
11
6.25
21
20.97
0
LINE
8
Black
10
6.25
20
20.97
11
6.25
21
21.2226
0
LINE
8
Black
10
6.25
20
21.2226
11
5.93527
21
21.2226
0
LINE
8
Black
10
5.93527
20
21.2226
11
5.79021
21
21.2226
0
LINE
8
Black
10
5.79021
20
21.2226
11
5.77181
21
21.1721
0
LINE
8
Black
10
3.6608
20
21.2274
11
3.59357
21
21.1473
0
LINE
8
Black
10
3.59357
20
21.1473
11
3.503
21
21.095
0
LINE
8
Black
10
3.503
20
21.095
11
3.4
21
21.0769
0
LINE
8
Black
10
3.4
20
21.0769
11
3.297
21
21.095
0
LINE
8
Black
10
3.297
20
21.095
11
3.20643
21
21.1473
0
LINE
8
Black
10
3.20643
20
21.1473
11
3.1392
21
21.2274
0
LINE
8
Black
10
3.1392
20
21.2274
11
3.10343
21
21.3257
0
LINE
8
Black
10
3.10343
20
21.3257
11
3.10343
21
21.4303
0
LINE
8
Black
10
3.10343
20
21.4303
11
3.1392
21
21.5286
0
LINE
8
Black
10
3.1392
20
21.5286
11
3.20643
21
21.6087
0
LINE
8
Black
10
3.20643
20
21.6087
11
3.297
21
21.661
0
LINE
8
Black
10
3.297
20
21.661
11
3.4
21
21.6792
0
LINE
8
Black
10
3.4
20
21.6792
11
3.503
21
21.661
0
LINE
8
Black
10
3.503
20
21.661
11
3.59357
21
21.6087
0
LINE
8
Black
10
3.59357
20
21.6087
11
3.6608
21
21.5286
0
LINE
8
Black
10
3.6608
20
21.5286
11
3.67921
21
21.478
0
LINE
8
Black
10
3.67921
20
21.478
11
3.82426
21
21.478
0
LINE
8
Black
10
3.82426
20
21.478
11
4.472
21
21.478
0
LINE
8
Black
10
4.472
20
21.478
11
4.472
21
21.702
0
LINE
8
Black
10
4.472
20
21.702
11
4.272
21
21.702
0
LINE
8
Black
10
4.272
20
21.702
11
4.272
21
22.102
0
LINE
8
Black
10
4.272
20
22.102
11
4.872
21
22.102
0
LINE
8
Black
10
4.872
20
22.102
11
4.872
21
21.702
0
LINE
8
Black
10
4.872
20
21.702
11
4.672
21
21.702
0
LINE
8
Black
10
4.672
20
21.702
11
4.672
21
21.3
0
LINE
8
Black
10
4.672
20
21.3
11
4.672
21
20.97
0
LINE
8
Black
10
4.672
20
20.97
11
4.872
21
20.97
0
LINE
8
Black
10
4.872
20
20.97
11
4.872
21
20.57
0
LINE
8
Black
10
4.872
20
20.57
11
4.272
21
20.57
0
LINE
8
Black
10
4.272
20
20.57
11
4.272
21
20.97
0
LINE
8
Black
10
4.272
20
20.97
11
4.472
21
20.97
0
LINE
8
Black
10
4.472
20
20.97
11
4.472
21
21.2586
0
LINE
8
Black
10
4.472
20
21.2586
11
4.45257
21
21.278
0
LINE
8
Black
10
4.45257
20
21.278
11
3.82426
21
21.278
0
LINE
8
Black
10
3.82426
20
21.278
11
3.67921
21
21.278
0
LINE
8
Black
10
3.67921
20
21.278
11
3.6608
21
21.2274
0
LINE
8
Black
10
8.428
20
21.702
11
8.228
21
21.702
0
LINE
8
Black
10
8.228
20
21.702
11
8.228
21
21.69
0
LINE
8
Black
10
8.228
20
21.69
11
11.4935
21
21.69
0
LINE
8
Black
10
11.4935
20
21.69
11
11.4935
21
21.844
0
LINE
8
Black
10
11.4935
20
21.844
11
12.6365
21
21.844
0
LINE
8
Black
10
12.6365
20
21.844
11
12.6365
21
21.336
0
LINE
8
Black
10
12.6365
20
21.336
11
11.4935
21
21.336
0
LINE
8
Black
10
11.4935
20
21.336
11
11.4935
21
21.49
0
LINE
8
Black
10
11.4935
20
21.49
11
8.228
21
21.49
0
LINE
8
Black
10
8.228
20
21.49
11
8.228
21
20.97
0
LINE
8
Black
10
8.228
20
20.97
11
8.428
21
20.97
0
LINE
8
Black
10
8.428
20
20.97
11
8.428
21
20.57
0
LINE
8
Black
10
8.428
20
20.57
11
7.828
21
20.57
0
LINE
8
Black
10
7.828
20
20.57
11
7.828
21
20.97
0
LINE
8
Black
10
7.828
20
20.97
11
8.028
21
20.97
0
LINE
8
Black
10
8.028
20
20.97
11
8.028
21
21.6
0
LINE
8
Black
10
8.028
20
21.6
11
8.028
21
21.702
0
LINE
8
Black
10
8.028
20
21.702
11
7.828
21
21.702
0
LINE
8
Black
10
7.828
20
21.702
11
7.828
21
22.102
0
LINE
8
Black
10
7.828
20
22.102
11
8.428
21
22.102
0
LINE
8
Black
10
8.428
20
22.102
11
8.428
21
21.702
0
LINE
8
Black
10
16.994
20
21.873
11
17.0846
21
21.8207
0
LINE
8
Black
10
17.0846
20
21.8207
11
17.1518
21
21.7406
0
LINE
8
Black
10
17.1518
20
21.7406
11
17.1702
21
21.69
0
LINE
8
Black
10
17.1702
20
21.69
11
17.8435
21
21.69
0
LINE
8
Black
10
17.8435
20
21.69
11
17.8435
21
21.844
0
LINE
8
Black
10
17.8435
20
21.844
11
18.2641
21
21.844
0
LINE
8
Black
10
18.2641
20
21.844
11
18.3124
21
21.8719
0
LINE
8
Black
10
18.3124
20
21.8719
11
18.415
21
21.89
0
LINE
8
Black
10
18.415
20
21.89
11
21.165
21
21.89
0
LINE
8
Black
10
21.165
20
21.89
11
21.2676
21
21.8719
0
LINE
8
Black
10
21.2676
20
21.8719
11
21.3159
21
21.844
0
LINE
8
Black
10
21.3159
20
21.844
11
21.7365
21
21.844
0
LINE
8
Black
10
21.7365
20
21.844
11
21.7365
21
21.336
0
LINE
8
Black
10
21.7365
20
21.336
11
21.3159
21
21.336
0
LINE
8
Black
10
21.3159
20
21.336
11
21.2676
21
21.3081
0
LINE
8
Black
10
21.2676
20
21.3081
11
21.165
21
21.29
0
LINE
8
Black
10
21.165
20
21.29
11
18.415
21
21.29
0
LINE
8
Black
10
18.415
20
21.29
11
18.3124
21
21.3081
0
LINE
8
Black
10
18.3124
20
21.3081
11
18.2641
21
21.336
0
LINE
8
Black
10
18.2641
20
21.336
11
17.8435
21
21.336
0
LINE
8
Black
10
17.8435
20
21.336
11
17.8435
21
21.49
0
LINE
8
Black
10
17.8435
20
21.49
11
17.1702
21
21.49
0
LINE
8
Black
10
17.1702
20
21.49
11
17.1518
21
21.4394
0
LINE
8
Black
10
17.1518
20
21.4394
11
17.0846
21
21.3593
0
LINE
8
Black
10
17.0846
20
21.3593
11
16.994
21
21.307
0
LINE
8
Black
10
16.994
20
21.307
11
16.891
21
21.2889
0
LINE
8
Black
10
16.891
20
21.2889
11
16.788
21
21.307
0
LINE
8
Black
10
16.788
20
21.307
11
16.6974
21
21.3593
0
LINE
8
Black
10
16.6974
20
21.3593
11
16.6302
21
21.4394
0
LINE
8
Black
10
16.6302
20
21.4394
11
16.5944
21
21.5377
0
LINE
8
Black
10
16.5944
20
21.5377
11
16.5944
21
21.6423
0
LINE
8
Black
10
16.5944
20
21.6423
11
16.6302
21
21.7406
0
LINE
8
Black
10
16.6302
20
21.7406
11
16.6974
21
21.8207
0
LINE
8
Black
10
16.6974
20
21.8207
11
16.788
21
21.873
0
LINE
8
Black
10
16.788
20
21.873
11
16.891
21
21.8911
0
LINE
8
Black
10
16.891
20
21.8911
11
16.994
21
21.873
0
LINE
8
Black
10
12.6365
20
22.606
11
11.4935
21
22.606
0
LINE
8
Black
10
11.4935
20
22.606
11
11.4935
21
22.7
0
LINE
8
Black
10
11.4935
20
22.7
11
10.4792
21
22.7
0
LINE
8
Black
10
10.4792
20
22.7
11
10.4608
21
22.6494
0
LINE
8
Black
10
10.4608
20
22.6494
11
10.3936
21
22.5693
0
LINE
8
Black
10
10.3936
20
22.5693
11
10.303
21
22.517
0
LINE
8
Black
10
10.303
20
22.517
11
10.2
21
22.4989
0
LINE
8
Black
10
10.2
20
22.4989
11
10.097
21
22.517
0
LINE
8
Black
10
10.097
20
22.517
11
10.0064
21
22.5693
0
LINE
8
Black
10
10.0064
20
22.5693
11
9.9392
21
22.6494
0
LINE
8
Black
10
9.9392
20
22.6494
11
9.90343
21
22.7477
0
LINE
8
Black
10
9.90343
20
22.7477
11
9.90343
21
22.8523
0
LINE
8
Black
10
9.90343
20
22.8523
11
9.9392
21
22.9506
0
LINE
8
Black
10
9.9392
20
22.9506
11
10.0064
21
23.0307
0
LINE
8
Black
10
10.0064
20
23.0307
11
10.097
21
23.083
0
LINE
8
Black
10
10.097
20
23.083
11
10.2
21
23.1011
0
LINE
8
Black
10
10.2
20
23.1011
11
10.303
21
23.083
0
LINE
8
Black
10
10.303
20
23.083
11
10.3936
21
23.0307
0
LINE
8
Black
10
10.3936
20
23.0307
11
10.4608
21
22.9506
0
LINE
8
Black
10
10.4608
20
22.9506
11
10.4792
21
22.9
0
LINE
8
Black
10
10.4792
20
22.9
11
11.4935
21
22.9
0
LINE
8
Black
10
11.4935
20
22.9
11
11.4935
21
23.114
0
LINE
8
Black
10
11.4935
20
23.114
11
12.6365
21
23.114
0
LINE
8
Black
10
12.6365
20
23.114
11
12.6365
21
22.606
0
LINE
8
Black
10
16.994
20
23.143
11
17.0846
21
23.0907
0
LINE
8
Black
10
17.0846
20
23.0907
11
17.1518
21
23.0106
0
LINE
8
Black
10
17.1518
20
23.0106
11
17.1702
21
22.96
0
LINE
8
Black
10
17.1702
20
22.96
11
17.8435
21
22.96
0
LINE
8
Black
10
17.8435
20
22.96
11
17.8435
21
23.114
0
LINE
8
Black
10
17.8435
20
23.114
11
18.2641
21
23.114
0
LINE
8
Black
10
18.2641
20
23.114
11
18.3124
21
23.1419
0
LINE
8
Black
10
18.3124
20
23.1419
11
18.415
21
23.16
0
LINE
8
Black
10
18.415
20
23.16
11
21.165
21
23.16
0
LINE
8
Black
10
21.165
20
23.16
11
21.2676
21
23.1419
0
LINE
8
Black
10
21.2676
20
23.1419
11
21.3159
21
23.114
0
LINE
8
Black
10
21.3159
20
23.114
11
21.7365
21
23.114
0
LINE
8
Black
10
21.7365
20
23.114
11
21.7365
21
22.606
0
LINE
8
Black
10
21.7365
20
22.606
11
21.3159
21
22.606
0
LINE
8
Black
10
21.3159
20
22.606
11
21.2676
21
22.5781
0
LINE
8
Black
10
21.2676
20
22.5781
11
21.165
21
22.56
0
LINE
8
Black
10
21.165
20
22.56
11
18.415
21
22.56
0
LINE
8
Black
10
18.415
20
22.56
11
18.3124
21
22.5781
0
LINE
8
Black
10
18.3124
20
22.5781
11
18.2641
21
22.606
0
LINE
8
Black
10
18.2641
20
22.606
11
17.8435
21
22.606
0
LINE
8
Black
10
17.8435
20
22.606
11
17.8435
21
22.76
0
LINE
8
Black
10
17.8435
20
22.76
11
17.1702
21
22.76
0
LINE
8
Black
10
17.1702
20
22.76
11
17.1518
21
22.7094
0
LINE
8
Black
10
17.1518
20
22.7094
11
17.0846
21
22.6293
0
LINE
8
Black
10
17.0846
20
22.6293
11
16.994
21
22.577
0
LINE
8
Black
10
16.994
20
22.577
11
16.891
21
22.5589
0
LINE
8
Black
10
16.891
20
22.5589
11
16.788
21
22.577
0
LINE
8
Black
10
16.788
20
22.577
11
16.6974
21
22.6293
0
LINE
8
Black
10
16.6974
20
22.6293
11
16.6302
21
22.7094
0
LINE
8
Black
10
16.6302
20
22.7094
11
16.5944
21
22.8077
0
LINE
8
Black
10
16.5944
20
22.8077
11
16.5944
21
22.9123
0
LINE
8
Black
10
16.5944
20
22.9123
11
16.6302
21
23.0106
0
LINE
8
Black
10
16.6302
20
23.0106
11
16.6974
21
23.0907
0
LINE
8
Black
10
16.6974
20
23.0907
11
16.788
21
23.143
0
LINE
8
Black
10
16.788
20
23.143
11
16.891
21
23.1611
0
LINE
8
Black
10
16.891
20
23.1611
11
16.994
21
23.143
0
LINE
8
Black
10
4.872
20
22.602
11
4.272
21
22.602
0
LINE
8
Black
10
4.272
20
22.602
11
4.272
21
23.002
0
LINE
8
Black
10
4.272
20
23.002
11
4.872
21
23.002
0
LINE
8
Black
10
4.872
20
23.002
11
4.872
21
22.602
0
LINE
8
Black
10
8.428
20
22.602
11
7.828
21
22.602
0
LINE
8
Black
10
7.828
20
22.602
11
7.828
21
23.002
0
LINE
8
Black
10
7.828
20
23.002
11
8.428
21
23.002
0
LINE
8
Black
10
8.428
20
23.002
11
8.428
21
22.602
0
LINE
8
Black
10
6.65
20
22.602
11
6.05
21
22.602
0
LINE
8
Black
10
6.05
20
22.602
11
6.05
21
23.002
0
LINE
8
Black
10
6.05
20
23.002
11
6.65
21
23.002
0
LINE
8
Black
10
6.65
20
23.002
11
6.65
21
22.602
0
LINE
8
Black
10
27.303
20
23.883
11
27.3936
21
23.8307
0
LINE
8
Black
10
27.3936
20
23.8307
11
27.4608
21
23.7506
0
LINE
8
Black
10
27.4608
20
23.7506
11
27.4966
21
23.6523
0
LINE
8
Black
10
27.4966
20
23.6523
11
27.4966
21
23.5477
0
LINE
8
Black
10
27.4966
20
23.5477
11
27.4608
21
23.4494
0
LINE
8
Black
10
27.4608
20
23.4494
11
27.3936
21
23.3693
0
LINE
8
Black
10
27.3936
20
23.3693
11
27.303
21
23.317
0
LINE
8
Black
10
27.303
20
23.317
11
27.2
21
23.2989
0
LINE
8
Black
10
27.2
20
23.2989
11
27.097
21
23.317
0
LINE
8
Black
10
27.097
20
23.317
11
27.0064
21
23.3693
0
LINE
8
Black
10
27.0064
20
23.3693
11
26.9392
21
23.4494
0
LINE
8
Black
10
26.9392
20
23.4494
11
26.9034
21
23.5477
0
LINE
8
Black
10
26.9034
20
23.5477
11
26.9034
21
23.6523
0
LINE
8
Black
10
26.9034
20
23.6523
11
26.9392
21
23.7506
0
LINE
8
Black
10
26.9392
20
23.7506
11
27.0064
21
23.8307
0
LINE
8
Black
10
27.0064
20
23.8307
11
27.097
21
23.883
0
LINE
8
Black
10
27.097
20
23.883
11
27.2
21
23.9011
0
LINE
8
Black
10
27.2
20
23.9011
11
27.303
21
23.883
0
LINE
8
Black
10
10.403
20
24.383
11
10.4936
21
24.3307
0
LINE
8
Black
10
10.4936
20
24.3307
11
10.5608
21
24.2506
0
LINE
8
Black
10
10.5608
20
24.2506
11
10.5792
21
24.2
0
LINE
8
Black
10
10.5792
20
24.2
11
11.4935
21
24.2
0
LINE
8
Black
10
11.4935
20
24.2
11
11.4935
21
24.384
0
LINE
8
Black
10
11.4935
20
24.384
11
12.6365
21
24.384
0
LINE
8
Black
10
12.6365
20
24.384
11
12.6365
21
23.876
0
LINE
8
Black
10
12.6365
20
23.876
11
11.4935
21
23.876
0
LINE
8
Black
10
11.4935
20
23.876
11
11.4935
21
24
0
LINE
8
Black
10
11.4935
20
24
11
10.5792
21
24
0
LINE
8
Black
10
10.5792
20
24
11
10.5608
21
23.9494
0
LINE
8
Black
10
10.5608
20
23.9494
11
10.4936
21
23.8693
0
LINE
8
Black
10
10.4936
20
23.8693
11
10.403
21
23.817
0
LINE
8
Black
10
10.403
20
23.817
11
10.3
21
23.7989
0
LINE
8
Black
10
10.3
20
23.7989
11
10.197
21
23.817
0
LINE
8
Black
10
10.197
20
23.817
11
10.1064
21
23.8693
0
LINE
8
Black
10
10.1064
20
23.8693
11
10.0392
21
23.9494
0
LINE
8
Black
10
10.0392
20
23.9494
11
10.0034
21
24.0477
0
LINE
8
Black
10
10.0034
20
24.0477
11
10.0034
21
24.1523
0
LINE
8
Black
10
10.0034
20
24.1523
11
10.0392
21
24.2506
0
LINE
8
Black
10
10.0392
20
24.2506
11
10.1064
21
24.3307
0
LINE
8
Black
10
10.1064
20
24.3307
11
10.197
21
24.383
0
LINE
8
Black
10
10.197
20
24.383
11
10.3
21
24.4011
0
LINE
8
Black
10
10.3
20
24.4011
11
10.403
21
24.383
0
LINE
8
Black
10
21.2676
20
24.4119
11
21.3159
21
24.384
0
LINE
8
Black
10
21.3159
20
24.384
11
21.7365
21
24.384
0
LINE
8
Black
10
21.7365
20
24.384
11
21.7365
21
23.876
0
LINE
8
Black
10
21.7365
20
23.876
11
21.3159
21
23.876
0
LINE
8
Black
10
21.3159
20
23.876
11
21.2676
21
23.8481
0
LINE
8
Black
10
21.2676
20
23.8481
11
21.165
21
23.83
0
LINE
8
Black
10
21.165
20
23.83
11
18.415
21
23.83
0
LINE
8
Black
10
18.415
20
23.83
11
18.3124
21
23.8481
0
LINE
8
Black
10
18.3124
20
23.8481
11
18.2641
21
23.876
0
LINE
8
Black
10
18.2641
20
23.876
11
17.8435
21
23.876
0
LINE
8
Black
10
17.8435
20
23.876
11
17.8435
21
24.384
0
LINE
8
Black
10
17.8435
20
24.384
11
18.2641
21
24.384
0
LINE
8
Black
10
18.2641
20
24.384
11
18.3124
21
24.4119
0
LINE
8
Black
10
18.3124
20
24.4119
11
18.415
21
24.43
0
LINE
8
Black
10
18.415
20
24.43
11
21.165
21
24.43
0
LINE
8
Black
10
21.165
20
24.43
11
21.2676
21
24.4119
0
LINE
8
Black
10
2.78408
20
25.4544
11
2.87466
21
25.4021
0
LINE
8
Black
10
2.87466
20
25.4021
11
2.94189
21
25.322
0
LINE
8
Black
10
2.94189
20
25.322
11
2.97766
21
25.2237
0
LINE
8
Black
10
2.97766
20
25.2237
11
2.97766
21
25.1191
0
LINE
8
Black
10
2.97766
20
25.1191
11
2.94189
21
25.0209
0
LINE
8
Black
10
2.94189
20
25.0209
11
2.87466
21
24.9407
0
LINE
8
Black
10
2.87466
20
24.9407
11
2.78408
21
24.8884
0
LINE
8
Black
10
2.78408
20
24.8884
11
2.68108
21
24.8703
0
LINE
8
Black
10
2.68108
20
24.8703
11
2.57809
21
24.8884
0
LINE
8
Black
10
2.57809
20
24.8884
11
2.48751
21
24.9407
0
LINE
8
Black
10
2.48751
20
24.9407
11
2.42028
21
25.0209
0
LINE
8
Black
10
2.42028
20
25.0209
11
2.38451
21
25.1191
0
LINE
8
Black
10
2.38451
20
25.1191
11
2.38451
21
25.2237
0
LINE
8
Black
10
2.38451
20
25.2237
11
2.42028
21
25.322
0
LINE
8
Black
10
2.42028
20
25.322
11
2.48751
21
25.4021
0
LINE
8
Black
10
2.48751
20
25.4021
11
2.57809
21
25.4544
0
LINE
8
Black
10
2.57809
20
25.4544
11
2.68108
21
25.4726
0
LINE
8
Black
10
2.68108
20
25.4726
11
2.78408
21
25.4544
0
LINE
8
Black
10
29.303
20
27.083
11
29.3936
21
27.0307
0
LINE
8
Black
10
29.3936
20
27.0307
11
29.4608
21
26.9506
0
LINE
8
Black
10
29.4608
20
26.9506
11
29.4966
21
26.8523
0
LINE
8
Black
10
29.4966
20
26.8523
11
29.4966
21
26.7477
0
LINE
8
Black
10
29.4966
20
26.7477
11
29.4608
21
26.6494
0
LINE
8
Black
10
29.4608
20
26.6494
11
29.3936
21
26.5693
0
LINE
8
Black
10
29.3936
20
26.5693
11
29.303
21
26.517
0
LINE
8
Black
10
29.303
20
26.517
11
29.2
21
26.4989
0
LINE
8
Black
10
29.2
20
26.4989
11
29.097
21
26.517
0
LINE
8
Black
10
29.097
20
26.517
11
29.0064
21
26.5693
0
LINE
8
Black
10
29.0064
20
26.5693
11
28.9392
21
26.6494
0
LINE
8
Black
10
28.9392
20
26.6494
11
28.9034
21
26.7477
0
LINE
8
Black
10
28.9034
20
26.7477
11
28.9034
21
26.8523
0
LINE
8
Black
10
28.9034
20
26.8523
11
28.9392
21
26.9506
0
LINE
8
Black
10
28.9392
20
26.9506
11
29.0064
21
27.0307
0
LINE
8
Black
10
29.0064
20
27.0307
11
29.097
21
27.083
0
LINE
8
Black
10
29.097
20
27.083
11
29.2
21
27.1011
0
LINE
8
Black
10
29.2
20
27.1011
11
29.303
21
27.083
0
LINE
8
Black
10
27.1275
20
28.7123
11
27.442
21
28.5308
0
LINE
8
Black
10
27.442
20
28.5308
11
27.6753
21
28.2527
0
LINE
8
Black
10
27.6753
20
28.2527
11
27.7995
21
27.9115
0
LINE
8
Black
10
27.7995
20
27.9115
11
27.7995
21
27.5485
0
LINE
8
Black
10
27.7995
20
27.5485
11
27.6753
21
27.2073
0
LINE
8
Black
10
27.6753
20
27.2073
11
27.442
21
26.9292
0
LINE
8
Black
10
27.442
20
26.9292
11
27.1275
21
26.7477
0
LINE
8
Black
10
27.1275
20
26.7477
11
26.77
21
26.6846
0
LINE
8
Black
10
26.77
20
26.6846
11
26.4125
21
26.7477
0
LINE
8
Black
10
26.4125
20
26.7477
11
26.098
21
26.9292
0
LINE
8
Black
10
26.098
20
26.9292
11
25.8647
21
27.2073
0
LINE
8
Black
10
25.8647
20
27.2073
11
25.7405
21
27.5485
0
LINE
8
Black
10
25.7405
20
27.5485
11
25.7405
21
27.9115
0
LINE
8
Black
10
25.7405
20
27.9115
11
25.8647
21
28.2527
0
LINE
8
Black
10
25.8647
20
28.2527
11
26.098
21
28.5308
0
LINE
8
Black
10
26.098
20
28.5308
11
26.4125
21
28.7123
0
LINE
8
Black
10
26.4125
20
28.7123
11
26.77
21
28.7754
0
LINE
8
Black
10
26.77
20
28.7754
11
27.1275
21
28.7123
0
LINE
8
Black
10
24.5875
20
28.7123
11
24.902
21
28.5308
0
LINE
8
Black
10
24.902
20
28.5308
11
25.1353
21
28.2527
0
LINE
8
Black
10
25.1353
20
28.2527
11
25.2595
21
27.9115
0
LINE
8
Black
10
25.2595
20
27.9115
11
25.2595
21
27.5485
0
LINE
8
Black
10
25.2595
20
27.5485
11
25.1353
21
27.2073
0
LINE
8
Black
10
25.1353
20
27.2073
11
24.902
21
26.9292
0
LINE
8
Black
10
24.902
20
26.9292
11
24.5875
21
26.7477
0
LINE
8
Black
10
24.5875
20
26.7477
11
24.23
21
26.6846
0
LINE
8
Black
10
24.23
20
26.6846
11
23.8725
21
26.7477
0
LINE
8
Black
10
23.8725
20
26.7477
11
23.558
21
26.9292
0
LINE
8
Black
10
23.558
20
26.9292
11
23.3247
21
27.2073
0
LINE
8
Black
10
23.3247
20
27.2073
11
23.2005
21
27.5485
0
LINE
8
Black
10
23.2005
20
27.5485
11
23.2005
21
27.9115
0
LINE
8
Black
10
23.2005
20
27.9115
11
23.3247
21
28.2527
0
LINE
8
Black
10
23.3247
20
28.2527
11
23.558
21
28.5308
0
LINE
8
Black
10
23.558
20
28.5308
11
23.8725
21
28.7123
0
LINE
8
Black
10
23.8725
20
28.7123
11
24.23
21
28.7754
0
LINE
8
Black
10
24.23
20
28.7754
11
24.5875
21
28.7123
0
LINE
8
Black
10
17.5875
20
28.7123
11
17.902
21
28.5308
0
LINE
8
Black
10
17.902
20
28.5308
11
18.1353
21
28.2527
0
LINE
8
Black
10
18.1353
20
28.2527
11
18.2595
21
27.9115
0
LINE
8
Black
10
18.2595
20
27.9115
11
18.2595
21
27.5485
0
LINE
8
Black
10
18.2595
20
27.5485
11
18.1353
21
27.2073
0
LINE
8
Black
10
18.1353
20
27.2073
11
17.902
21
26.9292
0
LINE
8
Black
10
17.902
20
26.9292
11
17.5875
21
26.7477
0
LINE
8
Black
10
17.5875
20
26.7477
11
17.23
21
26.6846
0
LINE
8
Black
10
17.23
20
26.6846
11
16.8725
21
26.7477
0
LINE
8
Black
10
16.8725
20
26.7477
11
16.558
21
26.9292
0
LINE
8
Black
10
16.558
20
26.9292
11
16.3247
21
27.2073
0
LINE
8
Black
10
16.3247
20
27.2073
11
16.3164
21
27.23
0
LINE
8
Black
10
16.3164
20
27.23
11
13.9167
21
27.23
0
LINE
8
Black
10
13.9167
20
27.23
11
13.7596
21
27.1879
0
LINE
8
Black
10
13.7596
20
27.1879
11
13.5866
21
27.203
0
LINE
8
Black
10
13.5866
20
27.203
11
13.4292
21
27.2764
0
LINE
8
Black
10
13.4292
20
27.2764
11
13.3064
21
27.3992
0
LINE
8
Black
10
13.3064
20
27.3992
11
13.233
21
27.5566
0
LINE
8
Black
10
13.233
20
27.5566
11
13.2179
21
27.7296
0
LINE
8
Black
10
13.2179
20
27.7296
11
13.2628
21
27.8973
0
LINE
8
Black
10
13.2628
20
27.8973
11
13.3624
21
28.0396
0
LINE
8
Black
10
13.3624
20
28.0396
11
13.4064
21
28.0836
0
LINE
8
Black
10
13.4064
20
28.0836
11
13.4245
21
28.0962
0
LINE
8
Black
10
13.4245
20
28.0962
11
13.4386
21
28.113
0
LINE
8
Black
10
13.4386
20
28.113
11
13.4952
21
28.1457
0
LINE
8
Black
10
13.4952
20
28.1457
11
13.5487
21
28.1832
0
LINE
8
Black
10
13.5487
20
28.1832
11
13.5699
21
28.1888
0
LINE
8
Black
10
13.5699
20
28.1888
11
13.589
21
28.1998
0
LINE
8
Black
10
13.589
20
28.1998
11
13.6533
21
28.2112
0
LINE
8
Black
10
13.6533
20
28.2112
11
13.7164
21
28.2281
0
LINE
8
Black
10
13.7164
20
28.2281
11
13.7383
21
28.2262
0
LINE
8
Black
10
13.7383
20
28.2262
11
13.76
21
28.23
0
LINE
8
Black
10
13.76
20
28.23
11
16.3164
21
28.23
0
LINE
8
Black
10
16.3164
20
28.23
11
16.3247
21
28.2527
0
LINE
8
Black
10
16.3247
20
28.2527
11
16.558
21
28.5308
0
LINE
8
Black
10
16.558
20
28.5308
11
16.8725
21
28.7123
0
LINE
8
Black
10
16.8725
20
28.7123
11
17.23
21
28.7754
0
LINE
8
Black
10
17.23
20
28.7754
11
17.5875
21
28.7123
0
LINE
8
Black
10
16.4271
20
30.8455
11
18.2631
21
29.9095
0
LINE
8
Black
10
18.2631
20
29.9095
11
18.3255
21
29.8624
0
LINE
8
Black
10
18.3255
20
29.8624
11
18.3896
21
29.8176
0
LINE
8
Black
10
18.3896
20
29.8176
11
19.4824
21
28.7247
0
LINE
8
Black
10
19.4824
20
28.7247
11
19.77
21
28.7754
0
LINE
8
Black
10
19.77
20
28.7754
11
20.1275
21
28.7123
0
LINE
8
Black
10
20.1275
20
28.7123
11
20.442
21
28.5308
0
LINE
8
Black
10
20.442
20
28.5308
11
20.6753
21
28.2527
0
LINE
8
Black
10
20.6753
20
28.2527
11
20.7995
21
27.9115
0
LINE
8
Black
10
20.7995
20
27.9115
11
20.7995
21
27.5485
0
LINE
8
Black
10
20.7995
20
27.5485
11
20.6753
21
27.2073
0
LINE
8
Black
10
20.6753
20
27.2073
11
20.442
21
26.9292
0
LINE
8
Black
10
20.442
20
26.9292
11
20.1275
21
26.7477
0
LINE
8
Black
10
20.1275
20
26.7477
11
19.77
21
26.6846
0
LINE
8
Black
10
19.77
20
26.6846
11
19.4125
21
26.7477
0
LINE
8
Black
10
19.4125
20
26.7477
11
19.098
21
26.9292
0
LINE
8
Black
10
19.098
20
26.9292
11
18.8647
21
27.2073
0
LINE
8
Black
10
18.8647
20
27.2073
11
18.7405
21
27.5485
0
LINE
8
Black
10
18.7405
20
27.5485
11
18.7405
21
27.9115
0
LINE
8
Black
10
18.7405
20
27.9115
11
18.7781
21
28.0148
0
LINE
8
Black
10
18.7781
20
28.0148
11
17.7384
21
29.0545
0
LINE
8
Black
10
17.7384
20
29.0545
11
15.9729
21
29.9545
0
LINE
8
Black
10
15.9729
20
29.9545
11
15.8342
21
30.0591
0
LINE
8
Black
10
15.8342
20
30.0591
11
15.7397
21
30.2047
0
LINE
8
Black
10
15.7397
20
30.2047
11
15.7007
21
30.3739
0
LINE
8
Black
10
15.7007
20
30.3739
11
15.7219
21
30.5463
0
LINE
8
Black
10
15.7219
20
30.5463
11
15.8007
21
30.701
0
LINE
8
Black
10
15.8007
20
30.701
11
15.9278
21
30.8194
0
LINE
8
Black
10
15.9278
20
30.8194
11
16.0876
21
30.8872
0
LINE
8
Black
10
16.0876
20
30.8872
11
16.261
21
30.8963
0
LINE
8
Black
10
16.261
20
30.8963
11
16.4271
21
30.8455
0
LINE
8
Black
10
3.58754
20
28.7123
11
3.90196
21
28.5308
0
LINE
8
Black
10
3.90196
20
28.5308
11
4.13532
21
28.2527
0
LINE
8
Black
10
4.13532
20
28.2527
11
4.2595
21
27.9115
0
LINE
8
Black
10
4.2595
20
27.9115
11
4.2595
21
27.5485
0
LINE
8
Black
10
4.2595
20
27.5485
11
4.13532
21
27.2073
0
LINE
8
Black
10
4.13532
20
27.2073
11
3.90196
21
26.9292
0
LINE
8
Black
10
3.90196
20
26.9292
11
3.58754
21
26.7477
0
LINE
8
Black
10
3.58754
20
26.7477
11
3.23
21
26.6846
0
LINE
8
Black
10
3.23
20
26.6846
11
2.87246
21
26.7477
0
LINE
8
Black
10
2.87246
20
26.7477
11
2.55804
21
26.9292
0
LINE
8
Black
10
2.55804
20
26.9292
11
2.32468
21
27.2073
0
LINE
8
Black
10
2.32468
20
27.2073
11
2.2005
21
27.5485
0
LINE
8
Black
10
2.2005
20
27.5485
11
2.2005
21
27.9115
0
LINE
8
Black
10
2.2005
20
27.9115
11
2.32468
21
28.2527
0
LINE
8
Black
10
2.32468
20
28.2527
11
2.55804
21
28.5308
0
LINE
8
Black
10
2.55804
20
28.5308
11
2.87246
21
28.7123
0
LINE
8
Black
10
2.87246
20
28.7123
11
3.23
21
28.7754
0
LINE
8
Black
10
3.23
20
28.7754
11
3.58754
21
28.7123
0
LINE
8
Black
10
6.12754
20
28.7123
11
6.44196
21
28.5308
0
LINE
8
Black
10
6.44196
20
28.5308
11
6.67532
21
28.2527
0
LINE
8
Black
10
6.67532
20
28.2527
11
6.7995
21
27.9115
0
LINE
8
Black
10
6.7995
20
27.9115
11
6.7995
21
27.5485
0
LINE
8
Black
10
6.7995
20
27.5485
11
6.67532
21
27.2073
0
LINE
8
Black
10
6.67532
20
27.2073
11
6.44196
21
26.9292
0
LINE
8
Black
10
6.44196
20
26.9292
11
6.12754
21
26.7477
0
LINE
8
Black
10
6.12754
20
26.7477
11
5.77
21
26.6846
0
LINE
8
Black
10
5.77
20
26.6846
11
5.41246
21
26.7477
0
LINE
8
Black
10
5.41246
20
26.7477
11
5.09804
21
26.9292
0
LINE
8
Black
10
5.09804
20
26.9292
11
4.86468
21
27.2073
0
LINE
8
Black
10
4.86468
20
27.2073
11
4.7405
21
27.5485
0
LINE
8
Black
10
4.7405
20
27.5485
11
4.7405
21
27.9115
0
LINE
8
Black
10
4.7405
20
27.9115
11
4.86468
21
28.2527
0
LINE
8
Black
10
4.86468
20
28.2527
11
5.09804
21
28.5308
0
LINE
8
Black
10
5.09804
20
28.5308
11
5.41246
21
28.7123
0
LINE
8
Black
10
5.41246
20
28.7123
11
5.77
21
28.7754
0
LINE
8
Black
10
5.77
20
28.7754
11
6.12754
21
28.7123
0
CIRCLE
8
Black
10
6.17073
20
11.8627
40
0.2
0
CIRCLE
8
Black
10
2.27
20
16.27
40
0.2
0
CIRCLE
8
Black
10
2.27
20
13.73
40
0.2
0
CIRCLE
8
Black
10
16.3
20
11.6
40
0.2
0
CIRCLE
8
Black
10
15.4
20
11.4
40
0.2
0
CIRCLE
8
Black
10
5.77
20
27.73
40
0.2
0
CIRCLE
8
Black
10
5.47716
20
11.04
40
0.2
0
CIRCLE
8
Black
10
3.23
20
27.73
40
0.2
0
CIRCLE
8
Black
10
5.58405
20
10
40
0.2
0
CIRCLE
8
Black
10
3.23
20
2.27
40
0.2
0
CIRCLE
8
Black
10
15.9404
20
9.83999
40
0.2
0
CIRCLE
8
Black
10
5.77
20
2.27
40
0.2
0
CIRCLE
8
Black
10
16.2013
20
9.12616
40
0.2
0
CIRCLE
8
Black
10
16.2
20
30.4
40
0.2
0
CIRCLE
8
Black
10
6.8
20
12.6
40
0.2
0
CIRCLE
8
Black
10
6.872
20
16.2223
40
0.2
0
CIRCLE
8
Black
10
13.716
20
27.686
40
0.2
0
CIRCLE
8
Black
10
6.14406
20
9.29081
40
0.2
0
CIRCLE
8
Black
10
13.716
20
2.286
40
0.2
0
CIRCLE
8
Black
10
5.7
20
8.5
40
0.2
0
CIRCLE
8
Black
10
13.6745
20
6.46643
40
0.2
0
CIRCLE
8
Black
10
12
20
3.6
40
0.2
0
CIRCLE
8
Black
10
15.494
20
0.762
40
0.2
0
CIRCLE
8
Black
10
15.7
20
8.5
40
0.2
0
CIRCLE
8
Black
10
26.77
20
27.73
40
0.2
0
CIRCLE
8
Black
10
16.8
20
7.9
40
0.2
0
CIRCLE
8
Black
10
23.2195
20
18.288
40
0.2
0
CIRCLE
8
Black
10
24.638
20
18.288
40
0.2
0
CIRCLE
8
Black
10
24.23
20
27.73
40
0.2
0
CIRCLE
8
Black
10
6.69
20
7.75
40
0.2
0
CIRCLE
8
Black
10
24.23
20
2.27
40
0.2
0
CIRCLE
8
Black
10
8.8
20
5.4
40
0.2
0
CIRCLE
8
Black
10
26.77
20
2.27
40
0.2
0
CIRCLE
8
Black
10
18
20
6
40
0.2
0
CIRCLE
8
Black
10
27.73
20
13.73
40
0.2
0
CIRCLE
8
Black
10
19.2
20
6.3
40
0.2
0
CIRCLE
8
Black
10
27.73
20
16.27
40
0.2
0
CIRCLE
8
Black
10
24.8
20
13.8
40
0.2
0
CIRCLE
8
Black
10
10.2
20
5.6
40
0.2
0
CIRCLE
8
Black
10
27.2
20
23.6
40
0.2
0
CIRCLE
8
Black
10
29.2
20
26.8
40
0.2
0
CIRCLE
8
Black
10
3.4
20
21.378
40
0.2
0
CIRCLE
8
Black
10
10.3
20
24.1
40
0.2
0
CIRCLE
8
Black
10
14.3
20
15.3
40
0.2
0
CIRCLE
8
Black
10
20
20
6.9
40
0.2
0
CIRCLE
8
Black
10
6.33
20
18.8
40
0.2
0
CIRCLE
8
Black
10
19.8
20
14.3
40
0.2
0
CIRCLE
8
Black
10
10
20
15.2
40
0.2
0
CIRCLE
8
Black
10
10
20
6.8
40
0.2
0
CIRCLE
8
Black
10
5.51101
20
21.3226
40
0.2
0
CIRCLE
8
Black
10
10.2
20
22.8
40
0.2
0
CIRCLE
8
Black
10
11.2
20
4.3
40
0.2
0
CIRCLE
8
Black
10
21.336
20
2.794
40
0.2
0
CIRCLE
8
Black
10
12.7
20
7.7
40
0.2
0
CIRCLE
8
Black
10
8.636
20
2.794
40
0.2
0
CIRCLE
8
Black
10
11.4
20
13.3
40
0.2
0
CIRCLE
8
Black
10
17.9338
20
13.2211
40
0.2
0
CIRCLE
8
Black
10
10.56
20
13.901
40
0.2
0
CIRCLE
8
Black
10
8.9
20
18.8
40
0.2
0
CIRCLE
8
Black
10
2.7305
20
18.923
40
0.2
0
CIRCLE
8
Black
10
20.4
20
15.2
40
0.2
0
CIRCLE
8
Black
10
17.79
20
14.3565
40
0.2
0
CIRCLE
8
Black
10
9.54524
20
16.5533
40
0.2
0
CIRCLE
8
Black
10
2.68108
20
25.1714
40
0.2
0
CIRCLE
8
Black
10
7.5
20
18.6
40
0.2
0
CIRCLE
8
Black
10
8
20
14.5
40
0.2
0
CIRCLE
8
Black
10
16.6
20
5.3
40
0.2
0
CIRCLE
8
Black
10
18.542
20
3.556
40
0.2
0
CIRCLE
8
Black
10
21.844
20
7.5
40
0.2
0
CIRCLE
8
Black
10
15
20
5.6
40
0.2
0
CIRCLE
8
Black
10
22.6
20
8.08599
40
0.2
0
CIRCLE
8
Black
10
11.938
20
2.54
40
0.2
0
CIRCLE
8
Black
10
21.236
20
15.5368
40
0.2
0
CIRCLE
8
Black
10
15
20
20.3
40
0.2
0
CIRCLE
8
Black
10
4.58584
20
13.86
40
0.2
0
CIRCLE
8
Black
10
16.891
20
22.86
40
0.2
0
CIRCLE
8
Black
10
2.667
20
10.8585
40
0.2
0
CIRCLE
8
Black
10
2.921
20
7.3025
40
0.2
0
CIRCLE
8
Black
10
6.23999
20
14.2761
40
0.2
0
CIRCLE
8
Black
10
3.7
20
10.32
40
0.2
0
CIRCLE
8
Black
10
2.6
20
5.6
40
0.2
0
CIRCLE
8
Black
10
16.891
20
21.59
40
0.2
  0
ENDSEC
  0
EOF
