  0
SECTION
  2
HEADER
  9
$ANGBASE
  50
0.0
  9
$ANGDIR
  70
  1
  9
$MEASUREMENT
  70
0
  0
ENDSEC
  0
SECTION
  2
TABLES
  0
TABLE
  2
LTYPE
  70
1
  0
LTYPE
  2
CONTINUOUS
  70
0
  3
Solid line
  72
65
  73
0
  40
0.0
  0
ENDTAB
  0
TABLE
  2
STYLE
  70
4
  0
STYLE
  2
KICAD
  70
0
  40
0
  41
1
  42
1
  50
0
  71
0
  3
isocp.shx
  0
STYLE
  2
KICADB
  70
0
  40
0
  41
1
  42
1
  50
0
  71
0
  3
isocp.shx
  0
STYLE
  2
KICADI
  70
0
  40
0
  41
1
  42
1
  50
15
  71
0
  3
isocp.shx
  0
STYLE
  2
KICADBI
  70
0
  40
0
  41
1
  42
1
  50
15
  71
0
  3
isocp.shx
  0
ENDTAB
  0
TABLE
  2
LAYER
  70
30
  0
LAYER
  2
BLACK
  70
0
  62
7
  6
CONTINUOUS
  0
LAYER
  2
GRAY1
  70
0
  62
251
  6
CONTINUOUS
  0
LAYER
  2
GRAY2
  70
0
  62
8
  6
CONTINUOUS
  0
LAYER
  2
GRAY3
  70
0
  62
9
  6
CONTINUOUS
  0
LAYER
  2
WHITE
  70
0
  62
7
  6
CONTINUOUS
  0
LAYER
  2
LYELLOW
  70
0
  62
51
  6
CONTINUOUS
  0
LAYER
  2
BLUE1
  70
0
  62
178
  6
CONTINUOUS
  0
LAYER
  2
GREEN1
  70
0
  62
98
  6
CONTINUOUS
  0
LAYER
  2
CYAN1
  70
0
  62
138
  6
CONTINUOUS
  0
LAYER
  2
RED1
  70
0
  62
18
  6
CONTINUOUS
  0
LAYER
  2
MAGENTA1
  70
0
  62
228
  6
CONTINUOUS
  0
LAYER
  2
BROWN1
  70
0
  62
58
  6
CONTINUOUS
  0
LAYER
  2
BLUE2
  70
0
  62
5
  6
CONTINUOUS
  0
LAYER
  2
GREEN2
  70
0
  62
3
  6
CONTINUOUS
  0
LAYER
  2
CYAN2
  70
0
  62
4
  6
CONTINUOUS
  0
LAYER
  2
RED2
  70
0
  62
1
  6
CONTINUOUS
  0
LAYER
  2
MAGENTA2
  70
0
  62
6
  6
CONTINUOUS
  0
LAYER
  2
BROWN2
  70
0
  62
54
  6
CONTINUOUS
  0
LAYER
  2
BLUE3
  70
0
  62
171
  6
CONTINUOUS
  0
LAYER
  2
GREEN3
  70
0
  62
91
  6
CONTINUOUS
  0
LAYER
  2
CYAN3
  70
0
  62
131
  6
CONTINUOUS
  0
LAYER
  2
RED3
  70
0
  62
11
  6
CONTINUOUS
  0
LAYER
  2
MAGENTA3
  70
0
  62
221
  6
CONTINUOUS
  0
LAYER
  2
YELLOW3
  70
0
  62
2
  6
CONTINUOUS
  0
LAYER
  2
BLUE4
  70
0
  62
5
  6
CONTINUOUS
  0
LAYER
  2
GREEN4
  70
0
  62
3
  6
CONTINUOUS
  0
LAYER
  2
CYAN4
  70
0
  62
4
  6
CONTINUOUS
  0
LAYER
  2
RED4
  70
0
  62
1
  6
CONTINUOUS
  0
LAYER
  2
MAGENTA4
  70
0
  62
6
  6
CONTINUOUS
  0
LAYER
  2
YELLOW4
  70
0
  62
2
  6
CONTINUOUS
  0
ENDTAB
  0
ENDSEC
  0
SECTION
  2
ENTITIES
0
LINE
8
Black
10
6.12754
20
3.25233
11
6.44196
21
3.07081
0
LINE
8
Black
10
6.44196
20
3.07081
11
6.67532
21
2.79269
0
LINE
8
Black
10
6.67532
20
2.79269
11
6.7995
21
2.45153
0
LINE
8
Black
10
6.7995
20
2.45153
11
6.7995
21
2.08847
0
LINE
8
Black
10
6.7995
20
2.08847
11
6.67532
21
1.74731
0
LINE
8
Black
10
6.67532
20
1.74731
11
6.44196
21
1.46919
0
LINE
8
Black
10
6.44196
20
1.46919
11
6.12754
21
1.28767
0
LINE
8
Black
10
6.12754
20
1.28767
11
5.77
21
1.22462
0
LINE
8
Black
10
5.77
20
1.22462
11
5.41246
21
1.28767
0
LINE
8
Black
10
5.41246
20
1.28767
11
5.09804
21
1.46919
0
LINE
8
Black
10
5.09804
20
1.46919
11
4.86468
21
1.74731
0
LINE
8
Black
10
4.86468
20
1.74731
11
4.7405
21
2.08847
0
LINE
8
Black
10
4.7405
20
2.08847
11
4.7405
21
2.45153
0
LINE
8
Black
10
4.7405
20
2.45153
11
4.86468
21
2.79269
0
LINE
8
Black
10
4.86468
20
2.79269
11
5.09804
21
3.07081
0
LINE
8
Black
10
5.09804
20
3.07081
11
5.41246
21
3.25233
0
LINE
8
Black
10
5.41246
20
3.25233
11
5.77
21
3.31538
0
LINE
8
Black
10
5.77
20
3.31538
11
6.12754
21
3.25233
0
LINE
8
Black
10
3.58754
20
3.25233
11
3.90196
21
3.07081
0
LINE
8
Black
10
3.90196
20
3.07081
11
4.13532
21
2.79269
0
LINE
8
Black
10
4.13532
20
2.79269
11
4.2595
21
2.45153
0
LINE
8
Black
10
4.2595
20
2.45153
11
4.2595
21
2.08847
0
LINE
8
Black
10
4.2595
20
2.08847
11
4.13532
21
1.74731
0
LINE
8
Black
10
4.13532
20
1.74731
11
3.90196
21
1.46919
0
LINE
8
Black
10
3.90196
20
1.46919
11
3.58754
21
1.28767
0
LINE
8
Black
10
3.58754
20
1.28767
11
3.23
21
1.22462
0
LINE
8
Black
10
3.23
20
1.22462
11
2.87246
21
1.28767
0
LINE
8
Black
10
2.87246
20
1.28767
11
2.55804
21
1.46919
0
LINE
8
Black
10
2.55804
20
1.46919
11
2.32468
21
1.74731
0
LINE
8
Black
10
2.32468
20
1.74731
11
2.2005
21
2.08847
0
LINE
8
Black
10
2.2005
20
2.08847
11
2.2005
21
2.45153
0
LINE
8
Black
10
2.2005
20
2.45153
11
2.32468
21
2.79269
0
LINE
8
Black
10
2.32468
20
2.79269
11
2.55804
21
3.07081
0
LINE
8
Black
10
2.55804
20
3.07081
11
2.87246
21
3.25233
0
LINE
8
Black
10
2.87246
20
3.25233
11
3.23
21
3.31538
0
LINE
8
Black
10
3.23
20
3.31538
11
3.58754
21
3.25233
0
LINE
8
Black
10
17.5875
20
3.25233
11
17.902
21
3.07081
0
LINE
8
Black
10
17.902
20
3.07081
11
18.1353
21
2.79269
0
LINE
8
Black
10
18.1353
20
2.79269
11
18.2595
21
2.45153
0
LINE
8
Black
10
18.2595
20
2.45153
11
18.2595
21
2.08847
0
LINE
8
Black
10
18.2595
20
2.08847
11
18.1353
21
1.74731
0
LINE
8
Black
10
18.1353
20
1.74731
11
17.902
21
1.46919
0
LINE
8
Black
10
17.902
20
1.46919
11
17.5875
21
1.28767
0
LINE
8
Black
10
17.5875
20
1.28767
11
17.23
21
1.22462
0
LINE
8
Black
10
17.23
20
1.22462
11
16.8725
21
1.28767
0
LINE
8
Black
10
16.8725
20
1.28767
11
16.558
21
1.46919
0
LINE
8
Black
10
16.558
20
1.46919
11
16.3247
21
1.74731
0
LINE
8
Black
10
16.3247
20
1.74731
11
16.2005
21
2.08847
0
LINE
8
Black
10
16.2005
20
2.08847
11
16.2005
21
2.45153
0
LINE
8
Black
10
16.2005
20
2.45153
11
16.3247
21
2.79269
0
LINE
8
Black
10
16.3247
20
2.79269
11
16.558
21
3.07081
0
LINE
8
Black
10
16.558
20
3.07081
11
16.8725
21
3.25233
0
LINE
8
Black
10
16.8725
20
3.25233
11
17.23
21
3.31538
0
LINE
8
Black
10
17.23
20
3.31538
11
17.5875
21
3.25233
0
LINE
8
Black
10
20.1275
20
3.25233
11
20.442
21
3.07081
0
LINE
8
Black
10
20.442
20
3.07081
11
20.6753
21
2.79269
0
LINE
8
Black
10
20.6753
20
2.79269
11
20.7995
21
2.45153
0
LINE
8
Black
10
20.7995
20
2.45153
11
20.7995
21
2.08847
0
LINE
8
Black
10
20.7995
20
2.08847
11
20.6753
21
1.74731
0
LINE
8
Black
10
20.6753
20
1.74731
11
20.442
21
1.46919
0
LINE
8
Black
10
20.442
20
1.46919
11
20.1275
21
1.28767
0
LINE
8
Black
10
20.1275
20
1.28767
11
19.77
21
1.22462
0
LINE
8
Black
10
19.77
20
1.22462
11
19.4125
21
1.28767
0
LINE
8
Black
10
19.4125
20
1.28767
11
19.098
21
1.46919
0
LINE
8
Black
10
19.098
20
1.46919
11
18.8647
21
1.74731
0
LINE
8
Black
10
18.8647
20
1.74731
11
18.7405
21
2.08847
0
LINE
8
Black
10
18.7405
20
2.08847
11
18.7405
21
2.45153
0
LINE
8
Black
10
18.7405
20
2.45153
11
18.8647
21
2.79269
0
LINE
8
Black
10
18.8647
20
2.79269
11
19.098
21
3.07081
0
LINE
8
Black
10
19.098
20
3.07081
11
19.4125
21
3.25233
0
LINE
8
Black
10
19.4125
20
3.25233
11
19.77
21
3.31538
0
LINE
8
Black
10
19.77
20
3.31538
11
20.1275
21
3.25233
0
LINE
8
Black
10
24.5875
20
3.25233
11
24.902
21
3.07081
0
LINE
8
Black
10
24.902
20
3.07081
11
25.1353
21
2.79269
0
LINE
8
Black
10
25.1353
20
2.79269
11
25.2595
21
2.45153
0
LINE
8
Black
10
25.2595
20
2.45153
11
25.2595
21
2.08847
0
LINE
8
Black
10
25.2595
20
2.08847
11
25.1353
21
1.74731
0
LINE
8
Black
10
25.1353
20
1.74731
11
24.902
21
1.46919
0
LINE
8
Black
10
24.902
20
1.46919
11
24.5875
21
1.28767
0
LINE
8
Black
10
24.5875
20
1.28767
11
24.23
21
1.22462
0
LINE
8
Black
10
24.23
20
1.22462
11
23.8725
21
1.28767
0
LINE
8
Black
10
23.8725
20
1.28767
11
23.558
21
1.46919
0
LINE
8
Black
10
23.558
20
1.46919
11
23.3247
21
1.74731
0
LINE
8
Black
10
23.3247
20
1.74731
11
23.2005
21
2.08847
0
LINE
8
Black
10
23.2005
20
2.08847
11
23.2005
21
2.45153
0
LINE
8
Black
10
23.2005
20
2.45153
11
23.3247
21
2.79269
0
LINE
8
Black
10
23.3247
20
2.79269
11
23.558
21
3.07081
0
LINE
8
Black
10
23.558
20
3.07081
11
23.8725
21
3.25233
0
LINE
8
Black
10
23.8725
20
3.25233
11
24.23
21
3.31538
0
LINE
8
Black
10
24.23
20
3.31538
11
24.5875
21
3.25233
0
LINE
8
Black
10
27.1275
20
3.25233
11
27.442
21
3.07081
0
LINE
8
Black
10
27.442
20
3.07081
11
27.6753
21
2.79269
0
LINE
8
Black
10
27.6753
20
2.79269
11
27.7995
21
2.45153
0
LINE
8
Black
10
27.7995
20
2.45153
11
27.7995
21
2.08847
0
LINE
8
Black
10
27.7995
20
2.08847
11
27.6753
21
1.74731
0
LINE
8
Black
10
27.6753
20
1.74731
11
27.442
21
1.46919
0
LINE
8
Black
10
27.442
20
1.46919
11
27.1275
21
1.28767
0
LINE
8
Black
10
27.1275
20
1.28767
11
26.77
21
1.22462
0
LINE
8
Black
10
26.77
20
1.22462
11
26.4125
21
1.28767
0
LINE
8
Black
10
26.4125
20
1.28767
11
26.098
21
1.46919
0
LINE
8
Black
10
26.098
20
1.46919
11
25.8647
21
1.74731
0
LINE
8
Black
10
25.8647
20
1.74731
11
25.7405
21
2.08847
0
LINE
8
Black
10
25.7405
20
2.08847
11
25.7405
21
2.45153
0
LINE
8
Black
10
25.7405
20
2.45153
11
25.8647
21
2.79269
0
LINE
8
Black
10
25.8647
20
2.79269
11
26.098
21
3.07081
0
LINE
8
Black
10
26.098
20
3.07081
11
26.4125
21
3.25233
0
LINE
8
Black
10
26.4125
20
3.25233
11
26.77
21
3.31538
0
LINE
8
Black
10
26.77
20
3.31538
11
27.1275
21
3.25233
0
LINE
8
Black
10
19.7
20
7.65
11
19.5
21
7.65
0
LINE
8
Black
10
19.5
20
7.65
11
19.5
21
8.45
0
LINE
8
Black
10
19.5
20
8.45
11
19.7
21
8.45
0
LINE
8
Black
10
19.7
20
8.45
11
19.7
21
7.65
0
LINE
8
Black
10
11.3
20
7.65
11
11.1
21
7.65
0
LINE
8
Black
10
11.1
20
7.65
11
11.1
21
8.45
0
LINE
8
Black
10
11.1
20
8.45
11
11.3
21
8.45
0
LINE
8
Black
10
11.3
20
8.45
11
11.3
21
7.65
0
LINE
8
Black
10
10.9
20
7.65
11
10.7
21
7.65
0
LINE
8
Black
10
10.7
20
7.65
11
10.7
21
8.45
0
LINE
8
Black
10
10.7
20
8.45
11
10.9
21
8.45
0
LINE
8
Black
10
10.9
20
8.45
11
10.9
21
7.65
0
LINE
8
Black
10
18.9
20
7.65
11
18.7
21
7.65
0
LINE
8
Black
10
18.7
20
7.65
11
18.7
21
8.45
0
LINE
8
Black
10
18.7
20
8.45
11
18.9
21
8.45
0
LINE
8
Black
10
18.9
20
8.45
11
18.9
21
7.65
0
LINE
8
Black
10
19.3
20
7.65
11
19.1
21
7.65
0
LINE
8
Black
10
19.1
20
7.65
11
19.1
21
8.45
0
LINE
8
Black
10
19.1
20
8.45
11
19.3
21
8.45
0
LINE
8
Black
10
19.3
20
8.45
11
19.3
21
7.65
0
LINE
8
Black
10
20.1
20
7.65
11
19.9
21
7.65
0
LINE
8
Black
10
19.9
20
7.65
11
19.9
21
8.45
0
LINE
8
Black
10
19.9
20
8.45
11
20.1
21
8.45
0
LINE
8
Black
10
20.1
20
8.45
11
20.1
21
7.65
0
LINE
8
Black
10
20.5
20
7.65
11
20.3
21
7.65
0
LINE
8
Black
10
20.3
20
7.65
11
20.3
21
8.45
0
LINE
8
Black
10
20.3
20
8.45
11
20.5
21
8.45
0
LINE
8
Black
10
20.5
20
8.45
11
20.5
21
7.65
0
LINE
8
Black
10
20.9
20
7.65
11
20.7
21
7.65
0
LINE
8
Black
10
20.7
20
7.65
11
20.7
21
8.45
0
LINE
8
Black
10
20.7
20
8.45
11
20.9
21
8.45
0
LINE
8
Black
10
20.9
20
8.45
11
20.9
21
7.65
0
LINE
8
Black
10
21.3
20
7.65
11
21.1
21
7.65
0
LINE
8
Black
10
21.1
20
7.65
11
21.1
21
8.45
0
LINE
8
Black
10
21.1
20
8.45
11
21.3
21
8.45
0
LINE
8
Black
10
21.3
20
8.45
11
21.3
21
7.65
0
LINE
8
Black
10
10.5
20
7.65
11
10.3
21
7.65
0
LINE
8
Black
10
10.3
20
7.65
11
10.3
21
8.45
0
LINE
8
Black
10
10.3
20
8.45
11
10.5
21
8.45
0
LINE
8
Black
10
10.5
20
8.45
11
10.5
21
7.65
0
LINE
8
Black
10
10.1
20
7.65
11
9.9
21
7.65
0
LINE
8
Black
10
9.9
20
7.65
11
9.9
21
8.45
0
LINE
8
Black
10
9.9
20
8.45
11
10.1
21
8.45
0
LINE
8
Black
10
10.1
20
8.45
11
10.1
21
7.65
0
LINE
8
Black
10
9.7
20
7.65
11
9.5
21
7.65
0
LINE
8
Black
10
9.5
20
7.65
11
9.5
21
8.45
0
LINE
8
Black
10
9.5
20
8.45
11
9.7
21
8.45
0
LINE
8
Black
10
9.7
20
8.45
11
9.7
21
7.65
0
LINE
8
Black
10
9.3
20
7.65
11
9.1
21
7.65
0
LINE
8
Black
10
9.1
20
7.65
11
9.1
21
8.45
0
LINE
8
Black
10
9.1
20
8.45
11
9.3
21
8.45
0
LINE
8
Black
10
9.3
20
8.45
11
9.3
21
7.65
0
LINE
8
Black
10
8.9
20
7.65
11
8.7
21
7.65
0
LINE
8
Black
10
8.7
20
7.65
11
8.7
21
8.45
0
LINE
8
Black
10
8.7
20
8.45
11
8.9
21
8.45
0
LINE
8
Black
10
8.9
20
8.45
11
8.9
21
7.65
0
LINE
8
Black
10
18.45
20
8.7
11
17.65
21
8.7
0
LINE
8
Black
10
17.65
20
8.7
11
17.65
21
8.9
0
LINE
8
Black
10
17.65
20
8.9
11
18.45
21
8.9
0
LINE
8
Black
10
18.45
20
8.9
11
18.45
21
8.7
0
LINE
8
Black
10
22.35
20
8.7
11
21.55
21
8.7
0
LINE
8
Black
10
21.55
20
8.7
11
21.55
21
8.9
0
LINE
8
Black
10
21.55
20
8.9
11
22.35
21
8.9
0
LINE
8
Black
10
22.35
20
8.9
11
22.35
21
8.7
0
LINE
8
Black
10
12.35
20
8.7
11
11.55
21
8.7
0
LINE
8
Black
10
11.55
20
8.7
11
11.55
21
8.9
0
LINE
8
Black
10
11.55
20
8.9
11
12.35
21
8.9
0
LINE
8
Black
10
12.35
20
8.9
11
12.35
21
8.7
0
LINE
8
Black
10
8.45
20
8.7
11
7.65
21
8.7
0
LINE
8
Black
10
7.65
20
8.7
11
7.65
21
8.9
0
LINE
8
Black
10
7.65
20
8.9
11
8.45
21
8.9
0
LINE
8
Black
10
8.45
20
8.9
11
8.45
21
8.7
0
LINE
8
Black
10
19.76
20
9.04
11
19.04
21
9.04
0
LINE
8
Black
10
19.04
20
9.04
11
19.04
21
9.76
0
LINE
8
Black
10
19.04
20
9.76
11
19.76
21
9.76
0
LINE
8
Black
10
19.76
20
9.76
11
19.76
21
9.04
0
LINE
8
Black
10
10.96
20
9.04
11
10.24
21
9.04
0
LINE
8
Black
10
10.24
20
9.04
11
10.24
21
9.76
0
LINE
8
Black
10
10.24
20
9.76
11
10.96
21
9.76
0
LINE
8
Black
10
10.96
20
9.76
11
10.96
21
9.04
0
LINE
8
Black
10
9.76
20
9.04
11
9.04
21
9.04
0
LINE
8
Black
10
9.04
20
9.04
11
9.04
21
9.76
0
LINE
8
Black
10
9.04
20
9.76
11
9.76
21
9.76
0
LINE
8
Black
10
9.76
20
9.76
11
9.76
21
9.04
0
LINE
8
Black
10
20.96
20
9.04
11
20.24
21
9.04
0
LINE
8
Black
10
20.24
20
9.04
11
20.24
21
9.76
0
LINE
8
Black
10
20.24
20
9.76
11
20.96
21
9.76
0
LINE
8
Black
10
20.96
20
9.76
11
20.96
21
9.04
0
LINE
8
Black
10
8.45
20
9.1
11
7.65
21
9.1
0
LINE
8
Black
10
7.65
20
9.1
11
7.65
21
9.3
0
LINE
8
Black
10
7.65
20
9.3
11
8.45
21
9.3
0
LINE
8
Black
10
8.45
20
9.3
11
8.45
21
9.1
0
LINE
8
Black
10
12.35
20
9.1
11
11.55
21
9.1
0
LINE
8
Black
10
11.55
20
9.1
11
11.55
21
9.3
0
LINE
8
Black
10
11.55
20
9.3
11
12.35
21
9.3
0
LINE
8
Black
10
12.35
20
9.3
11
12.35
21
9.1
0
LINE
8
Black
10
22.35
20
9.1
11
21.55
21
9.1
0
LINE
8
Black
10
21.55
20
9.1
11
21.55
21
9.3
0
LINE
8
Black
10
21.55
20
9.3
11
22.35
21
9.3
0
LINE
8
Black
10
22.35
20
9.3
11
22.35
21
9.1
0
LINE
8
Black
10
18.45
20
9.1
11
17.65
21
9.1
0
LINE
8
Black
10
17.65
20
9.1
11
17.65
21
9.3
0
LINE
8
Black
10
17.65
20
9.3
11
18.45
21
9.3
0
LINE
8
Black
10
18.45
20
9.3
11
18.45
21
9.1
0
LINE
8
Black
10
12.35
20
9.5
11
11.55
21
9.5
0
LINE
8
Black
10
11.55
20
9.5
11
11.55
21
9.7
0
LINE
8
Black
10
11.55
20
9.7
11
12.35
21
9.7
0
LINE
8
Black
10
12.35
20
9.7
11
12.35
21
9.5
0
LINE
8
Black
10
8.45
20
9.5
11
7.65
21
9.5
0
LINE
8
Black
10
7.65
20
9.5
11
7.65
21
9.7
0
LINE
8
Black
10
7.65
20
9.7
11
8.45
21
9.7
0
LINE
8
Black
10
8.45
20
9.7
11
8.45
21
9.5
0
LINE
8
Black
10
22.35
20
9.5
11
21.55
21
9.5
0
LINE
8
Black
10
21.55
20
9.5
11
21.55
21
9.7
0
LINE
8
Black
10
21.55
20
9.7
11
22.35
21
9.7
0
LINE
8
Black
10
22.35
20
9.7
11
22.35
21
9.5
0
LINE
8
Black
10
18.45
20
9.5
11
17.65
21
9.5
0
LINE
8
Black
10
17.65
20
9.5
11
17.65
21
9.7
0
LINE
8
Black
10
17.65
20
9.7
11
18.45
21
9.7
0
LINE
8
Black
10
18.45
20
9.7
11
18.45
21
9.5
0
LINE
8
Black
10
18.45
20
9.9
11
17.65
21
9.9
0
LINE
8
Black
10
17.65
20
9.9
11
17.65
21
10.1
0
LINE
8
Black
10
17.65
20
10.1
11
18.45
21
10.1
0
LINE
8
Black
10
18.45
20
10.1
11
18.45
21
9.9
0
LINE
8
Black
10
22.35
20
9.9
11
21.55
21
9.9
0
LINE
8
Black
10
21.55
20
9.9
11
21.55
21
10.1
0
LINE
8
Black
10
21.55
20
10.1
11
22.35
21
10.1
0
LINE
8
Black
10
22.35
20
10.1
11
22.35
21
9.9
0
LINE
8
Black
10
12.35
20
9.9
11
11.55
21
9.9
0
LINE
8
Black
10
11.55
20
9.9
11
11.55
21
10.1
0
LINE
8
Black
10
11.55
20
10.1
11
12.35
21
10.1
0
LINE
8
Black
10
12.35
20
10.1
11
12.35
21
9.9
0
LINE
8
Black
10
8.45
20
9.9
11
7.65
21
9.9
0
LINE
8
Black
10
7.65
20
9.9
11
7.65
21
10.1
0
LINE
8
Black
10
7.65
20
10.1
11
8.45
21
10.1
0
LINE
8
Black
10
8.45
20
10.1
11
8.45
21
9.9
0
LINE
8
Black
10
9.76
20
10.24
11
9.04
21
10.24
0
LINE
8
Black
10
9.04
20
10.24
11
9.04
21
10.96
0
LINE
8
Black
10
9.04
20
10.96
11
9.76
21
10.96
0
LINE
8
Black
10
9.76
20
10.96
11
9.76
21
10.24
0
LINE
8
Black
10
20.96
20
10.24
11
20.24
21
10.24
0
LINE
8
Black
10
20.24
20
10.24
11
20.24
21
10.96
0
LINE
8
Black
10
20.24
20
10.96
11
20.96
21
10.96
0
LINE
8
Black
10
20.96
20
10.96
11
20.96
21
10.24
0
LINE
8
Black
10
19.76
20
10.24
11
19.04
21
10.24
0
LINE
8
Black
10
19.04
20
10.24
11
19.04
21
10.96
0
LINE
8
Black
10
19.04
20
10.96
11
19.76
21
10.96
0
LINE
8
Black
10
19.76
20
10.96
11
19.76
21
10.24
0
LINE
8
Black
10
10.96
20
10.24
11
10.24
21
10.24
0
LINE
8
Black
10
10.24
20
10.24
11
10.24
21
10.96
0
LINE
8
Black
10
10.24
20
10.96
11
10.96
21
10.96
0
LINE
8
Black
10
10.96
20
10.96
11
10.96
21
10.24
0
LINE
8
Black
10
8.45
20
10.3
11
7.65
21
10.3
0
LINE
8
Black
10
7.65
20
10.3
11
7.65
21
10.5
0
LINE
8
Black
10
7.65
20
10.5
11
8.45
21
10.5
0
LINE
8
Black
10
8.45
20
10.5
11
8.45
21
10.3
0
LINE
8
Black
10
22.35
20
10.3
11
21.55
21
10.3
0
LINE
8
Black
10
21.55
20
10.3
11
21.55
21
10.5
0
LINE
8
Black
10
21.55
20
10.5
11
22.35
21
10.5
0
LINE
8
Black
10
22.35
20
10.5
11
22.35
21
10.3
0
LINE
8
Black
10
18.45
20
10.3
11
17.65
21
10.3
0
LINE
8
Black
10
17.65
20
10.3
11
17.65
21
10.5
0
LINE
8
Black
10
17.65
20
10.5
11
18.45
21
10.5
0
LINE
8
Black
10
18.45
20
10.5
11
18.45
21
10.3
0
LINE
8
Black
10
12.35
20
10.3
11
11.55
21
10.3
0
LINE
8
Black
10
11.55
20
10.3
11
11.55
21
10.5
0
LINE
8
Black
10
11.55
20
10.5
11
12.35
21
10.5
0
LINE
8
Black
10
12.35
20
10.5
11
12.35
21
10.3
0
LINE
8
Black
10
22.35
20
10.7
11
21.55
21
10.7
0
LINE
8
Black
10
21.55
20
10.7
11
21.55
21
10.9
0
LINE
8
Black
10
21.55
20
10.9
11
22.35
21
10.9
0
LINE
8
Black
10
22.35
20
10.9
11
22.35
21
10.7
0
LINE
8
Black
10
8.45
20
10.7
11
7.65
21
10.7
0
LINE
8
Black
10
7.65
20
10.7
11
7.65
21
10.9
0
LINE
8
Black
10
7.65
20
10.9
11
8.45
21
10.9
0
LINE
8
Black
10
8.45
20
10.9
11
8.45
21
10.7
0
LINE
8
Black
10
12.35
20
10.7
11
11.55
21
10.7
0
LINE
8
Black
10
11.55
20
10.7
11
11.55
21
10.9
0
LINE
8
Black
10
11.55
20
10.9
11
12.35
21
10.9
0
LINE
8
Black
10
12.35
20
10.9
11
12.35
21
10.7
0
LINE
8
Black
10
18.45
20
10.7
11
17.65
21
10.7
0
LINE
8
Black
10
17.65
20
10.7
11
17.65
21
10.9
0
LINE
8
Black
10
17.65
20
10.9
11
18.45
21
10.9
0
LINE
8
Black
10
18.45
20
10.9
11
18.45
21
10.7
0
LINE
8
Black
10
22.35
20
11.1
11
21.55
21
11.1
0
LINE
8
Black
10
21.55
20
11.1
11
21.55
21
11.3
0
LINE
8
Black
10
21.55
20
11.3
11
22.35
21
11.3
0
LINE
8
Black
10
22.35
20
11.3
11
22.35
21
11.1
0
LINE
8
Black
10
8.45
20
11.1
11
7.65
21
11.1
0
LINE
8
Black
10
7.65
20
11.1
11
7.65
21
11.3
0
LINE
8
Black
10
7.65
20
11.3
11
8.45
21
11.3
0
LINE
8
Black
10
8.45
20
11.3
11
8.45
21
11.1
0
LINE
8
Black
10
18.45
20
11.1
11
17.65
21
11.1
0
LINE
8
Black
10
17.65
20
11.1
11
17.65
21
11.3
0
LINE
8
Black
10
17.65
20
11.3
11
18.45
21
11.3
0
LINE
8
Black
10
18.45
20
11.3
11
18.45
21
11.1
0
LINE
8
Black
10
12.35
20
11.1
11
11.55
21
11.1
0
LINE
8
Black
10
11.55
20
11.1
11
11.55
21
11.3
0
LINE
8
Black
10
11.55
20
11.3
11
12.35
21
11.3
0
LINE
8
Black
10
12.35
20
11.3
11
12.35
21
11.1
0
LINE
8
Black
10
10.9
20
11.55
11
10.7
21
11.55
0
LINE
8
Black
10
10.7
20
11.55
11
10.7
21
12.35
0
LINE
8
Black
10
10.7
20
12.35
11
10.9
21
12.35
0
LINE
8
Black
10
10.9
20
12.35
11
10.9
21
11.55
0
LINE
8
Black
10
11.3
20
11.55
11
11.1
21
11.55
0
LINE
8
Black
10
11.1
20
11.55
11
11.1
21
12.35
0
LINE
8
Black
10
11.1
20
12.35
11
11.3
21
12.35
0
LINE
8
Black
10
11.3
20
12.35
11
11.3
21
11.55
0
LINE
8
Black
10
8.9
20
11.55
11
8.7
21
11.55
0
LINE
8
Black
10
8.7
20
11.55
11
8.7
21
12.35
0
LINE
8
Black
10
8.7
20
12.35
11
8.9
21
12.35
0
LINE
8
Black
10
8.9
20
12.35
11
8.9
21
11.55
0
LINE
8
Black
10
10.5
20
11.55
11
10.3
21
11.55
0
LINE
8
Black
10
10.3
20
11.55
11
10.3
21
12.35
0
LINE
8
Black
10
10.3
20
12.35
11
10.5
21
12.35
0
LINE
8
Black
10
10.5
20
12.35
11
10.5
21
11.55
0
LINE
8
Black
10
10.1
20
11.55
11
9.9
21
11.55
0
LINE
8
Black
10
9.9
20
11.55
11
9.9
21
12.35
0
LINE
8
Black
10
9.9
20
12.35
11
10.1
21
12.35
0
LINE
8
Black
10
10.1
20
12.35
11
10.1
21
11.55
0
LINE
8
Black
10
9.7
20
11.55
11
9.5
21
11.55
0
LINE
8
Black
10
9.5
20
11.55
11
9.5
21
12.35
0
LINE
8
Black
10
9.5
20
12.35
11
9.7
21
12.35
0
LINE
8
Black
10
9.7
20
12.35
11
9.7
21
11.55
0
LINE
8
Black
10
9.3
20
11.55
11
9.1
21
11.55
0
LINE
8
Black
10
9.1
20
11.55
11
9.1
21
12.35
0
LINE
8
Black
10
9.1
20
12.35
11
9.3
21
12.35
0
LINE
8
Black
10
9.3
20
12.35
11
9.3
21
11.55
0
LINE
8
Black
10
21.3
20
11.55
11
21.1
21
11.55
0
LINE
8
Black
10
21.1
20
11.55
11
21.1
21
12.35
0
LINE
8
Black
10
21.1
20
12.35
11
21.3
21
12.35
0
LINE
8
Black
10
21.3
20
12.35
11
21.3
21
11.55
0
LINE
8
Black
10
20.9
20
11.55
11
20.7
21
11.55
0
LINE
8
Black
10
20.7
20
11.55
11
20.7
21
12.35
0
LINE
8
Black
10
20.7
20
12.35
11
20.9
21
12.35
0
LINE
8
Black
10
20.9
20
12.35
11
20.9
21
11.55
0
LINE
8
Black
10
20.5
20
11.55
11
20.3
21
11.55
0
LINE
8
Black
10
20.3
20
11.55
11
20.3
21
12.35
0
LINE
8
Black
10
20.3
20
12.35
11
20.5
21
12.35
0
LINE
8
Black
10
20.5
20
12.35
11
20.5
21
11.55
0
LINE
8
Black
10
20.1
20
11.55
11
19.9
21
11.55
0
LINE
8
Black
10
19.9
20
11.55
11
19.9
21
12.35
0
LINE
8
Black
10
19.9
20
12.35
11
20.1
21
12.35
0
LINE
8
Black
10
20.1
20
12.35
11
20.1
21
11.55
0
LINE
8
Black
10
19.7
20
11.55
11
19.5
21
11.55
0
LINE
8
Black
10
19.5
20
11.55
11
19.5
21
12.35
0
LINE
8
Black
10
19.5
20
12.35
11
19.7
21
12.35
0
LINE
8
Black
10
19.7
20
12.35
11
19.7
21
11.55
0
LINE
8
Black
10
19.3
20
11.55
11
19.1
21
11.55
0
LINE
8
Black
10
19.1
20
11.55
11
19.1
21
12.35
0
LINE
8
Black
10
19.1
20
12.35
11
19.3
21
12.35
0
LINE
8
Black
10
19.3
20
12.35
11
19.3
21
11.55
0
LINE
8
Black
10
18.9
20
11.55
11
18.7
21
11.55
0
LINE
8
Black
10
18.7
20
11.55
11
18.7
21
12.35
0
LINE
8
Black
10
18.7
20
12.35
11
18.9
21
12.35
0
LINE
8
Black
10
18.9
20
12.35
11
18.9
21
11.55
0
LINE
8
Black
10
28.0875
20
14.7123
11
28.402
21
14.5308
0
LINE
8
Black
10
28.402
20
14.5308
11
28.6353
21
14.2527
0
LINE
8
Black
10
28.6353
20
14.2527
11
28.7595
21
13.9115
0
LINE
8
Black
10
28.7595
20
13.9115
11
28.7595
21
13.5485
0
LINE
8
Black
10
28.7595
20
13.5485
11
28.6353
21
13.2073
0
LINE
8
Black
10
28.6353
20
13.2073
11
28.402
21
12.9292
0
LINE
8
Black
10
28.402
20
12.9292
11
28.0875
21
12.7477
0
LINE
8
Black
10
28.0875
20
12.7477
11
27.73
21
12.6846
0
LINE
8
Black
10
27.73
20
12.6846
11
27.3725
21
12.7477
0
LINE
8
Black
10
27.3725
20
12.7477
11
27.058
21
12.9292
0
LINE
8
Black
10
27.058
20
12.9292
11
26.8247
21
13.2073
0
LINE
8
Black
10
26.8247
20
13.2073
11
26.7005
21
13.5485
0
LINE
8
Black
10
26.7005
20
13.5485
11
26.7005
21
13.9115
0
LINE
8
Black
10
26.7005
20
13.9115
11
26.8247
21
14.2527
0
LINE
8
Black
10
26.8247
20
14.2527
11
27.058
21
14.5308
0
LINE
8
Black
10
27.058
20
14.5308
11
27.3725
21
14.7123
0
LINE
8
Black
10
27.3725
20
14.7123
11
27.73
21
14.7754
0
LINE
8
Black
10
27.73
20
14.7754
11
28.0875
21
14.7123
0
LINE
8
Black
10
2.62754
20
14.7123
11
2.94196
21
14.5308
0
LINE
8
Black
10
2.94196
20
14.5308
11
3.17532
21
14.2527
0
LINE
8
Black
10
3.17532
20
14.2527
11
3.2995
21
13.9115
0
LINE
8
Black
10
3.2995
20
13.9115
11
3.2995
21
13.5485
0
LINE
8
Black
10
3.2995
20
13.5485
11
3.17532
21
13.2073
0
LINE
8
Black
10
3.17532
20
13.2073
11
2.94196
21
12.9292
0
LINE
8
Black
10
2.94196
20
12.9292
11
2.62754
21
12.7477
0
LINE
8
Black
10
2.62754
20
12.7477
11
2.27
21
12.6846
0
LINE
8
Black
10
2.27
20
12.6846
11
1.91246
21
12.7477
0
LINE
8
Black
10
1.91246
20
12.7477
11
1.59804
21
12.9292
0
LINE
8
Black
10
1.59804
20
12.9292
11
1.36468
21
13.2073
0
LINE
8
Black
10
1.36468
20
13.2073
11
1.2405
21
13.5485
0
LINE
8
Black
10
1.2405
20
13.5485
11
1.2405
21
13.9115
0
LINE
8
Black
10
1.2405
20
13.9115
11
1.36468
21
14.2527
0
LINE
8
Black
10
1.36468
20
14.2527
11
1.59804
21
14.5308
0
LINE
8
Black
10
1.59804
20
14.5308
11
1.91246
21
14.7123
0
LINE
8
Black
10
1.91246
20
14.7123
11
2.27
21
14.7754
0
LINE
8
Black
10
2.27
20
14.7754
11
2.62754
21
14.7123
0
LINE
8
Black
10
18.9865
20
14.986
11
17.8435
21
14.986
0
LINE
8
Black
10
17.8435
20
14.986
11
17.8435
21
15.494
0
LINE
8
Black
10
17.8435
20
15.494
11
18.9865
21
15.494
0
LINE
8
Black
10
18.9865
20
15.494
11
18.9865
21
14.986
0
LINE
8
Black
10
12.6365
20
14.986
11
11.4935
21
14.986
0
LINE
8
Black
10
11.4935
20
14.986
11
11.4935
21
15.494
0
LINE
8
Black
10
11.4935
20
15.494
11
12.6365
21
15.494
0
LINE
8
Black
10
12.6365
20
15.494
11
12.6365
21
14.986
0
LINE
8
Black
10
2.62754
20
17.2523
11
2.94196
21
17.0708
0
LINE
8
Black
10
2.94196
20
17.0708
11
3.17532
21
16.7927
0
LINE
8
Black
10
3.17532
20
16.7927
11
3.2995
21
16.4515
0
LINE
8
Black
10
3.2995
20
16.4515
11
3.2995
21
16.0885
0
LINE
8
Black
10
3.2995
20
16.0885
11
3.17532
21
15.7473
0
LINE
8
Black
10
3.17532
20
15.7473
11
2.94196
21
15.4692
0
LINE
8
Black
10
2.94196
20
15.4692
11
2.62754
21
15.2877
0
LINE
8
Black
10
2.62754
20
15.2877
11
2.27
21
15.2246
0
LINE
8
Black
10
2.27
20
15.2246
11
1.91246
21
15.2877
0
LINE
8
Black
10
1.91246
20
15.2877
11
1.59804
21
15.4692
0
LINE
8
Black
10
1.59804
20
15.4692
11
1.36468
21
15.7473
0
LINE
8
Black
10
1.36468
20
15.7473
11
1.2405
21
16.0885
0
LINE
8
Black
10
1.2405
20
16.0885
11
1.2405
21
16.4515
0
LINE
8
Black
10
1.2405
20
16.4515
11
1.36468
21
16.7927
0
LINE
8
Black
10
1.36468
20
16.7927
11
1.59804
21
17.0708
0
LINE
8
Black
10
1.59804
20
17.0708
11
1.91246
21
17.2523
0
LINE
8
Black
10
1.91246
20
17.2523
11
2.27
21
17.3154
0
LINE
8
Black
10
2.27
20
17.3154
11
2.62754
21
17.2523
0
LINE
8
Black
10
28.0875
20
17.2523
11
28.402
21
17.0708
0
LINE
8
Black
10
28.402
20
17.0708
11
28.6353
21
16.7927
0
LINE
8
Black
10
28.6353
20
16.7927
11
28.7595
21
16.4515
0
LINE
8
Black
10
28.7595
20
16.4515
11
28.7595
21
16.0885
0
LINE
8
Black
10
28.7595
20
16.0885
11
28.6353
21
15.7473
0
LINE
8
Black
10
28.6353
20
15.7473
11
28.402
21
15.4692
0
LINE
8
Black
10
28.402
20
15.4692
11
28.0875
21
15.2877
0
LINE
8
Black
10
28.0875
20
15.2877
11
27.73
21
15.2246
0
LINE
8
Black
10
27.73
20
15.2246
11
27.3725
21
15.2877
0
LINE
8
Black
10
27.3725
20
15.2877
11
27.058
21
15.4692
0
LINE
8
Black
10
27.058
20
15.4692
11
26.8247
21
15.7473
0
LINE
8
Black
10
26.8247
20
15.7473
11
26.7005
21
16.0885
0
LINE
8
Black
10
26.7005
20
16.0885
11
26.7005
21
16.4515
0
LINE
8
Black
10
26.7005
20
16.4515
11
26.8247
21
16.7927
0
LINE
8
Black
10
26.8247
20
16.7927
11
27.058
21
17.0708
0
LINE
8
Black
10
27.058
20
17.0708
11
27.3725
21
17.2523
0
LINE
8
Black
10
27.3725
20
17.2523
11
27.73
21
17.3154
0
LINE
8
Black
10
27.73
20
17.3154
11
28.0875
21
17.2523
0
LINE
8
Black
10
18.9865
20
16.256
11
17.8435
21
16.256
0
LINE
8
Black
10
17.8435
20
16.256
11
17.8435
21
16.764
0
LINE
8
Black
10
17.8435
20
16.764
11
18.9865
21
16.764
0
LINE
8
Black
10
18.9865
20
16.764
11
18.9865
21
16.256
0
LINE
8
Black
10
12.6365
20
16.256
11
11.4935
21
16.256
0
LINE
8
Black
10
11.4935
20
16.256
11
11.4935
21
16.764
0
LINE
8
Black
10
11.4935
20
16.764
11
12.6365
21
16.764
0
LINE
8
Black
10
12.6365
20
16.764
11
12.6365
21
16.256
0
LINE
8
Black
10
12.6365
20
17.526
11
11.4935
21
17.526
0
LINE
8
Black
10
11.4935
20
17.526
11
11.4935
21
18.034
0
LINE
8
Black
10
11.4935
20
18.034
11
12.6365
21
18.034
0
LINE
8
Black
10
12.6365
20
18.034
11
12.6365
21
17.526
0
LINE
8
Black
10
18.9865
20
17.526
11
17.8435
21
17.526
0
LINE
8
Black
10
17.8435
20
17.526
11
17.8435
21
18.034
0
LINE
8
Black
10
17.8435
20
18.034
11
18.9865
21
18.034
0
LINE
8
Black
10
18.9865
20
18.034
11
18.9865
21
17.526
0
LINE
8
Black
10
18.9865
20
18.796
11
17.8435
21
18.796
0
LINE
8
Black
10
17.8435
20
18.796
11
17.8435
21
19.304
0
LINE
8
Black
10
17.8435
20
19.304
11
18.9865
21
19.304
0
LINE
8
Black
10
18.9865
20
19.304
11
18.9865
21
18.796
0
LINE
8
Black
10
12.6365
20
18.796
11
11.4935
21
18.796
0
LINE
8
Black
10
11.4935
20
18.796
11
11.4935
21
19.304
0
LINE
8
Black
10
11.4935
20
19.304
11
12.6365
21
19.304
0
LINE
8
Black
10
12.6365
20
19.304
11
12.6365
21
18.796
0
LINE
8
Black
10
4.872
20
19.67
11
4.272
21
19.67
0
LINE
8
Black
10
4.272
20
19.67
11
4.272
21
20.07
0
LINE
8
Black
10
4.272
20
20.07
11
4.872
21
20.07
0
LINE
8
Black
10
4.872
20
20.07
11
4.872
21
19.67
0
LINE
8
Black
10
6.65
20
19.67
11
6.05
21
19.67
0
LINE
8
Black
10
6.05
20
19.67
11
6.05
21
20.07
0
LINE
8
Black
10
6.05
20
20.07
11
6.65
21
20.07
0
LINE
8
Black
10
6.65
20
20.07
11
6.65
21
19.67
0
LINE
8
Black
10
8.428
20
19.67
11
7.828
21
19.67
0
LINE
8
Black
10
7.828
20
19.67
11
7.828
21
20.07
0
LINE
8
Black
10
7.828
20
20.07
11
8.428
21
20.07
0
LINE
8
Black
10
8.428
20
20.07
11
8.428
21
19.67
0
LINE
8
Black
10
12.6365
20
20.066
11
11.4935
21
20.066
0
LINE
8
Black
10
11.4935
20
20.066
11
11.4935
21
20.574
0
LINE
8
Black
10
11.4935
20
20.574
11
12.6365
21
20.574
0
LINE
8
Black
10
12.6365
20
20.574
11
12.6365
21
20.066
0
LINE
8
Black
10
18.9865
20
20.066
11
17.8435
21
20.066
0
LINE
8
Black
10
17.8435
20
20.066
11
17.8435
21
20.574
0
LINE
8
Black
10
17.8435
20
20.574
11
18.9865
21
20.574
0
LINE
8
Black
10
18.9865
20
20.574
11
18.9865
21
20.066
0
LINE
8
Black
10
8.428
20
20.57
11
7.828
21
20.57
0
LINE
8
Black
10
7.828
20
20.57
11
7.828
21
20.97
0
LINE
8
Black
10
7.828
20
20.97
11
8.428
21
20.97
0
LINE
8
Black
10
8.428
20
20.97
11
8.428
21
20.57
0
LINE
8
Black
10
6.65
20
20.57
11
6.05
21
20.57
0
LINE
8
Black
10
6.05
20
20.57
11
6.05
21
20.97
0
LINE
8
Black
10
6.05
20
20.97
11
6.65
21
20.97
0
LINE
8
Black
10
6.65
20
20.97
11
6.65
21
20.57
0
LINE
8
Black
10
4.872
20
20.57
11
4.272
21
20.57
0
LINE
8
Black
10
4.272
20
20.57
11
4.272
21
20.97
0
LINE
8
Black
10
4.272
20
20.97
11
4.872
21
20.97
0
LINE
8
Black
10
4.872
20
20.97
11
4.872
21
20.57
0
LINE
8
Black
10
12.6365
20
21.336
11
11.4935
21
21.336
0
LINE
8
Black
10
11.4935
20
21.336
11
11.4935
21
21.844
0
LINE
8
Black
10
11.4935
20
21.844
11
12.6365
21
21.844
0
LINE
8
Black
10
12.6365
20
21.844
11
12.6365
21
21.336
0
LINE
8
Black
10
18.9865
20
21.336
11
17.8435
21
21.336
0
LINE
8
Black
10
17.8435
20
21.336
11
17.8435
21
21.844
0
LINE
8
Black
10
17.8435
20
21.844
11
18.9865
21
21.844
0
LINE
8
Black
10
18.9865
20
21.844
11
18.9865
21
21.336
0
LINE
8
Black
10
21.7365
20
21.336
11
20.5935
21
21.336
0
LINE
8
Black
10
20.5935
20
21.336
11
20.5935
21
21.844
0
LINE
8
Black
10
20.5935
20
21.844
11
21.7365
21
21.844
0
LINE
8
Black
10
21.7365
20
21.844
11
21.7365
21
21.336
0
LINE
8
Black
10
8.428
20
21.702
11
7.828
21
21.702
0
LINE
8
Black
10
7.828
20
21.702
11
7.828
21
22.102
0
LINE
8
Black
10
7.828
20
22.102
11
8.428
21
22.102
0
LINE
8
Black
10
8.428
20
22.102
11
8.428
21
21.702
0
LINE
8
Black
10
6.65
20
21.702
11
6.05
21
21.702
0
LINE
8
Black
10
6.05
20
21.702
11
6.05
21
22.102
0
LINE
8
Black
10
6.05
20
22.102
11
6.65
21
22.102
0
LINE
8
Black
10
6.65
20
22.102
11
6.65
21
21.702
0
LINE
8
Black
10
4.872
20
21.702
11
4.272
21
21.702
0
LINE
8
Black
10
4.272
20
21.702
11
4.272
21
22.102
0
LINE
8
Black
10
4.272
20
22.102
11
4.872
21
22.102
0
LINE
8
Black
10
4.872
20
22.102
11
4.872
21
21.702
0
LINE
8
Black
10
8.428
20
22.602
11
7.828
21
22.602
0
LINE
8
Black
10
7.828
20
22.602
11
7.828
21
23.002
0
LINE
8
Black
10
7.828
20
23.002
11
8.428
21
23.002
0
LINE
8
Black
10
8.428
20
23.002
11
8.428
21
22.602
0
LINE
8
Black
10
6.65
20
22.602
11
6.05
21
22.602
0
LINE
8
Black
10
6.05
20
22.602
11
6.05
21
23.002
0
LINE
8
Black
10
6.05
20
23.002
11
6.65
21
23.002
0
LINE
8
Black
10
6.65
20
23.002
11
6.65
21
22.602
0
LINE
8
Black
10
4.872
20
22.602
11
4.272
21
22.602
0
LINE
8
Black
10
4.272
20
22.602
11
4.272
21
23.002
0
LINE
8
Black
10
4.272
20
23.002
11
4.872
21
23.002
0
LINE
8
Black
10
4.872
20
23.002
11
4.872
21
22.602
0
LINE
8
Black
10
12.6365
20
22.606
11
11.4935
21
22.606
0
LINE
8
Black
10
11.4935
20
22.606
11
11.4935
21
23.114
0
LINE
8
Black
10
11.4935
20
23.114
11
12.6365
21
23.114
0
LINE
8
Black
10
12.6365
20
23.114
11
12.6365
21
22.606
0
LINE
8
Black
10
18.9865
20
22.606
11
17.8435
21
22.606
0
LINE
8
Black
10
17.8435
20
22.606
11
17.8435
21
23.114
0
LINE
8
Black
10
17.8435
20
23.114
11
18.9865
21
23.114
0
LINE
8
Black
10
18.9865
20
23.114
11
18.9865
21
22.606
0
LINE
8
Black
10
21.7365
20
22.606
11
20.5935
21
22.606
0
LINE
8
Black
10
20.5935
20
22.606
11
20.5935
21
23.114
0
LINE
8
Black
10
20.5935
20
23.114
11
21.7365
21
23.114
0
LINE
8
Black
10
21.7365
20
23.114
11
21.7365
21
22.606
0
LINE
8
Black
10
18.9865
20
23.876
11
17.8435
21
23.876
0
LINE
8
Black
10
17.8435
20
23.876
11
17.8435
21
24.384
0
LINE
8
Black
10
17.8435
20
24.384
11
18.9865
21
24.384
0
LINE
8
Black
10
18.9865
20
24.384
11
18.9865
21
23.876
0
LINE
8
Black
10
21.7365
20
23.876
11
20.5935
21
23.876
0
LINE
8
Black
10
20.5935
20
23.876
11
20.5935
21
24.384
0
LINE
8
Black
10
20.5935
20
24.384
11
21.7365
21
24.384
0
LINE
8
Black
10
21.7365
20
24.384
11
21.7365
21
23.876
0
LINE
8
Black
10
12.6365
20
23.876
11
11.4935
21
23.876
0
LINE
8
Black
10
11.4935
20
23.876
11
11.4935
21
24.384
0
LINE
8
Black
10
11.4935
20
24.384
11
12.6365
21
24.384
0
LINE
8
Black
10
12.6365
20
24.384
11
12.6365
21
23.876
0
LINE
8
Black
10
24.5875
20
28.7123
11
24.902
21
28.5308
0
LINE
8
Black
10
24.902
20
28.5308
11
25.1353
21
28.2527
0
LINE
8
Black
10
25.1353
20
28.2527
11
25.2595
21
27.9115
0
LINE
8
Black
10
25.2595
20
27.9115
11
25.2595
21
27.5485
0
LINE
8
Black
10
25.2595
20
27.5485
11
25.1353
21
27.2073
0
LINE
8
Black
10
25.1353
20
27.2073
11
24.902
21
26.9292
0
LINE
8
Black
10
24.902
20
26.9292
11
24.5875
21
26.7477
0
LINE
8
Black
10
24.5875
20
26.7477
11
24.23
21
26.6846
0
LINE
8
Black
10
24.23
20
26.6846
11
23.8725
21
26.7477
0
LINE
8
Black
10
23.8725
20
26.7477
11
23.558
21
26.9292
0
LINE
8
Black
10
23.558
20
26.9292
11
23.3247
21
27.2073
0
LINE
8
Black
10
23.3247
20
27.2073
11
23.2005
21
27.5485
0
LINE
8
Black
10
23.2005
20
27.5485
11
23.2005
21
27.9115
0
LINE
8
Black
10
23.2005
20
27.9115
11
23.3247
21
28.2527
0
LINE
8
Black
10
23.3247
20
28.2527
11
23.558
21
28.5308
0
LINE
8
Black
10
23.558
20
28.5308
11
23.8725
21
28.7123
0
LINE
8
Black
10
23.8725
20
28.7123
11
24.23
21
28.7754
0
LINE
8
Black
10
24.23
20
28.7754
11
24.5875
21
28.7123
0
LINE
8
Black
10
27.1275
20
28.7123
11
27.442
21
28.5308
0
LINE
8
Black
10
27.442
20
28.5308
11
27.6753
21
28.2527
0
LINE
8
Black
10
27.6753
20
28.2527
11
27.7995
21
27.9115
0
LINE
8
Black
10
27.7995
20
27.9115
11
27.7995
21
27.5485
0
LINE
8
Black
10
27.7995
20
27.5485
11
27.6753
21
27.2073
0
LINE
8
Black
10
27.6753
20
27.2073
11
27.442
21
26.9292
0
LINE
8
Black
10
27.442
20
26.9292
11
27.1275
21
26.7477
0
LINE
8
Black
10
27.1275
20
26.7477
11
26.77
21
26.6846
0
LINE
8
Black
10
26.77
20
26.6846
11
26.4125
21
26.7477
0
LINE
8
Black
10
26.4125
20
26.7477
11
26.098
21
26.9292
0
LINE
8
Black
10
26.098
20
26.9292
11
25.8647
21
27.2073
0
LINE
8
Black
10
25.8647
20
27.2073
11
25.7405
21
27.5485
0
LINE
8
Black
10
25.7405
20
27.5485
11
25.7405
21
27.9115
0
LINE
8
Black
10
25.7405
20
27.9115
11
25.8647
21
28.2527
0
LINE
8
Black
10
25.8647
20
28.2527
11
26.098
21
28.5308
0
LINE
8
Black
10
26.098
20
28.5308
11
26.4125
21
28.7123
0
LINE
8
Black
10
26.4125
20
28.7123
11
26.77
21
28.7754
0
LINE
8
Black
10
26.77
20
28.7754
11
27.1275
21
28.7123
0
LINE
8
Black
10
17.5875
20
28.7123
11
17.902
21
28.5308
0
LINE
8
Black
10
17.902
20
28.5308
11
18.1353
21
28.2527
0
LINE
8
Black
10
18.1353
20
28.2527
11
18.2595
21
27.9115
0
LINE
8
Black
10
18.2595
20
27.9115
11
18.2595
21
27.5485
0
LINE
8
Black
10
18.2595
20
27.5485
11
18.1353
21
27.2073
0
LINE
8
Black
10
18.1353
20
27.2073
11
17.902
21
26.9292
0
LINE
8
Black
10
17.902
20
26.9292
11
17.5875
21
26.7477
0
LINE
8
Black
10
17.5875
20
26.7477
11
17.23
21
26.6846
0
LINE
8
Black
10
17.23
20
26.6846
11
16.8725
21
26.7477
0
LINE
8
Black
10
16.8725
20
26.7477
11
16.558
21
26.9292
0
LINE
8
Black
10
16.558
20
26.9292
11
16.3247
21
27.2073
0
LINE
8
Black
10
16.3247
20
27.2073
11
16.2005
21
27.5485
0
LINE
8
Black
10
16.2005
20
27.5485
11
16.2005
21
27.9115
0
LINE
8
Black
10
16.2005
20
27.9115
11
16.3247
21
28.2527
0
LINE
8
Black
10
16.3247
20
28.2527
11
16.558
21
28.5308
0
LINE
8
Black
10
16.558
20
28.5308
11
16.8725
21
28.7123
0
LINE
8
Black
10
16.8725
20
28.7123
11
17.23
21
28.7754
0
LINE
8
Black
10
17.23
20
28.7754
11
17.5875
21
28.7123
0
LINE
8
Black
10
20.1275
20
28.7123
11
20.442
21
28.5308
0
LINE
8
Black
10
20.442
20
28.5308
11
20.6753
21
28.2527
0
LINE
8
Black
10
20.6753
20
28.2527
11
20.7995
21
27.9115
0
LINE
8
Black
10
20.7995
20
27.9115
11
20.7995
21
27.5485
0
LINE
8
Black
10
20.7995
20
27.5485
11
20.6753
21
27.2073
0
LINE
8
Black
10
20.6753
20
27.2073
11
20.442
21
26.9292
0
LINE
8
Black
10
20.442
20
26.9292
11
20.1275
21
26.7477
0
LINE
8
Black
10
20.1275
20
26.7477
11
19.77
21
26.6846
0
LINE
8
Black
10
19.77
20
26.6846
11
19.4125
21
26.7477
0
LINE
8
Black
10
19.4125
20
26.7477
11
19.098
21
26.9292
0
LINE
8
Black
10
19.098
20
26.9292
11
18.8647
21
27.2073
0
LINE
8
Black
10
18.8647
20
27.2073
11
18.7405
21
27.5485
0
LINE
8
Black
10
18.7405
20
27.5485
11
18.7405
21
27.9115
0
LINE
8
Black
10
18.7405
20
27.9115
11
18.8647
21
28.2527
0
LINE
8
Black
10
18.8647
20
28.2527
11
19.098
21
28.5308
0
LINE
8
Black
10
19.098
20
28.5308
11
19.4125
21
28.7123
0
LINE
8
Black
10
19.4125
20
28.7123
11
19.77
21
28.7754
0
LINE
8
Black
10
19.77
20
28.7754
11
20.1275
21
28.7123
0
LINE
8
Black
10
3.58754
20
28.7123
11
3.90196
21
28.5308
0
LINE
8
Black
10
3.90196
20
28.5308
11
4.13532
21
28.2527
0
LINE
8
Black
10
4.13532
20
28.2527
11
4.2595
21
27.9115
0
LINE
8
Black
10
4.2595
20
27.9115
11
4.2595
21
27.5485
0
LINE
8
Black
10
4.2595
20
27.5485
11
4.13532
21
27.2073
0
LINE
8
Black
10
4.13532
20
27.2073
11
3.90196
21
26.9292
0
LINE
8
Black
10
3.90196
20
26.9292
11
3.58754
21
26.7477
0
LINE
8
Black
10
3.58754
20
26.7477
11
3.23
21
26.6846
0
LINE
8
Black
10
3.23
20
26.6846
11
2.87246
21
26.7477
0
LINE
8
Black
10
2.87246
20
26.7477
11
2.55804
21
26.9292
0
LINE
8
Black
10
2.55804
20
26.9292
11
2.32468
21
27.2073
0
LINE
8
Black
10
2.32468
20
27.2073
11
2.2005
21
27.5485
0
LINE
8
Black
10
2.2005
20
27.5485
11
2.2005
21
27.9115
0
LINE
8
Black
10
2.2005
20
27.9115
11
2.32468
21
28.2527
0
LINE
8
Black
10
2.32468
20
28.2527
11
2.55804
21
28.5308
0
LINE
8
Black
10
2.55804
20
28.5308
11
2.87246
21
28.7123
0
LINE
8
Black
10
2.87246
20
28.7123
11
3.23
21
28.7754
0
LINE
8
Black
10
3.23
20
28.7754
11
3.58754
21
28.7123
0
LINE
8
Black
10
6.12754
20
28.7123
11
6.44196
21
28.5308
0
LINE
8
Black
10
6.44196
20
28.5308
11
6.67532
21
28.2527
0
LINE
8
Black
10
6.67532
20
28.2527
11
6.7995
21
27.9115
0
LINE
8
Black
10
6.7995
20
27.9115
11
6.7995
21
27.5485
0
LINE
8
Black
10
6.7995
20
27.5485
11
6.67532
21
27.2073
0
LINE
8
Black
10
6.67532
20
27.2073
11
6.44196
21
26.9292
0
LINE
8
Black
10
6.44196
20
26.9292
11
6.12754
21
26.7477
0
LINE
8
Black
10
6.12754
20
26.7477
11
5.77
21
26.6846
0
LINE
8
Black
10
5.77
20
26.6846
11
5.41246
21
26.7477
0
LINE
8
Black
10
5.41246
20
26.7477
11
5.09804
21
26.9292
0
LINE
8
Black
10
5.09804
20
26.9292
11
4.86468
21
27.2073
0
LINE
8
Black
10
4.86468
20
27.2073
11
4.7405
21
27.5485
0
LINE
8
Black
10
4.7405
20
27.5485
11
4.7405
21
27.9115
0
LINE
8
Black
10
4.7405
20
27.9115
11
4.86468
21
28.2527
0
LINE
8
Black
10
4.86468
20
28.2527
11
5.09804
21
28.5308
0
LINE
8
Black
10
5.09804
20
28.5308
11
5.41246
21
28.7123
0
LINE
8
Black
10
5.41246
20
28.7123
11
5.77
21
28.7754
0
LINE
8
Black
10
5.77
20
28.7754
11
6.12754
21
28.7123
  0
ENDSEC
  0
EOF
