  0
SECTION
  2
HEADER
  9
$ANGBASE
  50
0.0
  9
$ANGDIR
  70
  1
  9
$MEASUREMENT
  70
0
  0
ENDSEC
  0
SECTION
  2
TABLES
  0
TABLE
  2
LTYPE
  70
1
  0
LTYPE
  2
CONTINUOUS
  70
0
  3
Solid line
  72
65
  73
0
  40
0.0
  0
ENDTAB
  0
TABLE
  2
STYLE
  70
4
  0
STYLE
  2
KICAD
  70
0
  40
0
  41
1
  42
1
  50
0
  71
0
  3
isocp.shx
  0
STYLE
  2
KICADB
  70
0
  40
0
  41
1
  42
1
  50
0
  71
0
  3
isocp.shx
  0
STYLE
  2
KICADI
  70
0
  40
0
  41
1
  42
1
  50
15
  71
0
  3
isocp.shx
  0
STYLE
  2
KICADBI
  70
0
  40
0
  41
1
  42
1
  50
15
  71
0
  3
isocp.shx
  0
ENDTAB
  0
TABLE
  2
LAYER
  70
30
  0
LAYER
  2
BLACK
  70
0
  62
7
  6
CONTINUOUS
  0
LAYER
  2
GRAY1
  70
0
  62
251
  6
CONTINUOUS
  0
LAYER
  2
GRAY2
  70
0
  62
8
  6
CONTINUOUS
  0
LAYER
  2
GRAY3
  70
0
  62
9
  6
CONTINUOUS
  0
LAYER
  2
WHITE
  70
0
  62
7
  6
CONTINUOUS
  0
LAYER
  2
LYELLOW
  70
0
  62
51
  6
CONTINUOUS
  0
LAYER
  2
BLUE1
  70
0
  62
178
  6
CONTINUOUS
  0
LAYER
  2
GREEN1
  70
0
  62
98
  6
CONTINUOUS
  0
LAYER
  2
CYAN1
  70
0
  62
138
  6
CONTINUOUS
  0
LAYER
  2
RED1
  70
0
  62
18
  6
CONTINUOUS
  0
LAYER
  2
MAGENTA1
  70
0
  62
228
  6
CONTINUOUS
  0
LAYER
  2
BROWN1
  70
0
  62
58
  6
CONTINUOUS
  0
LAYER
  2
BLUE2
  70
0
  62
5
  6
CONTINUOUS
  0
LAYER
  2
GREEN2
  70
0
  62
3
  6
CONTINUOUS
  0
LAYER
  2
CYAN2
  70
0
  62
4
  6
CONTINUOUS
  0
LAYER
  2
RED2
  70
0
  62
1
  6
CONTINUOUS
  0
LAYER
  2
MAGENTA2
  70
0
  62
6
  6
CONTINUOUS
  0
LAYER
  2
BROWN2
  70
0
  62
54
  6
CONTINUOUS
  0
LAYER
  2
BLUE3
  70
0
  62
171
  6
CONTINUOUS
  0
LAYER
  2
GREEN3
  70
0
  62
91
  6
CONTINUOUS
  0
LAYER
  2
CYAN3
  70
0
  62
131
  6
CONTINUOUS
  0
LAYER
  2
RED3
  70
0
  62
11
  6
CONTINUOUS
  0
LAYER
  2
MAGENTA3
  70
0
  62
221
  6
CONTINUOUS
  0
LAYER
  2
YELLOW3
  70
0
  62
2
  6
CONTINUOUS
  0
LAYER
  2
BLUE4
  70
0
  62
5
  6
CONTINUOUS
  0
LAYER
  2
GREEN4
  70
0
  62
3
  6
CONTINUOUS
  0
LAYER
  2
CYAN4
  70
0
  62
4
  6
CONTINUOUS
  0
LAYER
  2
RED4
  70
0
  62
1
  6
CONTINUOUS
  0
LAYER
  2
MAGENTA4
  70
0
  62
6
  6
CONTINUOUS
  0
LAYER
  2
YELLOW4
  70
0
  62
2
  6
CONTINUOUS
  0
ENDTAB
  0
ENDSEC
  0
SECTION
  2
ENTITIES
0
LINE
8
Black
10
4.86565
20
2.86448
11
4.88821
21
2.85145
0
LINE
8
Black
10
4.88821
20
2.85145
11
4.90495
21
2.8315
0
LINE
8
Black
10
4.90495
20
2.8315
11
4.91386
21
2.80702
0
LINE
8
Black
10
4.91386
20
2.80702
11
4.91386
21
2.78098
0
LINE
8
Black
10
4.91386
20
2.78098
11
4.90495
21
2.7565
0
LINE
8
Black
10
4.90495
20
2.7565
11
4.88821
21
2.73655
0
LINE
8
Black
10
4.88821
20
2.73655
11
4.86565
21
2.72352
0
LINE
8
Black
10
4.86565
20
2.72352
11
4.84
21
2.719
0
LINE
8
Black
10
4.84
20
2.719
11
2.121
21
2.719
0
LINE
8
Black
10
2.121
20
2.719
11
2.121
21
-0.179
0
LINE
8
Black
10
2.121
20
-0.179
11
4.84
21
-0.179
0
LINE
8
Black
10
4.84
20
-0.179
11
4.86565
21
-0.183523
0
LINE
8
Black
10
4.86565
20
-0.183523
11
4.88821
21
-0.196547
0
LINE
8
Black
10
4.88821
20
-0.196547
11
4.90495
21
-0.2165
0
LINE
8
Black
10
4.90495
20
-0.2165
11
4.91386
21
-0.240976
0
LINE
8
Black
10
4.91386
20
-0.240976
11
4.91386
21
-0.267024
0
LINE
8
Black
10
4.91386
20
-0.267024
11
4.90495
21
-0.2915
0
LINE
8
Black
10
4.90495
20
-0.2915
11
4.88821
21
-0.311453
0
LINE
8
Black
10
4.88821
20
-0.311453
11
4.86565
21
-0.324477
0
LINE
8
Black
10
4.86565
20
-0.324477
11
4.84
21
-0.329
0
LINE
8
Black
10
4.84
20
-0.329
11
2.046
21
-0.329
0
LINE
8
Black
10
2.046
20
-0.329
11
2.03954
21
-0.327861
0
LINE
8
Black
10
2.03954
20
-0.327861
11
2.03298
21
-0.327861
0
LINE
8
Black
10
2.03298
20
-0.327861
11
2.02681
21
-0.325616
0
LINE
8
Black
10
2.02681
20
-0.325616
11
2.02035
21
-0.324477
0
LINE
8
Black
10
2.02035
20
-0.324477
11
2.01467
21
-0.321196
0
LINE
8
Black
10
2.01467
20
-0.321196
11
2.0085
21
-0.318952
0
LINE
8
Black
10
2.0085
20
-0.318952
11
2.00347
21
-0.314734
0
LINE
8
Black
10
2.00347
20
-0.314734
11
1.99779
21
-0.311453
0
LINE
8
Black
10
1.99779
20
-0.311453
11
1.99357
21
-0.306427
0
LINE
8
Black
10
1.99357
20
-0.306427
11
1.98855
21
-0.302209
0
LINE
8
Black
10
1.98855
20
-0.302209
11
1.98527
21
-0.296527
0
LINE
8
Black
10
1.98527
20
-0.296527
11
1.98105
21
-0.2915
0
LINE
8
Black
10
1.98105
20
-0.2915
11
1.9788
21
-0.285334
0
LINE
8
Black
10
1.9788
20
-0.285334
11
1.97552
21
-0.279652
0
LINE
8
Black
10
1.97552
20
-0.279652
11
1.97438
21
-0.273191
0
LINE
8
Black
10
1.97438
20
-0.273191
11
1.97214
21
-0.267024
0
LINE
8
Black
10
1.97214
20
-0.267024
11
1.97214
21
-0.26046
0
LINE
8
Black
10
1.97214
20
-0.26046
11
1.971
21
-0.254
0
LINE
8
Black
10
1.971
20
-0.254
11
1.971
21
2.794
0
LINE
8
Black
10
1.971
20
2.794
11
1.97214
21
2.80046
0
LINE
8
Black
10
1.97214
20
2.80046
11
1.97214
21
2.80702
0
LINE
8
Black
10
1.97214
20
2.80702
11
1.97438
21
2.81319
0
LINE
8
Black
10
1.97438
20
2.81319
11
1.97552
21
2.81965
0
LINE
8
Black
10
1.97552
20
2.81965
11
1.9788
21
2.82533
0
LINE
8
Black
10
1.9788
20
2.82533
11
1.98105
21
2.8315
0
LINE
8
Black
10
1.98105
20
2.8315
11
1.98527
21
2.83653
0
LINE
8
Black
10
1.98527
20
2.83653
11
1.98855
21
2.84221
0
LINE
8
Black
10
1.98855
20
2.84221
11
1.99357
21
2.84643
0
LINE
8
Black
10
1.99357
20
2.84643
11
1.99779
21
2.85145
0
LINE
8
Black
10
1.99779
20
2.85145
11
2.00347
21
2.85473
0
LINE
8
Black
10
2.00347
20
2.85473
11
2.0085
21
2.85895
0
LINE
8
Black
10
2.0085
20
2.85895
11
2.01467
21
2.8612
0
LINE
8
Black
10
2.01467
20
2.8612
11
2.02035
21
2.86448
0
LINE
8
Black
10
2.02035
20
2.86448
11
2.02681
21
2.86562
0
LINE
8
Black
10
2.02681
20
2.86562
11
2.03298
21
2.86786
0
LINE
8
Black
10
2.03298
20
2.86786
11
2.03954
21
2.86786
0
LINE
8
Black
10
2.03954
20
2.86786
11
2.046
21
2.869
0
LINE
8
Black
10
2.046
20
2.869
11
4.84
21
2.869
0
LINE
8
Black
10
4.84
20
2.869
11
4.86565
21
2.86448
0
LINE
8
Black
10
27.7065
20
2.61386
11
27.713
21
2.61386
0
LINE
8
Black
10
27.713
20
2.61386
11
27.7192
21
2.61162
0
LINE
8
Black
10
27.7192
20
2.61162
11
27.7257
21
2.61048
0
LINE
8
Black
10
27.7257
20
2.61048
11
27.7313
21
2.6072
0
LINE
8
Black
10
27.7313
20
2.6072
11
27.7375
21
2.60495
0
LINE
8
Black
10
27.7375
20
2.60495
11
27.7425
21
2.60073
0
LINE
8
Black
10
27.7425
20
2.60073
11
27.7482
21
2.59745
0
LINE
8
Black
10
27.7482
20
2.59745
11
27.7524
21
2.59243
0
LINE
8
Black
10
27.7524
20
2.59243
11
27.7575
21
2.58821
0
LINE
8
Black
10
27.7575
20
2.58821
11
27.7607
21
2.58253
0
LINE
8
Black
10
27.7607
20
2.58253
11
27.765
21
2.5775
0
LINE
8
Black
10
27.765
20
2.5775
11
27.7672
21
2.57133
0
LINE
8
Black
10
27.7672
20
2.57133
11
27.7705
21
2.56565
0
LINE
8
Black
10
27.7705
20
2.56565
11
27.7716
21
2.55919
0
LINE
8
Black
10
27.7716
20
2.55919
11
27.7739
21
2.55302
0
LINE
8
Black
10
27.7739
20
2.55302
11
27.7739
21
2.54646
0
LINE
8
Black
10
27.7739
20
2.54646
11
27.775
21
2.54
0
LINE
8
Black
10
27.775
20
2.54
11
27.775
21
0
0
LINE
8
Black
10
27.775
20
0
11
27.7739
21
-0.00646
0
LINE
8
Black
10
27.7739
20
-0.00646
11
27.7739
21
-0.013024
0
LINE
8
Black
10
27.7739
20
-0.013024
11
27.7716
21
-0.019191
0
LINE
8
Black
10
27.7716
20
-0.019191
11
27.7705
21
-0.025652
0
LINE
8
Black
10
27.7705
20
-0.025652
11
27.7672
21
-0.031334
0
LINE
8
Black
10
27.7672
20
-0.031334
11
27.765
21
-0.0375
0
LINE
8
Black
10
27.765
20
-0.0375
11
27.7607
21
-0.042527
0
LINE
8
Black
10
27.7607
20
-0.042527
11
27.7575
21
-0.048209
0
LINE
8
Black
10
27.7575
20
-0.048209
11
27.7524
21
-0.052427
0
LINE
8
Black
10
27.7524
20
-0.052427
11
27.7482
21
-0.057453
0
LINE
8
Black
10
27.7482
20
-0.057453
11
27.7425
21
-0.060734
0
LINE
8
Black
10
27.7425
20
-0.060734
11
27.7375
21
-0.064952
0
LINE
8
Black
10
27.7375
20
-0.064952
11
27.7313
21
-0.067196
0
LINE
8
Black
10
27.7313
20
-0.067196
11
27.7257
21
-0.070477
0
LINE
8
Black
10
27.7257
20
-0.070477
11
27.7192
21
-0.071616
0
LINE
8
Black
10
27.7192
20
-0.071616
11
27.713
21
-0.073861
0
LINE
8
Black
10
27.713
20
-0.073861
11
27.7065
21
-0.073861
0
LINE
8
Black
10
27.7065
20
-0.073861
11
27.7
21
-0.075
0
LINE
8
Black
10
27.7
20
-0.075
11
2.3
21
-0.075
0
LINE
8
Black
10
2.3
20
-0.075
11
2.29354
21
-0.073861
0
LINE
8
Black
10
2.29354
20
-0.073861
11
2.28698
21
-0.073861
0
LINE
8
Black
10
2.28698
20
-0.073861
11
2.28081
21
-0.071616
0
LINE
8
Black
10
2.28081
20
-0.071616
11
2.27435
21
-0.070477
0
LINE
8
Black
10
2.27435
20
-0.070477
11
2.26867
21
-0.067196
0
LINE
8
Black
10
2.26867
20
-0.067196
11
2.2625
21
-0.064952
0
LINE
8
Black
10
2.2625
20
-0.064952
11
2.25747
21
-0.060734
0
LINE
8
Black
10
2.25747
20
-0.060734
11
2.25179
21
-0.057453
0
LINE
8
Black
10
2.25179
20
-0.057453
11
2.24757
21
-0.052427
0
LINE
8
Black
10
2.24757
20
-0.052427
11
2.24255
21
-0.048209
0
LINE
8
Black
10
2.24255
20
-0.048209
11
2.23927
21
-0.042527
0
LINE
8
Black
10
2.23927
20
-0.042527
11
2.23505
21
-0.0375
0
LINE
8
Black
10
2.23505
20
-0.0375
11
2.2328
21
-0.031334
0
LINE
8
Black
10
2.2328
20
-0.031334
11
2.22952
21
-0.025652
0
LINE
8
Black
10
2.22952
20
-0.025652
11
2.22838
21
-0.019191
0
LINE
8
Black
10
2.22838
20
-0.019191
11
2.22614
21
-0.013024
0
LINE
8
Black
10
2.22614
20
-0.013024
11
2.22614
21
-0.00646
0
LINE
8
Black
10
2.22614
20
-0.00646
11
2.225
21
0
0
LINE
8
Black
10
2.225
20
0
11
2.225
21
2.54
0
LINE
8
Black
10
2.225
20
2.54
11
2.22614
21
2.54646
0
LINE
8
Black
10
2.22614
20
2.54646
11
2.22614
21
2.55302
0
LINE
8
Black
10
2.22614
20
2.55302
11
2.22838
21
2.55919
0
LINE
8
Black
10
2.22838
20
2.55919
11
2.22952
21
2.56565
0
LINE
8
Black
10
2.22952
20
2.56565
11
2.2328
21
2.57133
0
LINE
8
Black
10
2.2328
20
2.57133
11
2.23505
21
2.5775
0
LINE
8
Black
10
2.23505
20
2.5775
11
2.23927
21
2.58253
0
LINE
8
Black
10
2.23927
20
2.58253
11
2.24255
21
2.58821
0
LINE
8
Black
10
2.24255
20
2.58821
11
2.24757
21
2.59243
0
LINE
8
Black
10
2.24757
20
2.59243
11
2.25179
21
2.59745
0
LINE
8
Black
10
2.25179
20
2.59745
11
2.25747
21
2.60073
0
LINE
8
Black
10
2.25747
20
2.60073
11
2.2625
21
2.60495
0
LINE
8
Black
10
2.2625
20
2.60495
11
2.26867
21
2.6072
0
LINE
8
Black
10
2.26867
20
2.6072
11
2.27435
21
2.61048
0
LINE
8
Black
10
2.27435
20
2.61048
11
2.28081
21
2.61162
0
LINE
8
Black
10
2.28081
20
2.61162
11
2.28698
21
2.61386
0
LINE
8
Black
10
2.28698
20
2.61386
11
2.29354
21
2.61386
0
LINE
8
Black
10
2.29354
20
2.61386
11
2.3
21
2.615
0
LINE
8
Black
10
2.3
20
2.615
11
27.7
21
2.615
0
LINE
8
Black
10
27.7
20
2.615
11
27.7065
21
2.61386
0
LINE
8
Black
10
2.375
20
2.465
11
2.375
21
0.075
0
LINE
8
Black
10
2.375
20
0.075
11
27.625
21
0.075
0
LINE
8
Black
10
27.625
20
0.075
11
27.625
21
2.465
0
LINE
8
Black
10
27.625
20
2.465
11
2.375
21
2.465
0
LINE
8
Black
10
0.915211
20
0.653773
11
0.919526
21
0.654032
0
LINE
8
Black
10
0.919526
20
0.654032
11
0.927946
21
0.651528
0
LINE
8
Black
10
0.927946
20
0.651528
11
0.936604
21
0.650001
0
LINE
8
Black
10
0.936604
20
0.650001
11
0.94035
21
0.647838
0
LINE
8
Black
10
0.94035
20
0.647838
11
0.944493
21
0.646606
0
LINE
8
Black
10
0.944493
20
0.646606
11
1.03973
21
0.598987
0
LINE
8
Black
10
1.03973
20
0.598987
11
1.04938
21
0.591829
0
LINE
8
Black
10
1.04938
20
0.591829
11
1.05922
21
0.584939
0
LINE
8
Black
10
1.05922
20
0.584939
11
1.10684
21
0.53732
0
LINE
8
Black
10
1.10684
20
0.53732
11
1.11373
21
0.527482
0
LINE
8
Black
10
1.11373
20
0.527482
11
1.12089
21
0.517827
0
LINE
8
Black
10
1.12089
20
0.517827
11
1.16851
21
0.422589
0
LINE
8
Black
10
1.16851
20
0.422589
11
1.16974
21
0.418445
0
LINE
8
Black
10
1.16974
20
0.418445
11
1.17191
21
0.4147
0
LINE
8
Black
10
1.17191
20
0.4147
11
1.17343
21
0.406044
0
LINE
8
Black
10
1.17343
20
0.406044
11
1.17594
21
0.397623
0
LINE
8
Black
10
1.17594
20
0.397623
11
1.17568
21
0.393308
0
LINE
8
Black
10
1.17568
20
0.393308
11
1.17643
21
0.389048
0
LINE
8
Black
10
1.17643
20
0.389048
11
1.17643
21
0.198571
0
LINE
8
Black
10
1.17643
20
0.198571
11
1.17568
21
0.194311
0
LINE
8
Black
10
1.17568
20
0.194311
11
1.17594
21
0.189996
0
LINE
8
Black
10
1.17594
20
0.189996
11
1.17343
21
0.181575
0
LINE
8
Black
10
1.17343
20
0.181575
11
1.17191
21
0.172919
0
LINE
8
Black
10
1.17191
20
0.172919
11
1.16974
21
0.169174
0
LINE
8
Black
10
1.16974
20
0.169174
11
1.16851
21
0.16503
0
LINE
8
Black
10
1.16851
20
0.16503
11
1.1394
21
0.1068
0
LINE
8
Black
10
1.1394
20
0.1068
11
1.21349
21
0.125324
0
LINE
8
Black
10
1.21349
20
0.125324
11
1.33936
21
0.209236
0
LINE
8
Black
10
1.33936
20
0.209236
11
1.37312
21
0.242998
0
LINE
8
Black
10
1.37312
20
0.242998
11
1.40738
21
0.311515
0
LINE
8
Black
10
1.40738
20
0.311515
11
1.40738
21
0.484286
0
LINE
8
Black
10
1.40738
20
0.484286
11
1.4119
21
0.509938
0
LINE
8
Black
10
1.4119
20
0.509938
11
1.42493
21
0.532495
0
LINE
8
Black
10
1.42493
20
0.532495
11
1.44488
21
0.549238
0
LINE
8
Black
10
1.44488
20
0.549238
11
1.46936
21
0.558147
0
LINE
8
Black
10
1.46936
20
0.558147
11
1.4954
21
0.558147
0
LINE
8
Black
10
1.4954
20
0.558147
11
1.51988
21
0.549238
0
LINE
8
Black
10
1.51988
20
0.549238
11
1.53983
21
0.532495
0
LINE
8
Black
10
1.53983
20
0.532495
11
1.55286
21
0.509938
0
LINE
8
Black
10
1.55286
20
0.509938
11
1.55738
21
0.484286
0
LINE
8
Black
10
1.55738
20
0.484286
11
1.55738
21
0.29381
0
LINE
8
Black
10
1.55738
20
0.29381
11
1.55663
21
0.289551
0
LINE
8
Black
10
1.55663
20
0.289551
11
1.55689
21
0.285236
0
LINE
8
Black
10
1.55689
20
0.285236
11
1.55438
21
0.276816
0
LINE
8
Black
10
1.55438
20
0.276816
11
1.55286
21
0.268158
0
LINE
8
Black
10
1.55286
20
0.268158
11
1.55069
21
0.264412
0
LINE
8
Black
10
1.55069
20
0.264412
11
1.54946
21
0.260269
0
LINE
8
Black
10
1.54946
20
0.260269
11
1.50184
21
0.16503
0
LINE
8
Black
10
1.50184
20
0.16503
11
1.49468
21
0.155372
0
LINE
8
Black
10
1.49468
20
0.155372
11
1.48779
21
0.145538
0
LINE
8
Black
10
1.48779
20
0.145538
11
1.44018
21
0.097919
0
LINE
8
Black
10
1.44018
20
0.097919
11
1.43411
21
0.09367
0
LINE
8
Black
10
1.43411
20
0.09367
11
1.42875
21
0.088548
0
LINE
8
Black
10
1.42875
20
0.088548
11
1.28589
21
-0.00669
0
LINE
8
Black
10
1.28589
20
-0.00669
11
1.2741
21
-0.011864
0
LINE
8
Black
10
1.2741
20
-0.011864
11
1.26248
21
-0.017047
0
LINE
8
Black
10
1.26248
20
-0.017047
11
1.072
21
-0.064666
0
LINE
8
Black
10
1.072
20
-0.064666
11
1.06285
21
-0.065312
0
LINE
8
Black
10
1.06285
20
-0.065312
11
1.05381
21
-0.066905
0
LINE
8
Black
10
1.05381
20
-0.066905
11
0.672857
21
-0.066905
0
LINE
8
Black
10
0.672857
20
-0.066905
11
0.668597
21
-0.066154
0
LINE
8
Black
10
0.668597
20
-0.066154
11
0.664282
21
-0.066413
0
LINE
8
Black
10
0.664282
20
-0.066413
11
0.655861
21
-0.063908
0
LINE
8
Black
10
0.655861
20
-0.063908
11
0.647205
21
-0.062382
0
LINE
8
Black
10
0.647205
20
-0.062382
11
0.64346
21
-0.06022
0
LINE
8
Black
10
0.64346
20
-0.06022
11
0.639316
21
-0.058987
0
LINE
8
Black
10
0.639316
20
-0.058987
11
0.544078
21
-0.011368
0
LINE
8
Black
10
0.544078
20
-0.011368
11
0.53442
21
-0.004204
0
LINE
8
Black
10
0.53442
20
-0.004204
11
0.524586
21
0.002681
0
LINE
8
Black
10
0.524586
20
0.002681
11
0.476967
21
0.0503
0
LINE
8
Black
10
0.476967
20
0.0503
11
0.470082
21
0.060134
0
LINE
8
Black
10
0.470082
20
0.060134
11
0.462918
21
0.069792
0
LINE
8
Black
10
0.462918
20
0.069792
11
0.415299
21
0.16503
0
LINE
8
Black
10
0.415299
20
0.16503
11
0.414067
21
0.169173
0
LINE
8
Black
10
0.414067
20
0.169173
11
0.411904
21
0.172919
0
LINE
8
Black
10
0.411904
20
0.172919
11
0.410377
21
0.181577
0
LINE
8
Black
10
0.410377
20
0.181577
11
0.407873
21
0.189997
0
LINE
8
Black
10
0.407873
20
0.189997
11
0.408132
21
0.194312
0
LINE
8
Black
10
0.408132
20
0.194312
11
0.407381
21
0.198571
0
LINE
8
Black
10
0.407381
20
0.198571
11
0.407381
21
0.389048
0
LINE
8
Black
10
0.407381
20
0.389048
11
0.408132
21
0.393307
0
LINE
8
Black
10
0.408132
20
0.393307
11
0.407873
21
0.397622
0
LINE
8
Black
10
0.407873
20
0.397622
11
0.410377
21
0.406042
0
LINE
8
Black
10
0.410377
20
0.406042
11
0.411904
21
0.4147
0
LINE
8
Black
10
0.411904
20
0.4147
11
0.414067
21
0.418446
0
LINE
8
Black
10
0.414067
20
0.418446
11
0.415299
21
0.422589
0
LINE
8
Black
10
0.415299
20
0.422589
11
0.462918
21
0.517827
0
LINE
8
Black
10
0.462918
20
0.517827
11
0.470082
21
0.527485
0
LINE
8
Black
10
0.470082
20
0.527485
11
0.476967
21
0.537319
0
LINE
8
Black
10
0.476967
20
0.537319
11
0.524586
21
0.584938
0
LINE
8
Black
10
0.524586
20
0.584938
11
0.53442
21
0.591823
0
LINE
8
Black
10
0.53442
20
0.591823
11
0.544078
21
0.598987
0
LINE
8
Black
10
0.544078
20
0.598987
11
0.639316
21
0.646606
0
LINE
8
Black
10
0.639316
20
0.646606
11
0.64346
21
0.647839
0
LINE
8
Black
10
0.64346
20
0.647839
11
0.647205
21
0.650001
0
LINE
8
Black
10
0.647205
20
0.650001
11
0.655861
21
0.651527
0
LINE
8
Black
10
0.655861
20
0.651527
11
0.664282
21
0.654032
0
LINE
8
Black
10
0.664282
20
0.654032
11
0.668597
21
0.653773
0
LINE
8
Black
10
0.668597
20
0.653773
11
0.672857
21
0.654524
0
LINE
8
Black
10
0.672857
20
0.654524
11
0.910952
21
0.654524
0
LINE
8
Black
10
0.910952
20
0.654524
11
0.915211
21
0.653773
0
LINE
8
Black
10
0.690562
20
0.504524
11
0.622046
21
0.470266
0
LINE
8
Black
10
0.622046
20
0.470266
11
0.591639
21
0.439859
0
LINE
8
Black
10
0.591639
20
0.439859
11
0.557381
21
0.371343
0
LINE
8
Black
10
0.557381
20
0.371343
11
0.557381
21
0.216276
0
LINE
8
Black
10
0.557381
20
0.216276
11
0.591639
21
0.14776
0
LINE
8
Black
10
0.591639
20
0.14776
11
0.622046
21
0.117353
0
LINE
8
Black
10
0.622046
20
0.117353
11
0.690562
21
0.083095
0
LINE
8
Black
10
0.690562
20
0.083095
11
0.893247
21
0.083095
0
LINE
8
Black
10
0.893247
20
0.083095
11
0.961763
21
0.117353
0
LINE
8
Black
10
0.961763
20
0.117353
11
0.992171
21
0.14776
0
LINE
8
Black
10
0.992171
20
0.14776
11
1.02643
21
0.216276
0
LINE
8
Black
10
1.02643
20
0.216276
11
1.02643
21
0.371343
0
LINE
8
Black
10
1.02643
20
0.371343
11
0.992171
21
0.439859
0
LINE
8
Black
10
0.992171
20
0.439859
11
0.961763
21
0.470266
0
LINE
8
Black
10
0.961763
20
0.470266
11
0.893247
21
0.504524
0
LINE
8
Black
10
0.893247
20
0.504524
11
0.690562
21
0.504524
0
LINE
8
Black
10
1.15653
20
1.60577
11
1.16207
21
1.60577
0
LINE
8
Black
10
1.16207
20
1.60577
11
1.1692
21
1.60317
0
LINE
8
Black
10
1.1692
20
1.60317
11
1.17661
21
1.60165
0
LINE
8
Black
10
1.17661
20
1.60165
11
1.18134
21
1.59875
0
LINE
8
Black
10
1.18134
20
1.59875
11
1.18655
21
1.59686
0
LINE
8
Black
10
1.18655
20
1.59686
11
1.19235
21
1.59198
0
LINE
8
Black
10
1.19235
20
1.59198
11
1.19881
21
1.58802
0
LINE
8
Black
10
1.19881
20
1.58802
11
1.20225
21
1.58368
0
LINE
8
Black
10
1.20225
20
1.58368
11
1.2065
21
1.58011
0
LINE
8
Black
10
1.2065
20
1.58011
11
1.21029
21
1.57355
0
LINE
8
Black
10
1.21029
20
1.57355
11
1.215
21
1.56762
0
LINE
8
Black
10
1.215
20
1.56762
11
1.21675
21
1.56236
0
LINE
8
Black
10
1.21675
20
1.56236
11
1.21952
21
1.55756
0
LINE
8
Black
10
1.21952
20
1.55756
11
1.22084
21
1.5501
0
LINE
8
Black
10
1.22084
20
1.5501
11
1.22324
21
1.54291
0
LINE
8
Black
10
1.22324
20
1.54291
11
1.22308
21
1.53736
0
LINE
8
Black
10
1.22308
20
1.53736
11
1.22405
21
1.5319
0
LINE
8
Black
10
1.22405
20
1.5319
11
1.22405
21
1.13071
0
LINE
8
Black
10
1.22405
20
1.13071
11
1.48238
21
1.13071
0
LINE
8
Black
10
1.48238
20
1.13071
11
1.50803
21
1.12619
0
LINE
8
Black
10
1.50803
20
1.12619
11
1.53059
21
1.11317
0
LINE
8
Black
10
1.53059
20
1.11317
11
1.54733
21
1.09321
0
LINE
8
Black
10
1.54733
20
1.09321
11
1.55624
21
1.06874
0
LINE
8
Black
10
1.55624
20
1.06874
11
1.55624
21
1.04269
0
LINE
8
Black
10
1.55624
20
1.04269
11
1.54733
21
1.01821
0
LINE
8
Black
10
1.54733
20
1.01821
11
1.53059
21
0.998261
0
LINE
8
Black
10
1.53059
20
0.998261
11
1.50803
21
0.985237
0
LINE
8
Black
10
1.50803
20
0.985237
11
1.48238
21
0.980714
0
LINE
8
Black
10
1.48238
20
0.980714
11
1.22405
21
0.980714
0
LINE
8
Black
10
1.22405
20
0.980714
11
1.22405
21
0.912857
0
LINE
8
Black
10
1.22405
20
0.912857
11
1.21952
21
0.887205
0
LINE
8
Black
10
1.21952
20
0.887205
11
1.2065
21
0.864648
0
LINE
8
Black
10
1.2065
20
0.864648
11
1.18655
21
0.847905
0
LINE
8
Black
10
1.18655
20
0.847905
11
1.16207
21
0.838996
0
LINE
8
Black
10
1.16207
20
0.838996
11
1.13602
21
0.838996
0
LINE
8
Black
10
1.13602
20
0.838996
11
1.11155
21
0.847905
0
LINE
8
Black
10
1.11155
20
0.847905
11
1.09159
21
0.864648
0
LINE
8
Black
10
1.09159
20
0.864648
11
1.07857
21
0.887205
0
LINE
8
Black
10
1.07857
20
0.887205
11
1.07405
21
0.912857
0
LINE
8
Black
10
1.07405
20
0.912857
11
1.07405
21
0.980714
0
LINE
8
Black
10
1.07405
20
0.980714
11
0.815714
21
0.980714
0
LINE
8
Black
10
0.815714
20
0.980714
11
0.790062
21
0.985237
0
LINE
8
Black
10
0.790062
20
0.985237
11
0.767505
21
0.998261
0
LINE
8
Black
10
0.767505
20
0.998261
11
0.750762
21
1.01821
0
LINE
8
Black
10
0.750762
20
1.01821
11
0.741853
21
1.04269
0
LINE
8
Black
10
0.741853
20
1.04269
11
0.741853
21
1.06874
0
LINE
8
Black
10
0.741853
20
1.06874
11
0.750762
21
1.09321
0
LINE
8
Black
10
0.750762
20
1.09321
11
0.767505
21
1.11317
0
LINE
8
Black
10
0.767505
20
1.11317
11
0.790062
21
1.12619
0
LINE
8
Black
10
0.790062
20
1.12619
11
0.815714
21
1.13071
0
LINE
8
Black
10
0.815714
20
1.13071
11
1.07405
21
1.13071
0
LINE
8
Black
10
1.07405
20
1.13071
11
1.07405
21
1.42785
0
LINE
8
Black
10
1.07405
20
1.42785
11
0.458479
21
1.22266
0
LINE
8
Black
10
0.458479
20
1.22266
11
0.432713
21
1.21884
0
LINE
8
Black
10
0.432713
20
1.21884
11
0.407195
21
1.22406
0
LINE
8
Black
10
0.407195
20
1.22406
11
0.385002
21
1.23769
0
LINE
8
Black
10
0.385002
20
1.23769
11
0.36881
21
1.2581
0
LINE
8
Black
10
0.36881
20
1.2581
11
0.360573
21
1.28281
0
LINE
8
Black
10
0.360573
20
1.28281
11
0.361285
21
1.30885
0
LINE
8
Black
10
0.361285
20
1.30885
11
0.370859
21
1.33307
0
LINE
8
Black
10
0.370859
20
1.33307
11
0.38814
21
1.35256
0
LINE
8
Black
10
0.38814
20
1.35256
11
0.411045
21
1.36496
0
LINE
8
Black
10
0.411045
20
1.36496
11
1.12533
21
1.60306
0
LINE
8
Black
10
1.12533
20
1.60306
11
1.13081
21
1.60387
0
LINE
8
Black
10
1.13081
20
1.60387
11
1.13602
21
1.60577
0
LINE
8
Black
10
1.13602
20
1.60577
11
1.1436
21
1.60577
0
LINE
8
Black
10
1.1436
20
1.60577
11
1.1511
21
1.60688
0
LINE
8
Black
10
1.1511
20
1.60688
11
1.15653
21
1.60577
0
LINE
8
Black
10
1.50803
20
2.55476
11
1.53059
21
2.54174
0
LINE
8
Black
10
1.53059
20
2.54174
11
1.54733
21
2.52179
0
LINE
8
Black
10
1.54733
20
2.52179
11
1.55624
21
2.49731
0
LINE
8
Black
10
1.55624
20
2.49731
11
1.55624
21
2.47126
0
LINE
8
Black
10
1.55624
20
2.47126
11
1.54733
21
2.44679
0
LINE
8
Black
10
1.54733
20
2.44679
11
1.53059
21
2.42683
0
LINE
8
Black
10
1.53059
20
2.42683
11
1.50803
21
2.41381
0
LINE
8
Black
10
1.50803
20
2.41381
11
1.48238
21
2.40929
0
LINE
8
Black
10
1.48238
20
2.40929
11
1.08119
21
2.40929
0
LINE
8
Black
10
1.08119
20
2.40929
11
1.08119
21
2.10333
0
LINE
8
Black
10
1.08119
20
2.10333
11
1.08044
21
2.09907
0
LINE
8
Black
10
1.08044
20
2.09907
11
1.0807
21
2.09476
0
LINE
8
Black
10
1.0807
20
2.09476
11
1.07819
21
2.08634
0
LINE
8
Black
10
1.07819
20
2.08634
11
1.07667
21
2.07768
0
LINE
8
Black
10
1.07667
20
2.07768
11
1.07451
21
2.07394
0
LINE
8
Black
10
1.07451
20
2.07394
11
1.07327
21
2.06979
0
LINE
8
Black
10
1.07327
20
2.06979
11
1.02565
21
1.97455
0
LINE
8
Black
10
1.02565
20
1.97455
11
1.01849
21
1.9649
0
LINE
8
Black
10
1.01849
20
1.9649
11
1.0116
21
1.95506
0
LINE
8
Black
10
1.0116
20
1.95506
11
0.963985
21
1.90744
0
LINE
8
Black
10
0.963985
20
1.90744
11
0.954151
21
1.90056
0
LINE
8
Black
10
0.954151
20
1.90056
11
0.944493
21
1.89339
0
LINE
8
Black
10
0.944493
20
1.89339
11
0.849255
21
1.84577
0
LINE
8
Black
10
0.849255
20
1.84577
11
0.845112
21
1.84454
0
LINE
8
Black
10
0.845112
20
1.84454
11
0.841366
21
1.84238
0
LINE
8
Black
10
0.841366
20
1.84238
11
0.832708
21
1.84085
0
LINE
8
Black
10
0.832708
20
1.84085
11
0.824288
21
1.83835
0
LINE
8
Black
10
0.824288
20
1.83835
11
0.819973
21
1.83861
0
LINE
8
Black
10
0.819973
20
1.83861
11
0.815714
21
1.83786
0
LINE
8
Black
10
0.815714
20
1.83786
11
0.672857
21
1.83786
0
LINE
8
Black
10
0.672857
20
1.83786
11
0.668597
21
1.83861
0
LINE
8
Black
10
0.668597
20
1.83861
11
0.664282
21
1.83835
0
LINE
8
Black
10
0.664282
20
1.83835
11
0.655861
21
1.84085
0
LINE
8
Black
10
0.655861
20
1.84085
11
0.647205
21
1.84238
0
LINE
8
Black
10
0.647205
20
1.84238
11
0.64346
21
1.84454
0
LINE
8
Black
10
0.64346
20
1.84454
11
0.639316
21
1.84577
0
LINE
8
Black
10
0.639316
20
1.84577
11
0.544078
21
1.89339
0
LINE
8
Black
10
0.544078
20
1.89339
11
0.53442
21
1.90056
0
LINE
8
Black
10
0.53442
20
1.90056
11
0.524586
21
1.90744
0
LINE
8
Black
10
0.524586
20
1.90744
11
0.476967
21
1.95506
0
LINE
8
Black
10
0.476967
20
1.95506
11
0.470082
21
1.9649
0
LINE
8
Black
10
0.470082
20
1.9649
11
0.462918
21
1.97455
0
LINE
8
Black
10
0.462918
20
1.97455
11
0.415299
21
2.06979
0
LINE
8
Black
10
0.415299
20
2.06979
11
0.414067
21
2.07394
0
LINE
8
Black
10
0.414067
20
2.07394
11
0.411904
21
2.07768
0
LINE
8
Black
10
0.411904
20
2.07768
11
0.410377
21
2.08634
0
LINE
8
Black
10
0.410377
20
2.08634
11
0.407873
21
2.09476
0
LINE
8
Black
10
0.407873
20
2.09476
11
0.408132
21
2.09907
0
LINE
8
Black
10
0.408132
20
2.09907
11
0.407381
21
2.10333
0
LINE
8
Black
10
0.407381
20
2.10333
11
0.407381
21
2.48429
0
LINE
8
Black
10
0.407381
20
2.48429
11
0.40852
21
2.49075
0
LINE
8
Black
10
0.40852
20
2.49075
11
0.40852
21
2.49731
0
LINE
8
Black
10
0.40852
20
2.49731
11
0.410765
21
2.50348
0
LINE
8
Black
10
0.410765
20
2.50348
11
0.411904
21
2.50994
0
LINE
8
Black
10
0.411904
20
2.50994
11
0.415185
21
2.51562
0
LINE
8
Black
10
0.415185
20
2.51562
11
0.417429
21
2.52179
0
LINE
8
Black
10
0.417429
20
2.52179
11
0.421647
21
2.52681
0
LINE
8
Black
10
0.421647
20
2.52681
11
0.424928
21
2.53249
0
LINE
8
Black
10
0.424928
20
2.53249
11
0.429954
21
2.53671
0
LINE
8
Black
10
0.429954
20
2.53671
11
0.434172
21
2.54174
0
LINE
8
Black
10
0.434172
20
2.54174
11
0.439854
21
2.54502
0
LINE
8
Black
10
0.439854
20
2.54502
11
0.444881
21
2.54924
0
LINE
8
Black
10
0.444881
20
2.54924
11
0.451047
21
2.55148
0
LINE
8
Black
10
0.451047
20
2.55148
11
0.456729
21
2.55476
0
LINE
8
Black
10
0.456729
20
2.55476
11
0.46319
21
2.5559
0
LINE
8
Black
10
0.46319
20
2.5559
11
0.469357
21
2.55815
0
LINE
8
Black
10
0.469357
20
2.55815
11
0.475921
21
2.55815
0
LINE
8
Black
10
0.475921
20
2.55815
11
0.482381
21
2.55929
0
LINE
8
Black
10
0.482381
20
2.55929
11
1.48238
21
2.55929
0
LINE
8
Black
10
1.48238
20
2.55929
11
1.50803
21
2.55476
0
LINE
8
Black
10
0.557381
20
2.40929
11
0.557381
21
2.12104
0
LINE
8
Black
10
0.557381
20
2.12104
11
0.591639
21
2.05252
0
LINE
8
Black
10
0.591639
20
2.05252
11
0.622046
21
2.02211
0
LINE
8
Black
10
0.622046
20
2.02211
11
0.690562
21
1.98786
0
LINE
8
Black
10
0.690562
20
1.98786
11
0.798009
21
1.98786
0
LINE
8
Black
10
0.798009
20
1.98786
11
0.866525
21
2.02211
0
LINE
8
Black
10
0.866525
20
2.02211
11
0.896932
21
2.05252
0
LINE
8
Black
10
0.896932
20
2.05252
11
0.93119
21
2.12104
0
LINE
8
Black
10
0.93119
20
2.12104
11
0.93119
21
2.40929
0
LINE
8
Black
10
0.93119
20
2.40929
11
0.557381
21
2.40929
0
LINE
8
Black
10
30.0065
20
26.5039
11
30.013
21
26.5039
0
LINE
8
Black
10
30.013
20
26.5039
11
30.0192
21
26.5016
0
LINE
8
Black
10
30.0192
20
26.5016
11
30.0257
21
26.5005
0
LINE
8
Black
10
30.0257
20
26.5005
11
30.0313
21
26.4972
0
LINE
8
Black
10
30.0313
20
26.4972
11
30.0375
21
26.495
0
LINE
8
Black
10
30.0375
20
26.495
11
30.0425
21
26.4907
0
LINE
8
Black
10
30.0425
20
26.4907
11
30.0482
21
26.4875
0
LINE
8
Black
10
30.0482
20
26.4875
11
30.0524
21
26.4824
0
LINE
8
Black
10
30.0524
20
26.4824
11
30.0575
21
26.4782
0
LINE
8
Black
10
30.0575
20
26.4782
11
30.0607
21
26.4725
0
LINE
8
Black
10
30.0607
20
26.4725
11
30.065
21
26.4675
0
LINE
8
Black
10
30.065
20
26.4675
11
30.0672
21
26.4613
0
LINE
8
Black
10
30.0672
20
26.4613
11
30.0705
21
26.4557
0
LINE
8
Black
10
30.0705
20
26.4557
11
30.0716
21
26.4492
0
LINE
8
Black
10
30.0716
20
26.4492
11
30.0739
21
26.443
0
LINE
8
Black
10
30.0739
20
26.443
11
30.0739
21
26.4365
0
LINE
8
Black
10
30.0739
20
26.4365
11
30.075
21
26.43
0
LINE
8
Black
10
30.075
20
26.43
11
30.075
21
3.57
0
LINE
8
Black
10
30.075
20
3.57
11
30.0739
21
3.56354
0
LINE
8
Black
10
30.0739
20
3.56354
11
30.0739
21
3.55698
0
LINE
8
Black
10
30.0739
20
3.55698
11
30.0716
21
3.55081
0
LINE
8
Black
10
30.0716
20
3.55081
11
30.0705
21
3.54435
0
LINE
8
Black
10
30.0705
20
3.54435
11
30.0672
21
3.53867
0
LINE
8
Black
10
30.0672
20
3.53867
11
30.065
21
3.5325
0
LINE
8
Black
10
30.065
20
3.5325
11
30.0607
21
3.52747
0
LINE
8
Black
10
30.0607
20
3.52747
11
30.0575
21
3.52179
0
LINE
8
Black
10
30.0575
20
3.52179
11
30.0524
21
3.51757
0
LINE
8
Black
10
30.0524
20
3.51757
11
30.0482
21
3.51255
0
LINE
8
Black
10
30.0482
20
3.51255
11
30.0425
21
3.50927
0
LINE
8
Black
10
30.0425
20
3.50927
11
30.0375
21
3.50505
0
LINE
8
Black
10
30.0375
20
3.50505
11
30.0313
21
3.5028
0
LINE
8
Black
10
30.0313
20
3.5028
11
30.0257
21
3.49952
0
LINE
8
Black
10
30.0257
20
3.49952
11
30.0192
21
3.49838
0
LINE
8
Black
10
30.0192
20
3.49838
11
30.013
21
3.49614
0
LINE
8
Black
10
30.013
20
3.49614
11
30.0065
21
3.49614
0
LINE
8
Black
10
30.0065
20
3.49614
11
30
21
3.495
0
LINE
8
Black
10
30
20
3.495
11
27.46
21
3.495
0
LINE
8
Black
10
27.46
20
3.495
11
27.4535
21
3.49614
0
LINE
8
Black
10
27.4535
20
3.49614
11
27.447
21
3.49614
0
LINE
8
Black
10
27.447
20
3.49614
11
27.4408
21
3.49838
0
LINE
8
Black
10
27.4408
20
3.49838
11
27.4343
21
3.49952
0
LINE
8
Black
10
27.4343
20
3.49952
11
27.4287
21
3.5028
0
LINE
8
Black
10
27.4287
20
3.5028
11
27.4225
21
3.50505
0
LINE
8
Black
10
27.4225
20
3.50505
11
27.4175
21
3.50927
0
LINE
8
Black
10
27.4175
20
3.50927
11
27.4118
21
3.51255
0
LINE
8
Black
10
27.4118
20
3.51255
11
27.4076
21
3.51757
0
LINE
8
Black
10
27.4076
20
3.51757
11
27.4025
21
3.52179
0
LINE
8
Black
10
27.4025
20
3.52179
11
27.3993
21
3.52747
0
LINE
8
Black
10
27.3993
20
3.52747
11
27.395
21
3.5325
0
LINE
8
Black
10
27.395
20
3.5325
11
27.3928
21
3.53867
0
LINE
8
Black
10
27.3928
20
3.53867
11
27.3895
21
3.54435
0
LINE
8
Black
10
27.3895
20
3.54435
11
27.3884
21
3.55081
0
LINE
8
Black
10
27.3884
20
3.55081
11
27.3861
21
3.55698
0
LINE
8
Black
10
27.3861
20
3.55698
11
27.3861
21
3.56354
0
LINE
8
Black
10
27.3861
20
3.56354
11
27.385
21
3.57
0
LINE
8
Black
10
27.385
20
3.57
11
27.385
21
26.43
0
LINE
8
Black
10
27.385
20
26.43
11
27.3861
21
26.4365
0
LINE
8
Black
10
27.3861
20
26.4365
11
27.3861
21
26.443
0
LINE
8
Black
10
27.3861
20
26.443
11
27.3884
21
26.4492
0
LINE
8
Black
10
27.3884
20
26.4492
11
27.3895
21
26.4557
0
LINE
8
Black
10
27.3895
20
26.4557
11
27.3928
21
26.4613
0
LINE
8
Black
10
27.3928
20
26.4613
11
27.395
21
26.4675
0
LINE
8
Black
10
27.395
20
26.4675
11
27.3993
21
26.4725
0
LINE
8
Black
10
27.3993
20
26.4725
11
27.4025
21
26.4782
0
LINE
8
Black
10
27.4025
20
26.4782
11
27.4076
21
26.4824
0
LINE
8
Black
10
27.4076
20
26.4824
11
27.4118
21
26.4875
0
LINE
8
Black
10
27.4118
20
26.4875
11
27.4175
21
26.4907
0
LINE
8
Black
10
27.4175
20
26.4907
11
27.4225
21
26.495
0
LINE
8
Black
10
27.4225
20
26.495
11
27.4287
21
26.4972
0
LINE
8
Black
10
27.4287
20
26.4972
11
27.4343
21
26.5005
0
LINE
8
Black
10
27.4343
20
26.5005
11
27.4408
21
26.5016
0
LINE
8
Black
10
27.4408
20
26.5016
11
27.447
21
26.5039
0
LINE
8
Black
10
27.447
20
26.5039
11
27.4535
21
26.5039
0
LINE
8
Black
10
27.4535
20
26.5039
11
27.46
21
26.505
0
LINE
8
Black
10
27.46
20
26.505
11
30
21
26.505
0
LINE
8
Black
10
30
20
26.505
11
30.0065
21
26.5039
0
LINE
8
Black
10
27.535
20
26.355
11
27.535
21
3.645
0
LINE
8
Black
10
27.535
20
3.645
11
29.925
21
3.645
0
LINE
8
Black
10
29.925
20
3.645
11
29.925
21
26.355
0
LINE
8
Black
10
29.925
20
26.355
11
27.535
21
26.355
0
LINE
8
Black
10
2.54646
20
26.5039
11
2.55302
21
26.5039
0
LINE
8
Black
10
2.55302
20
26.5039
11
2.55919
21
26.5016
0
LINE
8
Black
10
2.55919
20
26.5016
11
2.56565
21
26.5005
0
LINE
8
Black
10
2.56565
20
26.5005
11
2.57133
21
26.4972
0
LINE
8
Black
10
2.57133
20
26.4972
11
2.5775
21
26.495
0
LINE
8
Black
10
2.5775
20
26.495
11
2.58253
21
26.4907
0
LINE
8
Black
10
2.58253
20
26.4907
11
2.58821
21
26.4875
0
LINE
8
Black
10
2.58821
20
26.4875
11
2.59243
21
26.4824
0
LINE
8
Black
10
2.59243
20
26.4824
11
2.59745
21
26.4782
0
LINE
8
Black
10
2.59745
20
26.4782
11
2.60073
21
26.4725
0
LINE
8
Black
10
2.60073
20
26.4725
11
2.60495
21
26.4675
0
LINE
8
Black
10
2.60495
20
26.4675
11
2.6072
21
26.4613
0
LINE
8
Black
10
2.6072
20
26.4613
11
2.61048
21
26.4557
0
LINE
8
Black
10
2.61048
20
26.4557
11
2.61162
21
26.4492
0
LINE
8
Black
10
2.61162
20
26.4492
11
2.61386
21
26.443
0
LINE
8
Black
10
2.61386
20
26.443
11
2.61386
21
26.4365
0
LINE
8
Black
10
2.61386
20
26.4365
11
2.615
21
26.43
0
LINE
8
Black
10
2.615
20
26.43
11
2.615
21
3.57
0
LINE
8
Black
10
2.615
20
3.57
11
2.61386
21
3.56354
0
LINE
8
Black
10
2.61386
20
3.56354
11
2.61386
21
3.55698
0
LINE
8
Black
10
2.61386
20
3.55698
11
2.61162
21
3.55081
0
LINE
8
Black
10
2.61162
20
3.55081
11
2.61048
21
3.54435
0
LINE
8
Black
10
2.61048
20
3.54435
11
2.6072
21
3.53867
0
LINE
8
Black
10
2.6072
20
3.53867
11
2.60495
21
3.5325
0
LINE
8
Black
10
2.60495
20
3.5325
11
2.60073
21
3.52747
0
LINE
8
Black
10
2.60073
20
3.52747
11
2.59745
21
3.52179
0
LINE
8
Black
10
2.59745
20
3.52179
11
2.59243
21
3.51757
0
LINE
8
Black
10
2.59243
20
3.51757
11
2.58821
21
3.51255
0
LINE
8
Black
10
2.58821
20
3.51255
11
2.58253
21
3.50927
0
LINE
8
Black
10
2.58253
20
3.50927
11
2.5775
21
3.50505
0
LINE
8
Black
10
2.5775
20
3.50505
11
2.57133
21
3.5028
0
LINE
8
Black
10
2.57133
20
3.5028
11
2.56565
21
3.49952
0
LINE
8
Black
10
2.56565
20
3.49952
11
2.55919
21
3.49838
0
LINE
8
Black
10
2.55919
20
3.49838
11
2.55302
21
3.49614
0
LINE
8
Black
10
2.55302
20
3.49614
11
2.54646
21
3.49614
0
LINE
8
Black
10
2.54646
20
3.49614
11
2.54
21
3.495
0
LINE
8
Black
10
2.54
20
3.495
11
0
21
3.495
0
LINE
8
Black
10
0
20
3.495
11
-0.00646
21
3.49614
0
LINE
8
Black
10
-0.00646
20
3.49614
11
-0.013024
21
3.49614
0
LINE
8
Black
10
-0.013024
20
3.49614
11
-0.019191
21
3.49838
0
LINE
8
Black
10
-0.019191
20
3.49838
11
-0.025652
21
3.49952
0
LINE
8
Black
10
-0.025652
20
3.49952
11
-0.031334
21
3.5028
0
LINE
8
Black
10
-0.031334
20
3.5028
11
-0.0375
21
3.50505
0
LINE
8
Black
10
-0.0375
20
3.50505
11
-0.042527
21
3.50927
0
LINE
8
Black
10
-0.042527
20
3.50927
11
-0.048209
21
3.51255
0
LINE
8
Black
10
-0.048209
20
3.51255
11
-0.052427
21
3.51757
0
LINE
8
Black
10
-0.052427
20
3.51757
11
-0.057453
21
3.52179
0
LINE
8
Black
10
-0.057453
20
3.52179
11
-0.060734
21
3.52747
0
LINE
8
Black
10
-0.060734
20
3.52747
11
-0.064952
21
3.5325
0
LINE
8
Black
10
-0.064952
20
3.5325
11
-0.067196
21
3.53867
0
LINE
8
Black
10
-0.067196
20
3.53867
11
-0.070477
21
3.54435
0
LINE
8
Black
10
-0.070477
20
3.54435
11
-0.071616
21
3.55081
0
LINE
8
Black
10
-0.071616
20
3.55081
11
-0.073861
21
3.55698
0
LINE
8
Black
10
-0.073861
20
3.55698
11
-0.073861
21
3.56354
0
LINE
8
Black
10
-0.073861
20
3.56354
11
-0.075
21
3.57
0
LINE
8
Black
10
-0.075
20
3.57
11
-0.075
21
26.43
0
LINE
8
Black
10
-0.075
20
26.43
11
-0.073861
21
26.4365
0
LINE
8
Black
10
-0.073861
20
26.4365
11
-0.073861
21
26.443
0
LINE
8
Black
10
-0.073861
20
26.443
11
-0.071616
21
26.4492
0
LINE
8
Black
10
-0.071616
20
26.4492
11
-0.070477
21
26.4557
0
LINE
8
Black
10
-0.070477
20
26.4557
11
-0.067196
21
26.4613
0
LINE
8
Black
10
-0.067196
20
26.4613
11
-0.064952
21
26.4675
0
LINE
8
Black
10
-0.064952
20
26.4675
11
-0.060734
21
26.4725
0
LINE
8
Black
10
-0.060734
20
26.4725
11
-0.057453
21
26.4782
0
LINE
8
Black
10
-0.057453
20
26.4782
11
-0.052427
21
26.4824
0
LINE
8
Black
10
-0.052427
20
26.4824
11
-0.048209
21
26.4875
0
LINE
8
Black
10
-0.048209
20
26.4875
11
-0.042527
21
26.4907
0
LINE
8
Black
10
-0.042527
20
26.4907
11
-0.0375
21
26.495
0
LINE
8
Black
10
-0.0375
20
26.495
11
-0.031334
21
26.4972
0
LINE
8
Black
10
-0.031334
20
26.4972
11
-0.025652
21
26.5005
0
LINE
8
Black
10
-0.025652
20
26.5005
11
-0.019191
21
26.5016
0
LINE
8
Black
10
-0.019191
20
26.5016
11
-0.013024
21
26.5039
0
LINE
8
Black
10
-0.013024
20
26.5039
11
-0.00646
21
26.5039
0
LINE
8
Black
10
-0.00646
20
26.5039
11
0
21
26.505
0
LINE
8
Black
10
0
20
26.505
11
2.54
21
26.505
0
LINE
8
Black
10
2.54
20
26.505
11
2.54646
21
26.5039
0
LINE
8
Black
10
0.075
20
26.355
11
0.075
21
3.645
0
LINE
8
Black
10
0.075
20
3.645
11
2.465
21
3.645
0
LINE
8
Black
10
2.465
20
3.645
11
2.465
21
26.355
0
LINE
8
Black
10
2.465
20
26.355
11
0.075
21
26.355
0
LINE
8
Black
10
30.2605
20
26.7579
11
30.267
21
26.7579
0
LINE
8
Black
10
30.267
20
26.7579
11
30.2732
21
26.7556
0
LINE
8
Black
10
30.2732
20
26.7556
11
30.2797
21
26.7545
0
LINE
8
Black
10
30.2797
20
26.7545
11
30.2853
21
26.7512
0
LINE
8
Black
10
30.2853
20
26.7512
11
30.2915
21
26.749
0
LINE
8
Black
10
30.2915
20
26.749
11
30.2965
21
26.7447
0
LINE
8
Black
10
30.2965
20
26.7447
11
30.3022
21
26.7415
0
LINE
8
Black
10
30.3022
20
26.7415
11
30.3064
21
26.7364
0
LINE
8
Black
10
30.3064
20
26.7364
11
30.3115
21
26.7322
0
LINE
8
Black
10
30.3115
20
26.7322
11
30.3147
21
26.7265
0
LINE
8
Black
10
30.3147
20
26.7265
11
30.319
21
26.7215
0
LINE
8
Black
10
30.319
20
26.7215
11
30.3212
21
26.7153
0
LINE
8
Black
10
30.3212
20
26.7153
11
30.3245
21
26.7097
0
LINE
8
Black
10
30.3245
20
26.7097
11
30.3256
21
26.7032
0
LINE
8
Black
10
30.3256
20
26.7032
11
30.3279
21
26.697
0
LINE
8
Black
10
30.3279
20
26.697
11
30.3279
21
26.6905
0
LINE
8
Black
10
30.3279
20
26.6905
11
30.329
21
26.684
0
LINE
8
Black
10
30.329
20
26.684
11
30.329
21
23.89
0
LINE
8
Black
10
30.329
20
23.89
11
30.3245
21
23.8643
0
LINE
8
Black
10
30.3245
20
23.8643
11
30.3115
21
23.8418
0
LINE
8
Black
10
30.3115
20
23.8418
11
30.2915
21
23.825
0
LINE
8
Black
10
30.2915
20
23.825
11
30.267
21
23.8161
0
LINE
8
Black
10
30.267
20
23.8161
11
30.241
21
23.8161
0
LINE
8
Black
10
30.241
20
23.8161
11
30.2165
21
23.825
0
LINE
8
Black
10
30.2165
20
23.825
11
30.1965
21
23.8418
0
LINE
8
Black
10
30.1965
20
23.8418
11
30.1835
21
23.8643
0
LINE
8
Black
10
30.1835
20
23.8643
11
30.179
21
23.89
0
LINE
8
Black
10
30.179
20
23.89
11
30.179
21
26.609
0
LINE
8
Black
10
30.179
20
26.609
11
27.281
21
26.609
0
LINE
8
Black
10
27.281
20
26.609
11
27.281
21
23.89
0
LINE
8
Black
10
27.281
20
23.89
11
27.2765
21
23.8643
0
LINE
8
Black
10
27.2765
20
23.8643
11
27.2635
21
23.8418
0
LINE
8
Black
10
27.2635
20
23.8418
11
27.2435
21
23.825
0
LINE
8
Black
10
27.2435
20
23.825
11
27.219
21
23.8161
0
LINE
8
Black
10
27.219
20
23.8161
11
27.193
21
23.8161
0
LINE
8
Black
10
27.193
20
23.8161
11
27.1685
21
23.825
0
LINE
8
Black
10
27.1685
20
23.825
11
27.1485
21
23.8418
0
LINE
8
Black
10
27.1485
20
23.8418
11
27.1355
21
23.8643
0
LINE
8
Black
10
27.1355
20
23.8643
11
27.131
21
23.89
0
LINE
8
Black
10
27.131
20
23.89
11
27.131
21
26.684
0
LINE
8
Black
10
27.131
20
26.684
11
27.1321
21
26.6905
0
LINE
8
Black
10
27.1321
20
26.6905
11
27.1321
21
26.697
0
LINE
8
Black
10
27.1321
20
26.697
11
27.1344
21
26.7032
0
LINE
8
Black
10
27.1344
20
26.7032
11
27.1355
21
26.7097
0
LINE
8
Black
10
27.1355
20
26.7097
11
27.1388
21
26.7153
0
LINE
8
Black
10
27.1388
20
26.7153
11
27.141
21
26.7215
0
LINE
8
Black
10
27.141
20
26.7215
11
27.1453
21
26.7265
0
LINE
8
Black
10
27.1453
20
26.7265
11
27.1485
21
26.7322
0
LINE
8
Black
10
27.1485
20
26.7322
11
27.1536
21
26.7364
0
LINE
8
Black
10
27.1536
20
26.7364
11
27.1578
21
26.7415
0
LINE
8
Black
10
27.1578
20
26.7415
11
27.1635
21
26.7447
0
LINE
8
Black
10
27.1635
20
26.7447
11
27.1685
21
26.749
0
LINE
8
Black
10
27.1685
20
26.749
11
27.1747
21
26.7512
0
LINE
8
Black
10
27.1747
20
26.7512
11
27.1803
21
26.7545
0
LINE
8
Black
10
27.1803
20
26.7545
11
27.1868
21
26.7556
0
LINE
8
Black
10
27.1868
20
26.7556
11
27.193
21
26.7579
0
LINE
8
Black
10
27.193
20
26.7579
11
27.1995
21
26.7579
0
LINE
8
Black
10
27.1995
20
26.7579
11
27.206
21
26.759
0
LINE
8
Black
10
27.206
20
26.759
11
30.254
21
26.759
0
LINE
8
Black
10
30.254
20
26.759
11
30.2605
21
26.7579
0
LINE
8
Black
10
2.80046
20
26.7579
11
2.80702
21
26.7579
0
LINE
8
Black
10
2.80702
20
26.7579
11
2.81319
21
26.7556
0
LINE
8
Black
10
2.81319
20
26.7556
11
2.81965
21
26.7545
0
LINE
8
Black
10
2.81965
20
26.7545
11
2.82533
21
26.7512
0
LINE
8
Black
10
2.82533
20
26.7512
11
2.8315
21
26.749
0
LINE
8
Black
10
2.8315
20
26.749
11
2.83653
21
26.7447
0
LINE
8
Black
10
2.83653
20
26.7447
11
2.84221
21
26.7415
0
LINE
8
Black
10
2.84221
20
26.7415
11
2.84643
21
26.7364
0
LINE
8
Black
10
2.84643
20
26.7364
11
2.85145
21
26.7322
0
LINE
8
Black
10
2.85145
20
26.7322
11
2.85473
21
26.7265
0
LINE
8
Black
10
2.85473
20
26.7265
11
2.85895
21
26.7215
0
LINE
8
Black
10
2.85895
20
26.7215
11
2.8612
21
26.7153
0
LINE
8
Black
10
2.8612
20
26.7153
11
2.86448
21
26.7097
0
LINE
8
Black
10
2.86448
20
26.7097
11
2.86562
21
26.7032
0
LINE
8
Black
10
2.86562
20
26.7032
11
2.86786
21
26.697
0
LINE
8
Black
10
2.86786
20
26.697
11
2.86786
21
26.6905
0
LINE
8
Black
10
2.86786
20
26.6905
11
2.869
21
26.684
0
LINE
8
Black
10
2.869
20
26.684
11
2.869
21
23.89
0
LINE
8
Black
10
2.869
20
23.89
11
2.86448
21
23.8643
0
LINE
8
Black
10
2.86448
20
23.8643
11
2.85145
21
23.8418
0
LINE
8
Black
10
2.85145
20
23.8418
11
2.8315
21
23.825
0
LINE
8
Black
10
2.8315
20
23.825
11
2.80702
21
23.8161
0
LINE
8
Black
10
2.80702
20
23.8161
11
2.78098
21
23.8161
0
LINE
8
Black
10
2.78098
20
23.8161
11
2.7565
21
23.825
0
LINE
8
Black
10
2.7565
20
23.825
11
2.73655
21
23.8418
0
LINE
8
Black
10
2.73655
20
23.8418
11
2.72352
21
23.8643
0
LINE
8
Black
10
2.72352
20
23.8643
11
2.719
21
23.89
0
LINE
8
Black
10
2.719
20
23.89
11
2.719
21
26.609
0
LINE
8
Black
10
2.719
20
26.609
11
-0.179
21
26.609
0
LINE
8
Black
10
-0.179
20
26.609
11
-0.179
21
23.89
0
LINE
8
Black
10
-0.179
20
23.89
11
-0.183523
21
23.8643
0
LINE
8
Black
10
-0.183523
20
23.8643
11
-0.196547
21
23.8418
0
LINE
8
Black
10
-0.196547
20
23.8418
11
-0.2165
21
23.825
0
LINE
8
Black
10
-0.2165
20
23.825
11
-0.240976
21
23.8161
0
LINE
8
Black
10
-0.240976
20
23.8161
11
-0.267024
21
23.8161
0
LINE
8
Black
10
-0.267024
20
23.8161
11
-0.2915
21
23.825
0
LINE
8
Black
10
-0.2915
20
23.825
11
-0.311453
21
23.8418
0
LINE
8
Black
10
-0.311453
20
23.8418
11
-0.324477
21
23.8643
0
LINE
8
Black
10
-0.324477
20
23.8643
11
-0.329
21
23.89
0
LINE
8
Black
10
-0.329
20
23.89
11
-0.329
21
26.684
0
LINE
8
Black
10
-0.329
20
26.684
11
-0.327861
21
26.6905
0
LINE
8
Black
10
-0.327861
20
26.6905
11
-0.327861
21
26.697
0
LINE
8
Black
10
-0.327861
20
26.697
11
-0.325616
21
26.7032
0
LINE
8
Black
10
-0.325616
20
26.7032
11
-0.324477
21
26.7097
0
LINE
8
Black
10
-0.324477
20
26.7097
11
-0.321196
21
26.7153
0
LINE
8
Black
10
-0.321196
20
26.7153
11
-0.318952
21
26.7215
0
LINE
8
Black
10
-0.318952
20
26.7215
11
-0.314734
21
26.7265
0
LINE
8
Black
10
-0.314734
20
26.7265
11
-0.311453
21
26.7322
0
LINE
8
Black
10
-0.311453
20
26.7322
11
-0.306427
21
26.7364
0
LINE
8
Black
10
-0.306427
20
26.7364
11
-0.302209
21
26.7415
0
LINE
8
Black
10
-0.302209
20
26.7415
11
-0.296527
21
26.7447
0
LINE
8
Black
10
-0.296527
20
26.7447
11
-0.2915
21
26.749
0
LINE
8
Black
10
-0.2915
20
26.749
11
-0.285334
21
26.7512
0
LINE
8
Black
10
-0.285334
20
26.7512
11
-0.279652
21
26.7545
0
LINE
8
Black
10
-0.279652
20
26.7545
11
-0.273191
21
26.7556
0
LINE
8
Black
10
-0.273191
20
26.7556
11
-0.267024
21
26.7579
0
LINE
8
Black
10
-0.267024
20
26.7579
11
-0.26046
21
26.7579
0
LINE
8
Black
10
-0.26046
20
26.7579
11
-0.254
21
26.759
0
LINE
8
Black
10
-0.254
20
26.759
11
2.794
21
26.759
0
LINE
8
Black
10
2.794
20
26.759
11
2.80046
21
26.7579
0
LINE
8
Black
10
-0.617205
20
28.1181
11
-0.594648
21
28.1051
0
LINE
8
Black
10
-0.594648
20
28.1051
11
-0.577905
21
28.0851
0
LINE
8
Black
10
-0.577905
20
28.0851
11
-0.568996
21
28.0606
0
LINE
8
Black
10
-0.568996
20
28.0606
11
-0.568996
21
28.0346
0
LINE
8
Black
10
-0.568996
20
28.0346
11
-0.577905
21
28.0101
0
LINE
8
Black
10
-0.577905
20
28.0101
11
-0.594648
21
27.9902
0
LINE
8
Black
10
-0.594648
20
27.9902
11
-0.617205
21
27.9771
0
LINE
8
Black
10
-0.617205
20
27.9771
11
-0.642857
21
27.9726
0
LINE
8
Black
10
-0.642857
20
27.9726
11
-1.19578
21
27.9726
0
LINE
8
Black
10
-1.19578
20
27.9726
11
-0.812016
21
27.0772
0
LINE
8
Black
10
-0.812016
20
27.0772
11
-0.806069
21
27.0518
0
LINE
8
Black
10
-0.806069
20
27.0518
11
-0.809154
21
27.0259
0
LINE
8
Black
10
-0.809154
20
27.0259
11
-0.820898
21
27.0027
0
LINE
8
Black
10
-0.820898
20
27.0027
11
-0.839886
21
26.9849
0
LINE
8
Black
10
-0.839886
20
26.9849
11
-0.863828
21
26.9746
0
LINE
8
Black
10
-0.863828
20
26.9746
11
-0.889834
21
26.9731
0
LINE
8
Black
10
-0.889834
20
26.9731
11
-0.914769
21
26.9807
0
LINE
8
Black
10
-0.914769
20
26.9807
11
-0.935626
21
26.9963
0
LINE
8
Black
10
-0.935626
20
26.9963
11
-0.949888
21
27.0181
0
LINE
8
Black
10
-0.949888
20
27.0181
11
-1.37846
21
28.0181
0
LINE
8
Black
10
-1.37846
20
28.0181
11
-1.38043
21
28.0265
0
LINE
8
Black
10
-1.38043
20
28.0265
11
-1.38338
21
28.0346
0
LINE
8
Black
10
-1.38338
20
28.0346
11
-1.38338
21
28.0391
0
LINE
8
Black
10
-1.38338
20
28.0391
11
-1.38441
21
28.0434
0
LINE
8
Black
10
-1.38441
20
28.0434
11
-1.38338
21
28.052
0
LINE
8
Black
10
-1.38338
20
28.052
11
-1.38338
21
28.0606
0
LINE
8
Black
10
-1.38338
20
28.0606
11
-1.38185
21
28.0649
0
LINE
8
Black
10
-1.38185
20
28.0649
11
-1.38132
21
28.0693
0
LINE
8
Black
10
-1.38132
20
28.0693
11
-1.37743
21
28.077
0
LINE
8
Black
10
-1.37743
20
28.077
11
-1.37448
21
28.0851
0
LINE
8
Black
10
-1.37448
20
28.0851
11
-1.3716
21
28.0885
0
LINE
8
Black
10
-1.3716
20
28.0885
11
-1.36958
21
28.0925
0
LINE
8
Black
10
-1.36958
20
28.0925
11
-1.36328
21
28.0985
0
LINE
8
Black
10
-1.36328
20
28.0985
11
-1.35773
21
28.1051
0
LINE
8
Black
10
-1.35773
20
28.1051
11
-1.35386
21
28.1073
0
LINE
8
Black
10
-1.35386
20
28.1073
11
-1.35059
21
28.1104
0
LINE
8
Black
10
-1.35059
20
28.1104
11
-1.34265
21
28.1138
0
LINE
8
Black
10
-1.34265
20
28.1138
11
-1.33518
21
28.1181
0
LINE
8
Black
10
-1.33518
20
28.1181
11
-1.33076
21
28.1189
0
LINE
8
Black
10
-1.33076
20
28.1189
11
-1.32665
21
28.1206
0
LINE
8
Black
10
-1.32665
20
28.1206
11
-1.31803
21
28.1211
0
LINE
8
Black
10
-1.31803
20
28.1211
11
-1.30952
21
28.1226
0
LINE
8
Black
10
-1.30952
20
28.1226
11
-0.642857
21
28.1226
0
LINE
8
Black
10
-0.642857
20
28.1226
11
-0.617205
21
28.1181
0
LINE
8
Black
10
0.038846
20
28.1687
11
0.06307
21
28.1591
0
LINE
8
Black
10
0.06307
20
28.1591
11
0.082558
21
28.1419
0
LINE
8
Black
10
0.082558
20
28.1419
11
0.094961
21
28.119
0
LINE
8
Black
10
0.094961
20
28.119
11
0.333056
21
27.4047
0
LINE
8
Black
10
0.333056
20
27.4047
11
0.333869
21
27.3992
0
LINE
8
Black
10
0.333869
20
27.3992
11
0.335766
21
27.394
0
LINE
8
Black
10
0.335766
20
27.394
11
0.335766
21
27.3864
0
LINE
8
Black
10
0.335766
20
27.3864
11
0.336877
21
27.3789
0
LINE
8
Black
10
0.336877
20
27.3789
11
0.335766
21
27.3735
0
LINE
8
Black
10
0.335766
20
27.3735
11
0.335766
21
27.3679
0
LINE
8
Black
10
0.335766
20
27.3679
11
0.333173
21
27.3608
0
LINE
8
Black
10
0.333173
20
27.3608
11
0.331655
21
27.3534
0
LINE
8
Black
10
0.331655
20
27.3534
11
0.328754
21
27.3487
0
LINE
8
Black
10
0.328754
20
27.3487
11
0.326857
21
27.3435
0
LINE
8
Black
10
0.326857
20
27.3435
11
0.321985
21
27.3376
0
LINE
8
Black
10
0.321985
20
27.3376
11
0.31802
21
27.3312
0
LINE
8
Black
10
0.31802
20
27.3312
11
0.313678
21
27.3277
0
LINE
8
Black
10
0.313678
20
27.3277
11
0.310114
21
27.3235
0
LINE
8
Black
10
0.310114
20
27.3235
11
0.303553
21
27.3197
0
LINE
8
Black
10
0.303553
20
27.3197
11
0.297617
21
27.315
0
LINE
8
Black
10
0.297617
20
27.315
11
0.292358
21
27.3132
0
LINE
8
Black
10
0.292358
20
27.3132
11
0.287557
21
27.3105
0
LINE
8
Black
10
0.287557
20
27.3105
11
0.280095
21
27.3092
0
LINE
8
Black
10
0.280095
20
27.3092
11
0.272906
21
27.3068
0
LINE
8
Black
10
0.272906
20
27.3068
11
0.267364
21
27.3069
0
LINE
8
Black
10
0.267364
20
27.3069
11
0.261905
21
27.306
0
LINE
8
Black
10
0.261905
20
27.306
11
-0.139286
21
27.306
0
LINE
8
Black
10
-0.139286
20
27.306
11
-0.139286
21
27.0476
0
LINE
8
Black
10
-0.139286
20
27.0476
11
-0.143809
21
27.022
0
LINE
8
Black
10
-0.143809
20
27.022
11
-0.156833
21
26.9994
0
LINE
8
Black
10
-0.156833
20
26.9994
11
-0.176786
21
26.9827
0
LINE
8
Black
10
-0.176786
20
26.9827
11
-0.201262
21
26.9738
0
LINE
8
Black
10
-0.201262
20
26.9738
11
-0.22731
21
26.9738
0
LINE
8
Black
10
-0.22731
20
26.9738
11
-0.251786
21
26.9827
0
LINE
8
Black
10
-0.251786
20
26.9827
11
-0.271739
21
26.9994
0
LINE
8
Black
10
-0.271739
20
26.9994
11
-0.284763
21
27.022
0
LINE
8
Black
10
-0.284763
20
27.022
11
-0.289286
21
27.0476
0
LINE
8
Black
10
-0.289286
20
27.0476
11
-0.289286
21
27.306
0
LINE
8
Black
10
-0.289286
20
27.306
11
-0.357143
21
27.306
0
LINE
8
Black
10
-0.357143
20
27.306
11
-0.382795
21
27.3105
0
LINE
8
Black
10
-0.382795
20
27.3105
11
-0.405352
21
27.3235
0
LINE
8
Black
10
-0.405352
20
27.3235
11
-0.422095
21
27.3435
0
LINE
8
Black
10
-0.422095
20
27.3435
11
-0.431004
21
27.3679
0
LINE
8
Black
10
-0.431004
20
27.3679
11
-0.431004
21
27.394
0
LINE
8
Black
10
-0.431004
20
27.394
11
-0.422095
21
27.4185
0
LINE
8
Black
10
-0.422095
20
27.4185
11
-0.405352
21
27.4384
0
LINE
8
Black
10
-0.405352
20
27.4384
11
-0.382795
21
27.4514
0
LINE
8
Black
10
-0.382795
20
27.4514
11
-0.357143
21
27.456
0
LINE
8
Black
10
-0.357143
20
27.456
11
-0.289286
21
27.456
0
LINE
8
Black
10
-0.289286
20
27.456
11
-0.289286
21
27.7143
0
LINE
8
Black
10
-0.289286
20
27.7143
11
-0.284763
21
27.7399
0
LINE
8
Black
10
-0.284763
20
27.7399
11
-0.271739
21
27.7625
0
LINE
8
Black
10
-0.271739
20
27.7625
11
-0.251786
21
27.7792
0
LINE
8
Black
10
-0.251786
20
27.7792
11
-0.22731
21
27.7881
0
LINE
8
Black
10
-0.22731
20
27.7881
11
-0.201262
21
27.7881
0
LINE
8
Black
10
-0.201262
20
27.7881
11
-0.176786
21
27.7792
0
LINE
8
Black
10
-0.176786
20
27.7792
11
-0.156833
21
27.7625
0
LINE
8
Black
10
-0.156833
20
27.7625
11
-0.143809
21
27.7399
0
LINE
8
Black
10
-0.143809
20
27.7399
11
-0.139286
21
27.7143
0
LINE
8
Black
10
-0.139286
20
27.7143
11
-0.139286
21
27.456
0
LINE
8
Black
10
-0.139286
20
27.456
11
0.157848
21
27.456
0
LINE
8
Black
10
0.157848
20
27.456
11
-0.047341
21
28.0715
0
LINE
8
Black
10
-0.047341
20
28.0715
11
-0.051162
21
28.0973
0
LINE
8
Black
10
-0.051162
20
28.0973
11
-0.04594
21
28.1228
0
LINE
8
Black
10
-0.04594
20
28.1228
11
-0.032305
21
28.145
0
LINE
8
Black
10
-0.032305
20
28.145
11
-0.011903
21
28.1612
0
LINE
8
Black
10
-0.011903
20
28.1612
11
0.012809
21
28.1694
0
LINE
8
Black
10
0.012809
20
28.1694
11
0.038846
21
28.1687
0
LINE
8
Black
10
1.22075
20
28.1215
11
1.22731
21
28.1215
0
LINE
8
Black
10
1.22731
20
28.1215
11
1.23348
21
28.1192
0
LINE
8
Black
10
1.23348
20
28.1192
11
1.23994
21
28.1181
0
LINE
8
Black
10
1.23994
20
28.1181
11
1.24562
21
28.1148
0
LINE
8
Black
10
1.24562
20
28.1148
11
1.25179
21
28.1126
0
LINE
8
Black
10
1.25179
20
28.1126
11
1.25681
21
28.1084
0
LINE
8
Black
10
1.25681
20
28.1084
11
1.26249
21
28.1051
0
LINE
8
Black
10
1.26249
20
28.1051
11
1.26671
21
28.1
0
LINE
8
Black
10
1.26671
20
28.1
11
1.27174
21
28.0958
0
LINE
8
Black
10
1.27174
20
28.0958
11
1.27502
21
28.0901
0
LINE
8
Black
10
1.27502
20
28.0901
11
1.27924
21
28.0851
0
LINE
8
Black
10
1.27924
20
28.0851
11
1.28148
21
28.079
0
LINE
8
Black
10
1.28148
20
28.079
11
1.28476
21
28.0733
0
LINE
8
Black
10
1.28476
20
28.0733
11
1.2859
21
28.0668
0
LINE
8
Black
10
1.2859
20
28.0668
11
1.28815
21
28.0606
0
LINE
8
Black
10
1.28815
20
28.0606
11
1.28815
21
28.0541
0
LINE
8
Black
10
1.28815
20
28.0541
11
1.28929
21
28.0476
0
LINE
8
Black
10
1.28929
20
28.0476
11
1.28929
21
27.0476
0
LINE
8
Black
10
1.28929
20
27.0476
11
1.28476
21
27.022
0
LINE
8
Black
10
1.28476
20
27.022
11
1.27174
21
26.9994
0
LINE
8
Black
10
1.27174
20
26.9994
11
1.25179
21
26.9827
0
LINE
8
Black
10
1.25179
20
26.9827
11
1.22731
21
26.9738
0
LINE
8
Black
10
1.22731
20
26.9738
11
1.20126
21
26.9738
0
LINE
8
Black
10
1.20126
20
26.9738
11
1.17679
21
26.9827
0
LINE
8
Black
10
1.17679
20
26.9827
11
1.15683
21
26.9994
0
LINE
8
Black
10
1.15683
20
26.9994
11
1.14381
21
27.022
0
LINE
8
Black
10
1.14381
20
27.022
11
1.13929
21
27.0476
0
LINE
8
Black
10
1.13929
20
27.0476
11
1.13929
21
27.4488
0
LINE
8
Black
10
1.13929
20
27.4488
11
0.833333
21
27.4488
0
LINE
8
Black
10
0.833333
20
27.4488
11
0.829073
21
27.4496
0
LINE
8
Black
10
0.829073
20
27.4496
11
0.824758
21
27.4493
0
LINE
8
Black
10
0.824758
20
27.4493
11
0.816337
21
27.4518
0
LINE
8
Black
10
0.816337
20
27.4518
11
0.807681
21
27.4533
0
LINE
8
Black
10
0.807681
20
27.4533
11
0.803936
21
27.4555
0
LINE
8
Black
10
0.803936
20
27.4555
11
0.799792
21
27.4567
0
LINE
8
Black
10
0.799792
20
27.4567
11
0.704554
21
27.5043
0
LINE
8
Black
10
0.704554
20
27.5043
11
0.694896
21
27.5115
0
LINE
8
Black
10
0.694896
20
27.5115
11
0.685062
21
27.5184
0
LINE
8
Black
10
0.685062
20
27.5184
11
0.637443
21
27.566
0
LINE
8
Black
10
0.637443
20
27.566
11
0.630558
21
27.5758
0
LINE
8
Black
10
0.630558
20
27.5758
11
0.623394
21
27.5855
0
LINE
8
Black
10
0.623394
20
27.5855
11
0.575775
21
27.6807
0
LINE
8
Black
10
0.575775
20
27.6807
11
0.574543
21
27.6849
0
LINE
8
Black
10
0.574543
20
27.6849
11
0.57238
21
27.6886
0
LINE
8
Black
10
0.57238
20
27.6886
11
0.570853
21
27.6973
0
LINE
8
Black
10
0.570853
20
27.6973
11
0.568349
21
27.7057
0
LINE
8
Black
10
0.568349
20
27.7057
11
0.568608
21
27.71
0
LINE
8
Black
10
0.568608
20
27.71
11
0.567857
21
27.7143
0
LINE
8
Black
10
0.567857
20
27.7143
11
0.567857
21
27.8571
0
LINE
8
Black
10
0.567857
20
27.8571
11
0.568608
21
27.8614
0
LINE
8
Black
10
0.568608
20
27.8614
11
0.568349
21
27.8657
0
LINE
8
Black
10
0.568349
20
27.8657
11
0.570853
21
27.8741
0
LINE
8
Black
10
0.570853
20
27.8741
11
0.57238
21
27.8828
0
LINE
8
Black
10
0.57238
20
27.8828
11
0.574543
21
27.8865
0
LINE
8
Black
10
0.574543
20
27.8865
11
0.575775
21
27.8907
0
LINE
8
Black
10
0.575775
20
27.8907
11
0.623394
21
27.9859
0
LINE
8
Black
10
0.623394
20
27.9859
11
0.630558
21
27.9956
0
LINE
8
Black
10
0.630558
20
27.9956
11
0.637443
21
28.0054
0
LINE
8
Black
10
0.637443
20
28.0054
11
0.685062
21
28.053
0
LINE
8
Black
10
0.685062
20
28.053
11
0.694896
21
28.0599
0
LINE
8
Black
10
0.694896
20
28.0599
11
0.704554
21
28.0671
0
LINE
8
Black
10
0.704554
20
28.0671
11
0.799792
21
28.1147
0
LINE
8
Black
10
0.799792
20
28.1147
11
0.803936
21
28.1159
0
LINE
8
Black
10
0.803936
20
28.1159
11
0.807681
21
28.1181
0
LINE
8
Black
10
0.807681
20
28.1181
11
0.816337
21
28.1196
0
LINE
8
Black
10
0.816337
20
28.1196
11
0.824758
21
28.1221
0
LINE
8
Black
10
0.824758
20
28.1221
11
0.829073
21
28.1219
0
LINE
8
Black
10
0.829073
20
28.1219
11
0.833333
21
28.1226
0
LINE
8
Black
10
0.833333
20
28.1226
11
1.21429
21
28.1226
0
LINE
8
Black
10
1.21429
20
28.1226
11
1.22075
21
28.1215
0
LINE
8
Black
10
0.851038
20
27.9726
11
0.782522
21
27.9384
0
LINE
8
Black
10
0.782522
20
27.9384
11
0.752115
21
27.908
0
LINE
8
Black
10
0.752115
20
27.908
11
0.717857
21
27.8394
0
LINE
8
Black
10
0.717857
20
27.8394
11
0.717857
21
27.732
0
LINE
8
Black
10
0.717857
20
27.732
11
0.752115
21
27.6635
0
LINE
8
Black
10
0.752115
20
27.6635
11
0.782522
21
27.6331
0
LINE
8
Black
10
0.782522
20
27.6331
11
0.851038
21
27.5988
0
LINE
8
Black
10
0.851038
20
27.5988
11
1.13929
21
27.5988
0
LINE
8
Black
10
1.13929
20
27.5988
11
1.13929
21
27.9726
0
LINE
8
Black
10
1.13929
20
27.9726
11
0.851038
21
27.9726
0
LINE
8
Black
10
4.86565
20
30.3245
11
4.88821
21
30.3115
0
LINE
8
Black
10
4.88821
20
30.3115
11
4.90495
21
30.2915
0
LINE
8
Black
10
4.90495
20
30.2915
11
4.91386
21
30.267
0
LINE
8
Black
10
4.91386
20
30.267
11
4.91386
21
30.241
0
LINE
8
Black
10
4.91386
20
30.241
11
4.90495
21
30.2165
0
LINE
8
Black
10
4.90495
20
30.2165
11
4.88821
21
30.1965
0
LINE
8
Black
10
4.88821
20
30.1965
11
4.86565
21
30.1835
0
LINE
8
Black
10
4.86565
20
30.1835
11
4.84
21
30.179
0
LINE
8
Black
10
4.84
20
30.179
11
2.121
21
30.179
0
LINE
8
Black
10
2.121
20
30.179
11
2.121
21
27.281
0
LINE
8
Black
10
2.121
20
27.281
11
4.84
21
27.281
0
LINE
8
Black
10
4.84
20
27.281
11
4.86565
21
27.2765
0
LINE
8
Black
10
4.86565
20
27.2765
11
4.88821
21
27.2635
0
LINE
8
Black
10
4.88821
20
27.2635
11
4.90495
21
27.2435
0
LINE
8
Black
10
4.90495
20
27.2435
11
4.91386
21
27.219
0
LINE
8
Black
10
4.91386
20
27.219
11
4.91386
21
27.193
0
LINE
8
Black
10
4.91386
20
27.193
11
4.90495
21
27.1685
0
LINE
8
Black
10
4.90495
20
27.1685
11
4.88821
21
27.1485
0
LINE
8
Black
10
4.88821
20
27.1485
11
4.86565
21
27.1355
0
LINE
8
Black
10
4.86565
20
27.1355
11
4.84
21
27.131
0
LINE
8
Black
10
4.84
20
27.131
11
2.046
21
27.131
0
LINE
8
Black
10
2.046
20
27.131
11
2.03954
21
27.1321
0
LINE
8
Black
10
2.03954
20
27.1321
11
2.03298
21
27.1321
0
LINE
8
Black
10
2.03298
20
27.1321
11
2.02681
21
27.1344
0
LINE
8
Black
10
2.02681
20
27.1344
11
2.02035
21
27.1355
0
LINE
8
Black
10
2.02035
20
27.1355
11
2.01467
21
27.1388
0
LINE
8
Black
10
2.01467
20
27.1388
11
2.0085
21
27.141
0
LINE
8
Black
10
2.0085
20
27.141
11
2.00347
21
27.1453
0
LINE
8
Black
10
2.00347
20
27.1453
11
1.99779
21
27.1485
0
LINE
8
Black
10
1.99779
20
27.1485
11
1.99357
21
27.1536
0
LINE
8
Black
10
1.99357
20
27.1536
11
1.98855
21
27.1578
0
LINE
8
Black
10
1.98855
20
27.1578
11
1.98527
21
27.1635
0
LINE
8
Black
10
1.98527
20
27.1635
11
1.98105
21
27.1685
0
LINE
8
Black
10
1.98105
20
27.1685
11
1.9788
21
27.1747
0
LINE
8
Black
10
1.9788
20
27.1747
11
1.97552
21
27.1803
0
LINE
8
Black
10
1.97552
20
27.1803
11
1.97438
21
27.1868
0
LINE
8
Black
10
1.97438
20
27.1868
11
1.97214
21
27.193
0
LINE
8
Black
10
1.97214
20
27.193
11
1.97214
21
27.1995
0
LINE
8
Black
10
1.97214
20
27.1995
11
1.971
21
27.206
0
LINE
8
Black
10
1.971
20
27.206
11
1.971
21
30.254
0
LINE
8
Black
10
1.971
20
30.254
11
1.97214
21
30.2605
0
LINE
8
Black
10
1.97214
20
30.2605
11
1.97214
21
30.267
0
LINE
8
Black
10
1.97214
20
30.267
11
1.97438
21
30.2732
0
LINE
8
Black
10
1.97438
20
30.2732
11
1.97552
21
30.2797
0
LINE
8
Black
10
1.97552
20
30.2797
11
1.9788
21
30.2853
0
LINE
8
Black
10
1.9788
20
30.2853
11
1.98105
21
30.2915
0
LINE
8
Black
10
1.98105
20
30.2915
11
1.98527
21
30.2965
0
LINE
8
Black
10
1.98527
20
30.2965
11
1.98855
21
30.3022
0
LINE
8
Black
10
1.98855
20
30.3022
11
1.99357
21
30.3064
0
LINE
8
Black
10
1.99357
20
30.3064
11
1.99779
21
30.3115
0
LINE
8
Black
10
1.99779
20
30.3115
11
2.00347
21
30.3147
0
LINE
8
Black
10
2.00347
20
30.3147
11
2.0085
21
30.319
0
LINE
8
Black
10
2.0085
20
30.319
11
2.01467
21
30.3212
0
LINE
8
Black
10
2.01467
20
30.3212
11
2.02035
21
30.3245
0
LINE
8
Black
10
2.02035
20
30.3245
11
2.02681
21
30.3256
0
LINE
8
Black
10
2.02681
20
30.3256
11
2.03298
21
30.3279
0
LINE
8
Black
10
2.03298
20
30.3279
11
2.03954
21
30.3279
0
LINE
8
Black
10
2.03954
20
30.3279
11
2.046
21
30.329
0
LINE
8
Black
10
2.046
20
30.329
11
4.84
21
30.329
0
LINE
8
Black
10
4.84
20
30.329
11
4.86565
21
30.3245
0
LINE
8
Black
10
27.7065
20
30.0739
11
27.713
21
30.0739
0
LINE
8
Black
10
27.713
20
30.0739
11
27.7192
21
30.0716
0
LINE
8
Black
10
27.7192
20
30.0716
11
27.7257
21
30.0705
0
LINE
8
Black
10
27.7257
20
30.0705
11
27.7313
21
30.0672
0
LINE
8
Black
10
27.7313
20
30.0672
11
27.7375
21
30.065
0
LINE
8
Black
10
27.7375
20
30.065
11
27.7425
21
30.0607
0
LINE
8
Black
10
27.7425
20
30.0607
11
27.7482
21
30.0575
0
LINE
8
Black
10
27.7482
20
30.0575
11
27.7524
21
30.0524
0
LINE
8
Black
10
27.7524
20
30.0524
11
27.7575
21
30.0482
0
LINE
8
Black
10
27.7575
20
30.0482
11
27.7607
21
30.0425
0
LINE
8
Black
10
27.7607
20
30.0425
11
27.765
21
30.0375
0
LINE
8
Black
10
27.765
20
30.0375
11
27.7672
21
30.0313
0
LINE
8
Black
10
27.7672
20
30.0313
11
27.7705
21
30.0257
0
LINE
8
Black
10
27.7705
20
30.0257
11
27.7716
21
30.0192
0
LINE
8
Black
10
27.7716
20
30.0192
11
27.7739
21
30.013
0
LINE
8
Black
10
27.7739
20
30.013
11
27.7739
21
30.0065
0
LINE
8
Black
10
27.7739
20
30.0065
11
27.775
21
30
0
LINE
8
Black
10
27.775
20
30
11
27.775
21
27.46
0
LINE
8
Black
10
27.775
20
27.46
11
27.7739
21
27.4535
0
LINE
8
Black
10
27.7739
20
27.4535
11
27.7739
21
27.447
0
LINE
8
Black
10
27.7739
20
27.447
11
27.7716
21
27.4408
0
LINE
8
Black
10
27.7716
20
27.4408
11
27.7705
21
27.4343
0
LINE
8
Black
10
27.7705
20
27.4343
11
27.7672
21
27.4287
0
LINE
8
Black
10
27.7672
20
27.4287
11
27.765
21
27.4225
0
LINE
8
Black
10
27.765
20
27.4225
11
27.7607
21
27.4175
0
LINE
8
Black
10
27.7607
20
27.4175
11
27.7575
21
27.4118
0
LINE
8
Black
10
27.7575
20
27.4118
11
27.7524
21
27.4076
0
LINE
8
Black
10
27.7524
20
27.4076
11
27.7482
21
27.4025
0
LINE
8
Black
10
27.7482
20
27.4025
11
27.7425
21
27.3993
0
LINE
8
Black
10
27.7425
20
27.3993
11
27.7375
21
27.395
0
LINE
8
Black
10
27.7375
20
27.395
11
27.7313
21
27.3928
0
LINE
8
Black
10
27.7313
20
27.3928
11
27.7257
21
27.3895
0
LINE
8
Black
10
27.7257
20
27.3895
11
27.7192
21
27.3884
0
LINE
8
Black
10
27.7192
20
27.3884
11
27.713
21
27.3861
0
LINE
8
Black
10
27.713
20
27.3861
11
27.7065
21
27.3861
0
LINE
8
Black
10
27.7065
20
27.3861
11
27.7
21
27.385
0
LINE
8
Black
10
27.7
20
27.385
11
2.3
21
27.385
0
LINE
8
Black
10
2.3
20
27.385
11
2.29354
21
27.3861
0
LINE
8
Black
10
2.29354
20
27.3861
11
2.28698
21
27.3861
0
LINE
8
Black
10
2.28698
20
27.3861
11
2.28081
21
27.3884
0
LINE
8
Black
10
2.28081
20
27.3884
11
2.27435
21
27.3895
0
LINE
8
Black
10
2.27435
20
27.3895
11
2.26867
21
27.3928
0
LINE
8
Black
10
2.26867
20
27.3928
11
2.2625
21
27.395
0
LINE
8
Black
10
2.2625
20
27.395
11
2.25747
21
27.3993
0
LINE
8
Black
10
2.25747
20
27.3993
11
2.25179
21
27.4025
0
LINE
8
Black
10
2.25179
20
27.4025
11
2.24757
21
27.4076
0
LINE
8
Black
10
2.24757
20
27.4076
11
2.24255
21
27.4118
0
LINE
8
Black
10
2.24255
20
27.4118
11
2.23927
21
27.4175
0
LINE
8
Black
10
2.23927
20
27.4175
11
2.23505
21
27.4225
0
LINE
8
Black
10
2.23505
20
27.4225
11
2.2328
21
27.4287
0
LINE
8
Black
10
2.2328
20
27.4287
11
2.22952
21
27.4343
0
LINE
8
Black
10
2.22952
20
27.4343
11
2.22838
21
27.4408
0
LINE
8
Black
10
2.22838
20
27.4408
11
2.22614
21
27.447
0
LINE
8
Black
10
2.22614
20
27.447
11
2.22614
21
27.4535
0
LINE
8
Black
10
2.22614
20
27.4535
11
2.225
21
27.46
0
LINE
8
Black
10
2.225
20
27.46
11
2.225
21
30
0
LINE
8
Black
10
2.225
20
30
11
2.22614
21
30.0065
0
LINE
8
Black
10
2.22614
20
30.0065
11
2.22614
21
30.013
0
LINE
8
Black
10
2.22614
20
30.013
11
2.22838
21
30.0192
0
LINE
8
Black
10
2.22838
20
30.0192
11
2.22952
21
30.0257
0
LINE
8
Black
10
2.22952
20
30.0257
11
2.2328
21
30.0313
0
LINE
8
Black
10
2.2328
20
30.0313
11
2.23505
21
30.0375
0
LINE
8
Black
10
2.23505
20
30.0375
11
2.23927
21
30.0425
0
LINE
8
Black
10
2.23927
20
30.0425
11
2.24255
21
30.0482
0
LINE
8
Black
10
2.24255
20
30.0482
11
2.24757
21
30.0524
0
LINE
8
Black
10
2.24757
20
30.0524
11
2.25179
21
30.0575
0
LINE
8
Black
10
2.25179
20
30.0575
11
2.25747
21
30.0607
0
LINE
8
Black
10
2.25747
20
30.0607
11
2.2625
21
30.065
0
LINE
8
Black
10
2.2625
20
30.065
11
2.26867
21
30.0672
0
LINE
8
Black
10
2.26867
20
30.0672
11
2.27435
21
30.0705
0
LINE
8
Black
10
2.27435
20
30.0705
11
2.28081
21
30.0716
0
LINE
8
Black
10
2.28081
20
30.0716
11
2.28698
21
30.0739
0
LINE
8
Black
10
2.28698
20
30.0739
11
2.29354
21
30.0739
0
LINE
8
Black
10
2.29354
20
30.0739
11
2.3
21
30.075
0
LINE
8
Black
10
2.3
20
30.075
11
27.7
21
30.075
0
LINE
8
Black
10
27.7
20
30.075
11
27.7065
21
30.0739
0
LINE
8
Black
10
2.375
20
29.925
11
2.375
21
27.535
0
LINE
8
Black
10
2.375
20
27.535
11
27.625
21
27.535
0
LINE
8
Black
10
27.625
20
27.535
11
27.625
21
29.925
0
LINE
8
Black
10
27.625
20
29.925
11
2.375
21
29.925
0
LINE
8
Black
10
29.0757
20
28.6219
11
29.08
21
28.6221
0
LINE
8
Black
10
29.08
20
28.6221
11
29.0884
21
28.6196
0
LINE
8
Black
10
29.0884
20
28.6196
11
29.0971
21
28.6181
0
LINE
8
Black
10
29.0971
20
28.6181
11
29.1008
21
28.6159
0
LINE
8
Black
10
29.1008
20
28.6159
11
29.105
21
28.6147
0
LINE
8
Black
10
29.105
20
28.6147
11
29.2002
21
28.5671
0
LINE
8
Black
10
29.2002
20
28.5671
11
29.2099
21
28.5599
0
LINE
8
Black
10
29.2099
20
28.5599
11
29.2197
21
28.553
0
LINE
8
Black
10
29.2197
20
28.553
11
29.2673
21
28.5054
0
LINE
8
Black
10
29.2673
20
28.5054
11
29.2742
21
28.4956
0
LINE
8
Black
10
29.2742
20
28.4956
11
29.2814
21
28.4859
0
LINE
8
Black
10
29.2814
20
28.4859
11
29.329
21
28.3907
0
LINE
8
Black
10
29.329
20
28.3907
11
29.3313
21
28.3828
0
LINE
8
Black
10
29.3313
20
28.3828
11
29.3347
21
28.3753
0
LINE
8
Black
10
29.3347
20
28.3753
11
29.3823
21
28.1849
0
LINE
8
Black
10
29.3823
20
28.1849
11
29.3829
21
28.1757
0
LINE
8
Black
10
29.3829
20
28.1757
11
29.3845
21
28.1667
0
LINE
8
Black
10
29.3845
20
28.1667
11
29.3845
21
27.9286
0
LINE
8
Black
10
29.3845
20
27.9286
11
29.3829
21
27.9195
0
LINE
8
Black
10
29.3829
20
27.9195
11
29.3823
21
27.9104
0
LINE
8
Black
10
29.3823
20
27.9104
11
29.3347
21
27.7199
0
LINE
8
Black
10
29.3347
20
27.7199
11
29.3313
21
27.7124
0
LINE
8
Black
10
29.3313
20
27.7124
11
29.329
21
27.7046
0
LINE
8
Black
10
29.329
20
27.7046
11
29.2814
21
27.6093
0
LINE
8
Black
10
29.2814
20
27.6093
11
29.2742
21
27.5997
0
LINE
8
Black
10
29.2742
20
27.5997
11
29.2673
21
27.5898
0
LINE
8
Black
10
29.2673
20
27.5898
11
29.2197
21
27.5422
0
LINE
8
Black
10
29.2197
20
27.5422
11
29.2099
21
27.5353
0
LINE
8
Black
10
29.2099
20
27.5353
11
29.2002
21
27.5282
0
LINE
8
Black
10
29.2002
20
27.5282
11
29.105
21
27.4805
0
LINE
8
Black
10
29.105
20
27.4805
11
29.1008
21
27.4793
0
LINE
8
Black
10
29.1008
20
27.4793
11
29.0971
21
27.4771
0
LINE
8
Black
10
29.0971
20
27.4771
11
29.0884
21
27.4756
0
LINE
8
Black
10
29.0884
20
27.4756
11
29.08
21
27.4731
0
LINE
8
Black
10
29.08
20
27.4731
11
29.0757
21
27.4734
0
LINE
8
Black
10
29.0757
20
27.4734
11
29.0714
21
27.4726
0
LINE
8
Black
10
29.0714
20
27.4726
11
28.9762
21
27.4726
0
LINE
8
Black
10
28.9762
20
27.4726
11
28.9719
21
27.4734
0
LINE
8
Black
10
28.9719
20
27.4734
11
28.9676
21
27.4731
0
LINE
8
Black
10
28.9676
20
27.4731
11
28.9592
21
27.4756
0
LINE
8
Black
10
28.9592
20
27.4756
11
28.9505
21
27.4771
0
LINE
8
Black
10
28.9505
20
27.4771
11
28.9468
21
27.4793
0
LINE
8
Black
10
28.9468
20
27.4793
11
28.9426
21
27.4805
0
LINE
8
Black
10
28.9426
20
27.4805
11
28.8474
21
27.5282
0
LINE
8
Black
10
28.8474
20
27.5282
11
28.8378
21
27.5353
0
LINE
8
Black
10
28.8378
20
27.5353
11
28.8279
21
27.5422
0
LINE
8
Black
10
28.8279
20
27.5422
11
28.7803
21
27.5898
0
LINE
8
Black
10
28.7803
20
27.5898
11
28.7734
21
27.5997
0
LINE
8
Black
10
28.7734
20
27.5997
11
28.7663
21
27.6093
0
LINE
8
Black
10
28.7663
20
27.6093
11
28.7186
21
27.7046
0
LINE
8
Black
10
28.7186
20
27.7046
11
28.7163
21
27.7124
0
LINE
8
Black
10
28.7163
20
27.7124
11
28.713
21
27.7199
0
LINE
8
Black
10
28.713
20
27.7199
11
28.6653
21
27.9104
0
LINE
8
Black
10
28.6653
20
27.9104
11
28.6647
21
27.9195
0
LINE
8
Black
10
28.6647
20
27.9195
11
28.6631
21
27.9286
0
LINE
8
Black
10
28.6631
20
27.9286
11
28.6631
21
28.1667
0
LINE
8
Black
10
28.6631
20
28.1667
11
28.6647
21
28.1757
0
LINE
8
Black
10
28.6647
20
28.1757
11
28.6653
21
28.1849
0
LINE
8
Black
10
28.6653
20
28.1849
11
28.713
21
28.3753
0
LINE
8
Black
10
28.713
20
28.3753
11
28.7163
21
28.3828
0
LINE
8
Black
10
28.7163
20
28.3828
11
28.7186
21
28.3907
0
LINE
8
Black
10
28.7186
20
28.3907
11
28.7663
21
28.4859
0
LINE
8
Black
10
28.7663
20
28.4859
11
28.7734
21
28.4956
0
LINE
8
Black
10
28.7734
20
28.4956
11
28.7803
21
28.5054
0
LINE
8
Black
10
28.7803
20
28.5054
11
28.8279
21
28.553
0
LINE
8
Black
10
28.8279
20
28.553
11
28.8378
21
28.5599
0
LINE
8
Black
10
28.8378
20
28.5599
11
28.8474
21
28.5671
0
LINE
8
Black
10
28.8474
20
28.5671
11
28.9426
21
28.6147
0
LINE
8
Black
10
28.9426
20
28.6147
11
28.9468
21
28.6159
0
LINE
8
Black
10
28.9468
20
28.6159
11
28.9505
21
28.6181
0
LINE
8
Black
10
28.9505
20
28.6181
11
28.9592
21
28.6196
0
LINE
8
Black
10
28.9592
20
28.6196
11
28.9676
21
28.6221
0
LINE
8
Black
10
28.9676
20
28.6221
11
28.9719
21
28.6219
0
LINE
8
Black
10
28.9719
20
28.6219
11
28.9762
21
28.6226
0
LINE
8
Black
10
28.9762
20
28.6226
11
29.0714
21
28.6226
0
LINE
8
Black
10
29.0714
20
28.6226
11
29.0757
21
28.6219
0
LINE
8
Black
10
28.9939
20
28.4726
11
28.9254
21
28.4384
0
LINE
8
Black
10
28.9254
20
28.4384
11
28.895
21
28.408
0
LINE
8
Black
10
28.895
20
28.408
11
28.8565
21
28.331
0
LINE
8
Black
10
28.8565
20
28.331
11
28.8131
21
28.1574
0
LINE
8
Black
10
28.8131
20
28.1574
11
28.8131
21
27.9378
0
LINE
8
Black
10
28.8131
20
27.9378
11
28.8565
21
27.7643
0
LINE
8
Black
10
28.8565
20
27.7643
11
28.895
21
27.6873
0
LINE
8
Black
10
28.895
20
27.6873
11
28.9254
21
27.6569
0
LINE
8
Black
10
28.9254
20
27.6569
11
28.9939
21
27.6226
0
LINE
8
Black
10
28.9939
20
27.6226
11
29.0537
21
27.6226
0
LINE
8
Black
10
29.0537
20
27.6226
11
29.1222
21
27.6569
0
LINE
8
Black
10
29.1222
20
27.6569
11
29.1526
21
27.6873
0
LINE
8
Black
10
29.1526
20
27.6873
11
29.1911
21
27.7643
0
LINE
8
Black
10
29.1911
20
27.7643
11
29.2345
21
27.9378
0
LINE
8
Black
10
29.2345
20
27.9378
11
29.2345
21
28.1574
0
LINE
8
Black
10
29.2345
20
28.1574
11
29.1911
21
28.331
0
LINE
8
Black
10
29.1911
20
28.331
11
29.1526
21
28.408
0
LINE
8
Black
10
29.1526
20
28.408
11
29.1222
21
28.4384
0
LINE
8
Black
10
29.1222
20
28.4384
11
29.0537
21
28.4726
0
LINE
8
Black
10
29.0537
20
28.4726
11
28.9939
21
28.4726
0
LINE
8
Black
10
30.2171
20
28.6221
11
30.2199
21
28.6224
0
LINE
8
Black
10
30.2199
20
28.6224
11
30.2298
21
28.6199
0
LINE
8
Black
10
30.2298
20
28.6199
11
30.2399
21
28.6181
0
LINE
8
Black
10
30.2399
20
28.6181
11
30.2424
21
28.6167
0
LINE
8
Black
10
30.2424
20
28.6167
11
30.2451
21
28.616
0
LINE
8
Black
10
30.2451
20
28.616
11
30.2536
21
28.6102
0
LINE
8
Black
10
30.2536
20
28.6102
11
30.2625
21
28.6051
0
LINE
8
Black
10
30.2625
20
28.6051
11
30.2643
21
28.6029
0
LINE
8
Black
10
30.2643
20
28.6029
11
30.2667
21
28.6013
0
LINE
8
Black
10
30.2667
20
28.6013
11
30.2726
21
28.593
0
LINE
8
Black
10
30.2726
20
28.593
11
30.2792
21
28.5851
0
LINE
8
Black
10
30.2792
20
28.5851
11
30.2802
21
28.5825
0
LINE
8
Black
10
30.2802
20
28.5825
11
30.2819
21
28.5802
0
LINE
8
Black
10
30.2819
20
28.5802
11
30.2846
21
28.5703
0
LINE
8
Black
10
30.2846
20
28.5703
11
30.2881
21
28.5606
0
LINE
8
Black
10
30.2881
20
28.5606
11
30.2881
21
28.5578
0
LINE
8
Black
10
30.2881
20
28.5578
11
30.2889
21
28.5551
0
LINE
8
Black
10
30.2889
20
28.5551
11
30.3365
21
28.0789
0
LINE
8
Black
10
30.3365
20
28.0789
11
30.3365
21
28.0784
0
LINE
8
Black
10
30.3365
20
28.0784
11
30.3366
21
28.078
0
LINE
8
Black
10
30.3366
20
28.078
11
30.3355
21
28.0655
0
LINE
8
Black
10
30.3355
20
28.0655
11
30.3346
21
28.0529
0
LINE
8
Black
10
30.3346
20
28.0529
11
30.3344
21
28.0525
0
LINE
8
Black
10
30.3344
20
28.0525
11
30.3343
21
28.052
0
LINE
8
Black
10
30.3343
20
28.052
11
30.329
21
28.0406
0
LINE
8
Black
10
30.329
20
28.0406
11
30.3239
21
28.0292
0
LINE
8
Black
10
30.3239
20
28.0292
11
30.3235
21
28.0288
0
LINE
8
Black
10
30.3235
20
28.0288
11
30.3233
21
28.0284
0
LINE
8
Black
10
30.3233
20
28.0284
11
30.3144
21
28.0195
0
LINE
8
Black
10
30.3144
20
28.0195
11
30.3057
21
28.0105
0
LINE
8
Black
10
30.3057
20
28.0105
11
30.3053
21
28.0103
0
LINE
8
Black
10
30.3053
20
28.0103
11
30.3049
21
28.01
0
LINE
8
Black
10
30.3049
20
28.01
11
30.2935
21
28.0047
0
LINE
8
Black
10
30.2935
20
28.0047
11
30.2822
21
27.9992
0
LINE
8
Black
10
30.2822
20
27.9992
11
30.2817
21
27.9992
0
LINE
8
Black
10
30.2817
20
27.9992
11
30.2813
21
27.999
0
LINE
8
Black
10
30.2813
20
27.999
11
30.2688
21
27.9979
0
LINE
8
Black
10
30.2688
20
27.9979
11
30.2563
21
27.9966
0
LINE
8
Black
10
30.2563
20
27.9966
11
30.2558
21
27.9968
0
LINE
8
Black
10
30.2558
20
27.9968
11
30.2554
21
27.9967
0
LINE
8
Black
10
30.2554
20
27.9967
11
30.2433
21
28
0
LINE
8
Black
10
30.2433
20
28
11
30.2311
21
28.0031
0
LINE
8
Black
10
30.2311
20
28.0031
11
30.2307
21
28.0033
0
LINE
8
Black
10
30.2307
20
28.0033
11
30.2302
21
28.0035
0
LINE
8
Black
10
30.2302
20
28.0035
11
30.2199
21
28.0107
0
LINE
8
Black
10
30.2199
20
28.0107
11
30.2095
21
28.0177
0
LINE
8
Black
10
30.2095
20
28.0177
11
30.2093
21
28.0181
0
LINE
8
Black
10
30.2093
20
28.0181
11
30.2089
21
28.0184
0
LINE
8
Black
10
30.2089
20
28.0184
11
30.1699
21
28.0574
0
LINE
8
Black
10
30.1699
20
28.0574
11
30.1013
21
28.0917
0
LINE
8
Black
10
30.1013
20
28.0917
11
29.8987
21
28.0917
0
LINE
8
Black
10
29.8987
20
28.0917
11
29.8301
21
28.0574
0
LINE
8
Black
10
29.8301
20
28.0574
11
29.7997
21
28.027
0
LINE
8
Black
10
29.7997
20
28.027
11
29.7655
21
27.9585
0
LINE
8
Black
10
29.7655
20
27.9585
11
29.7655
21
27.7558
0
LINE
8
Black
10
29.7655
20
27.7558
11
29.7997
21
27.6873
0
LINE
8
Black
10
29.7997
20
27.6873
11
29.8301
21
27.6569
0
LINE
8
Black
10
29.8301
20
27.6569
11
29.8987
21
27.6226
0
LINE
8
Black
10
29.8987
20
27.6226
11
30.1013
21
27.6226
0
LINE
8
Black
10
30.1013
20
27.6226
11
30.1699
21
27.6569
0
LINE
8
Black
10
30.1699
20
27.6569
11
30.2089
21
27.6959
0
LINE
8
Black
10
30.2089
20
27.6959
11
30.2302
21
27.7108
0
LINE
8
Black
10
30.2302
20
27.7108
11
30.2554
21
27.7176
0
LINE
8
Black
10
30.2554
20
27.7176
11
30.2813
21
27.7153
0
LINE
8
Black
10
30.2813
20
27.7153
11
30.3049
21
27.7043
0
LINE
8
Black
10
30.3049
20
27.7043
11
30.3233
21
27.6859
0
LINE
8
Black
10
30.3233
20
27.6859
11
30.3343
21
27.6623
0
LINE
8
Black
10
30.3343
20
27.6623
11
30.3366
21
27.6363
0
LINE
8
Black
10
30.3366
20
27.6363
11
30.3299
21
27.6112
0
LINE
8
Black
10
30.3299
20
27.6112
11
30.3149
21
27.5898
0
LINE
8
Black
10
30.3149
20
27.5898
11
30.2673
21
27.5422
0
LINE
8
Black
10
30.2673
20
27.5422
11
30.2575
21
27.5353
0
LINE
8
Black
10
30.2575
20
27.5353
11
30.2478
21
27.5282
0
LINE
8
Black
10
30.2478
20
27.5282
11
30.1526
21
27.4805
0
LINE
8
Black
10
30.1526
20
27.4805
11
30.1484
21
27.4793
0
LINE
8
Black
10
30.1484
20
27.4793
11
30.1447
21
27.4771
0
LINE
8
Black
10
30.1447
20
27.4771
11
30.136
21
27.4756
0
LINE
8
Black
10
30.136
20
27.4756
11
30.1276
21
27.4731
0
LINE
8
Black
10
30.1276
20
27.4731
11
30.1233
21
27.4734
0
LINE
8
Black
10
30.1233
20
27.4734
11
30.119
21
27.4726
0
LINE
8
Black
10
30.119
20
27.4726
11
29.881
21
27.4726
0
LINE
8
Black
10
29.881
20
27.4726
11
29.8767
21
27.4734
0
LINE
8
Black
10
29.8767
20
27.4734
11
29.8724
21
27.4731
0
LINE
8
Black
10
29.8724
20
27.4731
11
29.864
21
27.4756
0
LINE
8
Black
10
29.864
20
27.4756
11
29.8553
21
27.4771
0
LINE
8
Black
10
29.8553
20
27.4771
11
29.8516
21
27.4793
0
LINE
8
Black
10
29.8516
20
27.4793
11
29.8474
21
27.4805
0
LINE
8
Black
10
29.8474
20
27.4805
11
29.7522
21
27.5282
0
LINE
8
Black
10
29.7522
20
27.5282
11
29.7425
21
27.5353
0
LINE
8
Black
10
29.7425
20
27.5353
11
29.7327
21
27.5422
0
LINE
8
Black
10
29.7327
20
27.5422
11
29.6851
21
27.5898
0
LINE
8
Black
10
29.6851
20
27.5898
11
29.6782
21
27.5997
0
LINE
8
Black
10
29.6782
20
27.5997
11
29.671
21
27.6093
0
LINE
8
Black
10
29.671
20
27.6093
11
29.6234
21
27.7046
0
LINE
8
Black
10
29.6234
20
27.7046
11
29.6222
21
27.7087
0
LINE
8
Black
10
29.6222
20
27.7087
11
29.62
21
27.7124
0
LINE
8
Black
10
29.62
20
27.7124
11
29.6185
21
27.7211
0
LINE
8
Black
10
29.6185
20
27.7211
11
29.616
21
27.7295
0
LINE
8
Black
10
29.616
20
27.7295
11
29.6162
21
27.7338
0
LINE
8
Black
10
29.6162
20
27.7338
11
29.6155
21
27.7381
0
LINE
8
Black
10
29.6155
20
27.7381
11
29.6155
21
27.9762
0
LINE
8
Black
10
29.6155
20
27.9762
11
29.6162
21
27.9804
0
LINE
8
Black
10
29.6162
20
27.9804
11
29.616
21
27.9848
0
LINE
8
Black
10
29.616
20
27.9848
11
29.6185
21
27.9932
0
LINE
8
Black
10
29.6185
20
27.9932
11
29.62
21
28.0018
0
LINE
8
Black
10
29.62
20
28.0018
11
29.6222
21
28.0056
0
LINE
8
Black
10
29.6222
20
28.0056
11
29.6234
21
28.0097
0
LINE
8
Black
10
29.6234
20
28.0097
11
29.671
21
28.105
0
LINE
8
Black
10
29.671
20
28.105
11
29.6782
21
28.1146
0
LINE
8
Black
10
29.6782
20
28.1146
11
29.6851
21
28.1245
0
LINE
8
Black
10
29.6851
20
28.1245
11
29.7327
21
28.1721
0
LINE
8
Black
10
29.7327
20
28.1721
11
29.7425
21
28.179
0
LINE
8
Black
10
29.7425
20
28.179
11
29.7522
21
28.1861
0
LINE
8
Black
10
29.7522
20
28.1861
11
29.8474
21
28.2337
0
LINE
8
Black
10
29.8474
20
28.2337
11
29.8516
21
28.235
0
LINE
8
Black
10
29.8516
20
28.235
11
29.8553
21
28.2371
0
LINE
8
Black
10
29.8553
20
28.2371
11
29.864
21
28.2387
0
LINE
8
Black
10
29.864
20
28.2387
11
29.8724
21
28.2412
0
LINE
8
Black
10
29.8724
20
28.2412
11
29.8767
21
28.2409
0
LINE
8
Black
10
29.8767
20
28.2409
11
29.881
21
28.2417
0
LINE
8
Black
10
29.881
20
28.2417
11
30.119
21
28.2417
0
LINE
8
Black
10
30.119
20
28.2417
11
30.1233
21
28.2409
0
LINE
8
Black
10
30.1233
20
28.2409
11
30.1276
21
28.2412
0
LINE
8
Black
10
30.1276
20
28.2412
11
30.136
21
28.2387
0
LINE
8
Black
10
30.136
20
28.2387
11
30.1447
21
28.2371
0
LINE
8
Black
10
30.1447
20
28.2371
11
30.1484
21
28.235
0
LINE
8
Black
10
30.1484
20
28.235
11
30.1526
21
28.2337
0
LINE
8
Black
10
30.1526
20
28.2337
11
30.1712
21
28.2244
0
LINE
8
Black
10
30.1712
20
28.2244
11
30.1464
21
28.4726
0
LINE
8
Black
10
30.1464
20
28.4726
11
29.7381
21
28.4726
0
LINE
8
Black
10
29.7381
20
28.4726
11
29.7124
21
28.4771
0
LINE
8
Black
10
29.7124
20
28.4771
11
29.6899
21
28.4902
0
LINE
8
Black
10
29.6899
20
28.4902
11
29.6731
21
28.5101
0
LINE
8
Black
10
29.6731
20
28.5101
11
29.6642
21
28.5346
0
LINE
8
Black
10
29.6642
20
28.5346
11
29.6642
21
28.5606
0
LINE
8
Black
10
29.6642
20
28.5606
11
29.6731
21
28.5851
0
LINE
8
Black
10
29.6731
20
28.5851
11
29.6899
21
28.6051
0
LINE
8
Black
10
29.6899
20
28.6051
11
29.7124
21
28.6181
0
LINE
8
Black
10
29.7124
20
28.6181
11
29.7381
21
28.6226
0
LINE
8
Black
10
29.7381
20
28.6226
11
30.2143
21
28.6226
0
LINE
8
Black
10
30.2143
20
28.6226
11
30.2171
21
28.6221
0
LINE
8
Black
10
31.2207
20
28.6215
11
31.2273
21
28.6215
0
LINE
8
Black
10
31.2273
20
28.6215
11
31.2335
21
28.6192
0
LINE
8
Black
10
31.2335
20
28.6192
11
31.2399
21
28.6181
0
LINE
8
Black
10
31.2399
20
28.6181
11
31.2456
21
28.6148
0
LINE
8
Black
10
31.2456
20
28.6148
11
31.2518
21
28.6126
0
LINE
8
Black
10
31.2518
20
28.6126
11
31.2568
21
28.6084
0
LINE
8
Black
10
31.2568
20
28.6084
11
31.2625
21
28.6051
0
LINE
8
Black
10
31.2625
20
28.6051
11
31.2667
21
28.6
0
LINE
8
Black
10
31.2667
20
28.6
11
31.2717
21
28.5958
0
LINE
8
Black
10
31.2717
20
28.5958
11
31.275
21
28.5901
0
LINE
8
Black
10
31.275
20
28.5901
11
31.2792
21
28.5851
0
LINE
8
Black
10
31.2792
20
28.5851
11
31.2815
21
28.579
0
LINE
8
Black
10
31.2815
20
28.579
11
31.2848
21
28.5733
0
LINE
8
Black
10
31.2848
20
28.5733
11
31.2859
21
28.5668
0
LINE
8
Black
10
31.2859
20
28.5668
11
31.2881
21
28.5606
0
LINE
8
Black
10
31.2881
20
28.5606
11
31.2881
21
28.5541
0
LINE
8
Black
10
31.2881
20
28.5541
11
31.2893
21
28.5476
0
LINE
8
Black
10
31.2893
20
28.5476
11
31.2893
21
27.5476
0
LINE
8
Black
10
31.2893
20
27.5476
11
31.2848
21
27.522
0
LINE
8
Black
10
31.2848
20
27.522
11
31.2717
21
27.4994
0
LINE
8
Black
10
31.2717
20
27.4994
11
31.2518
21
27.4827
0
LINE
8
Black
10
31.2518
20
27.4827
11
31.2273
21
27.4738
0
LINE
8
Black
10
31.2273
20
27.4738
11
31.2013
21
27.4738
0
LINE
8
Black
10
31.2013
20
27.4738
11
31.1768
21
27.4827
0
LINE
8
Black
10
31.1768
20
27.4827
11
31.1568
21
27.4994
0
LINE
8
Black
10
31.1568
20
27.4994
11
31.1438
21
27.522
0
LINE
8
Black
10
31.1438
20
27.522
11
31.1393
21
27.5476
0
LINE
8
Black
10
31.1393
20
27.5476
11
31.1393
21
27.9488
0
LINE
8
Black
10
31.1393
20
27.9488
11
30.8333
21
27.9488
0
LINE
8
Black
10
30.8333
20
27.9488
11
30.8291
21
27.9496
0
LINE
8
Black
10
30.8291
20
27.9496
11
30.8248
21
27.9493
0
LINE
8
Black
10
30.8248
20
27.9493
11
30.8163
21
27.9518
0
LINE
8
Black
10
30.8163
20
27.9518
11
30.8077
21
27.9533
0
LINE
8
Black
10
30.8077
20
27.9533
11
30.8039
21
27.9555
0
LINE
8
Black
10
30.8039
20
27.9555
11
30.7998
21
27.9567
0
LINE
8
Black
10
30.7998
20
27.9567
11
30.7046
21
28.0043
0
LINE
8
Black
10
30.7046
20
28.0043
11
30.6949
21
28.0115
0
LINE
8
Black
10
30.6949
20
28.0115
11
30.6851
21
28.0184
0
LINE
8
Black
10
30.6851
20
28.0184
11
30.6374
21
28.066
0
LINE
8
Black
10
30.6374
20
28.066
11
30.6306
21
28.0758
0
LINE
8
Black
10
30.6306
20
28.0758
11
30.6234
21
28.0855
0
LINE
8
Black
10
30.6234
20
28.0855
11
30.5758
21
28.1807
0
LINE
8
Black
10
30.5758
20
28.1807
11
30.5745
21
28.1849
0
LINE
8
Black
10
30.5745
20
28.1849
11
30.5724
21
28.1886
0
LINE
8
Black
10
30.5724
20
28.1886
11
30.5709
21
28.1973
0
LINE
8
Black
10
30.5709
20
28.1973
11
30.5683
21
28.2057
0
LINE
8
Black
10
30.5683
20
28.2057
11
30.5686
21
28.21
0
LINE
8
Black
10
30.5686
20
28.21
11
30.5679
21
28.2143
0
LINE
8
Black
10
30.5679
20
28.2143
11
30.5679
21
28.3571
0
LINE
8
Black
10
30.5679
20
28.3571
11
30.5686
21
28.3614
0
LINE
8
Black
10
30.5686
20
28.3614
11
30.5683
21
28.3657
0
LINE
8
Black
10
30.5683
20
28.3657
11
30.5709
21
28.3741
0
LINE
8
Black
10
30.5709
20
28.3741
11
30.5724
21
28.3828
0
LINE
8
Black
10
30.5724
20
28.3828
11
30.5745
21
28.3865
0
LINE
8
Black
10
30.5745
20
28.3865
11
30.5758
21
28.3907
0
LINE
8
Black
10
30.5758
20
28.3907
11
30.6234
21
28.4859
0
LINE
8
Black
10
30.6234
20
28.4859
11
30.6306
21
28.4956
0
LINE
8
Black
10
30.6306
20
28.4956
11
30.6374
21
28.5054
0
LINE
8
Black
10
30.6374
20
28.5054
11
30.6851
21
28.553
0
LINE
8
Black
10
30.6851
20
28.553
11
30.6949
21
28.5599
0
LINE
8
Black
10
30.6949
20
28.5599
11
30.7046
21
28.5671
0
LINE
8
Black
10
30.7046
20
28.5671
11
30.7998
21
28.6147
0
LINE
8
Black
10
30.7998
20
28.6147
11
30.8039
21
28.6159
0
LINE
8
Black
10
30.8039
20
28.6159
11
30.8077
21
28.6181
0
LINE
8
Black
10
30.8077
20
28.6181
11
30.8163
21
28.6196
0
LINE
8
Black
10
30.8163
20
28.6196
11
30.8248
21
28.6221
0
LINE
8
Black
10
30.8248
20
28.6221
11
30.8291
21
28.6219
0
LINE
8
Black
10
30.8291
20
28.6219
11
30.8333
21
28.6226
0
LINE
8
Black
10
30.8333
20
28.6226
11
31.2143
21
28.6226
0
LINE
8
Black
10
31.2143
20
28.6226
11
31.2207
21
28.6215
0
LINE
8
Black
10
30.851
20
28.4726
11
30.7825
21
28.4384
0
LINE
8
Black
10
30.7825
20
28.4384
11
30.7521
21
28.408
0
LINE
8
Black
10
30.7521
20
28.408
11
30.7179
21
28.3394
0
LINE
8
Black
10
30.7179
20
28.3394
11
30.7179
21
28.232
0
LINE
8
Black
10
30.7179
20
28.232
11
30.7521
21
28.1635
0
LINE
8
Black
10
30.7521
20
28.1635
11
30.7825
21
28.1331
0
LINE
8
Black
10
30.7825
20
28.1331
11
30.851
21
28.0988
0
LINE
8
Black
10
30.851
20
28.0988
11
31.1393
21
28.0988
0
LINE
8
Black
10
31.1393
20
28.0988
11
31.1393
21
28.4726
0
LINE
8
Black
10
31.1393
20
28.4726
11
30.851
21
28.4726
0
LINE
8
Black
10
2.62331
20
31.6219
11
2.62762
21
31.6221
0
LINE
8
Black
10
2.62762
20
31.6221
11
2.63604
21
31.6196
0
LINE
8
Black
10
2.63604
20
31.6196
11
2.6447
21
31.6181
0
LINE
8
Black
10
2.6447
20
31.6181
11
2.64845
21
31.6159
0
LINE
8
Black
10
2.64845
20
31.6159
11
2.65259
21
31.6147
0
LINE
8
Black
10
2.65259
20
31.6147
11
2.74783
21
31.5671
0
LINE
8
Black
10
2.74783
20
31.5671
11
2.75748
21
31.5599
0
LINE
8
Black
10
2.75748
20
31.5599
11
2.76732
21
31.553
0
LINE
8
Black
10
2.76732
20
31.553
11
2.81494
21
31.5054
0
LINE
8
Black
10
2.81494
20
31.5054
11
2.82182
21
31.4956
0
LINE
8
Black
10
2.82182
20
31.4956
11
2.82899
21
31.4859
0
LINE
8
Black
10
2.82899
20
31.4859
11
2.87661
21
31.3907
0
LINE
8
Black
10
2.87661
20
31.3907
11
2.87784
21
31.3865
0
LINE
8
Black
10
2.87784
20
31.3865
11
2.88
21
31.3828
0
LINE
8
Black
10
2.88
20
31.3828
11
2.88153
21
31.3741
0
LINE
8
Black
10
2.88153
20
31.3741
11
2.88403
21
31.3657
0
LINE
8
Black
10
2.88403
20
31.3657
11
2.88377
21
31.3614
0
LINE
8
Black
10
2.88377
20
31.3614
11
2.88452
21
31.3571
0
LINE
8
Black
10
2.88452
20
31.3571
11
2.88452
21
31.3095
0
LINE
8
Black
10
2.88452
20
31.3095
11
2.88377
21
31.3053
0
LINE
8
Black
10
2.88377
20
31.3053
11
2.88403
21
31.3009
0
LINE
8
Black
10
2.88403
20
31.3009
11
2.88153
21
31.2925
0
LINE
8
Black
10
2.88153
20
31.2925
11
2.88
21
31.2839
0
LINE
8
Black
10
2.88
20
31.2839
11
2.87784
21
31.2801
0
LINE
8
Black
10
2.87784
20
31.2801
11
2.87661
21
31.276
0
LINE
8
Black
10
2.87661
20
31.276
11
2.82899
21
31.1807
0
LINE
8
Black
10
2.82899
20
31.1807
11
2.82182
21
31.1711
0
LINE
8
Black
10
2.82182
20
31.1711
11
2.81494
21
31.1613
0
LINE
8
Black
10
2.81494
20
31.1613
11
2.77273
21
31.119
0
LINE
8
Black
10
2.77273
20
31.119
11
2.81494
21
31.0768
0
LINE
8
Black
10
2.81494
20
31.0768
11
2.82182
21
31.067
0
LINE
8
Black
10
2.82182
20
31.067
11
2.82899
21
31.0574
0
LINE
8
Black
10
2.82899
20
31.0574
11
2.87661
21
30.9621
0
LINE
8
Black
10
2.87661
20
30.9621
11
2.87784
21
30.958
0
LINE
8
Black
10
2.87784
20
30.958
11
2.88
21
30.9542
0
LINE
8
Black
10
2.88
20
30.9542
11
2.88153
21
30.9456
0
LINE
8
Black
10
2.88153
20
30.9456
11
2.88403
21
30.9371
0
LINE
8
Black
10
2.88403
20
30.9371
11
2.88377
21
30.9328
0
LINE
8
Black
10
2.88377
20
30.9328
11
2.88452
21
30.9286
0
LINE
8
Black
10
2.88452
20
30.9286
11
2.88452
21
30.7381
0
LINE
8
Black
10
2.88452
20
30.7381
11
2.88377
21
30.7338
0
LINE
8
Black
10
2.88377
20
30.7338
11
2.88403
21
30.7295
0
LINE
8
Black
10
2.88403
20
30.7295
11
2.88153
21
30.7211
0
LINE
8
Black
10
2.88153
20
30.7211
11
2.88
21
30.7124
0
LINE
8
Black
10
2.88
20
30.7124
11
2.87784
21
30.7087
0
LINE
8
Black
10
2.87784
20
30.7087
11
2.87661
21
30.7046
0
LINE
8
Black
10
2.87661
20
30.7046
11
2.82899
21
30.6093
0
LINE
8
Black
10
2.82899
20
30.6093
11
2.82182
21
30.5997
0
LINE
8
Black
10
2.82182
20
30.5997
11
2.81494
21
30.5898
0
LINE
8
Black
10
2.81494
20
30.5898
11
2.76732
21
30.5422
0
LINE
8
Black
10
2.76732
20
30.5422
11
2.75748
21
30.5353
0
LINE
8
Black
10
2.75748
20
30.5353
11
2.74783
21
30.5282
0
LINE
8
Black
10
2.74783
20
30.5282
11
2.65259
21
30.4805
0
LINE
8
Black
10
2.65259
20
30.4805
11
2.64845
21
30.4793
0
LINE
8
Black
10
2.64845
20
30.4793
11
2.6447
21
30.4771
0
LINE
8
Black
10
2.6447
20
30.4771
11
2.63604
21
30.4756
0
LINE
8
Black
10
2.63604
20
30.4756
11
2.62762
21
30.4731
0
LINE
8
Black
10
2.62762
20
30.4731
11
2.62331
21
30.4734
0
LINE
8
Black
10
2.62331
20
30.4734
11
2.61905
21
30.4726
0
LINE
8
Black
10
2.61905
20
30.4726
11
2.42857
21
30.4726
0
LINE
8
Black
10
2.42857
20
30.4726
11
2.42431
21
30.4734
0
LINE
8
Black
10
2.42431
20
30.4734
11
2.42
21
30.4731
0
LINE
8
Black
10
2.42
20
30.4731
11
2.41158
21
30.4756
0
LINE
8
Black
10
2.41158
20
30.4756
11
2.40292
21
30.4771
0
LINE
8
Black
10
2.40292
20
30.4771
11
2.39917
21
30.4793
0
LINE
8
Black
10
2.39917
20
30.4793
11
2.39503
21
30.4805
0
LINE
8
Black
10
2.39503
20
30.4805
11
2.29979
21
30.5282
0
LINE
8
Black
10
2.29979
20
30.5282
11
2.29013
21
30.5353
0
LINE
8
Black
10
2.29013
20
30.5353
11
2.2803
21
30.5422
0
LINE
8
Black
10
2.2803
20
30.5422
11
2.23268
21
30.5898
0
LINE
8
Black
10
2.23268
20
30.5898
11
2.2258
21
30.5997
0
LINE
8
Black
10
2.2258
20
30.5997
11
2.21863
21
30.6093
0
LINE
8
Black
10
2.21863
20
30.6093
11
2.17101
21
30.7046
0
LINE
8
Black
10
2.17101
20
30.7046
11
2.16978
21
30.7087
0
LINE
8
Black
10
2.16978
20
30.7087
11
2.16762
21
30.7124
0
LINE
8
Black
10
2.16762
20
30.7124
11
2.16609
21
30.7211
0
LINE
8
Black
10
2.16609
20
30.7211
11
2.16359
21
30.7295
0
LINE
8
Black
10
2.16359
20
30.7295
11
2.16385
21
30.7338
0
LINE
8
Black
10
2.16385
20
30.7338
11
2.16309
21
30.7381
0
LINE
8
Black
10
2.16309
20
30.7381
11
2.16309
21
30.9286
0
LINE
8
Black
10
2.16309
20
30.9286
11
2.16384
21
30.9328
0
LINE
8
Black
10
2.16384
20
30.9328
11
2.16359
21
30.9371
0
LINE
8
Black
10
2.16359
20
30.9371
11
2.16609
21
30.9456
0
LINE
8
Black
10
2.16609
20
30.9456
11
2.16762
21
30.9542
0
LINE
8
Black
10
2.16762
20
30.9542
11
2.16978
21
30.958
0
LINE
8
Black
10
2.16978
20
30.958
11
2.17101
21
30.9621
0
LINE
8
Black
10
2.17101
20
30.9621
11
2.21863
21
31.0574
0
LINE
8
Black
10
2.21863
20
31.0574
11
2.2258
21
31.067
0
LINE
8
Black
10
2.2258
20
31.067
11
2.23268
21
31.0768
0
LINE
8
Black
10
2.23268
20
31.0768
11
2.27489
21
31.119
0
LINE
8
Black
10
2.27489
20
31.119
11
2.23268
21
31.1613
0
LINE
8
Black
10
2.23268
20
31.1613
11
2.2258
21
31.1711
0
LINE
8
Black
10
2.2258
20
31.1711
11
2.21863
21
31.1807
0
LINE
8
Black
10
2.21863
20
31.1807
11
2.17101
21
31.276
0
LINE
8
Black
10
2.17101
20
31.276
11
2.16978
21
31.2801
0
LINE
8
Black
10
2.16978
20
31.2801
11
2.16762
21
31.2839
0
LINE
8
Black
10
2.16762
20
31.2839
11
2.16609
21
31.2925
0
LINE
8
Black
10
2.16609
20
31.2925
11
2.16359
21
31.301
0
LINE
8
Black
10
2.16359
20
31.301
11
2.16385
21
31.3053
0
LINE
8
Black
10
2.16385
20
31.3053
11
2.16309
21
31.3095
0
LINE
8
Black
10
2.16309
20
31.3095
11
2.16309
21
31.3571
0
LINE
8
Black
10
2.16309
20
31.3571
11
2.16385
21
31.3614
0
LINE
8
Black
10
2.16385
20
31.3614
11
2.16359
21
31.3657
0
LINE
8
Black
10
2.16359
20
31.3657
11
2.16609
21
31.3741
0
LINE
8
Black
10
2.16609
20
31.3741
11
2.16762
21
31.3828
0
LINE
8
Black
10
2.16762
20
31.3828
11
2.16978
21
31.3865
0
LINE
8
Black
10
2.16978
20
31.3865
11
2.17101
21
31.3907
0
LINE
8
Black
10
2.17101
20
31.3907
11
2.21863
21
31.4859
0
LINE
8
Black
10
2.21863
20
31.4859
11
2.2258
21
31.4956
0
LINE
8
Black
10
2.2258
20
31.4956
11
2.23268
21
31.5054
0
LINE
8
Black
10
2.23268
20
31.5054
11
2.2803
21
31.553
0
LINE
8
Black
10
2.2803
20
31.553
11
2.29013
21
31.5599
0
LINE
8
Black
10
2.29013
20
31.5599
11
2.29979
21
31.5671
0
LINE
8
Black
10
2.29979
20
31.5671
11
2.39503
21
31.6147
0
LINE
8
Black
10
2.39503
20
31.6147
11
2.39917
21
31.6159
0
LINE
8
Black
10
2.39917
20
31.6159
11
2.40292
21
31.6181
0
LINE
8
Black
10
2.40292
20
31.6181
11
2.41158
21
31.6196
0
LINE
8
Black
10
2.41158
20
31.6196
11
2.42
21
31.6221
0
LINE
8
Black
10
2.42
20
31.6221
11
2.42431
21
31.6219
0
LINE
8
Black
10
2.42431
20
31.6219
11
2.42857
21
31.6226
0
LINE
8
Black
10
2.42857
20
31.6226
11
2.61905
21
31.6226
0
LINE
8
Black
10
2.61905
20
31.6226
11
2.62331
21
31.6219
0
LINE
8
Black
10
2.44628
20
31.044
11
2.37776
21
31.0098
0
LINE
8
Black
10
2.37776
20
31.0098
11
2.34735
21
30.9794
0
LINE
8
Black
10
2.34735
20
30.9794
11
2.31309
21
30.9109
0
LINE
8
Black
10
2.31309
20
30.9109
11
2.31309
21
30.7558
0
LINE
8
Black
10
2.31309
20
30.7558
11
2.34735
21
30.6873
0
LINE
8
Black
10
2.34735
20
30.6873
11
2.37776
21
30.6569
0
LINE
8
Black
10
2.37776
20
30.6569
11
2.44628
21
30.6226
0
LINE
8
Black
10
2.44628
20
30.6226
11
2.60134
21
30.6226
0
LINE
8
Black
10
2.60134
20
30.6226
11
2.66986
21
30.6569
0
LINE
8
Black
10
2.66986
20
30.6569
11
2.70027
21
30.6873
0
LINE
8
Black
10
2.70027
20
30.6873
11
2.73452
21
30.7558
0
LINE
8
Black
10
2.73452
20
30.7558
11
2.73452
21
30.9109
0
LINE
8
Black
10
2.73452
20
30.9109
11
2.70027
21
30.9794
0
LINE
8
Black
10
2.70027
20
30.9794
11
2.66986
21
31.0098
0
LINE
8
Black
10
2.66986
20
31.0098
11
2.60134
21
31.044
0
LINE
8
Black
10
2.60134
20
31.044
11
2.44628
21
31.044
0
LINE
8
Black
10
2.44628
20
31.4726
11
2.37776
21
31.4384
0
LINE
8
Black
10
2.37776
20
31.4384
11
2.34735
21
31.408
0
LINE
8
Black
10
2.34735
20
31.408
11
2.31309
21
31.3394
0
LINE
8
Black
10
2.31309
20
31.3394
11
2.31309
21
31.3272
0
LINE
8
Black
10
2.31309
20
31.3272
11
2.34735
21
31.2587
0
LINE
8
Black
10
2.34735
20
31.2587
11
2.37776
21
31.2283
0
LINE
8
Black
10
2.37776
20
31.2283
11
2.44628
21
31.194
0
LINE
8
Black
10
2.44628
20
31.194
11
2.60134
21
31.194
0
LINE
8
Black
10
2.60134
20
31.194
11
2.66986
21
31.2283
0
LINE
8
Black
10
2.66986
20
31.2283
11
2.70027
21
31.2587
0
LINE
8
Black
10
2.70027
20
31.2587
11
2.73452
21
31.3272
0
LINE
8
Black
10
2.73452
20
31.3272
11
2.73452
21
31.3394
0
LINE
8
Black
10
2.73452
20
31.3394
11
2.70027
21
31.408
0
LINE
8
Black
10
2.70027
20
31.408
11
2.66986
21
31.4384
0
LINE
8
Black
10
2.66986
20
31.4384
11
2.60134
21
31.4726
0
LINE
8
Black
10
2.60134
20
31.4726
11
2.44628
21
31.4726
0
LINE
8
Black
10
4.72075
20
31.6215
11
4.72731
21
31.6215
0
LINE
8
Black
10
4.72731
20
31.6215
11
4.73348
21
31.6192
0
LINE
8
Black
10
4.73348
20
31.6192
11
4.73994
21
31.6181
0
LINE
8
Black
10
4.73994
20
31.6181
11
4.74562
21
31.6148
0
LINE
8
Black
10
4.74562
20
31.6148
11
4.75179
21
31.6126
0
LINE
8
Black
10
4.75179
20
31.6126
11
4.75681
21
31.6084
0
LINE
8
Black
10
4.75681
20
31.6084
11
4.76249
21
31.6051
0
LINE
8
Black
10
4.76249
20
31.6051
11
4.76671
21
31.6
0
LINE
8
Black
10
4.76671
20
31.6
11
4.77174
21
31.5958
0
LINE
8
Black
10
4.77174
20
31.5958
11
4.77502
21
31.5901
0
LINE
8
Black
10
4.77502
20
31.5901
11
4.77924
21
31.5851
0
LINE
8
Black
10
4.77924
20
31.5851
11
4.78148
21
31.579
0
LINE
8
Black
10
4.78148
20
31.579
11
4.78476
21
31.5733
0
LINE
8
Black
10
4.78476
20
31.5733
11
4.7859
21
31.5668
0
LINE
8
Black
10
4.7859
20
31.5668
11
4.78815
21
31.5606
0
LINE
8
Black
10
4.78815
20
31.5606
11
4.78815
21
31.5541
0
LINE
8
Black
10
4.78815
20
31.5541
11
4.78929
21
31.5476
0
LINE
8
Black
10
4.78929
20
31.5476
11
4.78929
21
30.5476
0
LINE
8
Black
10
4.78929
20
30.5476
11
4.78476
21
30.522
0
LINE
8
Black
10
4.78476
20
30.522
11
4.77174
21
30.4994
0
LINE
8
Black
10
4.77174
20
30.4994
11
4.75179
21
30.4827
0
LINE
8
Black
10
4.75179
20
30.4827
11
4.72731
21
30.4738
0
LINE
8
Black
10
4.72731
20
30.4738
11
4.70126
21
30.4738
0
LINE
8
Black
10
4.70126
20
30.4738
11
4.67679
21
30.4827
0
LINE
8
Black
10
4.67679
20
30.4827
11
4.65683
21
30.4994
0
LINE
8
Black
10
4.65683
20
30.4994
11
4.64381
21
30.522
0
LINE
8
Black
10
4.64381
20
30.522
11
4.63929
21
30.5476
0
LINE
8
Black
10
4.63929
20
30.5476
11
4.63929
21
30.9488
0
LINE
8
Black
10
4.63929
20
30.9488
11
4.33333
21
30.9488
0
LINE
8
Black
10
4.33333
20
30.9488
11
4.32907
21
30.9496
0
LINE
8
Black
10
4.32907
20
30.9496
11
4.32476
21
30.9493
0
LINE
8
Black
10
4.32476
20
30.9493
11
4.31634
21
30.9518
0
LINE
8
Black
10
4.31634
20
30.9518
11
4.30768
21
30.9533
0
LINE
8
Black
10
4.30768
20
30.9533
11
4.30394
21
30.9555
0
LINE
8
Black
10
4.30394
20
30.9555
11
4.29979
21
30.9567
0
LINE
8
Black
10
4.29979
20
30.9567
11
4.20455
21
31.0043
0
LINE
8
Black
10
4.20455
20
31.0043
11
4.1949
21
31.0115
0
LINE
8
Black
10
4.1949
20
31.0115
11
4.18506
21
31.0184
0
LINE
8
Black
10
4.18506
20
31.0184
11
4.13744
21
31.066
0
LINE
8
Black
10
4.13744
20
31.066
11
4.13056
21
31.0758
0
LINE
8
Black
10
4.13056
20
31.0758
11
4.12339
21
31.0855
0
LINE
8
Black
10
4.12339
20
31.0855
11
4.07578
21
31.1807
0
LINE
8
Black
10
4.07578
20
31.1807
11
4.07454
21
31.1849
0
LINE
8
Black
10
4.07454
20
31.1849
11
4.07238
21
31.1886
0
LINE
8
Black
10
4.07238
20
31.1886
11
4.07085
21
31.1973
0
LINE
8
Black
10
4.07085
20
31.1973
11
4.06835
21
31.2057
0
LINE
8
Black
10
4.06835
20
31.2057
11
4.06861
21
31.21
0
LINE
8
Black
10
4.06861
20
31.21
11
4.06786
21
31.2143
0
LINE
8
Black
10
4.06786
20
31.2143
11
4.06786
21
31.3571
0
LINE
8
Black
10
4.06786
20
31.3571
11
4.06861
21
31.3614
0
LINE
8
Black
10
4.06861
20
31.3614
11
4.06835
21
31.3657
0
LINE
8
Black
10
4.06835
20
31.3657
11
4.07085
21
31.3741
0
LINE
8
Black
10
4.07085
20
31.3741
11
4.07238
21
31.3828
0
LINE
8
Black
10
4.07238
20
31.3828
11
4.07454
21
31.3865
0
LINE
8
Black
10
4.07454
20
31.3865
11
4.07578
21
31.3907
0
LINE
8
Black
10
4.07578
20
31.3907
11
4.12339
21
31.4859
0
LINE
8
Black
10
4.12339
20
31.4859
11
4.13056
21
31.4956
0
LINE
8
Black
10
4.13056
20
31.4956
11
4.13744
21
31.5054
0
LINE
8
Black
10
4.13744
20
31.5054
11
4.18506
21
31.553
0
LINE
8
Black
10
4.18506
20
31.553
11
4.1949
21
31.5599
0
LINE
8
Black
10
4.1949
20
31.5599
11
4.20455
21
31.5671
0
LINE
8
Black
10
4.20455
20
31.5671
11
4.29979
21
31.6147
0
LINE
8
Black
10
4.29979
20
31.6147
11
4.30394
21
31.6159
0
LINE
8
Black
10
4.30394
20
31.6159
11
4.30768
21
31.6181
0
LINE
8
Black
10
4.30768
20
31.6181
11
4.31634
21
31.6196
0
LINE
8
Black
10
4.31634
20
31.6196
11
4.32476
21
31.6221
0
LINE
8
Black
10
4.32476
20
31.6221
11
4.32907
21
31.6219
0
LINE
8
Black
10
4.32907
20
31.6219
11
4.33333
21
31.6226
0
LINE
8
Black
10
4.33333
20
31.6226
11
4.71429
21
31.6226
0
LINE
8
Black
10
4.71429
20
31.6226
11
4.72075
21
31.6215
0
LINE
8
Black
10
4.35104
20
31.4726
11
4.28252
21
31.4384
0
LINE
8
Black
10
4.28252
20
31.4384
11
4.25211
21
31.408
0
LINE
8
Black
10
4.25211
20
31.408
11
4.21786
21
31.3394
0
LINE
8
Black
10
4.21786
20
31.3394
11
4.21786
21
31.232
0
LINE
8
Black
10
4.21786
20
31.232
11
4.25211
21
31.1635
0
LINE
8
Black
10
4.25211
20
31.1635
11
4.28252
21
31.1331
0
LINE
8
Black
10
4.28252
20
31.1331
11
4.35104
21
31.0988
0
LINE
8
Black
10
4.35104
20
31.0988
11
4.63929
21
31.0988
0
LINE
8
Black
10
4.63929
20
31.0988
11
4.63929
21
31.4726
0
LINE
8
Black
10
4.63929
20
31.4726
11
4.35104
21
31.4726
0
LINE
8
Black
10
3.53885
20
31.6687
11
3.56307
21
31.6591
0
LINE
8
Black
10
3.56307
20
31.6591
11
3.58256
21
31.6419
0
LINE
8
Black
10
3.58256
20
31.6419
11
3.59496
21
31.619
0
LINE
8
Black
10
3.59496
20
31.619
11
3.83306
21
30.9047
0
LINE
8
Black
10
3.83306
20
30.9047
11
3.83387
21
30.8992
0
LINE
8
Black
10
3.83387
20
30.8992
11
3.83577
21
30.894
0
LINE
8
Black
10
3.83577
20
30.894
11
3.83577
21
30.8864
0
LINE
8
Black
10
3.83577
20
30.8864
11
3.83688
21
30.8789
0
LINE
8
Black
10
3.83688
20
30.8789
11
3.83577
21
30.8735
0
LINE
8
Black
10
3.83577
20
30.8735
11
3.83577
21
30.8679
0
LINE
8
Black
10
3.83577
20
30.8679
11
3.83317
21
30.8608
0
LINE
8
Black
10
3.83317
20
30.8608
11
3.83166
21
30.8534
0
LINE
8
Black
10
3.83166
20
30.8534
11
3.82875
21
30.8487
0
LINE
8
Black
10
3.82875
20
30.8487
11
3.82686
21
30.8435
0
LINE
8
Black
10
3.82686
20
30.8435
11
3.82198
21
30.8376
0
LINE
8
Black
10
3.82198
20
30.8376
11
3.81802
21
30.8312
0
LINE
8
Black
10
3.81802
20
30.8312
11
3.81368
21
30.8277
0
LINE
8
Black
10
3.81368
20
30.8277
11
3.81011
21
30.8235
0
LINE
8
Black
10
3.81011
20
30.8235
11
3.80355
21
30.8197
0
LINE
8
Black
10
3.80355
20
30.8197
11
3.79762
21
30.815
0
LINE
8
Black
10
3.79762
20
30.815
11
3.79236
21
30.8132
0
LINE
8
Black
10
3.79236
20
30.8132
11
3.78756
21
30.8105
0
LINE
8
Black
10
3.78756
20
30.8105
11
3.78009
21
30.8092
0
LINE
8
Black
10
3.78009
20
30.8092
11
3.77291
21
30.8068
0
LINE
8
Black
10
3.77291
20
30.8068
11
3.76736
21
30.8069
0
LINE
8
Black
10
3.76736
20
30.8069
11
3.7619
21
30.806
0
LINE
8
Black
10
3.7619
20
30.806
11
3.36071
21
30.806
0
LINE
8
Black
10
3.36071
20
30.806
11
3.36071
21
30.5476
0
LINE
8
Black
10
3.36071
20
30.5476
11
3.35619
21
30.522
0
LINE
8
Black
10
3.35619
20
30.522
11
3.34317
21
30.4994
0
LINE
8
Black
10
3.34317
20
30.4994
11
3.32321
21
30.4827
0
LINE
8
Black
10
3.32321
20
30.4827
11
3.29874
21
30.4738
0
LINE
8
Black
10
3.29874
20
30.4738
11
3.27269
21
30.4738
0
LINE
8
Black
10
3.27269
20
30.4738
11
3.24821
21
30.4827
0
LINE
8
Black
10
3.24821
20
30.4827
11
3.22826
21
30.4994
0
LINE
8
Black
10
3.22826
20
30.4994
11
3.21524
21
30.522
0
LINE
8
Black
10
3.21524
20
30.522
11
3.21071
21
30.5476
0
LINE
8
Black
10
3.21071
20
30.5476
11
3.21071
21
30.806
0
LINE
8
Black
10
3.21071
20
30.806
11
3.14286
21
30.806
0
LINE
8
Black
10
3.14286
20
30.806
11
3.1172
21
30.8105
0
LINE
8
Black
10
3.1172
20
30.8105
11
3.09465
21
30.8235
0
LINE
8
Black
10
3.09465
20
30.8235
11
3.0779
21
30.8435
0
LINE
8
Black
10
3.0779
20
30.8435
11
3.069
21
30.8679
0
LINE
8
Black
10
3.069
20
30.8679
11
3.069
21
30.894
0
LINE
8
Black
10
3.069
20
30.894
11
3.0779
21
30.9185
0
LINE
8
Black
10
3.0779
20
30.9185
11
3.09465
21
30.9384
0
LINE
8
Black
10
3.09465
20
30.9384
11
3.1172
21
30.9514
0
LINE
8
Black
10
3.1172
20
30.9514
11
3.14286
21
30.956
0
LINE
8
Black
10
3.14286
20
30.956
11
3.21071
21
30.956
0
LINE
8
Black
10
3.21071
20
30.956
11
3.21071
21
31.2143
0
LINE
8
Black
10
3.21071
20
31.2143
11
3.21524
21
31.2399
0
LINE
8
Black
10
3.21524
20
31.2399
11
3.22826
21
31.2625
0
LINE
8
Black
10
3.22826
20
31.2625
11
3.24821
21
31.2792
0
LINE
8
Black
10
3.24821
20
31.2792
11
3.27269
21
31.2881
0
LINE
8
Black
10
3.27269
20
31.2881
11
3.29874
21
31.2881
0
LINE
8
Black
10
3.29874
20
31.2881
11
3.32321
21
31.2792
0
LINE
8
Black
10
3.32321
20
31.2792
11
3.34317
21
31.2625
0
LINE
8
Black
10
3.34317
20
31.2625
11
3.35619
21
31.2399
0
LINE
8
Black
10
3.35619
20
31.2399
11
3.36071
21
31.2143
0
LINE
8
Black
10
3.36071
20
31.2143
11
3.36071
21
30.956
0
LINE
8
Black
10
3.36071
20
30.956
11
3.65785
21
30.956
0
LINE
8
Black
10
3.65785
20
30.956
11
3.45266
21
31.5715
0
LINE
8
Black
10
3.45266
20
31.5715
11
3.44884
21
31.5973
0
LINE
8
Black
10
3.44884
20
31.5973
11
3.45406
21
31.6228
0
LINE
8
Black
10
3.45406
20
31.6228
11
3.46769
21
31.645
0
LINE
8
Black
10
3.46769
20
31.645
11
3.4881
21
31.6612
0
LINE
8
Black
10
3.4881
20
31.6612
11
3.51281
21
31.6694
0
LINE
8
Black
10
3.51281
20
31.6694
11
3.53885
21
31.6687
  0
ENDSEC
  0
EOF
