  0
SECTION
  2
HEADER
  9
$ANGBASE
  50
0.0
  9
$ANGDIR
  70
  1
  9
$MEASUREMENT
  70
0
  0
ENDSEC
  0
SECTION
  2
TABLES
  0
TABLE
  2
LTYPE
  70
1
  0
LTYPE
  2
CONTINUOUS
  70
0
  3
Solid line
  72
65
  73
0
  40
0.0
  0
ENDTAB
  0
TABLE
  2
STYLE
  70
4
  0
STYLE
  2
KICAD
  70
0
  40
0
  41
1
  42
1
  50
0
  71
0
  3
isocp.shx
  0
STYLE
  2
KICADB
  70
0
  40
0
  41
1
  42
1
  50
0
  71
0
  3
isocp.shx
  0
STYLE
  2
KICADI
  70
0
  40
0
  41
1
  42
1
  50
15
  71
0
  3
isocp.shx
  0
STYLE
  2
KICADBI
  70
0
  40
0
  41
1
  42
1
  50
15
  71
0
  3
isocp.shx
  0
ENDTAB
  0
TABLE
  2
LAYER
  70
30
  0
LAYER
  2
BLACK
  70
0
  62
7
  6
CONTINUOUS
  0
LAYER
  2
GRAY1
  70
0
  62
251
  6
CONTINUOUS
  0
LAYER
  2
GRAY2
  70
0
  62
8
  6
CONTINUOUS
  0
LAYER
  2
GRAY3
  70
0
  62
9
  6
CONTINUOUS
  0
LAYER
  2
WHITE
  70
0
  62
7
  6
CONTINUOUS
  0
LAYER
  2
LYELLOW
  70
0
  62
51
  6
CONTINUOUS
  0
LAYER
  2
BLUE1
  70
0
  62
178
  6
CONTINUOUS
  0
LAYER
  2
GREEN1
  70
0
  62
98
  6
CONTINUOUS
  0
LAYER
  2
CYAN1
  70
0
  62
138
  6
CONTINUOUS
  0
LAYER
  2
RED1
  70
0
  62
18
  6
CONTINUOUS
  0
LAYER
  2
MAGENTA1
  70
0
  62
228
  6
CONTINUOUS
  0
LAYER
  2
BROWN1
  70
0
  62
58
  6
CONTINUOUS
  0
LAYER
  2
BLUE2
  70
0
  62
5
  6
CONTINUOUS
  0
LAYER
  2
GREEN2
  70
0
  62
3
  6
CONTINUOUS
  0
LAYER
  2
CYAN2
  70
0
  62
4
  6
CONTINUOUS
  0
LAYER
  2
RED2
  70
0
  62
1
  6
CONTINUOUS
  0
LAYER
  2
MAGENTA2
  70
0
  62
6
  6
CONTINUOUS
  0
LAYER
  2
BROWN2
  70
0
  62
54
  6
CONTINUOUS
  0
LAYER
  2
BLUE3
  70
0
  62
171
  6
CONTINUOUS
  0
LAYER
  2
GREEN3
  70
0
  62
91
  6
CONTINUOUS
  0
LAYER
  2
CYAN3
  70
0
  62
131
  6
CONTINUOUS
  0
LAYER
  2
RED3
  70
0
  62
11
  6
CONTINUOUS
  0
LAYER
  2
MAGENTA3
  70
0
  62
221
  6
CONTINUOUS
  0
LAYER
  2
YELLOW3
  70
0
  62
2
  6
CONTINUOUS
  0
LAYER
  2
BLUE4
  70
0
  62
5
  6
CONTINUOUS
  0
LAYER
  2
GREEN4
  70
0
  62
3
  6
CONTINUOUS
  0
LAYER
  2
CYAN4
  70
0
  62
4
  6
CONTINUOUS
  0
LAYER
  2
RED4
  70
0
  62
1
  6
CONTINUOUS
  0
LAYER
  2
MAGENTA4
  70
0
  62
6
  6
CONTINUOUS
  0
LAYER
  2
YELLOW4
  70
0
  62
2
  6
CONTINUOUS
  0
ENDTAB
  0
ENDSEC
  0
SECTION
  2
ENTITIES
0
LINE
8
Black
10
27.065
20
-1.905
11
25.795
21
-1.905
0
LINE
8
Black
10
25.795
20
-1.905
11
25.795
21
1.525
0
LINE
8
Black
10
25.795
20
1.525
11
27.065
21
1.525
0
LINE
8
Black
10
27.065
20
1.525
11
27.065
21
-1.905
0
LINE
8
Black
10
21.985
20
-1.905
11
20.715
21
-1.905
0
LINE
8
Black
10
20.715
20
-1.905
11
20.715
21
1.525
0
LINE
8
Black
10
20.715
20
1.525
11
21.985
21
1.525
0
LINE
8
Black
10
21.985
20
1.525
11
21.985
21
-1.905
0
LINE
8
Black
10
16.905
20
-1.905
11
15.635
21
-1.905
0
LINE
8
Black
10
15.635
20
-1.905
11
15.635
21
1.525
0
LINE
8
Black
10
15.635
20
1.525
11
16.905
21
1.525
0
LINE
8
Black
10
16.905
20
1.525
11
16.905
21
-1.905
0
LINE
8
Black
10
11.825
20
-1.905
11
10.555
21
-1.905
0
LINE
8
Black
10
10.555
20
-1.905
11
10.555
21
1.525
0
LINE
8
Black
10
10.555
20
1.525
11
11.825
21
1.525
0
LINE
8
Black
10
11.825
20
1.525
11
11.825
21
-1.905
0
LINE
8
Black
10
6.745
20
-1.905
11
5.475
21
-1.905
0
LINE
8
Black
10
5.475
20
-1.905
11
5.475
21
1.525
0
LINE
8
Black
10
5.475
20
1.525
11
6.745
21
1.525
0
LINE
8
Black
10
6.745
20
1.525
11
6.745
21
-1.905
0
LINE
8
Black
10
4.205
20
1.015
11
2.935
21
1.015
0
LINE
8
Black
10
2.935
20
1.015
11
2.935
21
4.445
0
LINE
8
Black
10
2.935
20
4.445
11
4.205
21
4.445
0
LINE
8
Black
10
4.205
20
4.445
11
4.205
21
1.015
0
LINE
8
Black
10
9.285
20
1.015
11
8.015
21
1.015
0
LINE
8
Black
10
8.015
20
1.015
11
8.015
21
4.445
0
LINE
8
Black
10
8.015
20
4.445
11
9.285
21
4.445
0
LINE
8
Black
10
9.285
20
4.445
11
9.285
21
1.015
0
LINE
8
Black
10
14.365
20
1.015
11
13.095
21
1.015
0
LINE
8
Black
10
13.095
20
1.015
11
13.095
21
4.445
0
LINE
8
Black
10
13.095
20
4.445
11
14.365
21
4.445
0
LINE
8
Black
10
14.365
20
4.445
11
14.365
21
1.015
0
LINE
8
Black
10
24.525
20
1.015
11
23.255
21
1.015
0
LINE
8
Black
10
23.255
20
1.015
11
23.255
21
4.445
0
LINE
8
Black
10
23.255
20
4.445
11
24.525
21
4.445
0
LINE
8
Black
10
24.525
20
4.445
11
24.525
21
1.015
0
LINE
8
Black
10
19.445
20
1.015
11
18.175
21
1.015
0
LINE
8
Black
10
18.175
20
1.015
11
18.175
21
4.445
0
LINE
8
Black
10
18.175
20
4.445
11
19.445
21
4.445
0
LINE
8
Black
10
19.445
20
4.445
11
19.445
21
1.015
0
LINE
8
Black
10
1.525
20
4.205
11
-1.905
21
4.205
0
LINE
8
Black
10
-1.905
20
4.205
11
-1.905
21
5.475
0
LINE
8
Black
10
-1.905
20
5.475
11
1.525
21
5.475
0
LINE
8
Black
10
1.525
20
5.475
11
1.525
21
4.205
0
LINE
8
Black
10
28.985
20
4.205
11
25.555
21
4.205
0
LINE
8
Black
10
25.555
20
4.205
11
25.555
21
5.475
0
LINE
8
Black
10
25.555
20
5.475
11
28.985
21
5.475
0
LINE
8
Black
10
28.985
20
5.475
11
28.985
21
4.205
0
LINE
8
Black
10
4.445
20
6.745
11
1.015
21
6.745
0
LINE
8
Black
10
1.015
20
6.745
11
1.015
21
8.015
0
LINE
8
Black
10
1.015
20
8.015
11
4.445
21
8.015
0
LINE
8
Black
10
4.445
20
8.015
11
4.445
21
6.745
0
LINE
8
Black
10
31.905
20
6.745
11
28.475
21
6.745
0
LINE
8
Black
10
28.475
20
6.745
11
28.475
21
8.015
0
LINE
8
Black
10
28.475
20
8.015
11
31.905
21
8.015
0
LINE
8
Black
10
31.905
20
8.015
11
31.905
21
6.745
0
LINE
8
Black
10
1.525
20
9.285
11
-1.905
21
9.285
0
LINE
8
Black
10
-1.905
20
9.285
11
-1.905
21
10.555
0
LINE
8
Black
10
-1.905
20
10.555
11
1.525
21
10.555
0
LINE
8
Black
10
1.525
20
10.555
11
1.525
21
9.285
0
LINE
8
Black
10
28.985
20
9.285
11
25.555
21
9.285
0
LINE
8
Black
10
25.555
20
9.285
11
25.555
21
10.555
0
LINE
8
Black
10
25.555
20
10.555
11
28.985
21
10.555
0
LINE
8
Black
10
28.985
20
10.555
11
28.985
21
9.285
0
LINE
8
Black
10
4.445
20
11.825
11
1.015
21
11.825
0
LINE
8
Black
10
1.015
20
11.825
11
1.015
21
13.095
0
LINE
8
Black
10
1.015
20
13.095
11
4.445
21
13.095
0
LINE
8
Black
10
4.445
20
13.095
11
4.445
21
11.825
0
LINE
8
Black
10
31.905
20
11.825
11
28.475
21
11.825
0
LINE
8
Black
10
28.475
20
11.825
11
28.475
21
13.095
0
LINE
8
Black
10
28.475
20
13.095
11
31.905
21
13.095
0
LINE
8
Black
10
31.905
20
13.095
11
31.905
21
11.825
0
LINE
8
Black
10
1.525
20
14.365
11
-1.905
21
14.365
0
LINE
8
Black
10
-1.905
20
14.365
11
-1.905
21
15.635
0
LINE
8
Black
10
-1.905
20
15.635
11
1.525
21
15.635
0
LINE
8
Black
10
1.525
20
15.635
11
1.525
21
14.365
0
LINE
8
Black
10
28.985
20
14.365
11
25.555
21
14.365
0
LINE
8
Black
10
25.555
20
14.365
11
25.555
21
15.635
0
LINE
8
Black
10
25.555
20
15.635
11
28.985
21
15.635
0
LINE
8
Black
10
28.985
20
15.635
11
28.985
21
14.365
0
LINE
8
Black
10
4.445
20
16.905
11
1.015
21
16.905
0
LINE
8
Black
10
1.015
20
16.905
11
1.015
21
18.175
0
LINE
8
Black
10
1.015
20
18.175
11
4.445
21
18.175
0
LINE
8
Black
10
4.445
20
18.175
11
4.445
21
16.905
0
LINE
8
Black
10
31.905
20
16.905
11
28.475
21
16.905
0
LINE
8
Black
10
28.475
20
16.905
11
28.475
21
18.175
0
LINE
8
Black
10
28.475
20
18.175
11
31.905
21
18.175
0
LINE
8
Black
10
31.905
20
18.175
11
31.905
21
16.905
0
LINE
8
Black
10
1.525
20
19.445
11
-1.905
21
19.445
0
LINE
8
Black
10
-1.905
20
19.445
11
-1.905
21
20.715
0
LINE
8
Black
10
-1.905
20
20.715
11
1.525
21
20.715
0
LINE
8
Black
10
1.525
20
20.715
11
1.525
21
19.445
0
LINE
8
Black
10
28.985
20
19.445
11
25.555
21
19.445
0
LINE
8
Black
10
25.555
20
19.445
11
25.555
21
20.715
0
LINE
8
Black
10
25.555
20
20.715
11
28.985
21
20.715
0
LINE
8
Black
10
28.985
20
20.715
11
28.985
21
19.445
0
LINE
8
Black
10
4.445
20
21.985
11
1.015
21
21.985
0
LINE
8
Black
10
1.015
20
21.985
11
1.015
21
23.255
0
LINE
8
Black
10
1.015
20
23.255
11
4.445
21
23.255
0
LINE
8
Black
10
4.445
20
23.255
11
4.445
21
21.985
0
LINE
8
Black
10
31.905
20
21.985
11
28.475
21
21.985
0
LINE
8
Black
10
28.475
20
21.985
11
28.475
21
23.255
0
LINE
8
Black
10
28.475
20
23.255
11
31.905
21
23.255
0
LINE
8
Black
10
31.905
20
23.255
11
31.905
21
21.985
0
LINE
8
Black
10
28.985
20
24.525
11
25.555
21
24.525
0
LINE
8
Black
10
25.555
20
24.525
11
25.555
21
25.795
0
LINE
8
Black
10
25.555
20
25.795
11
28.985
21
25.795
0
LINE
8
Black
10
28.985
20
25.795
11
28.985
21
24.525
0
LINE
8
Black
10
1.525
20
24.525
11
-1.905
21
24.525
0
LINE
8
Black
10
-1.905
20
24.525
11
-1.905
21
25.795
0
LINE
8
Black
10
-1.905
20
25.795
11
1.525
21
25.795
0
LINE
8
Black
10
1.525
20
25.795
11
1.525
21
24.525
0
LINE
8
Black
10
24.525
20
25.555
11
23.255
21
25.555
0
LINE
8
Black
10
23.255
20
25.555
11
23.255
21
28.985
0
LINE
8
Black
10
23.255
20
28.985
11
24.525
21
28.985
0
LINE
8
Black
10
24.525
20
28.985
11
24.525
21
25.555
0
LINE
8
Black
10
19.445
20
25.555
11
18.175
21
25.555
0
LINE
8
Black
10
18.175
20
25.555
11
18.175
21
28.985
0
LINE
8
Black
10
18.175
20
28.985
11
19.445
21
28.985
0
LINE
8
Black
10
19.445
20
28.985
11
19.445
21
25.555
0
LINE
8
Black
10
14.365
20
25.555
11
13.095
21
25.555
0
LINE
8
Black
10
13.095
20
25.555
11
13.095
21
28.985
0
LINE
8
Black
10
13.095
20
28.985
11
14.365
21
28.985
0
LINE
8
Black
10
14.365
20
28.985
11
14.365
21
25.555
0
LINE
8
Black
10
9.285
20
25.555
11
8.015
21
25.555
0
LINE
8
Black
10
8.015
20
25.555
11
8.015
21
28.985
0
LINE
8
Black
10
8.015
20
28.985
11
9.285
21
28.985
0
LINE
8
Black
10
9.285
20
28.985
11
9.285
21
25.555
0
LINE
8
Black
10
4.205
20
25.555
11
2.935
21
25.555
0
LINE
8
Black
10
2.935
20
25.555
11
2.935
21
28.985
0
LINE
8
Black
10
2.935
20
28.985
11
4.205
21
28.985
0
LINE
8
Black
10
4.205
20
28.985
11
4.205
21
25.555
0
LINE
8
Black
10
27.065
20
28.475
11
25.795
21
28.475
0
LINE
8
Black
10
25.795
20
28.475
11
25.795
21
31.905
0
LINE
8
Black
10
25.795
20
31.905
11
27.065
21
31.905
0
LINE
8
Black
10
27.065
20
31.905
11
27.065
21
28.475
0
LINE
8
Black
10
21.985
20
28.475
11
20.715
21
28.475
0
LINE
8
Black
10
20.715
20
28.475
11
20.715
21
31.905
0
LINE
8
Black
10
20.715
20
31.905
11
21.985
21
31.905
0
LINE
8
Black
10
21.985
20
31.905
11
21.985
21
28.475
0
LINE
8
Black
10
16.905
20
28.475
11
15.635
21
28.475
0
LINE
8
Black
10
15.635
20
28.475
11
15.635
21
31.905
0
LINE
8
Black
10
15.635
20
31.905
11
16.905
21
31.905
0
LINE
8
Black
10
16.905
20
31.905
11
16.905
21
28.475
0
LINE
8
Black
10
11.825
20
28.475
11
10.555
21
28.475
0
LINE
8
Black
10
10.555
20
28.475
11
10.555
21
31.905
0
LINE
8
Black
10
10.555
20
31.905
11
11.825
21
31.905
0
LINE
8
Black
10
11.825
20
31.905
11
11.825
21
28.475
0
LINE
8
Black
10
6.745
20
28.475
11
5.475
21
28.475
0
LINE
8
Black
10
5.475
20
28.475
11
5.475
21
31.905
0
LINE
8
Black
10
5.475
20
31.905
11
6.745
21
31.905
0
LINE
8
Black
10
6.745
20
31.905
11
6.745
21
28.475
  0
ENDSEC
  0
EOF
