G04 #@! TF.FileFunction,Copper,L4,Bot,Mixed*
%FSLAX46Y46*%
G04 Gerber Fmt 4.6, Leading zero omitted, Abs format (unit mm)*
G04 Created by KiCad (PCBNEW 4.0.5) date Thu Feb 16 13:03:40 2017*
%MOMM*%
%LPD*%
G01*
G04 APERTURE LIST*
%ADD10C,0.100000*%
%ADD11R,3.430000X1.270000*%
%ADD12R,1.270000X3.430000*%
%ADD13C,0.600000*%
%ADD14C,1.000000*%
%ADD15C,0.250000*%
%ADD16C,0.200000*%
%ADD17C,0.025400*%
G04 APERTURE END LIST*
D10*
D11*
X-190000Y4840000D03*
X-190000Y9920000D03*
X2730000Y7380000D03*
X2730000Y12460000D03*
X2730000Y17540000D03*
X2730000Y22620000D03*
X-190000Y15000000D03*
X-190000Y20080000D03*
X-190000Y25160000D03*
D12*
X26430000Y-190000D03*
X23890000Y2730000D03*
X18810000Y2730000D03*
X21350000Y-190000D03*
X16270000Y-190000D03*
X11190000Y-190000D03*
X6110000Y-190000D03*
X13730000Y2730000D03*
X8650000Y2730000D03*
X3570000Y2730000D03*
D11*
X27270000Y4840000D03*
X27270000Y9920000D03*
X30190000Y7380000D03*
X30190000Y12460000D03*
X30190000Y17540000D03*
X30190000Y22620000D03*
X27270000Y15000000D03*
X27270000Y20080000D03*
X27270000Y25160000D03*
D12*
X26430000Y30190000D03*
X23890000Y27270000D03*
X18810000Y27270000D03*
X21350000Y30190000D03*
X16270000Y30190000D03*
X11190000Y30190000D03*
X6110000Y30190000D03*
X13730000Y27270000D03*
X8650000Y27270000D03*
X3570000Y27270000D03*
D13*
X6170729Y11862703D03*
X2270000Y16270000D03*
X2270000Y13730000D03*
X16300000Y11600000D03*
X15400000Y11400000D03*
X5770000Y27730000D03*
X5477162Y11039990D03*
X3230000Y27730000D03*
X5584046Y10000000D03*
X3230000Y2270000D03*
X15940376Y9839990D03*
X5770000Y2270000D03*
X16201255Y9126156D03*
X16200000Y30400000D03*
X6800000Y12600000D03*
X6871998Y16222330D03*
X13716000Y27686000D03*
X6144056Y9290808D03*
X13716000Y2286000D03*
X5700000Y8500000D03*
X13674456Y6466431D03*
X12000000Y3600000D03*
X15494000Y762000D03*
X15700000Y8500000D03*
X26770000Y27730000D03*
X16800000Y7900000D03*
X23219510Y18288000D03*
X24638000Y18288000D03*
X24230000Y27730000D03*
X6690000Y7750000D03*
X24230000Y2270000D03*
X8800000Y5400000D03*
X26770000Y2270000D03*
X18000000Y6000000D03*
X27730000Y13730000D03*
X19200000Y6300000D03*
X27730000Y16270000D03*
X24800000Y13800000D03*
X10200000Y5600000D03*
X27200000Y23600000D03*
X29200000Y26800000D03*
X3400000Y21378010D03*
X10300000Y24100000D03*
X14300000Y15300000D03*
X20000000Y6900000D03*
X6330000Y18800000D03*
X19800000Y14300000D03*
X10000000Y15200000D03*
X10000000Y6800000D03*
X5511008Y21322639D03*
X10200000Y22800000D03*
X11200000Y4300000D03*
X21336000Y2794000D03*
X12700000Y7700000D03*
X8636000Y2794000D03*
X11400000Y13300000D03*
X17933845Y13221064D03*
X10560010Y13901018D03*
X8900000Y18800000D03*
X2730500Y18923000D03*
X20400000Y15200000D03*
X17789969Y14356546D03*
X9545237Y16553263D03*
X2681085Y25171426D03*
X7500000Y18600000D03*
X8000000Y14500000D03*
X16600000Y5300000D03*
X18542000Y3556000D03*
X21844000Y7500000D03*
X15000000Y5600000D03*
X22600000Y8085990D03*
X11938000Y2540000D03*
X21235961Y15536793D03*
X15000000Y20300000D03*
X4585838Y13860010D03*
X16891000Y22860000D03*
X2667000Y10858500D03*
X2921000Y7302500D03*
X6239990Y14276120D03*
X3700000Y10320000D03*
X2600000Y5600000D03*
X16891000Y21590000D03*
D14*
X2270000Y16270000D02*
X2270000Y17080000D01*
X2270000Y17080000D02*
X2730000Y17540000D01*
X2730000Y12460000D02*
X2730000Y13270000D01*
X2730000Y13270000D02*
X2270000Y13730000D01*
X6110000Y30190000D02*
X6110000Y28070000D01*
X6110000Y28070000D02*
X5770000Y27730000D01*
X5770000Y2270000D02*
X5770000Y150000D01*
X5770000Y150000D02*
X6110000Y-190000D01*
X15494000Y762000D02*
X15494000Y586000D01*
X15494000Y586000D02*
X16270000Y-190000D01*
X26770000Y27730000D02*
X26770000Y29850000D01*
X26770000Y29850000D02*
X26430000Y30190000D01*
D15*
X26770000Y2270000D02*
X26770000Y150000D01*
X26770000Y150000D02*
X26430000Y-190000D01*
X27730000Y13730000D02*
X29000000Y12460000D01*
X29000000Y12460000D02*
X30190000Y12460000D01*
X27730000Y16270000D02*
X29000000Y17540000D01*
X29000000Y17540000D02*
X30190000Y17540000D01*
D14*
X27270000Y25160000D02*
X27270000Y23670000D01*
X27270000Y23670000D02*
X27200000Y23600000D01*
X27270000Y25160000D02*
X27560000Y25160000D01*
X27560000Y25160000D02*
X29200000Y26800000D01*
X21336000Y2794000D02*
X21336000Y-176000D01*
X21336000Y-176000D02*
X21350000Y-190000D01*
D16*
X21350000Y2780000D02*
X21336000Y2794000D01*
X8650000Y1270000D02*
X8650000Y2780000D01*
X8650000Y2780000D02*
X8636000Y2794000D01*
X2730500Y18923000D02*
X1573500Y20080000D01*
X1573500Y20080000D02*
X-190000Y20080000D01*
X2681085Y25171426D02*
X-178574Y25171426D01*
X-178574Y25171426D02*
X-190000Y25160000D01*
D14*
X11938000Y2540000D02*
X11938000Y558000D01*
X11938000Y558000D02*
X11190000Y-190000D01*
D16*
X2921000Y7302500D02*
X1347500Y7302500D01*
X1347500Y7302500D02*
X1270000Y7380000D01*
D14*
X2600000Y5600000D02*
X570000Y5600000D01*
X570000Y5600000D02*
X-190000Y4840000D01*
D17*
G36*
X32487300Y-2487300D02*
X-2487300Y-2487300D01*
X-2487300Y2168465D01*
X2717212Y2168465D01*
X2718133Y2166236D01*
X2718133Y1015000D01*
X2732964Y936178D01*
X2779548Y863785D01*
X2850627Y815219D01*
X2935000Y798133D01*
X4205000Y798133D01*
X4283822Y812964D01*
X4356215Y859548D01*
X4404781Y930627D01*
X4421867Y1015000D01*
X4421867Y2270000D01*
X5057300Y2270000D01*
X5057300Y150000D01*
X5111551Y-122739D01*
X5258133Y-342114D01*
X5258133Y-1905000D01*
X5272964Y-1983822D01*
X5319548Y-2056215D01*
X5390627Y-2104781D01*
X5475000Y-2121867D01*
X6745000Y-2121867D01*
X6823822Y-2107036D01*
X6896215Y-2060452D01*
X6944781Y-1989373D01*
X6961867Y-1905000D01*
X6961867Y1525000D01*
X6947036Y1603822D01*
X6900452Y1676215D01*
X6829373Y1724781D01*
X6745000Y1741867D01*
X6482700Y1741867D01*
X6482700Y2270000D01*
X6428449Y2542738D01*
X6273955Y2773955D01*
X6042738Y2928449D01*
X5770000Y2982700D01*
X5497262Y2928449D01*
X5266045Y2773955D01*
X5111551Y2542738D01*
X5057300Y2270000D01*
X4421867Y2270000D01*
X4421867Y4445000D01*
X7798133Y4445000D01*
X7798133Y1015000D01*
X7812964Y936178D01*
X7859548Y863785D01*
X7930627Y815219D01*
X8015000Y798133D01*
X9285000Y798133D01*
X9363822Y812964D01*
X9436215Y859548D01*
X9484781Y930627D01*
X9501867Y1015000D01*
X9501867Y1525000D01*
X10338133Y1525000D01*
X10338133Y-1905000D01*
X10352964Y-1983822D01*
X10399548Y-2056215D01*
X10470627Y-2104781D01*
X10555000Y-2121867D01*
X11825000Y-2121867D01*
X11903822Y-2107036D01*
X11976215Y-2060452D01*
X12024781Y-1989373D01*
X12041867Y-1905000D01*
X12041867Y-346043D01*
X12441955Y54045D01*
X12596449Y285261D01*
X12650700Y558000D01*
X12650700Y762000D01*
X14781300Y762000D01*
X14781300Y586000D01*
X14835551Y313261D01*
X14990045Y82045D01*
X15418133Y-346043D01*
X15418133Y-1905000D01*
X15432964Y-1983822D01*
X15479548Y-2056215D01*
X15550627Y-2104781D01*
X15635000Y-2121867D01*
X16905000Y-2121867D01*
X16983822Y-2107036D01*
X17056215Y-2060452D01*
X17104781Y-1989373D01*
X17121867Y-1905000D01*
X17121867Y1525000D01*
X17107036Y1603822D01*
X17060452Y1676215D01*
X16989373Y1724781D01*
X16905000Y1741867D01*
X15635000Y1741867D01*
X15556178Y1727036D01*
X15483785Y1680452D01*
X15435219Y1609373D01*
X15418133Y1525000D01*
X15418133Y1459609D01*
X15221262Y1420449D01*
X14990045Y1265955D01*
X14835551Y1034738D01*
X14781300Y762000D01*
X12650700Y762000D01*
X12650700Y2540000D01*
X12596449Y2812738D01*
X12441955Y3043955D01*
X12271879Y3157596D01*
X12290042Y3165101D01*
X12434392Y3309200D01*
X12512610Y3497570D01*
X12512788Y3701535D01*
X12434899Y3890042D01*
X12290800Y4034392D01*
X12102430Y4112610D01*
X11898465Y4112788D01*
X11709958Y4034899D01*
X11565608Y3890800D01*
X11487390Y3702430D01*
X11487212Y3498465D01*
X11565101Y3309958D01*
X11674568Y3200300D01*
X11665262Y3198449D01*
X11434045Y3043955D01*
X11279551Y2812738D01*
X11225300Y2540000D01*
X11225300Y1741867D01*
X10555000Y1741867D01*
X10476178Y1727036D01*
X10403785Y1680452D01*
X10355219Y1609373D01*
X10338133Y1525000D01*
X9501867Y1525000D01*
X9501867Y4198465D01*
X10687212Y4198465D01*
X10765101Y4009958D01*
X10909200Y3865608D01*
X11097570Y3787390D01*
X11301535Y3787212D01*
X11490042Y3865101D01*
X11634392Y4009200D01*
X11712610Y4197570D01*
X11712788Y4401535D01*
X11694829Y4445000D01*
X12878133Y4445000D01*
X12878133Y1015000D01*
X12892964Y936178D01*
X12939548Y863785D01*
X13010627Y815219D01*
X13095000Y798133D01*
X14365000Y798133D01*
X14443822Y812964D01*
X14516215Y859548D01*
X14564781Y930627D01*
X14581867Y1015000D01*
X14581867Y4445000D01*
X17958133Y4445000D01*
X17958133Y1015000D01*
X17972964Y936178D01*
X18019548Y863785D01*
X18090627Y815219D01*
X18175000Y798133D01*
X19445000Y798133D01*
X19523822Y812964D01*
X19596215Y859548D01*
X19644781Y930627D01*
X19661867Y1015000D01*
X19661867Y1525000D01*
X20498133Y1525000D01*
X20498133Y-1905000D01*
X20512964Y-1983822D01*
X20559548Y-2056215D01*
X20630627Y-2104781D01*
X20715000Y-2121867D01*
X21985000Y-2121867D01*
X22063822Y-2107036D01*
X22136215Y-2060452D01*
X22184781Y-1989373D01*
X22201867Y-1905000D01*
X22201867Y1525000D01*
X22187036Y1603822D01*
X22140452Y1676215D01*
X22069373Y1724781D01*
X22048700Y1728967D01*
X22048700Y2794000D01*
X21994449Y3066738D01*
X21839955Y3297955D01*
X21608738Y3452449D01*
X21336000Y3506700D01*
X21063262Y3452449D01*
X20832045Y3297955D01*
X20677551Y3066738D01*
X20623300Y2794000D01*
X20623300Y1718749D01*
X20563785Y1680452D01*
X20515219Y1609373D01*
X20498133Y1525000D01*
X19661867Y1525000D01*
X19661867Y4445000D01*
X23038133Y4445000D01*
X23038133Y1015000D01*
X23052964Y936178D01*
X23099548Y863785D01*
X23170627Y815219D01*
X23255000Y798133D01*
X24525000Y798133D01*
X24603822Y812964D01*
X24676215Y859548D01*
X24724781Y930627D01*
X24741867Y1015000D01*
X24741867Y1525000D01*
X25578133Y1525000D01*
X25578133Y-1905000D01*
X25592964Y-1983822D01*
X25639548Y-2056215D01*
X25710627Y-2104781D01*
X25795000Y-2121867D01*
X27065000Y-2121867D01*
X27143822Y-2107036D01*
X27216215Y-2060452D01*
X27264781Y-1989373D01*
X27281867Y-1905000D01*
X27281867Y1525000D01*
X27267036Y1603822D01*
X27220452Y1676215D01*
X27149373Y1724781D01*
X27107700Y1733220D01*
X27107700Y1882676D01*
X27204392Y1979200D01*
X27282610Y2167570D01*
X27282788Y2371535D01*
X27204899Y2560042D01*
X27060800Y2704392D01*
X26872430Y2782610D01*
X26668465Y2782788D01*
X26479958Y2704899D01*
X26335608Y2560800D01*
X26257390Y2372430D01*
X26257212Y2168465D01*
X26335101Y1979958D01*
X26432300Y1882590D01*
X26432300Y1741867D01*
X25795000Y1741867D01*
X25716178Y1727036D01*
X25643785Y1680452D01*
X25595219Y1609373D01*
X25578133Y1525000D01*
X24741867Y1525000D01*
X24741867Y2165781D01*
X24742610Y2167570D01*
X24742788Y2371535D01*
X24741867Y2373764D01*
X24741867Y4445000D01*
X24727036Y4523822D01*
X24713071Y4545525D01*
X25342300Y4545525D01*
X25342300Y4162691D01*
X25374682Y4084515D01*
X25434515Y4024681D01*
X25512692Y3992300D01*
X26975525Y3992300D01*
X27028700Y4045475D01*
X27028700Y4598700D01*
X27511300Y4598700D01*
X27511300Y4045475D01*
X27564475Y3992300D01*
X29027308Y3992300D01*
X29105485Y4024681D01*
X29165318Y4084515D01*
X29197700Y4162691D01*
X29197700Y4545525D01*
X29144525Y4598700D01*
X27511300Y4598700D01*
X27028700Y4598700D01*
X25395475Y4598700D01*
X25342300Y4545525D01*
X24713071Y4545525D01*
X24680452Y4596215D01*
X24609373Y4644781D01*
X24525000Y4661867D01*
X23255000Y4661867D01*
X23176178Y4647036D01*
X23103785Y4600452D01*
X23055219Y4529373D01*
X23038133Y4445000D01*
X19661867Y4445000D01*
X19647036Y4523822D01*
X19600452Y4596215D01*
X19529373Y4644781D01*
X19445000Y4661867D01*
X18175000Y4661867D01*
X18096178Y4647036D01*
X18023785Y4600452D01*
X17975219Y4529373D01*
X17958133Y4445000D01*
X14581867Y4445000D01*
X14567036Y4523822D01*
X14520452Y4596215D01*
X14449373Y4644781D01*
X14365000Y4661867D01*
X13095000Y4661867D01*
X13016178Y4647036D01*
X12943785Y4600452D01*
X12895219Y4529373D01*
X12878133Y4445000D01*
X11694829Y4445000D01*
X11634899Y4590042D01*
X11490800Y4734392D01*
X11302430Y4812610D01*
X11098465Y4812788D01*
X10909958Y4734899D01*
X10765608Y4590800D01*
X10687390Y4402430D01*
X10687212Y4198465D01*
X9501867Y4198465D01*
X9501867Y4445000D01*
X9487036Y4523822D01*
X9440452Y4596215D01*
X9369373Y4644781D01*
X9285000Y4661867D01*
X8015000Y4661867D01*
X7936178Y4647036D01*
X7863785Y4600452D01*
X7815219Y4529373D01*
X7798133Y4445000D01*
X4421867Y4445000D01*
X4407036Y4523822D01*
X4360452Y4596215D01*
X4289373Y4644781D01*
X4205000Y4661867D01*
X2935000Y4661867D01*
X2856178Y4647036D01*
X2783785Y4600452D01*
X2735219Y4529373D01*
X2718133Y4445000D01*
X2718133Y2374219D01*
X2717390Y2372430D01*
X2717212Y2168465D01*
X-2487300Y2168465D01*
X-2487300Y5475000D01*
X-2121867Y5475000D01*
X-2121867Y4205000D01*
X-2107036Y4126178D01*
X-2060452Y4053785D01*
X-1989373Y4005219D01*
X-1905000Y3988133D01*
X1525000Y3988133D01*
X1603822Y4002964D01*
X1676215Y4049548D01*
X1724781Y4120627D01*
X1741867Y4205000D01*
X1741867Y4887300D01*
X2600000Y4887300D01*
X2872738Y4941551D01*
X3103955Y5096045D01*
X3239207Y5298465D01*
X8287212Y5298465D01*
X8365101Y5109958D01*
X8509200Y4965608D01*
X8697570Y4887390D01*
X8901535Y4887212D01*
X9090042Y4965101D01*
X9234392Y5109200D01*
X9312610Y5297570D01*
X9312785Y5498465D01*
X9687212Y5498465D01*
X9765101Y5309958D01*
X9909200Y5165608D01*
X10097570Y5087390D01*
X10301535Y5087212D01*
X10490042Y5165101D01*
X10634392Y5309200D01*
X10712610Y5497570D01*
X10712610Y5498465D01*
X14487212Y5498465D01*
X14565101Y5309958D01*
X14709200Y5165608D01*
X14897570Y5087390D01*
X15101535Y5087212D01*
X15290042Y5165101D01*
X15323464Y5198465D01*
X16087212Y5198465D01*
X16165101Y5009958D01*
X16309200Y4865608D01*
X16497570Y4787390D01*
X16701535Y4787212D01*
X16890042Y4865101D01*
X17034392Y5009200D01*
X17112610Y5197570D01*
X17112788Y5401535D01*
X17034899Y5590042D01*
X16890800Y5734392D01*
X16702430Y5812610D01*
X16498465Y5812788D01*
X16309958Y5734899D01*
X16165608Y5590800D01*
X16087390Y5402430D01*
X16087212Y5198465D01*
X15323464Y5198465D01*
X15434392Y5309200D01*
X15512610Y5497570D01*
X15512788Y5701535D01*
X15434899Y5890042D01*
X15426491Y5898465D01*
X17487212Y5898465D01*
X17565101Y5709958D01*
X17709200Y5565608D01*
X17897570Y5487390D01*
X18101535Y5487212D01*
X18174375Y5517309D01*
X25342300Y5517309D01*
X25342300Y5134475D01*
X25395475Y5081300D01*
X27028700Y5081300D01*
X27028700Y5634525D01*
X27511300Y5634525D01*
X27511300Y5081300D01*
X29144525Y5081300D01*
X29197700Y5134475D01*
X29197700Y5517309D01*
X29165318Y5595485D01*
X29105485Y5655319D01*
X29027308Y5687700D01*
X27564475Y5687700D01*
X27511300Y5634525D01*
X27028700Y5634525D01*
X26975525Y5687700D01*
X25512692Y5687700D01*
X25434515Y5655319D01*
X25374682Y5595485D01*
X25342300Y5517309D01*
X18174375Y5517309D01*
X18290042Y5565101D01*
X18434392Y5709200D01*
X18512610Y5897570D01*
X18512788Y6101535D01*
X18472738Y6198465D01*
X18687212Y6198465D01*
X18765101Y6009958D01*
X18909200Y5865608D01*
X19097570Y5787390D01*
X19301535Y5787212D01*
X19490042Y5865101D01*
X19634392Y6009200D01*
X19712610Y6197570D01*
X19712788Y6401535D01*
X19634899Y6590042D01*
X19490800Y6734392D01*
X19302430Y6812610D01*
X19098465Y6812788D01*
X18909958Y6734899D01*
X18765608Y6590800D01*
X18687390Y6402430D01*
X18687212Y6198465D01*
X18472738Y6198465D01*
X18434899Y6290042D01*
X18290800Y6434392D01*
X18102430Y6512610D01*
X17898465Y6512788D01*
X17709958Y6434899D01*
X17565608Y6290800D01*
X17487390Y6102430D01*
X17487212Y5898465D01*
X15426491Y5898465D01*
X15290800Y6034392D01*
X15102430Y6112610D01*
X14898465Y6112788D01*
X14709958Y6034899D01*
X14565608Y5890800D01*
X14487390Y5702430D01*
X14487212Y5498465D01*
X10712610Y5498465D01*
X10712788Y5701535D01*
X10634899Y5890042D01*
X10490800Y6034392D01*
X10302430Y6112610D01*
X10098465Y6112788D01*
X9909958Y6034899D01*
X9765608Y5890800D01*
X9687390Y5702430D01*
X9687212Y5498465D01*
X9312785Y5498465D01*
X9312788Y5501535D01*
X9234899Y5690042D01*
X9090800Y5834392D01*
X8902430Y5912610D01*
X8698465Y5912788D01*
X8509958Y5834899D01*
X8365608Y5690800D01*
X8287390Y5502430D01*
X8287212Y5298465D01*
X3239207Y5298465D01*
X3258449Y5327262D01*
X3312700Y5600000D01*
X3258449Y5872738D01*
X3103955Y6103955D01*
X2872738Y6258449D01*
X2600000Y6312700D01*
X570000Y6312700D01*
X297262Y6258449D01*
X173316Y6175631D01*
X66045Y6103955D01*
X-346043Y5691867D01*
X-1905000Y5691867D01*
X-1983822Y5677036D01*
X-2056215Y5630452D01*
X-2104781Y5559373D01*
X-2121867Y5475000D01*
X-2487300Y5475000D01*
X-2487300Y6364896D01*
X13161668Y6364896D01*
X13239557Y6176389D01*
X13383656Y6032039D01*
X13572026Y5953821D01*
X13775991Y5953643D01*
X13964498Y6031532D01*
X14108848Y6175631D01*
X14187066Y6364001D01*
X14187244Y6567966D01*
X14109355Y6756473D01*
X13965256Y6900823D01*
X13776886Y6979041D01*
X13572921Y6979219D01*
X13384414Y6901330D01*
X13240064Y6757231D01*
X13161846Y6568861D01*
X13161668Y6364896D01*
X-2487300Y6364896D01*
X-2487300Y8015000D01*
X798133Y8015000D01*
X798133Y6745000D01*
X812964Y6666178D01*
X859548Y6593785D01*
X930627Y6545219D01*
X1015000Y6528133D01*
X4445000Y6528133D01*
X4523822Y6542964D01*
X4596215Y6589548D01*
X4644781Y6660627D01*
X4661867Y6745000D01*
X4661867Y7648465D01*
X6177212Y7648465D01*
X6255101Y7459958D01*
X6399200Y7315608D01*
X6587570Y7237390D01*
X6791535Y7237212D01*
X6980042Y7315101D01*
X7124392Y7459200D01*
X7182219Y7598465D01*
X12187212Y7598465D01*
X12265101Y7409958D01*
X12409200Y7265608D01*
X12597570Y7187390D01*
X12801535Y7187212D01*
X12990042Y7265101D01*
X13134392Y7409200D01*
X13212610Y7597570D01*
X13212785Y7798465D01*
X16287212Y7798465D01*
X16365101Y7609958D01*
X16509200Y7465608D01*
X16697570Y7387390D01*
X16901535Y7387212D01*
X16928769Y7398465D01*
X21331212Y7398465D01*
X21409101Y7209958D01*
X21553200Y7065608D01*
X21741570Y6987390D01*
X21945535Y6987212D01*
X22134042Y7065101D01*
X22278392Y7209200D01*
X22356610Y7397570D01*
X22356788Y7601535D01*
X22341674Y7638114D01*
X22497570Y7573380D01*
X22701535Y7573202D01*
X22890042Y7651091D01*
X23034392Y7795190D01*
X23112610Y7983560D01*
X23112637Y8015000D01*
X28258133Y8015000D01*
X28258133Y6745000D01*
X28272964Y6666178D01*
X28319548Y6593785D01*
X28390627Y6545219D01*
X28475000Y6528133D01*
X31905000Y6528133D01*
X31983822Y6542964D01*
X32056215Y6589548D01*
X32104781Y6660627D01*
X32121867Y6745000D01*
X32121867Y8015000D01*
X32107036Y8093822D01*
X32060452Y8166215D01*
X31989373Y8214781D01*
X31905000Y8231867D01*
X28475000Y8231867D01*
X28396178Y8217036D01*
X28323785Y8170452D01*
X28275219Y8099373D01*
X28258133Y8015000D01*
X23112637Y8015000D01*
X23112788Y8187525D01*
X23034899Y8376032D01*
X22890800Y8520382D01*
X22702430Y8598600D01*
X22498465Y8598778D01*
X22309958Y8520889D01*
X22165608Y8376790D01*
X22087390Y8188420D01*
X22087212Y7984455D01*
X22102326Y7947876D01*
X21946430Y8012610D01*
X21742465Y8012788D01*
X21553958Y7934899D01*
X21409608Y7790800D01*
X21331390Y7602430D01*
X21331212Y7398465D01*
X16928769Y7398465D01*
X17090042Y7465101D01*
X17234392Y7609200D01*
X17312610Y7797570D01*
X17312788Y8001535D01*
X17234899Y8190042D01*
X17090800Y8334392D01*
X16902430Y8412610D01*
X16698465Y8412788D01*
X16509958Y8334899D01*
X16365608Y8190800D01*
X16287390Y8002430D01*
X16287212Y7798465D01*
X13212785Y7798465D01*
X13212788Y7801535D01*
X13134899Y7990042D01*
X12990800Y8134392D01*
X12802430Y8212610D01*
X12598465Y8212788D01*
X12409958Y8134899D01*
X12265608Y7990800D01*
X12187390Y7802430D01*
X12187212Y7598465D01*
X7182219Y7598465D01*
X7202610Y7647570D01*
X7202788Y7851535D01*
X7124899Y8040042D01*
X6980800Y8184392D01*
X6792430Y8262610D01*
X6588465Y8262788D01*
X6399958Y8184899D01*
X6255608Y8040800D01*
X6177390Y7852430D01*
X6177212Y7648465D01*
X4661867Y7648465D01*
X4661867Y8015000D01*
X4647036Y8093822D01*
X4600452Y8166215D01*
X4529373Y8214781D01*
X4445000Y8231867D01*
X1015000Y8231867D01*
X936178Y8217036D01*
X863785Y8170452D01*
X815219Y8099373D01*
X798133Y8015000D01*
X-2487300Y8015000D01*
X-2487300Y10555000D01*
X-2121867Y10555000D01*
X-2121867Y9285000D01*
X-2107036Y9206178D01*
X-2060452Y9133785D01*
X-1989373Y9085219D01*
X-1905000Y9068133D01*
X1525000Y9068133D01*
X1603822Y9082964D01*
X1676215Y9129548D01*
X1724781Y9200627D01*
X1741867Y9285000D01*
X1741867Y10218465D01*
X3187212Y10218465D01*
X3265101Y10029958D01*
X3409200Y9885608D01*
X3597570Y9807390D01*
X3801535Y9807212D01*
X3990042Y9885101D01*
X4003429Y9898465D01*
X5071258Y9898465D01*
X5149147Y9709958D01*
X5293246Y9565608D01*
X5481616Y9487390D01*
X5670473Y9487225D01*
X5631446Y9393238D01*
X5631268Y9189273D01*
X5704228Y9012696D01*
X5598465Y9012788D01*
X5409958Y8934899D01*
X5265608Y8790800D01*
X5187390Y8602430D01*
X5187212Y8398465D01*
X5265101Y8209958D01*
X5409200Y8065608D01*
X5597570Y7987390D01*
X5801535Y7987212D01*
X5990042Y8065101D01*
X6134392Y8209200D01*
X6212610Y8397570D01*
X6212610Y8398465D01*
X15187212Y8398465D01*
X15265101Y8209958D01*
X15409200Y8065608D01*
X15597570Y7987390D01*
X15801535Y7987212D01*
X15990042Y8065101D01*
X16134392Y8209200D01*
X16212610Y8397570D01*
X16212788Y8601535D01*
X16207865Y8613451D01*
X16302790Y8613368D01*
X16491297Y8691257D01*
X16635647Y8835356D01*
X16713865Y9023726D01*
X16714043Y9227691D01*
X16636154Y9416198D01*
X16492055Y9560548D01*
X16396039Y9600417D01*
X16452986Y9737560D01*
X16453164Y9941525D01*
X16375275Y10130032D01*
X16231176Y10274382D01*
X16042806Y10352600D01*
X15838841Y10352778D01*
X15650334Y10274889D01*
X15505984Y10130790D01*
X15427766Y9942420D01*
X15427588Y9738455D01*
X15505477Y9549948D01*
X15649576Y9405598D01*
X15745592Y9365729D01*
X15688645Y9228586D01*
X15688467Y9024621D01*
X15693390Y9012705D01*
X15598465Y9012788D01*
X15409958Y8934899D01*
X15265608Y8790800D01*
X15187390Y8602430D01*
X15187212Y8398465D01*
X6212610Y8398465D01*
X6212788Y8601535D01*
X6139828Y8778112D01*
X6245591Y8778020D01*
X6434098Y8855909D01*
X6578448Y9000008D01*
X6656666Y9188378D01*
X6656844Y9392343D01*
X6578955Y9580850D01*
X6434856Y9725200D01*
X6246486Y9803418D01*
X6057629Y9803583D01*
X6096656Y9897570D01*
X6096834Y10101535D01*
X6018945Y10290042D01*
X5874846Y10434392D01*
X5686476Y10512610D01*
X5482511Y10512788D01*
X5294004Y10434899D01*
X5149654Y10290800D01*
X5071436Y10102430D01*
X5071258Y9898465D01*
X4003429Y9898465D01*
X4134392Y10029200D01*
X4212610Y10217570D01*
X4212788Y10421535D01*
X4134899Y10610042D01*
X3990800Y10754392D01*
X3802430Y10832610D01*
X3598465Y10832788D01*
X3409958Y10754899D01*
X3265608Y10610800D01*
X3187390Y10422430D01*
X3187212Y10218465D01*
X1741867Y10218465D01*
X1741867Y10555000D01*
X1727036Y10633822D01*
X1680452Y10706215D01*
X1609373Y10754781D01*
X1598589Y10756965D01*
X2154212Y10756965D01*
X2232101Y10568458D01*
X2376200Y10424108D01*
X2564570Y10345890D01*
X2768535Y10345712D01*
X2957042Y10423601D01*
X3101392Y10567700D01*
X3179610Y10756070D01*
X3179769Y10938455D01*
X4964374Y10938455D01*
X5042263Y10749948D01*
X5186362Y10605598D01*
X5374732Y10527380D01*
X5578697Y10527202D01*
X5645973Y10555000D01*
X25338133Y10555000D01*
X25338133Y9285000D01*
X25352964Y9206178D01*
X25399548Y9133785D01*
X25470627Y9085219D01*
X25555000Y9068133D01*
X28985000Y9068133D01*
X29063822Y9082964D01*
X29136215Y9129548D01*
X29184781Y9200627D01*
X29201867Y9285000D01*
X29201867Y10555000D01*
X29187036Y10633822D01*
X29140452Y10706215D01*
X29069373Y10754781D01*
X28985000Y10771867D01*
X25555000Y10771867D01*
X25476178Y10757036D01*
X25403785Y10710452D01*
X25355219Y10639373D01*
X25338133Y10555000D01*
X5645973Y10555000D01*
X5767204Y10605091D01*
X5911554Y10749190D01*
X5989772Y10937560D01*
X5989950Y11141525D01*
X5925105Y11298465D01*
X14887212Y11298465D01*
X14965101Y11109958D01*
X15109200Y10965608D01*
X15297570Y10887390D01*
X15501535Y10887212D01*
X15690042Y10965101D01*
X15834392Y11109200D01*
X15902286Y11272708D01*
X16009200Y11165608D01*
X16197570Y11087390D01*
X16401535Y11087212D01*
X16590042Y11165101D01*
X16734392Y11309200D01*
X16812610Y11497570D01*
X16812788Y11701535D01*
X16734899Y11890042D01*
X16590800Y12034392D01*
X16402430Y12112610D01*
X16198465Y12112788D01*
X16009958Y12034899D01*
X15865608Y11890800D01*
X15797714Y11727292D01*
X15690800Y11834392D01*
X15502430Y11912610D01*
X15298465Y11912788D01*
X15109958Y11834899D01*
X14965608Y11690800D01*
X14887390Y11502430D01*
X14887212Y11298465D01*
X5925105Y11298465D01*
X5912061Y11330032D01*
X5767962Y11474382D01*
X5579592Y11552600D01*
X5375627Y11552778D01*
X5187120Y11474889D01*
X5042770Y11330790D01*
X4964552Y11142420D01*
X4964374Y10938455D01*
X3179769Y10938455D01*
X3179788Y10960035D01*
X3101899Y11148542D01*
X2957800Y11292892D01*
X2769430Y11371110D01*
X2565465Y11371288D01*
X2376958Y11293399D01*
X2232608Y11149300D01*
X2154390Y10960930D01*
X2154212Y10756965D01*
X1598589Y10756965D01*
X1525000Y10771867D01*
X-1905000Y10771867D01*
X-1983822Y10757036D01*
X-2056215Y10710452D01*
X-2104781Y10639373D01*
X-2121867Y10555000D01*
X-2487300Y10555000D01*
X-2487300Y13095000D01*
X798133Y13095000D01*
X798133Y11825000D01*
X812964Y11746178D01*
X859548Y11673785D01*
X930627Y11625219D01*
X1015000Y11608133D01*
X4445000Y11608133D01*
X4523822Y11622964D01*
X4596215Y11669548D01*
X4644781Y11740627D01*
X4648940Y11761168D01*
X5657941Y11761168D01*
X5735830Y11572661D01*
X5879929Y11428311D01*
X6068299Y11350093D01*
X6272264Y11349915D01*
X6460771Y11427804D01*
X6605121Y11571903D01*
X6683339Y11760273D01*
X6683517Y11964238D01*
X6619183Y12119939D01*
X6697570Y12087390D01*
X6901535Y12087212D01*
X7090042Y12165101D01*
X7234392Y12309200D01*
X7312610Y12497570D01*
X7312788Y12701535D01*
X7234899Y12890042D01*
X7090800Y13034392D01*
X6902430Y13112610D01*
X6698465Y13112788D01*
X6509958Y13034899D01*
X6365608Y12890800D01*
X6287390Y12702430D01*
X6287212Y12498465D01*
X6351546Y12342764D01*
X6273159Y12375313D01*
X6069194Y12375491D01*
X5880687Y12297602D01*
X5736337Y12153503D01*
X5658119Y11965133D01*
X5657941Y11761168D01*
X4648940Y11761168D01*
X4661867Y11825000D01*
X4661867Y13095000D01*
X4647036Y13173822D01*
X4600452Y13246215D01*
X4529373Y13294781D01*
X4445000Y13311867D01*
X3434372Y13311867D01*
X3388449Y13542738D01*
X3244299Y13758475D01*
X4073050Y13758475D01*
X4150939Y13569968D01*
X4295038Y13425618D01*
X4483408Y13347400D01*
X4687373Y13347222D01*
X4875880Y13425111D01*
X5020230Y13569210D01*
X5098448Y13757580D01*
X5098626Y13961545D01*
X5020737Y14150052D01*
X4996247Y14174585D01*
X5727202Y14174585D01*
X5805091Y13986078D01*
X5949190Y13841728D01*
X6137560Y13763510D01*
X6341525Y13763332D01*
X6429017Y13799483D01*
X10047222Y13799483D01*
X10125111Y13610976D01*
X10269210Y13466626D01*
X10457580Y13388408D01*
X10661545Y13388230D01*
X10850052Y13466119D01*
X10958994Y13574871D01*
X10887390Y13402430D01*
X10887212Y13198465D01*
X10965101Y13009958D01*
X11109200Y12865608D01*
X11297570Y12787390D01*
X11501535Y12787212D01*
X11690042Y12865101D01*
X11834392Y13009200D01*
X11880204Y13119529D01*
X17421057Y13119529D01*
X17498946Y12931022D01*
X17643045Y12786672D01*
X17831415Y12708454D01*
X18035380Y12708276D01*
X18223887Y12786165D01*
X18368237Y12930264D01*
X18446455Y13118634D01*
X18446633Y13322599D01*
X18368744Y13511106D01*
X18224645Y13655456D01*
X18121068Y13698465D01*
X24287212Y13698465D01*
X24365101Y13509958D01*
X24509200Y13365608D01*
X24697570Y13287390D01*
X24901535Y13287212D01*
X25090042Y13365101D01*
X25234392Y13509200D01*
X25312610Y13697570D01*
X25312788Y13901535D01*
X25234899Y14090042D01*
X25090800Y14234392D01*
X24902430Y14312610D01*
X24698465Y14312788D01*
X24509958Y14234899D01*
X24365608Y14090800D01*
X24287390Y13902430D01*
X24287212Y13698465D01*
X18121068Y13698465D01*
X18036275Y13733674D01*
X17832310Y13733852D01*
X17643803Y13655963D01*
X17499453Y13511864D01*
X17421235Y13323494D01*
X17421057Y13119529D01*
X11880204Y13119529D01*
X11912610Y13197570D01*
X11912788Y13401535D01*
X11834899Y13590042D01*
X11690800Y13734392D01*
X11502430Y13812610D01*
X11298465Y13812788D01*
X11109958Y13734899D01*
X11001016Y13626147D01*
X11072620Y13798588D01*
X11072798Y14002553D01*
X10994909Y14191060D01*
X10931070Y14255011D01*
X17277181Y14255011D01*
X17355070Y14066504D01*
X17499169Y13922154D01*
X17687539Y13843936D01*
X17891504Y13843758D01*
X18080011Y13921647D01*
X18224361Y14065746D01*
X18302579Y14254116D01*
X18302757Y14458081D01*
X18224868Y14646588D01*
X18080769Y14790938D01*
X17892399Y14869156D01*
X17688434Y14869334D01*
X17499927Y14791445D01*
X17355577Y14647346D01*
X17277359Y14458976D01*
X17277181Y14255011D01*
X10931070Y14255011D01*
X10850810Y14335410D01*
X10662440Y14413628D01*
X10458475Y14413806D01*
X10269968Y14335917D01*
X10125618Y14191818D01*
X10047400Y14003448D01*
X10047222Y13799483D01*
X6429017Y13799483D01*
X6530032Y13841221D01*
X6674382Y13985320D01*
X6752600Y14173690D01*
X6752778Y14377655D01*
X6744180Y14398465D01*
X7487212Y14398465D01*
X7565101Y14209958D01*
X7709200Y14065608D01*
X7897570Y13987390D01*
X8101535Y13987212D01*
X8290042Y14065101D01*
X8434392Y14209200D01*
X8512610Y14397570D01*
X8512788Y14601535D01*
X8434899Y14790042D01*
X8290800Y14934392D01*
X8102430Y15012610D01*
X7898465Y15012788D01*
X7709958Y14934899D01*
X7565608Y14790800D01*
X7487390Y14602430D01*
X7487212Y14398465D01*
X6744180Y14398465D01*
X6674889Y14566162D01*
X6530790Y14710512D01*
X6342420Y14788730D01*
X6138455Y14788908D01*
X5949948Y14711019D01*
X5805598Y14566920D01*
X5727380Y14378550D01*
X5727202Y14174585D01*
X4996247Y14174585D01*
X4876638Y14294402D01*
X4688268Y14372620D01*
X4484303Y14372798D01*
X4295796Y14294909D01*
X4151446Y14150810D01*
X4073228Y13962440D01*
X4073050Y13758475D01*
X3244299Y13758475D01*
X3233955Y13773955D01*
X2773955Y14233955D01*
X2542739Y14388449D01*
X2270000Y14442700D01*
X1997261Y14388449D01*
X1766045Y14233955D01*
X1611551Y14002739D01*
X1557300Y13730000D01*
X1611551Y13457261D01*
X1708700Y13311867D01*
X1015000Y13311867D01*
X936178Y13297036D01*
X863785Y13250452D01*
X815219Y13179373D01*
X798133Y13095000D01*
X-2487300Y13095000D01*
X-2487300Y15635000D01*
X-2121867Y15635000D01*
X-2121867Y14365000D01*
X-2107036Y14286178D01*
X-2060452Y14213785D01*
X-1989373Y14165219D01*
X-1905000Y14148133D01*
X1525000Y14148133D01*
X1603822Y14162964D01*
X1676215Y14209548D01*
X1724781Y14280627D01*
X1741867Y14365000D01*
X1741867Y15098465D01*
X19887212Y15098465D01*
X19965101Y14909958D01*
X20109200Y14765608D01*
X20297570Y14687390D01*
X20501535Y14687212D01*
X20690042Y14765101D01*
X20834392Y14909200D01*
X20912610Y15097570D01*
X20912643Y15134976D01*
X20945161Y15102401D01*
X21133531Y15024183D01*
X21337496Y15024005D01*
X21526003Y15101894D01*
X21670353Y15245993D01*
X21748571Y15434363D01*
X21748746Y15635000D01*
X25338133Y15635000D01*
X25338133Y14365000D01*
X25352964Y14286178D01*
X25399548Y14213785D01*
X25470627Y14165219D01*
X25555000Y14148133D01*
X27423163Y14148133D01*
X27295608Y14020800D01*
X27217390Y13832430D01*
X27217212Y13628465D01*
X27295101Y13439958D01*
X27439200Y13295608D01*
X27627570Y13217390D01*
X27765150Y13217270D01*
X28258133Y12724287D01*
X28258133Y11825000D01*
X28272964Y11746178D01*
X28319548Y11673785D01*
X28390627Y11625219D01*
X28475000Y11608133D01*
X31905000Y11608133D01*
X31983822Y11622964D01*
X32056215Y11669548D01*
X32104781Y11740627D01*
X32121867Y11825000D01*
X32121867Y13095000D01*
X32107036Y13173822D01*
X32060452Y13246215D01*
X31989373Y13294781D01*
X31905000Y13311867D01*
X28625713Y13311867D01*
X28242669Y13694911D01*
X28242788Y13831535D01*
X28164899Y14020042D01*
X28037031Y14148133D01*
X28985000Y14148133D01*
X29063822Y14162964D01*
X29136215Y14209548D01*
X29184781Y14280627D01*
X29201867Y14365000D01*
X29201867Y15635000D01*
X29187036Y15713822D01*
X29140452Y15786215D01*
X29069373Y15834781D01*
X28985000Y15851867D01*
X28036837Y15851867D01*
X28164392Y15979200D01*
X28242610Y16167570D01*
X28242730Y16305150D01*
X28625713Y16688133D01*
X31905000Y16688133D01*
X31983822Y16702964D01*
X32056215Y16749548D01*
X32104781Y16820627D01*
X32121867Y16905000D01*
X32121867Y18175000D01*
X32107036Y18253822D01*
X32060452Y18326215D01*
X31989373Y18374781D01*
X31905000Y18391867D01*
X28475000Y18391867D01*
X28396178Y18377036D01*
X28323785Y18330452D01*
X28275219Y18259373D01*
X28258133Y18175000D01*
X28258133Y17275713D01*
X27765089Y16782669D01*
X27628465Y16782788D01*
X27439958Y16704899D01*
X27295608Y16560800D01*
X27217390Y16372430D01*
X27217212Y16168465D01*
X27295101Y15979958D01*
X27422969Y15851867D01*
X25555000Y15851867D01*
X25476178Y15837036D01*
X25403785Y15790452D01*
X25355219Y15719373D01*
X25338133Y15635000D01*
X21748746Y15635000D01*
X21748749Y15638328D01*
X21670860Y15826835D01*
X21526761Y15971185D01*
X21338391Y16049403D01*
X21134426Y16049581D01*
X20945919Y15971692D01*
X20801569Y15827593D01*
X20723351Y15639223D01*
X20723318Y15601817D01*
X20690800Y15634392D01*
X20502430Y15712610D01*
X20298465Y15712788D01*
X20109958Y15634899D01*
X19965608Y15490800D01*
X19887390Y15302430D01*
X19887212Y15098465D01*
X1741867Y15098465D01*
X1741867Y15635000D01*
X1727036Y15713822D01*
X1680452Y15786215D01*
X1609373Y15834781D01*
X1525000Y15851867D01*
X-1905000Y15851867D01*
X-1983822Y15837036D01*
X-2056215Y15790452D01*
X-2104781Y15719373D01*
X-2121867Y15635000D01*
X-2487300Y15635000D01*
X-2487300Y18175000D01*
X798133Y18175000D01*
X798133Y16905000D01*
X812964Y16826178D01*
X859548Y16753785D01*
X930627Y16705219D01*
X1015000Y16688133D01*
X1557300Y16688133D01*
X1557300Y16270000D01*
X1611551Y15997262D01*
X1766045Y15766045D01*
X1997262Y15611551D01*
X2270000Y15557300D01*
X2542738Y15611551D01*
X2773955Y15766045D01*
X2928449Y15997262D01*
X2953021Y16120795D01*
X6359210Y16120795D01*
X6437099Y15932288D01*
X6581198Y15787938D01*
X6769568Y15709720D01*
X6973533Y15709542D01*
X7162040Y15787431D01*
X7306390Y15931530D01*
X7384608Y16119900D01*
X7384786Y16323865D01*
X7331955Y16451728D01*
X9032449Y16451728D01*
X9110338Y16263221D01*
X9254437Y16118871D01*
X9442807Y16040653D01*
X9646772Y16040475D01*
X9835279Y16118364D01*
X9979629Y16262463D01*
X10057847Y16450833D01*
X10058025Y16654798D01*
X9980136Y16843305D01*
X9836037Y16987655D01*
X9647667Y17065873D01*
X9443702Y17066051D01*
X9255195Y16988162D01*
X9110845Y16844063D01*
X9032627Y16655693D01*
X9032449Y16451728D01*
X7331955Y16451728D01*
X7306897Y16512372D01*
X7162798Y16656722D01*
X6974428Y16734940D01*
X6770463Y16735118D01*
X6581956Y16657229D01*
X6437606Y16513130D01*
X6359388Y16324760D01*
X6359210Y16120795D01*
X2953021Y16120795D01*
X2982700Y16270000D01*
X2982700Y16688133D01*
X4445000Y16688133D01*
X4523822Y16702964D01*
X4596215Y16749548D01*
X4644781Y16820627D01*
X4661867Y16905000D01*
X4661867Y18175000D01*
X4647036Y18253822D01*
X4600452Y18326215D01*
X4529373Y18374781D01*
X4445000Y18391867D01*
X1015000Y18391867D01*
X936178Y18377036D01*
X863785Y18330452D01*
X815219Y18259373D01*
X798133Y18175000D01*
X-2487300Y18175000D01*
X-2487300Y20715000D01*
X-2121867Y20715000D01*
X-2121867Y19445000D01*
X-2107036Y19366178D01*
X-2060452Y19293785D01*
X-1989373Y19245219D01*
X-1905000Y19228133D01*
X1525000Y19228133D01*
X1603822Y19242964D01*
X1676215Y19289548D01*
X1724781Y19360627D01*
X1741867Y19445000D01*
X1741867Y19469409D01*
X2217862Y18993414D01*
X2217712Y18821465D01*
X2295601Y18632958D01*
X2439700Y18488608D01*
X2628070Y18410390D01*
X2832035Y18410212D01*
X3020542Y18488101D01*
X3030924Y18498465D01*
X6987212Y18498465D01*
X7065101Y18309958D01*
X7209200Y18165608D01*
X7397570Y18087390D01*
X7601535Y18087212D01*
X7790042Y18165101D01*
X7811443Y18186465D01*
X22706722Y18186465D01*
X22784611Y17997958D01*
X22928710Y17853608D01*
X23117080Y17775390D01*
X23321045Y17775212D01*
X23509552Y17853101D01*
X23653902Y17997200D01*
X23732120Y18185570D01*
X23732120Y18186465D01*
X24125212Y18186465D01*
X24203101Y17997958D01*
X24347200Y17853608D01*
X24535570Y17775390D01*
X24739535Y17775212D01*
X24928042Y17853101D01*
X25072392Y17997200D01*
X25150610Y18185570D01*
X25150788Y18389535D01*
X25072899Y18578042D01*
X24928800Y18722392D01*
X24740430Y18800610D01*
X24536465Y18800788D01*
X24347958Y18722899D01*
X24203608Y18578800D01*
X24125390Y18390430D01*
X24125212Y18186465D01*
X23732120Y18186465D01*
X23732298Y18389535D01*
X23654409Y18578042D01*
X23510310Y18722392D01*
X23321940Y18800610D01*
X23117975Y18800788D01*
X22929468Y18722899D01*
X22785118Y18578800D01*
X22706900Y18390430D01*
X22706722Y18186465D01*
X7811443Y18186465D01*
X7934392Y18309200D01*
X8012610Y18497570D01*
X8012785Y18698465D01*
X8387212Y18698465D01*
X8465101Y18509958D01*
X8609200Y18365608D01*
X8797570Y18287390D01*
X9001535Y18287212D01*
X9190042Y18365101D01*
X9334392Y18509200D01*
X9412610Y18697570D01*
X9412788Y18901535D01*
X9334899Y19090042D01*
X9190800Y19234392D01*
X9002430Y19312610D01*
X8798465Y19312788D01*
X8609958Y19234899D01*
X8465608Y19090800D01*
X8387390Y18902430D01*
X8387212Y18698465D01*
X8012785Y18698465D01*
X8012788Y18701535D01*
X7934899Y18890042D01*
X7790800Y19034392D01*
X7602430Y19112610D01*
X7398465Y19112788D01*
X7209958Y19034899D01*
X7065608Y18890800D01*
X6987390Y18702430D01*
X6987212Y18498465D01*
X3030924Y18498465D01*
X3164892Y18632200D01*
X3243110Y18820570D01*
X3243288Y19024535D01*
X3165399Y19213042D01*
X3021300Y19357392D01*
X2832930Y19435610D01*
X2659963Y19435761D01*
X1897259Y20198465D01*
X14487212Y20198465D01*
X14565101Y20009958D01*
X14709200Y19865608D01*
X14897570Y19787390D01*
X15101535Y19787212D01*
X15290042Y19865101D01*
X15434392Y20009200D01*
X15512610Y20197570D01*
X15512788Y20401535D01*
X15434899Y20590042D01*
X15310159Y20715000D01*
X25338133Y20715000D01*
X25338133Y19445000D01*
X25352964Y19366178D01*
X25399548Y19293785D01*
X25470627Y19245219D01*
X25555000Y19228133D01*
X28985000Y19228133D01*
X29063822Y19242964D01*
X29136215Y19289548D01*
X29184781Y19360627D01*
X29201867Y19445000D01*
X29201867Y20715000D01*
X29187036Y20793822D01*
X29140452Y20866215D01*
X29069373Y20914781D01*
X28985000Y20931867D01*
X25555000Y20931867D01*
X25476178Y20917036D01*
X25403785Y20870452D01*
X25355219Y20799373D01*
X25338133Y20715000D01*
X15310159Y20715000D01*
X15290800Y20734392D01*
X15102430Y20812610D01*
X14898465Y20812788D01*
X14709958Y20734899D01*
X14565608Y20590800D01*
X14487390Y20402430D01*
X14487212Y20198465D01*
X1897259Y20198465D01*
X1794612Y20301112D01*
X1741867Y20336355D01*
X1741867Y20715000D01*
X1727036Y20793822D01*
X1680452Y20866215D01*
X1609373Y20914781D01*
X1525000Y20931867D01*
X-1905000Y20931867D01*
X-1983822Y20917036D01*
X-2056215Y20870452D01*
X-2104781Y20799373D01*
X-2121867Y20715000D01*
X-2487300Y20715000D01*
X-2487300Y23255000D01*
X798133Y23255000D01*
X798133Y21985000D01*
X812964Y21906178D01*
X859548Y21833785D01*
X930627Y21785219D01*
X1015000Y21768133D01*
X3065104Y21768133D01*
X2965608Y21668810D01*
X2887390Y21480440D01*
X2887212Y21276475D01*
X2965101Y21087968D01*
X3109200Y20943618D01*
X3297570Y20865400D01*
X3501535Y20865222D01*
X3690042Y20943111D01*
X3834392Y21087210D01*
X3889989Y21221104D01*
X4998220Y21221104D01*
X5076109Y21032597D01*
X5220208Y20888247D01*
X5408578Y20810029D01*
X5612543Y20809851D01*
X5801050Y20887740D01*
X5945400Y21031839D01*
X6023618Y21220209D01*
X6023796Y21424174D01*
X5997232Y21488465D01*
X16378212Y21488465D01*
X16456101Y21299958D01*
X16600200Y21155608D01*
X16788570Y21077390D01*
X16992535Y21077212D01*
X17181042Y21155101D01*
X17325392Y21299200D01*
X17403610Y21487570D01*
X17403788Y21691535D01*
X17325899Y21880042D01*
X17181800Y22024392D01*
X16993430Y22102610D01*
X16789465Y22102788D01*
X16600958Y22024899D01*
X16456608Y21880800D01*
X16378390Y21692430D01*
X16378212Y21488465D01*
X5997232Y21488465D01*
X5945907Y21612681D01*
X5801808Y21757031D01*
X5613438Y21835249D01*
X5409473Y21835427D01*
X5220966Y21757538D01*
X5076616Y21613439D01*
X4998398Y21425069D01*
X4998220Y21221104D01*
X3889989Y21221104D01*
X3912610Y21275580D01*
X3912788Y21479545D01*
X3834899Y21668052D01*
X3734992Y21768133D01*
X4445000Y21768133D01*
X4523822Y21782964D01*
X4596215Y21829548D01*
X4644781Y21900627D01*
X4661867Y21985000D01*
X4661867Y22698465D01*
X9687212Y22698465D01*
X9765101Y22509958D01*
X9909200Y22365608D01*
X10097570Y22287390D01*
X10301535Y22287212D01*
X10490042Y22365101D01*
X10634392Y22509200D01*
X10712610Y22697570D01*
X10712663Y22758465D01*
X16378212Y22758465D01*
X16456101Y22569958D01*
X16600200Y22425608D01*
X16788570Y22347390D01*
X16992535Y22347212D01*
X17181042Y22425101D01*
X17325392Y22569200D01*
X17403610Y22757570D01*
X17403788Y22961535D01*
X17325899Y23150042D01*
X17181800Y23294392D01*
X16993430Y23372610D01*
X16789465Y23372788D01*
X16600958Y23294899D01*
X16456608Y23150800D01*
X16378390Y22962430D01*
X16378212Y22758465D01*
X10712663Y22758465D01*
X10712788Y22901535D01*
X10634899Y23090042D01*
X10490800Y23234392D01*
X10302430Y23312610D01*
X10098465Y23312788D01*
X9909958Y23234899D01*
X9765608Y23090800D01*
X9687390Y22902430D01*
X9687212Y22698465D01*
X4661867Y22698465D01*
X4661867Y23255000D01*
X4647036Y23333822D01*
X4600452Y23406215D01*
X4529373Y23454781D01*
X4445000Y23471867D01*
X1015000Y23471867D01*
X936178Y23457036D01*
X863785Y23410452D01*
X815219Y23339373D01*
X798133Y23255000D01*
X-2487300Y23255000D01*
X-2487300Y23998465D01*
X9787212Y23998465D01*
X9865101Y23809958D01*
X10009200Y23665608D01*
X10197570Y23587390D01*
X10401535Y23587212D01*
X10590042Y23665101D01*
X10734392Y23809200D01*
X10812610Y23997570D01*
X10812788Y24201535D01*
X10734899Y24390042D01*
X10590800Y24534392D01*
X10402430Y24612610D01*
X10198465Y24612788D01*
X10009958Y24534899D01*
X9865608Y24390800D01*
X9787390Y24202430D01*
X9787212Y23998465D01*
X-2487300Y23998465D01*
X-2487300Y25795000D01*
X-2121867Y25795000D01*
X-2121867Y24525000D01*
X-2107036Y24446178D01*
X-2060452Y24373785D01*
X-1989373Y24325219D01*
X-1905000Y24308133D01*
X1525000Y24308133D01*
X1603822Y24322964D01*
X1676215Y24369548D01*
X1724781Y24440627D01*
X1741867Y24525000D01*
X1741867Y24858726D01*
X2268805Y24858726D01*
X2390285Y24737034D01*
X2578655Y24658816D01*
X2782620Y24658638D01*
X2971127Y24736527D01*
X3115477Y24880626D01*
X3193695Y25068996D01*
X3193873Y25272961D01*
X3166945Y25338133D01*
X4205000Y25338133D01*
X4283822Y25352964D01*
X4356215Y25399548D01*
X4404781Y25470627D01*
X4421867Y25555000D01*
X4421867Y27730000D01*
X5057300Y27730000D01*
X5111551Y27457261D01*
X5266045Y27226045D01*
X5497261Y27071551D01*
X5770000Y27017300D01*
X6042739Y27071551D01*
X6273955Y27226045D01*
X6613955Y27566045D01*
X6768449Y27797261D01*
X6822700Y28070000D01*
X6822700Y28272753D01*
X6823822Y28272964D01*
X6896215Y28319548D01*
X6944781Y28390627D01*
X6961867Y28475000D01*
X6961867Y28985000D01*
X7798133Y28985000D01*
X7798133Y25555000D01*
X7812964Y25476178D01*
X7859548Y25403785D01*
X7930627Y25355219D01*
X8015000Y25338133D01*
X9285000Y25338133D01*
X9363822Y25352964D01*
X9436215Y25399548D01*
X9484781Y25470627D01*
X9501867Y25555000D01*
X9501867Y28985000D01*
X9487036Y29063822D01*
X9440452Y29136215D01*
X9369373Y29184781D01*
X9285000Y29201867D01*
X8015000Y29201867D01*
X7936178Y29187036D01*
X7863785Y29140452D01*
X7815219Y29069373D01*
X7798133Y28985000D01*
X6961867Y28985000D01*
X6961867Y31905000D01*
X10338133Y31905000D01*
X10338133Y28475000D01*
X10352964Y28396178D01*
X10399548Y28323785D01*
X10470627Y28275219D01*
X10555000Y28258133D01*
X11825000Y28258133D01*
X11903822Y28272964D01*
X11976215Y28319548D01*
X12024781Y28390627D01*
X12041867Y28475000D01*
X12041867Y28985000D01*
X12878133Y28985000D01*
X12878133Y25555000D01*
X12892964Y25476178D01*
X12939548Y25403785D01*
X13010627Y25355219D01*
X13095000Y25338133D01*
X14365000Y25338133D01*
X14443822Y25352964D01*
X14516215Y25399548D01*
X14564781Y25470627D01*
X14581867Y25555000D01*
X14581867Y28985000D01*
X14567036Y29063822D01*
X14520452Y29136215D01*
X14449373Y29184781D01*
X14365000Y29201867D01*
X13095000Y29201867D01*
X13016178Y29187036D01*
X12943785Y29140452D01*
X12895219Y29069373D01*
X12878133Y28985000D01*
X12041867Y28985000D01*
X12041867Y31905000D01*
X15418133Y31905000D01*
X15418133Y28475000D01*
X15432964Y28396178D01*
X15479548Y28323785D01*
X15550627Y28275219D01*
X15635000Y28258133D01*
X16905000Y28258133D01*
X16983822Y28272964D01*
X17056215Y28319548D01*
X17104781Y28390627D01*
X17121867Y28475000D01*
X17121867Y28985000D01*
X17958133Y28985000D01*
X17958133Y25555000D01*
X17972964Y25476178D01*
X18019548Y25403785D01*
X18090627Y25355219D01*
X18175000Y25338133D01*
X19445000Y25338133D01*
X19523822Y25352964D01*
X19596215Y25399548D01*
X19644781Y25470627D01*
X19661867Y25555000D01*
X19661867Y28985000D01*
X19647036Y29063822D01*
X19600452Y29136215D01*
X19529373Y29184781D01*
X19445000Y29201867D01*
X18175000Y29201867D01*
X18096178Y29187036D01*
X18023785Y29140452D01*
X17975219Y29069373D01*
X17958133Y28985000D01*
X17121867Y28985000D01*
X17121867Y31905000D01*
X20498133Y31905000D01*
X20498133Y28475000D01*
X20512964Y28396178D01*
X20559548Y28323785D01*
X20630627Y28275219D01*
X20715000Y28258133D01*
X21985000Y28258133D01*
X22063822Y28272964D01*
X22136215Y28319548D01*
X22184781Y28390627D01*
X22201867Y28475000D01*
X22201867Y28985000D01*
X23038133Y28985000D01*
X23038133Y25555000D01*
X23052964Y25476178D01*
X23099548Y25403785D01*
X23170627Y25355219D01*
X23255000Y25338133D01*
X24525000Y25338133D01*
X24603822Y25352964D01*
X24676215Y25399548D01*
X24724781Y25470627D01*
X24741867Y25555000D01*
X24741867Y25795000D01*
X25338133Y25795000D01*
X25338133Y24525000D01*
X25352964Y24446178D01*
X25399548Y24373785D01*
X25470627Y24325219D01*
X25555000Y24308133D01*
X26557300Y24308133D01*
X26557300Y23896309D01*
X26541551Y23872739D01*
X26487300Y23600000D01*
X26541551Y23327261D01*
X26696045Y23096045D01*
X26927261Y22941551D01*
X27200000Y22887300D01*
X27472739Y22941551D01*
X27703955Y23096045D01*
X27773955Y23166045D01*
X27833392Y23255000D01*
X28258133Y23255000D01*
X28258133Y21985000D01*
X28272964Y21906178D01*
X28319548Y21833785D01*
X28390627Y21785219D01*
X28475000Y21768133D01*
X31905000Y21768133D01*
X31983822Y21782964D01*
X32056215Y21829548D01*
X32104781Y21900627D01*
X32121867Y21985000D01*
X32121867Y23255000D01*
X32107036Y23333822D01*
X32060452Y23406215D01*
X31989373Y23454781D01*
X31905000Y23471867D01*
X28475000Y23471867D01*
X28396178Y23457036D01*
X28323785Y23410452D01*
X28275219Y23339373D01*
X28258133Y23255000D01*
X27833392Y23255000D01*
X27928449Y23397261D01*
X27982700Y23670000D01*
X27982700Y24308133D01*
X28985000Y24308133D01*
X29063822Y24322964D01*
X29136215Y24369548D01*
X29184781Y24440627D01*
X29201867Y24525000D01*
X29201867Y25793957D01*
X29703955Y26296045D01*
X29858448Y26527261D01*
X29912700Y26800000D01*
X29858448Y27072739D01*
X29703955Y27303955D01*
X29472739Y27458448D01*
X29200000Y27512700D01*
X28927261Y27458448D01*
X28696045Y27303955D01*
X27403957Y26011867D01*
X25555000Y26011867D01*
X25476178Y25997036D01*
X25403785Y25950452D01*
X25355219Y25879373D01*
X25338133Y25795000D01*
X24741867Y25795000D01*
X24741867Y27625781D01*
X24742610Y27627570D01*
X24742788Y27831535D01*
X24741867Y27833764D01*
X24741867Y28985000D01*
X24727036Y29063822D01*
X24680452Y29136215D01*
X24609373Y29184781D01*
X24525000Y29201867D01*
X23255000Y29201867D01*
X23176178Y29187036D01*
X23103785Y29140452D01*
X23055219Y29069373D01*
X23038133Y28985000D01*
X22201867Y28985000D01*
X22201867Y31905000D01*
X25578133Y31905000D01*
X25578133Y28475000D01*
X25592964Y28396178D01*
X25639548Y28323785D01*
X25710627Y28275219D01*
X25795000Y28258133D01*
X26057300Y28258133D01*
X26057300Y27730000D01*
X26111551Y27457262D01*
X26266045Y27226045D01*
X26497262Y27071551D01*
X26770000Y27017300D01*
X27042738Y27071551D01*
X27273955Y27226045D01*
X27428449Y27457262D01*
X27482700Y27730000D01*
X27482700Y29850000D01*
X27428449Y30122738D01*
X27428449Y30122739D01*
X27281867Y30342114D01*
X27281867Y31905000D01*
X27267036Y31983822D01*
X27220452Y32056215D01*
X27149373Y32104781D01*
X27065000Y32121867D01*
X25795000Y32121867D01*
X25716178Y32107036D01*
X25643785Y32060452D01*
X25595219Y31989373D01*
X25578133Y31905000D01*
X22201867Y31905000D01*
X22187036Y31983822D01*
X22140452Y32056215D01*
X22069373Y32104781D01*
X21985000Y32121867D01*
X20715000Y32121867D01*
X20636178Y32107036D01*
X20563785Y32060452D01*
X20515219Y31989373D01*
X20498133Y31905000D01*
X17121867Y31905000D01*
X17107036Y31983822D01*
X17060452Y32056215D01*
X16989373Y32104781D01*
X16905000Y32121867D01*
X15635000Y32121867D01*
X15556178Y32107036D01*
X15483785Y32060452D01*
X15435219Y31989373D01*
X15418133Y31905000D01*
X12041867Y31905000D01*
X12027036Y31983822D01*
X11980452Y32056215D01*
X11909373Y32104781D01*
X11825000Y32121867D01*
X10555000Y32121867D01*
X10476178Y32107036D01*
X10403785Y32060452D01*
X10355219Y31989373D01*
X10338133Y31905000D01*
X6961867Y31905000D01*
X6947036Y31983822D01*
X6900452Y32056215D01*
X6829373Y32104781D01*
X6745000Y32121867D01*
X5475000Y32121867D01*
X5396178Y32107036D01*
X5323785Y32060452D01*
X5275219Y31989373D01*
X5258133Y31905000D01*
X5258133Y28475000D01*
X5272964Y28396178D01*
X5319548Y28323785D01*
X5341129Y28309039D01*
X5266045Y28233955D01*
X5111551Y28002739D01*
X5057300Y27730000D01*
X4421867Y27730000D01*
X4421867Y28985000D01*
X4407036Y29063822D01*
X4360452Y29136215D01*
X4289373Y29184781D01*
X4205000Y29201867D01*
X2935000Y29201867D01*
X2856178Y29187036D01*
X2783785Y29140452D01*
X2735219Y29069373D01*
X2718133Y28985000D01*
X2718133Y27834219D01*
X2717390Y27832430D01*
X2717212Y27628465D01*
X2718133Y27626236D01*
X2718133Y25684093D01*
X2579550Y25684214D01*
X2391043Y25606325D01*
X2268631Y25484126D01*
X1741867Y25484126D01*
X1741867Y25795000D01*
X1727036Y25873822D01*
X1680452Y25946215D01*
X1609373Y25994781D01*
X1525000Y26011867D01*
X-1905000Y26011867D01*
X-1983822Y25997036D01*
X-2056215Y25950452D01*
X-2104781Y25879373D01*
X-2121867Y25795000D01*
X-2487300Y25795000D01*
X-2487300Y32487300D01*
X32487300Y32487300D01*
X32487300Y-2487300D01*
X32487300Y-2487300D01*
G37*
X32487300Y-2487300D02*
X-2487300Y-2487300D01*
X-2487300Y2168465D01*
X2717212Y2168465D01*
X2718133Y2166236D01*
X2718133Y1015000D01*
X2732964Y936178D01*
X2779548Y863785D01*
X2850627Y815219D01*
X2935000Y798133D01*
X4205000Y798133D01*
X4283822Y812964D01*
X4356215Y859548D01*
X4404781Y930627D01*
X4421867Y1015000D01*
X4421867Y2270000D01*
X5057300Y2270000D01*
X5057300Y150000D01*
X5111551Y-122739D01*
X5258133Y-342114D01*
X5258133Y-1905000D01*
X5272964Y-1983822D01*
X5319548Y-2056215D01*
X5390627Y-2104781D01*
X5475000Y-2121867D01*
X6745000Y-2121867D01*
X6823822Y-2107036D01*
X6896215Y-2060452D01*
X6944781Y-1989373D01*
X6961867Y-1905000D01*
X6961867Y1525000D01*
X6947036Y1603822D01*
X6900452Y1676215D01*
X6829373Y1724781D01*
X6745000Y1741867D01*
X6482700Y1741867D01*
X6482700Y2270000D01*
X6428449Y2542738D01*
X6273955Y2773955D01*
X6042738Y2928449D01*
X5770000Y2982700D01*
X5497262Y2928449D01*
X5266045Y2773955D01*
X5111551Y2542738D01*
X5057300Y2270000D01*
X4421867Y2270000D01*
X4421867Y4445000D01*
X7798133Y4445000D01*
X7798133Y1015000D01*
X7812964Y936178D01*
X7859548Y863785D01*
X7930627Y815219D01*
X8015000Y798133D01*
X9285000Y798133D01*
X9363822Y812964D01*
X9436215Y859548D01*
X9484781Y930627D01*
X9501867Y1015000D01*
X9501867Y1525000D01*
X10338133Y1525000D01*
X10338133Y-1905000D01*
X10352964Y-1983822D01*
X10399548Y-2056215D01*
X10470627Y-2104781D01*
X10555000Y-2121867D01*
X11825000Y-2121867D01*
X11903822Y-2107036D01*
X11976215Y-2060452D01*
X12024781Y-1989373D01*
X12041867Y-1905000D01*
X12041867Y-346043D01*
X12441955Y54045D01*
X12596449Y285261D01*
X12650700Y558000D01*
X12650700Y762000D01*
X14781300Y762000D01*
X14781300Y586000D01*
X14835551Y313261D01*
X14990045Y82045D01*
X15418133Y-346043D01*
X15418133Y-1905000D01*
X15432964Y-1983822D01*
X15479548Y-2056215D01*
X15550627Y-2104781D01*
X15635000Y-2121867D01*
X16905000Y-2121867D01*
X16983822Y-2107036D01*
X17056215Y-2060452D01*
X17104781Y-1989373D01*
X17121867Y-1905000D01*
X17121867Y1525000D01*
X17107036Y1603822D01*
X17060452Y1676215D01*
X16989373Y1724781D01*
X16905000Y1741867D01*
X15635000Y1741867D01*
X15556178Y1727036D01*
X15483785Y1680452D01*
X15435219Y1609373D01*
X15418133Y1525000D01*
X15418133Y1459609D01*
X15221262Y1420449D01*
X14990045Y1265955D01*
X14835551Y1034738D01*
X14781300Y762000D01*
X12650700Y762000D01*
X12650700Y2540000D01*
X12596449Y2812738D01*
X12441955Y3043955D01*
X12271879Y3157596D01*
X12290042Y3165101D01*
X12434392Y3309200D01*
X12512610Y3497570D01*
X12512788Y3701535D01*
X12434899Y3890042D01*
X12290800Y4034392D01*
X12102430Y4112610D01*
X11898465Y4112788D01*
X11709958Y4034899D01*
X11565608Y3890800D01*
X11487390Y3702430D01*
X11487212Y3498465D01*
X11565101Y3309958D01*
X11674568Y3200300D01*
X11665262Y3198449D01*
X11434045Y3043955D01*
X11279551Y2812738D01*
X11225300Y2540000D01*
X11225300Y1741867D01*
X10555000Y1741867D01*
X10476178Y1727036D01*
X10403785Y1680452D01*
X10355219Y1609373D01*
X10338133Y1525000D01*
X9501867Y1525000D01*
X9501867Y4198465D01*
X10687212Y4198465D01*
X10765101Y4009958D01*
X10909200Y3865608D01*
X11097570Y3787390D01*
X11301535Y3787212D01*
X11490042Y3865101D01*
X11634392Y4009200D01*
X11712610Y4197570D01*
X11712788Y4401535D01*
X11694829Y4445000D01*
X12878133Y4445000D01*
X12878133Y1015000D01*
X12892964Y936178D01*
X12939548Y863785D01*
X13010627Y815219D01*
X13095000Y798133D01*
X14365000Y798133D01*
X14443822Y812964D01*
X14516215Y859548D01*
X14564781Y930627D01*
X14581867Y1015000D01*
X14581867Y4445000D01*
X17958133Y4445000D01*
X17958133Y1015000D01*
X17972964Y936178D01*
X18019548Y863785D01*
X18090627Y815219D01*
X18175000Y798133D01*
X19445000Y798133D01*
X19523822Y812964D01*
X19596215Y859548D01*
X19644781Y930627D01*
X19661867Y1015000D01*
X19661867Y1525000D01*
X20498133Y1525000D01*
X20498133Y-1905000D01*
X20512964Y-1983822D01*
X20559548Y-2056215D01*
X20630627Y-2104781D01*
X20715000Y-2121867D01*
X21985000Y-2121867D01*
X22063822Y-2107036D01*
X22136215Y-2060452D01*
X22184781Y-1989373D01*
X22201867Y-1905000D01*
X22201867Y1525000D01*
X22187036Y1603822D01*
X22140452Y1676215D01*
X22069373Y1724781D01*
X22048700Y1728967D01*
X22048700Y2794000D01*
X21994449Y3066738D01*
X21839955Y3297955D01*
X21608738Y3452449D01*
X21336000Y3506700D01*
X21063262Y3452449D01*
X20832045Y3297955D01*
X20677551Y3066738D01*
X20623300Y2794000D01*
X20623300Y1718749D01*
X20563785Y1680452D01*
X20515219Y1609373D01*
X20498133Y1525000D01*
X19661867Y1525000D01*
X19661867Y4445000D01*
X23038133Y4445000D01*
X23038133Y1015000D01*
X23052964Y936178D01*
X23099548Y863785D01*
X23170627Y815219D01*
X23255000Y798133D01*
X24525000Y798133D01*
X24603822Y812964D01*
X24676215Y859548D01*
X24724781Y930627D01*
X24741867Y1015000D01*
X24741867Y1525000D01*
X25578133Y1525000D01*
X25578133Y-1905000D01*
X25592964Y-1983822D01*
X25639548Y-2056215D01*
X25710627Y-2104781D01*
X25795000Y-2121867D01*
X27065000Y-2121867D01*
X27143822Y-2107036D01*
X27216215Y-2060452D01*
X27264781Y-1989373D01*
X27281867Y-1905000D01*
X27281867Y1525000D01*
X27267036Y1603822D01*
X27220452Y1676215D01*
X27149373Y1724781D01*
X27107700Y1733220D01*
X27107700Y1882676D01*
X27204392Y1979200D01*
X27282610Y2167570D01*
X27282788Y2371535D01*
X27204899Y2560042D01*
X27060800Y2704392D01*
X26872430Y2782610D01*
X26668465Y2782788D01*
X26479958Y2704899D01*
X26335608Y2560800D01*
X26257390Y2372430D01*
X26257212Y2168465D01*
X26335101Y1979958D01*
X26432300Y1882590D01*
X26432300Y1741867D01*
X25795000Y1741867D01*
X25716178Y1727036D01*
X25643785Y1680452D01*
X25595219Y1609373D01*
X25578133Y1525000D01*
X24741867Y1525000D01*
X24741867Y2165781D01*
X24742610Y2167570D01*
X24742788Y2371535D01*
X24741867Y2373764D01*
X24741867Y4445000D01*
X24727036Y4523822D01*
X24713071Y4545525D01*
X25342300Y4545525D01*
X25342300Y4162691D01*
X25374682Y4084515D01*
X25434515Y4024681D01*
X25512692Y3992300D01*
X26975525Y3992300D01*
X27028700Y4045475D01*
X27028700Y4598700D01*
X27511300Y4598700D01*
X27511300Y4045475D01*
X27564475Y3992300D01*
X29027308Y3992300D01*
X29105485Y4024681D01*
X29165318Y4084515D01*
X29197700Y4162691D01*
X29197700Y4545525D01*
X29144525Y4598700D01*
X27511300Y4598700D01*
X27028700Y4598700D01*
X25395475Y4598700D01*
X25342300Y4545525D01*
X24713071Y4545525D01*
X24680452Y4596215D01*
X24609373Y4644781D01*
X24525000Y4661867D01*
X23255000Y4661867D01*
X23176178Y4647036D01*
X23103785Y4600452D01*
X23055219Y4529373D01*
X23038133Y4445000D01*
X19661867Y4445000D01*
X19647036Y4523822D01*
X19600452Y4596215D01*
X19529373Y4644781D01*
X19445000Y4661867D01*
X18175000Y4661867D01*
X18096178Y4647036D01*
X18023785Y4600452D01*
X17975219Y4529373D01*
X17958133Y4445000D01*
X14581867Y4445000D01*
X14567036Y4523822D01*
X14520452Y4596215D01*
X14449373Y4644781D01*
X14365000Y4661867D01*
X13095000Y4661867D01*
X13016178Y4647036D01*
X12943785Y4600452D01*
X12895219Y4529373D01*
X12878133Y4445000D01*
X11694829Y4445000D01*
X11634899Y4590042D01*
X11490800Y4734392D01*
X11302430Y4812610D01*
X11098465Y4812788D01*
X10909958Y4734899D01*
X10765608Y4590800D01*
X10687390Y4402430D01*
X10687212Y4198465D01*
X9501867Y4198465D01*
X9501867Y4445000D01*
X9487036Y4523822D01*
X9440452Y4596215D01*
X9369373Y4644781D01*
X9285000Y4661867D01*
X8015000Y4661867D01*
X7936178Y4647036D01*
X7863785Y4600452D01*
X7815219Y4529373D01*
X7798133Y4445000D01*
X4421867Y4445000D01*
X4407036Y4523822D01*
X4360452Y4596215D01*
X4289373Y4644781D01*
X4205000Y4661867D01*
X2935000Y4661867D01*
X2856178Y4647036D01*
X2783785Y4600452D01*
X2735219Y4529373D01*
X2718133Y4445000D01*
X2718133Y2374219D01*
X2717390Y2372430D01*
X2717212Y2168465D01*
X-2487300Y2168465D01*
X-2487300Y5475000D01*
X-2121867Y5475000D01*
X-2121867Y4205000D01*
X-2107036Y4126178D01*
X-2060452Y4053785D01*
X-1989373Y4005219D01*
X-1905000Y3988133D01*
X1525000Y3988133D01*
X1603822Y4002964D01*
X1676215Y4049548D01*
X1724781Y4120627D01*
X1741867Y4205000D01*
X1741867Y4887300D01*
X2600000Y4887300D01*
X2872738Y4941551D01*
X3103955Y5096045D01*
X3239207Y5298465D01*
X8287212Y5298465D01*
X8365101Y5109958D01*
X8509200Y4965608D01*
X8697570Y4887390D01*
X8901535Y4887212D01*
X9090042Y4965101D01*
X9234392Y5109200D01*
X9312610Y5297570D01*
X9312785Y5498465D01*
X9687212Y5498465D01*
X9765101Y5309958D01*
X9909200Y5165608D01*
X10097570Y5087390D01*
X10301535Y5087212D01*
X10490042Y5165101D01*
X10634392Y5309200D01*
X10712610Y5497570D01*
X10712610Y5498465D01*
X14487212Y5498465D01*
X14565101Y5309958D01*
X14709200Y5165608D01*
X14897570Y5087390D01*
X15101535Y5087212D01*
X15290042Y5165101D01*
X15323464Y5198465D01*
X16087212Y5198465D01*
X16165101Y5009958D01*
X16309200Y4865608D01*
X16497570Y4787390D01*
X16701535Y4787212D01*
X16890042Y4865101D01*
X17034392Y5009200D01*
X17112610Y5197570D01*
X17112788Y5401535D01*
X17034899Y5590042D01*
X16890800Y5734392D01*
X16702430Y5812610D01*
X16498465Y5812788D01*
X16309958Y5734899D01*
X16165608Y5590800D01*
X16087390Y5402430D01*
X16087212Y5198465D01*
X15323464Y5198465D01*
X15434392Y5309200D01*
X15512610Y5497570D01*
X15512788Y5701535D01*
X15434899Y5890042D01*
X15426491Y5898465D01*
X17487212Y5898465D01*
X17565101Y5709958D01*
X17709200Y5565608D01*
X17897570Y5487390D01*
X18101535Y5487212D01*
X18174375Y5517309D01*
X25342300Y5517309D01*
X25342300Y5134475D01*
X25395475Y5081300D01*
X27028700Y5081300D01*
X27028700Y5634525D01*
X27511300Y5634525D01*
X27511300Y5081300D01*
X29144525Y5081300D01*
X29197700Y5134475D01*
X29197700Y5517309D01*
X29165318Y5595485D01*
X29105485Y5655319D01*
X29027308Y5687700D01*
X27564475Y5687700D01*
X27511300Y5634525D01*
X27028700Y5634525D01*
X26975525Y5687700D01*
X25512692Y5687700D01*
X25434515Y5655319D01*
X25374682Y5595485D01*
X25342300Y5517309D01*
X18174375Y5517309D01*
X18290042Y5565101D01*
X18434392Y5709200D01*
X18512610Y5897570D01*
X18512788Y6101535D01*
X18472738Y6198465D01*
X18687212Y6198465D01*
X18765101Y6009958D01*
X18909200Y5865608D01*
X19097570Y5787390D01*
X19301535Y5787212D01*
X19490042Y5865101D01*
X19634392Y6009200D01*
X19712610Y6197570D01*
X19712788Y6401535D01*
X19634899Y6590042D01*
X19490800Y6734392D01*
X19302430Y6812610D01*
X19098465Y6812788D01*
X18909958Y6734899D01*
X18765608Y6590800D01*
X18687390Y6402430D01*
X18687212Y6198465D01*
X18472738Y6198465D01*
X18434899Y6290042D01*
X18290800Y6434392D01*
X18102430Y6512610D01*
X17898465Y6512788D01*
X17709958Y6434899D01*
X17565608Y6290800D01*
X17487390Y6102430D01*
X17487212Y5898465D01*
X15426491Y5898465D01*
X15290800Y6034392D01*
X15102430Y6112610D01*
X14898465Y6112788D01*
X14709958Y6034899D01*
X14565608Y5890800D01*
X14487390Y5702430D01*
X14487212Y5498465D01*
X10712610Y5498465D01*
X10712788Y5701535D01*
X10634899Y5890042D01*
X10490800Y6034392D01*
X10302430Y6112610D01*
X10098465Y6112788D01*
X9909958Y6034899D01*
X9765608Y5890800D01*
X9687390Y5702430D01*
X9687212Y5498465D01*
X9312785Y5498465D01*
X9312788Y5501535D01*
X9234899Y5690042D01*
X9090800Y5834392D01*
X8902430Y5912610D01*
X8698465Y5912788D01*
X8509958Y5834899D01*
X8365608Y5690800D01*
X8287390Y5502430D01*
X8287212Y5298465D01*
X3239207Y5298465D01*
X3258449Y5327262D01*
X3312700Y5600000D01*
X3258449Y5872738D01*
X3103955Y6103955D01*
X2872738Y6258449D01*
X2600000Y6312700D01*
X570000Y6312700D01*
X297262Y6258449D01*
X173316Y6175631D01*
X66045Y6103955D01*
X-346043Y5691867D01*
X-1905000Y5691867D01*
X-1983822Y5677036D01*
X-2056215Y5630452D01*
X-2104781Y5559373D01*
X-2121867Y5475000D01*
X-2487300Y5475000D01*
X-2487300Y6364896D01*
X13161668Y6364896D01*
X13239557Y6176389D01*
X13383656Y6032039D01*
X13572026Y5953821D01*
X13775991Y5953643D01*
X13964498Y6031532D01*
X14108848Y6175631D01*
X14187066Y6364001D01*
X14187244Y6567966D01*
X14109355Y6756473D01*
X13965256Y6900823D01*
X13776886Y6979041D01*
X13572921Y6979219D01*
X13384414Y6901330D01*
X13240064Y6757231D01*
X13161846Y6568861D01*
X13161668Y6364896D01*
X-2487300Y6364896D01*
X-2487300Y8015000D01*
X798133Y8015000D01*
X798133Y6745000D01*
X812964Y6666178D01*
X859548Y6593785D01*
X930627Y6545219D01*
X1015000Y6528133D01*
X4445000Y6528133D01*
X4523822Y6542964D01*
X4596215Y6589548D01*
X4644781Y6660627D01*
X4661867Y6745000D01*
X4661867Y7648465D01*
X6177212Y7648465D01*
X6255101Y7459958D01*
X6399200Y7315608D01*
X6587570Y7237390D01*
X6791535Y7237212D01*
X6980042Y7315101D01*
X7124392Y7459200D01*
X7182219Y7598465D01*
X12187212Y7598465D01*
X12265101Y7409958D01*
X12409200Y7265608D01*
X12597570Y7187390D01*
X12801535Y7187212D01*
X12990042Y7265101D01*
X13134392Y7409200D01*
X13212610Y7597570D01*
X13212785Y7798465D01*
X16287212Y7798465D01*
X16365101Y7609958D01*
X16509200Y7465608D01*
X16697570Y7387390D01*
X16901535Y7387212D01*
X16928769Y7398465D01*
X21331212Y7398465D01*
X21409101Y7209958D01*
X21553200Y7065608D01*
X21741570Y6987390D01*
X21945535Y6987212D01*
X22134042Y7065101D01*
X22278392Y7209200D01*
X22356610Y7397570D01*
X22356788Y7601535D01*
X22341674Y7638114D01*
X22497570Y7573380D01*
X22701535Y7573202D01*
X22890042Y7651091D01*
X23034392Y7795190D01*
X23112610Y7983560D01*
X23112637Y8015000D01*
X28258133Y8015000D01*
X28258133Y6745000D01*
X28272964Y6666178D01*
X28319548Y6593785D01*
X28390627Y6545219D01*
X28475000Y6528133D01*
X31905000Y6528133D01*
X31983822Y6542964D01*
X32056215Y6589548D01*
X32104781Y6660627D01*
X32121867Y6745000D01*
X32121867Y8015000D01*
X32107036Y8093822D01*
X32060452Y8166215D01*
X31989373Y8214781D01*
X31905000Y8231867D01*
X28475000Y8231867D01*
X28396178Y8217036D01*
X28323785Y8170452D01*
X28275219Y8099373D01*
X28258133Y8015000D01*
X23112637Y8015000D01*
X23112788Y8187525D01*
X23034899Y8376032D01*
X22890800Y8520382D01*
X22702430Y8598600D01*
X22498465Y8598778D01*
X22309958Y8520889D01*
X22165608Y8376790D01*
X22087390Y8188420D01*
X22087212Y7984455D01*
X22102326Y7947876D01*
X21946430Y8012610D01*
X21742465Y8012788D01*
X21553958Y7934899D01*
X21409608Y7790800D01*
X21331390Y7602430D01*
X21331212Y7398465D01*
X16928769Y7398465D01*
X17090042Y7465101D01*
X17234392Y7609200D01*
X17312610Y7797570D01*
X17312788Y8001535D01*
X17234899Y8190042D01*
X17090800Y8334392D01*
X16902430Y8412610D01*
X16698465Y8412788D01*
X16509958Y8334899D01*
X16365608Y8190800D01*
X16287390Y8002430D01*
X16287212Y7798465D01*
X13212785Y7798465D01*
X13212788Y7801535D01*
X13134899Y7990042D01*
X12990800Y8134392D01*
X12802430Y8212610D01*
X12598465Y8212788D01*
X12409958Y8134899D01*
X12265608Y7990800D01*
X12187390Y7802430D01*
X12187212Y7598465D01*
X7182219Y7598465D01*
X7202610Y7647570D01*
X7202788Y7851535D01*
X7124899Y8040042D01*
X6980800Y8184392D01*
X6792430Y8262610D01*
X6588465Y8262788D01*
X6399958Y8184899D01*
X6255608Y8040800D01*
X6177390Y7852430D01*
X6177212Y7648465D01*
X4661867Y7648465D01*
X4661867Y8015000D01*
X4647036Y8093822D01*
X4600452Y8166215D01*
X4529373Y8214781D01*
X4445000Y8231867D01*
X1015000Y8231867D01*
X936178Y8217036D01*
X863785Y8170452D01*
X815219Y8099373D01*
X798133Y8015000D01*
X-2487300Y8015000D01*
X-2487300Y10555000D01*
X-2121867Y10555000D01*
X-2121867Y9285000D01*
X-2107036Y9206178D01*
X-2060452Y9133785D01*
X-1989373Y9085219D01*
X-1905000Y9068133D01*
X1525000Y9068133D01*
X1603822Y9082964D01*
X1676215Y9129548D01*
X1724781Y9200627D01*
X1741867Y9285000D01*
X1741867Y10218465D01*
X3187212Y10218465D01*
X3265101Y10029958D01*
X3409200Y9885608D01*
X3597570Y9807390D01*
X3801535Y9807212D01*
X3990042Y9885101D01*
X4003429Y9898465D01*
X5071258Y9898465D01*
X5149147Y9709958D01*
X5293246Y9565608D01*
X5481616Y9487390D01*
X5670473Y9487225D01*
X5631446Y9393238D01*
X5631268Y9189273D01*
X5704228Y9012696D01*
X5598465Y9012788D01*
X5409958Y8934899D01*
X5265608Y8790800D01*
X5187390Y8602430D01*
X5187212Y8398465D01*
X5265101Y8209958D01*
X5409200Y8065608D01*
X5597570Y7987390D01*
X5801535Y7987212D01*
X5990042Y8065101D01*
X6134392Y8209200D01*
X6212610Y8397570D01*
X6212610Y8398465D01*
X15187212Y8398465D01*
X15265101Y8209958D01*
X15409200Y8065608D01*
X15597570Y7987390D01*
X15801535Y7987212D01*
X15990042Y8065101D01*
X16134392Y8209200D01*
X16212610Y8397570D01*
X16212788Y8601535D01*
X16207865Y8613451D01*
X16302790Y8613368D01*
X16491297Y8691257D01*
X16635647Y8835356D01*
X16713865Y9023726D01*
X16714043Y9227691D01*
X16636154Y9416198D01*
X16492055Y9560548D01*
X16396039Y9600417D01*
X16452986Y9737560D01*
X16453164Y9941525D01*
X16375275Y10130032D01*
X16231176Y10274382D01*
X16042806Y10352600D01*
X15838841Y10352778D01*
X15650334Y10274889D01*
X15505984Y10130790D01*
X15427766Y9942420D01*
X15427588Y9738455D01*
X15505477Y9549948D01*
X15649576Y9405598D01*
X15745592Y9365729D01*
X15688645Y9228586D01*
X15688467Y9024621D01*
X15693390Y9012705D01*
X15598465Y9012788D01*
X15409958Y8934899D01*
X15265608Y8790800D01*
X15187390Y8602430D01*
X15187212Y8398465D01*
X6212610Y8398465D01*
X6212788Y8601535D01*
X6139828Y8778112D01*
X6245591Y8778020D01*
X6434098Y8855909D01*
X6578448Y9000008D01*
X6656666Y9188378D01*
X6656844Y9392343D01*
X6578955Y9580850D01*
X6434856Y9725200D01*
X6246486Y9803418D01*
X6057629Y9803583D01*
X6096656Y9897570D01*
X6096834Y10101535D01*
X6018945Y10290042D01*
X5874846Y10434392D01*
X5686476Y10512610D01*
X5482511Y10512788D01*
X5294004Y10434899D01*
X5149654Y10290800D01*
X5071436Y10102430D01*
X5071258Y9898465D01*
X4003429Y9898465D01*
X4134392Y10029200D01*
X4212610Y10217570D01*
X4212788Y10421535D01*
X4134899Y10610042D01*
X3990800Y10754392D01*
X3802430Y10832610D01*
X3598465Y10832788D01*
X3409958Y10754899D01*
X3265608Y10610800D01*
X3187390Y10422430D01*
X3187212Y10218465D01*
X1741867Y10218465D01*
X1741867Y10555000D01*
X1727036Y10633822D01*
X1680452Y10706215D01*
X1609373Y10754781D01*
X1598589Y10756965D01*
X2154212Y10756965D01*
X2232101Y10568458D01*
X2376200Y10424108D01*
X2564570Y10345890D01*
X2768535Y10345712D01*
X2957042Y10423601D01*
X3101392Y10567700D01*
X3179610Y10756070D01*
X3179769Y10938455D01*
X4964374Y10938455D01*
X5042263Y10749948D01*
X5186362Y10605598D01*
X5374732Y10527380D01*
X5578697Y10527202D01*
X5645973Y10555000D01*
X25338133Y10555000D01*
X25338133Y9285000D01*
X25352964Y9206178D01*
X25399548Y9133785D01*
X25470627Y9085219D01*
X25555000Y9068133D01*
X28985000Y9068133D01*
X29063822Y9082964D01*
X29136215Y9129548D01*
X29184781Y9200627D01*
X29201867Y9285000D01*
X29201867Y10555000D01*
X29187036Y10633822D01*
X29140452Y10706215D01*
X29069373Y10754781D01*
X28985000Y10771867D01*
X25555000Y10771867D01*
X25476178Y10757036D01*
X25403785Y10710452D01*
X25355219Y10639373D01*
X25338133Y10555000D01*
X5645973Y10555000D01*
X5767204Y10605091D01*
X5911554Y10749190D01*
X5989772Y10937560D01*
X5989950Y11141525D01*
X5925105Y11298465D01*
X14887212Y11298465D01*
X14965101Y11109958D01*
X15109200Y10965608D01*
X15297570Y10887390D01*
X15501535Y10887212D01*
X15690042Y10965101D01*
X15834392Y11109200D01*
X15902286Y11272708D01*
X16009200Y11165608D01*
X16197570Y11087390D01*
X16401535Y11087212D01*
X16590042Y11165101D01*
X16734392Y11309200D01*
X16812610Y11497570D01*
X16812788Y11701535D01*
X16734899Y11890042D01*
X16590800Y12034392D01*
X16402430Y12112610D01*
X16198465Y12112788D01*
X16009958Y12034899D01*
X15865608Y11890800D01*
X15797714Y11727292D01*
X15690800Y11834392D01*
X15502430Y11912610D01*
X15298465Y11912788D01*
X15109958Y11834899D01*
X14965608Y11690800D01*
X14887390Y11502430D01*
X14887212Y11298465D01*
X5925105Y11298465D01*
X5912061Y11330032D01*
X5767962Y11474382D01*
X5579592Y11552600D01*
X5375627Y11552778D01*
X5187120Y11474889D01*
X5042770Y11330790D01*
X4964552Y11142420D01*
X4964374Y10938455D01*
X3179769Y10938455D01*
X3179788Y10960035D01*
X3101899Y11148542D01*
X2957800Y11292892D01*
X2769430Y11371110D01*
X2565465Y11371288D01*
X2376958Y11293399D01*
X2232608Y11149300D01*
X2154390Y10960930D01*
X2154212Y10756965D01*
X1598589Y10756965D01*
X1525000Y10771867D01*
X-1905000Y10771867D01*
X-1983822Y10757036D01*
X-2056215Y10710452D01*
X-2104781Y10639373D01*
X-2121867Y10555000D01*
X-2487300Y10555000D01*
X-2487300Y13095000D01*
X798133Y13095000D01*
X798133Y11825000D01*
X812964Y11746178D01*
X859548Y11673785D01*
X930627Y11625219D01*
X1015000Y11608133D01*
X4445000Y11608133D01*
X4523822Y11622964D01*
X4596215Y11669548D01*
X4644781Y11740627D01*
X4648940Y11761168D01*
X5657941Y11761168D01*
X5735830Y11572661D01*
X5879929Y11428311D01*
X6068299Y11350093D01*
X6272264Y11349915D01*
X6460771Y11427804D01*
X6605121Y11571903D01*
X6683339Y11760273D01*
X6683517Y11964238D01*
X6619183Y12119939D01*
X6697570Y12087390D01*
X6901535Y12087212D01*
X7090042Y12165101D01*
X7234392Y12309200D01*
X7312610Y12497570D01*
X7312788Y12701535D01*
X7234899Y12890042D01*
X7090800Y13034392D01*
X6902430Y13112610D01*
X6698465Y13112788D01*
X6509958Y13034899D01*
X6365608Y12890800D01*
X6287390Y12702430D01*
X6287212Y12498465D01*
X6351546Y12342764D01*
X6273159Y12375313D01*
X6069194Y12375491D01*
X5880687Y12297602D01*
X5736337Y12153503D01*
X5658119Y11965133D01*
X5657941Y11761168D01*
X4648940Y11761168D01*
X4661867Y11825000D01*
X4661867Y13095000D01*
X4647036Y13173822D01*
X4600452Y13246215D01*
X4529373Y13294781D01*
X4445000Y13311867D01*
X3434372Y13311867D01*
X3388449Y13542738D01*
X3244299Y13758475D01*
X4073050Y13758475D01*
X4150939Y13569968D01*
X4295038Y13425618D01*
X4483408Y13347400D01*
X4687373Y13347222D01*
X4875880Y13425111D01*
X5020230Y13569210D01*
X5098448Y13757580D01*
X5098626Y13961545D01*
X5020737Y14150052D01*
X4996247Y14174585D01*
X5727202Y14174585D01*
X5805091Y13986078D01*
X5949190Y13841728D01*
X6137560Y13763510D01*
X6341525Y13763332D01*
X6429017Y13799483D01*
X10047222Y13799483D01*
X10125111Y13610976D01*
X10269210Y13466626D01*
X10457580Y13388408D01*
X10661545Y13388230D01*
X10850052Y13466119D01*
X10958994Y13574871D01*
X10887390Y13402430D01*
X10887212Y13198465D01*
X10965101Y13009958D01*
X11109200Y12865608D01*
X11297570Y12787390D01*
X11501535Y12787212D01*
X11690042Y12865101D01*
X11834392Y13009200D01*
X11880204Y13119529D01*
X17421057Y13119529D01*
X17498946Y12931022D01*
X17643045Y12786672D01*
X17831415Y12708454D01*
X18035380Y12708276D01*
X18223887Y12786165D01*
X18368237Y12930264D01*
X18446455Y13118634D01*
X18446633Y13322599D01*
X18368744Y13511106D01*
X18224645Y13655456D01*
X18121068Y13698465D01*
X24287212Y13698465D01*
X24365101Y13509958D01*
X24509200Y13365608D01*
X24697570Y13287390D01*
X24901535Y13287212D01*
X25090042Y13365101D01*
X25234392Y13509200D01*
X25312610Y13697570D01*
X25312788Y13901535D01*
X25234899Y14090042D01*
X25090800Y14234392D01*
X24902430Y14312610D01*
X24698465Y14312788D01*
X24509958Y14234899D01*
X24365608Y14090800D01*
X24287390Y13902430D01*
X24287212Y13698465D01*
X18121068Y13698465D01*
X18036275Y13733674D01*
X17832310Y13733852D01*
X17643803Y13655963D01*
X17499453Y13511864D01*
X17421235Y13323494D01*
X17421057Y13119529D01*
X11880204Y13119529D01*
X11912610Y13197570D01*
X11912788Y13401535D01*
X11834899Y13590042D01*
X11690800Y13734392D01*
X11502430Y13812610D01*
X11298465Y13812788D01*
X11109958Y13734899D01*
X11001016Y13626147D01*
X11072620Y13798588D01*
X11072798Y14002553D01*
X10994909Y14191060D01*
X10931070Y14255011D01*
X17277181Y14255011D01*
X17355070Y14066504D01*
X17499169Y13922154D01*
X17687539Y13843936D01*
X17891504Y13843758D01*
X18080011Y13921647D01*
X18224361Y14065746D01*
X18302579Y14254116D01*
X18302757Y14458081D01*
X18224868Y14646588D01*
X18080769Y14790938D01*
X17892399Y14869156D01*
X17688434Y14869334D01*
X17499927Y14791445D01*
X17355577Y14647346D01*
X17277359Y14458976D01*
X17277181Y14255011D01*
X10931070Y14255011D01*
X10850810Y14335410D01*
X10662440Y14413628D01*
X10458475Y14413806D01*
X10269968Y14335917D01*
X10125618Y14191818D01*
X10047400Y14003448D01*
X10047222Y13799483D01*
X6429017Y13799483D01*
X6530032Y13841221D01*
X6674382Y13985320D01*
X6752600Y14173690D01*
X6752778Y14377655D01*
X6744180Y14398465D01*
X7487212Y14398465D01*
X7565101Y14209958D01*
X7709200Y14065608D01*
X7897570Y13987390D01*
X8101535Y13987212D01*
X8290042Y14065101D01*
X8434392Y14209200D01*
X8512610Y14397570D01*
X8512788Y14601535D01*
X8434899Y14790042D01*
X8290800Y14934392D01*
X8102430Y15012610D01*
X7898465Y15012788D01*
X7709958Y14934899D01*
X7565608Y14790800D01*
X7487390Y14602430D01*
X7487212Y14398465D01*
X6744180Y14398465D01*
X6674889Y14566162D01*
X6530790Y14710512D01*
X6342420Y14788730D01*
X6138455Y14788908D01*
X5949948Y14711019D01*
X5805598Y14566920D01*
X5727380Y14378550D01*
X5727202Y14174585D01*
X4996247Y14174585D01*
X4876638Y14294402D01*
X4688268Y14372620D01*
X4484303Y14372798D01*
X4295796Y14294909D01*
X4151446Y14150810D01*
X4073228Y13962440D01*
X4073050Y13758475D01*
X3244299Y13758475D01*
X3233955Y13773955D01*
X2773955Y14233955D01*
X2542739Y14388449D01*
X2270000Y14442700D01*
X1997261Y14388449D01*
X1766045Y14233955D01*
X1611551Y14002739D01*
X1557300Y13730000D01*
X1611551Y13457261D01*
X1708700Y13311867D01*
X1015000Y13311867D01*
X936178Y13297036D01*
X863785Y13250452D01*
X815219Y13179373D01*
X798133Y13095000D01*
X-2487300Y13095000D01*
X-2487300Y15635000D01*
X-2121867Y15635000D01*
X-2121867Y14365000D01*
X-2107036Y14286178D01*
X-2060452Y14213785D01*
X-1989373Y14165219D01*
X-1905000Y14148133D01*
X1525000Y14148133D01*
X1603822Y14162964D01*
X1676215Y14209548D01*
X1724781Y14280627D01*
X1741867Y14365000D01*
X1741867Y15098465D01*
X19887212Y15098465D01*
X19965101Y14909958D01*
X20109200Y14765608D01*
X20297570Y14687390D01*
X20501535Y14687212D01*
X20690042Y14765101D01*
X20834392Y14909200D01*
X20912610Y15097570D01*
X20912643Y15134976D01*
X20945161Y15102401D01*
X21133531Y15024183D01*
X21337496Y15024005D01*
X21526003Y15101894D01*
X21670353Y15245993D01*
X21748571Y15434363D01*
X21748746Y15635000D01*
X25338133Y15635000D01*
X25338133Y14365000D01*
X25352964Y14286178D01*
X25399548Y14213785D01*
X25470627Y14165219D01*
X25555000Y14148133D01*
X27423163Y14148133D01*
X27295608Y14020800D01*
X27217390Y13832430D01*
X27217212Y13628465D01*
X27295101Y13439958D01*
X27439200Y13295608D01*
X27627570Y13217390D01*
X27765150Y13217270D01*
X28258133Y12724287D01*
X28258133Y11825000D01*
X28272964Y11746178D01*
X28319548Y11673785D01*
X28390627Y11625219D01*
X28475000Y11608133D01*
X31905000Y11608133D01*
X31983822Y11622964D01*
X32056215Y11669548D01*
X32104781Y11740627D01*
X32121867Y11825000D01*
X32121867Y13095000D01*
X32107036Y13173822D01*
X32060452Y13246215D01*
X31989373Y13294781D01*
X31905000Y13311867D01*
X28625713Y13311867D01*
X28242669Y13694911D01*
X28242788Y13831535D01*
X28164899Y14020042D01*
X28037031Y14148133D01*
X28985000Y14148133D01*
X29063822Y14162964D01*
X29136215Y14209548D01*
X29184781Y14280627D01*
X29201867Y14365000D01*
X29201867Y15635000D01*
X29187036Y15713822D01*
X29140452Y15786215D01*
X29069373Y15834781D01*
X28985000Y15851867D01*
X28036837Y15851867D01*
X28164392Y15979200D01*
X28242610Y16167570D01*
X28242730Y16305150D01*
X28625713Y16688133D01*
X31905000Y16688133D01*
X31983822Y16702964D01*
X32056215Y16749548D01*
X32104781Y16820627D01*
X32121867Y16905000D01*
X32121867Y18175000D01*
X32107036Y18253822D01*
X32060452Y18326215D01*
X31989373Y18374781D01*
X31905000Y18391867D01*
X28475000Y18391867D01*
X28396178Y18377036D01*
X28323785Y18330452D01*
X28275219Y18259373D01*
X28258133Y18175000D01*
X28258133Y17275713D01*
X27765089Y16782669D01*
X27628465Y16782788D01*
X27439958Y16704899D01*
X27295608Y16560800D01*
X27217390Y16372430D01*
X27217212Y16168465D01*
X27295101Y15979958D01*
X27422969Y15851867D01*
X25555000Y15851867D01*
X25476178Y15837036D01*
X25403785Y15790452D01*
X25355219Y15719373D01*
X25338133Y15635000D01*
X21748746Y15635000D01*
X21748749Y15638328D01*
X21670860Y15826835D01*
X21526761Y15971185D01*
X21338391Y16049403D01*
X21134426Y16049581D01*
X20945919Y15971692D01*
X20801569Y15827593D01*
X20723351Y15639223D01*
X20723318Y15601817D01*
X20690800Y15634392D01*
X20502430Y15712610D01*
X20298465Y15712788D01*
X20109958Y15634899D01*
X19965608Y15490800D01*
X19887390Y15302430D01*
X19887212Y15098465D01*
X1741867Y15098465D01*
X1741867Y15635000D01*
X1727036Y15713822D01*
X1680452Y15786215D01*
X1609373Y15834781D01*
X1525000Y15851867D01*
X-1905000Y15851867D01*
X-1983822Y15837036D01*
X-2056215Y15790452D01*
X-2104781Y15719373D01*
X-2121867Y15635000D01*
X-2487300Y15635000D01*
X-2487300Y18175000D01*
X798133Y18175000D01*
X798133Y16905000D01*
X812964Y16826178D01*
X859548Y16753785D01*
X930627Y16705219D01*
X1015000Y16688133D01*
X1557300Y16688133D01*
X1557300Y16270000D01*
X1611551Y15997262D01*
X1766045Y15766045D01*
X1997262Y15611551D01*
X2270000Y15557300D01*
X2542738Y15611551D01*
X2773955Y15766045D01*
X2928449Y15997262D01*
X2953021Y16120795D01*
X6359210Y16120795D01*
X6437099Y15932288D01*
X6581198Y15787938D01*
X6769568Y15709720D01*
X6973533Y15709542D01*
X7162040Y15787431D01*
X7306390Y15931530D01*
X7384608Y16119900D01*
X7384786Y16323865D01*
X7331955Y16451728D01*
X9032449Y16451728D01*
X9110338Y16263221D01*
X9254437Y16118871D01*
X9442807Y16040653D01*
X9646772Y16040475D01*
X9835279Y16118364D01*
X9979629Y16262463D01*
X10057847Y16450833D01*
X10058025Y16654798D01*
X9980136Y16843305D01*
X9836037Y16987655D01*
X9647667Y17065873D01*
X9443702Y17066051D01*
X9255195Y16988162D01*
X9110845Y16844063D01*
X9032627Y16655693D01*
X9032449Y16451728D01*
X7331955Y16451728D01*
X7306897Y16512372D01*
X7162798Y16656722D01*
X6974428Y16734940D01*
X6770463Y16735118D01*
X6581956Y16657229D01*
X6437606Y16513130D01*
X6359388Y16324760D01*
X6359210Y16120795D01*
X2953021Y16120795D01*
X2982700Y16270000D01*
X2982700Y16688133D01*
X4445000Y16688133D01*
X4523822Y16702964D01*
X4596215Y16749548D01*
X4644781Y16820627D01*
X4661867Y16905000D01*
X4661867Y18175000D01*
X4647036Y18253822D01*
X4600452Y18326215D01*
X4529373Y18374781D01*
X4445000Y18391867D01*
X1015000Y18391867D01*
X936178Y18377036D01*
X863785Y18330452D01*
X815219Y18259373D01*
X798133Y18175000D01*
X-2487300Y18175000D01*
X-2487300Y20715000D01*
X-2121867Y20715000D01*
X-2121867Y19445000D01*
X-2107036Y19366178D01*
X-2060452Y19293785D01*
X-1989373Y19245219D01*
X-1905000Y19228133D01*
X1525000Y19228133D01*
X1603822Y19242964D01*
X1676215Y19289548D01*
X1724781Y19360627D01*
X1741867Y19445000D01*
X1741867Y19469409D01*
X2217862Y18993414D01*
X2217712Y18821465D01*
X2295601Y18632958D01*
X2439700Y18488608D01*
X2628070Y18410390D01*
X2832035Y18410212D01*
X3020542Y18488101D01*
X3030924Y18498465D01*
X6987212Y18498465D01*
X7065101Y18309958D01*
X7209200Y18165608D01*
X7397570Y18087390D01*
X7601535Y18087212D01*
X7790042Y18165101D01*
X7811443Y18186465D01*
X22706722Y18186465D01*
X22784611Y17997958D01*
X22928710Y17853608D01*
X23117080Y17775390D01*
X23321045Y17775212D01*
X23509552Y17853101D01*
X23653902Y17997200D01*
X23732120Y18185570D01*
X23732120Y18186465D01*
X24125212Y18186465D01*
X24203101Y17997958D01*
X24347200Y17853608D01*
X24535570Y17775390D01*
X24739535Y17775212D01*
X24928042Y17853101D01*
X25072392Y17997200D01*
X25150610Y18185570D01*
X25150788Y18389535D01*
X25072899Y18578042D01*
X24928800Y18722392D01*
X24740430Y18800610D01*
X24536465Y18800788D01*
X24347958Y18722899D01*
X24203608Y18578800D01*
X24125390Y18390430D01*
X24125212Y18186465D01*
X23732120Y18186465D01*
X23732298Y18389535D01*
X23654409Y18578042D01*
X23510310Y18722392D01*
X23321940Y18800610D01*
X23117975Y18800788D01*
X22929468Y18722899D01*
X22785118Y18578800D01*
X22706900Y18390430D01*
X22706722Y18186465D01*
X7811443Y18186465D01*
X7934392Y18309200D01*
X8012610Y18497570D01*
X8012785Y18698465D01*
X8387212Y18698465D01*
X8465101Y18509958D01*
X8609200Y18365608D01*
X8797570Y18287390D01*
X9001535Y18287212D01*
X9190042Y18365101D01*
X9334392Y18509200D01*
X9412610Y18697570D01*
X9412788Y18901535D01*
X9334899Y19090042D01*
X9190800Y19234392D01*
X9002430Y19312610D01*
X8798465Y19312788D01*
X8609958Y19234899D01*
X8465608Y19090800D01*
X8387390Y18902430D01*
X8387212Y18698465D01*
X8012785Y18698465D01*
X8012788Y18701535D01*
X7934899Y18890042D01*
X7790800Y19034392D01*
X7602430Y19112610D01*
X7398465Y19112788D01*
X7209958Y19034899D01*
X7065608Y18890800D01*
X6987390Y18702430D01*
X6987212Y18498465D01*
X3030924Y18498465D01*
X3164892Y18632200D01*
X3243110Y18820570D01*
X3243288Y19024535D01*
X3165399Y19213042D01*
X3021300Y19357392D01*
X2832930Y19435610D01*
X2659963Y19435761D01*
X1897259Y20198465D01*
X14487212Y20198465D01*
X14565101Y20009958D01*
X14709200Y19865608D01*
X14897570Y19787390D01*
X15101535Y19787212D01*
X15290042Y19865101D01*
X15434392Y20009200D01*
X15512610Y20197570D01*
X15512788Y20401535D01*
X15434899Y20590042D01*
X15310159Y20715000D01*
X25338133Y20715000D01*
X25338133Y19445000D01*
X25352964Y19366178D01*
X25399548Y19293785D01*
X25470627Y19245219D01*
X25555000Y19228133D01*
X28985000Y19228133D01*
X29063822Y19242964D01*
X29136215Y19289548D01*
X29184781Y19360627D01*
X29201867Y19445000D01*
X29201867Y20715000D01*
X29187036Y20793822D01*
X29140452Y20866215D01*
X29069373Y20914781D01*
X28985000Y20931867D01*
X25555000Y20931867D01*
X25476178Y20917036D01*
X25403785Y20870452D01*
X25355219Y20799373D01*
X25338133Y20715000D01*
X15310159Y20715000D01*
X15290800Y20734392D01*
X15102430Y20812610D01*
X14898465Y20812788D01*
X14709958Y20734899D01*
X14565608Y20590800D01*
X14487390Y20402430D01*
X14487212Y20198465D01*
X1897259Y20198465D01*
X1794612Y20301112D01*
X1741867Y20336355D01*
X1741867Y20715000D01*
X1727036Y20793822D01*
X1680452Y20866215D01*
X1609373Y20914781D01*
X1525000Y20931867D01*
X-1905000Y20931867D01*
X-1983822Y20917036D01*
X-2056215Y20870452D01*
X-2104781Y20799373D01*
X-2121867Y20715000D01*
X-2487300Y20715000D01*
X-2487300Y23255000D01*
X798133Y23255000D01*
X798133Y21985000D01*
X812964Y21906178D01*
X859548Y21833785D01*
X930627Y21785219D01*
X1015000Y21768133D01*
X3065104Y21768133D01*
X2965608Y21668810D01*
X2887390Y21480440D01*
X2887212Y21276475D01*
X2965101Y21087968D01*
X3109200Y20943618D01*
X3297570Y20865400D01*
X3501535Y20865222D01*
X3690042Y20943111D01*
X3834392Y21087210D01*
X3889989Y21221104D01*
X4998220Y21221104D01*
X5076109Y21032597D01*
X5220208Y20888247D01*
X5408578Y20810029D01*
X5612543Y20809851D01*
X5801050Y20887740D01*
X5945400Y21031839D01*
X6023618Y21220209D01*
X6023796Y21424174D01*
X5997232Y21488465D01*
X16378212Y21488465D01*
X16456101Y21299958D01*
X16600200Y21155608D01*
X16788570Y21077390D01*
X16992535Y21077212D01*
X17181042Y21155101D01*
X17325392Y21299200D01*
X17403610Y21487570D01*
X17403788Y21691535D01*
X17325899Y21880042D01*
X17181800Y22024392D01*
X16993430Y22102610D01*
X16789465Y22102788D01*
X16600958Y22024899D01*
X16456608Y21880800D01*
X16378390Y21692430D01*
X16378212Y21488465D01*
X5997232Y21488465D01*
X5945907Y21612681D01*
X5801808Y21757031D01*
X5613438Y21835249D01*
X5409473Y21835427D01*
X5220966Y21757538D01*
X5076616Y21613439D01*
X4998398Y21425069D01*
X4998220Y21221104D01*
X3889989Y21221104D01*
X3912610Y21275580D01*
X3912788Y21479545D01*
X3834899Y21668052D01*
X3734992Y21768133D01*
X4445000Y21768133D01*
X4523822Y21782964D01*
X4596215Y21829548D01*
X4644781Y21900627D01*
X4661867Y21985000D01*
X4661867Y22698465D01*
X9687212Y22698465D01*
X9765101Y22509958D01*
X9909200Y22365608D01*
X10097570Y22287390D01*
X10301535Y22287212D01*
X10490042Y22365101D01*
X10634392Y22509200D01*
X10712610Y22697570D01*
X10712663Y22758465D01*
X16378212Y22758465D01*
X16456101Y22569958D01*
X16600200Y22425608D01*
X16788570Y22347390D01*
X16992535Y22347212D01*
X17181042Y22425101D01*
X17325392Y22569200D01*
X17403610Y22757570D01*
X17403788Y22961535D01*
X17325899Y23150042D01*
X17181800Y23294392D01*
X16993430Y23372610D01*
X16789465Y23372788D01*
X16600958Y23294899D01*
X16456608Y23150800D01*
X16378390Y22962430D01*
X16378212Y22758465D01*
X10712663Y22758465D01*
X10712788Y22901535D01*
X10634899Y23090042D01*
X10490800Y23234392D01*
X10302430Y23312610D01*
X10098465Y23312788D01*
X9909958Y23234899D01*
X9765608Y23090800D01*
X9687390Y22902430D01*
X9687212Y22698465D01*
X4661867Y22698465D01*
X4661867Y23255000D01*
X4647036Y23333822D01*
X4600452Y23406215D01*
X4529373Y23454781D01*
X4445000Y23471867D01*
X1015000Y23471867D01*
X936178Y23457036D01*
X863785Y23410452D01*
X815219Y23339373D01*
X798133Y23255000D01*
X-2487300Y23255000D01*
X-2487300Y23998465D01*
X9787212Y23998465D01*
X9865101Y23809958D01*
X10009200Y23665608D01*
X10197570Y23587390D01*
X10401535Y23587212D01*
X10590042Y23665101D01*
X10734392Y23809200D01*
X10812610Y23997570D01*
X10812788Y24201535D01*
X10734899Y24390042D01*
X10590800Y24534392D01*
X10402430Y24612610D01*
X10198465Y24612788D01*
X10009958Y24534899D01*
X9865608Y24390800D01*
X9787390Y24202430D01*
X9787212Y23998465D01*
X-2487300Y23998465D01*
X-2487300Y25795000D01*
X-2121867Y25795000D01*
X-2121867Y24525000D01*
X-2107036Y24446178D01*
X-2060452Y24373785D01*
X-1989373Y24325219D01*
X-1905000Y24308133D01*
X1525000Y24308133D01*
X1603822Y24322964D01*
X1676215Y24369548D01*
X1724781Y24440627D01*
X1741867Y24525000D01*
X1741867Y24858726D01*
X2268805Y24858726D01*
X2390285Y24737034D01*
X2578655Y24658816D01*
X2782620Y24658638D01*
X2971127Y24736527D01*
X3115477Y24880626D01*
X3193695Y25068996D01*
X3193873Y25272961D01*
X3166945Y25338133D01*
X4205000Y25338133D01*
X4283822Y25352964D01*
X4356215Y25399548D01*
X4404781Y25470627D01*
X4421867Y25555000D01*
X4421867Y27730000D01*
X5057300Y27730000D01*
X5111551Y27457261D01*
X5266045Y27226045D01*
X5497261Y27071551D01*
X5770000Y27017300D01*
X6042739Y27071551D01*
X6273955Y27226045D01*
X6613955Y27566045D01*
X6768449Y27797261D01*
X6822700Y28070000D01*
X6822700Y28272753D01*
X6823822Y28272964D01*
X6896215Y28319548D01*
X6944781Y28390627D01*
X6961867Y28475000D01*
X6961867Y28985000D01*
X7798133Y28985000D01*
X7798133Y25555000D01*
X7812964Y25476178D01*
X7859548Y25403785D01*
X7930627Y25355219D01*
X8015000Y25338133D01*
X9285000Y25338133D01*
X9363822Y25352964D01*
X9436215Y25399548D01*
X9484781Y25470627D01*
X9501867Y25555000D01*
X9501867Y28985000D01*
X9487036Y29063822D01*
X9440452Y29136215D01*
X9369373Y29184781D01*
X9285000Y29201867D01*
X8015000Y29201867D01*
X7936178Y29187036D01*
X7863785Y29140452D01*
X7815219Y29069373D01*
X7798133Y28985000D01*
X6961867Y28985000D01*
X6961867Y31905000D01*
X10338133Y31905000D01*
X10338133Y28475000D01*
X10352964Y28396178D01*
X10399548Y28323785D01*
X10470627Y28275219D01*
X10555000Y28258133D01*
X11825000Y28258133D01*
X11903822Y28272964D01*
X11976215Y28319548D01*
X12024781Y28390627D01*
X12041867Y28475000D01*
X12041867Y28985000D01*
X12878133Y28985000D01*
X12878133Y25555000D01*
X12892964Y25476178D01*
X12939548Y25403785D01*
X13010627Y25355219D01*
X13095000Y25338133D01*
X14365000Y25338133D01*
X14443822Y25352964D01*
X14516215Y25399548D01*
X14564781Y25470627D01*
X14581867Y25555000D01*
X14581867Y28985000D01*
X14567036Y29063822D01*
X14520452Y29136215D01*
X14449373Y29184781D01*
X14365000Y29201867D01*
X13095000Y29201867D01*
X13016178Y29187036D01*
X12943785Y29140452D01*
X12895219Y29069373D01*
X12878133Y28985000D01*
X12041867Y28985000D01*
X12041867Y31905000D01*
X15418133Y31905000D01*
X15418133Y28475000D01*
X15432964Y28396178D01*
X15479548Y28323785D01*
X15550627Y28275219D01*
X15635000Y28258133D01*
X16905000Y28258133D01*
X16983822Y28272964D01*
X17056215Y28319548D01*
X17104781Y28390627D01*
X17121867Y28475000D01*
X17121867Y28985000D01*
X17958133Y28985000D01*
X17958133Y25555000D01*
X17972964Y25476178D01*
X18019548Y25403785D01*
X18090627Y25355219D01*
X18175000Y25338133D01*
X19445000Y25338133D01*
X19523822Y25352964D01*
X19596215Y25399548D01*
X19644781Y25470627D01*
X19661867Y25555000D01*
X19661867Y28985000D01*
X19647036Y29063822D01*
X19600452Y29136215D01*
X19529373Y29184781D01*
X19445000Y29201867D01*
X18175000Y29201867D01*
X18096178Y29187036D01*
X18023785Y29140452D01*
X17975219Y29069373D01*
X17958133Y28985000D01*
X17121867Y28985000D01*
X17121867Y31905000D01*
X20498133Y31905000D01*
X20498133Y28475000D01*
X20512964Y28396178D01*
X20559548Y28323785D01*
X20630627Y28275219D01*
X20715000Y28258133D01*
X21985000Y28258133D01*
X22063822Y28272964D01*
X22136215Y28319548D01*
X22184781Y28390627D01*
X22201867Y28475000D01*
X22201867Y28985000D01*
X23038133Y28985000D01*
X23038133Y25555000D01*
X23052964Y25476178D01*
X23099548Y25403785D01*
X23170627Y25355219D01*
X23255000Y25338133D01*
X24525000Y25338133D01*
X24603822Y25352964D01*
X24676215Y25399548D01*
X24724781Y25470627D01*
X24741867Y25555000D01*
X24741867Y25795000D01*
X25338133Y25795000D01*
X25338133Y24525000D01*
X25352964Y24446178D01*
X25399548Y24373785D01*
X25470627Y24325219D01*
X25555000Y24308133D01*
X26557300Y24308133D01*
X26557300Y23896309D01*
X26541551Y23872739D01*
X26487300Y23600000D01*
X26541551Y23327261D01*
X26696045Y23096045D01*
X26927261Y22941551D01*
X27200000Y22887300D01*
X27472739Y22941551D01*
X27703955Y23096045D01*
X27773955Y23166045D01*
X27833392Y23255000D01*
X28258133Y23255000D01*
X28258133Y21985000D01*
X28272964Y21906178D01*
X28319548Y21833785D01*
X28390627Y21785219D01*
X28475000Y21768133D01*
X31905000Y21768133D01*
X31983822Y21782964D01*
X32056215Y21829548D01*
X32104781Y21900627D01*
X32121867Y21985000D01*
X32121867Y23255000D01*
X32107036Y23333822D01*
X32060452Y23406215D01*
X31989373Y23454781D01*
X31905000Y23471867D01*
X28475000Y23471867D01*
X28396178Y23457036D01*
X28323785Y23410452D01*
X28275219Y23339373D01*
X28258133Y23255000D01*
X27833392Y23255000D01*
X27928449Y23397261D01*
X27982700Y23670000D01*
X27982700Y24308133D01*
X28985000Y24308133D01*
X29063822Y24322964D01*
X29136215Y24369548D01*
X29184781Y24440627D01*
X29201867Y24525000D01*
X29201867Y25793957D01*
X29703955Y26296045D01*
X29858448Y26527261D01*
X29912700Y26800000D01*
X29858448Y27072739D01*
X29703955Y27303955D01*
X29472739Y27458448D01*
X29200000Y27512700D01*
X28927261Y27458448D01*
X28696045Y27303955D01*
X27403957Y26011867D01*
X25555000Y26011867D01*
X25476178Y25997036D01*
X25403785Y25950452D01*
X25355219Y25879373D01*
X25338133Y25795000D01*
X24741867Y25795000D01*
X24741867Y27625781D01*
X24742610Y27627570D01*
X24742788Y27831535D01*
X24741867Y27833764D01*
X24741867Y28985000D01*
X24727036Y29063822D01*
X24680452Y29136215D01*
X24609373Y29184781D01*
X24525000Y29201867D01*
X23255000Y29201867D01*
X23176178Y29187036D01*
X23103785Y29140452D01*
X23055219Y29069373D01*
X23038133Y28985000D01*
X22201867Y28985000D01*
X22201867Y31905000D01*
X25578133Y31905000D01*
X25578133Y28475000D01*
X25592964Y28396178D01*
X25639548Y28323785D01*
X25710627Y28275219D01*
X25795000Y28258133D01*
X26057300Y28258133D01*
X26057300Y27730000D01*
X26111551Y27457262D01*
X26266045Y27226045D01*
X26497262Y27071551D01*
X26770000Y27017300D01*
X27042738Y27071551D01*
X27273955Y27226045D01*
X27428449Y27457262D01*
X27482700Y27730000D01*
X27482700Y29850000D01*
X27428449Y30122738D01*
X27428449Y30122739D01*
X27281867Y30342114D01*
X27281867Y31905000D01*
X27267036Y31983822D01*
X27220452Y32056215D01*
X27149373Y32104781D01*
X27065000Y32121867D01*
X25795000Y32121867D01*
X25716178Y32107036D01*
X25643785Y32060452D01*
X25595219Y31989373D01*
X25578133Y31905000D01*
X22201867Y31905000D01*
X22187036Y31983822D01*
X22140452Y32056215D01*
X22069373Y32104781D01*
X21985000Y32121867D01*
X20715000Y32121867D01*
X20636178Y32107036D01*
X20563785Y32060452D01*
X20515219Y31989373D01*
X20498133Y31905000D01*
X17121867Y31905000D01*
X17107036Y31983822D01*
X17060452Y32056215D01*
X16989373Y32104781D01*
X16905000Y32121867D01*
X15635000Y32121867D01*
X15556178Y32107036D01*
X15483785Y32060452D01*
X15435219Y31989373D01*
X15418133Y31905000D01*
X12041867Y31905000D01*
X12027036Y31983822D01*
X11980452Y32056215D01*
X11909373Y32104781D01*
X11825000Y32121867D01*
X10555000Y32121867D01*
X10476178Y32107036D01*
X10403785Y32060452D01*
X10355219Y31989373D01*
X10338133Y31905000D01*
X6961867Y31905000D01*
X6947036Y31983822D01*
X6900452Y32056215D01*
X6829373Y32104781D01*
X6745000Y32121867D01*
X5475000Y32121867D01*
X5396178Y32107036D01*
X5323785Y32060452D01*
X5275219Y31989373D01*
X5258133Y31905000D01*
X5258133Y28475000D01*
X5272964Y28396178D01*
X5319548Y28323785D01*
X5341129Y28309039D01*
X5266045Y28233955D01*
X5111551Y28002739D01*
X5057300Y27730000D01*
X4421867Y27730000D01*
X4421867Y28985000D01*
X4407036Y29063822D01*
X4360452Y29136215D01*
X4289373Y29184781D01*
X4205000Y29201867D01*
X2935000Y29201867D01*
X2856178Y29187036D01*
X2783785Y29140452D01*
X2735219Y29069373D01*
X2718133Y28985000D01*
X2718133Y27834219D01*
X2717390Y27832430D01*
X2717212Y27628465D01*
X2718133Y27626236D01*
X2718133Y25684093D01*
X2579550Y25684214D01*
X2391043Y25606325D01*
X2268631Y25484126D01*
X1741867Y25484126D01*
X1741867Y25795000D01*
X1727036Y25873822D01*
X1680452Y25946215D01*
X1609373Y25994781D01*
X1525000Y26011867D01*
X-1905000Y26011867D01*
X-1983822Y25997036D01*
X-2056215Y25950452D01*
X-2104781Y25879373D01*
X-2121867Y25795000D01*
X-2487300Y25795000D01*
X-2487300Y32487300D01*
X32487300Y32487300D01*
X32487300Y-2487300D01*
M02*
