  0
SECTION
  2
HEADER
  9
$ANGBASE
  50
0.0
  9
$ANGDIR
  70
  1
  9
$MEASUREMENT
  70
0
  0
ENDSEC
  0
SECTION
  2
TABLES
  0
TABLE
  2
LTYPE
  70
1
  0
LTYPE
  2
CONTINUOUS
  70
0
  3
Solid line
  72
65
  73
0
  40
0.0
  0
ENDTAB
  0
TABLE
  2
STYLE
  70
4
  0
STYLE
  2
KICAD
  70
0
  40
0
  41
1
  42
1
  50
0
  71
0
  3
isocp.shx
  0
STYLE
  2
KICADB
  70
0
  40
0
  41
1
  42
1
  50
0
  71
0
  3
isocp.shx
  0
STYLE
  2
KICADI
  70
0
  40
0
  41
1
  42
1
  50
15
  71
0
  3
isocp.shx
  0
STYLE
  2
KICADBI
  70
0
  40
0
  41
1
  42
1
  50
15
  71
0
  3
isocp.shx
  0
ENDTAB
  0
TABLE
  2
LAYER
  70
30
  0
LAYER
  2
BLACK
  70
0
  62
7
  6
CONTINUOUS
  0
LAYER
  2
GRAY1
  70
0
  62
251
  6
CONTINUOUS
  0
LAYER
  2
GRAY2
  70
0
  62
8
  6
CONTINUOUS
  0
LAYER
  2
GRAY3
  70
0
  62
9
  6
CONTINUOUS
  0
LAYER
  2
WHITE
  70
0
  62
7
  6
CONTINUOUS
  0
LAYER
  2
LYELLOW
  70
0
  62
51
  6
CONTINUOUS
  0
LAYER
  2
BLUE1
  70
0
  62
178
  6
CONTINUOUS
  0
LAYER
  2
GREEN1
  70
0
  62
98
  6
CONTINUOUS
  0
LAYER
  2
CYAN1
  70
0
  62
138
  6
CONTINUOUS
  0
LAYER
  2
RED1
  70
0
  62
18
  6
CONTINUOUS
  0
LAYER
  2
MAGENTA1
  70
0
  62
228
  6
CONTINUOUS
  0
LAYER
  2
BROWN1
  70
0
  62
58
  6
CONTINUOUS
  0
LAYER
  2
BLUE2
  70
0
  62
5
  6
CONTINUOUS
  0
LAYER
  2
GREEN2
  70
0
  62
3
  6
CONTINUOUS
  0
LAYER
  2
CYAN2
  70
0
  62
4
  6
CONTINUOUS
  0
LAYER
  2
RED2
  70
0
  62
1
  6
CONTINUOUS
  0
LAYER
  2
MAGENTA2
  70
0
  62
6
  6
CONTINUOUS
  0
LAYER
  2
BROWN2
  70
0
  62
54
  6
CONTINUOUS
  0
LAYER
  2
BLUE3
  70
0
  62
171
  6
CONTINUOUS
  0
LAYER
  2
GREEN3
  70
0
  62
91
  6
CONTINUOUS
  0
LAYER
  2
CYAN3
  70
0
  62
131
  6
CONTINUOUS
  0
LAYER
  2
RED3
  70
0
  62
11
  6
CONTINUOUS
  0
LAYER
  2
MAGENTA3
  70
0
  62
221
  6
CONTINUOUS
  0
LAYER
  2
YELLOW3
  70
0
  62
2
  6
CONTINUOUS
  0
LAYER
  2
BLUE4
  70
0
  62
5
  6
CONTINUOUS
  0
LAYER
  2
GREEN4
  70
0
  62
3
  6
CONTINUOUS
  0
LAYER
  2
CYAN4
  70
0
  62
4
  6
CONTINUOUS
  0
LAYER
  2
RED4
  70
0
  62
1
  6
CONTINUOUS
  0
LAYER
  2
MAGENTA4
  70
0
  62
6
  6
CONTINUOUS
  0
LAYER
  2
YELLOW4
  70
0
  62
2
  6
CONTINUOUS
  0
ENDTAB
  0
ENDSEC
  0
SECTION
  2
ENTITIES
0
LINE
8
Black
10
15.597
20
1.04499
11
15.6876
21
0.992691
0
LINE
8
Black
10
15.6876
20
0.992691
11
15.7548
21
0.912573
0
LINE
8
Black
10
15.7548
20
0.912573
11
15.7906
21
0.814293
0
LINE
8
Black
10
15.7906
20
0.814293
11
15.7906
21
0.709707
0
LINE
8
Black
10
15.7906
20
0.709707
11
15.7548
21
0.611427
0
LINE
8
Black
10
15.7548
20
0.611427
11
15.6876
21
0.531309
0
LINE
8
Black
10
15.6876
20
0.531309
11
15.597
21
0.479015
0
LINE
8
Black
10
15.597
20
0.479015
11
15.494
21
0.460854
0
LINE
8
Black
10
15.494
20
0.460854
11
15.391
21
0.479015
0
LINE
8
Black
10
15.391
20
0.479015
11
15.3004
21
0.531309
0
LINE
8
Black
10
15.3004
20
0.531309
11
15.2332
21
0.611427
0
LINE
8
Black
10
15.2332
20
0.611427
11
15.1974
21
0.709707
0
LINE
8
Black
10
15.1974
20
0.709707
11
15.1974
21
0.814293
0
LINE
8
Black
10
15.1974
20
0.814293
11
15.2332
21
0.912573
0
LINE
8
Black
10
15.2332
20
0.912573
11
15.3004
21
0.992691
0
LINE
8
Black
10
15.3004
20
0.992691
11
15.391
21
1.04499
0
LINE
8
Black
10
15.391
20
1.04499
11
15.494
21
1.06315
0
LINE
8
Black
10
15.494
20
1.06315
11
15.597
21
1.04499
0
LINE
8
Black
10
24.333
20
2.55299
11
24.4236
21
2.50069
0
LINE
8
Black
10
24.4236
20
2.50069
11
24.4908
21
2.42057
0
LINE
8
Black
10
24.4908
20
2.42057
11
24.5266
21
2.32229
0
LINE
8
Black
10
24.5266
20
2.32229
11
24.5266
21
2.21771
0
LINE
8
Black
10
24.5266
20
2.21771
11
24.4908
21
2.11943
0
LINE
8
Black
10
24.4908
20
2.11943
11
24.4236
21
2.03931
0
LINE
8
Black
10
24.4236
20
2.03931
11
24.333
21
1.98701
0
LINE
8
Black
10
24.333
20
1.98701
11
24.23
21
1.96885
0
LINE
8
Black
10
24.23
20
1.96885
11
24.127
21
1.98701
0
LINE
8
Black
10
24.127
20
1.98701
11
24.0364
21
2.03931
0
LINE
8
Black
10
24.0364
20
2.03931
11
23.9692
21
2.11943
0
LINE
8
Black
10
23.9692
20
2.11943
11
23.9334
21
2.21771
0
LINE
8
Black
10
23.9334
20
2.21771
11
23.9334
21
2.32229
0
LINE
8
Black
10
23.9334
20
2.32229
11
23.9692
21
2.42057
0
LINE
8
Black
10
23.9692
20
2.42057
11
24.0364
21
2.50069
0
LINE
8
Black
10
24.0364
20
2.50069
11
24.127
21
2.55299
0
LINE
8
Black
10
24.127
20
2.55299
11
24.23
21
2.57115
0
LINE
8
Black
10
24.23
20
2.57115
11
24.333
21
2.55299
0
LINE
8
Black
10
26.873
20
2.55299
11
26.9636
21
2.50069
0
LINE
8
Black
10
26.9636
20
2.50069
11
27.0308
21
2.42057
0
LINE
8
Black
10
27.0308
20
2.42057
11
27.0666
21
2.32229
0
LINE
8
Black
10
27.0666
20
2.32229
11
27.0666
21
2.21771
0
LINE
8
Black
10
27.0666
20
2.21771
11
27.0308
21
2.11943
0
LINE
8
Black
10
27.0308
20
2.11943
11
26.9636
21
2.03931
0
LINE
8
Black
10
26.9636
20
2.03931
11
26.873
21
1.98701
0
LINE
8
Black
10
26.873
20
1.98701
11
26.77
21
1.96885
0
LINE
8
Black
10
26.77
20
1.96885
11
26.667
21
1.98701
0
LINE
8
Black
10
26.667
20
1.98701
11
26.5764
21
2.03931
0
LINE
8
Black
10
26.5764
20
2.03931
11
26.5092
21
2.11943
0
LINE
8
Black
10
26.5092
20
2.11943
11
26.4734
21
2.21771
0
LINE
8
Black
10
26.4734
20
2.21771
11
26.4734
21
2.32229
0
LINE
8
Black
10
26.4734
20
2.32229
11
26.5092
21
2.42057
0
LINE
8
Black
10
26.5092
20
2.42057
11
26.5764
21
2.50069
0
LINE
8
Black
10
26.5764
20
2.50069
11
26.667
21
2.55299
0
LINE
8
Black
10
26.667
20
2.55299
11
26.77
21
2.57115
0
LINE
8
Black
10
26.77
20
2.57115
11
26.873
21
2.55299
0
LINE
8
Black
10
5.873
20
2.55299
11
5.96357
21
2.50069
0
LINE
8
Black
10
5.96357
20
2.50069
11
6.0308
21
2.42057
0
LINE
8
Black
10
6.0308
20
2.42057
11
6.06657
21
2.32229
0
LINE
8
Black
10
6.06657
20
2.32229
11
6.06657
21
2.21771
0
LINE
8
Black
10
6.06657
20
2.21771
11
6.0308
21
2.11943
0
LINE
8
Black
10
6.0308
20
2.11943
11
5.96357
21
2.03931
0
LINE
8
Black
10
5.96357
20
2.03931
11
5.873
21
1.98701
0
LINE
8
Black
10
5.873
20
1.98701
11
5.77
21
1.96885
0
LINE
8
Black
10
5.77
20
1.96885
11
5.667
21
1.98701
0
LINE
8
Black
10
5.667
20
1.98701
11
5.57643
21
2.03931
0
LINE
8
Black
10
5.57643
20
2.03931
11
5.5092
21
2.11943
0
LINE
8
Black
10
5.5092
20
2.11943
11
5.47343
21
2.21771
0
LINE
8
Black
10
5.47343
20
2.21771
11
5.47343
21
2.32229
0
LINE
8
Black
10
5.47343
20
2.32229
11
5.5092
21
2.42057
0
LINE
8
Black
10
5.5092
20
2.42057
11
5.57643
21
2.50069
0
LINE
8
Black
10
5.57643
20
2.50069
11
5.667
21
2.55299
0
LINE
8
Black
10
5.667
20
2.55299
11
5.77
21
2.57115
0
LINE
8
Black
10
5.77
20
2.57115
11
5.873
21
2.55299
0
LINE
8
Black
10
3.333
20
2.55299
11
3.42357
21
2.50069
0
LINE
8
Black
10
3.42357
20
2.50069
11
3.4908
21
2.42057
0
LINE
8
Black
10
3.4908
20
2.42057
11
3.52657
21
2.32229
0
LINE
8
Black
10
3.52657
20
2.32229
11
3.52657
21
2.21771
0
LINE
8
Black
10
3.52657
20
2.21771
11
3.4908
21
2.11943
0
LINE
8
Black
10
3.4908
20
2.11943
11
3.42357
21
2.03931
0
LINE
8
Black
10
3.42357
20
2.03931
11
3.333
21
1.98701
0
LINE
8
Black
10
3.333
20
1.98701
11
3.23
21
1.96885
0
LINE
8
Black
10
3.23
20
1.96885
11
3.127
21
1.98701
0
LINE
8
Black
10
3.127
20
1.98701
11
3.03643
21
2.03931
0
LINE
8
Black
10
3.03643
20
2.03931
11
2.9692
21
2.11943
0
LINE
8
Black
10
2.9692
20
2.11943
11
2.93343
21
2.21771
0
LINE
8
Black
10
2.93343
20
2.21771
11
2.93343
21
2.32229
0
LINE
8
Black
10
2.93343
20
2.32229
11
2.9692
21
2.42057
0
LINE
8
Black
10
2.9692
20
2.42057
11
3.03643
21
2.50069
0
LINE
8
Black
10
3.03643
20
2.50069
11
3.127
21
2.55299
0
LINE
8
Black
10
3.127
20
2.55299
11
3.23
21
2.57115
0
LINE
8
Black
10
3.23
20
2.57115
11
3.333
21
2.55299
0
LINE
8
Black
10
13.819
20
2.56899
11
13.9096
21
2.51669
0
LINE
8
Black
10
13.9096
20
2.51669
11
13.9768
21
2.43657
0
LINE
8
Black
10
13.9768
20
2.43657
11
14.0126
21
2.33829
0
LINE
8
Black
10
14.0126
20
2.33829
11
14.0126
21
2.23371
0
LINE
8
Black
10
14.0126
20
2.23371
11
13.9768
21
2.13543
0
LINE
8
Black
10
13.9768
20
2.13543
11
13.9096
21
2.05531
0
LINE
8
Black
10
13.9096
20
2.05531
11
13.819
21
2.00301
0
LINE
8
Black
10
13.819
20
2.00301
11
13.716
21
1.98485
0
LINE
8
Black
10
13.716
20
1.98485
11
13.613
21
2.00301
0
LINE
8
Black
10
13.613
20
2.00301
11
13.5224
21
2.05531
0
LINE
8
Black
10
13.5224
20
2.05531
11
13.4552
21
2.13543
0
LINE
8
Black
10
13.4552
20
2.13543
11
13.4194
21
2.23371
0
LINE
8
Black
10
13.4194
20
2.23371
11
13.4194
21
2.33829
0
LINE
8
Black
10
13.4194
20
2.33829
11
13.4552
21
2.43657
0
LINE
8
Black
10
13.4552
20
2.43657
11
13.5224
21
2.51669
0
LINE
8
Black
10
13.5224
20
2.51669
11
13.613
21
2.56899
0
LINE
8
Black
10
13.613
20
2.56899
11
13.716
21
2.58715
0
LINE
8
Black
10
13.716
20
2.58715
11
13.819
21
2.56899
0
LINE
8
Black
10
12.041
20
2.82299
11
12.1316
21
2.77069
0
LINE
8
Black
10
12.1316
20
2.77069
11
12.1988
21
2.69057
0
LINE
8
Black
10
12.1988
20
2.69057
11
12.2346
21
2.59229
0
LINE
8
Black
10
12.2346
20
2.59229
11
12.2346
21
2.48771
0
LINE
8
Black
10
12.2346
20
2.48771
11
12.1988
21
2.38943
0
LINE
8
Black
10
12.1988
20
2.38943
11
12.1316
21
2.30931
0
LINE
8
Black
10
12.1316
20
2.30931
11
12.041
21
2.25701
0
LINE
8
Black
10
12.041
20
2.25701
11
11.938
21
2.23885
0
LINE
8
Black
10
11.938
20
2.23885
11
11.835
21
2.25701
0
LINE
8
Black
10
11.835
20
2.25701
11
11.7444
21
2.30931
0
LINE
8
Black
10
11.7444
20
2.30931
11
11.6772
21
2.38943
0
LINE
8
Black
10
11.6772
20
2.38943
11
11.6414
21
2.48771
0
LINE
8
Black
10
11.6414
20
2.48771
11
11.6414
21
2.59229
0
LINE
8
Black
10
11.6414
20
2.59229
11
11.6772
21
2.69057
0
LINE
8
Black
10
11.6772
20
2.69057
11
11.7444
21
2.77069
0
LINE
8
Black
10
11.7444
20
2.77069
11
11.835
21
2.82299
0
LINE
8
Black
10
11.835
20
2.82299
11
11.938
21
2.84115
0
LINE
8
Black
10
11.938
20
2.84115
11
12.041
21
2.82299
0
LINE
8
Black
10
21.439
20
3.07699
11
21.5296
21
3.02469
0
LINE
8
Black
10
21.5296
20
3.02469
11
21.5968
21
2.94457
0
LINE
8
Black
10
21.5968
20
2.94457
11
21.6326
21
2.84629
0
LINE
8
Black
10
21.6326
20
2.84629
11
21.6326
21
2.74171
0
LINE
8
Black
10
21.6326
20
2.74171
11
21.5968
21
2.64343
0
LINE
8
Black
10
21.5968
20
2.64343
11
21.5296
21
2.56331
0
LINE
8
Black
10
21.5296
20
2.56331
11
21.439
21
2.51101
0
LINE
8
Black
10
21.439
20
2.51101
11
21.336
21
2.49285
0
LINE
8
Black
10
21.336
20
2.49285
11
21.233
21
2.51101
0
LINE
8
Black
10
21.233
20
2.51101
11
21.1424
21
2.56331
0
LINE
8
Black
10
21.1424
20
2.56331
11
21.0752
21
2.64343
0
LINE
8
Black
10
21.0752
20
2.64343
11
21.0394
21
2.74171
0
LINE
8
Black
10
21.0394
20
2.74171
11
21.0394
21
2.84629
0
LINE
8
Black
10
21.0394
20
2.84629
11
21.0752
21
2.94457
0
LINE
8
Black
10
21.0752
20
2.94457
11
21.1424
21
3.02469
0
LINE
8
Black
10
21.1424
20
3.02469
11
21.233
21
3.07699
0
LINE
8
Black
10
21.233
20
3.07699
11
21.336
21
3.09515
0
LINE
8
Black
10
21.336
20
3.09515
11
21.439
21
3.07699
0
LINE
8
Black
10
8.739
20
3.07699
11
8.82957
21
3.02469
0
LINE
8
Black
10
8.82957
20
3.02469
11
8.8968
21
2.94457
0
LINE
8
Black
10
8.8968
20
2.94457
11
8.93257
21
2.84629
0
LINE
8
Black
10
8.93257
20
2.84629
11
8.93257
21
2.74171
0
LINE
8
Black
10
8.93257
20
2.74171
11
8.8968
21
2.64343
0
LINE
8
Black
10
8.8968
20
2.64343
11
8.82957
21
2.56331
0
LINE
8
Black
10
8.82957
20
2.56331
11
8.739
21
2.51101
0
LINE
8
Black
10
8.739
20
2.51101
11
8.636
21
2.49285
0
LINE
8
Black
10
8.636
20
2.49285
11
8.533
21
2.51101
0
LINE
8
Black
10
8.533
20
2.51101
11
8.44243
21
2.56331
0
LINE
8
Black
10
8.44243
20
2.56331
11
8.3752
21
2.64343
0
LINE
8
Black
10
8.3752
20
2.64343
11
8.33943
21
2.74171
0
LINE
8
Black
10
8.33943
20
2.74171
11
8.33943
21
2.84629
0
LINE
8
Black
10
8.33943
20
2.84629
11
8.3752
21
2.94457
0
LINE
8
Black
10
8.3752
20
2.94457
11
8.44243
21
3.02469
0
LINE
8
Black
10
8.44243
20
3.02469
11
8.533
21
3.07699
0
LINE
8
Black
10
8.533
20
3.07699
11
8.636
21
3.09515
0
LINE
8
Black
10
8.636
20
3.09515
11
8.739
21
3.07699
0
LINE
8
Black
10
18.645
20
3.83898
11
18.7356
21
3.78669
0
LINE
8
Black
10
18.7356
20
3.78669
11
18.8028
21
3.70657
0
LINE
8
Black
10
18.8028
20
3.70657
11
18.8386
21
3.60829
0
LINE
8
Black
10
18.8386
20
3.60829
11
18.8386
21
3.50371
0
LINE
8
Black
10
18.8386
20
3.50371
11
18.8028
21
3.40543
0
LINE
8
Black
10
18.8028
20
3.40543
11
18.7356
21
3.32531
0
LINE
8
Black
10
18.7356
20
3.32531
11
18.645
21
3.27302
0
LINE
8
Black
10
18.645
20
3.27302
11
18.542
21
3.25485
0
LINE
8
Black
10
18.542
20
3.25485
11
18.439
21
3.27302
0
LINE
8
Black
10
18.439
20
3.27302
11
18.3484
21
3.32531
0
LINE
8
Black
10
18.3484
20
3.32531
11
18.2812
21
3.40543
0
LINE
8
Black
10
18.2812
20
3.40543
11
18.2454
21
3.50371
0
LINE
8
Black
10
18.2454
20
3.50371
11
18.2454
21
3.60829
0
LINE
8
Black
10
18.2454
20
3.60829
11
18.2812
21
3.70657
0
LINE
8
Black
10
18.2812
20
3.70657
11
18.3484
21
3.78669
0
LINE
8
Black
10
18.3484
20
3.78669
11
18.439
21
3.83898
0
LINE
8
Black
10
18.439
20
3.83898
11
18.542
21
3.85715
0
LINE
8
Black
10
18.542
20
3.85715
11
18.645
21
3.83898
0
LINE
8
Black
10
12.103
20
3.88298
11
12.1936
21
3.83069
0
LINE
8
Black
10
12.1936
20
3.83069
11
12.2608
21
3.75057
0
LINE
8
Black
10
12.2608
20
3.75057
11
12.2966
21
3.65229
0
LINE
8
Black
10
12.2966
20
3.65229
11
12.2966
21
3.54771
0
LINE
8
Black
10
12.2966
20
3.54771
11
12.2608
21
3.44943
0
LINE
8
Black
10
12.2608
20
3.44943
11
12.1936
21
3.36931
0
LINE
8
Black
10
12.1936
20
3.36931
11
12.103
21
3.31702
0
LINE
8
Black
10
12.103
20
3.31702
11
12
21
3.29885
0
LINE
8
Black
10
12
20
3.29885
11
11.897
21
3.31702
0
LINE
8
Black
10
11.897
20
3.31702
11
11.8064
21
3.36931
0
LINE
8
Black
10
11.8064
20
3.36931
11
11.7392
21
3.44943
0
LINE
8
Black
10
11.7392
20
3.44943
11
11.7034
21
3.54771
0
LINE
8
Black
10
11.7034
20
3.54771
11
11.7034
21
3.65229
0
LINE
8
Black
10
11.7034
20
3.65229
11
11.7392
21
3.75057
0
LINE
8
Black
10
11.7392
20
3.75057
11
11.8064
21
3.83069
0
LINE
8
Black
10
11.8064
20
3.83069
11
11.897
21
3.88298
0
LINE
8
Black
10
11.897
20
3.88298
11
12
21
3.90115
0
LINE
8
Black
10
12
20
3.90115
11
12.103
21
3.88298
0
LINE
8
Black
10
11.303
20
4.58298
11
11.3936
21
4.53069
0
LINE
8
Black
10
11.3936
20
4.53069
11
11.4608
21
4.45057
0
LINE
8
Black
10
11.4608
20
4.45057
11
11.4966
21
4.35229
0
LINE
8
Black
10
11.4966
20
4.35229
11
11.4966
21
4.24771
0
LINE
8
Black
10
11.4966
20
4.24771
11
11.4608
21
4.14943
0
LINE
8
Black
10
11.4608
20
4.14943
11
11.3936
21
4.06931
0
LINE
8
Black
10
11.3936
20
4.06931
11
11.303
21
4.01701
0
LINE
8
Black
10
11.303
20
4.01701
11
11.2
21
3.99885
0
LINE
8
Black
10
11.2
20
3.99885
11
11.097
21
4.01701
0
LINE
8
Black
10
11.097
20
4.01701
11
11.0064
21
4.06931
0
LINE
8
Black
10
11.0064
20
4.06931
11
10.9392
21
4.14943
0
LINE
8
Black
10
10.9392
20
4.14943
11
10.9034
21
4.24771
0
LINE
8
Black
10
10.9034
20
4.24771
11
10.9034
21
4.35229
0
LINE
8
Black
10
10.9034
20
4.35229
11
10.9392
21
4.45057
0
LINE
8
Black
10
10.9392
20
4.45057
11
11.0064
21
4.53069
0
LINE
8
Black
10
11.0064
20
4.53069
11
11.097
21
4.58298
0
LINE
8
Black
10
11.097
20
4.58298
11
11.2
21
4.60115
0
LINE
8
Black
10
11.2
20
4.60115
11
11.303
21
4.58298
0
LINE
8
Black
10
16.703
20
5.58298
11
16.7936
21
5.53069
0
LINE
8
Black
10
16.7936
20
5.53069
11
16.8608
21
5.45057
0
LINE
8
Black
10
16.8608
20
5.45057
11
16.8966
21
5.35229
0
LINE
8
Black
10
16.8966
20
5.35229
11
16.8966
21
5.24771
0
LINE
8
Black
10
16.8966
20
5.24771
11
16.8608
21
5.14943
0
LINE
8
Black
10
16.8608
20
5.14943
11
16.7936
21
5.06931
0
LINE
8
Black
10
16.7936
20
5.06931
11
16.703
21
5.01701
0
LINE
8
Black
10
16.703
20
5.01701
11
16.6
21
4.99885
0
LINE
8
Black
10
16.6
20
4.99885
11
16.497
21
5.01701
0
LINE
8
Black
10
16.497
20
5.01701
11
16.4064
21
5.06931
0
LINE
8
Black
10
16.4064
20
5.06931
11
16.3392
21
5.14943
0
LINE
8
Black
10
16.3392
20
5.14943
11
16.3034
21
5.24771
0
LINE
8
Black
10
16.3034
20
5.24771
11
16.3034
21
5.35229
0
LINE
8
Black
10
16.3034
20
5.35229
11
16.3392
21
5.45057
0
LINE
8
Black
10
16.3392
20
5.45057
11
16.4064
21
5.53069
0
LINE
8
Black
10
16.4064
20
5.53069
11
16.497
21
5.58298
0
LINE
8
Black
10
16.497
20
5.58298
11
16.6
21
5.60115
0
LINE
8
Black
10
16.6
20
5.60115
11
16.703
21
5.58298
0
LINE
8
Black
10
8.903
20
5.68298
11
8.99357
21
5.63069
0
LINE
8
Black
10
8.99357
20
5.63069
11
9.0608
21
5.55057
0
LINE
8
Black
10
9.0608
20
5.55057
11
9.09657
21
5.45229
0
LINE
8
Black
10
9.09657
20
5.45229
11
9.09657
21
5.34771
0
LINE
8
Black
10
9.09657
20
5.34771
11
9.0608
21
5.24943
0
LINE
8
Black
10
9.0608
20
5.24943
11
8.99357
21
5.16931
0
LINE
8
Black
10
8.99357
20
5.16931
11
8.903
21
5.11701
0
LINE
8
Black
10
8.903
20
5.11701
11
8.8
21
5.09885
0
LINE
8
Black
10
8.8
20
5.09885
11
8.697
21
5.11701
0
LINE
8
Black
10
8.697
20
5.11701
11
8.60643
21
5.16931
0
LINE
8
Black
10
8.60643
20
5.16931
11
8.5392
21
5.24943
0
LINE
8
Black
10
8.5392
20
5.24943
11
8.50343
21
5.34771
0
LINE
8
Black
10
8.50343
20
5.34771
11
8.50343
21
5.45229
0
LINE
8
Black
10
8.50343
20
5.45229
11
8.5392
21
5.55057
0
LINE
8
Black
10
8.5392
20
5.55057
11
8.60643
21
5.63069
0
LINE
8
Black
10
8.60643
20
5.63069
11
8.697
21
5.68298
0
LINE
8
Black
10
8.697
20
5.68298
11
8.8
21
5.70115
0
LINE
8
Black
10
8.8
20
5.70115
11
8.903
21
5.68298
0
LINE
8
Black
10
2.703
20
5.88298
11
2.79357
21
5.83069
0
LINE
8
Black
10
2.79357
20
5.83069
11
2.8608
21
5.75057
0
LINE
8
Black
10
2.8608
20
5.75057
11
2.89657
21
5.65229
0
LINE
8
Black
10
2.89657
20
5.65229
11
2.89657
21
5.54771
0
LINE
8
Black
10
2.89657
20
5.54771
11
2.8608
21
5.44943
0
LINE
8
Black
10
2.8608
20
5.44943
11
2.79357
21
5.36931
0
LINE
8
Black
10
2.79357
20
5.36931
11
2.703
21
5.31701
0
LINE
8
Black
10
2.703
20
5.31701
11
2.6
21
5.29885
0
LINE
8
Black
10
2.6
20
5.29885
11
2.497
21
5.31701
0
LINE
8
Black
10
2.497
20
5.31701
11
2.40643
21
5.36931
0
LINE
8
Black
10
2.40643
20
5.36931
11
2.3392
21
5.44943
0
LINE
8
Black
10
2.3392
20
5.44943
11
2.30343
21
5.54771
0
LINE
8
Black
10
2.30343
20
5.54771
11
2.30343
21
5.65229
0
LINE
8
Black
10
2.30343
20
5.65229
11
2.3392
21
5.75057
0
LINE
8
Black
10
2.3392
20
5.75057
11
2.40643
21
5.83069
0
LINE
8
Black
10
2.40643
20
5.83069
11
2.497
21
5.88298
0
LINE
8
Black
10
2.497
20
5.88298
11
2.6
21
5.90115
0
LINE
8
Black
10
2.6
20
5.90115
11
2.703
21
5.88298
0
LINE
8
Black
10
10.303
20
5.88298
11
10.3936
21
5.83069
0
LINE
8
Black
10
10.3936
20
5.83069
11
10.4608
21
5.75057
0
LINE
8
Black
10
10.4608
20
5.75057
11
10.4966
21
5.65229
0
LINE
8
Black
10
10.4966
20
5.65229
11
10.4966
21
5.54771
0
LINE
8
Black
10
10.4966
20
5.54771
11
10.4608
21
5.44943
0
LINE
8
Black
10
10.4608
20
5.44943
11
10.3936
21
5.36931
0
LINE
8
Black
10
10.3936
20
5.36931
11
10.303
21
5.31701
0
LINE
8
Black
10
10.303
20
5.31701
11
10.2
21
5.29885
0
LINE
8
Black
10
10.2
20
5.29885
11
10.097
21
5.31701
0
LINE
8
Black
10
10.097
20
5.31701
11
10.0064
21
5.36931
0
LINE
8
Black
10
10.0064
20
5.36931
11
9.9392
21
5.44943
0
LINE
8
Black
10
9.9392
20
5.44943
11
9.90343
21
5.54771
0
LINE
8
Black
10
9.90343
20
5.54771
11
9.90343
21
5.65229
0
LINE
8
Black
10
9.90343
20
5.65229
11
9.9392
21
5.75057
0
LINE
8
Black
10
9.9392
20
5.75057
11
10.0064
21
5.83069
0
LINE
8
Black
10
10.0064
20
5.83069
11
10.097
21
5.88298
0
LINE
8
Black
10
10.097
20
5.88298
11
10.2
21
5.90115
0
LINE
8
Black
10
10.2
20
5.90115
11
10.303
21
5.88298
0
LINE
8
Black
10
15.103
20
5.88298
11
15.1936
21
5.83069
0
LINE
8
Black
10
15.1936
20
5.83069
11
15.2608
21
5.75057
0
LINE
8
Black
10
15.2608
20
5.75057
11
15.2966
21
5.65229
0
LINE
8
Black
10
15.2966
20
5.65229
11
15.2966
21
5.54771
0
LINE
8
Black
10
15.2966
20
5.54771
11
15.2608
21
5.44943
0
LINE
8
Black
10
15.2608
20
5.44943
11
15.1936
21
5.36931
0
LINE
8
Black
10
15.1936
20
5.36931
11
15.103
21
5.31701
0
LINE
8
Black
10
15.103
20
5.31701
11
15
21
5.29885
0
LINE
8
Black
10
15
20
5.29885
11
14.897
21
5.31701
0
LINE
8
Black
10
14.897
20
5.31701
11
14.8064
21
5.36931
0
LINE
8
Black
10
14.8064
20
5.36931
11
14.7392
21
5.44943
0
LINE
8
Black
10
14.7392
20
5.44943
11
14.7034
21
5.54771
0
LINE
8
Black
10
14.7034
20
5.54771
11
14.7034
21
5.65229
0
LINE
8
Black
10
14.7034
20
5.65229
11
14.7392
21
5.75057
0
LINE
8
Black
10
14.7392
20
5.75057
11
14.8064
21
5.83069
0
LINE
8
Black
10
14.8064
20
5.83069
11
14.897
21
5.88298
0
LINE
8
Black
10
14.897
20
5.88298
11
15
21
5.90115
0
LINE
8
Black
10
15
20
5.90115
11
15.103
21
5.88298
0
LINE
8
Black
10
18.103
20
6.28299
11
18.1936
21
6.23069
0
LINE
8
Black
10
18.1936
20
6.23069
11
18.2608
21
6.15057
0
LINE
8
Black
10
18.2608
20
6.15057
11
18.2966
21
6.05229
0
LINE
8
Black
10
18.2966
20
6.05229
11
18.2966
21
5.94771
0
LINE
8
Black
10
18.2966
20
5.94771
11
18.2608
21
5.84943
0
LINE
8
Black
10
18.2608
20
5.84943
11
18.1936
21
5.76931
0
LINE
8
Black
10
18.1936
20
5.76931
11
18.103
21
5.71701
0
LINE
8
Black
10
18.103
20
5.71701
11
18
21
5.69885
0
LINE
8
Black
10
18
20
5.69885
11
17.897
21
5.71701
0
LINE
8
Black
10
17.897
20
5.71701
11
17.8064
21
5.76931
0
LINE
8
Black
10
17.8064
20
5.76931
11
17.7392
21
5.84943
0
LINE
8
Black
10
17.7392
20
5.84943
11
17.7034
21
5.94771
0
LINE
8
Black
10
17.7034
20
5.94771
11
17.7034
21
6.05229
0
LINE
8
Black
10
17.7034
20
6.05229
11
17.7392
21
6.15057
0
LINE
8
Black
10
17.7392
20
6.15057
11
17.8064
21
6.23069
0
LINE
8
Black
10
17.8064
20
6.23069
11
17.897
21
6.28299
0
LINE
8
Black
10
17.897
20
6.28299
11
18
21
6.30115
0
LINE
8
Black
10
18
20
6.30115
11
18.103
21
6.28299
0
LINE
8
Black
10
19.303
20
6.58298
11
19.3936
21
6.53069
0
LINE
8
Black
10
19.3936
20
6.53069
11
19.4608
21
6.45057
0
LINE
8
Black
10
19.4608
20
6.45057
11
19.4966
21
6.35229
0
LINE
8
Black
10
19.4966
20
6.35229
11
19.4966
21
6.24771
0
LINE
8
Black
10
19.4966
20
6.24771
11
19.4608
21
6.14943
0
LINE
8
Black
10
19.4608
20
6.14943
11
19.3936
21
6.06931
0
LINE
8
Black
10
19.3936
20
6.06931
11
19.303
21
6.01701
0
LINE
8
Black
10
19.303
20
6.01701
11
19.2
21
5.99885
0
LINE
8
Black
10
19.2
20
5.99885
11
19.097
21
6.01701
0
LINE
8
Black
10
19.097
20
6.01701
11
19.0064
21
6.06931
0
LINE
8
Black
10
19.0064
20
6.06931
11
18.9392
21
6.14943
0
LINE
8
Black
10
18.9392
20
6.14943
11
18.9034
21
6.24771
0
LINE
8
Black
10
18.9034
20
6.24771
11
18.9034
21
6.35229
0
LINE
8
Black
10
18.9034
20
6.35229
11
18.9392
21
6.45057
0
LINE
8
Black
10
18.9392
20
6.45057
11
19.0064
21
6.53069
0
LINE
8
Black
10
19.0064
20
6.53069
11
19.097
21
6.58298
0
LINE
8
Black
10
19.097
20
6.58298
11
19.2
21
6.60115
0
LINE
8
Black
10
19.2
20
6.60115
11
19.303
21
6.58298
0
LINE
8
Black
10
13.7775
20
6.74942
11
13.868
21
6.69712
0
LINE
8
Black
10
13.868
20
6.69712
11
13.9353
21
6.617
0
LINE
8
Black
10
13.9353
20
6.617
11
13.971
21
6.51872
0
LINE
8
Black
10
13.971
20
6.51872
11
13.971
21
6.41414
0
LINE
8
Black
10
13.971
20
6.41414
11
13.9353
21
6.31586
0
LINE
8
Black
10
13.9353
20
6.31586
11
13.868
21
6.23574
0
LINE
8
Black
10
13.868
20
6.23574
11
13.7775
21
6.18345
0
LINE
8
Black
10
13.7775
20
6.18345
11
13.6745
21
6.16528
0
LINE
8
Black
10
13.6745
20
6.16528
11
13.5715
21
6.18345
0
LINE
8
Black
10
13.5715
20
6.18345
11
13.4809
21
6.23574
0
LINE
8
Black
10
13.4809
20
6.23574
11
13.4137
21
6.31586
0
LINE
8
Black
10
13.4137
20
6.31586
11
13.3779
21
6.41414
0
LINE
8
Black
10
13.3779
20
6.41414
11
13.3779
21
6.51872
0
LINE
8
Black
10
13.3779
20
6.51872
11
13.4137
21
6.617
0
LINE
8
Black
10
13.4137
20
6.617
11
13.4809
21
6.69712
0
LINE
8
Black
10
13.4809
20
6.69712
11
13.5715
21
6.74942
0
LINE
8
Black
10
13.5715
20
6.74942
11
13.6745
21
6.76758
0
LINE
8
Black
10
13.6745
20
6.76758
11
13.7775
21
6.74942
0
LINE
8
Black
10
10.103
20
7.08298
11
10.1936
21
7.03069
0
LINE
8
Black
10
10.1936
20
7.03069
11
10.2608
21
6.95057
0
LINE
8
Black
10
10.2608
20
6.95057
11
10.2966
21
6.85229
0
LINE
8
Black
10
10.2966
20
6.85229
11
10.2966
21
6.74771
0
LINE
8
Black
10
10.2966
20
6.74771
11
10.2608
21
6.64943
0
LINE
8
Black
10
10.2608
20
6.64943
11
10.1936
21
6.56931
0
LINE
8
Black
10
10.1936
20
6.56931
11
10.103
21
6.51701
0
LINE
8
Black
10
10.103
20
6.51701
11
10
21
6.49885
0
LINE
8
Black
10
10
20
6.49885
11
9.897
21
6.51701
0
LINE
8
Black
10
9.897
20
6.51701
11
9.80643
21
6.56931
0
LINE
8
Black
10
9.80643
20
6.56931
11
9.7392
21
6.64943
0
LINE
8
Black
10
9.7392
20
6.64943
11
9.70343
21
6.74771
0
LINE
8
Black
10
9.70343
20
6.74771
11
9.70343
21
6.85229
0
LINE
8
Black
10
9.70343
20
6.85229
11
9.7392
21
6.95057
0
LINE
8
Black
10
9.7392
20
6.95057
11
9.80643
21
7.03069
0
LINE
8
Black
10
9.80643
20
7.03069
11
9.897
21
7.08298
0
LINE
8
Black
10
9.897
20
7.08298
11
10
21
7.10115
0
LINE
8
Black
10
10
20
7.10115
11
10.103
21
7.08298
0
LINE
8
Black
10
20.103
20
7.18298
11
20.1936
21
7.13069
0
LINE
8
Black
10
20.1936
20
7.13069
11
20.2608
21
7.05057
0
LINE
8
Black
10
20.2608
20
7.05057
11
20.2966
21
6.95229
0
LINE
8
Black
10
20.2966
20
6.95229
11
20.2966
21
6.84771
0
LINE
8
Black
10
20.2966
20
6.84771
11
20.2608
21
6.74943
0
LINE
8
Black
10
20.2608
20
6.74943
11
20.1936
21
6.66931
0
LINE
8
Black
10
20.1936
20
6.66931
11
20.103
21
6.61701
0
LINE
8
Black
10
20.103
20
6.61701
11
20
21
6.59885
0
LINE
8
Black
10
20
20
6.59885
11
19.897
21
6.61701
0
LINE
8
Black
10
19.897
20
6.61701
11
19.8064
21
6.66931
0
LINE
8
Black
10
19.8064
20
6.66931
11
19.7392
21
6.74943
0
LINE
8
Black
10
19.7392
20
6.74943
11
19.7034
21
6.84771
0
LINE
8
Black
10
19.7034
20
6.84771
11
19.7034
21
6.95229
0
LINE
8
Black
10
19.7034
20
6.95229
11
19.7392
21
7.05057
0
LINE
8
Black
10
19.7392
20
7.05057
11
19.8064
21
7.13069
0
LINE
8
Black
10
19.8064
20
7.13069
11
19.897
21
7.18298
0
LINE
8
Black
10
19.897
20
7.18298
11
20
21
7.20115
0
LINE
8
Black
10
20
20
7.20115
11
20.103
21
7.18298
0
LINE
8
Black
10
3.024
20
7.58548
11
3.11457
21
7.53319
0
LINE
8
Black
10
3.11457
20
7.53319
11
3.1818
21
7.45307
0
LINE
8
Black
10
3.1818
20
7.45307
11
3.21757
21
7.35479
0
LINE
8
Black
10
3.21757
20
7.35479
11
3.21757
21
7.25021
0
LINE
8
Black
10
3.21757
20
7.25021
11
3.1818
21
7.15193
0
LINE
8
Black
10
3.1818
20
7.15193
11
3.11457
21
7.07181
0
LINE
8
Black
10
3.11457
20
7.07181
11
3.024
21
7.01951
0
LINE
8
Black
10
3.024
20
7.01951
11
2.921
21
7.00135
0
LINE
8
Black
10
2.921
20
7.00135
11
2.818
21
7.01951
0
LINE
8
Black
10
2.818
20
7.01951
11
2.72743
21
7.07181
0
LINE
8
Black
10
2.72743
20
7.07181
11
2.6602
21
7.15193
0
LINE
8
Black
10
2.6602
20
7.15193
11
2.62443
21
7.25021
0
LINE
8
Black
10
2.62443
20
7.25021
11
2.62443
21
7.35479
0
LINE
8
Black
10
2.62443
20
7.35479
11
2.6602
21
7.45307
0
LINE
8
Black
10
2.6602
20
7.45307
11
2.72743
21
7.53319
0
LINE
8
Black
10
2.72743
20
7.53319
11
2.818
21
7.58548
0
LINE
8
Black
10
2.818
20
7.58548
11
2.921
21
7.60365
0
LINE
8
Black
10
2.921
20
7.60365
11
3.024
21
7.58548
0
LINE
8
Black
10
21.947
20
7.78299
11
22.0376
21
7.73069
0
LINE
8
Black
10
22.0376
20
7.73069
11
22.1048
21
7.65057
0
LINE
8
Black
10
22.1048
20
7.65057
11
22.1406
21
7.55229
0
LINE
8
Black
10
22.1406
20
7.55229
11
22.1406
21
7.44771
0
LINE
8
Black
10
22.1406
20
7.44771
11
22.1048
21
7.34943
0
LINE
8
Black
10
22.1048
20
7.34943
11
22.0376
21
7.26931
0
LINE
8
Black
10
22.0376
20
7.26931
11
21.947
21
7.21701
0
LINE
8
Black
10
21.947
20
7.21701
11
21.844
21
7.19885
0
LINE
8
Black
10
21.844
20
7.19885
11
21.741
21
7.21701
0
LINE
8
Black
10
21.741
20
7.21701
11
21.6504
21
7.26931
0
LINE
8
Black
10
21.6504
20
7.26931
11
21.5832
21
7.34943
0
LINE
8
Black
10
21.5832
20
7.34943
11
21.5474
21
7.44771
0
LINE
8
Black
10
21.5474
20
7.44771
11
21.5474
21
7.55229
0
LINE
8
Black
10
21.5474
20
7.55229
11
21.5832
21
7.65057
0
LINE
8
Black
10
21.5832
20
7.65057
11
21.6504
21
7.73069
0
LINE
8
Black
10
21.6504
20
7.73069
11
21.741
21
7.78299
0
LINE
8
Black
10
21.741
20
7.78299
11
21.844
21
7.80115
0
LINE
8
Black
10
21.844
20
7.80115
11
21.947
21
7.78299
0
LINE
8
Black
10
12.803
20
7.98298
11
12.8936
21
7.93069
0
LINE
8
Black
10
12.8936
20
7.93069
11
12.9608
21
7.85057
0
LINE
8
Black
10
12.9608
20
7.85057
11
12.9966
21
7.75229
0
LINE
8
Black
10
12.9966
20
7.75229
11
12.9966
21
7.64771
0
LINE
8
Black
10
12.9966
20
7.64771
11
12.9608
21
7.54943
0
LINE
8
Black
10
12.9608
20
7.54943
11
12.8936
21
7.46931
0
LINE
8
Black
10
12.8936
20
7.46931
11
12.803
21
7.41701
0
LINE
8
Black
10
12.803
20
7.41701
11
12.7
21
7.39885
0
LINE
8
Black
10
12.7
20
7.39885
11
12.597
21
7.41701
0
LINE
8
Black
10
12.597
20
7.41701
11
12.5064
21
7.46931
0
LINE
8
Black
10
12.5064
20
7.46931
11
12.4392
21
7.54943
0
LINE
8
Black
10
12.4392
20
7.54943
11
12.4034
21
7.64771
0
LINE
8
Black
10
12.4034
20
7.64771
11
12.4034
21
7.75229
0
LINE
8
Black
10
12.4034
20
7.75229
11
12.4392
21
7.85057
0
LINE
8
Black
10
12.4392
20
7.85057
11
12.5064
21
7.93069
0
LINE
8
Black
10
12.5064
20
7.93069
11
12.597
21
7.98298
0
LINE
8
Black
10
12.597
20
7.98298
11
12.7
21
8.00115
0
LINE
8
Black
10
12.7
20
8.00115
11
12.803
21
7.98298
0
LINE
8
Black
10
6.793
20
8.03299
11
6.88357
21
7.98069
0
LINE
8
Black
10
6.88357
20
7.98069
11
6.9508
21
7.90057
0
LINE
8
Black
10
6.9508
20
7.90057
11
6.98657
21
7.80229
0
LINE
8
Black
10
6.98657
20
7.80229
11
6.98657
21
7.69771
0
LINE
8
Black
10
6.98657
20
7.69771
11
6.9508
21
7.59943
0
LINE
8
Black
10
6.9508
20
7.59943
11
6.88357
21
7.51931
0
LINE
8
Black
10
6.88357
20
7.51931
11
6.793
21
7.46701
0
LINE
8
Black
10
6.793
20
7.46701
11
6.69
21
7.44885
0
LINE
8
Black
10
6.69
20
7.44885
11
6.587
21
7.46701
0
LINE
8
Black
10
6.587
20
7.46701
11
6.49643
21
7.51931
0
LINE
8
Black
10
6.49643
20
7.51931
11
6.4292
21
7.59943
0
LINE
8
Black
10
6.4292
20
7.59943
11
6.39343
21
7.69771
0
LINE
8
Black
10
6.39343
20
7.69771
11
6.39343
21
7.80229
0
LINE
8
Black
10
6.39343
20
7.80229
11
6.4292
21
7.90057
0
LINE
8
Black
10
6.4292
20
7.90057
11
6.49643
21
7.98069
0
LINE
8
Black
10
6.49643
20
7.98069
11
6.587
21
8.03299
0
LINE
8
Black
10
6.587
20
8.03299
11
6.69
21
8.05115
0
LINE
8
Black
10
6.69
20
8.05115
11
6.793
21
8.03299
0
LINE
8
Black
10
16.903
20
8.18299
11
16.9936
21
8.13069
0
LINE
8
Black
10
16.9936
20
8.13069
11
17.0608
21
8.05057
0
LINE
8
Black
10
17.0608
20
8.05057
11
17.0966
21
7.95229
0
LINE
8
Black
10
17.0966
20
7.95229
11
17.0966
21
7.84771
0
LINE
8
Black
10
17.0966
20
7.84771
11
17.0608
21
7.74943
0
LINE
8
Black
10
17.0608
20
7.74943
11
16.9936
21
7.66931
0
LINE
8
Black
10
16.9936
20
7.66931
11
16.903
21
7.61701
0
LINE
8
Black
10
16.903
20
7.61701
11
16.8
21
7.59885
0
LINE
8
Black
10
16.8
20
7.59885
11
16.697
21
7.61701
0
LINE
8
Black
10
16.697
20
7.61701
11
16.6064
21
7.66931
0
LINE
8
Black
10
16.6064
20
7.66931
11
16.5392
21
7.74943
0
LINE
8
Black
10
16.5392
20
7.74943
11
16.5034
21
7.84771
0
LINE
8
Black
10
16.5034
20
7.84771
11
16.5034
21
7.95229
0
LINE
8
Black
10
16.5034
20
7.95229
11
16.5392
21
8.05057
0
LINE
8
Black
10
16.5392
20
8.05057
11
16.6064
21
8.13069
0
LINE
8
Black
10
16.6064
20
8.13069
11
16.697
21
8.18299
0
LINE
8
Black
10
16.697
20
8.18299
11
16.8
21
8.20115
0
LINE
8
Black
10
16.8
20
8.20115
11
16.903
21
8.18299
0
LINE
8
Black
10
22.703
20
8.36897
11
22.7936
21
8.31668
0
LINE
8
Black
10
22.7936
20
8.31668
11
22.8608
21
8.23656
0
LINE
8
Black
10
22.8608
20
8.23656
11
22.8966
21
8.13828
0
LINE
8
Black
10
22.8966
20
8.13828
11
22.8966
21
8.0337
0
LINE
8
Black
10
22.8966
20
8.0337
11
22.8608
21
7.93542
0
LINE
8
Black
10
22.8608
20
7.93542
11
22.7936
21
7.8553
0
LINE
8
Black
10
22.7936
20
7.8553
11
22.703
21
7.803
0
LINE
8
Black
10
22.703
20
7.803
11
22.6
21
7.78484
0
LINE
8
Black
10
22.6
20
7.78484
11
22.497
21
7.803
0
LINE
8
Black
10
22.497
20
7.803
11
22.4064
21
7.8553
0
LINE
8
Black
10
22.4064
20
7.8553
11
22.3392
21
7.93542
0
LINE
8
Black
10
22.3392
20
7.93542
11
22.3034
21
8.0337
0
LINE
8
Black
10
22.3034
20
8.0337
11
22.3034
21
8.13828
0
LINE
8
Black
10
22.3034
20
8.13828
11
22.3392
21
8.23656
0
LINE
8
Black
10
22.3392
20
8.23656
11
22.4064
21
8.31668
0
LINE
8
Black
10
22.4064
20
8.31668
11
22.497
21
8.36897
0
LINE
8
Black
10
22.497
20
8.36897
11
22.6
21
8.38714
0
LINE
8
Black
10
22.6
20
8.38714
11
22.703
21
8.36897
0
LINE
8
Black
10
15.803
20
8.78299
11
15.8936
21
8.73069
0
LINE
8
Black
10
15.8936
20
8.73069
11
15.9608
21
8.65057
0
LINE
8
Black
10
15.9608
20
8.65057
11
15.9966
21
8.55229
0
LINE
8
Black
10
15.9966
20
8.55229
11
15.9966
21
8.44771
0
LINE
8
Black
10
15.9966
20
8.44771
11
15.9608
21
8.34943
0
LINE
8
Black
10
15.9608
20
8.34943
11
15.8936
21
8.26931
0
LINE
8
Black
10
15.8936
20
8.26931
11
15.803
21
8.21701
0
LINE
8
Black
10
15.803
20
8.21701
11
15.7
21
8.19885
0
LINE
8
Black
10
15.7
20
8.19885
11
15.597
21
8.21701
0
LINE
8
Black
10
15.597
20
8.21701
11
15.5064
21
8.26931
0
LINE
8
Black
10
15.5064
20
8.26931
11
15.4392
21
8.34943
0
LINE
8
Black
10
15.4392
20
8.34943
11
15.4034
21
8.44771
0
LINE
8
Black
10
15.4034
20
8.44771
11
15.4034
21
8.55229
0
LINE
8
Black
10
15.4034
20
8.55229
11
15.4392
21
8.65057
0
LINE
8
Black
10
15.4392
20
8.65057
11
15.5064
21
8.73069
0
LINE
8
Black
10
15.5064
20
8.73069
11
15.597
21
8.78299
0
LINE
8
Black
10
15.597
20
8.78299
11
15.7
21
8.80115
0
LINE
8
Black
10
15.7
20
8.80115
11
15.803
21
8.78299
0
LINE
8
Black
10
5.803
20
8.78299
11
5.89357
21
8.73069
0
LINE
8
Black
10
5.89357
20
8.73069
11
5.9608
21
8.65057
0
LINE
8
Black
10
5.9608
20
8.65057
11
5.99657
21
8.55229
0
LINE
8
Black
10
5.99657
20
8.55229
11
5.99657
21
8.44771
0
LINE
8
Black
10
5.99657
20
8.44771
11
5.9608
21
8.34943
0
LINE
8
Black
10
5.9608
20
8.34943
11
5.89357
21
8.26931
0
LINE
8
Black
10
5.89357
20
8.26931
11
5.803
21
8.21701
0
LINE
8
Black
10
5.803
20
8.21701
11
5.7
21
8.19885
0
LINE
8
Black
10
5.7
20
8.19885
11
5.597
21
8.21701
0
LINE
8
Black
10
5.597
20
8.21701
11
5.50643
21
8.26931
0
LINE
8
Black
10
5.50643
20
8.26931
11
5.4392
21
8.34943
0
LINE
8
Black
10
5.4392
20
8.34943
11
5.40343
21
8.44771
0
LINE
8
Black
10
5.40343
20
8.44771
11
5.40343
21
8.55229
0
LINE
8
Black
10
5.40343
20
8.55229
11
5.4392
21
8.65057
0
LINE
8
Black
10
5.4392
20
8.65057
11
5.50643
21
8.73069
0
LINE
8
Black
10
5.50643
20
8.73069
11
5.597
21
8.78299
0
LINE
8
Black
10
5.597
20
8.78299
11
5.7
21
8.80115
0
LINE
8
Black
10
5.7
20
8.80115
11
5.803
21
8.78299
0
LINE
8
Black
10
16.3043
20
9.40914
11
16.3948
21
9.35685
0
LINE
8
Black
10
16.3948
20
9.35685
11
16.4621
21
9.27673
0
LINE
8
Black
10
16.4621
20
9.27673
11
16.4978
21
9.17845
0
LINE
8
Black
10
16.4978
20
9.17845
11
16.4978
21
9.07386
0
LINE
8
Black
10
16.4978
20
9.07386
11
16.4621
21
8.97558
0
LINE
8
Black
10
16.4621
20
8.97558
11
16.3948
21
8.89546
0
LINE
8
Black
10
16.3948
20
8.89546
11
16.3043
21
8.84317
0
LINE
8
Black
10
16.3043
20
8.84317
11
16.2013
21
8.82501
0
LINE
8
Black
10
16.2013
20
8.82501
11
16.0983
21
8.84317
0
LINE
8
Black
10
16.0983
20
8.84317
11
16.0077
21
8.89546
0
LINE
8
Black
10
16.0077
20
8.89546
11
15.9405
21
8.97558
0
LINE
8
Black
10
15.9405
20
8.97558
11
15.9047
21
9.07386
0
LINE
8
Black
10
15.9047
20
9.07386
11
15.9047
21
9.17845
0
LINE
8
Black
10
15.9047
20
9.17845
11
15.9405
21
9.27673
0
LINE
8
Black
10
15.9405
20
9.27673
11
16.0077
21
9.35685
0
LINE
8
Black
10
16.0077
20
9.35685
11
16.0983
21
9.40914
0
LINE
8
Black
10
16.0983
20
9.40914
11
16.2013
21
9.4273
0
LINE
8
Black
10
16.2013
20
9.4273
11
16.3043
21
9.40914
0
LINE
8
Black
10
6.24705
20
9.57379
11
6.33763
21
9.5215
0
LINE
8
Black
10
6.33763
20
9.5215
11
6.40486
21
9.44138
0
LINE
8
Black
10
6.40486
20
9.44138
11
6.44063
21
9.3431
0
LINE
8
Black
10
6.44063
20
9.3431
11
6.44063
21
9.23851
0
LINE
8
Black
10
6.44063
20
9.23851
11
6.40486
21
9.14023
0
LINE
8
Black
10
6.40486
20
9.14023
11
6.33763
21
9.06012
0
LINE
8
Black
10
6.33763
20
9.06012
11
6.24705
21
9.00782
0
LINE
8
Black
10
6.24705
20
9.00782
11
6.14406
21
8.98966
0
LINE
8
Black
10
6.14406
20
8.98966
11
6.04106
21
9.00782
0
LINE
8
Black
10
6.04106
20
9.00782
11
5.95048
21
9.06012
0
LINE
8
Black
10
5.95048
20
9.06012
11
5.88326
21
9.14023
0
LINE
8
Black
10
5.88326
20
9.14023
11
5.84748
21
9.23851
0
LINE
8
Black
10
5.84748
20
9.23851
11
5.84748
21
9.3431
0
LINE
8
Black
10
5.84748
20
9.3431
11
5.88326
21
9.44138
0
LINE
8
Black
10
5.88326
20
9.44138
11
5.95048
21
9.5215
0
LINE
8
Black
10
5.95048
20
9.5215
11
6.04106
21
9.57379
0
LINE
8
Black
10
6.04106
20
9.57379
11
6.14406
21
9.59195
0
LINE
8
Black
10
6.14406
20
9.59195
11
6.24705
21
9.57379
0
LINE
8
Black
10
16.0434
20
10.123
11
16.1339
21
10.0707
0
LINE
8
Black
10
16.1339
20
10.0707
11
16.2012
21
9.99056
0
LINE
8
Black
10
16.2012
20
9.99056
11
16.2369
21
9.89228
0
LINE
8
Black
10
16.2369
20
9.89228
11
16.2369
21
9.7877
0
LINE
8
Black
10
16.2369
20
9.7877
11
16.2012
21
9.68942
0
LINE
8
Black
10
16.2012
20
9.68942
11
16.1339
21
9.6093
0
LINE
8
Black
10
16.1339
20
9.6093
11
16.0434
21
9.55701
0
LINE
8
Black
10
16.0434
20
9.55701
11
15.9404
21
9.53884
0
LINE
8
Black
10
15.9404
20
9.53884
11
15.8374
21
9.55701
0
LINE
8
Black
10
15.8374
20
9.55701
11
15.7468
21
9.6093
0
LINE
8
Black
10
15.7468
20
9.6093
11
15.6796
21
9.68942
0
LINE
8
Black
10
15.6796
20
9.68942
11
15.6438
21
9.7877
0
LINE
8
Black
10
15.6438
20
9.7877
11
15.6438
21
9.89228
0
LINE
8
Black
10
15.6438
20
9.89228
11
15.6796
21
9.99056
0
LINE
8
Black
10
15.6796
20
9.99056
11
15.7468
21
10.0707
0
LINE
8
Black
10
15.7468
20
10.0707
11
15.8374
21
10.123
0
LINE
8
Black
10
15.8374
20
10.123
11
15.9404
21
10.1411
0
LINE
8
Black
10
15.9404
20
10.1411
11
16.0434
21
10.123
0
LINE
8
Black
10
5.68704
20
10.283
11
5.77762
21
10.2307
0
LINE
8
Black
10
5.77762
20
10.2307
11
5.84485
21
10.1506
0
LINE
8
Black
10
5.84485
20
10.1506
11
5.88062
21
10.0523
0
LINE
8
Black
10
5.88062
20
10.0523
11
5.88062
21
9.94771
0
LINE
8
Black
10
5.88062
20
9.94771
11
5.84485
21
9.84943
0
LINE
8
Black
10
5.84485
20
9.84943
11
5.77762
21
9.76931
0
LINE
8
Black
10
5.77762
20
9.76931
11
5.68704
21
9.71701
0
LINE
8
Black
10
5.68704
20
9.71701
11
5.58405
21
9.69885
0
LINE
8
Black
10
5.58405
20
9.69885
11
5.48105
21
9.71701
0
LINE
8
Black
10
5.48105
20
9.71701
11
5.39047
21
9.76931
0
LINE
8
Black
10
5.39047
20
9.76931
11
5.32325
21
9.84943
0
LINE
8
Black
10
5.32325
20
9.84943
11
5.28747
21
9.94771
0
LINE
8
Black
10
5.28747
20
9.94771
11
5.28747
21
10.0523
0
LINE
8
Black
10
5.28747
20
10.0523
11
5.32325
21
10.1506
0
LINE
8
Black
10
5.32325
20
10.1506
11
5.39047
21
10.2307
0
LINE
8
Black
10
5.39047
20
10.2307
11
5.48105
21
10.283
0
LINE
8
Black
10
5.48105
20
10.283
11
5.58405
21
10.3011
0
LINE
8
Black
10
5.58405
20
10.3011
11
5.68704
21
10.283
0
LINE
8
Black
10
3.803
20
10.603
11
3.89357
21
10.5507
0
LINE
8
Black
10
3.89357
20
10.5507
11
3.9608
21
10.4706
0
LINE
8
Black
10
3.9608
20
10.4706
11
3.99657
21
10.3723
0
LINE
8
Black
10
3.99657
20
10.3723
11
3.99657
21
10.2677
0
LINE
8
Black
10
3.99657
20
10.2677
11
3.9608
21
10.1694
0
LINE
8
Black
10
3.9608
20
10.1694
11
3.89357
21
10.0893
0
LINE
8
Black
10
3.89357
20
10.0893
11
3.803
21
10.037
0
LINE
8
Black
10
3.803
20
10.037
11
3.7
21
10.0189
0
LINE
8
Black
10
3.7
20
10.0189
11
3.597
21
10.037
0
LINE
8
Black
10
3.597
20
10.037
11
3.50643
21
10.0893
0
LINE
8
Black
10
3.50643
20
10.0893
11
3.4392
21
10.1694
0
LINE
8
Black
10
3.4392
20
10.1694
11
3.40343
21
10.2677
0
LINE
8
Black
10
3.40343
20
10.2677
11
3.40343
21
10.3723
0
LINE
8
Black
10
3.40343
20
10.3723
11
3.4392
21
10.4706
0
LINE
8
Black
10
3.4392
20
10.4706
11
3.50643
21
10.5507
0
LINE
8
Black
10
3.50643
20
10.5507
11
3.597
21
10.603
0
LINE
8
Black
10
3.597
20
10.603
11
3.7
21
10.6211
0
LINE
8
Black
10
3.7
20
10.6211
11
3.803
21
10.603
0
LINE
8
Black
10
2.77
20
11.1415
11
2.86057
21
11.0892
0
LINE
8
Black
10
2.86057
20
11.0892
11
2.9278
21
11.0091
0
LINE
8
Black
10
2.9278
20
11.0091
11
2.96357
21
10.9108
0
LINE
8
Black
10
2.96357
20
10.9108
11
2.96357
21
10.8062
0
LINE
8
Black
10
2.96357
20
10.8062
11
2.9278
21
10.7079
0
LINE
8
Black
10
2.9278
20
10.7079
11
2.86057
21
10.6278
0
LINE
8
Black
10
2.86057
20
10.6278
11
2.77
21
10.5755
0
LINE
8
Black
10
2.77
20
10.5755
11
2.667
21
10.5574
0
LINE
8
Black
10
2.667
20
10.5574
11
2.564
21
10.5755
0
LINE
8
Black
10
2.564
20
10.5755
11
2.47343
21
10.6278
0
LINE
8
Black
10
2.47343
20
10.6278
11
2.4062
21
10.7079
0
LINE
8
Black
10
2.4062
20
10.7079
11
2.37043
21
10.8062
0
LINE
8
Black
10
2.37043
20
10.8062
11
2.37043
21
10.9108
0
LINE
8
Black
10
2.37043
20
10.9108
11
2.4062
21
11.0091
0
LINE
8
Black
10
2.4062
20
11.0091
11
2.47343
21
11.0892
0
LINE
8
Black
10
2.47343
20
11.0892
11
2.564
21
11.1415
0
LINE
8
Black
10
2.564
20
11.1415
11
2.667
21
11.1596
0
LINE
8
Black
10
2.667
20
11.1596
11
2.77
21
11.1415
0
LINE
8
Black
10
5.58016
20
11.323
11
5.67073
21
11.2707
0
LINE
8
Black
10
5.67073
20
11.2707
11
5.73796
21
11.1906
0
LINE
8
Black
10
5.73796
20
11.1906
11
5.77373
21
11.0923
0
LINE
8
Black
10
5.77373
20
11.0923
11
5.77373
21
10.9877
0
LINE
8
Black
10
5.77373
20
10.9877
11
5.73796
21
10.8894
0
LINE
8
Black
10
5.73796
20
10.8894
11
5.67073
21
10.8093
0
LINE
8
Black
10
5.67073
20
10.8093
11
5.58016
21
10.757
0
LINE
8
Black
10
5.58016
20
10.757
11
5.47716
21
10.7388
0
LINE
8
Black
10
5.47716
20
10.7388
11
5.37416
21
10.757
0
LINE
8
Black
10
5.37416
20
10.757
11
5.28359
21
10.8093
0
LINE
8
Black
10
5.28359
20
10.8093
11
5.21636
21
10.8894
0
LINE
8
Black
10
5.21636
20
10.8894
11
5.18059
21
10.9877
0
LINE
8
Black
10
5.18059
20
10.9877
11
5.18059
21
11.0923
0
LINE
8
Black
10
5.18059
20
11.0923
11
5.21636
21
11.1906
0
LINE
8
Black
10
5.21636
20
11.1906
11
5.28359
21
11.2707
0
LINE
8
Black
10
5.28359
20
11.2707
11
5.37416
21
11.323
0
LINE
8
Black
10
5.37416
20
11.323
11
5.47716
21
11.3411
0
LINE
8
Black
10
5.47716
20
11.3411
11
5.58016
21
11.323
0
LINE
8
Black
10
15.503
20
11.683
11
15.5936
21
11.6307
0
LINE
8
Black
10
15.5936
20
11.6307
11
15.6608
21
11.5506
0
LINE
8
Black
10
15.6608
20
11.5506
11
15.6966
21
11.4523
0
LINE
8
Black
10
15.6966
20
11.4523
11
15.6966
21
11.3477
0
LINE
8
Black
10
15.6966
20
11.3477
11
15.6608
21
11.2494
0
LINE
8
Black
10
15.6608
20
11.2494
11
15.5936
21
11.1693
0
LINE
8
Black
10
15.5936
20
11.1693
11
15.503
21
11.117
0
LINE
8
Black
10
15.503
20
11.117
11
15.4
21
11.0989
0
LINE
8
Black
10
15.4
20
11.0989
11
15.297
21
11.117
0
LINE
8
Black
10
15.297
20
11.117
11
15.2064
21
11.1693
0
LINE
8
Black
10
15.2064
20
11.1693
11
15.1392
21
11.2494
0
LINE
8
Black
10
15.1392
20
11.2494
11
15.1034
21
11.3477
0
LINE
8
Black
10
15.1034
20
11.3477
11
15.1034
21
11.4523
0
LINE
8
Black
10
15.1034
20
11.4523
11
15.1392
21
11.5506
0
LINE
8
Black
10
15.1392
20
11.5506
11
15.2064
21
11.6307
0
LINE
8
Black
10
15.2064
20
11.6307
11
15.297
21
11.683
0
LINE
8
Black
10
15.297
20
11.683
11
15.4
21
11.7011
0
LINE
8
Black
10
15.4
20
11.7011
11
15.503
21
11.683
0
LINE
8
Black
10
16.403
20
11.883
11
16.4936
21
11.8307
0
LINE
8
Black
10
16.4936
20
11.8307
11
16.5608
21
11.7506
0
LINE
8
Black
10
16.5608
20
11.7506
11
16.5966
21
11.6523
0
LINE
8
Black
10
16.5966
20
11.6523
11
16.5966
21
11.5477
0
LINE
8
Black
10
16.5966
20
11.5477
11
16.5608
21
11.4494
0
LINE
8
Black
10
16.5608
20
11.4494
11
16.4936
21
11.3693
0
LINE
8
Black
10
16.4936
20
11.3693
11
16.403
21
11.317
0
LINE
8
Black
10
16.403
20
11.317
11
16.3
21
11.2989
0
LINE
8
Black
10
16.3
20
11.2989
11
16.197
21
11.317
0
LINE
8
Black
10
16.197
20
11.317
11
16.1064
21
11.3693
0
LINE
8
Black
10
16.1064
20
11.3693
11
16.0392
21
11.4494
0
LINE
8
Black
10
16.0392
20
11.4494
11
16.0034
21
11.5477
0
LINE
8
Black
10
16.0034
20
11.5477
11
16.0034
21
11.6523
0
LINE
8
Black
10
16.0034
20
11.6523
11
16.0392
21
11.7506
0
LINE
8
Black
10
16.0392
20
11.7506
11
16.1064
21
11.8307
0
LINE
8
Black
10
16.1064
20
11.8307
11
16.197
21
11.883
0
LINE
8
Black
10
16.197
20
11.883
11
16.3
21
11.9011
0
LINE
8
Black
10
16.3
20
11.9011
11
16.403
21
11.883
0
LINE
8
Black
10
6.27373
20
12.1457
11
6.3643
21
12.0934
0
LINE
8
Black
10
6.3643
20
12.0934
11
6.43153
21
12.0133
0
LINE
8
Black
10
6.43153
20
12.0133
11
6.4673
21
11.915
0
LINE
8
Black
10
6.4673
20
11.915
11
6.4673
21
11.8104
0
LINE
8
Black
10
6.4673
20
11.8104
11
6.43153
21
11.7121
0
LINE
8
Black
10
6.43153
20
11.7121
11
6.3643
21
11.632
0
LINE
8
Black
10
6.3643
20
11.632
11
6.27373
21
11.5797
0
LINE
8
Black
10
6.27373
20
11.5797
11
6.17073
21
11.5616
0
LINE
8
Black
10
6.17073
20
11.5616
11
6.06773
21
11.5797
0
LINE
8
Black
10
6.06773
20
11.5797
11
5.97716
21
11.632
0
LINE
8
Black
10
5.97716
20
11.632
11
5.90993
21
11.7121
0
LINE
8
Black
10
5.90993
20
11.7121
11
5.87416
21
11.8104
0
LINE
8
Black
10
5.87416
20
11.8104
11
5.87416
21
11.915
0
LINE
8
Black
10
5.87416
20
11.915
11
5.90993
21
12.0133
0
LINE
8
Black
10
5.90993
20
12.0133
11
5.97716
21
12.0934
0
LINE
8
Black
10
5.97716
20
12.0934
11
6.06773
21
12.1457
0
LINE
8
Black
10
6.06773
20
12.1457
11
6.17073
21
12.1638
0
LINE
8
Black
10
6.17073
20
12.1638
11
6.27373
21
12.1457
0
LINE
8
Black
10
6.903
20
12.883
11
6.99357
21
12.8307
0
LINE
8
Black
10
6.99357
20
12.8307
11
7.0608
21
12.7506
0
LINE
8
Black
10
7.0608
20
12.7506
11
7.09657
21
12.6523
0
LINE
8
Black
10
7.09657
20
12.6523
11
7.09657
21
12.5477
0
LINE
8
Black
10
7.09657
20
12.5477
11
7.0608
21
12.4494
0
LINE
8
Black
10
7.0608
20
12.4494
11
6.99357
21
12.3693
0
LINE
8
Black
10
6.99357
20
12.3693
11
6.903
21
12.317
0
LINE
8
Black
10
6.903
20
12.317
11
6.8
21
12.2989
0
LINE
8
Black
10
6.8
20
12.2989
11
6.697
21
12.317
0
LINE
8
Black
10
6.697
20
12.317
11
6.60643
21
12.3693
0
LINE
8
Black
10
6.60643
20
12.3693
11
6.5392
21
12.4494
0
LINE
8
Black
10
6.5392
20
12.4494
11
6.50343
21
12.5477
0
LINE
8
Black
10
6.50343
20
12.5477
11
6.50343
21
12.6523
0
LINE
8
Black
10
6.50343
20
12.6523
11
6.5392
21
12.7506
0
LINE
8
Black
10
6.5392
20
12.7506
11
6.60643
21
12.8307
0
LINE
8
Black
10
6.60643
20
12.8307
11
6.697
21
12.883
0
LINE
8
Black
10
6.697
20
12.883
11
6.8
21
12.9011
0
LINE
8
Black
10
6.8
20
12.9011
11
6.903
21
12.883
0
LINE
8
Black
10
18.0368
20
13.504
11
18.1274
21
13.4518
0
LINE
8
Black
10
18.1274
20
13.4518
11
18.1946
21
13.3716
0
LINE
8
Black
10
18.1946
20
13.3716
11
18.2304
21
13.2734
0
LINE
8
Black
10
18.2304
20
13.2734
11
18.2304
21
13.1688
0
LINE
8
Black
10
18.2304
20
13.1688
11
18.1946
21
13.0705
0
LINE
8
Black
10
18.1946
20
13.0705
11
18.1274
21
12.9904
0
LINE
8
Black
10
18.1274
20
12.9904
11
18.0368
21
12.9381
0
LINE
8
Black
10
18.0368
20
12.9381
11
17.9338
21
12.9199
0
LINE
8
Black
10
17.9338
20
12.9199
11
17.8308
21
12.9381
0
LINE
8
Black
10
17.8308
20
12.9381
11
17.7403
21
12.9904
0
LINE
8
Black
10
17.7403
20
12.9904
11
17.673
21
13.0705
0
LINE
8
Black
10
17.673
20
13.0705
11
17.6373
21
13.1688
0
LINE
8
Black
10
17.6373
20
13.1688
11
17.6373
21
13.2734
0
LINE
8
Black
10
17.6373
20
13.2734
11
17.673
21
13.3716
0
LINE
8
Black
10
17.673
20
13.3716
11
17.7403
21
13.4518
0
LINE
8
Black
10
17.7403
20
13.4518
11
17.8308
21
13.504
0
LINE
8
Black
10
17.8308
20
13.504
11
17.9338
21
13.5222
0
LINE
8
Black
10
17.9338
20
13.5222
11
18.0368
21
13.504
0
LINE
8
Black
10
11.503
20
13.583
11
11.5936
21
13.5307
0
LINE
8
Black
10
11.5936
20
13.5307
11
11.6608
21
13.4506
0
LINE
8
Black
10
11.6608
20
13.4506
11
11.6966
21
13.3523
0
LINE
8
Black
10
11.6966
20
13.3523
11
11.6966
21
13.2477
0
LINE
8
Black
10
11.6966
20
13.2477
11
11.6608
21
13.1494
0
LINE
8
Black
10
11.6608
20
13.1494
11
11.5936
21
13.0693
0
LINE
8
Black
10
11.5936
20
13.0693
11
11.503
21
13.017
0
LINE
8
Black
10
11.503
20
13.017
11
11.4
21
12.9989
0
LINE
8
Black
10
11.4
20
12.9989
11
11.297
21
13.017
0
LINE
8
Black
10
11.297
20
13.017
11
11.2064
21
13.0693
0
LINE
8
Black
10
11.2064
20
13.0693
11
11.1392
21
13.1494
0
LINE
8
Black
10
11.1392
20
13.1494
11
11.1034
21
13.2477
0
LINE
8
Black
10
11.1034
20
13.2477
11
11.1034
21
13.3523
0
LINE
8
Black
10
11.1034
20
13.3523
11
11.1392
21
13.4506
0
LINE
8
Black
10
11.1392
20
13.4506
11
11.2064
21
13.5307
0
LINE
8
Black
10
11.2064
20
13.5307
11
11.297
21
13.583
0
LINE
8
Black
10
11.297
20
13.583
11
11.4
21
13.6011
0
LINE
8
Black
10
11.4
20
13.6011
11
11.503
21
13.583
0
LINE
8
Black
10
27.833
20
14.013
11
27.9236
21
13.9607
0
LINE
8
Black
10
27.9236
20
13.9607
11
27.9908
21
13.8806
0
LINE
8
Black
10
27.9908
20
13.8806
11
28.0266
21
13.7823
0
LINE
8
Black
10
28.0266
20
13.7823
11
28.0266
21
13.6777
0
LINE
8
Black
10
28.0266
20
13.6777
11
27.9908
21
13.5794
0
LINE
8
Black
10
27.9908
20
13.5794
11
27.9236
21
13.4993
0
LINE
8
Black
10
27.9236
20
13.4993
11
27.833
21
13.447
0
LINE
8
Black
10
27.833
20
13.447
11
27.73
21
13.4289
0
LINE
8
Black
10
27.73
20
13.4289
11
27.627
21
13.447
0
LINE
8
Black
10
27.627
20
13.447
11
27.5364
21
13.4993
0
LINE
8
Black
10
27.5364
20
13.4993
11
27.4692
21
13.5794
0
LINE
8
Black
10
27.4692
20
13.5794
11
27.4334
21
13.6777
0
LINE
8
Black
10
27.4334
20
13.6777
11
27.4334
21
13.7823
0
LINE
8
Black
10
27.4334
20
13.7823
11
27.4692
21
13.8806
0
LINE
8
Black
10
27.4692
20
13.8806
11
27.5364
21
13.9607
0
LINE
8
Black
10
27.5364
20
13.9607
11
27.627
21
14.013
0
LINE
8
Black
10
27.627
20
14.013
11
27.73
21
14.0311
0
LINE
8
Black
10
27.73
20
14.0311
11
27.833
21
14.013
0
LINE
8
Black
10
2.373
20
14.013
11
2.46357
21
13.9607
0
LINE
8
Black
10
2.46357
20
13.9607
11
2.5308
21
13.8806
0
LINE
8
Black
10
2.5308
20
13.8806
11
2.56657
21
13.7823
0
LINE
8
Black
10
2.56657
20
13.7823
11
2.56657
21
13.6777
0
LINE
8
Black
10
2.56657
20
13.6777
11
2.5308
21
13.5794
0
LINE
8
Black
10
2.5308
20
13.5794
11
2.46357
21
13.4993
0
LINE
8
Black
10
2.46357
20
13.4993
11
2.373
21
13.447
0
LINE
8
Black
10
2.373
20
13.447
11
2.27
21
13.4289
0
LINE
8
Black
10
2.27
20
13.4289
11
2.167
21
13.447
0
LINE
8
Black
10
2.167
20
13.447
11
2.07643
21
13.4993
0
LINE
8
Black
10
2.07643
20
13.4993
11
2.0092
21
13.5794
0
LINE
8
Black
10
2.0092
20
13.5794
11
1.97343
21
13.6777
0
LINE
8
Black
10
1.97343
20
13.6777
11
1.97343
21
13.7823
0
LINE
8
Black
10
1.97343
20
13.7823
11
2.0092
21
13.8806
0
LINE
8
Black
10
2.0092
20
13.8806
11
2.07643
21
13.9607
0
LINE
8
Black
10
2.07643
20
13.9607
11
2.167
21
14.013
0
LINE
8
Black
10
2.167
20
14.013
11
2.27
21
14.0311
0
LINE
8
Black
10
2.27
20
14.0311
11
2.373
21
14.013
0
LINE
8
Black
10
24.903
20
14.083
11
24.9936
21
14.0307
0
LINE
8
Black
10
24.9936
20
14.0307
11
25.0608
21
13.9506
0
LINE
8
Black
10
25.0608
20
13.9506
11
25.0966
21
13.8523
0
LINE
8
Black
10
25.0966
20
13.8523
11
25.0966
21
13.7477
0
LINE
8
Black
10
25.0966
20
13.7477
11
25.0608
21
13.6494
0
LINE
8
Black
10
25.0608
20
13.6494
11
24.9936
21
13.5693
0
LINE
8
Black
10
24.9936
20
13.5693
11
24.903
21
13.517
0
LINE
8
Black
10
24.903
20
13.517
11
24.8
21
13.4989
0
LINE
8
Black
10
24.8
20
13.4989
11
24.697
21
13.517
0
LINE
8
Black
10
24.697
20
13.517
11
24.6064
21
13.5693
0
LINE
8
Black
10
24.6064
20
13.5693
11
24.5392
21
13.6494
0
LINE
8
Black
10
24.5392
20
13.6494
11
24.5034
21
13.7477
0
LINE
8
Black
10
24.5034
20
13.7477
11
24.5034
21
13.8523
0
LINE
8
Black
10
24.5034
20
13.8523
11
24.5392
21
13.9506
0
LINE
8
Black
10
24.5392
20
13.9506
11
24.6064
21
14.0307
0
LINE
8
Black
10
24.6064
20
14.0307
11
24.697
21
14.083
0
LINE
8
Black
10
24.697
20
14.083
11
24.8
21
14.1011
0
LINE
8
Black
10
24.8
20
14.1011
11
24.903
21
14.083
0
LINE
8
Black
10
4.68884
20
14.143
11
4.77941
21
14.0907
0
LINE
8
Black
10
4.77941
20
14.0907
11
4.84664
21
14.0106
0
LINE
8
Black
10
4.84664
20
14.0106
11
4.88241
21
13.9123
0
LINE
8
Black
10
4.88241
20
13.9123
11
4.88241
21
13.8077
0
LINE
8
Black
10
4.88241
20
13.8077
11
4.84664
21
13.7094
0
LINE
8
Black
10
4.84664
20
13.7094
11
4.77941
21
13.6293
0
LINE
8
Black
10
4.77941
20
13.6293
11
4.68884
21
13.577
0
LINE
8
Black
10
4.68884
20
13.577
11
4.58584
21
13.5589
0
LINE
8
Black
10
4.58584
20
13.5589
11
4.48284
21
13.577
0
LINE
8
Black
10
4.48284
20
13.577
11
4.39227
21
13.6293
0
LINE
8
Black
10
4.39227
20
13.6293
11
4.32504
21
13.7094
0
LINE
8
Black
10
4.32504
20
13.7094
11
4.28927
21
13.8077
0
LINE
8
Black
10
4.28927
20
13.8077
11
4.28927
21
13.9123
0
LINE
8
Black
10
4.28927
20
13.9123
11
4.32504
21
14.0106
0
LINE
8
Black
10
4.32504
20
14.0106
11
4.39227
21
14.0907
0
LINE
8
Black
10
4.39227
20
14.0907
11
4.48284
21
14.143
0
LINE
8
Black
10
4.48284
20
14.143
11
4.58584
21
14.1612
0
LINE
8
Black
10
4.58584
20
14.1612
11
4.68884
21
14.143
0
LINE
8
Black
10
10.663
20
14.184
11
10.7536
21
14.1317
0
LINE
8
Black
10
10.7536
20
14.1317
11
10.8208
21
14.0516
0
LINE
8
Black
10
10.8208
20
14.0516
11
10.8566
21
13.9533
0
LINE
8
Black
10
10.8566
20
13.9533
11
10.8566
21
13.8487
0
LINE
8
Black
10
10.8566
20
13.8487
11
10.8208
21
13.7504
0
LINE
8
Black
10
10.8208
20
13.7504
11
10.7536
21
13.6703
0
LINE
8
Black
10
10.7536
20
13.6703
11
10.663
21
13.618
0
LINE
8
Black
10
10.663
20
13.618
11
10.56
21
13.5999
0
LINE
8
Black
10
10.56
20
13.5999
11
10.457
21
13.618
0
LINE
8
Black
10
10.457
20
13.618
11
10.3664
21
13.6703
0
LINE
8
Black
10
10.3664
20
13.6703
11
10.2992
21
13.7504
0
LINE
8
Black
10
10.2992
20
13.7504
11
10.2634
21
13.8487
0
LINE
8
Black
10
10.2634
20
13.8487
11
10.2634
21
13.9533
0
LINE
8
Black
10
10.2634
20
13.9533
11
10.2992
21
14.0516
0
LINE
8
Black
10
10.2992
20
14.0516
11
10.3664
21
14.1317
0
LINE
8
Black
10
10.3664
20
14.1317
11
10.457
21
14.184
0
LINE
8
Black
10
10.457
20
14.184
11
10.56
21
14.2022
0
LINE
8
Black
10
10.56
20
14.2022
11
10.663
21
14.184
0
LINE
8
Black
10
6.34299
20
14.5591
11
6.43356
21
14.5068
0
LINE
8
Black
10
6.43356
20
14.5068
11
6.50079
21
14.4267
0
LINE
8
Black
10
6.50079
20
14.4267
11
6.53656
21
14.3284
0
LINE
8
Black
10
6.53656
20
14.3284
11
6.53656
21
14.2238
0
LINE
8
Black
10
6.53656
20
14.2238
11
6.50079
21
14.1255
0
LINE
8
Black
10
6.50079
20
14.1255
11
6.43356
21
14.0454
0
LINE
8
Black
10
6.43356
20
14.0454
11
6.34299
21
13.9931
0
LINE
8
Black
10
6.34299
20
13.9931
11
6.23999
21
13.975
0
LINE
8
Black
10
6.23999
20
13.975
11
6.13699
21
13.9931
0
LINE
8
Black
10
6.13699
20
13.9931
11
6.04642
21
14.0454
0
LINE
8
Black
10
6.04642
20
14.0454
11
5.97919
21
14.1255
0
LINE
8
Black
10
5.97919
20
14.1255
11
5.94342
21
14.2238
0
LINE
8
Black
10
5.94342
20
14.2238
11
5.94342
21
14.3284
0
LINE
8
Black
10
5.94342
20
14.3284
11
5.97919
21
14.4267
0
LINE
8
Black
10
5.97919
20
14.4267
11
6.04642
21
14.5068
0
LINE
8
Black
10
6.04642
20
14.5068
11
6.13699
21
14.5591
0
LINE
8
Black
10
6.13699
20
14.5591
11
6.23999
21
14.5773
0
LINE
8
Black
10
6.23999
20
14.5773
11
6.34299
21
14.5591
0
LINE
8
Black
10
19.903
20
14.583
11
19.9936
21
14.5307
0
LINE
8
Black
10
19.9936
20
14.5307
11
20.0608
21
14.4506
0
LINE
8
Black
10
20.0608
20
14.4506
11
20.0966
21
14.3523
0
LINE
8
Black
10
20.0966
20
14.3523
11
20.0966
21
14.2477
0
LINE
8
Black
10
20.0966
20
14.2477
11
20.0608
21
14.1494
0
LINE
8
Black
10
20.0608
20
14.1494
11
19.9936
21
14.0693
0
LINE
8
Black
10
19.9936
20
14.0693
11
19.903
21
14.017
0
LINE
8
Black
10
19.903
20
14.017
11
19.8
21
13.9989
0
LINE
8
Black
10
19.8
20
13.9989
11
19.697
21
14.017
0
LINE
8
Black
10
19.697
20
14.017
11
19.6064
21
14.0693
0
LINE
8
Black
10
19.6064
20
14.0693
11
19.5392
21
14.1494
0
LINE
8
Black
10
19.5392
20
14.1494
11
19.5034
21
14.2477
0
LINE
8
Black
10
19.5034
20
14.2477
11
19.5034
21
14.3523
0
LINE
8
Black
10
19.5034
20
14.3523
11
19.5392
21
14.4506
0
LINE
8
Black
10
19.5392
20
14.4506
11
19.6064
21
14.5307
0
LINE
8
Black
10
19.6064
20
14.5307
11
19.697
21
14.583
0
LINE
8
Black
10
19.697
20
14.583
11
19.8
21
14.6011
0
LINE
8
Black
10
19.8
20
14.6011
11
19.903
21
14.583
0
LINE
8
Black
10
17.893
20
14.6395
11
17.9835
21
14.5872
0
LINE
8
Black
10
17.9835
20
14.5872
11
18.0508
21
14.5071
0
LINE
8
Black
10
18.0508
20
14.5071
11
18.0865
21
14.4088
0
LINE
8
Black
10
18.0865
20
14.4088
11
18.0865
21
14.3043
0
LINE
8
Black
10
18.0865
20
14.3043
11
18.0508
21
14.206
0
LINE
8
Black
10
18.0508
20
14.206
11
17.9835
21
14.1259
0
LINE
8
Black
10
17.9835
20
14.1259
11
17.893
21
14.0736
0
LINE
8
Black
10
17.893
20
14.0736
11
17.79
21
14.0554
0
LINE
8
Black
10
17.79
20
14.0554
11
17.687
21
14.0736
0
LINE
8
Black
10
17.687
20
14.0736
11
17.5964
21
14.1259
0
LINE
8
Black
10
17.5964
20
14.1259
11
17.5292
21
14.206
0
LINE
8
Black
10
17.5292
20
14.206
11
17.4934
21
14.3043
0
LINE
8
Black
10
17.4934
20
14.3043
11
17.4934
21
14.4088
0
LINE
8
Black
10
17.4934
20
14.4088
11
17.5292
21
14.5071
0
LINE
8
Black
10
17.5292
20
14.5071
11
17.5964
21
14.5872
0
LINE
8
Black
10
17.5964
20
14.5872
11
17.687
21
14.6395
0
LINE
8
Black
10
17.687
20
14.6395
11
17.79
21
14.6577
0
LINE
8
Black
10
17.79
20
14.6577
11
17.893
21
14.6395
0
LINE
8
Black
10
8.103
20
14.783
11
8.19357
21
14.7307
0
LINE
8
Black
10
8.19357
20
14.7307
11
8.2608
21
14.6506
0
LINE
8
Black
10
8.2608
20
14.6506
11
8.29657
21
14.5523
0
LINE
8
Black
10
8.29657
20
14.5523
11
8.29657
21
14.4477
0
LINE
8
Black
10
8.29657
20
14.4477
11
8.2608
21
14.3494
0
LINE
8
Black
10
8.2608
20
14.3494
11
8.19357
21
14.2693
0
LINE
8
Black
10
8.19357
20
14.2693
11
8.103
21
14.217
0
LINE
8
Black
10
8.103
20
14.217
11
8
21
14.1989
0
LINE
8
Black
10
8
20
14.1989
11
7.897
21
14.217
0
LINE
8
Black
10
7.897
20
14.217
11
7.80643
21
14.2693
0
LINE
8
Black
10
7.80643
20
14.2693
11
7.7392
21
14.3494
0
LINE
8
Black
10
7.7392
20
14.3494
11
7.70343
21
14.4477
0
LINE
8
Black
10
7.70343
20
14.4477
11
7.70343
21
14.5523
0
LINE
8
Black
10
7.70343
20
14.5523
11
7.7392
21
14.6506
0
LINE
8
Black
10
7.7392
20
14.6506
11
7.80643
21
14.7307
0
LINE
8
Black
10
7.80643
20
14.7307
11
7.897
21
14.783
0
LINE
8
Black
10
7.897
20
14.783
11
8
21
14.8011
0
LINE
8
Black
10
8
20
14.8011
11
8.103
21
14.783
0
LINE
8
Black
10
20.503
20
15.483
11
20.5936
21
15.4307
0
LINE
8
Black
10
20.5936
20
15.4307
11
20.6608
21
15.3506
0
LINE
8
Black
10
20.6608
20
15.3506
11
20.6966
21
15.2523
0
LINE
8
Black
10
20.6966
20
15.2523
11
20.6966
21
15.1477
0
LINE
8
Black
10
20.6966
20
15.1477
11
20.6608
21
15.0494
0
LINE
8
Black
10
20.6608
20
15.0494
11
20.5936
21
14.9693
0
LINE
8
Black
10
20.5936
20
14.9693
11
20.503
21
14.917
0
LINE
8
Black
10
20.503
20
14.917
11
20.4
21
14.8989
0
LINE
8
Black
10
20.4
20
14.8989
11
20.297
21
14.917
0
LINE
8
Black
10
20.297
20
14.917
11
20.2064
21
14.9693
0
LINE
8
Black
10
20.2064
20
14.9693
11
20.1392
21
15.0494
0
LINE
8
Black
10
20.1392
20
15.0494
11
20.1034
21
15.1477
0
LINE
8
Black
10
20.1034
20
15.1477
11
20.1034
21
15.2523
0
LINE
8
Black
10
20.1034
20
15.2523
11
20.1392
21
15.3506
0
LINE
8
Black
10
20.1392
20
15.3506
11
20.2064
21
15.4307
0
LINE
8
Black
10
20.2064
20
15.4307
11
20.297
21
15.483
0
LINE
8
Black
10
20.297
20
15.483
11
20.4
21
15.5011
0
LINE
8
Black
10
20.4
20
15.5011
11
20.503
21
15.483
0
LINE
8
Black
10
10.103
20
15.483
11
10.1936
21
15.4307
0
LINE
8
Black
10
10.1936
20
15.4307
11
10.2608
21
15.3506
0
LINE
8
Black
10
10.2608
20
15.3506
11
10.2966
21
15.2523
0
LINE
8
Black
10
10.2966
20
15.2523
11
10.2966
21
15.1477
0
LINE
8
Black
10
10.2966
20
15.1477
11
10.2608
21
15.0494
0
LINE
8
Black
10
10.2608
20
15.0494
11
10.1936
21
14.9693
0
LINE
8
Black
10
10.1936
20
14.9693
11
10.103
21
14.917
0
LINE
8
Black
10
10.103
20
14.917
11
10
21
14.8989
0
LINE
8
Black
10
10
20
14.8989
11
9.897
21
14.917
0
LINE
8
Black
10
9.897
20
14.917
11
9.80643
21
14.9693
0
LINE
8
Black
10
9.80643
20
14.9693
11
9.7392
21
15.0494
0
LINE
8
Black
10
9.7392
20
15.0494
11
9.70343
21
15.1477
0
LINE
8
Black
10
9.70343
20
15.1477
11
9.70343
21
15.2523
0
LINE
8
Black
10
9.70343
20
15.2523
11
9.7392
21
15.3506
0
LINE
8
Black
10
9.7392
20
15.3506
11
9.80643
21
15.4307
0
LINE
8
Black
10
9.80643
20
15.4307
11
9.897
21
15.483
0
LINE
8
Black
10
9.897
20
15.483
11
10
21
15.5011
0
LINE
8
Black
10
10
20
15.5011
11
10.103
21
15.483
0
LINE
8
Black
10
14.403
20
15.583
11
14.4936
21
15.5307
0
LINE
8
Black
10
14.4936
20
15.5307
11
14.5608
21
15.4506
0
LINE
8
Black
10
14.5608
20
15.4506
11
14.5966
21
15.3523
0
LINE
8
Black
10
14.5966
20
15.3523
11
14.5966
21
15.2477
0
LINE
8
Black
10
14.5966
20
15.2477
11
14.5608
21
15.1494
0
LINE
8
Black
10
14.5608
20
15.1494
11
14.4936
21
15.0693
0
LINE
8
Black
10
14.4936
20
15.0693
11
14.403
21
15.017
0
LINE
8
Black
10
14.403
20
15.017
11
14.3
21
14.9989
0
LINE
8
Black
10
14.3
20
14.9989
11
14.197
21
15.017
0
LINE
8
Black
10
14.197
20
15.017
11
14.1064
21
15.0693
0
LINE
8
Black
10
14.1064
20
15.0693
11
14.0392
21
15.1494
0
LINE
8
Black
10
14.0392
20
15.1494
11
14.0034
21
15.2477
0
LINE
8
Black
10
14.0034
20
15.2477
11
14.0034
21
15.3523
0
LINE
8
Black
10
14.0034
20
15.3523
11
14.0392
21
15.4506
0
LINE
8
Black
10
14.0392
20
15.4506
11
14.1064
21
15.5307
0
LINE
8
Black
10
14.1064
20
15.5307
11
14.197
21
15.583
0
LINE
8
Black
10
14.197
20
15.583
11
14.3
21
15.6011
0
LINE
8
Black
10
14.3
20
15.6011
11
14.403
21
15.583
0
LINE
8
Black
10
21.339
20
15.8198
11
21.4295
21
15.7675
0
LINE
8
Black
10
21.4295
20
15.7675
11
21.4968
21
15.6874
0
LINE
8
Black
10
21.4968
20
15.6874
11
21.5325
21
15.5891
0
LINE
8
Black
10
21.5325
20
15.5891
11
21.5325
21
15.4845
0
LINE
8
Black
10
21.5325
20
15.4845
11
21.4968
21
15.3862
0
LINE
8
Black
10
21.4968
20
15.3862
11
21.4295
21
15.3061
0
LINE
8
Black
10
21.4295
20
15.3061
11
21.339
21
15.2538
0
LINE
8
Black
10
21.339
20
15.2538
11
21.236
21
15.2356
0
LINE
8
Black
10
21.236
20
15.2356
11
21.133
21
15.2538
0
LINE
8
Black
10
21.133
20
15.2538
11
21.0424
21
15.3061
0
LINE
8
Black
10
21.0424
20
15.3061
11
20.9752
21
15.3862
0
LINE
8
Black
10
20.9752
20
15.3862
11
20.9394
21
15.4845
0
LINE
8
Black
10
20.9394
20
15.4845
11
20.9394
21
15.5891
0
LINE
8
Black
10
20.9394
20
15.5891
11
20.9752
21
15.6874
0
LINE
8
Black
10
20.9752
20
15.6874
11
21.0424
21
15.7675
0
LINE
8
Black
10
21.0424
20
15.7675
11
21.133
21
15.8198
0
LINE
8
Black
10
21.133
20
15.8198
11
21.236
21
15.8379
0
LINE
8
Black
10
21.236
20
15.8379
11
21.339
21
15.8198
0
LINE
8
Black
10
6.975
20
16.5053
11
7.06557
21
16.453
0
LINE
8
Black
10
7.06557
20
16.453
11
7.1328
21
16.3729
0
LINE
8
Black
10
7.1328
20
16.3729
11
7.16857
21
16.2746
0
LINE
8
Black
10
7.16857
20
16.2746
11
7.16857
21
16.17
0
LINE
8
Black
10
7.16857
20
16.17
11
7.1328
21
16.0718
0
LINE
8
Black
10
7.1328
20
16.0718
11
7.06557
21
15.9916
0
LINE
8
Black
10
7.06557
20
15.9916
11
6.975
21
15.9393
0
LINE
8
Black
10
6.975
20
15.9393
11
6.872
21
15.9212
0
LINE
8
Black
10
6.872
20
15.9212
11
6.769
21
15.9393
0
LINE
8
Black
10
6.769
20
15.9393
11
6.67842
21
15.9916
0
LINE
8
Black
10
6.67842
20
15.9916
11
6.6112
21
16.0718
0
LINE
8
Black
10
6.6112
20
16.0718
11
6.57543
21
16.17
0
LINE
8
Black
10
6.57543
20
16.17
11
6.57543
21
16.2746
0
LINE
8
Black
10
6.57543
20
16.2746
11
6.6112
21
16.3729
0
LINE
8
Black
10
6.6112
20
16.3729
11
6.67842
21
16.453
0
LINE
8
Black
10
6.67842
20
16.453
11
6.769
21
16.5053
0
LINE
8
Black
10
6.769
20
16.5053
11
6.872
21
16.5235
0
LINE
8
Black
10
6.872
20
16.5235
11
6.975
21
16.5053
0
LINE
8
Black
10
27.833
20
16.553
11
27.9236
21
16.5007
0
LINE
8
Black
10
27.9236
20
16.5007
11
27.9908
21
16.4206
0
LINE
8
Black
10
27.9908
20
16.4206
11
28.0266
21
16.3223
0
LINE
8
Black
10
28.0266
20
16.3223
11
28.0266
21
16.2177
0
LINE
8
Black
10
28.0266
20
16.2177
11
27.9908
21
16.1194
0
LINE
8
Black
10
27.9908
20
16.1194
11
27.9236
21
16.0393
0
LINE
8
Black
10
27.9236
20
16.0393
11
27.833
21
15.987
0
LINE
8
Black
10
27.833
20
15.987
11
27.73
21
15.9689
0
LINE
8
Black
10
27.73
20
15.9689
11
27.627
21
15.987
0
LINE
8
Black
10
27.627
20
15.987
11
27.5364
21
16.0393
0
LINE
8
Black
10
27.5364
20
16.0393
11
27.4692
21
16.1194
0
LINE
8
Black
10
27.4692
20
16.1194
11
27.4334
21
16.2177
0
LINE
8
Black
10
27.4334
20
16.2177
11
27.4334
21
16.3223
0
LINE
8
Black
10
27.4334
20
16.3223
11
27.4692
21
16.4206
0
LINE
8
Black
10
27.4692
20
16.4206
11
27.5364
21
16.5007
0
LINE
8
Black
10
27.5364
20
16.5007
11
27.627
21
16.553
0
LINE
8
Black
10
27.627
20
16.553
11
27.73
21
16.5711
0
LINE
8
Black
10
27.73
20
16.5711
11
27.833
21
16.553
0
LINE
8
Black
10
2.373
20
16.553
11
2.46357
21
16.5007
0
LINE
8
Black
10
2.46357
20
16.5007
11
2.5308
21
16.4206
0
LINE
8
Black
10
2.5308
20
16.4206
11
2.56657
21
16.3223
0
LINE
8
Black
10
2.56657
20
16.3223
11
2.56657
21
16.2177
0
LINE
8
Black
10
2.56657
20
16.2177
11
2.5308
21
16.1194
0
LINE
8
Black
10
2.5308
20
16.1194
11
2.46357
21
16.0393
0
LINE
8
Black
10
2.46357
20
16.0393
11
2.373
21
15.987
0
LINE
8
Black
10
2.373
20
15.987
11
2.27
21
15.9689
0
LINE
8
Black
10
2.27
20
15.9689
11
2.167
21
15.987
0
LINE
8
Black
10
2.167
20
15.987
11
2.07643
21
16.0393
0
LINE
8
Black
10
2.07643
20
16.0393
11
2.0092
21
16.1194
0
LINE
8
Black
10
2.0092
20
16.1194
11
1.97343
21
16.2177
0
LINE
8
Black
10
1.97343
20
16.2177
11
1.97343
21
16.3223
0
LINE
8
Black
10
1.97343
20
16.3223
11
2.0092
21
16.4206
0
LINE
8
Black
10
2.0092
20
16.4206
11
2.07643
21
16.5007
0
LINE
8
Black
10
2.07643
20
16.5007
11
2.167
21
16.553
0
LINE
8
Black
10
2.167
20
16.553
11
2.27
21
16.5711
0
LINE
8
Black
10
2.27
20
16.5711
11
2.373
21
16.553
0
LINE
8
Black
10
9.64823
20
16.8362
11
9.73881
21
16.784
0
LINE
8
Black
10
9.73881
20
16.784
11
9.80604
21
16.7038
0
LINE
8
Black
10
9.80604
20
16.7038
11
9.84181
21
16.6056
0
LINE
8
Black
10
9.84181
20
16.6056
11
9.84181
21
16.501
0
LINE
8
Black
10
9.84181
20
16.501
11
9.80604
21
16.4027
0
LINE
8
Black
10
9.80604
20
16.4027
11
9.73881
21
16.3226
0
LINE
8
Black
10
9.73881
20
16.3226
11
9.64823
21
16.2703
0
LINE
8
Black
10
9.64823
20
16.2703
11
9.54524
21
16.2521
0
LINE
8
Black
10
9.54524
20
16.2521
11
9.44224
21
16.2703
0
LINE
8
Black
10
9.44224
20
16.2703
11
9.35166
21
16.3226
0
LINE
8
Black
10
9.35166
20
16.3226
11
9.28444
21
16.4027
0
LINE
8
Black
10
9.28444
20
16.4027
11
9.24867
21
16.501
0
LINE
8
Black
10
9.24867
20
16.501
11
9.24867
21
16.6056
0
LINE
8
Black
10
9.24867
20
16.6056
11
9.28444
21
16.7038
0
LINE
8
Black
10
9.28444
20
16.7038
11
9.35166
21
16.784
0
LINE
8
Black
10
9.35166
20
16.784
11
9.44224
21
16.8362
0
LINE
8
Black
10
9.44224
20
16.8362
11
9.54524
21
16.8544
0
LINE
8
Black
10
9.54524
20
16.8544
11
9.64823
21
16.8362
0
LINE
8
Black
10
23.3225
20
18.571
11
23.4131
21
18.5187
0
LINE
8
Black
10
23.4131
20
18.5187
11
23.4803
21
18.4386
0
LINE
8
Black
10
23.4803
20
18.4386
11
23.5161
21
18.3403
0
LINE
8
Black
10
23.5161
20
18.3403
11
23.5161
21
18.2357
0
LINE
8
Black
10
23.5161
20
18.2357
11
23.4803
21
18.1374
0
LINE
8
Black
10
23.4803
20
18.1374
11
23.4131
21
18.0573
0
LINE
8
Black
10
23.4131
20
18.0573
11
23.3225
21
18.005
0
LINE
8
Black
10
23.3225
20
18.005
11
23.2195
21
17.9869
0
LINE
8
Black
10
23.2195
20
17.9869
11
23.1165
21
18.005
0
LINE
8
Black
10
23.1165
20
18.005
11
23.0259
21
18.0573
0
LINE
8
Black
10
23.0259
20
18.0573
11
22.9587
21
18.1374
0
LINE
8
Black
10
22.9587
20
18.1374
11
22.9229
21
18.2357
0
LINE
8
Black
10
22.9229
20
18.2357
11
22.9229
21
18.3403
0
LINE
8
Black
10
22.9229
20
18.3403
11
22.9587
21
18.4386
0
LINE
8
Black
10
22.9587
20
18.4386
11
23.0259
21
18.5187
0
LINE
8
Black
10
23.0259
20
18.5187
11
23.1165
21
18.571
0
LINE
8
Black
10
23.1165
20
18.571
11
23.2195
21
18.5891
0
LINE
8
Black
10
23.2195
20
18.5891
11
23.3225
21
18.571
0
LINE
8
Black
10
24.741
20
18.571
11
24.8316
21
18.5187
0
LINE
8
Black
10
24.8316
20
18.5187
11
24.8988
21
18.4386
0
LINE
8
Black
10
24.8988
20
18.4386
11
24.9346
21
18.3403
0
LINE
8
Black
10
24.9346
20
18.3403
11
24.9346
21
18.2357
0
LINE
8
Black
10
24.9346
20
18.2357
11
24.8988
21
18.1374
0
LINE
8
Black
10
24.8988
20
18.1374
11
24.8316
21
18.0573
0
LINE
8
Black
10
24.8316
20
18.0573
11
24.741
21
18.005
0
LINE
8
Black
10
24.741
20
18.005
11
24.638
21
17.9869
0
LINE
8
Black
10
24.638
20
17.9869
11
24.535
21
18.005
0
LINE
8
Black
10
24.535
20
18.005
11
24.4444
21
18.0573
0
LINE
8
Black
10
24.4444
20
18.0573
11
24.3772
21
18.1374
0
LINE
8
Black
10
24.3772
20
18.1374
11
24.3414
21
18.2357
0
LINE
8
Black
10
24.3414
20
18.2357
11
24.3414
21
18.3403
0
LINE
8
Black
10
24.3414
20
18.3403
11
24.3772
21
18.4386
0
LINE
8
Black
10
24.3772
20
18.4386
11
24.4444
21
18.5187
0
LINE
8
Black
10
24.4444
20
18.5187
11
24.535
21
18.571
0
LINE
8
Black
10
24.535
20
18.571
11
24.638
21
18.5891
0
LINE
8
Black
10
24.638
20
18.5891
11
24.741
21
18.571
0
LINE
8
Black
10
7.603
20
18.883
11
7.69357
21
18.8307
0
LINE
8
Black
10
7.69357
20
18.8307
11
7.7608
21
18.7506
0
LINE
8
Black
10
7.7608
20
18.7506
11
7.79657
21
18.6523
0
LINE
8
Black
10
7.79657
20
18.6523
11
7.79657
21
18.5477
0
LINE
8
Black
10
7.79657
20
18.5477
11
7.7608
21
18.4494
0
LINE
8
Black
10
7.7608
20
18.4494
11
7.69357
21
18.3693
0
LINE
8
Black
10
7.69357
20
18.3693
11
7.603
21
18.317
0
LINE
8
Black
10
7.603
20
18.317
11
7.5
21
18.2989
0
LINE
8
Black
10
7.5
20
18.2989
11
7.397
21
18.317
0
LINE
8
Black
10
7.397
20
18.317
11
7.30643
21
18.3693
0
LINE
8
Black
10
7.30643
20
18.3693
11
7.2392
21
18.4494
0
LINE
8
Black
10
7.2392
20
18.4494
11
7.20343
21
18.5477
0
LINE
8
Black
10
7.20343
20
18.5477
11
7.20343
21
18.6523
0
LINE
8
Black
10
7.20343
20
18.6523
11
7.2392
21
18.7506
0
LINE
8
Black
10
7.2392
20
18.7506
11
7.30643
21
18.8307
0
LINE
8
Black
10
7.30643
20
18.8307
11
7.397
21
18.883
0
LINE
8
Black
10
7.397
20
18.883
11
7.5
21
18.9011
0
LINE
8
Black
10
7.5
20
18.9011
11
7.603
21
18.883
0
LINE
8
Black
10
9.003
20
19.083
11
9.09357
21
19.0307
0
LINE
8
Black
10
9.09357
20
19.0307
11
9.1608
21
18.9506
0
LINE
8
Black
10
9.1608
20
18.9506
11
9.19657
21
18.8523
0
LINE
8
Black
10
9.19657
20
18.8523
11
9.19657
21
18.7477
0
LINE
8
Black
10
9.19657
20
18.7477
11
9.1608
21
18.6494
0
LINE
8
Black
10
9.1608
20
18.6494
11
9.09357
21
18.5693
0
LINE
8
Black
10
9.09357
20
18.5693
11
9.003
21
18.517
0
LINE
8
Black
10
9.003
20
18.517
11
8.9
21
18.4989
0
LINE
8
Black
10
8.9
20
18.4989
11
8.797
21
18.517
0
LINE
8
Black
10
8.797
20
18.517
11
8.70643
21
18.5693
0
LINE
8
Black
10
8.70643
20
18.5693
11
8.6392
21
18.6494
0
LINE
8
Black
10
8.6392
20
18.6494
11
8.60343
21
18.7477
0
LINE
8
Black
10
8.60343
20
18.7477
11
8.60343
21
18.8523
0
LINE
8
Black
10
8.60343
20
18.8523
11
8.6392
21
18.9506
0
LINE
8
Black
10
8.6392
20
18.9506
11
8.70643
21
19.0307
0
LINE
8
Black
10
8.70643
20
19.0307
11
8.797
21
19.083
0
LINE
8
Black
10
8.797
20
19.083
11
8.9
21
19.1011
0
LINE
8
Black
10
8.9
20
19.1011
11
9.003
21
19.083
0
LINE
8
Black
10
6.433
20
19.083
11
6.52357
21
19.0307
0
LINE
8
Black
10
6.52357
20
19.0307
11
6.5908
21
18.9506
0
LINE
8
Black
10
6.5908
20
18.9506
11
6.62657
21
18.8523
0
LINE
8
Black
10
6.62657
20
18.8523
11
6.62657
21
18.7477
0
LINE
8
Black
10
6.62657
20
18.7477
11
6.5908
21
18.6494
0
LINE
8
Black
10
6.5908
20
18.6494
11
6.52357
21
18.5693
0
LINE
8
Black
10
6.52357
20
18.5693
11
6.433
21
18.517
0
LINE
8
Black
10
6.433
20
18.517
11
6.33
21
18.4989
0
LINE
8
Black
10
6.33
20
18.4989
11
6.227
21
18.517
0
LINE
8
Black
10
6.227
20
18.517
11
6.13643
21
18.5693
0
LINE
8
Black
10
6.13643
20
18.5693
11
6.0692
21
18.6494
0
LINE
8
Black
10
6.0692
20
18.6494
11
6.03343
21
18.7477
0
LINE
8
Black
10
6.03343
20
18.7477
11
6.03343
21
18.8523
0
LINE
8
Black
10
6.03343
20
18.8523
11
6.0692
21
18.9506
0
LINE
8
Black
10
6.0692
20
18.9506
11
6.13643
21
19.0307
0
LINE
8
Black
10
6.13643
20
19.0307
11
6.227
21
19.083
0
LINE
8
Black
10
6.227
20
19.083
11
6.33
21
19.1011
0
LINE
8
Black
10
6.33
20
19.1011
11
6.433
21
19.083
0
LINE
8
Black
10
2.8335
20
19.206
11
2.92407
21
19.1537
0
LINE
8
Black
10
2.92407
20
19.1537
11
2.9913
21
19.0736
0
LINE
8
Black
10
2.9913
20
19.0736
11
3.02707
21
18.9753
0
LINE
8
Black
10
3.02707
20
18.9753
11
3.02707
21
18.8707
0
LINE
8
Black
10
3.02707
20
18.8707
11
2.9913
21
18.7724
0
LINE
8
Black
10
2.9913
20
18.7724
11
2.92407
21
18.6923
0
LINE
8
Black
10
2.92407
20
18.6923
11
2.8335
21
18.64
0
LINE
8
Black
10
2.8335
20
18.64
11
2.7305
21
18.6219
0
LINE
8
Black
10
2.7305
20
18.6219
11
2.6275
21
18.64
0
LINE
8
Black
10
2.6275
20
18.64
11
2.53693
21
18.6923
0
LINE
8
Black
10
2.53693
20
18.6923
11
2.4697
21
18.7724
0
LINE
8
Black
10
2.4697
20
18.7724
11
2.43393
21
18.8707
0
LINE
8
Black
10
2.43393
20
18.8707
11
2.43393
21
18.9753
0
LINE
8
Black
10
2.43393
20
18.9753
11
2.4697
21
19.0736
0
LINE
8
Black
10
2.4697
20
19.0736
11
2.53693
21
19.1537
0
LINE
8
Black
10
2.53693
20
19.1537
11
2.6275
21
19.206
0
LINE
8
Black
10
2.6275
20
19.206
11
2.7305
21
19.2241
0
LINE
8
Black
10
2.7305
20
19.2241
11
2.8335
21
19.206
0
LINE
8
Black
10
15.103
20
20.583
11
15.1936
21
20.5307
0
LINE
8
Black
10
15.1936
20
20.5307
11
15.2608
21
20.4506
0
LINE
8
Black
10
15.2608
20
20.4506
11
15.2966
21
20.3523
0
LINE
8
Black
10
15.2966
20
20.3523
11
15.2966
21
20.2477
0
LINE
8
Black
10
15.2966
20
20.2477
11
15.2608
21
20.1494
0
LINE
8
Black
10
15.2608
20
20.1494
11
15.1936
21
20.0693
0
LINE
8
Black
10
15.1936
20
20.0693
11
15.103
21
20.017
0
LINE
8
Black
10
15.103
20
20.017
11
15
21
19.9989
0
LINE
8
Black
10
15
20
19.9989
11
14.897
21
20.017
0
LINE
8
Black
10
14.897
20
20.017
11
14.8064
21
20.0693
0
LINE
8
Black
10
14.8064
20
20.0693
11
14.7392
21
20.1494
0
LINE
8
Black
10
14.7392
20
20.1494
11
14.7034
21
20.2477
0
LINE
8
Black
10
14.7034
20
20.2477
11
14.7034
21
20.3523
0
LINE
8
Black
10
14.7034
20
20.3523
11
14.7392
21
20.4506
0
LINE
8
Black
10
14.7392
20
20.4506
11
14.8064
21
20.5307
0
LINE
8
Black
10
14.8064
20
20.5307
11
14.897
21
20.583
0
LINE
8
Black
10
14.897
20
20.583
11
15
21
20.6011
0
LINE
8
Black
10
15
20
20.6011
11
15.103
21
20.583
0
LINE
8
Black
10
5.61401
20
21.6056
11
5.70458
21
21.5533
0
LINE
8
Black
10
5.70458
20
21.5533
11
5.77181
21
21.4732
0
LINE
8
Black
10
5.77181
20
21.4732
11
5.80758
21
21.3749
0
LINE
8
Black
10
5.80758
20
21.3749
11
5.80758
21
21.2703
0
LINE
8
Black
10
5.80758
20
21.2703
11
5.77181
21
21.1721
0
LINE
8
Black
10
5.77181
20
21.1721
11
5.70458
21
21.0919
0
LINE
8
Black
10
5.70458
20
21.0919
11
5.61401
21
21.0397
0
LINE
8
Black
10
5.61401
20
21.0397
11
5.51101
21
21.0215
0
LINE
8
Black
10
5.51101
20
21.0215
11
5.40801
21
21.0397
0
LINE
8
Black
10
5.40801
20
21.0397
11
5.31743
21
21.0919
0
LINE
8
Black
10
5.31743
20
21.0919
11
5.25021
21
21.1721
0
LINE
8
Black
10
5.25021
20
21.1721
11
5.21444
21
21.2703
0
LINE
8
Black
10
5.21444
20
21.2703
11
5.21444
21
21.3749
0
LINE
8
Black
10
5.21444
20
21.3749
11
5.25021
21
21.4732
0
LINE
8
Black
10
5.25021
20
21.4732
11
5.31743
21
21.5533
0
LINE
8
Black
10
5.31743
20
21.5533
11
5.40801
21
21.6056
0
LINE
8
Black
10
5.40801
20
21.6056
11
5.51101
21
21.6238
0
LINE
8
Black
10
5.51101
20
21.6238
11
5.61401
21
21.6056
0
LINE
8
Black
10
3.503
20
21.661
11
3.59357
21
21.6087
0
LINE
8
Black
10
3.59357
20
21.6087
11
3.6608
21
21.5286
0
LINE
8
Black
10
3.6608
20
21.5286
11
3.69657
21
21.4303
0
LINE
8
Black
10
3.69657
20
21.4303
11
3.69657
21
21.3257
0
LINE
8
Black
10
3.69657
20
21.3257
11
3.6608
21
21.2274
0
LINE
8
Black
10
3.6608
20
21.2274
11
3.59357
21
21.1473
0
LINE
8
Black
10
3.59357
20
21.1473
11
3.503
21
21.095
0
LINE
8
Black
10
3.503
20
21.095
11
3.4
21
21.0769
0
LINE
8
Black
10
3.4
20
21.0769
11
3.297
21
21.095
0
LINE
8
Black
10
3.297
20
21.095
11
3.20643
21
21.1473
0
LINE
8
Black
10
3.20643
20
21.1473
11
3.1392
21
21.2274
0
LINE
8
Black
10
3.1392
20
21.2274
11
3.10343
21
21.3257
0
LINE
8
Black
10
3.10343
20
21.3257
11
3.10343
21
21.4303
0
LINE
8
Black
10
3.10343
20
21.4303
11
3.1392
21
21.5286
0
LINE
8
Black
10
3.1392
20
21.5286
11
3.20643
21
21.6087
0
LINE
8
Black
10
3.20643
20
21.6087
11
3.297
21
21.661
0
LINE
8
Black
10
3.297
20
21.661
11
3.4
21
21.6792
0
LINE
8
Black
10
3.4
20
21.6792
11
3.503
21
21.661
0
LINE
8
Black
10
16.994
20
21.873
11
17.0846
21
21.8207
0
LINE
8
Black
10
17.0846
20
21.8207
11
17.1518
21
21.7406
0
LINE
8
Black
10
17.1518
20
21.7406
11
17.1876
21
21.6423
0
LINE
8
Black
10
17.1876
20
21.6423
11
17.1876
21
21.5377
0
LINE
8
Black
10
17.1876
20
21.5377
11
17.1518
21
21.4394
0
LINE
8
Black
10
17.1518
20
21.4394
11
17.0846
21
21.3593
0
LINE
8
Black
10
17.0846
20
21.3593
11
16.994
21
21.307
0
LINE
8
Black
10
16.994
20
21.307
11
16.891
21
21.2889
0
LINE
8
Black
10
16.891
20
21.2889
11
16.788
21
21.307
0
LINE
8
Black
10
16.788
20
21.307
11
16.6974
21
21.3593
0
LINE
8
Black
10
16.6974
20
21.3593
11
16.6302
21
21.4394
0
LINE
8
Black
10
16.6302
20
21.4394
11
16.5944
21
21.5377
0
LINE
8
Black
10
16.5944
20
21.5377
11
16.5944
21
21.6423
0
LINE
8
Black
10
16.5944
20
21.6423
11
16.6302
21
21.7406
0
LINE
8
Black
10
16.6302
20
21.7406
11
16.6974
21
21.8207
0
LINE
8
Black
10
16.6974
20
21.8207
11
16.788
21
21.873
0
LINE
8
Black
10
16.788
20
21.873
11
16.891
21
21.8911
0
LINE
8
Black
10
16.891
20
21.8911
11
16.994
21
21.873
0
LINE
8
Black
10
10.303
20
23.083
11
10.3936
21
23.0307
0
LINE
8
Black
10
10.3936
20
23.0307
11
10.4608
21
22.9506
0
LINE
8
Black
10
10.4608
20
22.9506
11
10.4966
21
22.8523
0
LINE
8
Black
10
10.4966
20
22.8523
11
10.4966
21
22.7477
0
LINE
8
Black
10
10.4966
20
22.7477
11
10.4608
21
22.6494
0
LINE
8
Black
10
10.4608
20
22.6494
11
10.3936
21
22.5693
0
LINE
8
Black
10
10.3936
20
22.5693
11
10.303
21
22.517
0
LINE
8
Black
10
10.303
20
22.517
11
10.2
21
22.4989
0
LINE
8
Black
10
10.2
20
22.4989
11
10.097
21
22.517
0
LINE
8
Black
10
10.097
20
22.517
11
10.0064
21
22.5693
0
LINE
8
Black
10
10.0064
20
22.5693
11
9.9392
21
22.6494
0
LINE
8
Black
10
9.9392
20
22.6494
11
9.90343
21
22.7477
0
LINE
8
Black
10
9.90343
20
22.7477
11
9.90343
21
22.8523
0
LINE
8
Black
10
9.90343
20
22.8523
11
9.9392
21
22.9506
0
LINE
8
Black
10
9.9392
20
22.9506
11
10.0064
21
23.0307
0
LINE
8
Black
10
10.0064
20
23.0307
11
10.097
21
23.083
0
LINE
8
Black
10
10.097
20
23.083
11
10.2
21
23.1011
0
LINE
8
Black
10
10.2
20
23.1011
11
10.303
21
23.083
0
LINE
8
Black
10
16.994
20
23.143
11
17.0846
21
23.0907
0
LINE
8
Black
10
17.0846
20
23.0907
11
17.1518
21
23.0106
0
LINE
8
Black
10
17.1518
20
23.0106
11
17.1876
21
22.9123
0
LINE
8
Black
10
17.1876
20
22.9123
11
17.1876
21
22.8077
0
LINE
8
Black
10
17.1876
20
22.8077
11
17.1518
21
22.7094
0
LINE
8
Black
10
17.1518
20
22.7094
11
17.0846
21
22.6293
0
LINE
8
Black
10
17.0846
20
22.6293
11
16.994
21
22.577
0
LINE
8
Black
10
16.994
20
22.577
11
16.891
21
22.5589
0
LINE
8
Black
10
16.891
20
22.5589
11
16.788
21
22.577
0
LINE
8
Black
10
16.788
20
22.577
11
16.6974
21
22.6293
0
LINE
8
Black
10
16.6974
20
22.6293
11
16.6302
21
22.7094
0
LINE
8
Black
10
16.6302
20
22.7094
11
16.5944
21
22.8077
0
LINE
8
Black
10
16.5944
20
22.8077
11
16.5944
21
22.9123
0
LINE
8
Black
10
16.5944
20
22.9123
11
16.6302
21
23.0106
0
LINE
8
Black
10
16.6302
20
23.0106
11
16.6974
21
23.0907
0
LINE
8
Black
10
16.6974
20
23.0907
11
16.788
21
23.143
0
LINE
8
Black
10
16.788
20
23.143
11
16.891
21
23.1611
0
LINE
8
Black
10
16.891
20
23.1611
11
16.994
21
23.143
0
LINE
8
Black
10
27.303
20
23.883
11
27.3936
21
23.8307
0
LINE
8
Black
10
27.3936
20
23.8307
11
27.4608
21
23.7506
0
LINE
8
Black
10
27.4608
20
23.7506
11
27.4966
21
23.6523
0
LINE
8
Black
10
27.4966
20
23.6523
11
27.4966
21
23.5477
0
LINE
8
Black
10
27.4966
20
23.5477
11
27.4608
21
23.4494
0
LINE
8
Black
10
27.4608
20
23.4494
11
27.3936
21
23.3693
0
LINE
8
Black
10
27.3936
20
23.3693
11
27.303
21
23.317
0
LINE
8
Black
10
27.303
20
23.317
11
27.2
21
23.2989
0
LINE
8
Black
10
27.2
20
23.2989
11
27.097
21
23.317
0
LINE
8
Black
10
27.097
20
23.317
11
27.0064
21
23.3693
0
LINE
8
Black
10
27.0064
20
23.3693
11
26.9392
21
23.4494
0
LINE
8
Black
10
26.9392
20
23.4494
11
26.9034
21
23.5477
0
LINE
8
Black
10
26.9034
20
23.5477
11
26.9034
21
23.6523
0
LINE
8
Black
10
26.9034
20
23.6523
11
26.9392
21
23.7506
0
LINE
8
Black
10
26.9392
20
23.7506
11
27.0064
21
23.8307
0
LINE
8
Black
10
27.0064
20
23.8307
11
27.097
21
23.883
0
LINE
8
Black
10
27.097
20
23.883
11
27.2
21
23.9011
0
LINE
8
Black
10
27.2
20
23.9011
11
27.303
21
23.883
0
LINE
8
Black
10
10.403
20
24.383
11
10.4936
21
24.3307
0
LINE
8
Black
10
10.4936
20
24.3307
11
10.5608
21
24.2506
0
LINE
8
Black
10
10.5608
20
24.2506
11
10.5966
21
24.1523
0
LINE
8
Black
10
10.5966
20
24.1523
11
10.5966
21
24.0477
0
LINE
8
Black
10
10.5966
20
24.0477
11
10.5608
21
23.9494
0
LINE
8
Black
10
10.5608
20
23.9494
11
10.4936
21
23.8693
0
LINE
8
Black
10
10.4936
20
23.8693
11
10.403
21
23.817
0
LINE
8
Black
10
10.403
20
23.817
11
10.3
21
23.7989
0
LINE
8
Black
10
10.3
20
23.7989
11
10.197
21
23.817
0
LINE
8
Black
10
10.197
20
23.817
11
10.1064
21
23.8693
0
LINE
8
Black
10
10.1064
20
23.8693
11
10.0392
21
23.9494
0
LINE
8
Black
10
10.0392
20
23.9494
11
10.0034
21
24.0477
0
LINE
8
Black
10
10.0034
20
24.0477
11
10.0034
21
24.1523
0
LINE
8
Black
10
10.0034
20
24.1523
11
10.0392
21
24.2506
0
LINE
8
Black
10
10.0392
20
24.2506
11
10.1064
21
24.3307
0
LINE
8
Black
10
10.1064
20
24.3307
11
10.197
21
24.383
0
LINE
8
Black
10
10.197
20
24.383
11
10.3
21
24.4011
0
LINE
8
Black
10
10.3
20
24.4011
11
10.403
21
24.383
0
LINE
8
Black
10
2.78408
20
25.4544
11
2.87466
21
25.4021
0
LINE
8
Black
10
2.87466
20
25.4021
11
2.94189
21
25.322
0
LINE
8
Black
10
2.94189
20
25.322
11
2.97766
21
25.2237
0
LINE
8
Black
10
2.97766
20
25.2237
11
2.97766
21
25.1191
0
LINE
8
Black
10
2.97766
20
25.1191
11
2.94189
21
25.0209
0
LINE
8
Black
10
2.94189
20
25.0209
11
2.87466
21
24.9407
0
LINE
8
Black
10
2.87466
20
24.9407
11
2.78408
21
24.8884
0
LINE
8
Black
10
2.78408
20
24.8884
11
2.68108
21
24.8703
0
LINE
8
Black
10
2.68108
20
24.8703
11
2.57809
21
24.8884
0
LINE
8
Black
10
2.57809
20
24.8884
11
2.48751
21
24.9407
0
LINE
8
Black
10
2.48751
20
24.9407
11
2.42028
21
25.0209
0
LINE
8
Black
10
2.42028
20
25.0209
11
2.38451
21
25.1191
0
LINE
8
Black
10
2.38451
20
25.1191
11
2.38451
21
25.2237
0
LINE
8
Black
10
2.38451
20
25.2237
11
2.42028
21
25.322
0
LINE
8
Black
10
2.42028
20
25.322
11
2.48751
21
25.4021
0
LINE
8
Black
10
2.48751
20
25.4021
11
2.57809
21
25.4544
0
LINE
8
Black
10
2.57809
20
25.4544
11
2.68108
21
25.4726
0
LINE
8
Black
10
2.68108
20
25.4726
11
2.78408
21
25.4544
0
LINE
8
Black
10
29.303
20
27.083
11
29.3936
21
27.0307
0
LINE
8
Black
10
29.3936
20
27.0307
11
29.4608
21
26.9506
0
LINE
8
Black
10
29.4608
20
26.9506
11
29.4966
21
26.8523
0
LINE
8
Black
10
29.4966
20
26.8523
11
29.4966
21
26.7477
0
LINE
8
Black
10
29.4966
20
26.7477
11
29.4608
21
26.6494
0
LINE
8
Black
10
29.4608
20
26.6494
11
29.3936
21
26.5693
0
LINE
8
Black
10
29.3936
20
26.5693
11
29.303
21
26.517
0
LINE
8
Black
10
29.303
20
26.517
11
29.2
21
26.4989
0
LINE
8
Black
10
29.2
20
26.4989
11
29.097
21
26.517
0
LINE
8
Black
10
29.097
20
26.517
11
29.0064
21
26.5693
0
LINE
8
Black
10
29.0064
20
26.5693
11
28.9392
21
26.6494
0
LINE
8
Black
10
28.9392
20
26.6494
11
28.9034
21
26.7477
0
LINE
8
Black
10
28.9034
20
26.7477
11
28.9034
21
26.8523
0
LINE
8
Black
10
28.9034
20
26.8523
11
28.9392
21
26.9506
0
LINE
8
Black
10
28.9392
20
26.9506
11
29.0064
21
27.0307
0
LINE
8
Black
10
29.0064
20
27.0307
11
29.097
21
27.083
0
LINE
8
Black
10
29.097
20
27.083
11
29.2
21
27.1011
0
LINE
8
Black
10
29.2
20
27.1011
11
29.303
21
27.083
0
LINE
8
Black
10
13.819
20
27.969
11
13.9096
21
27.9167
0
LINE
8
Black
10
13.9096
20
27.9167
11
13.9768
21
27.8366
0
LINE
8
Black
10
13.9768
20
27.8366
11
14.0126
21
27.7383
0
LINE
8
Black
10
14.0126
20
27.7383
11
14.0126
21
27.6337
0
LINE
8
Black
10
14.0126
20
27.6337
11
13.9768
21
27.5354
0
LINE
8
Black
10
13.9768
20
27.5354
11
13.9096
21
27.4553
0
LINE
8
Black
10
13.9096
20
27.4553
11
13.819
21
27.403
0
LINE
8
Black
10
13.819
20
27.403
11
13.716
21
27.3849
0
LINE
8
Black
10
13.716
20
27.3849
11
13.613
21
27.403
0
LINE
8
Black
10
13.613
20
27.403
11
13.5224
21
27.4553
0
LINE
8
Black
10
13.5224
20
27.4553
11
13.4552
21
27.5354
0
LINE
8
Black
10
13.4552
20
27.5354
11
13.4194
21
27.6337
0
LINE
8
Black
10
13.4194
20
27.6337
11
13.4194
21
27.7383
0
LINE
8
Black
10
13.4194
20
27.7383
11
13.4552
21
27.8366
0
LINE
8
Black
10
13.4552
20
27.8366
11
13.5224
21
27.9167
0
LINE
8
Black
10
13.5224
20
27.9167
11
13.613
21
27.969
0
LINE
8
Black
10
13.613
20
27.969
11
13.716
21
27.9871
0
LINE
8
Black
10
13.716
20
27.9871
11
13.819
21
27.969
0
LINE
8
Black
10
24.333
20
28.013
11
24.4236
21
27.9607
0
LINE
8
Black
10
24.4236
20
27.9607
11
24.4908
21
27.8806
0
LINE
8
Black
10
24.4908
20
27.8806
11
24.5266
21
27.7823
0
LINE
8
Black
10
24.5266
20
27.7823
11
24.5266
21
27.6777
0
LINE
8
Black
10
24.5266
20
27.6777
11
24.4908
21
27.5794
0
LINE
8
Black
10
24.4908
20
27.5794
11
24.4236
21
27.4993
0
LINE
8
Black
10
24.4236
20
27.4993
11
24.333
21
27.447
0
LINE
8
Black
10
24.333
20
27.447
11
24.23
21
27.4289
0
LINE
8
Black
10
24.23
20
27.4289
11
24.127
21
27.447
0
LINE
8
Black
10
24.127
20
27.447
11
24.0364
21
27.4993
0
LINE
8
Black
10
24.0364
20
27.4993
11
23.9692
21
27.5794
0
LINE
8
Black
10
23.9692
20
27.5794
11
23.9334
21
27.6777
0
LINE
8
Black
10
23.9334
20
27.6777
11
23.9334
21
27.7823
0
LINE
8
Black
10
23.9334
20
27.7823
11
23.9692
21
27.8806
0
LINE
8
Black
10
23.9692
20
27.8806
11
24.0364
21
27.9607
0
LINE
8
Black
10
24.0364
20
27.9607
11
24.127
21
28.013
0
LINE
8
Black
10
24.127
20
28.013
11
24.23
21
28.0311
0
LINE
8
Black
10
24.23
20
28.0311
11
24.333
21
28.013
0
LINE
8
Black
10
26.873
20
28.013
11
26.9636
21
27.9607
0
LINE
8
Black
10
26.9636
20
27.9607
11
27.0308
21
27.8806
0
LINE
8
Black
10
27.0308
20
27.8806
11
27.0666
21
27.7823
0
LINE
8
Black
10
27.0666
20
27.7823
11
27.0666
21
27.6777
0
LINE
8
Black
10
27.0666
20
27.6777
11
27.0308
21
27.5794
0
LINE
8
Black
10
27.0308
20
27.5794
11
26.9636
21
27.4993
0
LINE
8
Black
10
26.9636
20
27.4993
11
26.873
21
27.447
0
LINE
8
Black
10
26.873
20
27.447
11
26.77
21
27.4289
0
LINE
8
Black
10
26.77
20
27.4289
11
26.667
21
27.447
0
LINE
8
Black
10
26.667
20
27.447
11
26.5764
21
27.4993
0
LINE
8
Black
10
26.5764
20
27.4993
11
26.5092
21
27.5794
0
LINE
8
Black
10
26.5092
20
27.5794
11
26.4734
21
27.6777
0
LINE
8
Black
10
26.4734
20
27.6777
11
26.4734
21
27.7823
0
LINE
8
Black
10
26.4734
20
27.7823
11
26.5092
21
27.8806
0
LINE
8
Black
10
26.5092
20
27.8806
11
26.5764
21
27.9607
0
LINE
8
Black
10
26.5764
20
27.9607
11
26.667
21
28.013
0
LINE
8
Black
10
26.667
20
28.013
11
26.77
21
28.0311
0
LINE
8
Black
10
26.77
20
28.0311
11
26.873
21
28.013
0
LINE
8
Black
10
3.333
20
28.013
11
3.42357
21
27.9607
0
LINE
8
Black
10
3.42357
20
27.9607
11
3.4908
21
27.8806
0
LINE
8
Black
10
3.4908
20
27.8806
11
3.52657
21
27.7823
0
LINE
8
Black
10
3.52657
20
27.7823
11
3.52657
21
27.6777
0
LINE
8
Black
10
3.52657
20
27.6777
11
3.4908
21
27.5794
0
LINE
8
Black
10
3.4908
20
27.5794
11
3.42357
21
27.4993
0
LINE
8
Black
10
3.42357
20
27.4993
11
3.333
21
27.447
0
LINE
8
Black
10
3.333
20
27.447
11
3.23
21
27.4289
0
LINE
8
Black
10
3.23
20
27.4289
11
3.127
21
27.447
0
LINE
8
Black
10
3.127
20
27.447
11
3.03643
21
27.4993
0
LINE
8
Black
10
3.03643
20
27.4993
11
2.9692
21
27.5794
0
LINE
8
Black
10
2.9692
20
27.5794
11
2.93343
21
27.6777
0
LINE
8
Black
10
2.93343
20
27.6777
11
2.93343
21
27.7823
0
LINE
8
Black
10
2.93343
20
27.7823
11
2.9692
21
27.8806
0
LINE
8
Black
10
2.9692
20
27.8806
11
3.03643
21
27.9607
0
LINE
8
Black
10
3.03643
20
27.9607
11
3.127
21
28.013
0
LINE
8
Black
10
3.127
20
28.013
11
3.23
21
28.0311
0
LINE
8
Black
10
3.23
20
28.0311
11
3.333
21
28.013
0
LINE
8
Black
10
5.873
20
28.013
11
5.96357
21
27.9607
0
LINE
8
Black
10
5.96357
20
27.9607
11
6.0308
21
27.8806
0
LINE
8
Black
10
6.0308
20
27.8806
11
6.06657
21
27.7823
0
LINE
8
Black
10
6.06657
20
27.7823
11
6.06657
21
27.6777
0
LINE
8
Black
10
6.06657
20
27.6777
11
6.0308
21
27.5794
0
LINE
8
Black
10
6.0308
20
27.5794
11
5.96357
21
27.4993
0
LINE
8
Black
10
5.96357
20
27.4993
11
5.873
21
27.447
0
LINE
8
Black
10
5.873
20
27.447
11
5.77
21
27.4289
0
LINE
8
Black
10
5.77
20
27.4289
11
5.667
21
27.447
0
LINE
8
Black
10
5.667
20
27.447
11
5.57643
21
27.4993
0
LINE
8
Black
10
5.57643
20
27.4993
11
5.5092
21
27.5794
0
LINE
8
Black
10
5.5092
20
27.5794
11
5.47343
21
27.6777
0
LINE
8
Black
10
5.47343
20
27.6777
11
5.47343
21
27.7823
0
LINE
8
Black
10
5.47343
20
27.7823
11
5.5092
21
27.8806
0
LINE
8
Black
10
5.5092
20
27.8806
11
5.57643
21
27.9607
0
LINE
8
Black
10
5.57643
20
27.9607
11
5.667
21
28.013
0
LINE
8
Black
10
5.667
20
28.013
11
5.77
21
28.0311
0
LINE
8
Black
10
5.77
20
28.0311
11
5.873
21
28.013
0
LINE
8
Black
10
16.303
20
30.683
11
16.3936
21
30.6307
0
LINE
8
Black
10
16.3936
20
30.6307
11
16.4608
21
30.5506
0
LINE
8
Black
10
16.4608
20
30.5506
11
16.4966
21
30.4523
0
LINE
8
Black
10
16.4966
20
30.4523
11
16.4966
21
30.3477
0
LINE
8
Black
10
16.4966
20
30.3477
11
16.4608
21
30.2494
0
LINE
8
Black
10
16.4608
20
30.2494
11
16.3936
21
30.1693
0
LINE
8
Black
10
16.3936
20
30.1693
11
16.303
21
30.117
0
LINE
8
Black
10
16.303
20
30.117
11
16.2
21
30.0989
0
LINE
8
Black
10
16.2
20
30.0989
11
16.097
21
30.117
0
LINE
8
Black
10
16.097
20
30.117
11
16.0064
21
30.1693
0
LINE
8
Black
10
16.0064
20
30.1693
11
15.9392
21
30.2494
0
LINE
8
Black
10
15.9392
20
30.2494
11
15.9034
21
30.3477
0
LINE
8
Black
10
15.9034
20
30.3477
11
15.9034
21
30.4523
0
LINE
8
Black
10
15.9034
20
30.4523
11
15.9392
21
30.5506
0
LINE
8
Black
10
15.9392
20
30.5506
11
16.0064
21
30.6307
0
LINE
8
Black
10
16.0064
20
30.6307
11
16.097
21
30.683
0
LINE
8
Black
10
16.097
20
30.683
11
16.2
21
30.7011
0
LINE
8
Black
10
16.2
20
30.7011
11
16.303
21
30.683
0
CIRCLE
8
Black
10
6.17073
20
11.8627
40
0.2
0
CIRCLE
8
Black
10
2.27
20
16.27
40
0.2
0
CIRCLE
8
Black
10
2.27
20
13.73
40
0.2
0
CIRCLE
8
Black
10
16.3
20
11.6
40
0.2
0
CIRCLE
8
Black
10
15.4
20
11.4
40
0.2
0
CIRCLE
8
Black
10
5.77
20
27.73
40
0.2
0
CIRCLE
8
Black
10
5.47716
20
11.04
40
0.2
0
CIRCLE
8
Black
10
3.23
20
27.73
40
0.2
0
CIRCLE
8
Black
10
5.58405
20
10
40
0.2
0
CIRCLE
8
Black
10
3.23
20
2.27
40
0.2
0
CIRCLE
8
Black
10
15.9404
20
9.83999
40
0.2
0
CIRCLE
8
Black
10
5.77
20
2.27
40
0.2
0
CIRCLE
8
Black
10
16.2013
20
9.12616
40
0.2
0
CIRCLE
8
Black
10
16.2
20
30.4
40
0.2
0
CIRCLE
8
Black
10
6.8
20
12.6
40
0.2
0
CIRCLE
8
Black
10
6.872
20
16.2223
40
0.2
0
CIRCLE
8
Black
10
13.716
20
27.686
40
0.2
0
CIRCLE
8
Black
10
6.14406
20
9.29081
40
0.2
0
CIRCLE
8
Black
10
13.716
20
2.286
40
0.2
0
CIRCLE
8
Black
10
5.7
20
8.5
40
0.2
0
CIRCLE
8
Black
10
13.6745
20
6.46643
40
0.2
0
CIRCLE
8
Black
10
12
20
3.6
40
0.2
0
CIRCLE
8
Black
10
15.494
20
0.762
40
0.2
0
CIRCLE
8
Black
10
15.7
20
8.5
40
0.2
0
CIRCLE
8
Black
10
26.77
20
27.73
40
0.2
0
CIRCLE
8
Black
10
16.8
20
7.9
40
0.2
0
CIRCLE
8
Black
10
23.2195
20
18.288
40
0.2
0
CIRCLE
8
Black
10
24.638
20
18.288
40
0.2
0
CIRCLE
8
Black
10
24.23
20
27.73
40
0.2
0
CIRCLE
8
Black
10
6.69
20
7.75
40
0.2
0
CIRCLE
8
Black
10
24.23
20
2.27
40
0.2
0
CIRCLE
8
Black
10
8.8
20
5.4
40
0.2
0
CIRCLE
8
Black
10
26.77
20
2.27
40
0.2
0
CIRCLE
8
Black
10
18
20
6
40
0.2
0
CIRCLE
8
Black
10
27.73
20
13.73
40
0.2
0
CIRCLE
8
Black
10
19.2
20
6.3
40
0.2
0
CIRCLE
8
Black
10
27.73
20
16.27
40
0.2
0
CIRCLE
8
Black
10
24.8
20
13.8
40
0.2
0
CIRCLE
8
Black
10
10.2
20
5.6
40
0.2
0
CIRCLE
8
Black
10
27.2
20
23.6
40
0.2
0
CIRCLE
8
Black
10
29.2
20
26.8
40
0.2
0
CIRCLE
8
Black
10
3.4
20
21.378
40
0.2
0
CIRCLE
8
Black
10
10.3
20
24.1
40
0.2
0
CIRCLE
8
Black
10
14.3
20
15.3
40
0.2
0
CIRCLE
8
Black
10
20
20
6.9
40
0.2
0
CIRCLE
8
Black
10
6.33
20
18.8
40
0.2
0
CIRCLE
8
Black
10
19.8
20
14.3
40
0.2
0
CIRCLE
8
Black
10
10
20
15.2
40
0.2
0
CIRCLE
8
Black
10
10
20
6.8
40
0.2
0
CIRCLE
8
Black
10
5.51101
20
21.3226
40
0.2
0
CIRCLE
8
Black
10
10.2
20
22.8
40
0.2
0
CIRCLE
8
Black
10
11.2
20
4.3
40
0.2
0
CIRCLE
8
Black
10
21.336
20
2.794
40
0.2
0
CIRCLE
8
Black
10
12.7
20
7.7
40
0.2
0
CIRCLE
8
Black
10
8.636
20
2.794
40
0.2
0
CIRCLE
8
Black
10
11.4
20
13.3
40
0.2
0
CIRCLE
8
Black
10
17.9338
20
13.2211
40
0.2
0
CIRCLE
8
Black
10
10.56
20
13.901
40
0.2
0
CIRCLE
8
Black
10
8.9
20
18.8
40
0.2
0
CIRCLE
8
Black
10
2.7305
20
18.923
40
0.2
0
CIRCLE
8
Black
10
20.4
20
15.2
40
0.2
0
CIRCLE
8
Black
10
17.79
20
14.3565
40
0.2
0
CIRCLE
8
Black
10
9.54524
20
16.5533
40
0.2
0
CIRCLE
8
Black
10
2.68108
20
25.1714
40
0.2
0
CIRCLE
8
Black
10
7.5
20
18.6
40
0.2
0
CIRCLE
8
Black
10
8
20
14.5
40
0.2
0
CIRCLE
8
Black
10
16.6
20
5.3
40
0.2
0
CIRCLE
8
Black
10
18.542
20
3.556
40
0.2
0
CIRCLE
8
Black
10
21.844
20
7.5
40
0.2
0
CIRCLE
8
Black
10
15
20
5.6
40
0.2
0
CIRCLE
8
Black
10
22.6
20
8.08599
40
0.2
0
CIRCLE
8
Black
10
11.938
20
2.54
40
0.2
0
CIRCLE
8
Black
10
21.236
20
15.5368
40
0.2
0
CIRCLE
8
Black
10
15
20
20.3
40
0.2
0
CIRCLE
8
Black
10
4.58584
20
13.86
40
0.2
0
CIRCLE
8
Black
10
16.891
20
22.86
40
0.2
0
CIRCLE
8
Black
10
2.667
20
10.8585
40
0.2
0
CIRCLE
8
Black
10
2.921
20
7.3025
40
0.2
0
CIRCLE
8
Black
10
6.23999
20
14.2761
40
0.2
0
CIRCLE
8
Black
10
3.7
20
10.32
40
0.2
0
CIRCLE
8
Black
10
2.6
20
5.6
40
0.2
0
CIRCLE
8
Black
10
16.891
20
21.59
40
0.2
  0
ENDSEC
  0
EOF
