  0
SECTION
  2
HEADER
  9
$ANGBASE
  50
0.0
  9
$ANGDIR
  70
  1
  9
$MEASUREMENT
  70
0
  0
ENDSEC
  0
SECTION
  2
TABLES
  0
TABLE
  2
LTYPE
  70
1
  0
LTYPE
  2
CONTINUOUS
  70
0
  3
Solid line
  72
65
  73
0
  40
0.0
  0
ENDTAB
  0
TABLE
  2
STYLE
  70
4
  0
STYLE
  2
KICAD
  70
0
  40
0
  41
1
  42
1
  50
0
  71
0
  3
isocp.shx
  0
STYLE
  2
KICADB
  70
0
  40
0
  41
1
  42
1
  50
0
  71
0
  3
isocp.shx
  0
STYLE
  2
KICADI
  70
0
  40
0
  41
1
  42
1
  50
15
  71
0
  3
isocp.shx
  0
STYLE
  2
KICADBI
  70
0
  40
0
  41
1
  42
1
  50
15
  71
0
  3
isocp.shx
  0
ENDTAB
  0
TABLE
  2
LAYER
  70
30
  0
LAYER
  2
BLACK
  70
0
  62
7
  6
CONTINUOUS
  0
LAYER
  2
GRAY1
  70
0
  62
251
  6
CONTINUOUS
  0
LAYER
  2
GRAY2
  70
0
  62
8
  6
CONTINUOUS
  0
LAYER
  2
GRAY3
  70
0
  62
9
  6
CONTINUOUS
  0
LAYER
  2
WHITE
  70
0
  62
7
  6
CONTINUOUS
  0
LAYER
  2
LYELLOW
  70
0
  62
51
  6
CONTINUOUS
  0
LAYER
  2
BLUE1
  70
0
  62
178
  6
CONTINUOUS
  0
LAYER
  2
GREEN1
  70
0
  62
98
  6
CONTINUOUS
  0
LAYER
  2
CYAN1
  70
0
  62
138
  6
CONTINUOUS
  0
LAYER
  2
RED1
  70
0
  62
18
  6
CONTINUOUS
  0
LAYER
  2
MAGENTA1
  70
0
  62
228
  6
CONTINUOUS
  0
LAYER
  2
BROWN1
  70
0
  62
58
  6
CONTINUOUS
  0
LAYER
  2
BLUE2
  70
0
  62
5
  6
CONTINUOUS
  0
LAYER
  2
GREEN2
  70
0
  62
3
  6
CONTINUOUS
  0
LAYER
  2
CYAN2
  70
0
  62
4
  6
CONTINUOUS
  0
LAYER
  2
RED2
  70
0
  62
1
  6
CONTINUOUS
  0
LAYER
  2
MAGENTA2
  70
0
  62
6
  6
CONTINUOUS
  0
LAYER
  2
BROWN2
  70
0
  62
54
  6
CONTINUOUS
  0
LAYER
  2
BLUE3
  70
0
  62
171
  6
CONTINUOUS
  0
LAYER
  2
GREEN3
  70
0
  62
91
  6
CONTINUOUS
  0
LAYER
  2
CYAN3
  70
0
  62
131
  6
CONTINUOUS
  0
LAYER
  2
RED3
  70
0
  62
11
  6
CONTINUOUS
  0
LAYER
  2
MAGENTA3
  70
0
  62
221
  6
CONTINUOUS
  0
LAYER
  2
YELLOW3
  70
0
  62
2
  6
CONTINUOUS
  0
LAYER
  2
BLUE4
  70
0
  62
5
  6
CONTINUOUS
  0
LAYER
  2
GREEN4
  70
0
  62
3
  6
CONTINUOUS
  0
LAYER
  2
CYAN4
  70
0
  62
4
  6
CONTINUOUS
  0
LAYER
  2
RED4
  70
0
  62
1
  6
CONTINUOUS
  0
LAYER
  2
MAGENTA4
  70
0
  62
6
  6
CONTINUOUS
  0
LAYER
  2
YELLOW4
  70
0
  62
2
  6
CONTINUOUS
  0
ENDTAB
  0
ENDSEC
  0
SECTION
  2
ENTITIES
0
LINE
8
Black
10
27.265
20
-2.105
11
25.595
21
-2.105
0
LINE
8
Black
10
25.595
20
-2.105
11
25.595
21
1.725
0
LINE
8
Black
10
25.595
20
1.725
11
27.265
21
1.725
0
LINE
8
Black
10
27.265
20
1.725
11
27.265
21
-2.105
0
LINE
8
Black
10
22.185
20
-2.105
11
20.515
21
-2.105
0
LINE
8
Black
10
20.515
20
-2.105
11
20.515
21
1.725
0
LINE
8
Black
10
20.515
20
1.725
11
22.185
21
1.725
0
LINE
8
Black
10
22.185
20
1.725
11
22.185
21
-2.105
0
LINE
8
Black
10
17.105
20
-2.105
11
15.435
21
-2.105
0
LINE
8
Black
10
15.435
20
-2.105
11
15.435
21
1.725
0
LINE
8
Black
10
15.435
20
1.725
11
17.105
21
1.725
0
LINE
8
Black
10
17.105
20
1.725
11
17.105
21
-2.105
0
LINE
8
Black
10
12.025
20
-2.105
11
10.355
21
-2.105
0
LINE
8
Black
10
10.355
20
-2.105
11
10.355
21
1.725
0
LINE
8
Black
10
10.355
20
1.725
11
12.025
21
1.725
0
LINE
8
Black
10
12.025
20
1.725
11
12.025
21
-2.105
0
LINE
8
Black
10
6.945
20
-2.105
11
5.275
21
-2.105
0
LINE
8
Black
10
5.275
20
-2.105
11
5.275
21
1.725
0
LINE
8
Black
10
5.275
20
1.725
11
6.945
21
1.725
0
LINE
8
Black
10
6.945
20
1.725
11
6.945
21
-2.105
0
LINE
8
Black
10
4.405
20
0.815
11
2.735
21
0.815
0
LINE
8
Black
10
2.735
20
0.815
11
2.735
21
4.645
0
LINE
8
Black
10
2.735
20
4.645
11
4.405
21
4.645
0
LINE
8
Black
10
4.405
20
4.645
11
4.405
21
0.815
0
LINE
8
Black
10
9.485
20
0.815
11
7.815
21
0.815
0
LINE
8
Black
10
7.815
20
0.815
11
7.815
21
4.645
0
LINE
8
Black
10
7.815
20
4.645
11
9.485
21
4.645
0
LINE
8
Black
10
9.485
20
4.645
11
9.485
21
0.815
0
LINE
8
Black
10
14.565
20
0.815
11
12.895
21
0.815
0
LINE
8
Black
10
12.895
20
0.815
11
12.895
21
4.645
0
LINE
8
Black
10
12.895
20
4.645
11
14.565
21
4.645
0
LINE
8
Black
10
14.565
20
4.645
11
14.565
21
0.815
0
LINE
8
Black
10
24.725
20
0.815
11
23.055
21
0.815
0
LINE
8
Black
10
23.055
20
0.815
11
23.055
21
4.645
0
LINE
8
Black
10
23.055
20
4.645
11
24.725
21
4.645
0
LINE
8
Black
10
24.725
20
4.645
11
24.725
21
0.815
0
LINE
8
Black
10
19.645
20
0.815
11
17.975
21
0.815
0
LINE
8
Black
10
17.975
20
0.815
11
17.975
21
4.645
0
LINE
8
Black
10
17.975
20
4.645
11
19.645
21
4.645
0
LINE
8
Black
10
19.645
20
4.645
11
19.645
21
0.815
0
LINE
8
Black
10
1.725
20
4.005
11
-2.105
21
4.005
0
LINE
8
Black
10
-2.105
20
4.005
11
-2.105
21
5.675
0
LINE
8
Black
10
-2.105
20
5.675
11
1.725
21
5.675
0
LINE
8
Black
10
1.725
20
5.675
11
1.725
21
4.005
0
LINE
8
Black
10
29.185
20
4.005
11
25.355
21
4.005
0
LINE
8
Black
10
25.355
20
4.005
11
25.355
21
5.675
0
LINE
8
Black
10
25.355
20
5.675
11
29.185
21
5.675
0
LINE
8
Black
10
29.185
20
5.675
11
29.185
21
4.005
0
LINE
8
Black
10
4.645
20
6.545
11
0.815
21
6.545
0
LINE
8
Black
10
0.815
20
6.545
11
0.815
21
8.215
0
LINE
8
Black
10
0.815
20
8.215
11
4.645
21
8.215
0
LINE
8
Black
10
4.645
20
8.215
11
4.645
21
6.545
0
LINE
8
Black
10
32.105
20
6.545
11
28.275
21
6.545
0
LINE
8
Black
10
28.275
20
6.545
11
28.275
21
8.215
0
LINE
8
Black
10
28.275
20
8.215
11
32.105
21
8.215
0
LINE
8
Black
10
32.105
20
8.215
11
32.105
21
6.545
0
LINE
8
Black
10
1.725
20
9.085
11
-2.105
21
9.085
0
LINE
8
Black
10
-2.105
20
9.085
11
-2.105
21
10.755
0
LINE
8
Black
10
-2.105
20
10.755
11
1.725
21
10.755
0
LINE
8
Black
10
1.725
20
10.755
11
1.725
21
9.085
0
LINE
8
Black
10
29.185
20
9.085
11
25.355
21
9.085
0
LINE
8
Black
10
25.355
20
9.085
11
25.355
21
10.755
0
LINE
8
Black
10
25.355
20
10.755
11
29.185
21
10.755
0
LINE
8
Black
10
29.185
20
10.755
11
29.185
21
9.085
0
LINE
8
Black
10
4.645
20
11.625
11
0.815
21
11.625
0
LINE
8
Black
10
0.815
20
11.625
11
0.815
21
13.295
0
LINE
8
Black
10
0.815
20
13.295
11
4.645
21
13.295
0
LINE
8
Black
10
4.645
20
13.295
11
4.645
21
11.625
0
LINE
8
Black
10
32.105
20
11.625
11
28.275
21
11.625
0
LINE
8
Black
10
28.275
20
11.625
11
28.275
21
13.295
0
LINE
8
Black
10
28.275
20
13.295
11
32.105
21
13.295
0
LINE
8
Black
10
32.105
20
13.295
11
32.105
21
11.625
0
LINE
8
Black
10
1.725
20
14.165
11
-2.105
21
14.165
0
LINE
8
Black
10
-2.105
20
14.165
11
-2.105
21
15.835
0
LINE
8
Black
10
-2.105
20
15.835
11
1.725
21
15.835
0
LINE
8
Black
10
1.725
20
15.835
11
1.725
21
14.165
0
LINE
8
Black
10
29.185
20
14.165
11
25.355
21
14.165
0
LINE
8
Black
10
25.355
20
14.165
11
25.355
21
15.835
0
LINE
8
Black
10
25.355
20
15.835
11
29.185
21
15.835
0
LINE
8
Black
10
29.185
20
15.835
11
29.185
21
14.165
0
LINE
8
Black
10
4.645
20
16.705
11
0.815
21
16.705
0
LINE
8
Black
10
0.815
20
16.705
11
0.815
21
18.375
0
LINE
8
Black
10
0.815
20
18.375
11
4.645
21
18.375
0
LINE
8
Black
10
4.645
20
18.375
11
4.645
21
16.705
0
LINE
8
Black
10
32.105
20
16.705
11
28.275
21
16.705
0
LINE
8
Black
10
28.275
20
16.705
11
28.275
21
18.375
0
LINE
8
Black
10
28.275
20
18.375
11
32.105
21
18.375
0
LINE
8
Black
10
32.105
20
18.375
11
32.105
21
16.705
0
LINE
8
Black
10
1.725
20
19.245
11
-2.105
21
19.245
0
LINE
8
Black
10
-2.105
20
19.245
11
-2.105
21
20.915
0
LINE
8
Black
10
-2.105
20
20.915
11
1.725
21
20.915
0
LINE
8
Black
10
1.725
20
20.915
11
1.725
21
19.245
0
LINE
8
Black
10
29.185
20
19.245
11
25.355
21
19.245
0
LINE
8
Black
10
25.355
20
19.245
11
25.355
21
20.915
0
LINE
8
Black
10
25.355
20
20.915
11
29.185
21
20.915
0
LINE
8
Black
10
29.185
20
20.915
11
29.185
21
19.245
0
LINE
8
Black
10
4.645
20
21.785
11
0.815
21
21.785
0
LINE
8
Black
10
0.815
20
21.785
11
0.815
21
23.455
0
LINE
8
Black
10
0.815
20
23.455
11
4.645
21
23.455
0
LINE
8
Black
10
4.645
20
23.455
11
4.645
21
21.785
0
LINE
8
Black
10
32.105
20
21.785
11
28.275
21
21.785
0
LINE
8
Black
10
28.275
20
21.785
11
28.275
21
23.455
0
LINE
8
Black
10
28.275
20
23.455
11
32.105
21
23.455
0
LINE
8
Black
10
32.105
20
23.455
11
32.105
21
21.785
0
LINE
8
Black
10
29.185
20
24.325
11
25.355
21
24.325
0
LINE
8
Black
10
25.355
20
24.325
11
25.355
21
25.995
0
LINE
8
Black
10
25.355
20
25.995
11
29.185
21
25.995
0
LINE
8
Black
10
29.185
20
25.995
11
29.185
21
24.325
0
LINE
8
Black
10
1.725
20
24.325
11
-2.105
21
24.325
0
LINE
8
Black
10
-2.105
20
24.325
11
-2.105
21
25.995
0
LINE
8
Black
10
-2.105
20
25.995
11
1.725
21
25.995
0
LINE
8
Black
10
1.725
20
25.995
11
1.725
21
24.325
0
LINE
8
Black
10
24.725
20
25.355
11
23.055
21
25.355
0
LINE
8
Black
10
23.055
20
25.355
11
23.055
21
29.185
0
LINE
8
Black
10
23.055
20
29.185
11
24.725
21
29.185
0
LINE
8
Black
10
24.725
20
29.185
11
24.725
21
25.355
0
LINE
8
Black
10
19.645
20
25.355
11
17.975
21
25.355
0
LINE
8
Black
10
17.975
20
25.355
11
17.975
21
29.185
0
LINE
8
Black
10
17.975
20
29.185
11
19.645
21
29.185
0
LINE
8
Black
10
19.645
20
29.185
11
19.645
21
25.355
0
LINE
8
Black
10
14.565
20
25.355
11
12.895
21
25.355
0
LINE
8
Black
10
12.895
20
25.355
11
12.895
21
29.185
0
LINE
8
Black
10
12.895
20
29.185
11
14.565
21
29.185
0
LINE
8
Black
10
14.565
20
29.185
11
14.565
21
25.355
0
LINE
8
Black
10
9.485
20
25.355
11
7.815
21
25.355
0
LINE
8
Black
10
7.815
20
25.355
11
7.815
21
29.185
0
LINE
8
Black
10
7.815
20
29.185
11
9.485
21
29.185
0
LINE
8
Black
10
9.485
20
29.185
11
9.485
21
25.355
0
LINE
8
Black
10
4.405
20
25.355
11
2.735
21
25.355
0
LINE
8
Black
10
2.735
20
25.355
11
2.735
21
29.185
0
LINE
8
Black
10
2.735
20
29.185
11
4.405
21
29.185
0
LINE
8
Black
10
4.405
20
29.185
11
4.405
21
25.355
0
LINE
8
Black
10
27.265
20
28.275
11
25.595
21
28.275
0
LINE
8
Black
10
25.595
20
28.275
11
25.595
21
32.105
0
LINE
8
Black
10
25.595
20
32.105
11
27.265
21
32.105
0
LINE
8
Black
10
27.265
20
32.105
11
27.265
21
28.275
0
LINE
8
Black
10
22.185
20
28.275
11
20.515
21
28.275
0
LINE
8
Black
10
20.515
20
28.275
11
20.515
21
32.105
0
LINE
8
Black
10
20.515
20
32.105
11
22.185
21
32.105
0
LINE
8
Black
10
22.185
20
32.105
11
22.185
21
28.275
0
LINE
8
Black
10
17.105
20
28.275
11
15.435
21
28.275
0
LINE
8
Black
10
15.435
20
28.275
11
15.435
21
32.105
0
LINE
8
Black
10
15.435
20
32.105
11
17.105
21
32.105
0
LINE
8
Black
10
17.105
20
32.105
11
17.105
21
28.275
0
LINE
8
Black
10
12.025
20
28.275
11
10.355
21
28.275
0
LINE
8
Black
10
10.355
20
28.275
11
10.355
21
32.105
0
LINE
8
Black
10
10.355
20
32.105
11
12.025
21
32.105
0
LINE
8
Black
10
12.025
20
32.105
11
12.025
21
28.275
0
LINE
8
Black
10
6.945
20
28.275
11
5.275
21
28.275
0
LINE
8
Black
10
5.275
20
28.275
11
5.275
21
32.105
0
LINE
8
Black
10
5.275
20
32.105
11
6.945
21
32.105
0
LINE
8
Black
10
6.945
20
32.105
11
6.945
21
28.275
  0
ENDSEC
  0
EOF
