G04 #@! TF.FileFunction,Paste,Top*
%FSLAX46Y46*%
G04 Gerber Fmt 4.6, Leading zero omitted, Abs format (unit mm)*
G04 Created by KiCad (PCBNEW 4.0.5) date Thu Feb 16 13:03:40 2017*
%MOMM*%
%LPD*%
G01*
G04 APERTURE LIST*
%ADD10C,0.100000*%
%ADD11R,1.143000X0.508000*%
%ADD12C,2.082800*%
%ADD13R,0.600000X0.400000*%
%ADD14R,0.800000X0.200000*%
%ADD15R,0.200000X0.800000*%
%ADD16R,0.720000X0.720000*%
G04 APERTURE END LIST*
D10*
D11*
X18415000Y21590000D03*
X21165000Y21590000D03*
X18415000Y20320000D03*
X18415000Y19050000D03*
X18415000Y17780000D03*
X18415000Y16510000D03*
X18415000Y15240000D03*
X12065000Y15240000D03*
X12065000Y16510000D03*
X12065000Y17780000D03*
X12065000Y19050000D03*
X12065000Y20320000D03*
X12065000Y21590000D03*
X12065000Y22860000D03*
X12065000Y24130000D03*
X21165000Y22860000D03*
X21165000Y24130000D03*
X18415000Y22860000D03*
X18415000Y24130000D03*
D12*
X2270000Y16270000D03*
X2270000Y13730000D03*
X5770000Y27730000D03*
X3230000Y27730000D03*
X3230000Y2270000D03*
X5770000Y2270000D03*
X19770000Y27730000D03*
X17230000Y27730000D03*
X17230000Y2270000D03*
X19770000Y2270000D03*
X26770000Y27730000D03*
X24230000Y27730000D03*
X24230000Y2270000D03*
X26770000Y2270000D03*
X27730000Y13730000D03*
X27730000Y16270000D03*
D13*
X4572000Y22802000D03*
X4572000Y21902000D03*
X4572000Y20770000D03*
X4572000Y19870000D03*
X6350000Y22802000D03*
X6350000Y21902000D03*
X6350000Y20770000D03*
X6350000Y19870000D03*
X8128000Y22802000D03*
X8128000Y21902000D03*
X8128000Y20770000D03*
X8128000Y19870000D03*
D14*
X8050000Y11200000D03*
X8050000Y10800000D03*
X8050000Y10400000D03*
X8050000Y10000000D03*
X8050000Y9600000D03*
X8050000Y9200000D03*
X8050000Y8800000D03*
D15*
X8800000Y8050000D03*
X9200000Y8050000D03*
X9600000Y8050000D03*
X10000000Y8050000D03*
X10400000Y8050000D03*
X10800000Y8050000D03*
X11200000Y8050000D03*
D14*
X11950000Y8800000D03*
X11950000Y9200000D03*
X11950000Y9600000D03*
X11950000Y10000000D03*
X11950000Y10400000D03*
X11950000Y10800000D03*
X11950000Y11200000D03*
D15*
X11200000Y11950000D03*
X10800000Y11950000D03*
X10400000Y11950000D03*
X10000000Y11950000D03*
X9600000Y11950000D03*
X9200000Y11950000D03*
X8800000Y11950000D03*
D16*
X10600000Y9400000D03*
X10600000Y10600000D03*
X9400000Y9400000D03*
X9400000Y10600000D03*
D14*
X18050000Y11200000D03*
X18050000Y10800000D03*
X18050000Y10400000D03*
X18050000Y10000000D03*
X18050000Y9600000D03*
X18050000Y9200000D03*
X18050000Y8800000D03*
D15*
X18800000Y8050000D03*
X19200000Y8050000D03*
X19600000Y8050000D03*
X20000000Y8050000D03*
X20400000Y8050000D03*
X20800000Y8050000D03*
X21200000Y8050000D03*
D14*
X21950000Y8800000D03*
X21950000Y9200000D03*
X21950000Y9600000D03*
X21950000Y10000000D03*
X21950000Y10400000D03*
X21950000Y10800000D03*
X21950000Y11200000D03*
D15*
X21200000Y11950000D03*
X20800000Y11950000D03*
X20400000Y11950000D03*
X20000000Y11950000D03*
X19600000Y11950000D03*
X19200000Y11950000D03*
X18800000Y11950000D03*
D16*
X20600000Y9400000D03*
X20600000Y10600000D03*
X19400000Y9400000D03*
X19400000Y10600000D03*
M02*
