  0
SECTION
  2
BLOCKS
  0
ENDSEC
  0
SECTION
  2
ENTITIES
  0
LINE
  8
0
 10
-19.65
 20
-2.4
 11
-18.05
 21
-2.4
  0
LINE
  8
0
 10
-18.05
 20
-2.4
 11
-18.05
 21
-18.05
  0
LINE
  8
0
 10
-18.05
 20
-18.05
 11
-2.5
 21
-18.05
  0
LINE
  8
0
 10
-2.5
 20
-18.05
 11
-2.5
 21
-14
  0
LINE
  8
0
 10
-2.5
 20
-14
 11
-12
 21
-14
  0
LINE
  8
0
 10
-12
 20
-14
 11
-12.0164
 21
-14.2558
  0
LINE
  8
0
 10
-12.0164
 20
-14.2558
 11
-12.0654
 21
-14.5073
  0
LINE
  8
0
 10
-12.0654
 20
-14.5073
 11
-12.1462
 21
-14.7505
  0
LINE
  8
0
 10
-12.1462
 20
-14.7505
 11
-12.2574
 21
-14.9814
  0
LINE
  8
0
 10
-12.2574
 20
-14.9814
 11
-12.3972
 21
-15.1962
  0
LINE
  8
0
 10
-12.3972
 20
-15.1962
 11
-12.5633
 21
-15.3914
  0
LINE
  8
0
 10
-12.5633
 20
-15.3914
 11
-12.753
 21
-15.5637
  0
LINE
  8
0
 10
-12.753
 20
-15.5637
 11
-12.9632
 21
-15.7103
  0
LINE
  8
0
 10
-12.9632
 20
-15.7103
 11
-13.1904
 21
-15.8288
  0
LINE
  8
0
 10
-13.1904
 20
-15.8288
 11
-13.4309
 21
-15.9173
  0
LINE
  8
0
 10
-13.4309
 20
-15.9173
 11
-13.6808
 21
-15.9744
  0
LINE
  8
0
 10
-13.6808
 20
-15.9744
 11
-13.9359
 21
-15.999
  0
LINE
  8
0
 10
-13.9359
 20
-15.999
 11
-14.192
 21
-15.9908
  0
LINE
  8
0
 10
-14.192
 20
-15.9908
 11
-14.445
 21
-15.9499
  0
LINE
  8
0
 10
-14.445
 20
-15.9499
 11
-14.6907
 21
-15.8769
  0
LINE
  8
0
 10
-14.6907
 20
-15.8769
 11
-14.9251
 21
-15.7732
  0
LINE
  8
0
 10
-14.9251
 20
-15.7732
 11
-15.1442
 21
-15.6403
  0
LINE
  8
0
 10
-15.1442
 20
-15.6403
 11
-15.3446
 21
-15.4806
  0
LINE
  8
0
 10
-15.3446
 20
-15.4806
 11
-15.5229
 21
-15.2965
  0
LINE
  8
0
 10
-15.5229
 20
-15.2965
 11
-15.6762
 21
-15.0911
  0
LINE
  8
0
 10
-15.6762
 20
-15.0911
 11
-15.8019
 21
-14.8678
  0
LINE
  8
0
 10
-15.8019
 20
-14.8678
 11
-15.8981
 21
-14.6302
  0
LINE
  8
0
 10
-15.8981
 20
-14.6302
 11
-15.9631
 21
-14.3823
  0
LINE
  8
0
 10
-15.9631
 20
-14.3823
 11
-15.9959
 21
-14.1281
  0
LINE
  8
0
 10
-15.9959
 20
-14.1281
 11
-15.9959
 21
-13.8719
  0
LINE
  8
0
 10
-15.9959
 20
-13.8719
 11
-15.9631
 21
-13.6177
  0
LINE
  8
0
 10
-15.9631
 20
-13.6177
 11
-15.8981
 21
-13.3698
  0
LINE
  8
0
 10
-15.8981
 20
-13.3698
 11
-15.8019
 21
-13.1322
  0
LINE
  8
0
 10
-15.8019
 20
-13.1322
 11
-15.6762
 21
-12.9089
  0
LINE
  8
0
 10
-15.6762
 20
-12.9089
 11
-15.5229
 21
-12.7035
  0
LINE
  8
0
 10
-15.5229
 20
-12.7035
 11
-15.3446
 21
-12.5194
  0
LINE
  8
0
 10
-15.3446
 20
-12.5194
 11
-15.1442
 21
-12.3597
  0
LINE
  8
0
 10
-15.1442
 20
-12.3597
 11
-14.9251
 21
-12.2268
  0
LINE
  8
0
 10
-14.9251
 20
-12.2268
 11
-14.6907
 21
-12.1231
  0
LINE
  8
0
 10
-14.6907
 20
-12.1231
 11
-14.445
 21
-12.0501
  0
LINE
  8
0
 10
-14.445
 20
-12.0501
 11
-14.192
 21
-12.0092
  0
LINE
  8
0
 10
-14.192
 20
-12.0092
 11
-14
 21
-12.0031
  0
LINE
  8
0
 10
-14
 20
-12.0031
 11
-14
 21
15
  0
LINE
  8
0
 10
-14
 20
15
 11
-2.5
 21
15
  0
LINE
  8
0
 10
-2.5
 20
15
 11
-2.5
 21
18.05
  0
LINE
  8
0
 10
-2.5
 20
18.05
 11
-18.05
 21
18.05
  0
LINE
  8
0
 10
-18.05
 20
18.05
 11
-18.05
 21
2.4
  0
LINE
  8
0
 10
-18.05
 20
2.4
 11
-19.65
 21
2.4
  0
LINE
  8
0
 10
-19.65
 20
2.4
 11
-19.65
 21
-2.4
  0
LINE
  8
0
 10
2.5
 20
-18.05
 11
18.05
 21
-18.05
  0
LINE
  8
0
 10
18.05
 20
-18.05
 11
18.05
 21
-2.5
  0
LINE
  8
0
 10
18.05
 20
-2.5
 11
15
 21
-2.5
  0
LINE
  8
0
 10
15
 20
-2.5
 11
15
 21
-14
  0
LINE
  8
0
 10
15
 20
-14
 11
2.5
 21
-14
  0
LINE
  8
0
 10
2.5
 20
-14
 11
2.5
 21
-18.05
  0
LINE
  8
0
 10
2.5
 20
15
 11
15
 21
15
  0
LINE
  8
0
 10
15
 20
15
 11
15
 21
2.5
  0
LINE
  8
0
 10
15
 20
2.5
 11
18.05
 21
2.5
  0
LINE
  8
0
 10
18.05
 20
2.5
 11
18.05
 21
18.05
  0
LINE
  8
0
 10
18.05
 20
18.05
 11
2.5
 21
18.05
  0
LINE
  8
0
 10
2.5
 20
18.05
 11
2.5
 21
15
  0
ENDSEC
  0
SECTION
  2
OBJECTS
  0
DICTIONARY
  0
ENDSEC
  0
EOF
